<?xml version="1.0" encoding="UTF-8"?><svg xmlns="http://www.w3.org/2000/svg" viewBox="0 0 1270.71 1504.65"><defs><style>.d{fill:#a6810b;}.d,.e,.f,.g,.h,.i,.j,.k{fill-rule:evenodd;}.e,.l{fill:#059669;}.g{fill:#dc2626;}.m{fill:#fff;}.h{fill:#0369a1;}.i{fill:#7c3aed;}.j{fill:#ea580c;}.k{fill:#7c6262;}</style></defs><g id="b" shape-rendering="geometricPrecision"><path class="h" d="M490.9,416.86c-4.35,5.96-7.25,22.49-11.57,28.5-1.44.96-45.13,70.34-47.28,77.64-4.27,16.97,5.78,37.33,20.98,45.25,10.5,5.48,22.49,7.34,33.94,9.85,19.07,4.17,39.31,8.01,57.77,14.37-8.83,14.57-19.03,33.1-33.29,42.99-4.31,1.61-12.04-5.42-15.15-7.95-13.26-10.8-26.01-22.21-39.27-33.02-40.18-32.76-79.64-66.38-119.44-99.6-11.23-9.38-22.75-18.41-33.91-27.88-6.35-5.39-13.76-10.52-17.68-18.06-.08-3.67,2.25-6.46,4.44-9.2,4.83-6.03,9.77-12.02,14.79-17.88,18.5-21.59,35.8-44.26,54.18-65.96,5.63-6.65,15.36-24.84,25.82-22.18,12.38,3.14,24.11,16.9,33.6,24.88,14.47,12.18,29.71,23.41,44.19,35.58,8.92,7.49,17.88,16.73,27.91,22.68Z"/><path class="m" d="M387.92,397.41c3.19-1.09,6.69.15,8.52,2.96l26.38,51.62,19.13-27.12c1.79-2.53,4.95-3.67,7.93-2.85,2.99.82,5.13,3.43,5.38,6.49l6.9,85.71c.27,3.36-1.77,6.44-4.95,7.54-3.19,1.09-6.69-.15-8.52-2.96l-26.38-40.62-19.13,16.12c-2.58,2.29-4.95,3.67-7.93,2.85-2.99-.82-5.13-3.43-5.38-6.49l-6.9-85.71c-.27-3.36,1.77-6.44,4.95-7.54Z"/><path class="e" d="M595.43,729.17c5.06-5.84,10.06-11.73,15.11-17.59,3.96-4.59,8.93-8.35,12.21-13.53,5.36-8.46-9-6.78-14.23-5.89-5.39.92-10.79,2.04-15.87,4.07-7.85,3.14-13.36,3.36-17.39,10.97-3.99,7.53-7.15,15.45-10.3,23.35-1.8,4.53-5.1,9.81.4,12.26,3.36,1.5,7.7.39,10.98-.73,7.05-2.42,14.19-7.26,19.08-12.91Z"/><path class="g" d="M230.42,674.01c2.7,1.5,5.32,3.26,7.89,4.87,11.73,7.34,24.88,12.05,37.92,16.7,5.98,2.14,11.96,4.27,17.94,6.41-5.48,7.78-13.48,16.35-20.82,22.42-7.52-1.31-64.93-25.52-70.26-39.66-1.08-2.86-.93-6.4,1.16-8.62,1-1.07,2.35-1.74,3.66-2.39,2.81-1.39,5.68-2.8,8.78-3.23,4.83-.66,9.38,1.09,13.72,3.51Z"/><path class="g" d="M240.09,430.1c-6.08,14.71.62,34.89,10.13,46.56,7.41,9.09,17.43,16.19,26.62,23.33,16.36,12.69,34.66,25.06,49.39,39.53-3.1-2.43-8.8,3.43-11.67,5.68-10.52,8.29-21.62,16.06-32.39,24.03-29.99,22.19-61.06,42.82-91.22,64.74-9.07,6.59-18.16,13.16-27.24,19.74-5.17,3.74-10.79,9.01-17.12,10.58-11.25,2.79-16.02-9.96-20.99-17.63-14.64-22.57-28.68-45.53-43.22-68.16-4.34-6.75-16.74-19.41-12.55-27.97,3.09-6.32,10.12-10.02,15.77-13.64,10.65-6.81,20.88-14.31,31.43-21.29,26.99-17.87,52.61-37.79,79.66-55.59,10.41-6.85,20.54-14.07,30.6-21.43,3.71-2.71,9.96-5.06,12.79-8.48ZM138.81,539.31c-.33,3.16-.56,5.86.87,8.75,13.09,3.6,27.68,4.28,41.13,6.36.62,2.5-.75,5.58-1.11,8.08-1.13,7.68-3.31,15.18-4.42,22.85-.42,2.89-2.3,7.89-.17,10.03,2.8.79,6.62,2.3,9.38.8,6.36-11.34,7.33-27.72,9.52-40.45,9.69-.18,19.49,1.97,29.05,3.31,3.93.55,9.32,2.12,13.19,1.08,1.43-2.9,2.15-5.93.85-8.97-3.11-3.28-7.8-3.28-12-3.95-9.22-1.47-18.56-2.3-27.77-3.72.71-9.31,2.89-18.38,5.33-27.37,1.25-4.6,3.82-10.28,2.42-15.05-2.45-2.67-5.42-3.26-8.96-2.97-3.14,2.93-3.67,9.23-4.58,13.24-2.29,10.11-4.31,20.69-7.23,30.6-10.14-.19-20.82-2.39-30.96-3.34-4.63-.43-10.38-1.7-14.54.73Z"/><path class="d" d="M333.05,225.77c-3.02,16.9,2.46,33.77,7.28,49.89,1.87,6.23,6.68,14.62,5.78,21.27-.38,2.75-3.15,5.25-4.92,7.21-3.59,3.96-7,8.25-10.29,12.47-13.79,17.67-28.52,34.53-42.46,52.04-5.02.78-11.19-1.79-16.55-1.34-13.51,1.13-24.63,8.59-34.61,17.16,1.16-1.88-3.29-6.69-4.37-8.5-4.51-7.61-8.03-16.01-12.03-23.91-13.35-26.43-24.62-54.54-39.3-80.22-5.04-8.82-16.86-23.46-11.58-34.13,4.13-8.35,16.6-8.33,24.7-10.42,22.32-5.77,44.44-12.44,66.65-18.66,13.14-3.68,26.14-7.91,39.48-10.83,5.62-1.24,13.58-3.28,19.17-1.42,7.01,6,9.8,14.13,11.68,22.92.46,2.14,1.6,4.3,1.36,6.49ZM232.13,319.6c-.52.4-1.04.81-1.56,1.21.02,7.1,5.07,19.8,10.44,24.71,14.36-7.53,28-14.33,43.32-19.89,10.49-3.8,23.58-6.48,32.21-13.89.23-5.84-6.19-13.22-9.18-17.78-10.48.66-20.75,8.2-30.55,11.73-14.71,5.3-29.97,8.78-44.69,13.92ZM242.14,285.12c-.28.23-.55.46-.83.69,2.74,6.03,5.27,12.43,9.34,17.73,7.85-1.01,16.49-4.91,24.1-7.32,9.47-3,21.6-5.12,30.21-9.98-1.65-6.42-3.38-13.13-6.22-19.15-19.84,4.36-37.7,10.44-56.6,18.02ZM250.7,248.28c-.68,5.39,4.38,17.77,7.19,22.63,6.85-.59,14.66-3.94,21.2-6.07,11.2-3.64,22.14-7.33,32.71-12.44.86-5.49-4.58-16.04-6.92-20.99-6.88.94-13.77,4.57-20.43,6.57-11.27,3.39-22.83,5.79-33.74,10.3Z"/><path class="e" d="M389.78,592.61c8.29,5.97,15.66,13.72,23.49,20.32,16.59,13.98,33.61,27.52,49.91,41.85,11.44,10.06,25.67,25.63,40.76,29.7,7.96,2.15,16.06.69,24.12.14,3.26,4.03,5.89,8.52,9.2,12.56-1.38.52-1.33,3.11-1.24,4.38-4.01,14.69-13.68,29.02-20.01,42.9-13.29,29.12-26.76,58.5-41.56,86.88-5.27,10.11-9.63,20.66-14.36,31.03-1.9,4.18-4.24,10.93-8.02,13.75-12.48,9.33-30.84-1.54-43.53-5.83-32.2-10.9-64.29-22.16-96.46-33.15-11.21-3.83-27.82-5.9-36.8-14.07-3.09-5.08-1.03-11.68,1.24-16.61,5.07-11.04,10.83-21.9,16.61-32.59,23.65-43.76,45.4-88.61,67.9-132.95,6.33-12.47,12.44-25.38,19.75-37.3,1.82-2.96,5.39-11.43,9.02-11.01ZM336.22,761.48c-1.07,9.05,2.65,23.19,9.03,30.04,7.21,1.55,13.38-3.68,20.15-3.58,1.08,2.55,3.23,7.34,3.27,10.08.07,4.27-2.85,7.95-2.12,12.36,5.54,6.83,23.44,8.88,31.38,6.02,2.43-2.83,2.33-7.67,5.4-9.73,4.41-1.28,11.1-2.53,15.13.06.88,2.88,1.31,5.81,2.07,8.71,2.99,1.23,6.83.23,9.93-.35,8.4-1.55,16.74-4.3,23.7-9.36,1.97-3.34-2.41-8.68-2.52-12.36-.13-4.61,3.78-10.49,6.1-14.31,5.89.69,11.5,3.34,17.73,3.71,2.36-1.3,3.87-5.6,5.37-7.83,5.71-8.46,9.46-16.66,4.48-26.53-2.92-2.31-7.25-.75-10.46-2.81-1.69-2.12-2.35-4.56-2.87-7.18,3.03-4.46,9.56-4.89,12.63-9.63,6.29-9.69-2.52-31.46-14.62-31.79-3.77.82-7.68,4.61-11.59,3.95-2.56-1.73-4.44-3.69-5.46-6.64.23-3.48,2.42-4.82,3.97-7.6-2.63-15.08-22.72-15.65-34.09-15.36-2.64,4.37-4.7,10.23-6.59,15-3.44,1.61-10.62-.85-13.44-2.98-2-2.47-2.33-6.06-3.23-9.07-6.08-6.9-13.05,2.69-17.96,4.48-2.68.98-5.78.99-8.56,1.56-2.95,1.94-6.84,9.26-7.11,12.71,4.14,4.87,5.38,12.6-1.26,16.47-4.76-.44-9.36-2.06-14.18-1.81-8.77,3.09-12.57,16.58-13,24.87-.16,3.24-.23,6.73,1.84,9.38,2.95,1.34,5.93,1.59,8.53,3.69,1.45,2.34,2.19,4.6,1.82,7.4-3.37,3.94-8.76,3.96-12.88,6.66-.2.58-.4,1.16-.6,1.74Z"/><path class="e" d="M347.04,731.49c1.86-10.77,8.06-12.68,17.44-7.73,2.38-2.34,3.93-5.33,6.3-7.71,3.82-3.83,9.16-7.58,11.09-12.84.87-3.52-1.88-7.22-2.74-10.58,3.65-3.59,8.53-6.72,13.67-7.41,2.12,3.13,3.05,6.63,4.41,10.12,1.2.73,4.31.45,5.82.67,7.42,1.09,14.73-.75,22.19-.67.09-3.9.46-8.44,2.02-12.04,3.97.07,14.66-1.67,16.85,2.27-1.02,3.83-3.44,7.6-3.01,11.68.69,6.54,11.35,14.23,16.93,16.88,4.82.21,8.56-3.94,13.52-3.16,2.3,2.31,6.78,7.48,4.72,11.06-3.9,2.85-8.9,3.05-13.02,5.36-.47,6.2-.07,12.29.02,18.49.04,2.4-.46,6.54,1.19,8.44,3.6.45,8.1,1.1,11.29,2.89,1.3,13.87-10.14,12.31-19.68,11.92-6.43,3.8-11.87,13.75-17.04,19.33.02,3.85,3.22,6.53,3.5,10.23-3.45,2.82-8.06,5.16-12.17,6.9-3.08-2.31-4.62-8.65-7.24-11.84-5.87,1.9-12.31,1.93-18.39,2.71-2.56.32-6.26-.03-8.5,1.41-3.27,2.11-5.53,6.47-8.33,9.2-2.83.79-6.78-2.11-8.34-4.3-.41-3.12.96-5.27,1.82-8.14-.32-6.9-10.47-13.01-14.43-18.12-4.73,1.52-10.81,3.53-15.69,1.83-2.92-2.19-3.65-6.1-3.3-9.58,2.78-3.2,6.45-4.7,9.54-7.45,1.2-1.4,1.26-3.66,1.4-5.46.38-5,1.72-13.33.18-18.08-3.47-2.34-7.49-4.06-11.53-5.14-.16-.39-.33-.78-.5-1.17ZM366.86,738.84c-5.09,25.75,14.72,50.11,41.28,49.64,21.9-.39,43.04-17.82,47.11-39.54,3.84-20.46-11.74-41.71-31.92-45.39-23.4-4.27-51.59,10.64-56.46,35.29Z"/><path class="e" d="M378.88,746.45c1.12-13.68,9.62-25.95,22.99-30.22,20.01-6.39,42.54,7.04,40.71,29.06-1.36,16.37-15.29,29.08-31.61,30.9-18.12,2.02-33.62-11.03-32.09-29.74Z"/><path class="g" d="M569.83,283.51c-2.79,6.46-7.2,12.66-11.15,18.47-1.87,2.76-3.02,6.13-5.39,8.5-.32-3.18-7.11-3.99-9.75-4.43-11.07-1.85-19.24,1.47-24.3,12.03-4.34,9.06-1.31,21.33,1.48,30.42,1.08,3.52,4.58,8.49,3.7,12.14-3.99,5.65-6.41,15.14-12.02,19.37-3.32-1.13-6.87-4.83-9.64-7-7.8-6.11-15.08-12.86-22.98-18.86-12.95-9.85-26.56-18.86-39.31-28.97-15.61-12.37-30.4-25.66-47.58-35.92-8.24-7.02-12.24-24.23-13.33-34.97-.46-4.59.54-9.01,4.37-11.96,8.72-6.72,25.18-4.34,35.57-5.94,30.16-4.64,60.82-6.49,91.05-10.76,10.83-1.53,28.8-6.91,38.48-.1,4.83,3.4,5.77,9.98,7.74,15.14,5.07,13.28,10.84,28.82,13.07,42.84ZM444.25,294.38c-2.12,19.24,18.83,32.15,33.4,40.33,3.69,2.07,11.81,8.59,16.09,6.8,6.64-8.86,11.65-18.98,16.08-29.08,2.83-6.46,5.61-14.58,4.27-21.72-1.43-7.58-5.03-17.43-13.6-19.41-5.53-1.28-13.08-1.48-17.36,2.75-1.36,1.34-8.15,11.19-9.37,10.58-10.58-11.87-26.38-4.2-29.51,9.76Z"/><path class="j" d="M547.39,137.84c1.74,8.69,3.67,17.32,5.4,26.01.76,3.81,2.36,8.79,1.97,12.63-6.02.23-12.03.68-18.02,1.29-6.01-4.68-7.94-14-12.93-20.29-11.56-14.58-29.82-20-47.8-17.74-14.89,1.87-27.3,12.88-29.41,27.95-1.01,7.22-.93,16.33,6.89,19.46-6.89-.11-14.14,2.62-21.04,3.46-14.27,1.73-28.64,2.75-42.9,4.11,11.48-22.56,26.12-43.44,39.38-65.09,4.54-7.42,10.04-21.88,18.54-25.5,4.95-2.11,14.73,2.34,19.34,4.13,14.8,5.74,29.76,10.69,44.45,16.76,7.82,3.23,15.82,6.17,24,8.36,3.55.96,9.73,1.6,12.15,4.48Z"/><path class="j" d="M523.05,179.42c-7.1.51-14.24,1.48-21.24,2.74-3.97-4.04-2.25-10.25-4.91-15.03-6.67-6.2-18.75,1-21.46,8.35,4.61,2.08,8.42,1.63,11.38,6.42-1.2.63-2.2,1.29-3.2,2.21-7.08,1.27-14.08,2.02-21.22,2.82-2.14-2.71-4.64-4.91-5.68-8.43-6.73-22.7,19.1-30.14,36.19-27.72,10.09,1.43,19.54,7.49,24.67,16.31,2.26,3.9,2.98,8.65,5.47,12.32Z"/><path class="k" d="M486.81,181.9c.81,1.27,1.43,1.5,2.87,1.75-2.04.14-4.05.12-6.07.46,1-.92,2-1.57,3.2-2.21Z"/><path class="i" d="M486.55,512.72c3.8-9.14,10.34-17.06,15.43-25.51,8.63-14.32,16.37-29.15,25.03-43.46,22.1-36.5,43.44-73.63,64.39-110.81,8.96-15.91,18.16-31.73,27.35-47.5,3.38-5.8,7.08-14.81,13.33-18.07,11.74-6.13,31.05,1.21,43.14,3.76,35.82,7.55,71.5,15.36,107.48,22.21,10.83,2.06,21.82,4.24,32.44,7.22,5.03,1.41,9.59,4.05,9.65,9.85.08,8.13-5.39,14.64-9.33,21.28-7.48,12.61-13.98,25.76-21.44,38.39-27.39,46.33-53.65,93.52-79.52,140.71-7.52,13.72-15.76,27.03-23.45,40.65-3.46,6.12-7.18,15.16-13.61,18.73-3.85,2.13-9.33.87-13.39.11-10.47-1.94-20.83-4.53-31.2-6.93-35.19-8.14-69.95-18.2-105.15-26.2-12.2-2.77-32.8-3.07-41.26-13.26-1.31-3.6-.73-7.5.1-11.15ZM553.45,443.01c-2.2,12.93,8.55,24.32,21.15,24.91,15.05.71,32.58-8.34,35.87-24.27.68-3.3.51-6.96.47-10.32-.13-13.05-11.7-18.58-23.14-17.28-15.34,1.74-31.51,10.27-34.36,26.96ZM609.49,482.48c-.25,10.28,18.19,13.82,26.08,14.4,4.07.29,9.88-1.83,10.29-6.57-4.58-6.74-19.26-9.05-26.8-10.21-3.33-.51-6.2-1.02-9.13.71-.14.56-.29,1.12-.43,1.67ZM612.38,470.33c.63,4.84,6.8,6.27,10.9,6.91,8.88,1.37,18.44,5.28,27.37,5.22,3.45-.02,7.88-.86,10.07-3.76.32-4.13-7.01-5.25-9.94-6.19-11.37-3.64-23.32-9.35-35.44-9.47-1.48,2.35-2.07,4.69-2.96,7.29ZM618.52,451.95c-.68,1.81-1.12,2.6-.52,4.51,5.14,2.51,11.39,3.36,16.89,4.92,9.28,2.63,18.77,6.16,28.58,6.21,5.32-10.55,11.28-23.22,20.47-30.99,7-5.92,15.89-9.17,23.36-14.44,15.96-11.27,29.17-29.25,30.32-49.39.34-5.88-1.03-11.96-2.84-17.53-1.76-5.4-4.45-10.83-7.84-15.39-5.82-7.85-15.82-12.01-25.05-14.14-27.96-6.45-58.33,7.87-72.86,32.07-7.4,12.31-10.35,27.23-7.63,41.37,1.3,6.77,5.05,13.02,5.52,19.96.49,7.39-3.13,15.43-5.29,22.38-1.11,3.58-1.28,7.11-3.09,10.47Z"/><path class="h" d="M713.27,604.74c22.24,6.47,55.02,6.33,68.93-16.25,4.58-7.44,4.82-16.82,5.36-25.26,6.07-.67,12.15-.86,18.22-1.75,1.39-2.55-2.85-7.86-4.73-9.21-7.41.16-18.53.31-24.44,5.29-.87,7.05,1.42,15.66-1.58,22.38-6,13.44-25.82,18.74-39.07,18.38-5.56-.15-10.95-2.43-16.47-1.91,2.92-4.53,4.78-11.1,9.13-14.52,7.52,4.07,21.84,5.74,25.71-4.52,1.53-4.05.16-9.17-.73-13.21-.93-4.19-2.5-11.77-6.47-14.04,1.54-3.22,3.12-6.4,5.71-8.92,5.26,1.42,10.59,5.86,16.1,6.11,8.49.38,18.84-6.67,25.38-11.31.29-3.57-3.41-6.38-6.11-8.07-7.18-.06-11.49,7.47-17.93,9.47-4.42-.4-8.48-4.49-12.68-5.92,4.92-10.26,10.69-20.2,16.12-30.33,3.25-6.06,6.15-14.4,10.76-19.49,6.91,2.05,14.98,3.13,20.97,7.55,6.33,11.49,10.1,24.82,15.03,36.97,5.74,14.16,12.64,27.82,18.1,42.11,2.59,6.77,4.97,13.67,7.32,20.53,1.12,3.27,2.87,6.33,2.36,9.88-5.23,6.49-13.69,7.69-21.28,9.8-14.61,4.06-29.31,7.69-44,11.46-47.49,12.18-95.2,23.54-142.84,35.14-14.32,3.49-28.57,7.28-42.95,10.52-6.29,1.42-14.08,3.81-20.53,2.77-7.13-4.95-8.98-13.7-11.86-21.28,2.1-5.83,6.8-11.07,10.18-16.24,5.64-8.62,10.61-18.02,17.12-26.01,5.59-.33,12.41,2.5,17.94,3.58,20.31,3.99,40.81,12.16,61.71,12.15,9.25,0,19.77-1.85,27.94-6.31,4.52-2.46,8.83-8.01,13.58-9.52Z"/><path class="h" d="M746.27,237.85c-17.86-3.68-35.93-6.51-53.81-10.29-14.57-3.08-29.41-7.32-44.3-8.47-15.76-1.23-31.39-.66-43.52,10.83,1.65-2.69-.39-5.8-.91-8.66-1.64-9.11-3.92-17.99-5.89-27.02-6.71-30.85-15.5-61.44-23.37-92.02-1.94-7.55-4.08-15.08-5.73-22.69-.86-3.97-1.72-7.89.36-11.57,6.97-5.85,22.28-1.06,30.87-.56,23.46,1.39,47.14,3.06,70.51,5.55,10.83,1.16,20.91.19,29.55,7.92,2.21,3.09,2.68,7.77,3.71,11.39,2.44,8.58,5.14,17.09,7.45,25.7,7.55,28.2,16.29,56.26,24.73,84.21,3.43,11.36,4.77,25.2,10.35,35.69ZM602.29,104.17c-.68.32-1.36.64-2.04.95,5.16,18.73,7.56,38.66,12.57,57.62,1.65,6.23,2.19,14.81,6.56,19.79,5.94,1.82,13.63,1.33,19.86,1.7,12.33.73,24.69,1.37,37.02,2.26,9.2.67,22.32,3.32,31.25,1.01.07-2.71.4-5.53-.28-8.17-8.55-2.95-19.43-2.7-28.4-2.89-12.32-.27-24.81-1.46-37.1-2.36-5.17-.38-10.91.22-15.92-1.14-4.93-14.52-8.66-30.66-11.74-45.72-1.05-5.15-2.59-10.18-3.68-15.32-.51-2.43-.68-5.48-2.34-7.42-1.93-.32-3.8-.34-5.76-.32ZM616.32,113.04c.52,4.3.11,8.6,2.48,12.41,6.43.23,12.75,1.62,19.25,1.13,2.28-.17,5.84.42,7.72-1.1-1.15-3.99-.57-8.03-3.13-10.9-7.09-2.18-19.02-2.45-26.32-1.53ZM620.93,132.75c.7,4.78,1.19,9.44,2.44,14.14,2.39,1.48,6.7.75,9.46.96,8.16.64,17.76-.26,25.83.98-.73-5.03-1.79-9.82-2.85-14.84-11.61-.37-23.28-1.82-34.87-1.24ZM626.75,156.35c.36,3.85.68,7.62,1.39,11.43,10.12-.62,57.37,3.81,67.37,3.22.08-4.51-2.09-10.08-2.66-14.59-9.82.49-55.49-2.63-65.42-2.32-.92,1.71-.88.92-.68,2.26Z"/><path class="i" d="M567.99,438.3c6.55-13.62,31.91-16.26,31.22,3.05-.55,15.25-22.74,20.47-30.85,8.17-1.21-3.89-1-7.23-.37-11.22Z"/><path class="i" d="M632.21,386.93c1.23-5.17,1.16-10.26,3.42-15.22,8.51-18.67,26.28-31.33,46.52-33.78,11.07-1.34,23.34.57,32.13,7.92,13.33,11.16,12.59,33.52,3.74,47.29-9.72,15.12-26.15,20.93-39.61,31.75-6.77,5.44-11.42,13.26-16.01,20.52-1.13,1.78-3.13,7.49-5.2,7.71-2.96-.17-5.86-.83-8.81-1.06.18-4.07,4.03-9.6,5.69-13.5,5.07-11.93,10-24.51,16.98-35.48,2.6-1.87,5.9-2.11,8.88-3.16,5.96-2.08,11.81-5,16.71-9,1.9-2.88.94-6.16-.67-8.95-6.22-1.71-12.64,3.27-18.09,5.64-2.06.9-4.01,2.63-6.28,1.83-2.84-5-10.29-22.41-17.91-14.13-.85,4.66.01,9.67,2.33,13.83,1.6,2.88,5.12,6.12,4.89,9.63-.35,5.28-4.54,11.52-6.66,16.34-4.73,10.78-8.49,23.1-14.19,33.33-2.63-.28-5.8-1.15-7.99-2.64,1.33-10.75,8.39-19.3,7.57-30.71-.72-10.21-8.32-17.1-7.45-28.19Z"/><path class="i" d="M740.15,767.37c-2.78-2.9-11.03,1.7-14.27,2.82-9.68,3.34-18.91,7.89-28.46,11.55-4.4,1.69-10.31,2.41-14.21,4.8,7.63-12.68,17.43-25.04,26.57-36.68,4.38-5.58,8.19-12.51,13.97-16.74,4.53,11.7,12.06,22.33,16.39,34.25Z"/><path class="h" d="M742.36,557.53c4.29,1.44,3.8,4.07,2.97,8.02-.75,2.34-1.58,4.06-3.28,5.85-2.86,1.36-6.1,1.45-9.05,2.68,1.18-5.77,5.71-12.03,9.36-16.55Z"/><path class="j" d="M746.06,668.62c14.51-5.1,30.18-7.89,45.09-11.8,20.83-5.45,41.46-11.66,62.44-16.55,17.97-4.19,38.59-11.18,42.33-32.2,4.03-22.69-13.28-44.5-19.78-65.04,4.25,2.65,9.34,1.97,13.38,5.68,5.63,5.18,8.49,12.42,11.93,19.08,6.78,13.16,12.41,26.9,18.73,40.26,19.28,40.75,37.72,81.91,57.28,122.53,6.81,14.12,13.44,28.37,20.06,42.59,2.77,5.96,7.42,14.24,5.75,21.02-1.02,4.13-6.05,6.44-9.59,7.94-8.97,3.8-19.15,4.95-28.48,7.75-33.4,9.99-66.62,20.56-99.92,30.9-11.26,3.5-28.46,12.31-39.52,4.24-4.62-3.37-6.34-9.61-8.77-14.52-6.01-12.14-11.56-24.54-16.94-36.97-17.98-41.52-34.53-84.11-54-124.91ZM798.53,669.78c10.11,27.02,22.61,53.48,33.72,80.15,3.36,8.08,6.76,16.14,10.05,24.24,1.42,3.48,2.82,8.6,5.45,11.32,23.19-7.13,46.38-14.76,69.66-21.57,7.73-2.26,15.43-4.63,23.15-6.95,4.55-1.37,9.75-2.29,13.5-5.38.56-2.37-1.92-4.61-3.38-6.16-7.87-2.41-20.37,3.73-27.94,6.15-16.33,5.21-32.63,10.61-49.1,15.36-6.13,1.76-12.97,5.32-19.36,5.69-2.06-1.32-3.15-5.74-4.01-8.02-2.38-6.32-4.9-12.83-7.74-18.97-12.02-25.92-21.74-53-33.37-79.1-3.8-.03-7.27,1.61-10.63,3.23ZM833.72,702.01c-.98,4.7,3.89,12.25,5.8,16.61,6.25,14.27,12.61,28.51,18.44,42.95,1.36.79,4.24-1.19,5.64-1.68,4.45-1.57,10.18-2.43,14.22-4.7-7.07-20.48-17.69-39.83-25.33-60.22-6.21.7-13.02,4.64-18.76,7.04ZM873.84,717.02c-.59.44-1.19.88-1.79,1.32,3.13,11.78,7.95,23,12.05,34.47.74.75,3.81-.75,4.76-1.07,4.88-1.69,10.15-3.16,15.18-4.32-.51-12.07-7.96-25.92-15.4-35.11-4.91,1.6-9.9,3.05-14.81,4.71ZM885.08,677.48c4.29,16.39,12.07,32.97,18.56,48.63,2.46,5.94,6.79,12.46,7.65,18.85.53,1.03,3.31-1.02,4.31-1.42,4.34-1.75,11.95-2.14,15.51-5.06-.98-5.17-3.89-10.26-5.67-15.21-6.35-17.63-14.01-35.4-23.34-51.56-5.74-.4-12.15,3.1-17.02,5.77Z"/><path class="j" d="M763.01,163.69c1.8-6.42,5.97-11.84,9.69-17.29,5.33-7.81,10.22-15.91,15.93-23.46,2.84-3.74,7.06-10.88,12.11-11.66,9.81-1.51,19.84,4.55,28.4,8.36,17.21,7.65,34.7,14.68,52.1,21.88,13.3,5.52,26.8,10.57,39.96,16.42,4.25,1.89,11.82,4.42,14,8.85-.32,6.46-4.45,11.19-7.84,16.35-6.33,9.65-13.13,18.99-19.45,28.66-1.95,2.99-12.64,16.87-12.64,16.87l-21.85,2.45s-4.4,1.06-8.96,2.01c-15.01,6.58-34.1,6.26-50.11,9.06-8.9,1.56-19.15,5.78-28.19,5.18-4.33-21.03-12.14-41.58-17.64-62.35-1.88-7.09-4.95-13.94-5.52-21.33ZM788.61,179.39c-.21.36-.43.73-.64,1.1,5.46,14.51,16.08,27.07,25.22,39.44,3.85,5.21,7.3,12.42,14.9,10.04,3.27-2.07,5.47-5.7,8.06-8.53,8.32-9.11,14.66-19.59,21.78-29.62,2.67-3.77,8.13-10.17,7.76-15.08-14.61-2.67-30,.35-44.74-.06-11.43-.32-21.86-3.1-32.33,2.71Z"/><path class="g" d="M871.83,272.86c2.25-1.95,6.3-2.08,9.13-2.61,5.7-1.06,11.37-2.28,17.09-3.29,20.87-3.71,41.8-7.11,62.69-10.69,8.68-1.49,19.4-4.37,27.09,1.58,7.44,5.75,11.01,15.6,14.89,23.84,7.41,15.77,15.52,31.33,23.63,46.75,7.58,14.44,14.9,29.03,22.31,43.55,3.52,6.89,7.48,14.07,3.61,21.82-3.06,3.46-9.6,3.96-13.88,4.93-12.04,2.72-24.21,4.98-36.38,7.06-45.05,7.7-90.61,16.01-135.23,25.91-11.66,2.59-23.73,3.53-35.33,6.29-7.51,1.78-14.75,3.54-20.81-1.62,3.43-11.36,12.11-21.98,17.73-32.43,11.6-21.59,22.82-43.47,35.14-64.66,5.16-8.89,11.68-17.9,14.77-27.79,4-12.82.68-27.58-6.46-38.62ZM880.79,313.97c.76,9.72,6.84,19.57,11.03,28.25,7,14.48,13.84,29.39,19.59,44.4,2.65.28,6.97-.56,9.47-1.54,1.04-1.09-1.21-3.64-1.77-4.72-2.05-4.02-3.77-8.22-5.73-12.28-6.9-14.37-13.56-28.86-20.1-43.4-2.2-4.9-4.88-13.06-11.41-12.57-.36.62-.73,1.24-1.09,1.86ZM892.84,309.12c5.36,17.55,16.51,33.15,23.39,50.16,3.62.41,9.27-2.12,13.06-2.79,8.6-1.5,17.42-2.19,25.98-3.79.27-2.23-1.82-5.82-2.62-7.99-2.5-6.76-6.31-13.16-8.11-20.16-.69-6.71,9.61-11.14,12.41-16.58,1.32-2.57-.47-5.98-1.44-8.35-4.73-1.83-11.68.48-16.65,1.05-15.18,1.72-31.4,3.99-46.01,8.46ZM920.36,364.06c-.13.35-.27.7-.41,1.06,1.81,5.54,3.32,11.71,6.49,16.66,20.99-4.11,44-5.44,63.94-13.67-.62-4.8-4.75-10.4-6.94-14.73-5.79-11.43-13.85-31.93-20.35-41.36-3.04,2.03-9.52,9.12-11.03,12.76-1.18,2.86,1.63,7.82,2.77,10.45,3.18,7.35,7.83,15.01,9.74,22.78-.11.16-.21.32-.32.48-14.48,1.73-29.71,2-43.89,5.56Z"/><path class="e" d="M896.26,468.55c2.25-5.62,13.69-5.46,19.09-6.64,19.86-4.37,39.8-8.39,59.8-12.06,2.81.65,6.27.45,9.15.29,16.33-1.31,33.11-.36,49.42.94,5.4.43,14.24.23,18.76,3.53,3.3,2.42,5.57,6.94,7.65,10.34,5.44,8.89,10.31,18.13,15.27,27.29,15.04,27.78,30.4,55.44,46.07,82.87,8.85,15.49,17.87,30.87,26.68,46.38,2.8,4.93,10.24,13.68,9.06,19.57-.72,1.95-2.15,3.31-3.83,4.49-4.99,1-10.73,0-15.79-.23-8.7-.4-17.42-.32-26.11-.84-26.77-1.61-53.72-1.52-80.53-2.26-10.22-.29-20.37-1.15-30.58-1.56-4.01-.16-9.95-1.35-13.43.9-7.59-8.06-11.09-22.85-15.74-32.8-10.61-22.66-20.76-45.72-32.92-67.6-6.57-11.83-13.48-25.07-24.83-33.09-1.77-5.39-5.23-10.45-7.61-15.61-3.6-7.8-6.12-16.08-9.59-23.91Z"/><path class="e" d="M975.15,449.85c2.52-.4,4.97-1.05,7.48-1.46.46.89.74,1.35,1.67,1.75-2.88.16-6.34.35-9.15-.29Z"/><path class="f" d="M1208.12,651.01c-2.23-15.3-14.84-30.06-22.37-43.2-17.35-30.31-33.87-61.1-51.4-91.3-5.76-9.92-11.07-20.1-16.54-30.18-1.77-3.26-5.91-8.43-5.2-12.07,14.18-9,28.44-17.96,43.02-26.31,8.87-5.08,19.74-11.61,23.01-21.98,6.7-21.27-10.32-36.42-23.67-50.32-16.53-17.21-32.15-35.25-48.08-53.03-7.74-8.64-15.19-20.53-25.14-26.64-8.33-5.12-16.4-5.34-25.43-7.63-12.79-15.99-16.44-37.92-28.81-54.2-4.99-6.57-13.4-11.58-20.91-14.65-5.22-2.14-10.68-3.35-16.29-3.87-8.67-.81-17.89.46-26.38,2.26-4.88,1.04-10.77,3.15-15.76,2.55,5.47-12.87,15.79-24.19,23.28-35.97,5.24-8.24,9.44-16.36,7.26-26.46-3.97-18.43-22.49-25.06-38.05-31.38-31.61-12.85-62.95-26.39-94.54-39.27-15.34-6.26-31.29-16.04-48.49-14.1-16.37,1.85-27.13,13.16-35.8,26.27-3.11,4.71-6.36,9.42-9.81,13.88-.93,1.2-2.02,4.27-3.7,4.18-1.71-9.61-5.76-18.99-8.38-28.41-3.33-11.99-6.24-25.44-15.19-34.64-13.9-14.28-32.38-15.53-51.03-17.08-20.49-1.71-41.08-3.03-61.52-5.39-12.77-1.47-25.69-1.77-38.44-3.37-14.13-1.77-28.74-3.21-38.34,9.44-13.18,17.35-.3,40.82,2.19,59.55-20.23-7.23-41.03-14.69-60.81-23.08-19.24-8.16-42.43-15.54-60.15.59-7.74,7.04-12.59,17.94-18.04,26.75-9.2,14.9-19.29,29.43-27.87,44.7-3.77,6.71-8.19,12.99-12.08,19.61-.77,1.32-2.88,6.75-4.07,7.19-8.42-10.85-22.13-19.09-36.2-19.05-10.99.02-21.83,3.75-32.34,6.54-35.57,9.43-71.24,19.08-106.44,29.83-18.39,5.62-43.92,7.01-52.51,27.11-7.51,17.57.81,34.03,8.64,49.81,8.32,16.77,16.1,33.78,24.24,50.64,4.48,9.27,10.61,18.88,13.63,28.72-2.24,5.65-11.57,12.27-15.88,16.8-15.44,16.25-36.77,31.76-45.03,53.2-4.24,10.99-5.27,22.87-1.77,34.18,1.62,5.24,7.29,12.91,7.07,18.25-18.11,15.17-38.97,27.77-58.45,41.11-12.91,8.84-26.96,17.22-32.48,32.75-7.08,19.95,2.75,34.86,13.03,51.24,15.59,24.83,30.87,49.91,46.8,74.5,7.15,11.03,13.82,25.53,24.37,33.75,10.27,8,22.73,5.36,34.65,5.76,10.68,17.05,27.93,27.04,45.34,35.94,17.49,8.93,35.38,17.64,52.06,28.02.13,2.46-1.98,4.73-3.01,6.84-2.49,5.06-5.3,9.96-7.89,14.97-8.75,16.9-15.21,36.72-4.86,54.58,11.68,20.17,38.47,25.42,59.09,31.91,41.04,12.91,81.81,27.14,122.4,41.4,9.38,3.29,19.17,7.27,29.08,8.57,15.64,2.05,32.02-4.12,43.01-15.24l17.61-25.25c4.52-11.62,10.42-22.62,15.59-33.95,27.2,16.16,57.22,39.71,90.48,26.35,5.13-2.06,10.1-5.02,14.46-8.42,9.76-7.6,17.21-18.39,23.85-28.69,1.85-2.88,5.37-11.08,8.47-11.87,6.15,1.53,12.35,4.54,18.8,4.38,11.6-.29,22.75-6.62,33.3-10.74,17.73-6.93,36.03-13.32,53.26-21.36,1.87,5.51,9.29,20.75,8.53,22.31l12.92,26.67c7.76,12.74,10.4,26.76,24.24,35.24,23.99,14.7,46.42,5.58,71.02-1.64,32.33-9.49,64.39-19.7,96.42-30.12,12.24-3.98,24.61-7.71,36.95-11.37,16.26-4.83,32.65-8.51,41.7-24.37,16.14-28.28-5.91-54.91-16.32-80.82-2.34-5.83-7.29-12.11-7.93-18.39,3.51-6.11,9.98-10.67,14.4-16.19,6.27-7.82,10.24-17.54,13.78-26.82,22.31-1.15,45.53,1.17,67.91,1.68,14.85.34,29.71,1.05,44.57,1,8.32-.03,16.9.66,24.95-1.81,12.41-3.81,19.83-17.99,18.02-30.37ZM1074.85,315.88c8.22,9.06,16.29,18.29,24.55,27.31,13.71,14.96,26.81,30.47,40.54,45.41,6.36,6.91,16.15,14.96,18.97,24.2,2.46,8.11-4.4,13.34-10.43,17.11-15.06,9.42-29.84,19.43-44.83,28.85-1.1-.14-2.07-3.34-2.69-4.32-2.35-3.69-5.02-7.24-6.7-11.3-3.7-3.28-6.07-9.4-8.47-13.67,4.04-5.62,10.29-9.44,14.41-15.22,7.95-11.16,7.02-24.4,2.11-36.53-3.57-9.11-10.48-17.44-15.03-26.16-7.13-13.66-13.06-28.11-20.76-41.44,1.04-2.85,6.95,4.24,8.33,5.76ZM957.28,238.5c17.09-3.22,34.61-7.1,49.6,4.41,8.55,6.56,11.98,18.4,16.5,27.76,8.22,17.07,17.14,33.8,25.4,50.85,9,18.6,18.58,36.94,28.52,55.05,4.27,7.78,9.08,17.23,3.37,25.74-8.46,12.59-32.38,12.87-45.89,15.42-41.54,7.84-83,16.27-124.58,23.93-25.07,4.61-50.1,9.62-75.1,14.55-11.18,2.21-25.12,5.93-35.42-1.01,3.26-6.4,8.05-12.41,10.98-18.85,3.43-11.36,12.11-21.98,17.73-32.43,11.6-21.59,22.82-43.47,35.14-64.66,5.16-8.89,11.68-17.9,14.77-27.79,4-12.82.68-27.58-6.46-38.62-7.69-7.17-15.64-12.07-25.88-14.93,3.2-2.5,7.61-2.14,11.46-2.64,9.28-1.2,18.5-2.95,27.75-4.39,24.1-3.77,48.15-7.89,72.11-12.4ZM586.12,777.2c-3.4,1.2-5.51,4.59-8.92,5.77-9.04,3.14-18.45-1.23-27.07-3.17-.46-2.57,2.42-6.31,3.59-8.7,3.6-7.37,7.11-14.82,10.58-22.26,4.21-9,8.68-17.85,12.66-26.96,1.84-4.21,3.46-10.55,6.97-13.67,5.85-5.21,17.86-5.29,25.27-6.89,18.89-4.08,38.31-10.67,57.43-12.5-6.02,7-13.99,12.42-20.22,19.36-20.43,22.72-40.03,46.23-60.29,69.01ZM620.63,678.91c-16.74,4.15-37.41,12.8-54.77,10.15-7.43-1.13-18.58-7.25-18.99-15.8,2.18-8.97,11.86-19.41,17.95-26.18,2.1-5.83,6.8-11.07,10.18-16.24,5.64-8.62,10.61-18.02,17.12-26.01,5.59-.33,12.41,2.5,17.94,3.58,20.31,3.99,40.81,12.16,61.71,12.15,9.25,0,19.77-1.85,27.94-6.31,4.52-2.46,8.83-8.01,13.58-9.52,1.99-2.88,3.97-5.66,6.23-8.34,2.92-4.53,4.78-11.1,9.13-14.52,1.5-2.54,2.53-5.48,4.37-7.8,1.18-5.77,5.71-12.03,9.36-16.55,1.45-2.58,3.34-4.83,4.79-7.43,1.54-3.22,3.12-6.4,5.71-8.92.35-2.67,2.54-8.21,4.75-9.72,4.92-10.26,10.69-20.2,16.12-30.33,3.25-6.06,6.15-14.4,10.76-19.49,1.78-2.82,2.94-6.13,5.27-8.58,4.47,2.25,9.63,5.63,14.63,6.38,7.59,1.15,15.52-.69,23.1-1.06,11.18,31.86,24.68,63.51,37.65,94.71,5.28,12.69,14.8,26.86,3.47,38.93-5.91,6.29-14.98,8.05-22.96,10.13-15.05,3.91-30.13,7.72-45.17,11.71-59.72,15.85-119.88,30.19-179.85,45.06ZM499.08,556.22c-17.27-4.17-49.37-6.77-42.92-32.84,2.38-9.61,9.54-18.42,14.53-26.83,8.32-14.03,16.13-28.39,24.4-42.45,28.04-47.67,56.3-95.21,84.29-142.91,6.95-11.84,14.08-23.78,20.43-35.95,7-13.4,13.51-26.2,28.52-31.68,17.94-6.55,39.51,2.46,57.32,6.08,41.3,8.39,82.62,17,124.03,24.78,17.4,3.27,48.76,4.98,44.74,30.22-1.62,10.15-9.18,20.28-14.27,29-8.46,14.51-16.05,29.51-24.41,44.07-28.66,49.88-56.09,100.49-84.43,150.55-6.72,11.87-13.44,23.76-20.01,35.72-7.23,13.16-14.32,26.54-29.52,31.42-17.45,5.6-38.15-4.24-55.18-8.08-42.67-9.63-85-20.83-127.53-31.11ZM863.13,507.11c-2.19-1.81-2.79-6.02-3.81-8.65-3.16-8.13-7.15-16-9.19-24.52.84-.08,3.72-.49,4.62-.02,1.27.66,2.37,5.25,2.89,6.59,2.2,5.64,4.25,11.38,6.23,17.09,1.03,2.96,3.84,8.59-.73,9.51ZM765.96,126.08c8.1-11.49,16.24-30.53,31.57-33.37,12.36-2.29,23.37,4.41,34.32,9.15,21.3,9.22,42.89,18.26,64.5,26.74,15.54,6.1,31.56,12.02,46.7,19.04,6.26,2.9,13.79,6.25,15.85,13.51,2.28,8.06-3.36,14.61-7.92,20.61-10.24,13.46-17.38,31.43-29.48,43.2-6.91,2.44-15.01,1.95-22.21,3.16-8.58.7-17.3,1.93-25.85,3.01-3,.58-5.96,1.39-8.96,2.01-15.01,6.58-34.1,6.26-50.11,9.06-8.9,1.56-19.15,5.78-28.19,5.18-4.33-21.03-12.14-41.58-17.64-62.35-1.88-7.09-4.95-13.94-5.52-21.33-1.12-.99-1.57-4.36-2.12-5.94-1.94-5.62-4.49-11.3-5.45-17.2,2.28-5.23,7.21-9.8,10.51-14.47ZM550.24,52.83c7.31-10.46,28.43-5.34,39.13-4.18,26.97,2.92,53.99,5.47,81.03,7.63,15.32,1.22,29.2,0,41.2,11.35,4.94,4.68,6.39,11.57,8.19,17.91,2.92,10.26,5.62,20.62,8.8,30.79,13.06,41.74,25.32,83.84,37.17,125.93-6.71-.86-13.1-2.22-19.49-4.41-17.86-3.68-35.93-6.51-53.81-10.29-14.57-3.08-29.41-7.32-44.3-8.47-15.76-1.23-31.39-.66-43.52,10.83-1.37,1.52-2.89,2.96-4.66,3.97-1.66-1.19-2.44-6.4-2.99-8.48-1.87-7.04-3.49-14.1-6.73-20.68-3.06-6.2-10.47-10.69-12.76-16.83-3.43-9.18-4.21-20.05-6.47-29.61-4.83-20.44-9.93-40.82-14.63-61.29-2.23-9.7-5.18-19.24-7.2-28.98-1.01-4.91-2.01-10.81,1.05-15.19ZM387.42,158.14c9.73-15.13,18.51-30.86,28.14-46.06,5.79-9.14,10.79-23.21,22.11-26.57,9.02-2.69,18.49.33,26.87,3.62,12.17,4.77,24.25,9.92,36.56,14.31,9.64,3.44,19.23,7,28.82,10.58,4.36,1.63,10.02,2.68,13.21,6.26,1.71,5.78,2.82,11.72,4.26,17.56,1.74,8.69,3.67,17.32,5.4,26.01.76,3.81,2.36,8.79,1.97,12.63-6.02.23-12.03.68-18.02,1.29-4.58.59-9.11.98-13.68,1.65-7.1.51-14.24,1.48-21.24,2.74-4.09.37-8.07.87-12.12,1.49-2.04.14-4.05.12-6.07.46-7.08,1.27-14.08,2.02-21.22,2.82-2.97.34-5.94.4-8.92.22-6.89-.11-14.14,2.62-21.04,3.46-14.27,1.73-28.64,2.75-42.9,4.11-7.56,1.13-16.48,2.8-24.06,1.38,4.91-13.45,14.21-25.94,21.94-37.95ZM357.83,226.48c5.4-7.71,14.23-8.17,22.77-9.06,7.85-.82,15.7-1.82,23.55-2.69,35.43-3.94,70.88-7.87,106.23-12.49,14.94-1.95,34.17-7.53,48.35-.19,15.04,7.79,16.52,22.5,20.76,37.23,1.46,5.06,5.45,11.7,5.12,16.99-.21,3.24-3.07,6.15-4.61,8.87-3.31,5.83-5.92,13.23-10.17,18.38-2.79,6.46-7.2,12.66-11.15,18.47-1.87,2.76-3.02,6.13-5.39,8.5-4.33,11.13-12.27,21.55-18.15,31.94-3.15,5.56-6,13.97-10.73,18.23-3.99,5.65-6.41,15.14-12.02,19.37-3.32-1.13-6.87-4.83-9.64-7-7.8-6.11-15.08-12.86-22.98-18.86-12.95-9.85-26.56-18.86-39.31-28.97-15.61-12.37-30.4-25.66-47.58-35.92-7.95-4.08-17.24-.26-25.45-.62-3.32-12.44-8.04-24.54-11.35-37-2.26-8.54-3.64-17.45,1.76-25.16ZM365.39,312.73c10.3-6.2,22.42-2.33,31.69,3.79,30.43,20.1,57.54,46.12,86.61,68.19,6.05,4.59,11.77,10.21,18.12,14.32-2.12,5.63-6.54,13.65-10.91,17.82-4.35,5.96-6.54,13.52-10.86,19.54-2.19,4.98-5.36,9.58-8.77,13.78-.7,1.39-1.62,2.63-2.34,4.01-2.65,4.6-4.97,10.23-8.34,14.32-2.08,4.99-6.03,9.16-8.86,13.73-1.41,2.28-1.99,4.98-3.55,7.14-5.19,10.97-14.7,21.07-16.13,33.61-4.27,16.97,5.78,37.33,20.98,45.25,10.5,5.48,22.49,7.34,33.94,9.85,19.07,4.17,39.31,8.01,57.77,14.37,8.21-.66,17.1,4.36,25.25,5.21-2.58,5.87-7.21,10.98-10.61,16.39-6.88,10.94-13.81,22.33-21.92,32.41-6.29,7.81-11.1,14.52-21.93,15.36-7.38.57-13.06-3.33-18.69-7.58-9.84-7.43-18.79-15.98-28.39-23.72-40.98-33.03-81.84-66.67-121.64-101.1-19.95-17.26-40.56-33.86-61.01-50.53-10.94-8.92-23.46-16.21-24.61-31.71-1.14-15.4,17.02-30.44,26.05-41.48,16.54-20.23,32.93-40.57,49.42-60.85,8.56-10.53,16.92-25.02,28.74-32.13ZM304.43,609.98c-2-1.39-5.9-2.4-6.44-4.66,16.38-10.97,31.81-23.13,48.61-33.51-1.43,6.81-6.45,13.76-9.8,19.86-5.37,9.78-10.42,20-15.17,30.09-5.9-3.55-11.56-7.83-17.21-11.77ZM306.05,652.07c-4.41,9.7-8.92,21.56-14.96,30.27-5.28-1.41-10.62-6.08-15.28-8.95-8.26-5.1-16.67-9.96-25.01-14.92-4.6-2.74-11.74-5.09-15.01-9.28,8.43-5.93,18.11-16.9,28.05-19.85,13.76,8.1,28.59,14.22,42.21,22.73ZM161.23,276.17c-3.87-7.89-7.68-15.77-11.38-23.74-3.63-7.82-7.29-15.4-3.31-23.82,5.15-10.9,16.28-12.47,26.81-15.09,8.36-2.08,16.59-4.76,24.91-7.03,26.51-7.21,52.9-15.08,79.29-22.77,12.62-3.68,27.58-10.89,40.89-9.92,14.85,1.07,26.36,15.68,29.83,29.43-1.34,3.43-5.63,6.61-8.02,9.42-3.22,3.8-5.11,8.67-7.21,13.13-3.02,16.9,2.46,33.77,7.28,49.89,1.87,6.23,6.68,14.62,5.78,21.27-.38,2.75-3.15,5.25-4.92,7.21-3.59,3.96-7,8.25-10.29,12.47-13.79,17.67-28.52,34.53-42.46,52.04-5.02.78-11.19-1.79-16.55-1.34-13.51,1.13-24.63,8.59-34.61,17.16-4.37,5.08-11.64,8.97-17.28,12.59-4.28-12.98-12.14-25.72-18.09-38.05-13.38-27.71-27.13-55.23-40.69-82.85ZM139.27,432.49c3.17-18.25,21.28-32.05,34.01-44.32,4.33-4.18,9.17-11.03,14.7-13.39,2.94,7.28,6.31,14.38,9.18,21.71.96,2.45,3.43,6.53,3.29,9.09-9.01,7.77-17.11,16.68-26.3,24.25-9.58,7.89-20.54,13.87-30.14,21.63-4.04-4.17-5.16-13.42-4.74-18.96ZM132.03,688.28c-13.34-1.49-19.72-18.92-26.04-28.89-16.1-25.44-31.93-51.16-48.56-76.26-7.6-11.48-15.9-24.48-8.47-38.35,4.63-8.65,14.41-13.72,22.24-19,12.46-8.39,24.72-17.07,37.05-25.66,36.46-25.43,72.53-51.42,108.95-76.92,17.85-12.5,34.92-29.87,55.65-37.28-2.42,6.64-8.66,12.65-13.21,17.97-7.18,8.4-14.04,16.6-19.55,26.22-6.08,14.71.62,34.89,10.13,46.56,7.41,9.09,17.43,16.19,26.62,23.33,16.36,12.69,34.66,25.06,49.39,39.53,2.9,2.29,12.59,8.06,13.09,11.73-15.26,14.11-34.8,24.93-51.65,37.11-32.64,23.61-64.97,48.05-98.52,70.34-16.76,11.13-35.57,31.97-57.12,29.57ZM236.75,735.25c-22.94-12.09-44.27-24.03-63.84-41.01,2.27-3.24,7.38-5.32,10.55-7.76,7.77-6.02,16.06-13.32,24.61-18.11,6.8,1.22,12.51,9.13,19.46,10.93,6.9,4.3,14.27,8.02,21.26,12.21.99.59,6.87,3.68,6.67,4.75,7.23,2.99,13.78,7.77,20.37,11.93-5.17,12.84-11.86,25.05-17.95,37.48-1.28.94-3.82-1.04-5.11-1.72-5.36-2.86-10.64-5.86-16.01-8.69ZM488.91,856.36c-7.69,16.55-16.04,43.76-35.71,49.04-14.22,3.82-26.94-2.46-40.29-6.98-22.94-7.76-45.82-15.72-68.79-23.4-24.04-8.04-48.04-16.16-72.11-24.13-11.01-3.65-23-6.78-26.08-19.59-2.3-9.58,2.42-18.53,6.62-26.83,7.33-14.5,14.59-29.03,22.01-43.49,21.37-41.6,42.96-83.11,64.25-124.76,10.16-19.88,20.01-40.05,31.75-59.03,1.68.28,3.6,2.57,4.95,3.62,4.66,3.61,10.35,7.39,14.26,11.8,8.29,5.97,15.66,13.72,23.49,20.32,16.59,13.98,33.61,27.52,49.91,41.85,11.44,10.06,25.67,25.63,40.76,29.7,7.96,2.15,16.06.69,24.12.14,3.26,4.03,5.89,8.52,9.2,12.56,6.49,4.91,14.3,9.02,22.07,11.53-5.88,16.46-14.9,32.08-22.45,47.82-15.98,33.28-32.41,66.36-47.96,99.84ZM628.48,818.6c-8.83,13.77-21.37,34.87-38.73,38.23-24.03,4.65-43.49-17.97-63.53-27.05,3.53-8.52,7.36-18.12,12.59-25.73,1.47-2,10.14,3.7,13.01,4.77,8.32,3.1,16.99,4.12,25.74,2.49,21.89-4.07,37.2-25.24,49.02-42.49,22.21-30.59,50.37-56.41,72.53-86.97,2.34-.82,3.19,2.77,4.2,4.59,2.21,4,8.37,13.61,7.33,18.35-6.45,12.27-17.71,23.69-26.06,34.79-19.35,25.7-38.73,51.93-56.09,79.01ZM731.72,791.49c-11.48,4.14-22.9,8.39-34.19,13.03-9.92,4.08-20.03,9.1-30.99,7.95.63-3.52,3.81-7.2,5.82-10.08,3.66-5.25,6.87-10.82,10.86-15.85,7.63-12.68,17.43-25.04,26.57-36.68,4.38-5.58,8.19-12.51,13.97-16.74,4.53,11.7,12.06,22.33,16.39,34.25,2.23,6.29,5.57,12.54,8.74,18.42-5.52.15-11.97,3.83-17.17,5.7ZM1031.54,799.08c-2.05,22.34-25.65,24.26-42.89,29.59-40.8,12.62-81.7,24.86-122.32,38.02-16.22,5.26-34.85,14.92-51.16,4.51-8.01-5.11-12.44-14.65-16.14-23.04-5.31-12.02-10.71-24.22-15.36-36.5-5.03-13.28-11.59-26.2-17.26-39.23-14.26-32.75-29.04-65.28-43.69-97.84,7.87-1.59,15.53-4.18,23.36-5.99,14.51-5.1,30.18-7.89,45.09-11.8,20.83-5.46,41.46-11.66,62.44-16.55,17.97-4.19,38.59-11.18,42.33-32.2,4.03-22.69-13.28-44.5-19.78-65.04-2.17-5.55-4.16-11.16-6.3-16.69,5.82-1.24,11.25-2.43,17.26-2.05,25.32,1.63,33.4,28.8,42.47,48.25,24.57,52.71,48.9,105.49,73.5,158.18,6.71,14.38,13.16,28.91,19.98,43.23,3.53,7.43,9.28,16.57,8.49,25.12ZM1005.55,681.97c3.92-1.77,7.99-2.33,12.29-1.71,1.02.15,3.75.2,3.97,1.5-3.58,4.17-7.75,9.55-9.34,14.85-3.43-3.33-5.35-10.21-6.92-14.65ZM1184.79,654.51c-5.93,14.71-30.33,8.75-42.65,8.68-35.1-.2-70.2-2.34-105.29-2.64-9.41-.08-18.82-.24-28.22-.27-3.73-.01-10.06.96-13.33-.92-3.31-5.42-6.56-11.69-8.35-17.8-7.59-8.06-11.09-22.85-15.74-32.8-10.61-22.66-20.76-45.72-32.92-67.6-6.57-11.83-13.48-25.07-24.83-33.09-4.82-2.76-9.78-4.57-15.3-5.25-2.99-.37-7.26.3-9.81-1.38-5.45-10.3-10.07-21.29-14.28-32.13,5.35-.65,10.71-2.25,16.08-3.13.81-.13,5.23-1.84,5.71-.9.23.46.35,2.59.4,3.28,2.25-5.62,13.69-5.46,19.09-6.64,19.86-4.37,39.8-8.39,59.8-12.06,2.52-.4,4.97-1.05,7.48-1.46,5.69-.77,11.37-2.94,17.1-4.03,12.97-2.47,26.09-4.58,39.1-6.86,7.04-1.24,16.5-3.98,23.38-1.02,5.39,2.32,9.28,9.1,12.26,13.88,6.44,10.33,12.59,20.92,18.33,31.66,21.62,40.49,44.2,80.51,67.07,120.31,6.91,12.01,14.28,23.84,20.76,36.09,2.63,4.97,6.54,10.21,4.17,16.09Z"/><path class="i" d="M1102.32,377.71c4.58-1.41,8.29,5.35,10.56,8.25,7.71,9.85,18.44,17.45,24.43,28.56-.35,2.14-8.69,5.67-10.72,6.81-7.17,4.03-14,8.71-21.19,12.74-4.02,2.25-9.2,4.65-11.14,9.06-3.7-3.28-6.07-9.4-8.47-13.67,4.04-5.62,10.29-9.44,14.41-15.22,7.96-11.16,7.02-24.41,2.11-36.53Z"/><path class="m" d="M1030.05,542.87l-6.87-.83-11.56-22.97,13.34-.17c4.13-.05,5.8-3.41,3.73-7.52-2.07-4.11-7.08-7.38-11.21-7.33l-13.08.16-4.67-9.28c-1.55-3.09-5.3-5.54-8.41-5.5s-4.35,2.55-2.8,5.64l4.67,9.28-2.55.03c-14.06.18-19.76,11.67-12.73,25.64,6.34,12.6,21.04,23.18,34.49,24.79l7.22.87,11.54,22.92-17.41.22c-4.13.05-5.8,3.41-3.73,7.52s7.08,7.38,11.21,7.33l16.81-.21,4.67,9.28c1.55,3.09,5.3,5.54,8.41,5.5s4.35-2.55,2.8-5.64l-4.67-9.28,2.54-.03c14.06-.18,19.77-11.64,12.73-25.64-6.34-12.6-21.03-23.16-34.49-24.79ZM1007.14,540.1c-5.56-.68-11.63-5.04-14.26-10.26-2.91-5.78-.55-10.52,5.26-10.6l3.14-.04,10.82,21.5-4.97-.6ZM1044.34,578.44l-2.81.04-10.8-21.45,4.62.56c5.56.68,11.63,5.04,14.26,10.26,2.91,5.78.55,10.53-5.26,10.6Z"/><path d="M47.39,1106.59h46.53c-1.85,23.73,17.87,40.68,47.46,40.68,25.58,0,42.22-12.63,43.45-28.35,4.01-46.53-135.59-7.4-127.88-94.6,3.7-43.14,42.83-72.72,95.83-72.72s89.06,32.05,85.36,76.11h-44.99c2.16-21.57-16.02-36.98-42.52-36.98-24.34,0-41.6,11.4-42.83,26.81-4.01,44.68,135.9,6.16,128.19,93.99-3.7,43.76-43.76,74.88-99.53,74.88s-93.06-33.59-89.06-79.81Z"/><path d="M282.82,1056.05h-22.19l3.08-35.13h24.34l8.63-39.75h38.83l-3.39,39.75h35.75l-3.08,35.13h-35.75l-5.85,66.87c-1.23,13.25,6.16,22.19,19.11,22.19,4.31,0,11.09-.92,16.33-2.16l-3.39,36.98c-9.55,3.08-22.19,4.93-32.05,4.93-31.43,0-49.61-23.73-46.53-57.32l6.16-71.49Z"/><path d="M524.42,1020.92h46.22l-13.87,157.77h-46.22l1.85-21.88c-13.87,17.56-33.59,28.04-56.08,28.04-44.37,0-72.42-35.13-68.1-85.05,4.62-49.92,38.83-85.05,83.2-85.05,22.5,0,40.37,10.48,51.15,28.04l1.85-21.88ZM517.02,1099.81c2.46-25.58-13.25-44.37-37.29-44.37s-42.83,18.8-45.3,44.37c-2.16,25.58,13.56,44.37,37.59,44.37s42.83-18.8,44.99-44.37Z"/><path d="M716.09,1019.07l-3.39,40.98c-8.63-3.7-18.8-5.85-25.58-5.85-20.03,0-34.51,16.95-36.67,40.68l-7.4,83.82h-46.22l13.87-157.77h44.37l-1.85,20.03c10.79-15.72,26.81-25.88,44.37-25.88,6.16,0,12.63,1.54,18.49,4.01Z"/><path d="M751.83,1056.05h-22.19l3.08-35.13h24.34l8.63-39.75h38.83l-3.39,39.75h35.75l-3.08,35.13h-35.75l-5.85,66.87c-1.23,13.25,6.16,22.19,19.11,22.19,4.31,0,11.09-.92,16.33-2.16l-3.39,36.98c-9.55,3.08-22.19,4.93-32.05,4.93-31.43,0-49.61-23.73-46.53-57.32l6.16-71.49Z"/><path d="M859.69,1119.53l13.63-151.64h46.22l-13.01,143.63c-1.54,19.11,8.32,32.66,26.5,32.66s34.2-14.48,36.05-34.51l7.7-88.75h46.22l-13.87,157.77h-44.99l1.85-21.26c-12.63,16.95-32.05,27.43-52.69,27.43-35.44,0-57.01-27.43-53.62-65.33Z"/><path d="M1089.26,1249.57h-46.22l20.03-228.65h45.61l-1.85,19.11c13.87-15.72,33.28-25.27,55.16-25.27,43.76,0,71.8,35.13,67.18,85.05-4.31,49.92-38.21,85.05-82.28,85.05-21.57,0-38.83-9.24-49.92-25.27l-7.7,89.98ZM1145.65,1056.36c-24.04,0-43.14,18.49-45.3,43.45s13.56,43.45,37.59,43.45,42.83-18.49,44.99-43.45c2.46-25.27-13.56-43.45-37.29-43.45Z"/><path class="l" d="M389.44,1364.79c-11.4,48.38-60.09,83.2-116.17,83.2-67.79,0-112.78-49.3-106.93-117.41,5.85-68.1,59.47-117.41,127.27-117.41,55.47,0,97.99,35.75,101.38,85.36l-48.69,5.55c-4.01-27.12-26.81-46.53-55.16-46.53-39.14,0-69.33,30.2-73.03,73.03s21.26,73.03,60.09,73.03c27.73,0,54.54-19.11,63.48-44.99l47.76,6.16Z"/><path class="l" d="M553.69,1282.51h46.22l-13.87,157.77h-46.22l1.85-21.88c-13.87,17.56-33.59,28.04-56.08,28.04-44.37,0-72.42-35.13-68.1-85.05,4.62-49.92,38.83-85.05,83.2-85.05,22.5,0,40.37,10.48,51.15,28.04l1.85-21.88ZM546.29,1361.4c2.46-25.58-13.25-44.37-37.29-44.37s-42.83,18.8-45.3,44.37c-2.16,25.58,13.56,44.37,37.59,44.37s42.83-18.8,44.99-44.37Z"/><path class="l" d="M745.36,1280.66l-3.39,40.98c-8.63-3.7-18.8-5.85-25.58-5.85-20.03,0-34.51,16.95-36.67,40.68l-7.4,83.82h-46.22l13.87-157.77h44.37l-1.85,20.03c10.79-15.72,26.81-25.88,44.37-25.88,6.16,0,12.63,1.54,18.49,4.01Z"/><path class="l" d="M898.2,1211.63h46.22l-20.03,228.65h-45.61l1.54-19.11c-13.56,15.72-32.66,25.27-54.85,25.27-43.76,0-71.8-35.13-67.49-85.05,4.62-49.92,38.83-85.05,82.58-85.05,21.57,0,38.83,9.24,49.61,25.27l8.01-89.98ZM841.81,1404.85c24.04,0,42.83-18.49,44.99-43.45,2.16-24.96-13.25-43.45-37.29-43.45s-43.14,18.49-45.3,43.45c-2.16,25.27,13.87,43.45,37.59,43.45Z"/><path class="l" d="M962.92,1387.59h39.13c-1.23,15.72,12.33,26.81,32.36,26.81,16.95,0,30.2-8.01,31.12-18.8,2.46-31.74-101.69-.31-95.83-66.87,2.77-30.82,33.9-53,72.42-53,42.22,0,70.57,22.8,68.1,54.54h-40.68c.92-12.94-12.02-21.88-30.51-21.88-14.48,0-26.5,7.4-27.43,17.56-2.77,30.2,103.54,5.24,98.61,64.71-2.77,32.66-35.44,56.39-79.19,56.39s-71.18-24.96-68.1-59.47Z"/><polygon points="904.23 916.4 853.97 961.97 942.49 961.97 904.23 916.4"/></g></svg>