<?xml version="1.0" encoding="UTF-8"?><svg id="a" xmlns="http://www.w3.org/2000/svg" viewBox="0 0 1302.76 1311.95"><defs><style>.b,.c{fill:#29330c;}.c,.d{fill-rule:evenodd;}.d,.e{fill:#4f5b34;}.f{stroke:#29330c;stroke-width:14px;}.f,.g{fill:none;stroke-miterlimit:10;}.g{stroke:#4f5b34;stroke-width:45px;}.h{fill:#505834;}</style></defs><path class="h" d="M1044.03,317.03c-16.9,0-32.9.6-48,1.7h-.7c-1.4,0-2.6-.4-3.4-1.1s-1.2-1.8-1.2-3.3c-.2-1.4-.2-4-.2-7.7s0-6,.2-7.5c0-1.6.5-2.8,1.4-3.5s2.2-1,3.9-.8c11.9,1,26.2,1.4,42.7,1.4h42.5c1.6,0,2.9-.4,3.7-1.3.9-.9,1.3-2.1,1.3-3.7v-15.4c0-1.6-.4-2.8-1.3-3.7-.9-.9-2.1-1.3-3.7-1.3h-30.4c-11.4,0-21.7.3-30.7,1h-.7c-1.4,0-2.6-.4-3.4-1.1s-1.2-1.8-1.2-3.3c-.2-1.3-.2-3.6-.2-7s0-5.5.2-6.8c0-1.6.5-2.8,1.4-3.5s2.2-1,3.9-.8c7.7.6,17.9,1,30.7,1h30.4c1.6,0,2.9-.4,3.7-1.3s1.3-2.1,1.3-3.7v-8.7c0-1.6-.4-2.9-1.3-3.7s-2.1-1.3-3.7-1.3h-7.7c-1.6,0-2.9-.4-3.7-1.3-.9-.9-1.3-2.1-1.3-3.7v-38.9c0-1.6-.4-2.9-1.3-3.7s-2.1-1.3-3.7-1.3h-16.7c-3.1,0-4.9,1.5-5.6,4.6-4.3,21.1-14.7,37-31.1,47.8-1.1.8-2.2,1.2-3.1,1.2-1.4,0-2.7-.8-3.9-2.4-3.9-4.2-6.4-6.8-7.5-8-1.1-1.1-1.7-2.2-1.7-3.4s.8-2.5,2.4-3.6c11.9-8,19.7-18.3,23.4-30.7.2-.5.2-1,.2-1.7,0-2.6-1.5-3.9-4.6-3.9h-7.5c-3.9,0-6.7,0-8.4.2h-.7c-2.9,0-4.5-1.5-4.8-4.3v-6c0-2.9,0-5,.2-6.3,0-2.6,1.4-3.9,4.1-3.9l10.6.2h9.2c1.6,0,2.9-.4,3.7-1.3s1.3-2.1,1.3-3.7v-19.3c0-1.6-.4-2.9-1.3-3.7s-2.1-1.3-3.7-1.3h-5.3c-2.4,0-4.3,0-5.6.2-3.4,0-5.1-1.5-5.1-4.3-.2-1.1-.2-3.1-.2-6s0-5.5.2-7c0-1.6.5-2.8,1.4-3.5s2.2-1,3.9-.8c12.4,1.1,28.4,1.7,48,1.7h26.6c7.4,0,14.6-.2,21.7-.7h.7c1.4,0,2.6.4,3.4,1.1s1.2,1.8,1.2,3.3c.2,1.1.2,3.2.2,6.3s0,5-.2,6.3c0,2.6-1.6,3.9-4.8,3.9-1.1-.2-2.9-.2-5.3-.2h-4.6c-1.6,0-2.9.4-3.7,1.3s-1.3,2.1-1.3,3.7v19.3c0,1.6.4,2.9,1.3,3.7.9.9,2.1,1.3,3.7,1.3h7.2c3.4,0,5.9,0,7.5-.2h.7c3.1,0,4.7,1.4,4.8,4.1v6c0,2.9,0,5-.2,6.3,0,2.7-1.5,4.1-4.6,4.1l-8.2-.2h-7.2c-1.6,0-2.9.5-3.7,1.3s-1.3,2.1-1.3,3.7v34.5c0,1.6.4,2.9,1.3,3.7.9.9,2.1,1.3,3.7,1.3h9.7c1.6,0,2.9.4,3.7,1.3s1.3,2.1,1.3,3.7v13c0,1.6.4,2.9,1.3,3.7.9.9,2.1,1.3,3.7,1.3h29.7c11.1,0,21.1-.3,29.9-1h.7c1.4,0,2.6.4,3.4,1.1s1.2,1.8,1.2,3.3c.2,1.3.2,3.5.2,6.8s0,5.7-.2,7c0,1.6-.5,2.8-1.4,3.5s-2.3,1-3.9.8c-7.7-.6-17.7-1-29.9-1h-29.7c-1.6,0-2.9.4-3.7,1.3s-1.3,2.1-1.3,3.7v15.4c0,1.6.4,2.9,1.3,3.7.9.9,2.1,1.3,3.7,1.3h41.8c14,0,28-.5,42-1.4h.7c1.4,0,2.6.4,3.4,1.1s1.2,1.8,1.2,3.3c.2,1.4.2,3.9.2,7.5s0,6.3-.2,7.7c0,3.2-1.4,4.7-4.3,4.3-12.4-1.1-28.7-1.7-49-1.7h-105.7v-.1ZM1044.83,134.23c-.9.9-1.3,2.1-1.3,3.7v19.3c0,1.6.4,2.9,1.3,3.7.9.9,2.1,1.3,3.7,1.3h14.7c1.6,0,2.8-.4,3.7-1.3s1.3-2.1,1.3-3.7v-19.3c0-1.6-.4-2.9-1.3-3.7s-2.1-1.3-3.7-1.3h-14.7c-1.6,0-2.9.4-3.7,1.3ZM1126.33,137.73c0-3.9-.2-9.2-.5-15.9v-1.2c0-2.6.8-3.9,2.4-4.1h2.9c8.2,0,14.2.6,18.1,1.7,1.4.5,2.2,1.2,2.2,2.2s-.3,1.6-1,2.9c-2.7,4.3-4.1,9.7-4.1,16.2v29.5c0,9.3.2,17.5.7,24.6v.7c0,3.1-1.3,4.6-3.9,4.6-1.3.2-3.5.2-6.8.2s-5.7,0-7-.2c-2.9-.2-4.2-1.5-3.9-3.9.5-4.8.7-10.5.7-16.9v-40.3h0l.2-.1ZM1190.23,210.63c0,5.8-.7,10.2-2.2,13.3-1.4,3.1-4,5.4-7.7,7-3.2,1.5-7.3,2.4-12.3,2.9s-11.4.7-19.1.7-4.9-1.5-5.6-4.6c-1.6-5.3-2.7-8.6-3.1-9.9l-.5-2.2c0-1,.4-1.8,1.1-2.4.7-.6,1.6-1,2.8-1l13.3.2,7.7-.2c1.9,0,3.2-.3,3.9-.8.6-.6,1-1.7,1-3.3v-52.4c0-19-.6-35-1.7-48v-1c0-2.7,1-4.2,2.9-4.3h3.4c8.9,0,15.2.6,19.1,1.7,1.1.3,1.8.8,2.1,1.6.2.7.1,1.5-.4,2.3-1.4,2.7-2.6,5.3-3.4,7.8s-1.2,5.7-1.2,9.5v83h0l-.1.1Z"/><rect class="g" x="36.33" y="40.93" width="1230.1" height="1230.1" rx="74.1" ry="74.1"/><rect class="f" x="36.33" y="40.93" width="1230.1" height="1230.1" rx="74.1" ry="74.1"/><path class="d" d="M1039.43,997.23H248.53c-2.1,0-3.9-1.4-4.1-3.3l-5.3-37.8c-.3-2.2,1.6-4.2,4.1-4.2h801.6c2.5,0,4.5,2,4.1,4.2l-5.3,37.8c-.3,1.9-2,3.3-4.1,3.3h-.1Z"/><path class="d" d="M169.53,686.83s294.4,6.5,297.6,0,39.8-40.6,72.2-47.3c-10.7-60.5-58.4-109.3-147.7-109.3h-73.1c-105.5,0-164.4,84.7-164.4,136.9v4.8c0,8.2,4.3,14.8,15.4,14.8h0v.1Z"/><path class="d" d="M949.43,1149.73H336.73c-4.6,0-8.7-2.8-10.4-7.1l-47-144.8c-2.9-7.4,2.5-15.4,10.4-15.4h708.1c8.1,0,13.5,8.2,10.3,15.6l-48.4,144.8c-1.8,4.1-5.8,6.8-10.3,6.8h0v.1Z"/><polygon class="d" points="471.63 1169.53 378.33 1169.53 376.23 1145.63 473.73 1145.63 471.63 1169.53"/><polygon class="d" points="910.63 1173.63 817.33 1173.63 815.23 1149.73 912.73 1149.73 910.63 1173.63"/><path class="e" d="M558.43,468.53c92.3-13.4,222.9,66.6,180.2,171.2-7.6,18.9-21.3,33.8-37,45.4-35.9,26.2-79.9,42.4-104.3,80.3-14.5,17.8-21.8,42.1-7.2,61.6,17,22.7,48.3,37.7,75.4,48.4,35.7,15.1,72.3,27.2,109.9,35.2,17.3,3.8,40.2,8.2,57.2,14.1,32.9,10.7,63.5,32.2,82.5,62l-174.9,115.5c4.9,8,14.6,16.7,23.1,20.2,1.5.6.4,0-1.8-.8-5.7-1.9-18.2-5.4-24.3-7.1-54.8-15.2-107.8-39.3-155.9-69.8-27.2-16.9-53-36.9-75-60.7-41.4-44.2-69-104.4-64-165.9,4-56,34.9-107.8,79.4-140.4,22.8-15.3,49.1-25.9,74.6-33.4,19-5.8,38.7-10,56.3-15.9,11.1-4,18.4-6.7,25.4-13.3,9.2-11.4,12.2-24.7,7.2-38.7-13.4-36.4-58.4-61.3-96-64.6-8.1-.7-16.3-.6-24.2.9l-6.8-44.1h0l.2-.1Z"/><path class="e" d="M583.13,680.13c10.8-6.2,23.3-9.8,35.4-11.8,40.7-6.9,82.4,3.7,118.9,21.3,12.3,5.9,24.2,13.2,35.8,20.2,17,9.9,35.1,18.5,53.9,24.1,26.5,8.2,60.9,12.6,86.7,1.8,18.8-10,34.6-28.2,50-43.5,1.6-1.6,3.3-3.3,5.2-5.1l19.9,19.2c-1.8,2.4-5.5,7.1-7.3,9.8-15.6,21-32.2,43.2-56,56.1-53.2,26.2-120.1,12.8-171.6-11.3-13.3-6.3-26.5-13.8-40.1-19.4-23.7-9.8-49.3-16.4-74.9-14.2-8.3.8-16.6,2.3-24,5.7-.3.1-.4.2-.6.3h.1l.6-.3-31.9-52.8h0l-.1-.1Z"/><path class="d" d="M1052.03,530.23h-299c-9.6,0-17.5-14.6-17.5-14.6-11.9-31.3,7.4-114.5,50.3-119.2,74.9-4.2,96.7-2.6,113.9-17.7l26,.4c111.6-.6,143.7,91.2,143.7,137.1h0c0,7.7-7.8,14-17.4,14h0Z"/><path class="d" d="M776.23,380.53c-23.8,1.3-323-2-323-2-14.6-3.2-17.1-25.1-12.8-48.1,8.3-52.4,97.1-131.5,211.1-129.5,118.6,4.2,220.3,49.3,226.3,138.7,2,28.1,5.1,35-101.5,40.9h-.1Z"/><path class="d" d="M855.33,739.13c15.6.5,294.7,3.7,307,3.7s14.6-6.5,14.6-14.4h0c0-75.2-76.9-143.7-174.3-143.7h-24.2c-60.9-3.2-153.4,45.2-153.4,130.4,3.8,16.9,14.5,23.6,30.2,24.1h0l.1-.1Z"/><path class="e" d="M332.33,952.83c-.1,0-.3.2-.4.3.2.1.2.2.4.3,6.5,1.3,13.2,1,20,1,29-.6,58.4-4.9,86-13.9,16.1-5.4,31.5-12.6,45.1-22.9,5.9-4.6,11.4-9.8,16.5-15.8l48.4,15.4c-1.2,22.9-7.7,46-17.4,66.9-26.6,56.3-73.6,104.1-123.3,140.7-5,3.5-10.2,7.3-15.7,10.2l-1.2.5-58.4-182.7h0Z"/><path class="d" d="M592.23,513.73h-328.3c-10.6,0-13-4.7-13-12.9v-2c1.3-37.6,43.4-117.8,123.1-131.9,32.5-9.7,65.7-8.6,65.7-8.6,99.5,0,171.6,34.7,171.6,140.5,0,0-1.3,14.9-19.1,14.9h0Z"/><path class="e" d="M707.83,544.83c15.2-1.4,28.8-8.3,41.7-17.2,10.5-7.3,20.7-16.4,29.6-26,2.9-3.2,6-6.7,8.8-10l12.9,6.4c-.6,1.8-1.7,5.3-2.4,7.1-11.5,31.5-28.8,61.8-56,82.9-4.7,3.6-9.7,6.8-15.2,9.8l-19.5-53h.1Z"/><path class="e" d="M638.53,518.63c-6.4,2.3-13.5,4.8-20.1,6.2-8.6,1.9-18.5,2.3-25.9,1.7-23.5-1.6-41.7-9.2-63.8-11.9-10.1-1.3-20.2-2-30.3-1l-.3-11.4c9,.4,22.3.4,31.5.5,18.4,0,37.1,1.3,54.9-2.7,7.2-1.7,14-6.5,14-14.2,0-2-.3-4.1-.9-6.1l41,38.8h0l-.1.1Z"/><path class="e" d="M380.73,655.43c41,31.6,96.4,56.3,148.7,46.9v70.3c-51.2-6.2-96.5-33.5-131.8-69.4-10.3-10.5-19.9-21.6-28.4-33.6l-1.8-2.6,13.3-11.6h0Z"/><path class="e" d="M584.03,508.93c-22.6-19.4-53.5-45.2-64.8-73.9-6.2-16.1-3-33.2,10.6-44.4,15.8-12.8,37.1-16.5,55.6-21.3,9.2-2.2,18.1-4.5,26.4-7.3,7.5-2.6,15.4-5.9,20.8-11.1l14.4,12.4c-3.9,4.8-8.4,8.5-12.9,11.5-20.5,13.4-45.2,19.2-66.7,29.1-6.1,2.9-11.7,5.6-16.1,10.2-.6.7-1.6,2.2-1.4,2.8,0,.3.2.4.3.8,1.8,5.3,5.2,9.3,9.3,13.9,15,15.8,33.5,28.4,51.8,40.5l-27.2,36.7h0l-.1.1Z"/><path class="b" d="M423.13,1003.53l564.1-.3c1.8,0,7.2,2.2,6.5,4.1l-22.1,61.9-18.3,49.4-4.5,13.2c-.2.6-3,.4-2.2,3.2l-73.1-1.9h-14.4l-55.8.2c-2.2,0-4.4-1.9-6.7-.3l-7.5.4h-73.4c-7.1,0-14-2.4-21.5-.7-3.1.7-5.9,1.3-8.8.3-5.3-1.7-10.5-.4-15.5.1-6.6.8-12.9.3-18.9.2l-12.2-.2c-10.2-.2-20.6-1.4-30.9-.6l-9,.7c-5.8.5-12.2-2.3-18.4-.7-4.7,1.3-8.1.8-12.4.4-2.3-.2-6.2,2.1-8.9-.2-2.2-1.9-5.8.5-7.8.4h-34.3c-7.7,0-15.4-2-23.1-.1l-16.7.3-11.9-.2-13.6.2-104.2,1.6c-3.5-2.4-6.6-3.2-8.2-7.6l-43.6-120.9c2.6-2.9,5.6-3,9.2-3h117.9v.1h.2Z"/><path class="b" d="M1034.63,984.23H255.43c-.7,0-1.4-.4-1.6-1.1-1.8-5.6-2.4-11.1-2.8-16.3,0-.9.7-1.7,1.6-1.7h784.7c1,0,1.8.9,1.6,1.9l-2.8,15.9c-.1.8-.8,1.4-1.6,1.4h0l.1-.1Z"/><path class="b" d="M520.73,930.53c-21.1-16.7-36.7-38-44.2-61.9-8-25.2-10-51.9-3.1-79.2-2.4-1.6-2.3-4.2.9-4.1-.1-2.3.2-4.7,1.2-6.2-1-.7-1.4-1.9-1.2-2.5.3-.9,1.8-.8,2.2-.9.2-.9-.5-1.6-.9-1.9-.5-.3,0-3,2.2-1.5,4.1-13.4,10.5-25.6,18.7-37.5,6.9-10,12.5-20.2,21.4-28.5,25.8-24,56.2-39.3,88.9-49.1l49.7-12.3c12.8-3.2,25.7-8.9,34.4-20.1,15.6-20.1,14.3-49.1-2.4-68.3-10.3-11.8-25.8-26.8-39.2-34-2.4-1-2.4-3.8.4-3.6,18.6,3.2,33.8,15.8,49.2,27.4,15.9,12.1,26.6,32.3,30.2,52.6,3.8,21.8-4.6,41.7-21.9,54-18.5,13.1-39.1,20.4-59.9,28.9-42.6,17.5-87.6,45.8-104.9,92.8-9.8,26.7-10.7,55.4-5,83.7,7.2,35.7,28.6,65.9,58.2,85.3,1.8,1.2,4.1,5,1.9,5.1l-109.8.2c-1.4,0-2.8-1.5-3.1-2.2-1.4-3.5,23.8-8.8,36.1-16.1h0v-.1Z"/><path class="b" d="M780.83,948.83l-99.4-.4c-12.5,0-24.1-1.3-36.5-5.9-32.8-12.2-63.5-30.4-82.1-63.4l-3.5-3.7c-1.1-1.2.2-2.9,0-4.1l-4.4-14c-2.4-7.6-4.8-15.7-1-24.2,23.9,46.9,79.8,66.3,125.6,77,27.4,6.3,54.1,12.4,79.9,23.3l21.4,11.6c.9.4,2.6,1.2,2.6,1.9,0,.8-1.4,1.9-2.7,1.9h.1Z"/><path class="b" d="M640.73,219.23c8,6.5,13.1,14.7,14.1,26.2,12.5-1.4,17.7-14.4,19.3-26.6l4.9.2c3.4,4.4,2.2,10.4.7,17.1,3.3,2.4,7.5,2,11.6-.5,5.4-3.2,3.8-13.4,6.6-13.7.7,0,1.8,1,2.2-1.3l2.7.5c-1.3,3,2.4.8,4.7,3.8l-7,16.2c2.3,2.3,8.7,4.2,10.6,2.1,3.1-3.7,6.3-7.2,10.1-10.3,1.2-.9,2.2-4.8,4.1-4.7,1.2,0,3.2,1,4.8-.4.1-.2.8-.5,1.1-.3-.2.5-.7,1.9-.2,2.5,1.9-.3,2.9,0,3.7,1.4.3.4.7,1.4-.8,1.3-8.3,2.4-14.8,9.1-16.2,18.2l14,2.7,19.4-14.2c-1-1.1-1.9-2-2.4-3.5,2.9-.7,4.5,0,6.2,1l2.9,1.6c.4.2,1.1-.5.9-1.4l6.9,3.2c-1.4,1.3,0,2.3.7,3-3.1-2.8-20.4,7.2-29.3,15.7,3.2,5.4,7.4,9.7,12.2,10.4,2.5-5.7,7.6-7.2,12-9.4,13.9-6.8,29.9-4.8,40.1,7.8,2.3,2.8,5,8.2,9.4,7.2l7.1-6.8,6.3,5.6-3,1.4c-9.8,9-22.8,25.8-18.2,33.8,2.1,3.7,11.4,5,11.2,5.2,1.9-1.8-.7-8.3,12.7-24.9l6.2-7.7c2.3,2,4.8,3.8,7,5.8,0,1.2,1.3,4.2-.4,3.8-9.9,4.4-17,15.3-17.2,26.6,2.3,3.6,7.8,6.1,11.6,6.6,2.9-6,5.9-11.8,10.8-16.2l8.4-4.6c7.7,10.2,10.3,22.9,12,36.4.7,5.4,2.3,10.3,1.3,16-.5,3.2,1.3,8.6-2.4,10.5-1.9-1.4-4.1-.8-7.4.7-1-6.8-5.6-10.3-9.3-15-7.8-9.9-16-17.5-26.1-25-24.6-18.4-41.3-24.5-69.8-13-15.1,6.1-27.5,15.5-38.8,28.1l-6.3,7c-4.8,5.4-5.4,10-1.9,19.1-13.5-9.9-32.7-5.5-45.9,2-4.4,2.5-11.2,0-16,.8-4-11.8-12.4-18-20.8-25.1-22.8-19.4-52.8-22-77.8-5.3-10.1,6.8-25,20.4-23.2,25.5.4,1.1,6.1,5.7,8.3,5,1.4-.4,3.1-1.4,4.5-3.1,18.3-22.2,48-32.7,71.2-19.6,10.5,6,19,13.9,24.6,24.2-.6,1.1-1.7.9-3,1.2.5-.8,0-1.5-.6-1.3l-4,1.1c-13.1-22.1-43.2-29.9-63.2-16.1l-17.3,11.8c-1.7,1.2-3,3.6-2.8,5.1.2,1.9,7.8,7.6,8.8,7.3,4.4-1.4,15.2-15.6,33.5-17,8.9-.7,25,5.7,25.4,11.3l.3,3.2c-1.5.4-3.7,2.3-5.2,2.9l-7.3-7c-23.1-7-43.7,9-38.8,14.5,3.4,3.9,6.1,8,8.9,12.1.7.8,2.8,1.9,3.7,2.4l-6.4,4-6.2-6.1c-17.5-25.2-58.4-46.2-86.8-36.7l-12.1,4c-.5-2.3-.2-4.4,0-6.7,1.2.1,2.4-.9,1.5-3.5l12.7-1.4c.5-5.1.6-11.5-1.8-15.6l-8.1-2.9c.9-1.9,1.7-4.8,2.1-6.6,2.4-2.7,4.8-2.3,7.6-2,8.2.9,15.3,3.1,20.5,11.6,4.8-1.4,12.3-4.4,13.7-9.7-2.4-9.7-13.7-15.4-22-13.3-6.9,1.8-12.2,3.4-16.5,9.3.2-4.9,1.1-11.5,4.7-13.6,12.7-7.4,28.2-5.4,36.6,6.4,2.3,3.2,3.8,5.3,7.2,4,5.5-2.1,4.5-14.6-.1-19.7-5.8-6.3-13.3-12.4-22.9-11.8-5.6.4-10.5,6.3-14.8,9.4l-1.2-3.1,9.5-12.2c8.1-6.5,24,1.8,32,10.9,4.6,5.2,6.3,12.3,8,19.1,4.4,1.1,13.2-6.9,13.2-8.6-.2-16.8-18.4-31.8-35.8-34.8l.7-2.9c.1-.8,1-1.5,1.8-1.1,1.2.6,3.8-2.8,5.2-2.6,4,.4,9.6,1.3,13,4.1,10.7,9,18.6,20.6,24.2,33.5l13.3-5.9c-6.4-17.1-17.3-30.1-31.5-39.3-1-.7-1.9-2.7-1.6-3.5s1.7-1.8,2.4-2.9c7.2,0,12.7,7,17.9,13.7,1.4-2.2,1-6,2.4-6.8l9.5-5.5c-.6-4.1-2.9-9-4.9-12.3l.8-3,4.1-2.3c0,1.5,1.4,1.9,2.7,1.1l5.2,12.6c10.4-5.9,25.8-4.7,34.7,3.4,4.3,3.9,8.7,7.4,10,14.8,4.5-2.2,7.6-4.6,11.2-8.7-5-11.2-11.6-21.7-21.9-27.1-6.3-3.3-13-1-19.9-2.3l27-6.1c8.8,6.9,14,15.6,20.1,24.6l4.8,7.2c3.2-4,10-4.8,13.4-7.4,2.4-4.8-2.4-10.5-5-13.3l-12.6-14.2c1.6-1.9,2.7-1.5,4.9-1.7,1.6.7,3,.2,2.4-1.8.7-1,2.6-.4,3.5-.4h0l.5.6ZM713.93,271.63c11.2,5.8,20.7,12.6,28.9,23.3,2.4,3.1,5.9,5.2,6.4,9.8,3.6,1.4,9.6-.6,12.6-2.9-2.1-7.5-6.3-12.3-10.5-17.4-16.8-20.1-45.7-35.4-71.1-40-4,5.7-9.9,5.2-15.5,6.5-19.1,4.3-35,15.7-49.1,29-4.6,4.4-9.3,9.8-7.8,16.9.5,2.6,7.6,4.7,9,2.6,2.4-3.4,5.6-5.8,8-8.5,22.7-25.5,58.8-35.2,89-19.4h0l.1.1ZM588.53,294.73c3.4,6.4,16.8-7,16.1-15.4-.5-5.1-3.3-11.4-6-15.8-4.4-7.2-13.4-10.5-21.5-10.1-8.4,5.3-17.3,6.8-22.1,17.6,5.4,8.4,9.7,16.3,12.2,26.4,2.8-1.5,6.9-1.5,9.9-2.2,6.2-5.6,4.4-16.7-.9-22.2.9-4.2,5.6-7.3,8.2-5.7,8.1,5.2-2,15.7,4.3,27.4h-.2ZM787.73,278.43c1.9,2.1.3,5.3-1.8,6.3-4.9,2.5-7.1,11.5-2.5,15.3,3,2,8.1,1,12,1.2l4.8-12.3c4.2-10.9-2.6-21.4-13.1-24.2-11.9-3.2-31.7-.5-31.6,9.8l9.8,15.8c1.9,3.1,2.2,5.8,3.3,9.3.9,2.9,6.2,1.4,7-.6,3.2-8.1,1.9-12.5-2.6-18.7-1.7-2.3,3.8-8.8,6.5-7.8,3,1.2,5.8,3.2,8.2,5.8h0v.1ZM703.13,291.13c11.1,5.6,21.8,11.9,28.3,24.3,4.2-1,7.2-1.8,11.5-4.1-10.9-19.1-27.3-33.4-48.7-38.2-9.9-2.2-20.5-.2-30.9,2.4-13.3,3.2-36.3,20.2-38.9,29.1-1.2,4.3,1.6,7,5,8.6,2.7,1.3,6.8.8,8.9-2.5,5.7-8.8,13.6-14.2,22.4-19,14-7.6,28.5-7.7,42.4-.6h0ZM714.33,328.03c3.9-1.9,7.4-3.1,10.7-6.5-8.6-14.3-23-25.6-39.4-27.9-18.2-2.5-42.2,15.2-42.3,23.3,0,5.8,6,10.8,9.9,11.6,5.8-10.9,14-18.2,25-21.2,14.4-3.9,26.7,7,36,20.7h.1ZM595.63,323.43c16.1,4.4,29.9,14,42.4,25.3,5.2,4.7,8.4,11,10.4,18.5,4.9-1.1,10-4.3,12.5-9.7-10.1-21.2-33.9-41.8-54.3-50.2-27.6-11.4-49.9-1.6-73.7,16l-25.3,18.7c-5.8,4.3-10.8,9.3-13.2,16.6l10.8.5c2.3.1,4.7,1.7,6.6.5,1.1-.7,1.9-3.1,3.1-4.4,17.3-17.6,40.6-34.6,64.8-33.5,5.3.2,10.4,0,15.8,1.5h0l.1.2ZM692.43,327.03c6.1,1.7,9.6,13.1,12.9,12.2,1.1-.3,3.9-2.5,3.5-4.3-1.4-5.7-6.7-10.3-11-14.8-9.6-10.1-25.4-5.2-36.2,6.8-9.7,10.8,2.2,11.1,7,29.5.6,2.2,5.1,1.8,6.6.6,3.2-2.7,3-10.5,1.8-17.5-3.1,0-4.7-2.1-5.2-3.9-1.7-5.9,12.7-10.9,20.5-8.7h0l.1.1ZM859.53,327.53c-1.6-4.5-4.7-10.8-9.1-11.2-4.4-.4-14.3,12.5-9.6,18.8,2,2.6,5.9,5.8,9,2.6l9.6-10.2h.1ZM694.23,353.83c3-6.7,2.5-10.8-2.1-15.6-1.5-1.5-2.4-4-4.7-4.1-1.4,0-4.5.4-4.3,3l1.2,17.8c.2,3,3.8,3.3,5.8,3,2.1-.3,3.1-1.9,4.1-4.2h0v.1ZM861.53,340.53c-1.1-3.5-4.3-1.4-5.3-.1-1.5,2-1,5.2-.1,6.9.7,1.4,3.8,1.8,6.6.9,0-1.8-.3-4.7-1.2-7.7h0ZM485.53,354.43c2-2,.8-7.3-.4-9.3-1.6-2.7-4.8-5.2-8.7-4,.6,5.3,1.5,9.8,1.4,15.4,2.5,0,5.8-.3,7.7-2.2h0v.1Z"/><path class="b" d="M1016.43,600.23l13,1.2c-.1,3.3-3.3,3.2-5.3,4.6-12.2,7.9-23.1,16.6-33.4,26.7-4.6,4.5-8.5,11.8-8,18.5.3,4.5,5.7,4.6,9.6,5.2,2.6-1.3,2.6-5.8,4.7-9.1,10.5-16.4,26.5-29.4,45.4-32.7,9.1-1.6,18.3-.5,27.3-.3,2.3,0,5.6,3.8,7.4,2.1l22.8,13.1,13.5,9.1-9.6,12.5c-3.8,4.9,2.3,15.2,4.8,15.9,1.9.5,6.2.2,6.3-2.2.4-9.2,5-17.6,5.2-17.6l2.1-.3,4.3,4.3c-3.1,3.3-4.8,7.6-6,13.2,5.9.5,10.4-.8,15.3,1.3-1.3,2.7,1,2.8,1.6,3.3,1.2,1,0,2.3-.7,2.5-3.6,1-20.7-3.5-36.8,10.3l-27.7,23.9c4.7,3.6,7.8,6.9,10.6,11.6l5.1-.3c13-23.9,38.2-41.4,60.5-27.3.4,1.6.9,2.3,1.3,4.3-.3-.1-1.9,0-1.6,2.4-16.4-9.5-42.9,3.5-52.7,22.8-5.8.4-15.6,2.9-21.2-.7-6.6-4.2-11.7-11.3-19.9-11.2-8.9.1-17.8.2-24.6,6.2-2.1,1.9-5.8,2.6-7.2,4.6s-3.8,2.2-5.4,1.6c-1-.4,0-3.9-.9-4.8l-15.8-18.2c-20.9-19-47.7-20.7-73.2-8.6-8.9,4.2-23.8,19.8-26.9,31l3,10.2c5.3-.9,5.7-5.2,8-8.3,13.2-17.5,36.9-30.9,57.9-25.6,11.8,3,21.1,10.5,30,19.1,1.8,1.7,4.2,2.8,3.9,6.4-4.8,0-9.8,1.3-15.8.2-.7-.2-1.3-1.2-2.3-.8-.1-1.8-.6-3.3,1.2-5.2-9.4-10.1-23.7-14.7-38.1-11.4-16.9,3.9-30.9,16.8-37.4,33.1-1.3,3.3-5.5,1.5-10.4,1.9-5.7-9.4-14.1-16.3-25.2-20.4-6.1-2.2-12.9-.9-19.9-.4-8.6.6-15,7.3-19,14.9-2.1-2.2-1.1-4.3-1.4-5.2-.4-1.3-2.2-1.3-2.8-.9l-.2-9.3,18.7-6.8c4.3-1.6-3.9-8.7-4.3-13.8-2.7-3.1-7.8-5.9-9.1-10l.7-1.4c12.3-10,32.6-14.8,36.7-.8.9,2.9-1.2,7.4,2.7,9.6,1.8-4.5,7.8-7,10-9.9.9-6.4-4.3-11.7-7.9-15.6-5.7-6.2-13.8-8.7-21.1-4.4l-13.2,7.8c.2-1.9,0-2.7-.8-3.6l3.9-6.7c3.6-3.1,8.9-3.4,13.1-5.3,9.6-4.5,18.1-1.2,24.4,6.9,3.2,4.1,7.9,6.6,8.4,13.2,4.9-1.2,7.7-3.4,9.9-7.1-4.3-6.6-7.3-12.9-12.7-17.4-6.5-5.5-15.8-9.2-23.6-9-1,0-4.1,1.9-3.5.9.7-1.1.6-2.2-.1-3.2l6.7-6.2c17.2,1.9,29.9,13.1,38.9,31.4l11.2-4.7c1.3-.6,1.9-1.6,1.9-2.7,0-.9-.3-1.9-1.1-3.2-8.8-14.1-21.5-22.6-37-28.7,1.5-2.1,4.3-2.6,4.4-4.2.1-1.2.5-1.3,1.3-1.7,5.5.2,11.1,3.2,14.1,8.8,11.3,6.2,20.4,15.2,27.3,26.4,4.4.2,7.3-.7,10.9-2.1-1.9-14-18.8-27-30.9-37.3-1.3-1.2-2.4-2.2-2.2-3.8,2.2-2.4,5.6-2.8,8.3-4,.7,4,3.8,3.7,6.1,6.1l7.6,7.7,8.5-8.3c10.9-7.3,22.6-5.4,31.6,3.9,3.2,3.2,7.3,7.2,11.7,8.4,2.9.2,6-3.4,8.1-5.6-5.5-7.2-11.2-13.2-18.2-18.5l-3-1.4c-.4-.2-.3-1.3-.3-2,.6-.3,1.2-.2,1.5.3l13.9,1.9c6.6,4.7,7.6,15.7,10.2,12.8l2.3-2.6c4.5-2.5,7.5-6,10.2-10.1,2.7.5,7.1,1.4,8.1-1.5h0l.3.3ZM963.33,631.23c3.9,4.7,3.8,12.4,4.4,18,3.1.8,6.7.1,7.8-1.8,5-8.7,2.7-17.2-4.9-22.4-4.4-3-8.6-8-14.4-8.1-7.6-.1-14.1,5.1-18.9,10.7l15.4,23.8c1.3-2.9,5.7-2.5,7.6-3.1,5.1-6.9-6.7-16-2.1-17.9.9-.4,3.8-.9,5.3.8h-.2ZM1083.03,641.43c4.7,2.9,9.5,5.3,13.6,9.7,1.9-.3,3-6.2,1.2-8.5-11.8-14.5-31.2-21.6-50.5-19.8-26,2.4-50.5,27.2-44.8,37.8.9,1.7,4.5,3,7.1,2.6,16.4-25,48.2-37.5,73.5-21.8h-.1ZM1090.23,680.33c5.4-4.8,10.8-4.6,10.6-10.3,0-2.1-2.6-3.5-3.5-5-8-13.3-19.2-20.2-33.8-22.7-15.6-2.6-31,3.7-41.2,16.8-1.5,2-6,3.9-5.4,7.4.4,2.7,5.5,5.6,8.2,6.3,7.7-9.2,17.6-18.3,30.4-18.2,15.3.2,28.4,11.7,34.7,25.6h0v.1ZM970.53,673.23c34.4,3.4,45.5,34.2,52.5,37.5,2.6,1.2,6.1-.2,6.9-1.9.9-1.8,2.7-5.7,1.7-8.2-12.6-30.3-51-46.6-79.8-41.6-31.4,5.5-46.1,15.8-68.4,39.3-3.5,3.7-4.3,7.6-2.9,13.9l11.6,3.7,8.2-14.8c20.9-24.5,39-31.1,70.2-28h0v.1ZM1046.83,680.73l9-4.2c9.2-2.2,16.6,5.4,17.2,15.5,4.4-.3,10.4-5.2,8.2-10.6-3.7-9-12.3-16-21-18.7-12.5-3.9-32.7,10.4-29.4,18.4l6.7,16.2c.7,1.6,3.8,5.4,5.6,3.9,8.7-7-2.8-18.2,0-20.8,1.1-1.1,2.9.5,3.6.2h0l.1.1ZM861.43,709.93c2.7,1.5,6.3.6,8.2.3,1.8-7.6,1.3-15-2.3-21.9-2.1-3.9-7.1-5.3-10.8-4-2.7,1-7.5,3.8-7.1,7.5s5.7,3.6,7.1,5l4.9,13.2h0v-.1ZM1061.53,702.43c2.3-4.5,5.4-9.2,4.1-13.9-1.6-5.5-7.3-5-10.8-2.8-6.3,3.9-1.7,15.3.7,17.4,1.6,1.4,4.9,1.6,6.1-.6h0l-.1-.1Z"/><path class="b" d="M446.93,372.23c-4.1,6.3-11.1,9.1-16.7,13.7-9.5,7.9-17.4,17.3-25.1,27.9,2.4,3.2,6.8,5.3,10.3,5.5,21.8-19.4,43.7-38.6,74.2-37.3,24.1,1,45.3,15.3,58.9,36,3.4-.7,5.8-2.5,8.6-4.2.6,2.2.9,2.6,3.6,4.1-11.9,5.8-20.7,15.5-31.2,24.1-10,8.1-18.7,16.3-22.6,30.7,2.5,3.1,7.5,6.1,12.7,6-.4-3.7.7-4.3,2.8-6.1,6-5.1,6.4-18.8,13.7-18.3,10.4-10.1,22.1-20.7,38.7-22.4,1.4-.9,3.1.6,1.1,2.4,5.7.4,9.8,1.9,13.6,5.4,0,1.9-.4,4.6-1.7,5.2-4.9,2.2-9.2-6.8-21.1-2.3-11.7,4.4-21.5,11.7-29.4,21.5-4.8,6-10.6,11.5-11.7,20.1-.5,4.2,4.4,9.1,8.4,9.9,10.8-21.8,38.3-42.9,59.2-35.2,2.9,1.1,3,6.4,1.7,8.4-8.2-3.4-15.7-2.7-23,1.2-13.7,7.4-34.8,21.3-30.8,34.1-3.8.6-8.9,1.3-10.4-.7-5.2-6.9-10.9-10.9-17.2-15.9-8.3-6.6-19.1-13-30.3-11.3-19.4,2.8-37.4,12.7-51.1,26.8-2.3,2.3-5.3,2.2-9,1l6.1-6.7c-4-1.8-4.3-6-6.7-8.7-8.5-9.5-20.5-17.1-33.5-18.5-7.1-.8-14,5.2-19.9,7.9-13.1,6-26,24.5-14.8,25.9-3.5.9-6.9.9-11.2.6-9.4-8-18.2-18.2-29.9-23.2-14.9-6.3-30.2,1.2-41.8,10.9.4-4.4,2.6-7.2.1-9.4.2-.6.2-1.4.9-1.5,1.5.6,2.1-1,2-2.1,5.4-1.8,10.4-2.7,14.8-7.1.3-10.6-4.9-12-4.1-15.6.4-1.9,2.3-4.6,3.9-3.7,6.3,3.3,6.6,8.6,7.6,15.2.4,3.1,8.7,4.7,11.6,2.3,5.6-7.2,2.8-20.2-5.7-23.8-2.2-.6-7,2.5-9.8-.3.3-1.8,2.3-7.4,5.7-8.3,4.3-1.2,11.2,2.8,14.3,7,1.4,1.9,2.6,7.4,5.8,6.8,4.2-3.7,7.9-8.1,12.6-10.5,3.9-2,.6-22.6-15.4-22.9l4.2-5.4c3.3-1.9,5.3.4,8.2,2.3,11.8,7.9,7.4,18.4,9.5,19.7,1.9,1.2,1.7-3.4,3.7-2.8.5.2,1,2.5,1.5,2.4,4.6-.9,8.7-8.4,5.7-14.9l-4.6-10.2c-1.7-3.8-5.6-6.3-8.6-9.1l5.5-3.9c5.5,4.8,11.1,10.4,14.5,17.8l1.9,10.6c3.1-.3,8.7-.9,10.5-3.8,3.8-6,1.2-22.4-3.4-24.5-4.5,1.4-10.7.8-12-4-.3-1,2.6-2.2,3.3-2.2s0-1.4-.3-1.8l7.8-3.1c3.5,3.3,8.6,2.7,13.2-.1,4.9,7.8-2.6,19.2,6.2,25,2.2-2.7,0-8.4,1.5-10.9,2.2-3.7,4.8-5.9,6.4-9.9,2-5,6.1-8.8,7.7-13.6l4.2-1.5c0,.4-.2,1.4,0,1.9s2.1.8,2.7,1.5l-8.6,13.4-1.6,11c-.2,1.6-2.4.2-2.4-.6,0-.5-.1-1.8-1.7-3-2.5,3.3-5.9,10.1-3.5,15,1.2,2.4,7.9,2.3,9.5.5,2.6-2.8,2.8-7.4,5.8-9.1,3.8-2.2,5.6-4.2,7.1-8.5,8.3-8.3,15.1-17.7,26.7-22.2,1.2-.5,4.6,1.2,5.2-1.4,1.2-.9,4.1.4,5.5.7h0l-.1.1ZM510.53,409.63c8.4,4.9,14.6,12.1,21,19.6,2.6,1,7.9-3,8.6-6.4-12.4-22.6-39-37.5-64.8-31.9-19.7,4.3-35.8,17.1-48.8,32.1,3.4,5,7.2,7.9,12,9.2,9-8.3,17.1-15.7,26.8-21.9,13.7-8.9,31-9,45.2-.7h0ZM488.93,429.03c11.3-.6,20.6,5.7,23.3,16.7,5-2.4,8.7-5.7,12.9-10.7-12.2-14.8-31-25.4-49.7-19.2-11.5,3.8-20.6,11.2-29.6,20.1,2.8,6.1,7.9,9.6,13.4,11.2,7.6-9.7,17-17.3,29.6-18h0l.1-.1ZM347.03,453.13c30.3-18.4,51.6-19.1,81.3-2.6,10.7,6,18.4,14.4,25.1,25,2.6,1.6,7.8-2.2,10.5-4.4,8.6-7.2-37.2-40.5-55.1-46.5-13.1-6.1-26.7-5.2-39.3,1.4-17.4,2.8-32.5,11.8-43.5,25.9-4.9,5-10.6,11.8-9.1,17.8,2.7,2.5,5.7,6.7,9.4,6.1,2.6-10.6,15-23.8,16.4-23.5l4.3.7h0v.1ZM488.73,468.23l10.3.9c2.7-3.6,2.8-8.1,4.1-12.3.7-2.2,4.7-4.5,4.5-6.4-.9-6-5.1-8.1-8.6-10.5-5.7-4-9.4-2.2-15.2-.7-7.3,1.8-14.8,4.3-17.7,13.4l3.6,11.1c1.3,4,5.9,2.6,9,1.3,6.4-2.6,2.1-16.1,12-15.6-1.7,5.9-2.9,12.3-1.9,18.8h-.1ZM428.13,482.13c2.1,2.6,3.5,6.6,6.7,6.7,2.3,0,7.4-3.7,7.6-6.2.7-8.5-5.5-15.2-11.9-19l-21.7-12.8c-18.4-10.9-53.8,4.9-63.8,16.1l-12.2,13.7c2.5,4.6,5.6,7.6,9.9,12.6,10.7-16.2,26.5-30.7,46.5-32,15.2-1.1,29.8,9.6,38.9,21.1h0v-.2Z"/><path class="b" d="M939.53,397.43c-16.4,10.4-29.9,26-41.2,45.5-3.2,5.6-6.9,12.3-3.4,18.4,2,1.3,5.2,3.2,8.1,3.8,8-20.7,20.5-37.7,36.6-46.8,19.2-10.9,44.6.7,63.1,14.5l7.3-10.3,9.3,9.7c-7.7,6.3-8.5,17.8-3.7,28.3,5.5-2.2,9.9-6.4,14.8-10.2,2.5,1.2,3.4,5.9,4.5,8.5-16.6,6.8-29.3,22.3-41.9,38.4-4.1,5.3-9.4,8.2-8.9,19.4-3.2-1.4-4.4-1.1-7-.9l2.2-12.2c1.1-6.2-4.1-9.3-6.5-13.1-6.2-10-15.8-13.3-24.6-5.8-4.7,4-7.8,10.5-10.2,17,3.7,4.1,6.6,7.7,7.8,13.4-1.8,0-2.6.8-2.7,2.2h-12.8c-2-16.2-28.8-40.3-41.9-47.8-14.5-8.3-29.4-4.3-42.5,3.8-13.2,8.2-25.3,16.5-35.8,31.1-3.4,4.7-7.5,7.4-11.9,3-1.1,2.7-2.8,1.4-3.3,1.2s-1.3,1.8-.8,2.6h-3.8c-.2-2.4-2.7-3.7-6-2,.3-3.7-.6-5.7-2.5-7.3-1.6-1.4-3.6-2.4-5.9-1.4l-10.5,4.8c1.3,4.9-3.6,4.2-2.7.2,1.8-8.2,9.3-14.1,14.9-13.4,6.4.8,12.1,6.2,14.4,14.6,2.6.1,7.1-4.1,6.3-8.2-1.8-9.9-8.6-19-15.8-20.3l-13-2.3,1.2-2.5c.3-.6-.8-2.2-1.8-3.3,13.4-7.8,28.4,2,34.9,19.7,2.1,5.7,6,2.1,8.1,0,7.6-7.7-9.5-30.4-23-35.9-8.8-3.6-18.4,0-27.1,1-1.3-1.8-.5-6.3.2-7.9,1-2.2,2.8-1.5,4.5-2.3,13.4-6.2,26.6-2.7,37.5,8.1,6.9,6.9,12.3,14.7,13.1,27.6,5.4-.4,9.7-3.6,12.9-7.3l-.5-5.9c-7.4-17.1-18.9-31.1-33.1-37l-21-4.8c2.4-1.7,5.2-3.3,5.4-6.6-.3-1.3.9-1.9,1.6-1.3,0,1.9,1.5,2.3,2,1.9l3.2-2.9c19.7-.4,41.1,21.2,48.1,44.2.9,2.9,1.6,5.4,3.8,6.2,1.3.5,8.1-3.8,11.8-8.2-3.9-12.6-9.7-23-17.4-31.6l-14.2-15.8,14.9-2.6c-.5,1,0,3.5.7,3.5,4.1-.1,4,7.5,6.6,7.1,1.1-.2,3.5-.8,4.5-2,10.6-13.3,24.7-8.2,28.7-11.7,2.8-2.4,6.1-3.3,9.1-4.1,3.6,4.9,8.8,7.2,13.4,10.4,2.7,1.9,4.6,6.6,7.5,7.7l9.4-14.2c5.1-3.6,10.9-3.9,14.9-8.7l10.3.6h0l-.2.2ZM864.73,428.83c1.9-5,3.7-8.9,7.1-8.2,3.1.6,6.7,1.6,8,8.4-2.4-.5-4-.3-5.5,1.8-5,7,1.5,8.1,2.6,23.2.3,4,7.5,5.2,10.5,3.6,1.5-9.7,4.2-18,10.2-24.6-.8-5.3-4.5-7.6-6.3-10.9-7.4-13.3-18.8-14.6-29.5-6.6-5,3.7-11.3,6.9-12.4,16.2-.5,4.2,3.6,9.2,4.7,13.1l3.7,12.8c3.4,2.8,9.9-.1,12.7-3.3l-1.5-12.9c-.6-5.3-1.2-9.8-4.2-12.6h-.1ZM956.33,444.43c18.8-5.1,37.2,7.3,46.6,28.9,5.4-1.6,9.3-6,10.9-12.3-2.1-2-4-2.2-5.9-3.1-14-30.2-50.6-41.2-74-23.2-10.8,8.3-17.9,21.6-24.4,35-1.8,3.8,1,8.2,3,9.4,2.8,1.7,5.3.9,7.3-2.9,8.6-16.5,21-27.6,36.6-31.8h-.1ZM980.93,487.03c1.3,2.4,4.6,5.9,6.1,4.2,4-4.4,6.7-9.8,8.2-17.2-9-15.2-25.2-23.4-39.8-19.4-12.7,3.5-24.5,14-31.4,28.5-2.2,4.7,3.6,13.1,7.3,13.3,1.4-8.2,6-13,10.9-18.4,11.9-13.1,29.4-8.3,38.7,8.9h0v.1Z"/><path class="b" d="M842.53,370.53l-14.4,2.3c-2.1-1.7,1.7-5.2,1.2-6.8-10.7-18.6-32.8-32.1-53.6-32.1-22.1,0-42,14.3-52.3,34.6-2,4-7.2,3.2-10.8,1.8l5.8-7.2c9.2-14.6,20.9-27.3,36.7-34.1,25.9-11.1,50.2,1.1,71.1,18.3,5.5,4.5,8.6,10.9,12.8,16.8,1.5,2.1,3.9,3.5,3.6,6.4h-.1Z"/><path class="b" d="M830.63,514.03l-2.7-.9c.8-1,.2-2.9-.6-2.9-.6,0-1.9.9-3.2,0,.5-4,3.4-4.4,5.4-6.3,27.8-27.4,62.2-27.5,84.3,9.9-.8,2.9-4.5,3.7-6.5,2.9-1.4-.6-2.4-3.1-4.5-4.7l-10.8-8c-21.2-15.7-38.9-11-58.7,9.1-1.1-.8-2.4-1.2-2.7.9h0Z"/><path class="b" d="M1044.43,485.83c.6,2.2.3,3.8.4,6.1-.4,0-1,0-1.6,1.4-15.7-6.2-31.9,6.7-35.1,27.5l-5.1-1.3c.1-1.5-.3-1.7-.5-2.1-.5-.8,0-2.3.6-3.5l7.5-14.4c5.3-10.3,12.8-17.3,22.6-17.4l8-2c-.2,3.4,1.3,3.3,1.1,3.9-.4,1.6.9,3.8,2.2,1.8h-.1Z"/><path class="b" d="M281.83,504.53l-7.1-.6c14.4-17.2,34.6-16.4,50.1-1.4-3.3.6-8,1.6-10.9-.1-12.6-7.6-21.3-3.6-32.1,2.1h0Z"/><path class="b" d="M1113.23,721.13h-3.6c-2.4-7.1,11.3-16.7,19.1-17.6,9.4-1,17.1,7.7,19.7,15.4-6.6,1.3-11.6-6.4-19.1-7.9-5.6-1.1-10.9,3.8-14.7,7.5-2.1-.4-1.9,1.9-1.5,2.5h0l.1.1Z"/><path class="b" d="M424.13,545.33c-.4.8.2,2.7,1,2.4,4.9-1.9,18.2,10.4,25.8,20.1l11.2-9.3c1.2.5,2.6.2,2.8-1.5,3.3,1.4,5.7,3.7,8.3,5.5-.6,3.1-4,2-4.9,2.9l-12.5,12.2c-.2,3.1.5,6,1.4,10.2l17.1-4.4c.9-.2,1.9-.5,2.2-1.4.2-.6.2-2-1.6-2.9,1.6-1.5,3.5-3,5.5-3.7,13.8,2.7,12.5,3.2,19.7,13.7-.8-.6-3,1.3-4,1.2-30-3.7-52.9,10-74.1,33.9-9.2,10.4-14.1,23.5-15.6,39.2-6.5-7.5-3.3-16.3-1.9-24.3,1.1-5.7-2.2-10.6-3.8-15.3-3-9.1-9.8-13.9-18.6-10.5-3.7,1.4-10,5.3-11.6,10.4-2.4,8.1,2.3,17.9,6.5,25,5.5-.1,2.4-8.9,7.4-6.4.6-5-1.7-9.5-6-12.6l2.3-7.2,10.5,7.6c.7.5,1.2,1.6,1.1,2.1s-1.1,1.8-3.3.6l-.2,24.8c-12.1-.6-24.3-2.3-34.7,5-5.1,3.5-9.1,8.5-15.8,8.5l.4,5.2c-5.7,1.9-9.6-1.9-12.4-7.4-8.1-16.2-23.8-29.1-39.9-27.6s-30.3,11.8-37.9,27.8c.3,2.4,2.4,4.6,3.4,5.6l-.2,3.7c-2.3,1.2-8.2,2.2-10.4,1.1.6-.7.3-3.3-1.7-2.6-10-8.4-20.6-14.8-33.2-17.8-10.2-2.4-21,4.1-29,11.4,1.3-17.9,11.8-10.7,16.2-19.4,5.1-10-6.6-16.1-3.6-21.4,1.2-2.1,1.9-3.7,1-6l2.7-3.6c12.1-3.9,19.5,11,22.7,8.9,6.3-4.1-1.5-16-13.4-22.2l6.3-7.4c2.1,5.2,9.5,5.8,12.4,10.4,1.4,2.2,2.3,3.6,4.5,3.9,1.4.2,3.9-1.4,4.3-4,1.3-9.2-4.2-16.3-10.4-21.2l7.9-6.3c4.6,5.6,6.8,11.1,8.4,19.4,3.7-.8,9.1-4.6,9.8-9.7,1-7.5-2.9-13.7-6.8-18.9,2.2-1.8,4.2-4,6.9-5.4l4.8,8.4c1.2,1.9,1.5,7.8,4.3,8.2,2.6.3,5.5-1.1,7.7-1.5.1-7.9-2.6-14.3-6.5-20.2l6.7-3.9c3.3,6.6,6.5,12.6,6.8,21.7,3.4,1,9.1-.7,10-4.8,2-9-1.7-15.1-2.4-22.1l4.9-1c3.9,5.4,4.9,12.5,2.9,20-1,1.7.8,4.2,2.2,1.4,1.5,2,7.5,4.5,9.1,1.3,2.1-4,2.9-9.3,3.4-13.7-1.9-1.8-3.3-9.7-.6-9.8l21.5-.9c-2.5,5.4-2.6,9-2.1,14.5-3.2-2.5-4.4-4.2-6.7-3.9-6.5.7-9.5,11.4-9.3,21.2.9,2.6,8,3.6,9.4,1.3,3.2-5.4,3.6-12.5,7.4-17.4l4.7-2.5c4.9-5,9.6-11.9,15.6-14.9l3.4.3c.5,0,1-.7.6-2,3.6-.2,7-.6,10.6-.9-.3.9.4,1.7.9,1.4.7-.3,2.6-1.8,3.7,1.1-11.9,3.1-21.3,10.6-30,20.9-3.9,4.7-10.4,9.9-10,17.6,1.2,4,7.8,6,11,7.1,2.6-8,6.1-12.8,11.4-18.1,15.1-15.1,34.4-24.4,54.3-20.3,19.8,4.1,37.3,17.4,44.2,40.3,3.5-1.8,10.2-3.3,11.9-8.5,1.3-4-2.8-12.7-5.9-15.3l-17-14.1c-4-3.3-6.5-7.4-12.1-9.4,1.7-1.6,2-2.5,2-3.9h4.8l.2.1ZM424.43,609.43l3.6-2.6c2.1-1.6,3.9-3.5,4.3-5.3,1.9-8-10.8-24.5-19.9-29.1-11.5-5.8-25.1-9.1-37.1-5.5-15,4.5-29.7,14.7-37.9,29.8-2.2,4,5.3,10.8,8.5,9.9,15.3-20.1,35.1-34.8,56.1-22.2,18.9,11.4,18.8,27.7,22.5,25h-.1ZM317.63,615.53c33.9,18.5,34.8,38.3,37.3,39.7.3.2,9.7-1.9,14.3-5.8-.9-2.4-1.7-5.6-3.4-7.6l-17.7-20.7c-14.9-15.1-32.5-26.4-51.7-32-24.6-7.1-52.2,12-68.7,34-9.6,12.7-13.6,29.6-5.8,33.5,9.3,4.7,5-11.4,16-22.9,13.2-13.8,28.3-23,45.8-25.9,12.2-2,23.1,1.8,34,7.8h0l-.1-.1ZM410.83,624.73c3.3-2.7,5.3-5,7.2-8.3l-10-14.9c-5.9-8.7-16.6-14.4-26.7-12.5-11.7,2.3-21.2,11.1-28.2,22.1-.4,4.3,3.4,10.3,7.5,12.7,6.5-11.5,17.4-19.8,29.7-20.8,7.7-.6,14.4,12.4,20.5,21.6h0v.1ZM326.03,653.23c4.1,4.8,6.5,13.3,11.4,15.3,2.7.3,9.8-2.8,9.8-6.8-.1-11.3-7.7-20-15.2-26.2-23.9-19.8-46-24.8-72.6-9.1-11.5,6.8-22,16.1-26.3,31,.4,3.6,4.8,8.3,8.5,8.6,5.9-11.9,13.7-19.3,23-26,22.8-16.4,42.8-8.5,61.4,13.1h0v.1ZM208.63,650.73c2-2.9,3.3-8.5,2.7-11.7-1.2-6.5-6.9-11.6-13.1-10.2,1.9,7.6,2.9,14.4,2.7,22,1.9,1.2,6.1,2.2,7.7-.1h0Z"/><path class="b" d="M444.03,635.73c-7.2,7.2-13.3,16.9-15.4,27.5l.7,15.8c-1.3-3.9-3.8-5-6-6,.1-19.5,3.7-32.4,15.8-44,12.4-11.9,25.6-19.2,41.8-21.7,10.1-1.6,19,3,28.2,9.2,2.9,1.9,5.6,6.1,5.6,9.8.4.7,2,2.1,1.9,2.9-.2,1.1-3.6,2.5-4,1.5-.8-1.8-4-2.5-5.4-4.1-11.5-13.3-26.5-14.3-40.9-5.5-7.4,4.5-15.2,7.6-22.3,14.7h0v-.1Z"/><path class="b" d="M466.73,647.43c-5.9,3.8-12.2,9.2-13.5,18-2,1.3-5.8-2.3-5.4-4.1s.7-5.4,2.6-7.3c17-17.4,33.5-26.2,53.5-9.7-2.1,2.6-5.3.7-7.7-.3-10.8-4.4-20.1-2.8-29.6,3.3h0l.1.1Z"/><path class="b" d="M804.33,371.53c-13.4-17.2-33.8-23.2-50-9-3.2,2.8-7.7,4.7-9.4,9.1l-8.7-.4,8.7-11.7c3.2-4.3,9.1-6,14-8.6,21.2-11.1,40.9.2,53.7,19.9l-8.3.7h0Z"/><path class="b" d="M501.93,502.33c-11.8-7.4-26.6-8.8-38.7-.7-3.6,2.4-7.9,1.5-11.2,1.3,14.3-15.7,34.2-18.9,52-9.5,5.3,2.8,11,4.3,14.3,9.4-5.2-.3-11.9,1.7-16.5-.6h0l.1.1Z"/><path class="b" d="M592.63,493.73c-2.3-5.4-7.6-6.8-13.2-5.6-3.5.7-7.4,3.7-10,8.7-.6,1.2-4.4,2.2-2.4,6h-15.1c3.8-10,12.8-15,21.7-19.9,7.1-3.9,15.3-4.2,21,3.1-.2,2.2-1.4,5.5-.6,8.7-.6,2.4-3.5,1.3-1.3-.9h0l-.1-.1Z"/><path class="b" d="M395.53,502.63l5.5-5.5c-1.8-4.7-6.6-8.7-11.9-8.1-8.3,1-14.6,6.6-18.1,14l-8.1-.3c6-8.3,12.9-16.1,22.7-19.6,10.6-3.7,21.8,7.5,24.1,20.1-2.7-.9-2.8-3-4.3-3.2-.9-.2-2.2,4.2-9.8,2.5h0l-.1.1Z"/><path class="b" d="M1127.43,202.23c1.3.2,3.6.2,7,.2s5.5,0,6.8-.2c2.6,0,3.9-1.5,3.9-4.6v-.7c-.5-7.1-.7-15.3-.7-24.6v-29.5c0-6.4,1.4-11.8,4.1-16.2.6-1.3,1-2.2,1-2.9,0-1-.7-1.7-2.2-2.2-3.9-1.1-9.9-1.7-18.1-1.7h-2.9c-1.6.2-2.4,1.5-2.4,4.1v1.2c.3,6.8.5,12.1.5,15.9v40.3c0,6.4-.2,12.1-.7,16.9-.3,2.4,1,3.7,3.9,3.9h0l-.2.1Z"/><path class="b" d="M1201.13,302.73c0-1.4-.4-2.5-1.2-3.3s-1.9-1.1-3.4-1.1h-.7c-14,1-28,1.4-42,1.4h-41.8c-1.6,0-2.9-.4-3.7-1.3-.9-.9-1.3-2.1-1.3-3.7v-15.4c0-1.6.4-2.8,1.3-3.7s2.1-1.3,3.7-1.3h29.7c12.2,0,22.2.3,29.9,1,1.6.2,2.9-.1,3.9-.8,1-.7,1.4-1.9,1.4-3.5.2-1.3.2-3.6.2-7s0-5.5-.2-6.8c0-1.4-.4-2.5-1.2-3.3-.8-.7-1.9-1.1-3.4-1.1h-.7c-8.9.6-18.8,1-29.9,1h-29.7c-1.6,0-2.9-.4-3.7-1.3-.9-.9-1.3-2.1-1.3-3.7v-13c0-1.6-.4-2.9-1.3-3.7-.9-.9-2.1-1.3-3.7-1.3h-9.7c-1.6,0-2.9-.4-3.7-1.3-.9-.9-1.3-2.1-1.3-3.7v-34.5c0-1.6.4-2.9,1.3-3.7.9-.9,2.1-1.3,3.7-1.3h7.2l8.2.2c3.1,0,4.6-1.4,4.6-4.1.2-1.3.2-3.4.2-6.3v-6c-.2-2.7-1.8-4.1-4.8-4.1h-.7c-1.6.2-4.1.2-7.5.2h-7.2c-1.6,0-2.9-.4-3.7-1.3-.9-.9-1.3-2.1-1.3-3.7v-19.3c0-1.6.4-2.9,1.3-3.7s2.1-1.3,3.7-1.3h4.6c2.4,0,4.2,0,5.3.2,3.2,0,4.8-1.3,4.8-3.9.2-1.3.2-3.4.2-6.3s0-5.2-.2-6.3c0-1.5-.4-2.5-1.2-3.3-.8-.7-1.9-1.1-3.4-1.1h-.7c-7.1.5-14.3.7-21.7.7h-26.6c-19.6,0-35.7-.6-48-1.7-1.6-.2-2.9.1-3.9.8-1,.7-1.4,1.9-1.4,3.5-.2,1.5-.2,3.8-.2,7s0,4.9.2,6c0,2.9,1.7,4.3,5.1,4.3,1.3-.2,3.1-.2,5.6-.2h5.3c1.6,0,2.9.4,3.7,1.3s1.3,2.1,1.3,3.7v19.3c0,1.6-.4,2.9-1.3,3.7s-2.1,1.3-3.7,1.3h-9.2l-10.6-.2c-2.7,0-4.1,1.3-4.1,3.9-.2,1.3-.2,3.4-.2,6.3v6c.3,2.9,1.9,4.3,4.8,4.3h.7c1.8-.2,4.6-.2,8.4-.2h7.5c3.1,0,4.6,1.3,4.6,3.9s0,1.2-.2,1.7c-3.7,12.4-11.5,22.6-23.4,30.7-1.6,1.1-2.4,2.3-2.4,3.6s.6,2.3,1.7,3.4c1.1,1.1,3.6,3.8,7.5,8,1.1,1.6,2.4,2.4,3.9,2.4s2-.4,3.1-1.2c16.4-10.8,26.8-26.7,31.1-47.8.6-3.1,2.5-4.6,5.6-4.6h16.7c1.6,0,2.8.5,3.7,1.3.9.9,1.3,2.1,1.3,3.7v38.9c0,1.6.4,2.9,1.3,3.7.9.9,2.1,1.3,3.7,1.3h7.7c1.6,0,2.9.5,3.7,1.3.9.9,1.3,2.1,1.3,3.7v8.7c0,1.6-.4,2.9-1.3,3.7s-2.1,1.3-3.7,1.3h-30.4c-12.7,0-22.9-.3-30.7-1-1.6-.2-2.9.1-3.9.8s-1.4,1.9-1.4,3.5c-.2,1.3-.2,3.5-.2,6.8s0,5.7.2,7c0,1.4.4,2.5,1.2,3.3.8.7,1.9,1.1,3.4,1.1h.7c9-.6,19.2-1,30.7-1h30.4c1.6,0,2.9.4,3.7,1.3.9.9,1.3,2.1,1.3,3.7v15.4c0,1.6-.4,2.9-1.3,3.7-.9.9-2.1,1.3-3.7,1.3h-42.5c-16.6,0-30.8-.5-42.7-1.4-1.6-.2-2.9.1-3.9.8s-1.4,1.9-1.4,3.5c-.2,1.4-.2,3.9-.2,7.5s0,6.3.2,7.7c0,1.4.4,2.5,1.2,3.3.8.7,1.9,1.1,3.4,1.1h.7c15.1-1.1,31.1-1.7,48-1.7h105.7c20.3,0,36.6.6,49,1.7,2.9.3,4.3-1.1,4.3-4.3.2-1.4.2-4,.2-7.7s0-6-.2-7.5h0v.1ZM1066.43,160.73c0,1.6-.4,2.9-1.3,3.7s-2.1,1.3-3.7,1.3h-14.7c-1.6,0-2.9-.4-3.7-1.3-.9-.9-1.3-2.1-1.3-3.7v-19.3c0-1.6.4-2.9,1.3-3.7s2.1-1.3,3.7-1.3h14.7c1.6,0,2.8.4,3.7,1.3.9.9,1.3,2.1,1.3,3.7v19.3Z"/><path class="b" d="M1138.93,218.93c-.7.6-1.1,1.5-1.1,2.4l.5,2.2c.5,1.3,1.5,4.6,3.1,9.9.6,3.1,2.5,4.6,5.6,4.6,7.7,0,14.1-.2,19.1-.7s9.1-1.5,12.3-2.9c3.7-1.6,6.3-3.9,7.7-7,1.4-3,2.2-7.5,2.2-13.3v-83c0-3.9.4-7,1.2-9.5.8-2.5,1.9-5.1,3.4-7.8.5-.8.6-1.6.4-2.3s-.9-1.2-2.1-1.6c-3.9-1.1-10.2-1.7-19.1-1.7h-3.4c-1.9.2-2.9,1.6-2.9,4.3v1c1.1,13,1.7,29,1.7,48v52.4c0,1.6-.3,2.7-1,3.3-.6.6-1.9.8-3.9.8l-7.7.2-13.3-.2c-1.1,0-2.1.3-2.8,1h0l.1-.1Z"/><path class="b" d="M873.03,762.03c-2.9,5.6-7.1,4.4-11.7,4.8-22.7,2-45.2,2.3-67.4-12.8,17.9,2.7,34.8,10.6,52.7,9.6l26.4-1.6Z"/><path class="b" d="M469.03,731.83l6.2-9s-16.6-7.2-15.9-5.5,1,7.9,3.1,9.3,3.4,4.5,6.6,5.2h0Z"/><path class="b" d="M678.43,513.63c.1,0,.2,0,.4.1.3-1.4-.3-2.8-1.3-3.8s-2.2-1.6-3.4-2.3c-2.7-1.6-5.2-3.5-7.4-5.7-1.7-1.9-3.2-4-5.1-5.7-4.2-4-10-5.9-15.3-8-6.1-2.5-12.3-4.7-18.6-6.6-5.1-1.5-10.2-2.9-15.4-3.4-.7,0-1.6,0-2,.5-.3.4-.3.8-.3,1.3,0,2.9.4,5.9.2,8.8s-1.1,6-3.4,7.8c7.8-5.7,18.3-6.7,27.7-4.4,8,1.9,15.2,6,21.8,10.8,6.6,4.7,14.6,7.9,22.2,10.7h0l-.1-.1Z"/><path class="c" d="M705.23,692.03c.3,4.1,3.5,7.5,7.1,9.4s7.8,2.6,11.8,3.5c13.8,3.3,26.7,10.1,37.2,19.7.7.6,1.4,1.3,1.6,2.2.8,2.6-2.7,4.6-5.3,3.8s-4.4-2.9-6.6-4.4c-2.9-1.9-6.4-2.7-9.8-3.3-11.3-2.1-22.8-3.2-34.4-3.4-1.3,0-2.7,0-3.8-.6-1-.5-1.7-1.4-2.6-2-5-3.6-14.3-.7-20.2-2.1s-15,2-19.6-2c-.6-.5-1.1-1.3-.7-2,.2-.3.5-.5.8-.7,7.3-4.6,15.5-5.2,22.6-9.2,6.9-4,13.2-10.1,21.9-8.8h0v-.1Z"/><path class="c" d="M742.33,570.43c.5-2.9,2.3-5.4,4.3-7.5s4.4-3.9,6.3-6.1c2.4-2.8,4.1-6.2,5.7-9.6-1.6-.2-3.1.7-4.5,1.5-6.1,3.4-13.2,4.9-20.2,4.1,2.4,2.7,4.4,5.4,5.5,8.9.6,1.7,3,7.3,2.8,8.7h.1Z"/></svg>