<?xml version="1.0" encoding="UTF-8"?><svg id="a" xmlns="http://www.w3.org/2000/svg" viewBox="0 0 762.33 629.06"><defs><style>.c,.d{fill:#0a2966;}.d{fill-rule:evenodd;}</style></defs><path class="d" d="M406.11,505.58c-6.72-3.52-36.59-3.75-44.53-1.48-1.1.34-2.23.63-3.28,1.18-.26.14-1.14.44-.99.87,2.27,2.21,5.36,3.6,7.95,4.85,4.47,2.16,9.01,3.95,13.75,4.39,5.38.51,10.62-.74,15.8-2.65,3.03-1.11,5.97-2.83,8.77-4.79.7-.49,2.17-1.6,2.52-2.39Z"/><path class="c" d="M468.85,430.08c11.69,6.46,21.22,7.48,21.22,7.48l4.75,2.09-3.09,7.42c-10.26,2.97-17.37,4.01-27.71,4.53l-9.93.5c7.2,2.57,13.82,4.2,19.54,8.72.33,1.94-2.39,4.11-2.54,6.08-9.98,2.47-17,2.22-27.14,3.16l-20.38,1.63c6.1,1.88,14.33,2.62,19.88,5.57.9.48,1.45,3.69.63,4.47-3.11,2.94-7.57,4.18-11.76,5.83-9.91,3.91-20.09,5.69-30.64,7.47-14.39,2.42-28.52,2.13-42.91-.43s-26.78-5.89-39.12-12.49l.28-4.83c5.64-2.49,14.27-4.32,20.85-5.6-15.84-3.16-32.6-.97-48.34-4.94-.29-1.67-3.54-4.8-2.57-6.11,6.08-4.37,12.39-6.81,19.21-8.58l-17.99-1.26c-7.8-.55-12.3-1.46-19.56-4.22-.18-1.81-3.61-4.5-2.84-6.52,1.3-1.58,4.46-2.68,6.65-3.44,0,0,10.34-2.73,19.1-6.59,8.76-3.86,162.71-6.39,174.4.07Z"/><path class="d" d="M197.43,361.63c1.75-18.43,4.95-35.56,11.24-52.78,18.52-50.73,53.92-93.35,86.91-135.23,14.61-18.55,29.44-36.92,44.53-55.08,13.66-16.46,26.78-33.34,40.91-49.4.83.76,18.44,21.59,24.65,29.1,26.08,31.58,51.85,63.53,76.8,96,27.74,36.11,56.24,73.19,71.68,116.54,3.17,8.9,5.45,18.07,7.52,27.27,5.17,22.99,4.82,47.27.63,70.36-4.27,23.52-12.85,46.39-26,66.43-14.11,21.5-31.74,40.48-53.22,54.79-66.6,44.38-158.16,39.59-219.7-11.72-23.9-19.93-42.16-45.93-53.77-74.71-10.27-25.47-14.46-54.18-12.19-81.56ZM225.09,367.72c-.89,12.32,1.25,27.18,2.23,39.39,12.05.47,52.92.27,54.79-.17,7.45-7.66,12.3-9.29,23.3-11.37,5.31-1,12.84-8.5,18.2-8.66,3.48-1.67,6.4-5.8,9.48-8.21,4.42-3.45,9.34-5.62,13.98-8.6,0-3.31-1.33-6.81-2.23-9.96-2.81-9.86-7.67-19.26-13.31-27.79-2.51-3.8-5.4-9.26-9.3-11.79-1,3.89-2.76,7.55-3.68,11.5-1.82,7.78-1.59,15.57.21,23.24-2.83-.33-5.65-4.09-7.33-6.14-4.98-6.09-7.48-14.29-5.49-22.07.74-2.88,2.39-5.14,3.52-7.82-8.54,5.21-17.46,10.22-22.95,18.99-.6.86-1.54,3.28-2.6,3.43-.65-2.35-.37-5.08-.17-7.49.58-7.13,3.07-14.21,8.56-19.05,2.21-1.95,4.5-3.75,7.12-5.11,1.01-.52,4.65-.74,4.6-1.88-6.19-1.85-13.12-3.63-19.58-4.03-2.7-.16-5.2.12-7.89.26-.67.03-2.06.32-1.88-.51,3.61-2.88,6.89-5.61,11.2-7.45,9.03-3.84,19.77-2.4,27.35,3.79.24-2.28-.37-4.56.1-6.86,1.77-8.63,8.63-16.23,16.63-19.64,2.31-.98,4.9-1.66,7.37-2.07.89-.15,2.27-.52,3.06,0-.65,1.87-3.13,3.3-4.34,4.89-3.19,4.18-5.41,9.21-7.64,13.94-.93,1.97-2.72,4.21-2.58,6.46.26.17,3.1-2.48,3.78-2.93,2.55-1.69,5.81-2.86,8.84-3.25,9.72-1.28,19.55,2.25,26.75,8.85-.02.31-2.13.09-2.46.09-2.44.02-4.92.06-7.34.38-6.11.8-11.56,2.65-17.2,5.07-1.46.63-4.78,1.6-5.58,2.94,3.36.88,6.8.4,10.13,1.85,8.75,3.82,15.95,14.26,16.37,23.84-2.13.01-4.91-3.21-6.6-4.38-4.17-2.9-8.73-5.14-13.47-6.94-1.65-.63-3.33-1.16-4.97-1.8-.5-.19-3.89-1.47-4.68-1.37,6.34,7.92,12.91,16.68,17.9,25.62,3.57,6.4,5.72,13.48,9.18,19.85,5.78-1.59,16.97-2.81,22.99-3.19.62-1.25.57-2.84.81-4.19.47-2.75,1.1-5.47,1.7-8.19,1.78-7.96,4.03-15.9,6.91-23.54,3.4-9,6.73-17.85,11.21-26.38,1.7-3.23,3.54-6.4,5.49-9.48.99-1.57,5-6.3,5.62-8.05-2.12-.45-11.36,6.19-13.07,7.29-6.83,4.4-13.64,9.28-19.29,15.16-1.51,1.57-2.94,3.28-4.18,5.08-.38.55-.94,2.03-1.66,2.05-1.82-3.06-.64-9.1-.08-12.44,1.82-10.76,8.63-20.35,18.23-25.61,3.64-2,7.6-2.43,11.45-3.68-.41-.68-1.99-.75-2.75-.91-2.18-.44-4.35-1.23-6.48-1.89-8.05-2.5-16.04-3.91-24.52-3.31-2.96.21-6.03.46-8.92,1.2-1.14.29-3.19,1.53-4.33,1.16,1.54-1.97,3.69-3.52,5.55-5.18,10.2-9.12,22-14.07,35.77-10.96,3.22.73,6.21,2.03,9.07,3.66,1.09.62,2.45,1.87,3.65,2.18-3.35-6.57-6.95-13.48-11.66-19.18-4.52-5.47-9.77-9.61-15.37-13.83.97-.62,2.46-.35,3.61-.31,2.79.11,5.59.43,8.34.85,16.26,2.5,27.96,15.8,30.08,31.7.94-.16,1.9-1.98,2.54-2.64,1.59-1.64,3.49-3.06,5.33-4.41,5.56-4.04,12.49-6.63,19.42-6.53,6.65.09,12.81,2,18.54,5.34,1.7.99,3.25,2.07,4.87,3.18.16.11,2.11,1.2,1.39,1.54-.67.31-1.96,0-2.7.04-2.72.13-5.41.3-8.12.63-7.08.87-13.82,3.08-20.11,6.43-2.13,1.13-4.17,2.44-6.29,3.57-.5.27-1.79.88-1.48,1.68.11.28.87.13.99.12,1.49-.11,2.75.01,4.23.27,3.66.64,7.16,1.8,10.45,3.52,12.19,6.39,21.5,21.13,19.27,35.23-5.39-8.47-15.69-15.59-24.86-19.35-4.29-1.76-8.98-2.45-13.24-4.23,1.43,2.76,3.84,4.8,5.26,7.62,4.86,9.66,4.73,19.95-.52,29.44-1.78,3.22-3.91,6.15-6.46,8.81-.74.77-2.31,2.73-3.48,2.11,1.26-12.04-.8-23.36-6.03-34.25-1.2-2.51-2.7-5.04-3.68-7.64-.28-.74-1.39-3.97-2.36-3.69-10.5,17.02-19.33,37.38-23.3,56.96-1.52,7.5-3.29,16.28-2.5,23.95,4.49-.34,12.93,1.67,17.05,3.28,6.7,2.62,12.84,5.87,18.59,10.22,4.25,3.22,7.79,7.14,11.81,10.57,4.78.6,5.49,4.09,10.33,4.97,7.15,1.3,14.04,4.77,19.5,9.54,2.63,2.29,8.76,3.61,11.29,5.98,1.94.47,42.5.25,54.79.14,1.65-5.27,1.73-14.59,2.17-20.09,1.53-18.99-1.01-37.74-6.04-56.03-7.72-28.08-22.89-53.3-39.39-77.04-19.01-27.36-39.26-54.1-60.61-79.69-12.92-15.49-25.16-31.58-38.25-46.93-3.09-3.62-12.52-14.51-12.52-14.51,0,0-7.55,8.96-11.21,13.11-6.51,7.39-12.71,15.24-18.78,22.99-24.26,30.97-49.55,61.02-72.38,93.09-11.97,16.81-23.96,33.85-33.02,52.47-7.22,14.83-13.65,30.5-16.77,46.77-1.11,5.78-2.03,11.62-2.67,17.47-.33,2.93-.26,5.35-.62,8.92ZM232.64,421.02c4.11,15.86,13.07,33.16,22.34,46.44,8.82,12.64,19.78,23.87,32.08,33.16,17.81,13.44,38.47,23.4,60.33,28.27,60.71,13.5,126.33-11.66,161.74-62.94,8.93-12.93,16.75-30.08,21.35-45.19-19.95-.38-39.97-.26-59.94-.05-11.37.12-22.86,2.64-34.2,3.48-18.49,1.37-36.58,7.05-55.16,7.01-17.82-.04-35.36-4.97-53-6.99-13.21-1.51-27.01-3.65-40.29-3.63-18.41.03-36.84-.3-55.23.44Z"/></svg>