<?xml version="1.0" standalone="no"?>
<svg xmlns="http://www.w3.org/2000/svg" width="500" height="500"><defs><clipPath id="clip-path-dot-color"><circle cx="26" cy="138" r="7" transform="rotate(0,26,138)"/><circle cx="26" cy="166" r="7" transform="rotate(0,26,166)"/><path d="M 19 187v 14h 7a 7 7, 0, 0, 0, 0 -14" transform="rotate(-90,26,194)"/><rect x="19" y="201" width="14" height="14" transform="rotate(0,26,208)"/><path d="M 19 215v 14h 7a 7 7, 0, 0, 0, 0 -14" transform="rotate(90,26,222)"/><path d="M 19 243v 14h 7a 7 7, 0, 0, 0, 0 -14" transform="rotate(180,26,250)"/><path d="M 19 271v 14h 7a 7 7, 0, 0, 0, 0 -14" transform="rotate(-90,26,278)"/><path d="M 19 285v 14h 7a 7 7, 0, 0, 0, 0 -14" transform="rotate(90,26,292)"/><circle cx="26" cy="320" r="7" transform="rotate(0,26,320)"/><path d="M 19 341v 14h 7a 7 7, 0, 0, 0, 0 -14" transform="rotate(180,26,348)"/><path d="M 33 145v 14h 7a 7 7, 0, 0, 0, 0 -14" transform="rotate(180,40,152)"/><circle cx="40" cy="180" r="7" transform="rotate(0,40,180)"/><rect x="33" y="201" width="14" height="14" transform="rotate(0,40,208)"/><rect x="33" y="243" width="14" height="14" transform="rotate(0,40,250)"/><path d="M 33 257v 14h 14v -7a 7 7, 0, 0, 0, -7 -7" transform="rotate(180,40,264)"/><rect x="33" y="341" width="14" height="14" transform="rotate(0,40,348)"/><path d="M 47 131v 14h 14v -7a 7 7, 0, 0, 0, -7 -7" transform="rotate(-90,54,138)"/><rect x="47" y="145" width="14" height="14" transform="rotate(0,54,152)"/><path d="M 47 159v 14h 7a 7 7, 0, 0, 0, 0 -14" transform="rotate(90,54,166)"/><path d="M 47 187v 14h 14v -7a 7 7, 0, 0, 0, -7 -7" transform="rotate(-90,54,194)"/><rect x="47" y="201" width="14" height="14" transform="rotate(0,54,208)"/><rect x="47" y="215" width="14" height="14" transform="rotate(0,54,222)"/><rect x="47" y="229" width="14" height="14" transform="rotate(0,54,236)"/><rect x="47" y="243" width="14" height="14" transform="rotate(0,54,250)"/><rect x="47" y="257" width="14" height="14" transform="rotate(0,54,264)"/><path d="M 47 285v 14h 7a 7 7, 0, 0, 0, 0 -14" transform="rotate(180,54,292)"/><path d="M 47 341v 14h 14v -7a 7 7, 0, 0, 0, -7 -7" transform="rotate(0,54,348)"/><path d="M 47 355v 14h 7a 7 7, 0, 0, 0, 0 -14" transform="rotate(90,54,362)"/><path d="M 61 131v 14h 7a 7 7, 0, 0, 0, 0 -14" transform="rotate(0,68,138)"/><path d="M 61 173v 14h 14v -7a 7 7, 0, 0, 0, -7 -7" transform="rotate(-90,68,180)"/><rect x="61" y="187" width="14" height="14" transform="rotate(0,68,194)"/><rect x="61" y="201" width="14" height="14" transform="rotate(0,68,208)"/><rect x="61" y="215" width="14" height="14" transform="rotate(0,68,222)"/><rect x="61" y="243" width="14" height="14" transform="rotate(0,68,250)"/><path d="M 61 257v 14h 14v -7a 7 7, 0, 0, 0, -7 -7" transform="rotate(90,68,264)"/><rect x="61" y="285" width="14" height="14" transform="rotate(0,68,292)"/><path d="M 61 327v 14h 7a 7 7, 0, 0, 0, 0 -14" transform="rotate(180,68,334)"/><path d="M 75 159v 14h 7a 7 7, 0, 0, 0, 0 -14" transform="rotate(-90,82,166)"/><path d="M 75 173v 14h 14v -7a 7 7, 0, 0, 0, -7 -7" transform="rotate(90,82,180)"/><path d="M 75 201v 14h 14v -7a 7 7, 0, 0, 0, -7 -7" transform="rotate(0,82,208)"/><rect x="75" y="215" width="14" height="14" transform="rotate(0,82,222)"/><rect x="75" y="229" width="14" height="14" transform="rotate(0,82,236)"/><path d="M 75 243v 14h 14v -7a 7 7, 0, 0, 0, -7 -7" transform="rotate(90,82,250)"/><path d="M 75 285v 14h 7a 7 7, 0, 0, 0, 0 -14" transform="rotate(0,82,292)"/><rect x="75" y="327" width="14" height="14" transform="rotate(0,82,334)"/><path d="M 75 341v 14h 7a 7 7, 0, 0, 0, 0 -14" transform="rotate(90,82,348)"/><path d="M 89 131v 14h 14v -7a 7 7, 0, 0, 0, -7 -7" transform="rotate(-90,96,138)"/><path d="M 89 145v 14h 7a 7 7, 0, 0, 0, 0 -14" transform="rotate(90,96,152)"/><path d="M 89 229v 14h 7a 7 7, 0, 0, 0, 0 -14" transform="rotate(0,96,236)"/><path d="M 89 257v 14h 7a 7 7, 0, 0, 0, 0 -14" transform="rotate(-90,96,264)"/><path d="M 89 271v 14h 14v -7a 7 7, 0, 0, 0, -7 -7" transform="rotate(180,96,278)"/><path d="M 89 299v 14h 14v -7a 7 7, 0, 0, 0, -7 -7" transform="rotate(-90,96,306)"/><rect x="89" y="313" width="14" height="14" transform="rotate(0,96,320)"/><rect x="89" y="327" width="14" height="14" transform="rotate(0,96,334)"/><rect x="103" y="131" width="14" height="14" transform="rotate(0,110,138)"/><circle cx="110" cy="166" r="7" transform="rotate(0,110,166)"/><path d="M 103 187v 14h 7a 7 7, 0, 0, 0, 0 -14" transform="rotate(180,110,194)"/><circle cx="110" cy="222" r="7" transform="rotate(0,110,222)"/><path d="M 103 243v 14h 7a 7 7, 0, 0, 0, 0 -14" transform="rotate(180,110,250)"/><rect x="103" y="271" width="14" height="14" transform="rotate(0,110,278)"/><rect x="103" y="299" width="14" height="14" transform="rotate(0,110,306)"/><rect x="103" y="327" width="14" height="14" transform="rotate(0,110,334)"/><circle cx="110" cy="362" r="7" transform="rotate(0,110,362)"/><rect x="117" y="131" width="14" height="14" transform="rotate(0,124,138)"/><rect x="117" y="187" width="14" height="14" transform="rotate(0,124,194)"/><path d="M 117 201v 14h 14v -7a 7 7, 0, 0, 0, -7 -7" transform="rotate(180,124,208)"/><path d="M 117 243v 14h 14v -7a 7 7, 0, 0, 0, -7 -7" transform="rotate(0,124,250)"/><rect x="117" y="257" width="14" height="14" transform="rotate(0,124,264)"/><rect x="117" y="271" width="14" height="14" transform="rotate(0,124,278)"/><rect x="117" y="285" width="14" height="14" transform="rotate(0,124,292)"/><rect x="117" y="299" width="14" height="14" transform="rotate(0,124,306)"/><rect x="117" y="313" width="14" height="14" transform="rotate(0,124,320)"/><path d="M 117 327v 14h 14v -7a 7 7, 0, 0, 0, -7 -7" transform="rotate(90,124,334)"/><circle cx="138" cy="40" r="7" transform="rotate(0,138,40)"/><circle cx="138" cy="68" r="7" transform="rotate(0,138,68)"/><path d="M 131 89v 14h 7a 7 7, 0, 0, 0, 0 -14" transform="rotate(-90,138,96)"/><rect x="131" y="103" width="14" height="14" transform="rotate(0,138,110)"/><rect x="131" y="117" width="14" height="14" transform="rotate(0,138,124)"/><rect x="131" y="131" width="14" height="14" transform="rotate(0,138,138)"/><path d="M 131 159v 14h 14v -7a 7 7, 0, 0, 0, -7 -7" transform="rotate(-90,138,166)"/><rect x="131" y="173" width="14" height="14" transform="rotate(0,138,180)"/><rect x="131" y="187" width="14" height="14" transform="rotate(0,138,194)"/><rect x="131" y="201" width="14" height="14" transform="rotate(0,138,208)"/><rect x="131" y="215" width="14" height="14" transform="rotate(0,138,222)"/><path d="M 131 229v 14h 7a 7 7, 0, 0, 0, 0 -14" transform="rotate(90,138,236)"/><path d="M 131 271v 14h 14v -7a 7 7, 0, 0, 0, -7 -7" transform="rotate(0,138,278)"/><rect x="131" y="285" width="14" height="14" transform="rotate(0,138,292)"/><rect x="131" y="299" width="14" height="14" transform="rotate(0,138,306)"/><path d="M 131 313v 14h 14v -7a 7 7, 0, 0, 0, -7 -7" transform="rotate(90,138,320)"/><path d="M 131 341v 14h 7a 7 7, 0, 0, 0, 0 -14" transform="rotate(-90,138,348)"/><rect x="131" y="355" width="14" height="14" transform="rotate(0,138,362)"/><rect x="131" y="369" width="14" height="14" transform="rotate(0,138,376)"/><rect x="131" y="383" width="14" height="14" transform="rotate(0,138,390)"/><path d="M 131 397v 14h 14v -7a 7 7, 0, 0, 0, -7 -7" transform="rotate(180,138,404)"/><path d="M 131 425v 14h 7a 7 7, 0, 0, 0, 0 -14" transform="rotate(-90,138,432)"/><path d="M 131 439v 14h 7a 7 7, 0, 0, 0, 0 -14" transform="rotate(90,138,446)"/><path d="M 131 467v 14h 7a 7 7, 0, 0, 0, 0 -14" transform="rotate(180,138,474)"/><path d="M 145 47v 14h 7a 7 7, 0, 0, 0, 0 -14" transform="rotate(180,152,54)"/><path d="M 145 75v 14h 7a 7 7, 0, 0, 0, 0 -14" transform="rotate(180,152,82)"/><rect x="145" y="117" width="14" height="14" transform="rotate(0,152,124)"/><rect x="145" y="131" width="14" height="14" transform="rotate(0,152,138)"/><rect x="145" y="145" width="14" height="14" transform="rotate(0,152,152)"/><path d="M 145 159v 14h 14v -7a 7 7, 0, 0, 0, -7 -7" transform="rotate(90,152,166)"/><rect x="145" y="187" width="14" height="14" transform="rotate(0,152,194)"/><rect x="145" y="201" width="14" height="14" transform="rotate(0,152,208)"/><rect x="145" y="215" width="14" height="14" transform="rotate(0,152,222)"/><circle cx="152" cy="250" r="7" transform="rotate(0,152,250)"/><path d="M 145 299v 14h 7a 7 7, 0, 0, 0, 0 -14" transform="rotate(0,152,306)"/><path d="M 145 355v 14h 14v -7a 7 7, 0, 0, 0, -7 -7" transform="rotate(0,152,362)"/><rect x="145" y="369" width="14" height="14" transform="rotate(0,152,376)"/><rect x="145" y="383" width="14" height="14" transform="rotate(0,152,390)"/><rect x="145" y="397" width="14" height="14" transform="rotate(0,152,404)"/><path d="M 145 453v 14h 7a 7 7, 0, 0, 0, 0 -14" transform="rotate(-90,152,460)"/><rect x="145" y="467" width="14" height="14" transform="rotate(0,152,474)"/><circle cx="166" cy="26" r="7" transform="rotate(0,166,26)"/><path d="M 159 47v 14h 7a 7 7, 0, 0, 0, 0 -14" transform="rotate(0,166,54)"/><rect x="159" y="75" width="14" height="14" transform="rotate(0,166,82)"/><path d="M 159 103v 14h 7a 7 7, 0, 0, 0, 0 -14" transform="rotate(-90,166,110)"/><rect x="159" y="117" width="14" height="14" transform="rotate(0,166,124)"/><path d="M 159 131v 14h 14v -7a 7 7, 0, 0, 0, -7 -7" transform="rotate(90,166,138)"/><path d="M 159 173v 14h 14v -7a 7 7, 0, 0, 0, -7 -7" transform="rotate(-90,166,180)"/><rect x="159" y="187" width="14" height="14" transform="rotate(0,166,194)"/><rect x="159" y="201" width="14" height="14" transform="rotate(0,166,208)"/><rect x="159" y="215" width="14" height="14" transform="rotate(0,166,222)"/><path d="M 159 257v 14h 7a 7 7, 0, 0, 0, 0 -14" transform="rotate(180,166,264)"/><circle cx="166" cy="292" r="7" transform="rotate(0,166,292)"/><path d="M 159 397v 14h 14v -7a 7 7, 0, 0, 0, -7 -7" transform="rotate(0,166,404)"/><path d="M 159 411v 14h 14v -7a 7 7, 0, 0, 0, -7 -7" transform="rotate(180,166,418)"/><circle cx="166" cy="446" r="7" transform="rotate(0,166,446)"/><rect x="159" y="467" width="14" height="14" transform="rotate(0,166,474)"/><circle cx="180" cy="40" r="7" transform="rotate(0,180,40)"/><path d="M 173 61v 14h 7a 7 7, 0, 0, 0, 0 -14" transform="rotate(-90,180,68)"/><rect x="173" y="75" width="14" height="14" transform="rotate(0,180,82)"/><path d="M 173 117v 14h 7a 7 7, 0, 0, 0, 0 -14" transform="rotate(0,180,124)"/><rect x="173" y="173" width="14" height="14" transform="rotate(0,180,180)"/><path d="M 173 215v 14h 7a 7 7, 0, 0, 0, 0 -14" transform="rotate(0,180,222)"/><path d="M 173 257v 14h 7a 7 7, 0, 0, 0, 0 -14" transform="rotate(0,180,264)"/><path d="M 173 313v 14h 7a 7 7, 0, 0, 0, 0 -14" transform="rotate(180,180,320)"/><path d="M 173 341v 14h 7a 7 7, 0, 0, 0, 0 -14" transform="rotate(-90,180,348)"/><path d="M 173 355v 14h 14v -7a 7 7, 0, 0, 0, -7 -7" transform="rotate(180,180,362)"/><path d="M 173 411v 14h 14v -7a 7 7, 0, 0, 0, -7 -7" transform="rotate(0,180,418)"/><path d="M 173 425v 14h 14v -7a 7 7, 0, 0, 0, -7 -7" transform="rotate(180,180,432)"/><rect x="173" y="467" width="14" height="14" transform="rotate(0,180,474)"/><path d="M 187 75v 14h 7a 7 7, 0, 0, 0, 0 -14" transform="rotate(0,194,82)"/><circle cx="194" cy="110" r="7" transform="rotate(0,194,110)"/><path d="M 187 131v 14h 14v -7a 7 7, 0, 0, 0, -7 -7" transform="rotate(-90,194,138)"/><path d="M 187 145v 14h 7a 7 7, 0, 0, 0, 0 -14" transform="rotate(90,194,152)"/><path d="M 187 173v 14h 7a 7 7, 0, 0, 0, 0 -14" transform="rotate(0,194,180)"/><path d="M 187 229v 14h 7a 7 7, 0, 0, 0, 0 -14" transform="rotate(180,194,236)"/><circle cx="194" cy="292" r="7" transform="rotate(0,194,292)"/><path d="M 187 313v 14h 14v -7a 7 7, 0, 0, 0, -7 -7" transform="rotate(0,194,320)"/><path d="M 187 327v 14h 14v -7a 7 7, 0, 0, 0, -7 -7" transform="rotate(180,194,334)"/><rect x="187" y="355" width="14" height="14" transform="rotate(0,194,362)"/><rect x="187" y="369" width="14" height="14" transform="rotate(0,194,376)"/><path d="M 187 383v 14h 14v -7a 7 7, 0, 0, 0, -7 -7" transform="rotate(180,194,390)"/><path d="M 187 425v 14h 7a 7 7, 0, 0, 0, 0 -14" transform="rotate(0,194,432)"/><rect x="187" y="467" width="14" height="14" transform="rotate(0,194,474)"/><path d="M 201 47v 14h 7a 7 7, 0, 0, 0, 0 -14" transform="rotate(180,208,54)"/><rect x="201" y="131" width="14" height="14" transform="rotate(0,208,138)"/><path d="M 201 159v 14h 7a 7 7, 0, 0, 0, 0 -14" transform="rotate(180,208,166)"/><path d="M 201 187v 14h 7a 7 7, 0, 0, 0, 0 -14" transform="rotate(180,208,194)"/><path d="M 201 215v 14h 14v -7a 7 7, 0, 0, 0, -7 -7" transform="rotate(-90,208,222)"/><rect x="201" y="229" width="14" height="14" transform="rotate(0,208,236)"/><path d="M 201 257v 14h 7a 7 7, 0, 0, 0, 0 -14" transform="rotate(180,208,264)"/><path d="M 201 327v 14h 7a 7 7, 0, 0, 0, 0 -14" transform="rotate(0,208,334)"/><path d="M 201 355v 14h 7a 7 7, 0, 0, 0, 0 -14" transform="rotate(0,208,362)"/><rect x="201" y="383" width="14" height="14" transform="rotate(0,208,390)"/><circle cx="208" cy="418" r="7" transform="rotate(0,208,418)"/><path d="M 201 439v 14h 14v -7a 7 7, 0, 0, 0, -7 -7" transform="rotate(-90,208,446)"/><rect x="201" y="453" width="14" height="14" transform="rotate(0,208,460)"/><path d="M 201 467v 14h 14v -7a 7 7, 0, 0, 0, -7 -7" transform="rotate(90,208,474)"/><circle cx="222" cy="26" r="7" transform="rotate(0,222,26)"/><path d="M 215 47v 14h 14v -7a 7 7, 0, 0, 0, -7 -7" transform="rotate(0,222,54)"/><rect x="215" y="61" width="14" height="14" transform="rotate(0,222,68)"/><rect x="215" y="75" width="14" height="14" transform="rotate(0,222,82)"/><rect x="215" y="89" width="14" height="14" transform="rotate(0,222,96)"/><path d="M 215 103v 14h 7a 7 7, 0, 0, 0, 0 -14" transform="rotate(90,222,110)"/><path d="M 215 131v 14h 7a 7 7, 0, 0, 0, 0 -14" transform="rotate(0,222,138)"/><path d="M 215 159v 14h 7a 7 7, 0, 0, 0, 0 -14" transform="rotate(0,222,166)"/><rect x="215" y="187" width="14" height="14" transform="rotate(0,222,194)"/><rect x="215" y="215" width="14" height="14" transform="rotate(0,222,222)"/><rect x="215" y="229" width="14" height="14" transform="rotate(0,222,236)"/><rect x="215" y="243" width="14" height="14" transform="rotate(0,222,250)"/><rect x="215" y="257" width="14" height="14" transform="rotate(0,222,264)"/><path d="M 215 271v 14h 7a 7 7, 0, 0, 0, 0 -14" transform="rotate(90,222,278)"/><path d="M 215 299v 14h 7a 7 7, 0, 0, 0, 0 -14" transform="rotate(-90,222,306)"/><path d="M 215 313v 14h 14v -7a 7 7, 0, 0, 0, -7 -7" transform="rotate(180,222,320)"/><path d="M 215 341v 14h 7a 7 7, 0, 0, 0, 0 -14" transform="rotate(180,222,348)"/><path d="M 215 369v 14h 7a 7 7, 0, 0, 0, 0 -14" transform="rotate(-90,222,376)"/><rect x="215" y="383" width="14" height="14" transform="rotate(0,222,390)"/><path d="M 215 439v 14h 14v -7a 7 7, 0, 0, 0, -7 -7" transform="rotate(0,222,446)"/><rect x="215" y="453" width="14" height="14" transform="rotate(0,222,460)"/><rect x="229" y="61" width="14" height="14" transform="rotate(0,236,68)"/><path d="M 229 75v 14h 14v -7a 7 7, 0, 0, 0, -7 -7" transform="rotate(90,236,82)"/><rect x="229" y="187" width="14" height="14" transform="rotate(0,236,194)"/><rect x="229" y="201" width="14" height="14" transform="rotate(0,236,208)"/><rect x="229" y="215" width="14" height="14" transform="rotate(0,236,222)"/><rect x="229" y="229" width="14" height="14" transform="rotate(0,236,236)"/><path d="M 229 243v 14h 14v -7a 7 7, 0, 0, 0, -7 -7" transform="rotate(90,236,250)"/><path d="M 229 285v 14h 7a 7 7, 0, 0, 0, 0 -14" transform="rotate(180,236,292)"/><rect x="229" y="313" width="14" height="14" transform="rotate(0,236,320)"/><rect x="229" y="341" width="14" height="14" transform="rotate(0,236,348)"/><rect x="229" y="383" width="14" height="14" transform="rotate(0,236,390)"/><path d="M 229 397v 14h 7a 7 7, 0, 0, 0, 0 -14" transform="rotate(90,236,404)"/><rect x="229" y="453" width="14" height="14" transform="rotate(0,236,460)"/><path d="M 243 47v 14h 14v -7a 7 7, 0, 0, 0, -7 -7" transform="rotate(-90,250,54)"/><rect x="243" y="61" width="14" height="14" transform="rotate(0,250,68)"/><path d="M 243 103v 14h 7a 7 7, 0, 0, 0, 0 -14" transform="rotate(-90,250,110)"/><path d="M 243 117v 14h 14v -7a 7 7, 0, 0, 0, -7 -7" transform="rotate(180,250,124)"/><circle cx="250" cy="152" r="7" transform="rotate(0,250,152)"/><path d="M 243 173v 14h 14v -7a 7 7, 0, 0, 0, -7 -7" transform="rotate(-90,250,180)"/><rect x="243" y="187" width="14" height="14" transform="rotate(0,250,194)"/><rect x="243" y="201" width="14" height="14" transform="rotate(0,250,208)"/><rect x="243" y="215" width="14" height="14" transform="rotate(0,250,222)"/><path d="M 243 229v 14h 14v -7a 7 7, 0, 0, 0, -7 -7" transform="rotate(90,250,236)"/><path d="M 243 285v 14h 14v -7a 7 7, 0, 0, 0, -7 -7" transform="rotate(0,250,292)"/><rect x="243" y="299" width="14" height="14" transform="rotate(0,250,306)"/><rect x="243" y="313" width="14" height="14" transform="rotate(0,250,320)"/><rect x="243" y="327" width="14" height="14" transform="rotate(0,250,334)"/><rect x="243" y="341" width="14" height="14" transform="rotate(0,250,348)"/><path d="M 243 355v 14h 14v -7a 7 7, 0, 0, 0, -7 -7" transform="rotate(180,250,362)"/><path d="M 243 383v 14h 7a 7 7, 0, 0, 0, 0 -14" transform="rotate(0,250,390)"/><circle cx="250" cy="418" r="7" transform="rotate(0,250,418)"/><rect x="243" y="453" width="14" height="14" transform="rotate(0,250,460)"/><path d="M 257 19v 14h 7a 7 7, 0, 0, 0, 0 -14" transform="rotate(180,264,26)"/><path d="M 257 47v 14h 14v -7a 7 7, 0, 0, 0, -7 -7" transform="rotate(0,264,54)"/><rect x="257" y="61" width="14" height="14" transform="rotate(0,264,68)"/><circle cx="264" cy="96" r="7" transform="rotate(0,264,96)"/><path d="M 257 117v 14h 14v -7a 7 7, 0, 0, 0, -7 -7" transform="rotate(0,264,124)"/><path d="M 257 131v 14h 7a 7 7, 0, 0, 0, 0 -14" transform="rotate(90,264,138)"/><rect x="257" y="173" width="14" height="14" transform="rotate(0,264,180)"/><path d="M 257 187v 14h 14v -7a 7 7, 0, 0, 0, -7 -7" transform="rotate(90,264,194)"/><path d="M 257 243v 14h 7a 7 7, 0, 0, 0, 0 -14" transform="rotate(180,264,250)"/><circle cx="264" cy="278" r="7" transform="rotate(0,264,278)"/><path d="M 257 341v 14h 14v -7a 7 7, 0, 0, 0, -7 -7" transform="rotate(0,264,348)"/><rect x="257" y="355" width="14" height="14" transform="rotate(0,264,362)"/><path d="M 257 369v 14h 14v -7a 7 7, 0, 0, 0, -7 -7" transform="rotate(180,264,376)"/><circle cx="264" cy="404" r="7" transform="rotate(0,264,404)"/><circle cx="264" cy="432" r="7" transform="rotate(0,264,432)"/><rect x="257" y="453" width="14" height="14" transform="rotate(0,264,460)"/><path d="M 271 19v 14h 14v -7a 7 7, 0, 0, 0, -7 -7" transform="rotate(0,278,26)"/><path d="M 271 33v 14h 14v -7a 7 7, 0, 0, 0, -7 -7" transform="rotate(180,278,40)"/><rect x="271" y="61" width="14" height="14" transform="rotate(0,278,68)"/><path d="M 271 75v 14h 14v -7a 7 7, 0, 0, 0, -7 -7" transform="rotate(180,278,82)"/><circle cx="278" cy="110" r="7" transform="rotate(0,278,110)"/><path d="M 271 159v 14h 14v -7a 7 7, 0, 0, 0, -7 -7" transform="rotate(-90,278,166)"/><rect x="271" y="173" width="14" height="14" transform="rotate(0,278,180)"/><path d="M 271 243v 14h 14v -7a 7 7, 0, 0, 0, -7 -7" transform="rotate(0,278,250)"/><path d="M 271 257v 14h 7a 7 7, 0, 0, 0, 0 -14" transform="rotate(90,278,264)"/><path d="M 271 299v 14h 14v -7a 7 7, 0, 0, 0, -7 -7" transform="rotate(-90,278,306)"/><path d="M 271 313v 14h 14v -7a 7 7, 0, 0, 0, -7 -7" transform="rotate(180,278,320)"/><path d="M 271 369v 14h 7a 7 7, 0, 0, 0, 0 -14" transform="rotate(0,278,376)"/><path d="M 271 439v 14h 7a 7 7, 0, 0, 0, 0 -14" transform="rotate(-90,278,446)"/><rect x="271" y="453" width="14" height="14" transform="rotate(0,278,460)"/><path d="M 271 467v 14h 14v -7a 7 7, 0, 0, 0, -7 -7" transform="rotate(180,278,474)"/><path d="M 285 33v 14h 7a 7 7, 0, 0, 0, 0 -14" transform="rotate(0,292,40)"/><rect x="285" y="61" width="14" height="14" transform="rotate(0,292,68)"/><rect x="285" y="75" width="14" height="14" transform="rotate(0,292,82)"/><path d="M 285 89v 14h 14v -7a 7 7, 0, 0, 0, -7 -7" transform="rotate(180,292,96)"/><path d="M 285 131v 14h 7a 7 7, 0, 0, 0, 0 -14" transform="rotate(-90,292,138)"/><rect x="285" y="145" width="14" height="14" transform="rotate(0,292,152)"/><rect x="285" y="159" width="14" height="14" transform="rotate(0,292,166)"/><rect x="285" y="173" width="14" height="14" transform="rotate(0,292,180)"/><circle cx="292" cy="208" r="7" transform="rotate(0,292,208)"/><path d="M 285 229v 14h 7a 7 7, 0, 0, 0, 0 -14" transform="rotate(180,292,236)"/><path d="M 285 271v 14h 14v -7a 7 7, 0, 0, 0, -7 -7" transform="rotate(-90,292,278)"/><rect x="285" y="285" width="14" height="14" transform="rotate(0,292,292)"/><rect x="285" y="299" width="14" height="14" transform="rotate(0,292,306)"/><path d="M 285 313v 14h 14v -7a 7 7, 0, 0, 0, -7 -7" transform="rotate(90,292,320)"/><circle cx="292" cy="348" r="7" transform="rotate(0,292,348)"/><path d="M 285 383v 14h 7a 7 7, 0, 0, 0, 0 -14" transform="rotate(-90,292,390)"/><path d="M 285 397v 14h 7a 7 7, 0, 0, 0, 0 -14" transform="rotate(90,292,404)"/><rect x="285" y="453" width="14" height="14" transform="rotate(0,292,460)"/><path d="M 285 467v 14h 14v -7a 7 7, 0, 0, 0, -7 -7" transform="rotate(90,292,474)"/><path d="M 299 47v 14h 7a 7 7, 0, 0, 0, 0 -14" transform="rotate(-90,306,54)"/><rect x="299" y="61" width="14" height="14" transform="rotate(0,306,68)"/><rect x="299" y="75" width="14" height="14" transform="rotate(0,306,82)"/><rect x="299" y="89" width="14" height="14" transform="rotate(0,306,96)"/><rect x="299" y="103" width="14" height="14" transform="rotate(0,306,110)"/><path d="M 299 117v 14h 14v -7a 7 7, 0, 0, 0, -7 -7" transform="rotate(180,306,124)"/><rect x="299" y="173" width="14" height="14" transform="rotate(0,306,180)"/><path d="M 299 215v 14h 14v -7a 7 7, 0, 0, 0, -7 -7" transform="rotate(-90,306,222)"/><rect x="299" y="229" width="14" height="14" transform="rotate(0,306,236)"/><path d="M 299 243v 14h 7a 7 7, 0, 0, 0, 0 -14" transform="rotate(90,306,250)"/><path d="M 299 271v 14h 14v -7a 7 7, 0, 0, 0, -7 -7" transform="rotate(0,306,278)"/><rect x="299" y="285" width="14" height="14" transform="rotate(0,306,292)"/><circle cx="306" cy="334" r="7" transform="rotate(0,306,334)"/><path d="M 299 355v 14h 14v -7a 7 7, 0, 0, 0, -7 -7" transform="rotate(-90,306,362)"/><path d="M 299 369v 14h 7a 7 7, 0, 0, 0, 0 -14" transform="rotate(90,306,376)"/><rect x="299" y="453" width="14" height="14" transform="rotate(0,306,460)"/><path d="M 313 33v 14h 7a 7 7, 0, 0, 0, 0 -14" transform="rotate(180,320,40)"/><path d="M 313 75v 14h 14v -7a 7 7, 0, 0, 0, -7 -7" transform="rotate(0,320,82)"/><rect x="313" y="89" width="14" height="14" transform="rotate(0,320,96)"/><rect x="313" y="117" width="14" height="14" transform="rotate(0,320,124)"/><path d="M 313 131v 14h 7a 7 7, 0, 0, 0, 0 -14" transform="rotate(90,320,138)"/><rect x="313" y="173" width="14" height="14" transform="rotate(0,320,180)"/><path d="M 313 201v 14h 14v -7a 7 7, 0, 0, 0, -7 -7" transform="rotate(-90,320,208)"/><rect x="313" y="215" width="14" height="14" transform="rotate(0,320,222)"/><path d="M 313 229v 14h 14v -7a 7 7, 0, 0, 0, -7 -7" transform="rotate(90,320,236)"/><path d="M 313 285v 14h 14v -7a 7 7, 0, 0, 0, -7 -7" transform="rotate(0,320,292)"/><path d="M 313 299v 14h 14v -7a 7 7, 0, 0, 0, -7 -7" transform="rotate(180,320,306)"/><path d="M 313 355v 14h 7a 7 7, 0, 0, 0, 0 -14" transform="rotate(0,320,362)"/><path d="M 313 383v 14h 7a 7 7, 0, 0, 0, 0 -14" transform="rotate(180,320,390)"/><path d="M 313 453v 14h 14v -7a 7 7, 0, 0, 0, -7 -7" transform="rotate(0,320,460)"/><path d="M 313 467v 14h 14v -7a 7 7, 0, 0, 0, -7 -7" transform="rotate(180,320,474)"/><path d="M 327 19v 14h 7a 7 7, 0, 0, 0, 0 -14" transform="rotate(-90,334,26)"/><rect x="327" y="33" width="14" height="14" transform="rotate(0,334,40)"/><rect x="327" y="89" width="14" height="14" transform="rotate(0,334,96)"/><rect x="327" y="103" width="14" height="14" transform="rotate(0,334,110)"/><path d="M 327 117v 14h 14v -7a 7 7, 0, 0, 0, -7 -7" transform="rotate(90,334,124)"/><path d="M 327 159v 14h 7a 7 7, 0, 0, 0, 0 -14" transform="rotate(-90,334,166)"/><rect x="327" y="173" width="14" height="14" transform="rotate(0,334,180)"/><rect x="327" y="187" width="14" height="14" transform="rotate(0,334,194)"/><path d="M 327 201v 14h 14v -7a 7 7, 0, 0, 0, -7 -7" transform="rotate(90,334,208)"/><path d="M 327 257v 14h 7a 7 7, 0, 0, 0, 0 -14" transform="rotate(-90,334,264)"/><path d="M 327 271v 14h 14v -7a 7 7, 0, 0, 0, -7 -7" transform="rotate(180,334,278)"/><path d="M 327 299v 14h 7a 7 7, 0, 0, 0, 0 -14" transform="rotate(0,334,306)"/><rect x="327" y="383" width="14" height="14" transform="rotate(0,334,390)"/><rect x="327" y="397" width="14" height="14" transform="rotate(0,334,404)"/><rect x="327" y="411" width="14" height="14" transform="rotate(0,334,418)"/><rect x="327" y="425" width="14" height="14" transform="rotate(0,334,432)"/><path d="M 327 439v 14h 7a 7 7, 0, 0, 0, 0 -14" transform="rotate(90,334,446)"/><path d="M 327 467v 14h 7a 7 7, 0, 0, 0, 0 -14" transform="rotate(0,334,474)"/><path d="M 341 33v 14h 7a 7 7, 0, 0, 0, 0 -14" transform="rotate(0,348,40)"/><path d="M 341 61v 14h 7a 7 7, 0, 0, 0, 0 -14" transform="rotate(180,348,68)"/><path d="M 341 89v 14h 7a 7 7, 0, 0, 0, 0 -14" transform="rotate(0,348,96)"/><path d="M 341 145v 14h 7a 7 7, 0, 0, 0, 0 -14" transform="rotate(180,348,152)"/><rect x="341" y="187" width="14" height="14" transform="rotate(0,348,194)"/><path d="M 341 215v 14h 7a 7 7, 0, 0, 0, 0 -14" transform="rotate(-90,348,222)"/><path d="M 341 229v 14h 14v -7a 7 7, 0, 0, 0, -7 -7" transform="rotate(180,348,236)"/><path d="M 341 271v 14h 7a 7 7, 0, 0, 0, 0 -14" transform="rotate(0,348,278)"/><path d="M 341 313v 14h 14v -7a 7 7, 0, 0, 0, -7 -7" transform="rotate(-90,348,320)"/><path d="M 341 327v 14h 7a 7 7, 0, 0, 0, 0 -14" transform="rotate(90,348,334)"/><path d="M 341 369v 14h 14v -7a 7 7, 0, 0, 0, -7 -7" transform="rotate(-90,348,376)"/><rect x="341" y="383" width="14" height="14" transform="rotate(0,348,390)"/><rect x="341" y="411" width="14" height="14" transform="rotate(0,348,418)"/><rect x="341" y="425" width="14" height="14" transform="rotate(0,348,432)"/><circle cx="362" cy="26" r="7" transform="rotate(0,362,26)"/><path d="M 355 61v 14h 7a 7 7, 0, 0, 0, 0 -14" transform="rotate(0,362,68)"/><circle cx="362" cy="110" r="7" transform="rotate(0,362,110)"/><path d="M 355 145v 14h 14v -7a 7 7, 0, 0, 0, -7 -7" transform="rotate(0,362,152)"/><path d="M 355 159v 14h 7a 7 7, 0, 0, 0, 0 -14" transform="rotate(90,362,166)"/><rect x="355" y="187" width="14" height="14" transform="rotate(0,362,194)"/><path d="M 355 201v 14h 7a 7 7, 0, 0, 0, 0 -14" transform="rotate(90,362,208)"/><path d="M 355 229v 14h 14v -7a 7 7, 0, 0, 0, -7 -7" transform="rotate(0,362,236)"/><path d="M 355 243v 14h 7a 7 7, 0, 0, 0, 0 -14" transform="rotate(90,362,250)"/><path d="M 355 285v 14h 14v -7a 7 7, 0, 0, 0, -7 -7" transform="rotate(-90,362,292)"/><rect x="355" y="299" width="14" height="14" transform="rotate(0,362,306)"/><path d="M 355 313v 14h 14v -7a 7 7, 0, 0, 0, -7 -7" transform="rotate(90,362,320)"/><path d="M 355 355v 14h 14v -7a 7 7, 0, 0, 0, -7 -7" transform="rotate(-90,362,362)"/><rect x="355" y="369" width="14" height="14" transform="rotate(0,362,376)"/><rect x="355" y="383" width="14" height="14" transform="rotate(0,362,390)"/><rect x="355" y="397" width="14" height="14" transform="rotate(0,362,404)"/><rect x="355" y="411" width="14" height="14" transform="rotate(0,362,418)"/><rect x="355" y="425" width="14" height="14" transform="rotate(0,362,432)"/><path d="M 355 453v 14h 7a 7 7, 0, 0, 0, 0 -14" transform="rotate(-90,362,460)"/><path d="M 355 467v 14h 14v -7a 7 7, 0, 0, 0, -7 -7" transform="rotate(180,362,474)"/><path d="M 369 131v 14h 7a 7 7, 0, 0, 0, 0 -14" transform="rotate(180,376,138)"/><path d="M 369 187v 14h 7a 7 7, 0, 0, 0, 0 -14" transform="rotate(0,376,194)"/><path d="M 369 215v 14h 7a 7 7, 0, 0, 0, 0 -14" transform="rotate(180,376,222)"/><path d="M 369 257v 14h 7a 7 7, 0, 0, 0, 0 -14" transform="rotate(-90,376,264)"/><rect x="369" y="271" width="14" height="14" transform="rotate(0,376,278)"/><path d="M 369 285v 14h 14v -7a 7 7, 0, 0, 0, -7 -7" transform="rotate(90,376,292)"/><path d="M 369 327v 14h 7a 7 7, 0, 0, 0, 0 -14" transform="rotate(-90,376,334)"/><rect x="369" y="341" width="14" height="14" transform="rotate(0,376,348)"/><rect x="369" y="355" width="14" height="14" transform="rotate(0,376,362)"/><rect x="369" y="411" width="14" height="14" transform="rotate(0,376,418)"/><rect x="369" y="425" width="14" height="14" transform="rotate(0,376,432)"/><path d="M 369 467v 14h 7a 7 7, 0, 0, 0, 0 -14" transform="rotate(0,376,474)"/><rect x="383" y="131" width="14" height="14" transform="rotate(0,390,138)"/><rect x="383" y="145" width="14" height="14" transform="rotate(0,390,152)"/><path d="M 383 159v 14h 7a 7 7, 0, 0, 0, 0 -14" transform="rotate(90,390,166)"/><path d="M 383 201v 14h 14v -7a 7 7, 0, 0, 0, -7 -7" transform="rotate(-90,390,208)"/><rect x="383" y="215" width="14" height="14" transform="rotate(0,390,222)"/><path d="M 383 243v 14h 7a 7 7, 0, 0, 0, 0 -14" transform="rotate(180,390,250)"/><path d="M 383 299v 14h 14v -7a 7 7, 0, 0, 0, -7 -7" transform="rotate(-90,390,306)"/><path d="M 383 313v 14h 7a 7 7, 0, 0, 0, 0 -14" transform="rotate(90,390,320)"/><rect x="383" y="355" width="14" height="14" transform="rotate(0,390,362)"/><circle cx="390" cy="390" r="7" transform="rotate(0,390,390)"/><rect x="383" y="411" width="14" height="14" transform="rotate(0,390,418)"/><rect x="383" y="425" width="14" height="14" transform="rotate(0,390,432)"/><rect x="383" y="439" width="14" height="14" transform="rotate(0,390,446)"/><path d="M 383 453v 14h 7a 7 7, 0, 0, 0, 0 -14" transform="rotate(90,390,460)"/><path d="M 397 131v 14h 14v -7a 7 7, 0, 0, 0, -7 -7" transform="rotate(0,404,138)"/><path d="M 397 145v 14h 14v -7a 7 7, 0, 0, 0, -7 -7" transform="rotate(90,404,152)"/><path d="M 397 187v 14h 14v -7a 7 7, 0, 0, 0, -7 -7" transform="rotate(-90,404,194)"/><rect x="397" y="201" width="14" height="14" transform="rotate(0,404,208)"/><rect x="397" y="215" width="14" height="14" transform="rotate(0,404,222)"/><rect x="397" y="243" width="14" height="14" transform="rotate(0,404,250)"/><circle cx="404" cy="278" r="7" transform="rotate(0,404,278)"/><path d="M 397 299v 14h 7a 7 7, 0, 0, 0, 0 -14" transform="rotate(0,404,306)"/><rect x="397" y="355" width="14" height="14" transform="rotate(0,404,362)"/><rect x="397" y="411" width="14" height="14" transform="rotate(0,404,418)"/><circle cx="404" cy="474" r="7" transform="rotate(0,404,474)"/><rect x="411" y="187" width="14" height="14" transform="rotate(0,418,194)"/><path d="M 411 215v 14h 7a 7 7, 0, 0, 0, 0 -14" transform="rotate(0,418,222)"/><rect x="411" y="243" width="14" height="14" transform="rotate(0,418,250)"/><path d="M 411 257v 14h 7a 7 7, 0, 0, 0, 0 -14" transform="rotate(90,418,264)"/><path d="M 411 285v 14h 7a 7 7, 0, 0, 0, 0 -14" transform="rotate(180,418,292)"/><circle cx="418" cy="334" r="7" transform="rotate(0,418,334)"/><path d="M 411 355v 14h 14v -7a 7 7, 0, 0, 0, -7 -7" transform="rotate(0,418,362)"/><rect x="411" y="369" width="14" height="14" transform="rotate(0,418,376)"/><rect x="411" y="383" width="14" height="14" transform="rotate(0,418,390)"/><rect x="411" y="397" width="14" height="14" transform="rotate(0,418,404)"/><rect x="411" y="411" width="14" height="14" transform="rotate(0,418,418)"/><path d="M 411 425v 14h 7a 7 7, 0, 0, 0, 0 -14" transform="rotate(90,418,432)"/><circle cx="432" cy="138" r="7" transform="rotate(0,432,138)"/><path d="M 425 173v 14h 14v -7a 7 7, 0, 0, 0, -7 -7" transform="rotate(-90,432,180)"/><path d="M 425 187v 14h 14v -7a 7 7, 0, 0, 0, -7 -7" transform="rotate(90,432,194)"/><path d="M 425 229v 14h 7a 7 7, 0, 0, 0, 0 -14" transform="rotate(-90,432,236)"/><path d="M 425 243v 14h 14v -7a 7 7, 0, 0, 0, -7 -7" transform="rotate(90,432,250)"/><path d="M 425 285v 14h 14v -7a 7 7, 0, 0, 0, -7 -7" transform="rotate(0,432,292)"/><path d="M 425 299v 14h 7a 7 7, 0, 0, 0, 0 -14" transform="rotate(90,432,306)"/><path d="M 425 383v 14h 7a 7 7, 0, 0, 0, 0 -14" transform="rotate(0,432,390)"/><rect x="425" y="411" width="14" height="14" transform="rotate(0,432,418)"/><circle cx="432" cy="460" r="7" transform="rotate(0,432,460)"/><circle cx="446" cy="152" r="7" transform="rotate(0,446,152)"/><rect x="439" y="173" width="14" height="14" transform="rotate(0,446,180)"/><path d="M 439 201v 14h 7a 7 7, 0, 0, 0, 0 -14" transform="rotate(-90,446,208)"/><path d="M 439 215v 14h 14v -7a 7 7, 0, 0, 0, -7 -7" transform="rotate(180,446,222)"/><path d="M 439 313v 14h 7a 7 7, 0, 0, 0, 0 -14" transform="rotate(180,446,320)"/><path d="M 439 341v 14h 7a 7 7, 0, 0, 0, 0 -14" transform="rotate(180,446,348)"/><path d="M 439 411v 14h 14v -7a 7 7, 0, 0, 0, -7 -7" transform="rotate(0,446,418)"/><path d="M 439 425v 14h 14v -7a 7 7, 0, 0, 0, -7 -7" transform="rotate(180,446,432)"/><circle cx="446" cy="474" r="7" transform="rotate(0,446,474)"/><circle cx="460" cy="138" r="7" transform="rotate(0,460,138)"/><rect x="453" y="173" width="14" height="14" transform="rotate(0,460,180)"/><path d="M 453 187v 14h 14v -7a 7 7, 0, 0, 0, -7 -7" transform="rotate(180,460,194)"/><rect x="453" y="215" width="14" height="14" transform="rotate(0,460,222)"/><path d="M 453 243v 14h 7a 7 7, 0, 0, 0, 0 -14" transform="rotate(-90,460,250)"/><path d="M 453 257v 14h 14v -7a 7 7, 0, 0, 0, -7 -7" transform="rotate(180,460,264)"/><rect x="453" y="313" width="14" height="14" transform="rotate(0,460,320)"/><rect x="453" y="327" width="14" height="14" transform="rotate(0,460,334)"/><rect x="453" y="341" width="14" height="14" transform="rotate(0,460,348)"/><path d="M 453 355v 14h 14v -7a 7 7, 0, 0, 0, -7 -7" transform="rotate(180,460,362)"/><rect x="453" y="425" width="14" height="14" transform="rotate(0,460,432)"/><circle cx="474" cy="152" r="7" transform="rotate(0,474,152)"/><path d="M 467 173v 14h 14v -7a 7 7, 0, 0, 0, -7 -7" transform="rotate(0,474,180)"/><path d="M 467 187v 14h 14v -7a 7 7, 0, 0, 0, -7 -7" transform="rotate(90,474,194)"/><path d="M 467 215v 14h 7a 7 7, 0, 0, 0, 0 -14" transform="rotate(0,474,222)"/><path d="M 467 257v 14h 7a 7 7, 0, 0, 0, 0 -14" transform="rotate(0,474,264)"/><path d="M 467 313v 14h 7a 7 7, 0, 0, 0, 0 -14" transform="rotate(0,474,320)"/><path d="M 467 355v 14h 14v -7a 7 7, 0, 0, 0, -7 -7" transform="rotate(0,474,362)"/><rect x="467" y="369" width="14" height="14" transform="rotate(0,474,376)"/><path d="M 467 383v 14h 7a 7 7, 0, 0, 0, 0 -14" transform="rotate(90,474,390)"/><path d="M 467 411v 14h 7a 7 7, 0, 0, 0, 0 -14" transform="rotate(-90,474,418)"/><path d="M 467 425v 14h 14v -7a 7 7, 0, 0, 0, -7 -7" transform="rotate(90,474,432)"/><circle cx="474" cy="460" r="7" transform="rotate(0,474,460)"/></clipPath><clipPath id="clip-path-corners-square-color-0-0"><path clip-rule="evenodd" d="M 19 19v 98h 98v -98zM 33 33h 70v 70h -70z" transform="rotate(0,68,68)"/></clipPath><clipPath id="clip-path-corners-dot-color-0-0"><rect x="47" y="47" width="42" height="42" transform="rotate(0,68,68)"/></clipPath><clipPath id="clip-path-corners-square-color-1-0"><path clip-rule="evenodd" d="M 383 19v 98h 98v -98zM 397 33h 70v 70h -70z" transform="rotate(90,432,68)"/></clipPath><clipPath id="clip-path-corners-dot-color-1-0"><rect x="411" y="47" width="42" height="42" transform="rotate(90,432,68)"/></clipPath><clipPath id="clip-path-corners-square-color-0-1"><path clip-rule="evenodd" d="M 19 383v 98h 98v -98zM 33 397h 70v 70h -70z" transform="rotate(-90,68,432)"/></clipPath><clipPath id="clip-path-corners-dot-color-0-1"><rect x="47" y="411" width="42" height="42" transform="rotate(-90,68,432)"/></clipPath></defs><rect x="0" y="0" height="500" width="500" clip-path="url('#clip-path-background-color')" fill="#fff"/><rect x="0" y="0" height="500" width="500" clip-path="url('#clip-path-dot-color')" fill="#18417E"/><rect x="19" y="19" height="98" width="98" clip-path="url('#clip-path-corners-square-color-0-0')" fill="#18417E"/><rect x="47" y="47" height="42" width="42" clip-path="url('#clip-path-corners-dot-color-0-0')" fill="#18417E"/><rect x="383" y="19" height="98" width="98" clip-path="url('#clip-path-corners-square-color-1-0')" fill="#18417E"/><rect x="411" y="47" height="42" width="42" clip-path="url('#clip-path-corners-dot-color-1-0')" fill="#18417E"/><rect x="19" y="383" height="98" width="98" clip-path="url('#clip-path-corners-square-color-0-1')" fill="#18417E"/><rect x="47" y="411" height="42" width="42" clip-path="url('#clip-path-corners-dot-color-0-1')" fill="#18417E"/></svg>