<svg class="animated" id="freepik_stories-deconstructed" xmlns="http://www.w3.org/2000/svg" viewBox="0 0 500 500" version="1.1" xmlns:xlink="http://www.w3.org/1999/xlink" xmlns:svgjs="http://svgjs.com/svgjs"><style>svg#freepik_stories-deconstructed:not(.animated) .animable {opacity: 0;}svg#freepik_stories-deconstructed.animated #freepik--background-complete--inject-85 {animation: 1s 1 forwards cubic-bezier(.36,-0.01,.5,1.38) slideDown;animation-delay: 1.1s;opacity: 0}svg#freepik_stories-deconstructed.animated #freepik--Shadow--inject-85 {animation: 1s 1 forwards cubic-bezier(.36,-0.01,.5,1.38) fadeIn;animation-delay: 0.7s;opacity: 0}svg#freepik_stories-deconstructed.animated #freepik--Plant--inject-85 {animation: 1s 1 forwards cubic-bezier(.36,-0.01,.5,1.38) fadeIn;animation-delay: 0.8s;opacity: 0}svg#freepik_stories-deconstructed.animated #freepik--Character--inject-85 {animation: 1s 1 forwards cubic-bezier(.36,-0.01,.5,1.38) slideDown;animation-delay: 0s;}svg#freepik_stories-deconstructed.animated #freepik--Cube--inject-85 {animation: 1s 1 forwards cubic-bezier(.36,-0.01,.5,1.38) slideDown;animation-delay: 0.3s;opacity: 0}            @keyframes slideDown {                0% {                    opacity: 0;                    transform: translateY(-30px);                }                100% {                    opacity: 1;                    transform: translateY(0);                }            }                    @keyframes fadeIn {                0% {                    opacity: 0;                }                100% {                    opacity: 1;                }            }        </style><g id="freepik--background-complete--inject-85" style="transform-origin: 249.885px 231.085px 0px;" class="animable"><path d="M87.59,310.87l-13.12.28-6.66.11c-2.23.05-4.47,0-6.7.06h-.44v-.45l-.06-11.19v-.5h.5l13.24.06c4.42,0,8.83.12,13.24.17h.28v.27c0,1.9-.09,3.79-.13,5.65Zm0,0-.14-5.65c0-1.87-.11-3.71-.13-5.54l.27.27c-4.41.06-8.82.16-13.24.17l-13.24.06.5-.5,0,11.19-.45-.44c2.18,0,4.36,0,6.55.05l6.58.11Z" style="fill: rgb(235, 235, 235); transform-origin: 74.24px 305.25px 0px;" id="el2szlqne705c" class="animable"></path><path d="M72.82,325l-13.12.28-6.66.11c-2.23.05-4.47,0-6.7.06H45.9V325l-.06-11.19v-.5h.5l13.24.06c4.41,0,8.83.12,13.24.17h.28v.27c0,1.9-.08,3.79-.13,5.65Zm0,0-.14-5.65c-.05-1.87-.11-3.71-.13-5.54l.27.27c-4.41.05-8.83.16-13.24.17l-13.24.06.5-.5L46.79,325l-.45-.45c2.18,0,4.36,0,6.55.06l6.58.11Z" style="fill: rgb(235, 235, 235); transform-origin: 59.47px 319.38px 0px;" id="elqjop4drnc4d" class="animable"></path><path d="M363.7,398.16l-13.12.28-6.66.12c-2.23,0-4.47,0-6.7.05h-.44v-.45L336.72,387v-.5h.5l13.24.06c4.42,0,8.83.11,13.24.16H364V387c0,1.9-.08,3.79-.13,5.66Zm0,0-.14-5.65c0-1.86-.11-3.7-.13-5.54l.27.28c-4.41.05-8.82.16-13.24.16l-13.24.06.5-.5-.05,11.19-.45-.44c2.18,0,4.36,0,6.55,0l6.58.12Z" style="fill: rgb(235, 235, 235); transform-origin: 350.36px 392.555px 0px;" id="elis2iyseryw" class="animable"></path><path d="M333.86,398.16l-13.13.28-6.66.12c-2.22,0-4.46,0-6.69.05h-.45v-.45L306.88,387v-.5h.51l13.24.06c4.41,0,8.82.11,13.24.16h.27V387c0,1.9-.09,3.79-.13,5.66Zm0,0-.15-5.65c0-1.86-.11-3.7-.13-5.54l.28.28c-4.42.05-8.83.16-13.24.16l-13.24.06.5-.5-.06,11.19-.44-.44c2.18,0,4.35,0,6.54,0l6.58.12Z" style="fill: rgb(235, 235, 235); transform-origin: 320.51px 392.555px 0px;" id="el48cwekk7orn" class="animable"></path><path d="M348.81,412.27l-13.12.28-6.67.11c-2.22,0-4.46,0-6.69.06h-.44v-.45l-.05-11.19v-.5h.5l13.24.06c4.41,0,8.83.11,13.24.16h.28v.27c0,1.9-.08,3.79-.13,5.66Zm0,0-.14-5.65c-.05-1.86-.11-3.7-.13-5.54l.27.28c-4.41.05-8.83.16-13.24.16l-13.24.06.5-.5-.05,11.19-.45-.44c2.18,0,4.36,0,6.55.05l6.57.12Z" style="fill: rgb(235, 235, 235); transform-origin: 335.47px 406.65px 0px;" id="el5921twi4skd" class="animable"></path><path d="M453.66,325l-13.13.28-6.66.11c-2.22.05-4.46,0-6.69.06h-.45V325l-.05-11.19v-.5h.5l13.24.06c4.41,0,8.83.12,13.24.17h.27v.27c0,1.9-.08,3.79-.13,5.65Zm0,0-.14-5.65c0-1.87-.12-3.71-.13-5.54l.27.27c-4.41.05-8.83.16-13.24.17l-13.24.06.5-.5L427.62,325l-.44-.45c2.18,0,4.36,0,6.54.06l6.58.11Z" style="fill: rgb(235, 235, 235); transform-origin: 440.305px 319.38px 0px;" id="eljei4ze8newq" class="animable"></path><path d="M438.89,61.14l-13.13.28-6.66.11c-2.22,0-4.46,0-6.69.06H412v-.45l0-11.19v-.5h.51l13.24.06c4.41,0,8.82.12,13.24.17h.27V50c0,1.9-.09,3.79-.13,5.66Zm0,0-.14-5.65c-.05-1.87-.12-3.71-.14-5.54l.28.27c-4.42.06-8.83.16-13.24.17l-13.24.06.5-.5-.06,11.19-.44-.44c2.18,0,4.35,0,6.54,0l6.58.11Z" style="fill: rgb(235, 235, 235); transform-origin: 425.63px 55.52px 0px;" id="el1ylbcuan8cr" class="animable"></path><path d="M453.66,75.25l-13.13.28-6.66.11c-2.22,0-4.46,0-6.69.06h-.45v-.45l-.05-11.19v-.5h.5l13.24.06c4.41,0,8.83.12,13.24.17h.27v.27c0,1.9-.08,3.79-.13,5.66Zm0,0-.14-5.65c0-1.87-.12-3.71-.13-5.54l.27.27c-4.41.06-8.83.16-13.24.17l-13.24.06.5-.5-.06,11.19-.44-.44c2.18,0,4.36,0,6.54,0l6.58.11Z" style="fill: rgb(235, 235, 235); transform-origin: 440.305px 69.63px 0px;" id="eloraogb7jb6p" class="animable"></path><path d="M87.59,61.14l-13.12.28-6.66.11c-2.23,0-4.47,0-6.7.06h-.44v-.45L60.61,50v-.5h.5l13.24.06c4.42,0,8.83.12,13.24.17h.28V50c0,1.9-.09,3.79-.13,5.66Zm0,0-.14-5.65c0-1.87-.11-3.71-.13-5.54l.27.27c-4.41.06-8.82.16-13.24.17l-13.24.06.5-.5,0,11.19-.45-.44c2.18,0,4.36,0,6.55,0l6.58.11Z" style="fill: rgb(235, 235, 235); transform-origin: 74.24px 55.545px 0px;" id="elaleuiwabkxr" class="animable"></path><path d="M265.39,108.39l-13.13.28-6.66.11c-2.23,0-4.46,0-6.69.06h-.45v-.45l-.05-11.19v-.5h.51l13.24.07c4.41,0,8.82.11,13.24.16h.27v.27c0,1.9-.09,3.79-.13,5.66Zm0,0-.15-5.65c0-1.87-.11-3.71-.13-5.54l.28.27c-4.42.06-8.83.16-13.24.17l-13.24.06.49-.5-.05,11.19-.44-.44c2.18,0,4.35,0,6.54,0l6.58.11Z" style="fill: rgb(235, 235, 235); transform-origin: 252.04px 102.77px 0px;" id="elrgwgi4uevw" class="animable"></path><g id="eld25dc3tqhfh"><rect x="73.64" y="180.68" width="44.07" height="44.07" style="fill: rgb(219, 219, 219); transform-origin: 95.675px 202.715px 0px; transform: rotate(90deg);" class="animable"></rect></g><g id="elkqbjdv3cok"><rect x="80.47" y="187.52" width="30.4" height="30.4" style="fill: rgb(255, 255, 255); transform-origin: 95.67px 202.72px 0px; transform: rotate(90deg);" class="animable"></rect></g><polygon points="110.88 187.52 80.47 187.52 80.47 217.92 110.88 187.52" style="fill: rgb(235, 235, 235); transform-origin: 95.675px 202.72px 0px;" id="elqkd83uv22vp" class="animable"></polygon><g id="elbgzv83qf77w"><rect x="69.33" y="180.68" width="4.31" height="44.07" style="fill: rgb(199, 199, 199); transform-origin: 71.485px 202.715px 0px; transform: rotate(180deg);" class="animable"></rect></g><g id="elv6zsccy2pg8"><rect x="128.2" y="180.68" width="44.07" height="44.07" style="fill: rgb(219, 219, 219); transform-origin: 150.235px 202.715px 0px; transform: rotate(90deg);" class="animable"></rect></g><g id="ellr1f7z7cex"><rect x="135.03" y="187.52" width="30.4" height="30.4" style="fill: rgb(255, 255, 255); transform-origin: 150.23px 202.72px 0px; transform: rotate(90deg);" class="animable"></rect></g><polygon points="156.5 187.52 135.03 187.52 135.03 208.99 156.5 187.52" style="fill: rgb(235, 235, 235); transform-origin: 145.765px 198.255px 0px;" id="elttdfgtgxt0a" class="animable"></polygon><g id="elvexjf894w5"><rect x="123.89" y="180.68" width="4.31" height="44.07" style="fill: rgb(199, 199, 199); transform-origin: 126.045px 202.715px 0px; transform: rotate(180deg);" class="animable"></rect></g><g id="elcjpibvi8fns"><rect x="94.16" y="214.79" width="57.59" height="98.62" style="fill: rgb(219, 219, 219); transform-origin: 122.955px 264.1px 0px; transform: rotate(90deg);" class="animable"></rect></g><g id="el0a4trdfxbd5u"><rect x="101.28" y="221.99" width="43.35" height="84.23" style="fill: rgb(255, 255, 255); transform-origin: 122.955px 264.105px 0px; transform: rotate(90deg);" class="animable"></rect></g><polygon points="136.05 242.42 80.84 242.42 80.84 270.84 136.05 242.42" style="fill: rgb(235, 235, 235); transform-origin: 108.445px 256.63px 0px;" id="elexc3herk7kt" class="animable"></polygon><g id="el4tg4es4z7mv"><rect x="69.33" y="235.3" width="4.31" height="57.59" style="fill: rgb(199, 199, 199); transform-origin: 71.485px 264.095px 0px; transform: rotate(180deg);" class="animable"></rect></g><g id="eli1n4isqeush"><rect x="73.64" y="71.78" width="98.62" height="98.62" style="fill: rgb(219, 219, 219); transform-origin: 122.95px 121.09px 0px; transform: rotate(90deg);" class="animable"></rect></g><rect x="80.84" y="78.98" width="84.23" height="84.22" style="fill: rgb(255, 255, 255); transform-origin: 122.955px 121.09px 0px;" id="elzo8ah7doeo8" class="animable"></rect><path d="M80.84,139.62c12.8-12.73,49.08-48.83,60.74-60.64H80.84Z" style="fill: rgb(235, 235, 235); transform-origin: 111.21px 109.3px 0px;" id="elw1zx6rqhv9i" class="animable"></path><g id="elfhammm7gfhs"><rect x="69.33" y="71.78" width="4.31" height="98.62" style="fill: rgb(199, 199, 199); transform-origin: 71.485px 121.09px 0px; transform: rotate(180deg);" class="animable"></rect></g></g><g id="freepik--Shadow--inject-85" style="transform-origin: 369.195px 454.155px 0px;" class="animable animator-active"><path d="M441,454.15c0,4.35-32.15,7.87-71.81,7.87s-71.8-3.52-71.8-7.87,32.15-7.86,71.8-7.86S441,449.81,441,454.15Z" style="fill: rgb(235, 235, 235); transform-origin: 369.195px 454.155px 0px;" id="ele6pbtiz2w9" class="animable"></path></g><g id="freepik--Plant--inject-85" style="transform-origin: 178.531px 387.052px 0px;" class="animable"><path d="M99.72,389.94c-5.71.2-12.08.52-16.81-3.18-4.37-3.42-8.27-8.52-7.69-14.37.17-1.67.55-2.7,2.34-2,2.72,1.08,4.82,4.09,6.71,6.2a58.61,58.61,0,0,0,7.92,7.51c2,1.56,4.23,2.91,6.3,4.42.26.18.52.37.77.57l.3.22h.16a.28.28,0,0,1,.24.12.32.32,0,0,1-.24.48Z" style="fill: rgb(69, 90, 100); transform-origin: 87.5833px 380.108px 0px;" id="el5i9u5ubdfmy" class="animable"></path><path d="M100,389.56c-5-.09-10.44.14-14.46-3.27a23.51,23.51,0,0,1-4.66-5.66c-.58-.95-2.32-3.77-1.6-4.89,1.31-2,7.29,6.24,8.12,7a24.6,24.6,0,0,0,11.09,5.76c.26.18.52.37.77.57a27.25,27.25,0,0,1-8.32-3.2c-3.57-2.12-5.55-5.26-8.34-8.2-.6-.64-2.42-2.77-3.1-1.44-.45.87,1.23,3.63,1.59,4.22a23.13,23.13,0,0,0,4.41,5.39c4,3.5,9.4,3.37,14.46,3.58A.3.3,0,0,1,100,389.56Z" style="fill: rgb(255, 255, 255); transform-origin: 89.5541px 382.494px 0px;" id="el8rp33fksyca" class="animable"></path><path d="M102.87,393.42c-.05.22-.09.44-.14.66v0a.15.15,0,0,1-.1.12.25.25,0,0,1-.3-.12.15.15,0,0,1,0-.13l0-.09.06-.2h0s0-.05,0-.07c-1-3.78-1.4-7.71-2.47-11.49-1-3.61-2.28-7.15-3-10.83-.46-2.33-2.07-14,3.06-12.53,2.28.65,3.84,3.94,4.7,5.91a23.89,23.89,0,0,1,1.89,8.37C106.91,380.14,104.31,386.61,102.87,393.42Z" style="fill: rgb(69, 90, 100); transform-origin: 101.458px 376.413px 0px;" id="elxhy5cpx9x6" class="animable"></path><path d="M104.51,378.91a27.73,27.73,0,0,0-.82-7.91c-.23-.89-1.34-5.18-2.8-5.07-.94.06-1.09,1.91-1.17,2.52-.33,2.59.51,5.24,1,7.77a106,106,0,0,1,1.89,15.56c0,.33-.1.67-.13,1s-.07.55-.11.83a2.4,2.4,0,0,0,0,.28l0,.22a.24.24,0,0,0,.3.12l.09-.64c0,.18,0,.34,0,.52v0c0-.18.08-.36.11-.54l0-.12c0-.29,0-.58,0-.87A114.36,114.36,0,0,0,104.51,378.91Zm-1.73,11.77c-.14-3.06-.44-6.11-.88-9.13-.34-2.45-.8-4.86-1.32-7.27a25.17,25.17,0,0,1-.65-4.13c-.05-1.06.1-5,2.13-2.56,1.46,1.77,1.82,5.54,2,7.71a38.84,38.84,0,0,1-.14,7.23C103.64,385.26,103.19,388,102.78,390.68Z" style="fill: rgb(255, 255, 255); transform-origin: 102.089px 380.087px 0px;" id="ellkwftok3aa7" class="animable"></path><path d="M106,409.09h0l-.21,0c-5.22-.26-12.18.23-16.52-3.23-3.21-2.55-6.36-7.6-5.35-11.87,1.15-4.83,7.67,1,9.39,2.36a159.59,159.59,0,0,1,12.8,12.45l.07.09v0C106.17,409,106.06,409.07,106,409.09Z" style="fill: rgb(69, 90, 100); transform-origin: 94.954px 400.599px 0px;" id="elg1nt36apu5b" class="animable"></path><path d="M106.13,408.94l-.91-.56c-3.43-2.16-6.78-4.48-10-6.95-.82-.62-6.7-5.85-7.58-4-.53,1.13,1.4,3.43,2,4.21a16.37,16.37,0,0,0,4,3.55c3.48,2.17,7.7,2.63,11.64,3.68a5.09,5.09,0,0,1,.56.14.27.27,0,0,0,.1.06h0C106.06,409.07,106.17,409,106.13,408.94Zm-10.34-3a16.33,16.33,0,0,1-4.5-3.05c-.88-.83-4-4-3.15-5.24.44-.68.8-.32,1.63.09a10.28,10.28,0,0,1,1.11.64c.88.57,1.68,1.24,2.5,1.89,1.43,1.15,2.88,2.26,4.37,3.34,2.43,1.77,4.92,3.43,7.47,5C102.09,407.69,98.78,407.31,95.79,406Z" style="fill: rgb(255, 255, 255); transform-origin: 96.8436px 403.053px 0px;" id="elrbl32rbvl1e" class="animable"></path><path d="M115.49,398.33A31,31,0,0,1,106.54,414l-.1.06a.26.26,0,0,1-.27-.1.22.22,0,0,1,0-.3l.26-.27c.87-7.1,1.82-14.16,2.55-21.28.17-1.68,1.49-12.36,4.77-10.62,2,1.07,2.16,5.45,2.33,7.42A31.26,31.26,0,0,1,115.49,398.33Z" style="fill: rgb(69, 90, 100); transform-origin: 111.157px 397.683px 0px;" id="elud6u7l4kblr" class="animable"></path><path d="M113.59,388.82c-.18-.6-.49-1.21-1.15-.79-1.28.79-1.78,5.82-2,7.21-.88,5.72-2.23,11.23-3.62,16.84-.11.47-.23.94-.34,1.42l-.32.43a.22.22,0,0,0,.27.09,1,1,0,0,1,0-.14l.43-.57h0a36.88,36.88,0,0,0,5.17-10.08,35,35,0,0,0,1.52-7C113.85,394,114.25,391,113.59,388.82Zm-6.7,24.1c-.06.1-.13.18-.2.28q.11-.29.18-.57a104.22,104.22,0,0,0,3.2-13c.38-2.24.62-4.5,1.08-6.72.19-.94.65-3.62,1.43-4.05s.76.61.84,1.21a15,15,0,0,1,.06,1.63A36,36,0,0,1,106.89,412.92Z" style="fill: rgb(255, 255, 255); transform-origin: 110.054px 400.963px 0px;" id="el4dhb413fsou" class="animable"></path><path d="M107.4,429.28h-1c0-.92,0-1.84-.07-2.75-.12-3.71-.27-7.42-.49-11.13-.13-2.12-.28-4.22-.5-6.3a1.49,1.49,0,0,1,0-.21l-.06-.51a5.17,5.17,0,0,0-.07-.55,44.89,44.89,0,0,0-3.58-13.64c-.67-1.44-1.39-2.85-2.16-4.25l-.22-.4a.27.27,0,0,0-.06-.1c-.07-.15-.15-.28-.23-.42s-.11-.2-.18-.31c-2.41-4.25-5.18-8.31-7.8-12.41-.75-1.16-1.5-2.34-2.24-3.52a2.39,2.39,0,0,1-.13-.21,2.33,2.33,0,0,1-.17-.26c-3.29-5.2-6.53-10.44-9.95-15.54-.13-.18.18-.35.3-.17,2.31,3.39,4.7,6.71,7.08,10.06.31.44.62.9.94,1.34.63.88,1.25,1.76,1.87,2.65,1.24,1.77,2.46,3.54,3.66,5.34a149.41,149.41,0,0,1,9.61,15.55c.21.41.4.82.6,1.23l.35.77c.14.3.28.6.41.9a48.1,48.1,0,0,1,3.51,16.45c0,.39.06.79.07,1.19,0,.17,0,.36,0,.55s0,.19,0,.29,0,.25,0,.38h0v.28c0,.34,0,.67,0,1,.15,3.71.25,7.42.33,11.12C107.31,426.91,107.36,428.09,107.4,429.28Z" style="fill: rgb(69, 90, 100); transform-origin: 92.9294px 392.902px 0px;" id="elgwpznho2ygj" class="animable"></path><path d="M76.23,362.07c-2.86-3.84-6.53-11.78-2.32-15.9a4.49,4.49,0,0,1,6-.44c2.23,1.61,3.22,4.65,4,7.17,1.93,6.73,3.21,13.58,5.62,20.18,0,0,.2.56.26.7s-.17.2-.22.06l-.24-.64C84.71,369.9,79.61,366.63,76.23,362.07Z" style="fill: rgb(69, 90, 100); transform-origin: 80.9019px 359.352px 0px;" id="elp2u71gzgvu" class="animable"></path><path d="M89.5,373.09l-.07-.11a48.77,48.77,0,0,1-2.68-5,97.62,97.62,0,0,1-4.11-11c-.46-1.44-2.51-8.51-5-5.69-1.07,1.19-.92,3.29-.75,4.74a17.68,17.68,0,0,0,2.2,6.62c2.26,4.08,5.79,7.17,9.49,9.92l.5.38a1.08,1.08,0,0,1,.11.18l.07.11a.13.13,0,0,0,.06.05.17.17,0,0,0,.23-.09A.22.22,0,0,0,89.5,373.09Zm-1.12-.78a37.79,37.79,0,0,1-8-8.07,20.46,20.46,0,0,1-2.62-5.35,16.26,16.26,0,0,1-.56-2.6,10.92,10.92,0,0,1-.12-2c0-1.45.65-3,1.51-3.19,1.06-.19,1.41.43,2.11,1.65a12.49,12.49,0,0,1,.63,1.27c.47,1.09.83,2.23,1.19,3.35.59,1.87,1.19,3.73,1.87,5.57.45,1.25.93,2.49,1.47,3.7a47.93,47.93,0,0,0,3.13,6.09Z" style="fill: rgb(255, 255, 255); transform-origin: 83.1601px 361.969px 0px;" id="eldl6xv1mouca" class="animable"></path><path d="M257.83,372.82c-.47,3.81-1.2,7.59-2,11.34-.43,2.14-.9,4.27-1.33,6.41-.47,2.35-1.17,4.74-.53,7.12h0a1.29,1.29,0,0,1,0,.33.05.05,0,0,1,0,0,.29.29,0,0,1-.5-.08.75.75,0,0,0,0-.16.1.1,0,0,0,0-.05,9.61,9.61,0,0,1-.82-2,50.4,50.4,0,0,1-1.89-5.51,47.29,47.29,0,0,1-1.85-11.76,40.15,40.15,0,0,1,1.1-10.59c.68-2.76,1.65-6.89,3.71-9,1.87-1.91,3.43,1.15,4,2.71C258.86,365.15,258.28,369.21,257.83,372.82Z" style="fill: rgb(69, 90, 100); transform-origin: 253.638px 378.196px 0px;" id="el8xui5gy9wwc" class="animable"></path><path d="M254.42,364.73c-1.39,0-2.4,4.49-2.9,6.43a38.27,38.27,0,0,0-1.18,9.35,50,50,0,0,0,2.87,16.61c.08.21.15.44.23.65,0,0,0,0,0,.05s0,.1.05.15a.28.28,0,0,0,.49.09c-.09-.47-.16-.93-.21-1.4s-.1-.84-.13-1.26c-.38-4.56.28-9.22.85-13.75C255.2,376.34,256.26,364.74,254.42,364.73Zm-1,31.57c.07.62.17,1.23.28,1.83-.14-.44-.28-.88-.41-1.33a55.37,55.37,0,0,1-2.63-14.65,39.91,39.91,0,0,1,.62-8.38,34.15,34.15,0,0,1,1.08-4.38c.19-.6,1.2-4.36,2.06-4.17.6.13.74,3.51.75,3.58,0,.68,0,1.36,0,2,0,1.4-.12,2.8-.23,4.19-.27,3-.7,6-1.06,9A52.18,52.18,0,0,0,253.42,396.3Z" style="fill: rgb(255, 255, 255); transform-origin: 252.892px 381.45px 0px;" id="ele4951zf13na" class="animable"></path><path d="M279.72,383.35c-2.55,5-6.85,8.79-11.29,12-2.38,1.75-4.84,3.39-7.26,5.08a40.06,40.06,0,0,0-6.26,4.82,3,3,0,0,0-.24.26,10.59,10.59,0,0,0-1.3,1.79.15.15,0,0,1-.12.08,1.45,1.45,0,0,1-.09.22c0,.05-.1,0-.09,0s0-.17,0-.25v0a.15.15,0,0,1,0-.19l0-.08,0-.24c.73-5.82,4.8-11.7,8.24-16.18s7.68-8.44,13-10.49c1.33-.51,4.37-1.93,5.73-.84S280.26,382.29,279.72,383.35Z" style="fill: rgb(69, 90, 100); transform-origin: 266.859px 393.275px 0px;" id="eln21kttaf36d" class="animable"></path><path d="M275.78,383.37c-1.22-1.21-4.79,1.78-5.68,2.48a59.61,59.61,0,0,0-7.38,7.18,53,53,0,0,0-9.43,13.65h0c0,.06-.08.11-.13.16a1.13,1.13,0,0,0,0,.25.35.35,0,0,0,0,.08.18.18,0,0,0,0,.2,1.81,1.81,0,0,1,.18-.21c.44-.55.91-1.08,1.39-1.6l.24-.26c3.32-3.58,7.26-6.6,11-9.75a54.51,54.51,0,0,0,7.35-7.14C273.85,387.74,276.79,384.39,275.78,383.37ZM274.66,386c-3,5-8.23,8.64-12.65,12.28a61,61,0,0,0-8.41,8A56.75,56.75,0,0,1,262.33,394a75.85,75.85,0,0,1,6-6.17,31,31,0,0,1,3.64-2.91,11.88,11.88,0,0,1,2.46-1.33C276.11,383.11,275.17,385.18,274.66,386Z" style="fill: rgb(255, 255, 255); transform-origin: 264.56px 395.227px 0px;" id="el4fxb2sjj2e7" class="animable"></path><path d="M252.56,419.21a.29.29,0,0,1-.26.14l.06.09a.09.09,0,0,1,0,.13.08.08,0,0,1-.12,0c-4.72-4.8-9.27-10.63-11.62-17a26.36,26.36,0,0,1-1.68-8.37c-.05-2-.16-5.9,1.52-7.33,3.37-2.87,6.44,9.3,6.9,11.13.83,3.35,1.38,6.76,2.15,10.11.85,3.68,2,7.29,3.07,10.89A.27.27,0,0,1,252.56,419.21Z" style="fill: rgb(69, 90, 100); transform-origin: 245.755px 403.016px 0px;" id="ellgvvsfb93" class="animable"></path><path d="M252.56,419.2c-.19-.31-.36-.61-.53-.93A56.73,56.73,0,0,1,246,401.92a52,52,0,0,0-2.24-8.51c-.27-.67-1.11-3.27-2.23-2-.57.69-.1,5.6.13,6.87a36.72,36.72,0,0,0,2.74,8.36,59.22,59.22,0,0,0,7.73,12.55l.27.34a.09.09,0,0,0,0-.13l-.06-.08A.33.33,0,0,0,252.56,419.2Zm-6.85-10.45a43,43,0,0,1-3.24-8.11,28.24,28.24,0,0,1-.7-3.41,17.94,17.94,0,0,1-.23-2.72c0-2.22.19-2.8.56-2.88s.55.2,1.21,1.52a15.25,15.25,0,0,1,.94,2.71c.35,1.31.65,2.63.93,3.95.58,2.65,1.12,5.32,1.89,7.91a44,44,0,0,0,4.68,10.63A68.32,68.32,0,0,1,245.71,408.75Z" style="fill: rgb(255, 255, 255); transform-origin: 246.909px 405.298px 0px;" id="elqk2vlaqwp5b" class="animable"></path><path d="M267.69,407.54a16.56,16.56,0,0,1-3.1,6.43c-2.8,3.87-6.38,7.08-9.43,10.74-.46.54-.91,1.1-1.34,1.67,0,.06-.39.87-.39.8s0-.32.16-.84h0c.49-2.56,2.1-10.29,4.1-14.25a34.59,34.59,0,0,1,4.47-7c.87-1,2.9-3.1,4.44-2.64S267.92,406.31,267.69,407.54Z" style="fill: rgb(69, 90, 100); transform-origin: 260.641px 414.785px 0px;" id="elh4qctshh2wv" class="animable"></path><path d="M265.19,406c-1.63-1-5.86,6.52-6.42,7.5A48,48,0,0,0,254,425c-.13.45-.25.9-.36,1.36l-.16.84s.35-.73.4-.8l.22-.3c.36-.46.73-.92,1.1-1.37,1.84-2.74,3.72-5.46,5.5-8.25a43.67,43.67,0,0,0,3.41-6.27C264.27,409.7,265.91,406.42,265.19,406Zm-.46,2.12c-2.33,6.56-7.09,11.73-10.72,17.56a2.68,2.68,0,0,1-.18.28c.06-.17.1-.34.15-.51a54.83,54.83,0,0,1,3.86-9.58,50.1,50.1,0,0,1,3.24-5.4,25.28,25.28,0,0,1,2-2.81c.33-.37,1.3-1.35,1.63-1.19S264.88,407.67,264.73,408.1Z" style="fill: rgb(255, 255, 255); transform-origin: 259.426px 416.554px 0px;" id="elfgcygom9lh" class="animable"></path><path d="M284.13,353.39c-4.86,11.18-17.64,16.39-23.17,27.17l0,.05c-.17.33-.33.66-.48,1a.22.22,0,0,1-.37.06.15.15,0,0,1,0-.18,1.89,1.89,0,0,1,.11-.25c.87-6.72,3.62-13.64,6.84-19.57,2.79-5.16,6.62-10,11.93-12.69,1.3-.67,3.85-2.09,5.32-1S284.73,352,284.13,353.39Z" style="fill: rgb(69, 90, 100); transform-origin: 272.569px 364.664px 0px;" id="el40290763fe6" class="animable"></path><path d="M279.75,353.87c-.62-.46-1.56.09-2.09.37a18.66,18.66,0,0,0-3.69,2.52,31,31,0,0,0-5.89,7,63.74,63.74,0,0,0-6.94,14.07c-.37,1.12-.7,2.25-1,3.41l-.09.42a.23.23,0,0,0,.37-.05c.14-.34.3-.65.46-1a.39.39,0,0,0,0-.09,37.85,37.85,0,0,1,3.47-6.37,89.76,89.76,0,0,1,7.29-8.64C272.7,364.44,281.89,355.43,279.75,353.87Zm-.78,2.58c-1.48,2.63-3.77,4.78-5.77,7s-4.07,4.49-6.05,6.77a42.19,42.19,0,0,0-4.26,5.82,32.81,32.81,0,0,0-2.66,5.38,46,46,0,0,1,1.9-5.59.16.16,0,0,1,0-.07,81.72,81.72,0,0,1,4.72-9.4.67.67,0,0,1,.06-.12,38.68,38.68,0,0,1,5.38-7.51,21.73,21.73,0,0,1,3.84-3.26c1.6-1,3-1.71,3.4-1.2S279.42,355.68,279,356.45Z" style="fill: rgb(255, 255, 255); transform-origin: 270.061px 367.712px 0px;" id="elw6zqbpf27m" class="animable"></path><path d="M267.13,366.49c-1.46,3.16-2.86,6.35-4.24,9.56l-1.94,4.5a.39.39,0,0,1,0,.09l-.7,1.63c-2.11,4.91-4.43,9.93-5.71,15.13a45.81,45.81,0,0,0-1.17,8.4c0,.29,0,.58,0,.88h0c0,.16,0,.32,0,.48a2.44,2.44,0,0,0,0,.27c-.09,2.45-.06,4.91,0,7.3.06,3.34.34,6.65.66,10a1.5,1.5,0,0,0,0,.29c0,.15,0,.3,0,.45l0,.23c0,.14,0,.28,0,.42.1,1.07.2,2.13.29,3.2h-1a67.17,67.17,0,0,1-1.23-9.84,1.55,1.55,0,0,1,0-.21c0-.32,0-.64-.05-1s-.05-.79-.06-1.19c0-1-.06-1.9-.07-2.84-.1-5.46,0-11.14,1.16-16.49l.11-.44c0-.06,0-.13,0-.19s0-.21.08-.32l.13-.5c.08-.3.17-.6.25-.9l.08-.26a107.53,107.53,0,0,1,5.63-13.58c.37-.8.74-1.6,1.12-2.4l.64-1.32,1-2a.16.16,0,0,1,0-.07c1.55-3.14,3.18-6.25,4.72-9.4C267,366.23,267.2,366.34,267.13,366.49Z" style="fill: rgb(69, 90, 100); transform-origin: 259.512px 397.813px 0px;" id="elevahlg1ylyh" class="animable"></path></g><g id="freepik--Table--inject-85" style="transform-origin: 249.995px 429.28px 0px;" class="animable"><polygon points="459.39 429.28 407.05 429.52 354.7 429.61 250 429.78 145.3 429.61 92.95 429.53 40.6 429.28 92.95 429.04 145.3 428.95 250 428.78 354.7 428.95 407.05 429.04 459.39 429.28" style="fill: rgb(38, 50, 56); transform-origin: 249.995px 429.28px 0px;" id="elhuqeeisu90b" class="animable"></polygon></g><g id="freepik--Character--inject-85" style="transform-origin: 253.873px 270.21px 0px;" class="animable"><path d="M254.33,429.28H165.51c-.74-2.86-1.44-5.68-2.15-8.45-.81-3.18-1.61-6.29-2.38-9.32-.17-.67-.35-1.35-.52-2-.58-2.32-1.16-4.58-1.72-6.78l-1-4c-.35-1.33-.68-2.63-1-3.9-.09-.34-.17-.68-.26-1l-.27-1.09c-.11-.45-.23-.88-.34-1.31v0c-.12-.46-.24-.91-.35-1.36-.22-.85-.44-1.7-.64-2.52-.31-1.22-.62-2.41-.91-3.57-.13-.5-.26-1-.38-1.51-.22-.81-.42-1.59-.61-2.37-.14-.52-.26-1-.38-1.52q-.79-3.06-1.47-5.74c-.12-.47-.23-.94-.36-1.39l-.56-2.24c-.12-.45-.24-.88-.34-1.31-.39-1.53-.75-2.93-1.06-4.16-.09-.32-.17-.64-.24-.94-.21-.81-.4-1.53-.56-2.17-.06-.26-.12-.51-.19-.74s-.12-.49-.18-.7-.08-.32-.11-.45-.11-.43-.16-.61,0-.19-.06-.27l-.21-.8h86.46s2.85,9.81,7.41,25.64c.92,3.22,1.92,6.7,3,10.39C247,403.64,250.52,416,254.33,429.28Z" style="fill: rgb(55, 71, 79); transform-origin: 200.715px 393.17px 0px;" id="eldjo5rcuxoq" class="animable"></path><path d="M180.05,429.28h-2.22q-4.94-20.41-9.56-40.9-1.11-5-2.2-10c-.07-.31-.14-.62-.2-.93a.13.13,0,0,1,.26-.07c0,.1.05.2.09.3q1.5,5.35,3,10.73Q174.83,408.79,180.05,429.28Z" style="fill: rgb(38, 50, 56); transform-origin: 172.958px 403.28px 0px;" id="eld2x5cf6cd44" class="animable"></path><path d="M230.76,357.06l-3.82,19.1-3.13,15.67-5.32,26.7-.55,2.73-.91,4.56-.69,3.46H165.49c-.72-2.87-1.44-5.69-2.13-8.45-.81-3.18-1.61-6.29-2.38-9.32-.17-.67-.35-1.35-.52-2-.58-2.32-1.16-4.58-1.72-6.78l-1-4c-.35-1.33-.68-2.63-1-3.9-.09-.34-.17-.68-.26-1l-.27-1.09c-.11-.45-.23-.88-.34-1.31v0c-.12-.46-.24-.91-.35-1.36-.22-.85-.44-1.7-.64-2.52-.31-1.22-.62-2.41-.91-3.57-.14-.52-.26-1-.38-1.51-.22-.81-.42-1.59-.61-2.37-.14-.52-.26-1-.38-1.52q-.79-3.06-1.47-5.74c-.12-.47-.23-.94-.36-1.39l-.56-2.24c-.12-.45-.24-.88-.34-1.31-.39-1.53-.75-2.93-1.06-4.16-.09-.32-.17-.64-.24-.94-.21-.81-.4-1.53-.56-2.17-.06-.26-.12-.51-.19-.74s-.12-.49-.18-.7-.08-.32-.11-.45-.11-.43-.16-.61,0-.19-.06-.27l-.21-.8Z" style="fill: rgb(38, 50, 56); transform-origin: 188.93px 393.17px 0px;" id="elnnxara9hlv" class="animable"></path><path d="M230.77,357v0c0,.47-.36,5.63-1.19,13.49-.24,2.3-.52,4.82-.85,7.52-.51,4.27-1.14,9-1.91,13.95-1.33,8.68-3.06,18.14-5.31,27.4-.8,3.33-1.68,6.63-2.62,9.86l-111.6,0c1.32-17,2.52-32.39,3.48-44.52,1.34-17.06,2.19-27.74,2.19-27.74l101.24,0Z" style="fill: rgb(55, 71, 79); transform-origin: 169.03px 393.09px 0px;" id="el8891nyj5w7w" class="animable"></path><path d="M230.53,367.28c-.12,4-.29,8-.55,12-.27,4.31-.66,8.61-1.23,12.91,0,.16,0,.32-.05.48q-.8,6-1.81,12.05c-.65,3.74-1.12,7.77-2.77,11.22a11,11,0,0,1-2.61,3.53,7.74,7.74,0,0,1-3.57,1.84,4.94,4.94,0,0,1-.67.12h-.19a.24.24,0,0,1,.13.23c-.05,1.34,0,2.7-.16,4,0,.06,0,.11,0,.17-.14,1.16-.35,2.31-.57,3.46h-1.91a.64.64,0,0,1,0-.07c.34-1.26.62-2.53.94-3.81s.76-2.56,1.06-3.88a.38.38,0,0,1,.09-.12,6,6,0,0,1-5.76-3.62,10.33,10.33,0,0,1-.09-5.24c.35-2.29.69-4.57,1-6.86.65-4.19,1.49-8.35,2.24-12.52l.33-1.91c1.5-8.49,3.07-17,5-25.41.06-.35.14-.7.22-1a.21.21,0,0,1,.41.06l-.18,1.7c-.33,3.23-.71,6.45-1.16,9.65-.54,3.78-.91,7.57-1.44,11.34-.18,1.28-.36,2.57-.56,3.85-.86,6.2-1.76,12.4-2.82,18.58-.5,2.87-2.29,8,1.85,8.91a4.27,4.27,0,0,0,2.8-.35,8.86,8.86,0,0,0,3.84-4.85c1.17-3.29,1.58-6.92,2.19-10.34.68-3.78,1.27-7.56,1.8-11.35v0q1-7.1,2.12-14.19.56-3.61,1.14-7.23l.54-3.34C230.16,367,230.53,367,230.53,367.28Z" style="fill: rgb(38, 50, 56); transform-origin: 220.523px 396.997px 0px;" id="el6le1kdtmi2d" class="animable"></path><path d="M131.77,397a56.66,56.66,0,0,0,13.77-1.85c2.07-.54,4.12-1.2,6.16-1.87a16,16,0,0,0,5.55-2.79c3.13-2.7,4.59-6.95,5.95-10.72a101.25,101.25,0,0,0,3.61-13c.05-.22.36-.15.37.06a50.61,50.61,0,0,1-1.87,14.78c-1.12,4.08-2.64,8.64-5.93,11.5-3.47,3-8.18,4.06-12.62,4.61a57.94,57.94,0,0,1-15-.21A.25.25,0,0,1,131.77,397Z" style="fill: rgb(38, 50, 56); transform-origin: 149.351px 382.372px 0px;" id="elbkqyl3ryzub" class="animable"></path><path d="M124,366.83q-.37,9.38-.79,18.75-1,21.85-2.1,43.7h-2.1q1.44-21.9,3-43.77.69-9.35,1.42-18.69A.27.27,0,0,1,124,366.83Z" style="fill: rgb(38, 50, 56); transform-origin: 121.505px 397.91px 0px;" id="elx4tfpfrjpfg" class="animable"></path><path d="M200.77,243.5C214,272,246.72,326.74,268.19,333.67c18.22,5.87,60.31,3.27,72.82,1.68,6.61-.84-9.71-56.32-16.8-55.61-7.27.72-40.6,2.52-45.9,2s-36.78-33.33-56.11-50.47C197.81,209.62,189.92,220.14,200.77,243.5Z" style="fill: rgb(235, 148, 129); transform-origin: 269.278px 278.391px 0px;" id="eleuax18jobrc" class="animable"></path><path d="M332.53,335.6c6.76.18,38.23-1.56,46.75-4s32.54-11.36,31.31-18.08-8.46-4.68-8.46-4.68,9.54-5.36,7.69-12-13-3.11-13-3.11,9.4-6.21,7.08-12.72-12.95-1.06-12.95-1.06,8.86-5.28,4.69-9.83c-5-5.48-20.25,6.11-29.86,8.13-2.19.46-44.92,6.16-44.92,6.16Z" style="fill: rgb(235, 148, 129); transform-origin: 365.748px 302.138px 0px;" id="elng6wtxrb88p" class="animable"></path><path d="M391.86,279.46c-11.23,8.5-17.61,10.27-31.41,11.45-.27,0-.3.43,0,.43,13.63.08,21.95-1,31.87-11.35C392.78,279.48,392.39,279.06,391.86,279.46Z" style="fill: rgb(38, 50, 56); transform-origin: 376.38px 285.322px 0px;" id="el4uc76e9di87" class="animable"></path><path d="M397.69,293c-12.43,7.81-19.34,9.8-33.71,12.09-.2,0-.17.38,0,.36,14.29-1.07,22.57-2.33,34-11.76C398.5,293.27,398.25,292.65,397.69,293Z" style="fill: rgb(38, 50, 56); transform-origin: 381.053px 299.174px 0px;" id="elqhj96l494e" class="animable"></path><path d="M401.39,308.91c-12.58,6.68-20.05,9.19-34.29,9.62a.27.27,0,0,0,0,.53c14.56,1,23.92-2.09,34.47-9.75C402.27,308.79,402.18,308.49,401.39,308.91Z" style="fill: rgb(38, 50, 56); transform-origin: 384.463px 313.977px 0px;" id="elb5tirsf9wa" class="animable"></path><path d="M312,285s11.86-13.06,18.33-17.65,36.9-12.81,39.05-6.34c2.77,8.35-13.86,16.56-22.52,19.51,0,0,6.43,19.32-4.22,27.79S312,285,312,285Z" style="fill: rgb(235, 148, 129); transform-origin: 340.844px 284.183px 0px;" id="el7n0fb1eu96y" class="animable"></path><path d="M369.4,263.5c-3,9.45-14.6,12.59-22.79,16.09a.81.81,0,0,0-.33,1.3c2.15,8.27,2.79,20.57-3.08,27.44a.21.21,0,0,0,.29.29c7.29-6.5,7.66-18.64,4.71-27.56,8.46-3.45,20-7.12,21.29-17.53C369.5,263.47,369.41,263.44,369.4,263.5Z" style="fill: rgb(38, 50, 56); transform-origin: 356.329px 286.06px 0px;" id="elvuz00i5ffm" class="animable"></path><path d="M279.41,278.52c6.53.4,36.56-3,36.56-3l11.52,65s-51.88.31-65.54-7C244.39,324.1,204,261,196.77,236.63c-6.09-20.5-.64-30,25.6-6.79C243.37,248.44,273.77,275.77,279.41,278.52Z" style="fill: rgb(245, 236, 222); transform-origin: 260.999px 278.406px 0px;" id="elcbi3kcezex" class="animable"></path><path d="M240.62,255.07a23.63,23.63,0,0,0-6.85-1.27,24.12,24.12,0,0,0,6.3,3,23.69,23.69,0,0,0,6.85,1.3A24.26,24.26,0,0,0,240.62,255.07Zm68.65,77.59a24,24,0,0,0-6.85-1.26,24.45,24.45,0,0,0,6.3,3,23.36,23.36,0,0,0,6.85,1.29A24.59,24.59,0,0,0,309.27,332.66Zm-18.22-46.44A24,24,0,0,0,284.2,285a24.36,24.36,0,0,0,6.31,3,23.29,23.29,0,0,0,6.85,1.29A24.65,24.65,0,0,0,291.05,286.22Zm-70.13-5.69a24.77,24.77,0,0,0-3.92-5.74,21.44,21.44,0,0,0,1.7,5.24c1.37,2.22,2.76,4.44,4.18,6.64l0,0a4.61,4.61,0,0,0,.37.4A24.33,24.33,0,0,0,220.92,280.53Zm55.88,35a24.77,24.77,0,0,0-3.92-5.74,24.59,24.59,0,0,0,2.32,6.56,23.72,23.72,0,0,0,4,5.74A24.69,24.69,0,0,0,276.8,315.51Zm-25.32-27.09a25.28,25.28,0,0,0-5.77,3.93,24.14,24.14,0,0,0,6.56-2.33A23.38,23.38,0,0,0,258,286.1,23.72,23.72,0,0,0,251.48,288.42Zm62.39,15.06a25.28,25.28,0,0,0-5.77,3.93,24.14,24.14,0,0,0,6.56-2.33,23.38,23.38,0,0,0,5.74-3.92A23.72,23.72,0,0,0,313.87,303.48Zm-94.09-75.89h0l-.68.33a25.78,25.78,0,0,0-5.74,3.93,25.27,25.27,0,0,0,6.56-2.3c.44-.23.87-.47,1.3-.73Z" style="fill: rgb(255, 255, 255); transform-origin: 266.88px 281.65px 0px;" id="elpdz0mat67gm" class="animable"></path><path d="M302.75,282.45c.09,1.67.42,3.34.66,5s.5,3.4.75,5.1c.49,3.44,1,6.88,1.63,10.32,1.15,6.86,2.27,13.72,3.54,20.56.35,1.88.7,3.76,1.1,5.64s1,3.9,1.39,5.87c0,.12.2.07.18-.05-.23-1.71-.32-3.44-.55-5.15s-.48-3.5-.76-5.25q-.82-5.16-1.72-10.3c-1.18-6.74-2.34-13.5-3.66-20.22-.37-1.88-.76-3.75-1.13-5.63s-.68-4-1.24-5.9C302.91,282.33,302.74,282.34,302.75,282.45Z" style="fill: rgb(38, 50, 56); transform-origin: 307.376px 308.686px 0px;" id="elscbpbstv5v" class="animable"></path><g id="eldvfdyi4x4fp"><path d="M276,337.36c-5.95-.95-11-2.21-14.06-3.86-17.57-9.4-58-72.53-65.19-96.87-4.24-14.27-2.88-23.21,7.16-19.5Z" style="opacity: 0.1; transform-origin: 235.244px 276.825px 0px;" class="animable"></path></g><path d="M246.88,391.72l-143.16.41S115.36,270,171.61,220.79c14.38-12.58,31.76-6.72,40,1.09C232.59,241.74,247.28,391.2,246.88,391.72Z" style="fill: rgb(245, 236, 222); transform-origin: 175.304px 302.803px 0px;" id="el5qxlar3drm8" class="animable"></path><path d="M188.32,253.51a23.36,23.36,0,0,0-1.29,6.86,23.71,23.71,0,0,0,3-6.28,24.08,24.08,0,0,0,1.3-6.85A23.54,23.54,0,0,0,188.32,253.51ZM126.2,297.4a24.86,24.86,0,0,0-1.27,6.85,23.45,23.45,0,0,0,3-6.28,24.14,24.14,0,0,0,1.27-6.85A24.73,24.73,0,0,0,126.2,297.4Zm103.47,85.85a23.94,23.94,0,0,0-1.27,6.85,24.47,24.47,0,0,0,3-6.28,26.25,26.25,0,0,0,1.27-6.85A24.14,24.14,0,0,0,229.67,383.25ZM140.4,392h1.84a22.65,22.65,0,0,0,.94-5.69A22.56,22.56,0,0,0,140.4,392Zm-42-12.24a25.49,25.49,0,0,0-1.29,6.85,22.85,22.85,0,0,0,3-6.3,23.34,23.34,0,0,0,1.27-6.85A25.87,25.87,0,0,0,98.43,379.78Zm81.67-40.86a25.42,25.42,0,0,0-1.29,6.85,23.06,23.06,0,0,0,3-6.28,24.33,24.33,0,0,0,1.27-6.85A25.07,25.07,0,0,0,180.1,338.92ZM136,346a25.82,25.82,0,0,0-6.85-1.3,22.14,22.14,0,0,0,6.31,3,23.91,23.91,0,0,0,6.82,1.3A23.21,23.21,0,0,0,136,346Zm62.18,24.64a24.58,24.58,0,0,0-6.84-1.27,27.62,27.62,0,0,0,13.15,4.27A24.79,24.79,0,0,0,198.14,370.61Zm40.23-49.3a19,19,0,0,0-3.81-.46,20.57,20.57,0,0,0,4.06,2.15C238.54,322.44,238.46,321.88,238.37,321.31Zm-61.89-35.09a24,24,0,0,0-6.85-1.26,24.36,24.36,0,0,0,6.31,3,23.29,23.29,0,0,0,6.85,1.29A24.65,24.65,0,0,0,176.48,286.22Zm-54,88.25a23.8,23.8,0,0,0-3.93-5.74,24.63,24.63,0,0,0,2.33,6.56,25.4,25.4,0,0,0,3.92,5.74A24.34,24.34,0,0,0,122.44,374.47Zm69.16-161h-.5c.2.24.42.48.64.71C191.7,214,191.65,213.73,191.6,213.5Zm29.32,67a24.77,24.77,0,0,0-3.92-5.74,24.25,24.25,0,0,0,2.32,6.56,24,24,0,0,0,4,5.74A24.33,24.33,0,0,0,220.92,280.53ZM160.61,233.8c-.2-.38-.41-.76-.62-1.13-.42.48-.82,1-1.22,1.45l.24.51a23.87,23.87,0,0,0,4,5.73A24.69,24.69,0,0,0,160.61,233.8ZM175.09,387a20.56,20.56,0,0,0,1.54,4.88h1.91A22.2,22.2,0,0,0,175.09,387Zm42.56-42.19a25.4,25.4,0,0,0-3.92-5.74,24.27,24.27,0,0,0,2.32,6.56,25.23,25.23,0,0,0,3.93,5.76A24.52,24.52,0,0,0,217.65,344.85Zm-62-28.47a24.67,24.67,0,0,0-3.93-5.77A26.53,26.53,0,0,0,158,322.93,23.9,23.9,0,0,0,155.63,316.38Zm-39.9,11.7-.27,1a14.62,14.62,0,0,0,1.54-1.31C116.57,327.88,116.14,328,115.73,328.08Zm44.39,36.63a25.18,25.18,0,0,0-5.77,3.93,24.47,24.47,0,0,0,6.59-2.33,24,24,0,0,0,5.71-3.93A24.06,24.06,0,0,0,160.12,364.71Zm-12.83-98.34a24,24,0,0,0-5.71,3.93,24.63,24.63,0,0,0,6.56-2.33,24.9,24.9,0,0,0,5.74-4A24.5,24.5,0,0,0,147.29,266.37ZM206,310.27a25.45,25.45,0,0,0-5.76,3.93,24.37,24.37,0,0,0,6.56-2.32,23.34,23.34,0,0,0,5.74-3.93A24.58,24.58,0,0,0,206,310.27Zm10.71-81a21.18,21.18,0,0,0-3.33,2.55,19.27,19.27,0,0,0,4-1.17C217.13,230.2,216.91,229.74,216.68,229.3Z" style="fill: rgb(255, 255, 255); transform-origin: 167.885px 302.75px 0px;" id="elfkgfiyvqz99" class="animable"></path><path d="M216.64,228.09a64.86,64.86,0,0,1-.11,6.83,33.32,33.32,0,0,1-.8,6.11c-.93,3.62-3.13,7.14-7,8.58a14.33,14.33,0,0,1-11.12-1,37,37,0,0,1-9.36-7.28c-1.71-1.68-3.35-3.43-4.89-5.25-.79-.93-1.58-1.84-2.31-2.8s-1.43-1.95-2.22-2.86c-.07-.07-.23,0-.17.09,1.59,2.19,6.42,9.14,8,10.82,2.79,3,5.82,6.16,9.58,8.2a16.07,16.07,0,0,0,12,1.68,11.82,11.82,0,0,0,8.11-8.16,24.17,24.17,0,0,0,.84-7.11c0-2.64-.15-5.28-.37-7.89A0,0,0,0,0,216.64,228.09Z" style="fill: rgb(38, 50, 56); transform-origin: 197.924px 239.875px 0px;" id="elb1y471h6nhs" class="animable"></path><path d="M204.63,243.51c-8.79.87-21.66-14.1-26-25.41-.29-.77,6.6-29.25,7.38-35,.15-1.18,35.15,13.71,35.15,13.71s-5.21,11.64-6.5,21.74C214.54,219.35,213.12,242.67,204.63,243.51Z" style="fill: rgb(235, 148, 129); transform-origin: 199.891px 213.29px 0px;" id="el2nu91o5jhpk" class="animable"></path><path d="M221.13,196.76s-5.2,11.65-6.5,21.74c0,.21-.12,1.66-.36,3.78-17.05-3.92-26.61-16-31.35-24.38,1.43-6.44,2.75-12.49,3.06-14.83C186.15,181.88,221.13,196.76,221.13,196.76Z" style="fill: rgb(38, 50, 56); transform-origin: 202.025px 202.641px 0px;" id="el9dgjwnii4b" class="animable"></path><path d="M219.54,122.92c2.11-.29,14,13.55,15.22,20.87s1,22.34-1.09,22.94S217.91,123.15,219.54,122.92Z" style="fill: rgb(38, 50, 56); transform-origin: 227.455px 144.826px 0px;" id="elx55xeq2lql" class="animable"></path><path d="M173.32,147.33c-3.62,13.08,4.22,50.39,13.68,58.5,13.72,11.76,35.69,12.34,45.58-4,9.58-15.86-1.51-64.29-12-71.62C205.05,119.41,178.68,128,173.32,147.33Z" style="fill: rgb(235, 148, 129); transform-origin: 204.329px 169.949px 0px;" id="elmvpd0clqpyo" class="animable"></path><path d="M207.65,164.38a31.67,31.67,0,0,1-3.07,1.43c-1.19.54-2.08,1.09-3.42.87a1.74,1.74,0,0,1-1.28-1.7c.12-1.66,1.41-2.68,2.81-3.38a6.38,6.38,0,0,1,4.55-.61A1.87,1.87,0,0,1,207.65,164.38Z" style="fill: rgb(38, 50, 56); transform-origin: 204.219px 163.772px 0px;" id="elcmwistvltuq" class="animable"></path><path d="M209.09,169.72c-.05-.09-.17.17-.14.27.71,2.47,1.1,5.43-.95,6.82-.06,0,0,.17.06.13C210.71,175.86,210.15,172,209.09,169.72Z" style="fill: rgb(38, 50, 56); transform-origin: 208.974px 173.324px 0px;" id="elbiijkuggtrw" class="animable"></path><path d="M206.2,167.68c-4.08.7-2.37,8.82,1.41,8.17S209.63,167.09,206.2,167.68Z" style="fill: rgb(38, 50, 56); transform-origin: 206.79px 171.768px 0px;" id="elbg1bglywf2" class="animable"></path><path d="M223.55,166.32c0-.1.23.08.24.18.45,2.53,1.39,5.36,3.85,5.72.07,0,.09.14,0,.14C224.79,172.55,223.57,168.79,223.55,166.32Z" style="fill: rgb(38, 50, 56); transform-origin: 225.625px 169.329px 0px;" id="elnqgjclh33ws" class="animable"></path><path d="M225.25,163.22c4-1.16,6,6.89,2.31,8S221.91,164.19,225.25,163.22Z" style="fill: rgb(38, 50, 56); transform-origin: 226.521px 167.215px 0px;" id="el81f38q8wl1u" class="animable"></path><path d="M227.28,157.82a32.3,32.3,0,0,1-3.41-.16c-1.3-.07-2.35,0-3.44-.82a1.77,1.77,0,0,1-.34-2.12c.88-1.41,2.5-1.72,4.07-1.69a6.42,6.42,0,0,1,4.33,1.59A1.87,1.87,0,0,1,227.28,157.82Z" style="fill: rgb(38, 50, 56); transform-origin: 224.464px 155.424px 0px;" id="eldiqckfquah" class="animable"></path><path d="M210.79,192.88c.73.47,1.5,1.15,2.43,1a6.75,6.75,0,0,0,2.57-1.21.09.09,0,0,1,.14.11,3.47,3.47,0,0,1-2.91,2,2.76,2.76,0,0,1-2.45-1.81C210.51,192.91,210.69,192.82,210.79,192.88Z" style="fill: rgb(38, 50, 56); transform-origin: 213.25px 193.713px 0px;" id="elfz91xgjx96l" class="animable"></path><path d="M211.85,184.79a8.74,8.74,0,0,0,6.52,2.61,11.11,11.11,0,0,0,3.12-.5,3.49,3.49,0,0,0,.57-.2,4.36,4.36,0,0,0,.53-.2.63.63,0,0,0,.39-.67h0a1.11,1.11,0,0,0-.07-.26h0l0-.22c-.35-2-1.16-4.86-1.16-4.86.78.21,4.73,1.07,4.46.07-2.26-8.27-4.78-17.47-8.78-25.23a.24.24,0,0,0-.44.16c1.86,8,5.12,15.7,7.12,23.74a15.36,15.36,0,0,0-4.31-.38c-.25.14,1.67,5.59,1.76,6.48v.1c-3.17,1.1-5.83.63-9.45-.89C211.82,184.41,211.66,184.63,211.85,184.79Z" style="fill: rgb(38, 50, 56); transform-origin: 218.995px 171.312px 0px;" id="elkjvr56fiwtt" class="animable"></path><path d="M220.14,186.15a10.37,10.37,0,0,1-3.41,4,4.59,4.59,0,0,1-2.74.76c-2.12-.1-2.56-1.94-2.52-3.59a11,11,0,0,1,.39-2.61A13.44,13.44,0,0,0,220.14,186.15Z" style="fill: rgb(38, 50, 56); transform-origin: 215.804px 187.812px 0px;" id="elguvyen0boo" class="animable"></path><path d="M216.73,190.16a4.59,4.59,0,0,1-2.74.76c-2.12-.1-2.56-1.94-2.52-3.59C213.67,187.1,216.11,188.11,216.73,190.16Z" style="fill: rgb(255, 151, 184); transform-origin: 214.099px 189.111px 0px;" id="elpl1f7evk8hr" class="animable"></path><path d="M182.7,178.56c6.56-.93,8.05-8.81,7.91-19.32-.07-6.14-4.34-17.41-4.34-17.41s18.21,3.86,27.33.86,15.19-12.87,13.06-20.07c-1.83-6.18-14.3-11.85-28.33-9.2C188.54,115.28,174,126.88,169.2,139c0,0-10.84,8.68-6.87,17.47S175.26,179.62,182.7,178.56Z" style="fill: rgb(38, 50, 56); transform-origin: 194.271px 145.683px 0px;" id="elowxhvzirbzi" class="animable"></path><path d="M183,177.72c8.88-.18,10.37-14,9-20.65-1.39-6.95-5.67-13.3-8.45-19.75,0,0,0-.06.06,0,4.76,7.49,10.28,17.1,9.49,26.29-.49,5.78-2.36,15.59-10.13,14.62C182.73,178.17,182.7,177.72,183,177.72Z" style="fill: rgb(38, 50, 56); transform-origin: 187.979px 157.795px 0px;" id="elhxjleod81ii" class="animable"></path><path d="M159.83,154.1c-.13-5.95,5-13.06,10.14-15.65.05,0,.09.05.05.07-5.94,3.89-11.7,13.14-8,19.94,3,5.44,7.56,12.44,12.61,16.13a.13.13,0,0,1-.15.2c-3.85-2.39-6.17-6.13-8.74-9.77C163.51,161.86,159.92,158.23,159.83,154.1Z" style="fill: rgb(38, 50, 56); transform-origin: 167.242px 156.624px 0px;" id="elpptrpsdaaps" class="animable"></path><path d="M168.16,140.13c5.08-12.77,18.69-29.1,33.58-29,0,0,0,.07,0,.08-15.51,1.21-26,17.1-33,29.3C168.57,140.83,168,140.49,168.16,140.13Z" style="fill: rgb(38, 50, 56); transform-origin: 184.936px 125.884px 0px;" id="el672kxu2i71g" class="animable"></path><path d="M182.8,179.54s-8.93-11.8-14.33-8.57,1.64,20.55,8.2,22.71a6.59,6.59,0,0,0,8.68-3.86Z" style="fill: rgb(235, 148, 129); transform-origin: 175.95px 182.288px 0px;" id="elkffyf0swe5g" class="animable"></path><path d="M170.61,175.88a.09.09,0,0,0,0,.18c4.6,1.66,7.14,5.77,9,10.06-1.41-1.63-3.28-2.48-5.47-.79-.11.09,0,.27.14.24a4,4,0,0,1,4.5,1.24,19.88,19.88,0,0,1,2.27,3.51c.22.4.95.16.77-.3a.49.49,0,0,0,0-.11C181.63,184.14,176.84,176.23,170.61,175.88Z" style="fill: rgb(38, 50, 56); transform-origin: 176.185px 183.201px 0px;" id="el1kalvv7clwu" class="animable"></path><path d="M214.82,219.52l-9.26,20.08-26.47-26.33-6,9.55s24.79,39.26,24.95,37.49l8.38-16.84,12.13,11.71-1-29.41Z" style="fill: rgb(235, 235, 235); transform-origin: 195.82px 236.819px 0px;" id="elgjm5g6gs3nh" class="animable"></path><path d="M218.88,240.61c-.33-4.85-.53-9.74-1.1-14.57,0-.17-.3-.25-.34,0-1,4.69.37,23.23.35,27.68l0,0c-.51-.51-11.24-10.31-11.35-10.15-1.82,2.67-8,14.93-8.39,16-3.92-6.24-20.56-30.83-25.2-36.72a.17.17,0,0,0-.3.17c3.46,6.58,25,39,25.26,38.94.21.16,7.86-15,8.77-17.8,1.82,2.13,12.65,13.19,12.69,12.47A144.25,144.25,0,0,0,218.88,240.61Z" style="fill: rgb(38, 50, 56); transform-origin: 195.934px 242.362px 0px;" id="elfbrhee2szkv" class="animable"></path><path d="M164.23,259.41c7.93,30.44,30.32,89.32,48.15,103.12,13.27,10.26,79.49,8.73,88.44,9.08,6.66.26,3.05-55.46-4.05-56-7.29-.59-58-3.19-63.1-4.69s-30.21-39.38-46.16-59.7C167.39,225.55,157.74,234.49,164.23,259.41Z" style="fill: rgb(235, 148, 129); transform-origin: 233.281px 303.711px 0px;" id="eluxu8wwifc19" class="animable"></path><path d="M302.48,372.09c14.46,1.89,45.25,1.22,61.42-2.06,21.3-4.3,47.59-25.25,44.12-30.19-3.83-5.45-16.13-.92-27.65,2.63-18.21,5.61-24.54.41-31.07-4.58-26.76-20.46-54.47-22.19-54.47-22.19S287.55,370.13,302.48,372.09Z" style="fill: rgb(235, 148, 129); transform-origin: 350.693px 344.417px 0px;" id="elscr54c4e6h" class="animable"></path><path d="M348.44,341.73c-6.73-5.16,17.82-1.5,24.13-8.82s-2.95-10.77-12.15-11.09c-31.94-1.11-38.86-13.95-60.32-7.85S348.44,341.73,348.44,341.73Z" style="fill: rgb(235, 148, 129); transform-origin: 335.322px 327.032px 0px;" id="elvl3f9vt7cid" class="animable"></path><path d="M332.06,341.42c-.12.05-.22-.16-.1-.22a30.5,30.5,0,0,1,8.68-3,76,76,0,0,1,9.17-.8c3.13-.13,6.28-.2,9.4-.46,1.6-.14,3.17-.39,4.74-.65s3.05-.71,4.58-.86c.2,0,.23.23.1.33a12.61,12.61,0,0,1-4.15,1.84,30.94,30.94,0,0,1-4.27.82,76.14,76.14,0,0,1-9.55.56c-3.12,0-6.24.09-9.35.42" style="fill: rgb(38, 50, 56); transform-origin: 350.307px 338.429px 0px;" id="eltbl2vtx137o" class="animable"></path><path d="M237.28,311.47l14.9.73q7.44.36,14.88.81l14.88.85,7.44.43,3.72.23,1.85.1.93.05.85,0-.39.11a29.24,29.24,0,0,1,6.8-2.42,36.94,36.94,0,0,1,7.1-.94,44.49,44.49,0,0,1,14.07,2c4.52,1.34,8.86,3,13.3,4.24a51.77,51.77,0,0,0,6.71,1.45c2.27.32,4.58.52,6.9.72a135.81,135.81,0,0,1,14,1.57,23.62,23.62,0,0,1,6.85,2.2,6.77,6.77,0,0,1,2.77,2.65,5.58,5.58,0,0,1,.28,3.87,7,7,0,0,1-2,3.18,12.83,12.83,0,0,1-3,2.05,25.66,25.66,0,0,1-6.78,2.12,53.86,53.86,0,0,1-14,.47l.06-.16,2.46,2L349.25,338l-.24-.16h.29a55.71,55.71,0,0,0,13.84-1.06,26.37,26.37,0,0,0,6.44-2.28c2-1,3.82-2.58,4.32-4.62a4.31,4.31,0,0,0-.26-2.95,5.43,5.43,0,0,0-2.28-2A22.34,22.34,0,0,0,364.9,323c-4.53-.72-9.17-1-13.82-1.36-2.33-.18-4.66-.36-7-.68a52.69,52.69,0,0,1-7-1.43c-4.56-1.22-8.94-2.87-13.36-4.14a43,43,0,0,0-13.46-2.05,34.81,34.81,0,0,0-6.74.84,28.58,28.58,0,0,0-6.36,2.18l-.23.12h-.16l-1,0-.93-.06-1.87-.12-3.72-.26c-2.48-.16-5-.38-7.43-.57L267,314.19q-7.44-.6-14.85-1.3C247.18,312.43,242.23,312,237.28,311.47Z" style="fill: rgb(38, 50, 56); transform-origin: 306.311px 325.596px 0px;" id="el6hdss8swhi7" class="animable"></path><path d="M235,308.86c12.23,1.78,57.58,3.47,57.58,3.47l11.52,65s-80.28-3.08-93.5-11.14-47.31-87.31-50.16-112.55c-3-26.29,4.69-32.55,26.74-5.32C209.37,275.7,229.37,306.11,235,308.86Z" style="fill: rgb(245, 236, 222); transform-origin: 231.959px 304.004px 0px;" id="elpe8l9kmnu5s" class="animable"></path><path d="M206,310.27a25.45,25.45,0,0,0-5.76,3.93,24.37,24.37,0,0,0,6.56-2.32,23.34,23.34,0,0,0,5.74-3.93A24.58,24.58,0,0,0,206,310.27ZM253,355.72a25.45,25.45,0,0,0-5.76,3.93,24.39,24.39,0,0,0,6.56-2.33,23.57,23.57,0,0,0,5.74-3.92A23.78,23.78,0,0,0,253,355.72Zm33.43,16.36a20,20,0,0,0,1.36,4.43l1.9.1A22.37,22.37,0,0,0,286.47,372.08Zm-68.82-27.23a25.4,25.4,0,0,0-3.92-5.74,24.27,24.27,0,0,0,2.32,6.56,25.23,25.23,0,0,0,3.93,5.76A24.52,24.52,0,0,0,217.65,344.85ZM161.06,234.74a15.88,15.88,0,0,0-.65,2.33,19.42,19.42,0,0,0,2.56,3.29A22.72,22.72,0,0,0,161.06,234.74ZM276.8,315.51a31,31,0,0,0-2.43-3.95l-1.1-.06a29.14,29.14,0,0,0,1.93,4.83,23.72,23.72,0,0,0,4,5.74A24.69,24.69,0,0,0,276.8,315.51ZM176.48,286.22a24,24,0,0,0-6.85-1.26,24.36,24.36,0,0,0,6.31,3,23.29,23.29,0,0,0,6.85,1.29A24.65,24.65,0,0,0,176.48,286.22ZM283.1,344.41a23.55,23.55,0,0,0-6.82-1.27,24,24,0,0,0,6.28,3,24.88,24.88,0,0,0,6.85,1.3A24.32,24.32,0,0,0,283.1,344.41Zm-41.72-22.29a24,24,0,0,0-6.82-1.27,24,24,0,0,0,6.28,3,24.81,24.81,0,0,0,6.85,1.3A24.48,24.48,0,0,0,241.38,322.12Zm-52.09-71.19c-.36.85-.68,1.71-1,2.58a23.36,23.36,0,0,0-1.29,6.86,23.71,23.71,0,0,0,3-6.28c.17-.55.34-1.1.48-1.66Z" style="fill: rgb(255, 255, 255); transform-origin: 225.05px 305.675px 0px;" id="elqsnbbtzecem" class="animable"></path><path d="M279,316c0,1.66.31,3.35.51,5s.39,3.42.58,5.12c.4,3.46.85,6.92,1.32,10.37.94,6.89,1.85,13.79,2.9,20.66.29,1.89.59,3.78.93,5.67s.85,3.93,1.21,5.91c0,.12.19.08.18,0-.18-1.72-.22-3.45-.39-5.17s-.38-3.51-.6-5.27q-.66-5.17-1.4-10.34c-1-6.78-1.92-13.57-3-20.33-.31-1.89-.64-3.77-1-5.66s-.56-4-1.06-5.94A.1.1,0,0,0,279,316Z" style="fill: rgb(38, 50, 56); transform-origin: 282.815px 342.379px 0px;" id="eliye650p4img" class="animable"></path><path d="M244.6,373.1c-2.63-.1-5.25-.28-7.87-.52s-5.25-.52-7.86-.88a79.07,79.07,0,0,1-15.51-3.46l-1.88-.78c-.62-.26-1.22-.65-1.83-1a13.41,13.41,0,0,1-3.08-2.81,65,65,0,0,1-4.71-6.47c-2.88-4.44-5.49-9-8-13.66q-7.5-13.94-13.76-28.46a228.69,228.69,0,0,1-10.83-29.66q2.67,7.43,5.81,14.65c2.06,4.83,4.23,9.61,6.45,14.37,4.46,9.5,9.09,18.93,14.08,28.15,2.48,4.62,5.07,9.18,7.85,13.59a61.28,61.28,0,0,0,4.46,6.36,12.43,12.43,0,0,0,2.65,2.54c.54.3,1,.67,1.62.93l1.74.79A86.89,86.89,0,0,0,229,370.74C234.17,371.74,239.38,372.45,244.6,373.1Z" style="fill: rgb(38, 50, 56); transform-origin: 206.935px 329.25px 0px;" id="ele0e38my9kzp" class="animable"></path><path d="M204.29,270.36c5.48,7,11,14,16.67,20.79,2.85,3.39,5.71,6.78,8.73,10,1.52,1.6,3.05,3.18,4.66,4.64a25.77,25.77,0,0,0,2.49,2l.65.42a1.75,1.75,0,0,0,.25.14l.31.11a12.08,12.08,0,0,0,1.49.35,131.45,131.45,0,0,0,13.13,1.32c4.42.3,8.86.54,13.29.76l26.62,1.31h.12v.1l.4,3-.66-3,.13.11c-8.89.21-17.79.25-26.68.06-4.45-.1-8.89-.25-13.34-.48-2.23-.13-4.45-.27-6.68-.46s-4.45-.39-6.71-.82a13.45,13.45,0,0,1-1.74-.44,4.43,4.43,0,0,1-.47-.17,4,4,0,0,1-.48-.26l-.76-.49a28.84,28.84,0,0,1-2.67-2.19,67.15,67.15,0,0,1-4.73-4.82c-3-3.32-5.82-6.78-8.55-10.3C214.3,285.07,209.16,277.8,204.29,270.36Z" style="fill: rgb(38, 50, 56); transform-origin: 248.695px 292.83px 0px;" id="elp5zvfrl3cl" class="animable"></path><path d="M170,294c1.11,1.73,2.08,3.47,3.11,5.19.5.86,1,1.7,1.55,2.56l1.62,2.56a15.35,15.35,0,0,1-4-4.61,22,22,0,0,1-1.37-2.75A14.32,14.32,0,0,1,170,294Z" style="fill: rgb(38, 50, 56); transform-origin: 173.14px 299.155px 0px;" id="el0yc8n8a7d6fg" class="animable"></path><path d="M207.91,272.74A14.41,14.41,0,0,1,210,275a21.93,21.93,0,0,1,1.71,2.56,15.27,15.27,0,0,1,2,5.79l-1.43-2.68c-.48-.88-.94-1.76-1.45-2.62C209.89,276.27,208.86,274.57,207.91,272.74Z" style="fill: rgb(38, 50, 56); transform-origin: 210.81px 278.045px 0px;" id="elpwkgjlweac8" class="animable"></path></g><g id="freepik--Cube--inject-85" style="transform-origin: 360.758px 157.897px 0px;" class="animable"><path d="M353.57,102.66c.21,5.84.31,11.68.39,17.52s.07,11.68.11,17.52,0,11.68-.11,17.52l-.14,8.76c-.08,2.92-.13,5.85-.25,8.77-.11-2.92-.16-5.85-.24-8.77l-.14-8.76c-.08-5.84-.08-11.68-.12-17.52s0-11.68.12-17.52S353.37,108.5,353.57,102.66Z" style="fill: rgb(199, 199, 199); transform-origin: 353.57px 137.705px 0px;" id="elyusqcxwwy3" class="animable"></path><path d="M351,96.21c.2,5.84.3,11.68.38,17.52s.08,11.68.12,17.52,0,11.68-.12,17.52l-.14,8.76c-.08,2.92-.13,5.84-.24,8.76-.12-2.92-.16-5.84-.25-8.76l-.14-8.76c-.08-5.84-.07-11.68-.11-17.52s0-11.68.11-17.52S350.82,102.05,351,96.21Z" style="fill: rgb(199, 199, 199); transform-origin: 351px 131.25px 0px;" id="elaaduo45sakc" class="animable"></path><path d="M452.89,105.51c.2,5.84.3,11.68.38,17.52s.08,11.68.12,17.52,0,11.68-.12,17.52l-.14,8.76c-.08,2.92-.13,5.84-.24,8.76-.12-2.92-.16-5.84-.25-8.76l-.14-8.76c-.08-5.84-.07-11.68-.11-17.52s0-11.68.12-17.52S452.68,111.35,452.89,105.51Z" style="fill: rgb(199, 199, 199); transform-origin: 452.89px 140.55px 0px;" id="el7mzdxc327mi" class="animable"></path><path d="M450.34,99.05c.21,5.84.31,11.68.39,17.52s.07,11.69.11,17.53,0,11.68-.11,17.52l-.14,8.76c-.09,2.92-.13,5.84-.25,8.76-.11-2.92-.16-5.84-.24-8.76l-.14-8.76c-.08-5.84-.08-11.68-.12-17.52s0-11.68.12-17.53S450.14,104.89,450.34,99.05Z" style="fill: rgb(199, 199, 199); transform-origin: 450.34px 134.095px 0px;" id="eliuit8xf4vks" class="animable"></path><path d="M381.53,203c5.84-.21,11.68-.31,17.52-.39s11.68-.07,17.52-.11,11.68,0,17.52.11l8.76.14c2.92.08,5.84.13,8.77.25-2.93.11-5.85.16-8.77.24l-8.76.14c-5.84.08-11.68.08-17.52.12s-11.68,0-17.52-.12S387.37,203.19,381.53,203Z" style="fill: rgb(199, 199, 199); transform-origin: 416.575px 203px 0px;" id="el73x80lk10pj" class="animable"></path><path d="M375.08,205.53c5.84-.2,11.68-.3,17.52-.38s11.68-.07,17.52-.12,11.68,0,17.52.12l8.76.14c2.92.08,5.84.13,8.76.24-2.92.12-5.84.16-8.76.25l-8.76.14c-5.84.08-11.68.07-17.52.11s-11.68,0-17.52-.11S380.92,205.74,375.08,205.53Z" style="fill: rgb(199, 199, 199); transform-origin: 410.12px 205.528px 0px;" id="elywl0b637de" class="animable"></path><path d="M322.84,114.88c2.39-1.62,4.82-3.14,7.27-4.65s4.92-3,7.4-4.42,5-2.86,7.52-4.23l3.8-2c1.29-.65,2.56-1.33,3.86-2-1.19.82-2.41,1.58-3.61,2.37l-3.66,2.28c-2.44,1.52-4.92,3-7.41,4.42s-5,2.86-7.51,4.22S325.43,113.62,322.84,114.88Z" style="fill: rgb(199, 199, 199); transform-origin: 337.765px 106.23px 0px;" id="el3ictbjyd56g" class="animable"></path><path d="M321.08,118.63c2.38-1.62,4.82-3.14,7.27-4.65s4.92-3,7.4-4.42,5-2.86,7.52-4.22l3.8-2c1.29-.65,2.55-1.33,3.85-2-1.18.82-2.4,1.58-3.6,2.37L343.66,106c-2.45,1.52-4.93,3-7.41,4.42s-5,2.86-7.52,4.22S323.67,117.37,321.08,118.63Z" style="fill: rgb(199, 199, 199); transform-origin: 336px 109.985px 0px;" id="el7f8d987t0c3" class="animable"></path><rect x="361.6" y="111.06" width="84.05" height="84.05" style="fill: rgb(245, 236, 222); transform-origin: 403.625px 153.085px 0px;" id="elgzv2nt48va" class="animable"></rect><g id="el0x3ipjyb2i9h"><rect x="361.6" y="111.06" width="84.05" height="84.05" style="opacity: 0.5; transform-origin: 403.625px 153.085px 0px;" class="animable"></rect></g><polygon points="430.63 208.02 396.22 226.4 312.17 226.4 346.58 208.02 430.63 208.02" style="fill: rgb(245, 236, 222); transform-origin: 371.4px 217.21px 0px;" id="elyrtaexbdm" class="animable"></polygon><g id="el898s02kzwv4"><polygon points="430.63 208.02 396.22 226.4 312.17 226.4 346.58 208.02 430.63 208.02" style="opacity: 0.35; transform-origin: 371.4px 217.21px 0px;" class="animable"></polygon></g><polygon points="348.66 190.94 314.25 209.31 314.25 125.26 348.66 106.89 348.66 190.94" style="fill: rgb(245, 236, 222); transform-origin: 331.455px 158.1px 0px;" id="el5acm82xbigu" class="animable"></polygon><g id="elh5nwneywt2"><polygon points="348.66 190.94 314.25 209.31 314.25 125.26 348.66 106.89 348.66 190.94" style="opacity: 0.25; transform-origin: 331.455px 158.1px 0px;" class="animable"></polygon></g><polygon points="414.45 184.5 390.11 197.49 390.11 138.06 414.45 125.07 414.45 184.5" style="fill: rgb(166, 166, 166); transform-origin: 402.28px 161.28px 0px;" id="elfva735yvbu" class="animable"></polygon><polygon points="414.45 125.07 390.11 138.06 330.68 138.06 355.01 125.07 414.45 125.07" style="fill: rgb(199, 199, 199); transform-origin: 372.565px 131.565px 0px;" id="elv6sau3g661k" class="animable"></polygon><rect x="330.68" y="138.06" width="59.43" height="59.43" style="fill: rgb(235, 235, 235); transform-origin: 360.395px 167.775px 0px;" id="eljrzul45wzx" class="animable"></rect><rect x="286.47" y="128.43" width="84.05" height="84.05" style="fill: rgb(245, 236, 222); transform-origin: 328.495px 170.455px 0px;" id="elt61y1q6i2j" class="animable"></rect><polygon points="438.04 190.94 403.63 209.31 403.63 125.26 438.04 106.89 438.04 190.94" style="fill: rgb(245, 236, 222); transform-origin: 420.835px 158.1px 0px;" id="elfq2awn5vudp" class="animable"></polygon><g id="elv41r837mg9"><polygon points="438.04 190.94 403.63 209.31 403.63 125.26 438.04 106.89 438.04 190.94" style="opacity: 0.1; transform-origin: 420.835px 158.1px 0px;" class="animable"></polygon></g><polygon points="440.18 87.17 405.77 105.54 321.72 105.54 356.13 87.17 440.18 87.17" style="fill: rgb(245, 236, 222); transform-origin: 380.95px 96.355px 0px;" id="elal7489gu4w6" class="animable"></polygon><g id="el9ysgyl916lu"><polygon points="440.18 87.17 405.77 105.54 321.72 105.54 356.13 87.17 440.18 87.17" style="fill: rgb(255, 255, 255); opacity: 0.2; transform-origin: 380.95px 96.355px 0px;" class="animable"></polygon></g><path d="M282.16,128.3c.21,5.84.3,11.68.38,17.52s.08,11.68.12,17.52,0,11.68-.12,17.53l-.14,8.76c-.08,2.92-.13,5.84-.24,8.76-.11-2.92-.16-5.84-.25-8.76l-.13-8.76c-.08-5.85-.08-11.69-.12-17.53s0-11.68.12-17.52S282,134.14,282.16,128.3Z" style="fill: rgb(199, 199, 199); transform-origin: 282.16px 163.345px 0px;" id="elvrqi5l8oa" class="animable"></path><path d="M278.84,121.38c.21,5.84.3,11.68.38,17.52s.08,11.68.12,17.52,0,11.68-.11,17.53l-.14,8.76c-.09,2.92-.13,5.84-.25,8.76-.11-2.92-.16-5.84-.24-8.76l-.14-8.76c-.08-5.85-.08-11.69-.12-17.53s0-11.68.12-17.52S278.64,127.22,278.84,121.38Z" style="fill: rgb(199, 199, 199); transform-origin: 278.84px 156.425px 0px;" id="el2i21r7ubr3q" class="animable"></path><path d="M275,217.21c5.84-.21,11.68-.3,17.52-.38s11.68-.08,17.52-.12,11.68,0,17.52.11l8.76.14c2.92.09,5.84.14,8.76.25-2.92.11-5.84.16-8.76.24l-8.76.14c-5.84.08-11.68.08-17.52.12s-11.68,0-17.52-.12S280.87,217.42,275,217.21Z" style="fill: rgb(199, 199, 199); transform-origin: 310.04px 217.21px 0px;" id="elt2y2i4v1gcp" class="animable"></path><path d="M268.11,220.53c5.84-.21,11.68-.31,17.52-.39s11.68-.07,17.52-.11,11.68,0,17.52.11l8.76.14c2.92.08,5.84.13,8.76.25-2.92.11-5.84.16-8.76.24l-8.76.14c-5.84.08-11.68.08-17.52.12s-11.68,0-17.52-.12S274,220.73,268.11,220.53Z" style="fill: rgb(199, 199, 199); transform-origin: 303.15px 220.53px 0px;" id="elwgts1meilmf" class="animable"></path><path d="M389,80.59c4.82-.21,9.64-.31,14.46-.39s9.65-.07,14.47-.11,9.64,0,14.46.11l7.23.14c2.41.08,4.82.13,7.23.25-2.41.11-4.82.16-7.23.24l-7.23.14c-4.82.08-9.64.08-14.46.11s-9.65,0-14.47-.11S393.78,80.79,389,80.59Z" style="fill: rgb(199, 199, 199); transform-origin: 417.925px 80.5829px 0px;" id="elbs9141fttm" class="animable"></path><path d="M383.25,82.66c4.82-.21,9.64-.3,14.46-.38s9.64-.08,14.46-.12,9.65,0,14.47.11l7.23.14c2.41.09,4.82.14,7.23.25-2.41.11-4.82.16-7.23.24l-7.23.14c-4.82.08-9.64.08-14.47.12s-9.64,0-14.46-.12S388.07,82.87,383.25,82.66Z" style="fill: rgb(199, 199, 199); transform-origin: 412.175px 82.6599px 0px;" id="el3rzkgjg6ywd" class="animable"></path><path d="M416.21,104.36c2.38-1.62,4.82-3.14,7.27-4.65s4.92-3,7.4-4.42,5-2.86,7.52-4.22l3.8-2c1.28-.65,2.55-1.33,3.85-2-1.18.82-2.4,1.58-3.61,2.37l-3.66,2.28c-2.44,1.52-4.92,3-7.4,4.42s-5,2.86-7.52,4.22S418.8,103.1,416.21,104.36Z" style="fill: rgb(199, 199, 199); transform-origin: 431.13px 95.715px 0px;" id="elmyinpf1cfk" class="animable"></path><path d="M414.45,108.11c2.38-1.61,4.82-3.14,7.27-4.65s4.92-3,7.4-4.42,5-2.86,7.52-4.22l3.8-2c1.28-.65,2.55-1.33,3.85-2-1.19.82-2.41,1.58-3.61,2.38L437,95.49c-2.44,1.51-4.92,3-7.4,4.42s-5,2.85-7.52,4.21S417,106.85,414.45,108.11Z" style="fill: rgb(199, 199, 199); transform-origin: 429.37px 99.465px 0px;" id="el6mknr4q14yu" class="animable"></path><path d="M395.17,232c2.38-1.62,4.82-3.14,7.27-4.65s4.92-3,7.4-4.42,5-2.86,7.52-4.22l3.8-2c1.28-.65,2.55-1.33,3.85-1.95-1.19.82-2.41,1.58-3.61,2.37l-3.66,2.28c-2.44,1.52-4.92,3-7.4,4.42s-5,2.86-7.52,4.22S397.76,230.71,395.17,232Z" style="fill: rgb(199, 199, 199); transform-origin: 410.09px 223.38px 0px;" id="ellyx4zvmqgmd" class="animable"></path><path d="M393.4,235.72c2.39-1.61,4.83-3.14,7.27-4.65s4.93-3,7.41-4.42,5-2.86,7.51-4.22l3.8-2c1.29-.65,2.56-1.32,3.86-1.95-1.19.82-2.41,1.58-3.61,2.38L416,223.1c-2.44,1.52-4.92,3-7.4,4.42s-5,2.85-7.52,4.22S396,234.46,393.4,235.72Z" style="fill: rgb(199, 199, 199); transform-origin: 408.325px 227.1px 0px;" id="el1wplo70as21" class="animable"></path></g><defs>     <filter id="active" height="200%">         <feMorphology in="SourceAlpha" result="DILATED" operator="dilate" radius="2"></feMorphology>                <feFlood flood-color="#32DFEC" flood-opacity="1" result="PINK"></feFlood>        <feComposite in="PINK" in2="DILATED" operator="in" result="OUTLINE"></feComposite>        <feMerge>            <feMergeNode in="OUTLINE"></feMergeNode>            <feMergeNode in="SourceGraphic"></feMergeNode>        </feMerge>    </filter>    <filter id="hover" height="200%">        <feMorphology in="SourceAlpha" result="DILATED" operator="dilate" radius="2"></feMorphology>                <feFlood flood-color="#ff0000" flood-opacity="0.5" result="PINK"></feFlood>        <feComposite in="PINK" in2="DILATED" operator="in" result="OUTLINE"></feComposite>        <feMerge>            <feMergeNode in="OUTLINE"></feMergeNode>            <feMergeNode in="SourceGraphic"></feMergeNode>        </feMerge>            <feColorMatrix type="matrix" values="0   0   0   0   0                0   1   0   0   0                0   0   0   0   0                0   0   0   1   0 "></feColorMatrix>    </filter></defs></svg>