<?xml version="1.0" encoding="utf-8"?>
<!-- Generator: Adobe Illustrator 23.0.6, SVG Export Plug-In . SVG Version: 6.00 Build 0)  -->
<svg version="1.1" id="Layer_1" xmlns="http://www.w3.org/2000/svg" xmlns:xlink="http://www.w3.org/1999/xlink" x="0px" y="0px"
	 viewBox="0 0 140 167" style="enable-background:new 0 0 140 167;" xml:space="preserve">
<style type="text/css">
	.st0{fill:#A1E5F8;}
	.st1{fill:#FFFFFF;}
	.st2{fill:#77BDD7;}
	.st3{fill:#EBFFFF;}
	.st4{fill:#2308B5;}
	.st5{fill:#E2272D;}
	.st6{fill:#E7ABC5;}
	.st7{fill:#EBFFFF;stroke:#77BDD7;stroke-width:1.5044;stroke-miterlimit:10;}
	.st8{fill:#00B5D8;stroke:#00B5D8;stroke-width:0.6686;stroke-miterlimit:10;}
	.st9{opacity:0.18;fill:#D0F2FB;}
	.st10{opacity:0.21;fill:#A1E5F8;}
	.st11{opacity:0.5;}
	.st12{fill:#2795ED;}
	.st13{fill:#00B5D8;}
	.st14{fill:#0032CC;}
	.st15{opacity:0.7;}
	.st16{fill:#F2FFFF;}
</style>
<path class="st0" d="M44,26.3C13.5,34.8,1.8,77,9.2,103.9c3.7,13.4,14.3,37.2,27,44.3c14.1,7.9,27.4-2.8,37.4-12.1
	c14.2-13.2,27.6-27.3,41.4-40.9c10.7-10.6,21.9-17.5,12.5-32.4C111.7,37.6,73.1,18.1,44,26.3z"/>
<g>
	<g>
		<g>
			<path class="st1" d="M117.4,64.9H49c-0.7,0-1.2,0.5-1.2,1.2v68.3c0,0.4,0.2,0.7,0.4,0.9c0.3,0.2,0.6,0.3,1,0.2l10.4-2.3l11.5,2.3
				c0.2,0,0.3,0,0.5,0l11.5-2.3l11.5,2.3c0.2,0,0.3,0,0.5,0l11.5-2.3l10.4,2.3c0.1,0,0.2,0,0.3,0c0.3,0,0.5-0.1,0.7-0.3
				c0.3-0.2,0.4-0.6,0.4-0.9V66.1C118.5,65.5,118,64.9,117.4,64.9z M116.2,133l-9.2-2c-0.2,0-0.3,0-0.5,0L95,133.2l-11.5-2.3
				c-0.1,0-0.2,0-0.2,0s-0.2,0-0.2,0l-11.5,2.3l-11.5-2.3c-0.2,0-0.3,0-0.5,0l-9.2,2V76.7h66V133z M116.2,74.4h-66v-7.1h66V74.4z"/>
		</g>
	</g>
	<g>
		<g>
			<rect x="52.6" y="69.7" class="st1" width="2.4" height="2.4"/>
		</g>
	</g>
	<g>
		<g>
			<rect x="57.3" y="69.7" class="st1" width="2.4" height="2.4"/>
		</g>
	</g>
	<g>
		<g>
			<rect x="62" y="69.7" class="st1" width="2.4" height="2.4"/>
		</g>
	</g>
	<g>
		<g>
			<rect x="70.2" y="69.7" class="st1" width="27.1" height="2.4"/>
		</g>
	</g>
	<g>
		<g>
			<rect x="111.5" y="69.7" class="st1" width="2.4" height="2.4"/>
		</g>
	</g>
	<g>
		<g>
			<path class="st1" d="M98.5,80.3H67.9c-0.7,0-1.2,0.5-1.2,1.2v18.8c0,0.7,0.5,1.2,1.2,1.2h30.6c0.7,0,1.2-0.5,1.2-1.2V81.4
				C99.7,80.8,99.2,80.3,98.5,80.3z M94.4,82.6l-11.2,6.9L72,82.6H94.4z M69.1,83.5L81,90.9l-11.9,7.3L69.1,83.5L69.1,83.5z
				 M72,99.1l11.2-6.9l11.2,6.9H72z M97.3,98.2l-11.9-7.3l11.9-7.3L97.3,98.2L97.3,98.2z"/>
		</g>
	</g>
	<g>
		<g>
			<path class="st1" d="M111.1,90l-3.5-3.5l-1.7,1.7l2.7,2.7l-2.7,2.7l1.7,1.7l3.5-3.5C111.6,91.2,111.6,90.5,111.1,90z"/>
		</g>
	</g>
	<g>
		<g>
			<path class="st1" d="M60.5,88.2l-1.7-1.7L55.3,90c-0.5,0.5-0.5,1.2,0,1.7l3.5,3.5l1.7-1.7l-2.7-2.7L60.5,88.2z"/>
		</g>
	</g>
	<g>
		<g>
			<rect x="72.6" y="103.8" class="st1" width="2.4" height="2.4"/>
		</g>
	</g>
	<g>
		<g>
			<rect x="77.3" y="103.8" class="st1" width="2.4" height="2.4"/>
		</g>
	</g>
	<g>
		<g>
			<rect x="82" y="103.8" class="st1" width="2.4" height="2.4"/>
		</g>
	</g>
	<g>
		<g>
			<rect x="86.7" y="103.8" class="st1" width="2.4" height="2.4"/>
		</g>
	</g>
	<g>
		<g>
			<rect x="91.4" y="103.8" class="st1" width="2.4" height="2.4"/>
		</g>
	</g>
	<g>
		<g>
			<path class="st1" d="M69.1,108.5H54.9c-0.7,0-1.2,0.5-1.2,1.2v9.4c0,0.7,0.5,1.2,1.2,1.2h14.1c0.7,0,1.2-0.5,1.2-1.2v-9.4
				C70.2,109.1,69.7,108.5,69.1,108.5z M65.2,110.9L62,113l-3.2-2.1H65.2z M56.1,111.9l3.8,2.5l-3.8,2.5
				C56.1,116.9,56.1,111.9,56.1,111.9z M58.8,118l3.2-2.1l3.2,2.1H58.8z M67.9,116.9l-3.8-2.5l3.8-2.5V116.9z"/>
		</g>
	</g>
	<g>
		<g>
			<path class="st1" d="M90.3,108.5H76.1c-0.7,0-1.2,0.5-1.2,1.2v9.4c0,0.7,0.5,1.2,1.2,1.2h14.1c0.7,0,1.2-0.5,1.2-1.2v-9.4
				C91.4,109.1,90.9,108.5,90.3,108.5z M86.4,110.9l-3.2,2.1l-3.2-2.1H86.4z M77.3,111.9l3.8,2.5l-3.8,2.5V111.9L77.3,111.9z
				 M80,118l3.2-2.1l3.2,2.1H80z M89.1,116.9l-3.8-2.5l3.8-2.5V116.9z"/>
		</g>
	</g>
	<g>
		<g>
			<path class="st1" d="M111.5,108.5H97.3c-0.7,0-1.2,0.5-1.2,1.2v9.4c0,0.7,0.5,1.2,1.2,1.2h14.1c0.7,0,1.2-0.5,1.2-1.2v-9.4
				C112.6,109.1,112.1,108.5,111.5,108.5z M107.6,110.9l-3.2,2.1l-3.2-2.1H107.6z M98.5,111.9l3.8,2.5l-3.8,2.5V111.9z M101.2,118
				l3.2-2.1l3.2,2.1H101.2z M110.3,116.9l-3.8-2.5l3.8-2.5L110.3,116.9L110.3,116.9z"/>
		</g>
	</g>
	<g>
		<g>
			<rect x="56.1" y="122.7" class="st1" width="11.8" height="2.4"/>
		</g>
	</g>
	<g>
		<g>
			<rect x="77.3" y="122.7" class="st1" width="11.8" height="2.4"/>
		</g>
	</g>
	<g>
		<g>
			<rect x="98.5" y="122.7" class="st1" width="11.8" height="2.4"/>
		</g>
	</g>
</g>
<g>
	
		<ellipse transform="matrix(0.9999 -1.654623e-02 1.654623e-02 0.9999 -0.6948 1.0318)" class="st2" cx="62" cy="42.5" rx="34.1" ry="34.1"/>
</g>
<g>
	<path class="st3" d="M91.3,42.5c0,5.6-1.6,10.9-4.3,15.3c-5.2,8.4-14.4,14-25,14c-4.9,0-9.4-1.2-13.5-3.3
		c-9.4-4.9-15.9-14.7-15.9-26.1c0-16.2,13.1-29.3,29.3-29.3C78.2,13.2,91.3,26.3,91.3,42.5z"/>
</g>
<g>
	<path class="st4" d="M51.7,24.1c0,0-15.7,2-9.7,17.4c0,0,0.2,2.7-0.4,4.4c-0.5,1.6,0,5.5,2,7.3c2,1.8,1.5,4.8,0.2,6.6
		c0,0-0.9,2.7,0.7,5.1c0,0,19-4.4,20.9-7.3C67.2,54.6,51.7,24.1,51.7,24.1z"/>
</g>
<g>
	<path class="st5" d="M87,57.8c-5.2,8.4-14.4,14-25,14c-4.9,0-9.4-1.2-13.5-3.3C52,66.3,69.4,55.8,87,57.8z"/>
</g>
<g>
	<path class="st6" d="M46.7,31.4c0,0-3.3,5.9-1.6,11.9c1.6,6,8.6,15.2,10.2,15.7c1.6,0.5,7.3-3.8,7.3-3.8l1.8,10.4
		c0,0,6.8,1.3,9-1.8c2.2-3.1-4.4-10.4-1.8-24.5C74.2,25.2,58.6,17.3,46.7,31.4z"/>
</g>
<g>
	<path class="st4" d="M50,27.4c0,0,1.8,5.5,6,7.3c4.2,1.8,4.6,2.7,4.8,5.5c0.2,2.7,1.5,6.6,4.8,7.7c3.3,1.1,2.4,7.7,2,9.5
		c-0.4,1.8,0.9,2.6,0.9,2.6l18.7-3.8c0,0-0.4-3.8-2.9-6.2c-2.6-2.4-2.7-6-2.7-9c0-2.9-2.7-3.3-4-5.1c-1.3-1.8,0.9-9.7-4.6-13.7
		C67.4,18,46.7,16.6,50,27.4z"/>
</g>
<g>
	<path class="st4" d="M52.1,49.1l0.3-4.1c0-0.2,0.2-0.4,0.5-0.4c0.2,0,0.4,0.2,0.4,0.5L53,48l0.9-0.2c0.2-0.1,0.5,0.1,0.5,0.3
		c0.1,0.2-0.1,0.5-0.3,0.5L52.1,49.1z"/>
</g>
<g>
	<path class="st3" d="M58.8,46.5c-2.9,0-5.3-2.4-5.3-5.3c0-2.9,2.4-5.3,5.3-5.3c2.9,0,5.3,2.4,5.3,5.3
		C64.2,44.1,61.8,46.5,58.8,46.5z M58.8,36.7c-2.5,0-4.5,2-4.5,4.5c0,2.5,2,4.5,4.5,4.5c2.5,0,4.5-2,4.5-4.5
		C63.3,38.7,61.3,36.7,58.8,36.7z"/>
</g>
<g>
	<path class="st3" d="M47.3,48.8c-2.9,0-5.3-2.4-5.3-5.3c0-2.9,2.4-5.3,5.3-5.3c2.9,0,5.3,2.4,5.3,5.3
		C52.6,46.5,50.2,48.8,47.3,48.8z M47.3,39c-2.5,0-4.5,2-4.5,4.5s2,4.5,4.5,4.5c2.5,0,4.5-2,4.5-4.5S49.8,39,47.3,39z"/>
</g>
<g>
	<path class="st4" d="M54.9,53.3c-0.5,0-0.9-0.1-1.2-0.2c-0.2-0.1-0.3-0.3-0.2-0.6c0.1-0.2,0.3-0.3,0.6-0.2c0.1,0,1.5,0.7,2.7-0.7
		c0.2-0.2,0.4-0.2,0.6,0c0.2,0.2,0.2,0.4,0,0.6C56.6,53,55.6,53.3,54.9,53.3z"/>
</g>
<g>
	<path class="st4" d="M48.4,45.2C48.4,45.2,48.4,45.2,48.4,45.2c-0.8,0-1.3-0.8-1.4-0.9c-0.1-0.2,0-0.4,0.2-0.6
		c0.2-0.1,0.5-0.1,0.6,0.1c0.1,0.2,0.4,0.5,0.7,0.5c0,0,0,0,0,0c0.2,0,0.5-0.2,0.7-0.6c0.1-0.2,0.4-0.2,0.6-0.1
		c0.2,0.1,0.3,0.4,0.1,0.6C49.4,44.9,48.9,45.2,48.4,45.2z"/>
</g>
<g>
	<path class="st4" d="M58.1,42.9C58.1,42.9,58.1,42.9,58.1,42.9c-0.8,0-1.3-0.8-1.4-0.9c-0.1-0.2,0-0.5,0.2-0.6
		c0.2-0.1,0.5-0.1,0.6,0.1c0.1,0.2,0.4,0.5,0.7,0.5c0,0,0,0,0,0c0.2,0,0.5-0.2,0.7-0.6c0.1-0.2,0.4-0.3,0.6-0.1
		c0.2,0.1,0.3,0.4,0.1,0.6C59.1,42.5,58.6,42.9,58.1,42.9z"/>
</g>
<g>
	<path class="st2" d="M43.5,89.8c-0.5,1-2.2,1.3-3.6,0.6l0,0c-1.5-0.7-2.3-2.1-1.8-3.2L45.7,71c0.5-1,2.2-1.3,3.6-0.6l0,0
		c1.5,0.7,2.3,2.1,1.8,3.2L43.5,89.8z"/>
</g>
<g>
	<path class="st4" d="M33.3,113.7c-0.6,1.3-2,2-3.1,1.5l-3.6-1.7c-1.1-0.5-1.5-2-0.8-3.4L37,86.3c0.6-1.3,2-1.9,3.1-1.4l3.6,1.7
		c1.1,0.5,1.5,1.9,0.9,3.3L33.3,113.7z"/>
</g>
<g>
	
		<ellipse transform="matrix(0.2387 -0.9711 0.9711 0.2387 53.0212 101.2218)" class="st7" cx="91.1" cy="16.8" rx="14.7" ry="14.7"/>
</g>
<g>
	<g>
		<path class="st8" d="M98,12.5c-0.3-0.3-0.8-0.3-1.1,0l-8,8l-3.7-3.7c-0.3-0.3-0.8-0.3-1.1,0c-0.3,0.3-0.3,0.8,0,1l4.2,4.2
			c0.3,0.3,0.8,0.3,1.1,0l8.5-8.5C98.3,13.3,98.3,12.8,98,12.5z"/>
	</g>
</g>
<path class="st9" d="M52.1,14.8c-4.4,1.6-8.1,4.1-11.2,7.3l42.4,40.6c3.8-4,6.4-9,7.5-14.4c1-5.1,0.7-10.6-1.2-15.9
	C84.2,17.2,67.3,9.3,52.1,14.8"/>
<path class="st10" d="M38.7,84.5c-0.5,0-0.9,0.2-1.1,0.5l-2.5,5.2l4.5,9.7c0.2-0.1,0.3-0.2,0.4-0.4l5.2-11c0.3-0.6-0.4-1.5-1.5-2
	l-3.6-1.7C39.6,84.6,39.1,84.5,38.7,84.5"/>
<path class="st0" d="M-53-204.6c4.8,25.9,30.6,74.3,60.5,74c9.6-0.1,18.8-3.5,28.5-3.5c7.1,0,16.7,4.4,23.4,1.4
	c20-8.8,4.1-32.3,4-46.7c-0.1-18.6,19.7-34,5.5-52.7c-9.1-12-27.8-14.8-41.4-17.3C-7.2-255.5-63-258.1-53-204.6z"/>
<g>
	<g>
		
			<rect x="9.2" y="-199.3" transform="matrix(5.343187e-02 -0.9986 0.9986 5.343187e-02 194.2619 -128.7665)" class="st3" width="40" height="64.8"/>
	</g>
	<g class="st11">
		<g>
			<polygon class="st0" points="61.9,-171.4 62.6,-185.1 41.7,-186.2 			"/>
		</g>
		<g>
			<path class="st0" d="M1-188.4l-3.1-0.2l-0.1,1.4C-1.1-187.6-0.1-188,1-188.4z"/>
		</g>
	</g>
	<g>
		
			<rect x="-10" y="-189.9" transform="matrix(0.9973 -7.317656e-02 7.317656e-02 0.9973 12.4958 1.187)" class="st2" width="64.8" height="40"/>
	</g>
	<g class="st11">
		<path class="st0" d="M23.3-187.6l32,22.4l-2-27.1l-33.2,2.4C22-188.4,23.3-187.6,23.3-187.6z"/>
	</g>
	<g>
		<path class="st4" d="M47.5-164.4c0,2.6-2.3,4.7-4.9,4.7h-73.3c-2.6,0-4.7-2.1-4.7-4.7V-215c0-2.6,2.1-4.6,4.7-4.6h73.3
			c2.6,0,4.9,2.1,4.9,4.6V-164.4z"/>
	</g>
	<g>
		<path class="st5" d="M-33.8-204.7c0,0.9-0.7,1.6-1.6,1.6h0c-0.9,0-1.6-0.7-1.6-1.6v-6.9c0-0.9,0.7-1.6,1.6-1.6h0
			c0.9,0,1.6,0.7,1.6,1.6V-204.7z"/>
	</g>
	<g>
		<path class="st5" d="M-33.8-169.7c0,0.9-0.7,1.6-1.6,1.6h0c-0.9,0-1.6-0.7-1.6-1.6v-6.9c0-0.9,0.7-1.6,1.6-1.6h0
			c0.9,0,1.6,0.7,1.6,1.6V-169.7z"/>
	</g>
	<g>
		<rect x="-25.8" y="-211.2" class="st3" width="66.3" height="43.4"/>
	</g>
	<g class="st11">
		<polygon class="st0" points="27,-196.6 47.1,-181.8 47.1,-196.9 		"/>
	</g>
	<g>
		<path class="st5" d="M-21.1-195.3c-2.8-0.1-5.1-4.8-5.1-4.8v9v9.1c0,0,2.3-4.7,5.1-4.8c2.6-0.1,4.9-1.4,5.1-4.2
			C-16.2-193.9-18.5-195.2-21.1-195.3z"/>
	</g>
	<g>
		<path class="st0" d="M-24.6-183.4c0,0.9-0.7,1.7-1.5,1.7h-0.1c-0.9,0-1.6-0.8-1.6-1.7V-199c0-0.9,0.7-1.7,1.6-1.7h0.1
			c0.9,0,1.5,0.8,1.5,1.7V-183.4z"/>
	</g>
	<g>
		<path class="st5" d="M54-199.8c0,1.9-1.6,3.5-3.5,3.5H27.9c-1.9,0-3.5-1.6-3.5-3.5v-18.6c0-1.9,1.6-3.5,3.5-3.5h22.6
			c1.9,0,3.5,1.6,3.5,3.5V-199.8z"/>
	</g>
	<g>
		<path class="st6" d="M54-202.6c0,1.9-1.6,3.5-3.5,3.5H27.9c-1.9,0-3.5-1.6-3.5-3.5v-22c0-1.9,1.6-3.5,3.5-3.5h22.6
			c1.9,0,3.5,1.6,3.5,3.5V-202.6z"/>
	</g>
	<g>
		<path class="st2" d="M51.5-221.3c0,1.6-1.6,2.7-3.5,2.7H30.5c-1.9,0-3.5-1.1-3.5-2.7v-0.2c0-1.6,1.6-3,3.5-3H48
			c1.9,0,3.5,1.4,3.5,3V-221.3z"/>
	</g>
	<g>
		<path class="st12" d="M34-208.7c0,0.4,0,0.5-0.4,0.5h-4.5c-0.4,0-0.5-0.1-0.5-0.5v-4.6c0-0.4,0.1-0.7,0.5-0.7h4.5
			c0.4,0,0.4,0.3,0.4,0.7V-208.7z"/>
	</g>
	<g>
		<path class="st12" d="M34-201.7c0,0.4,0,0.5-0.4,0.5h-4.5c-0.4,0-0.5-0.1-0.5-0.5v-4.6c0-0.4,0.1-0.6,0.5-0.6h4.5
			c0.4,0,0.4,0.2,0.4,0.6V-201.7z"/>
	</g>
	<g>
		<path class="st12" d="M42.1-208.7c0,0.4-0.2,0.5-0.6,0.5H37c-0.4,0-0.3-0.1-0.3-0.5v-4.6c0-0.4-0.1-0.7,0.3-0.7h4.5
			c0.4,0,0.6,0.3,0.6,0.7V-208.7z"/>
	</g>
	<g>
		<path class="st12" d="M42.1-201.7c0,0.4-0.2,0.5-0.6,0.5H37c-0.4,0-0.3-0.1-0.3-0.5v-4.6c0-0.4-0.1-0.6,0.3-0.6h4.5
			c0.4,0,0.6,0.2,0.6,0.6V-201.7z"/>
	</g>
	<g>
		<path class="st13" d="M49.8-202.2c0,0.4-0.1,0.6-0.5,0.6h-4.5c-0.4,0-0.4-0.2-0.4-0.6v-11c0-0.4,0-0.7,0.4-0.7h4.5
			c0.4,0,0.5,0.3,0.5,0.7V-202.2z"/>
	</g>
	<g>
		<path class="st12" d="M76.2-177.4c0,1.6-0.7,2.9-2.3,2.9l0,0c-1.6,0-2.3-1.3-2.3-2.9L70.9-211c0-1.6,1.3-2.9,2.9-2.9l0,0
			c1.6,0,2.9,1.3,2.9,2.9L76.2-177.4z"/>
	</g>
	<g>
		<polygon class="st5" points="71.6,-175.7 73.7,-168.5 75.9,-175.7 		"/>
	</g>
	<g>
		<path class="st14" d="M76.5-197.1l0.2-13.8c0-1.6-1.3-2.9-2.9-2.9c-1.6,0-2.9,1.3-2.9,3l0.2,13.8H76.5z"/>
	</g>
	<g>
		<path class="st3" d="M78.3-195.5C78.3-195.5,78.3-195.5,78.3-195.5c-0.3,0-0.5-0.3-0.5-0.6c0-0.1,0.2-11.5,0.2-12.9
			c0-0.3-0.1-0.4-0.1-0.4c-0.2-0.2-0.8-0.2-1-0.1c-0.3,0.1-0.5-0.1-0.6-0.4c-0.1-0.3,0.1-0.5,0.4-0.6c0.1,0,1.2-0.2,1.9,0.3
			c0.2,0.2,0.5,0.5,0.5,1.2c0,1.4-0.2,12.5-0.2,12.9C78.8-195.8,78.6-195.5,78.3-195.5z"/>
	</g>
	<g>
		<path class="st0" d="M21.2-170.3c0,0.2-0.2,0.4-0.4,0.4H9.5c-0.2,0-0.4-0.2-0.4-0.4v-3c0-0.2,0.2-0.4,0.4-0.4h11.3
			c0.2,0,0.4,0.2,0.4,0.4V-170.3z M10-170.7h10.5v-2.2H10V-170.7z"/>
	</g>
	<g>
		<path class="st0" d="M36-170.3c0,0.2-0.2,0.4-0.4,0.4h-18c-0.2,0-0.4-0.2-0.4-0.4v-3c0-0.2,0.2-0.4,0.4-0.4h18
			c0.2,0,0.4,0.2,0.4,0.4V-170.3z M17.9-170.7h17.5v-2.2H17.9V-170.7z"/>
	</g>
	<g>
		<path class="st0" d="M28.9-176.4H-13c-0.2,0-0.4-0.2-0.4-0.5c0-0.2,0.2-0.5,0.4-0.5h41.5v-17.8c0-0.2,0.2-0.4,0.4-0.4
			c0.2,0,0.4,0.2,0.4,0.4v18.2C29.3-176.7,29.1-176.4,28.9-176.4z"/>
	</g>
	<g>
		<polygon class="st13" points="-9.2,-180.1 -10.8,-182.1 0.9,-191.6 7.8,-189.4 17.1,-201.3 19.1,-199.8 8.7,-186.5 1.5,-188.8 		
			"/>
	</g>
	<g>
		<polygon class="st13" points="18.4,-193.4 17.7,-200.1 10.9,-198.7 10.4,-201.2 19.9,-203.1 20.9,-193.6 		"/>
	</g>
	<g>
		<g>
			<path class="st0" d="M-7.6-181.6c-0.2,0-0.4-0.2-0.4-0.4v-1.3c0-0.2,0.2-0.4,0.4-0.4c0.2,0,0.4,0.2,0.4,0.4v1.3
				C-7.3-181.8-7.4-181.6-7.6-181.6z"/>
		</g>
		<g>
			<path class="st0" d="M-7.6-179.1c-0.2,0-0.4-0.2-0.4-0.4v-1.3c0-0.2,0.2-0.4,0.4-0.4c0.2,0,0.4,0.2,0.4,0.4v1.3
				C-7.3-179.3-7.4-179.1-7.6-179.1z"/>
		</g>
		<g>
			<path class="st0" d="M-7.6-176.6c-0.2,0-0.4-0.2-0.4-0.4v-1c0-0.2,0.2-0.4,0.4-0.4c0.2,0,0.4,0.2,0.4,0.4v1
				C-7.3-176.8-7.4-176.6-7.6-176.6z"/>
		</g>
	</g>
	<g>
		<g>
			<path class="st0" d="M1.5-188.9c-0.2,0-0.3-0.2-0.3-0.4v-1c0-0.2,0.1-0.4,0.3-0.4c0.2,0,0.3,0.2,0.3,0.4v1
				C1.7-189.1,1.7-188.9,1.5-188.9z"/>
		</g>
		<g>
			<path class="st0" d="M1.5-179.9c-0.2,0-0.3-0.2-0.3-0.4v-2.3c0-0.2,0.1-0.4,0.3-0.4c0.2,0,0.3,0.2,0.3,0.4v2.3
				C1.7-180.1,1.7-179.9,1.5-179.9z M1.5-184.4c-0.2,0-0.3-0.2-0.3-0.4v-2.3c0-0.2,0.1-0.4,0.3-0.4c0.2,0,0.3,0.2,0.3,0.4v2.3
				C1.7-184.6,1.7-184.4,1.5-184.4z"/>
		</g>
		<g>
			<path class="st0" d="M1.5-177.1c-0.2,0-0.3-0.2-0.3-0.4v-1c0-0.2,0.1-0.4,0.3-0.4c0.2,0,0.3,0.2,0.3,0.4v1
				C1.7-177.3,1.7-177.1,1.5-177.1z"/>
		</g>
	</g>
	<g>
		<g>
			<path class="st0" d="M8.3-188.9c-0.2,0-0.3-0.2-0.3-0.4v-1c0-0.2,0.1-0.4,0.3-0.4c0.2,0,0.3,0.2,0.3,0.4v1
				C8.6-189.1,8.5-188.9,8.3-188.9z"/>
		</g>
		<g>
			<path class="st0" d="M8.3-179.9c-0.2,0-0.3-0.2-0.3-0.4v-2.3c0-0.2,0.1-0.4,0.3-0.4c0.2,0,0.3,0.2,0.3,0.4v2.3
				C8.6-180.1,8.5-179.9,8.3-179.9z M8.3-184.4c-0.2,0-0.3-0.2-0.3-0.4v-2.3c0-0.2,0.1-0.4,0.3-0.4c0.2,0,0.3,0.2,0.3,0.4v2.3
				C8.6-184.6,8.5-184.4,8.3-184.4z"/>
		</g>
		<g>
			<path class="st0" d="M8.3-177.1c-0.2,0-0.3-0.2-0.3-0.4v-1c0-0.2,0.1-0.4,0.3-0.4c0.2,0,0.3,0.2,0.3,0.4v1
				C8.6-177.3,8.5-177.1,8.3-177.1z"/>
		</g>
	</g>
	<g>
		<g>
			<path class="st0" d="M17.6-198.2c-0.2,0-0.4-0.2-0.4-0.4v-1c0-0.2,0.2-0.4,0.4-0.4c0.2,0,0.4,0.2,0.4,0.4v1
				C17.9-198.4,17.8-198.2,17.6-198.2z"/>
		</g>
		<g>
			<path class="st0" d="M17.6-180.1c-0.2,0-0.4-0.2-0.4-0.4v-2.3c0-0.2,0.2-0.4,0.4-0.4c0.2,0,0.4,0.2,0.4,0.4v2.3
				C17.9-180.3,17.8-180.1,17.6-180.1z M17.6-184.7c-0.2,0-0.4-0.2-0.4-0.4v-2.3c0-0.2,0.2-0.4,0.4-0.4c0.2,0,0.4,0.2,0.4,0.4v2.3
				C17.9-184.8,17.8-184.7,17.6-184.7z M17.6-189.2c-0.2,0-0.4-0.2-0.4-0.4v-2.3c0-0.2,0.2-0.4,0.4-0.4c0.2,0,0.4,0.2,0.4,0.4v2.3
				C17.9-189.4,17.8-189.2,17.6-189.2z M17.6-193.7c-0.2,0-0.4-0.2-0.4-0.4v-2.3c0-0.2,0.2-0.4,0.4-0.4c0.2,0,0.4,0.2,0.4,0.4v2.3
				C17.9-193.9,17.8-193.7,17.6-193.7z"/>
		</g>
		<g>
			<path class="st0" d="M17.6-177.1c-0.2,0-0.4-0.2-0.4-0.4v-1.3c0-0.2,0.2-0.4,0.4-0.4c0.2,0,0.4,0.2,0.4,0.4v1.3
				C17.9-177.3,17.8-177.1,17.6-177.1z"/>
		</g>
	</g>
</g>
<g>
	<path class="st0" d="M129.4-199.7c-14.6,8.9-25.3,21.8-22.4,40c2.5,15.4,14.9,25.2,17.1,41.2c2.8,21,9.2,29.9,31.8,31.9
		c18.8,1.6,33.8-1.7,41.2-20.1c6.7-16.8,5.1-36.3,7.8-54.1c2.3-15,14.9-41.1,10-55.8c-5.1-15.2-29.8-16.2-42.5-12.1
		C157.6-224,142.8-208,129.4-199.7z"/>
	<g>
		<g>
			<path class="st4" d="M156.7-138.9l-0.1,1.7l-0.1-1.7l-22,1l5.1,24.7c0,0,2.9,7.5,9,7.7c3.5,0.1,6.3,0.1,7.9,0.1
				c1.7,0,4.4,0.1,7.9-0.1c6.1-0.2,9-7.7,9-7.7l5.1-24.7L156.7-138.9z"/>
		</g>
		<g>
			<path class="st3" d="M148.7-105.1C148.7-105.1,148.6-105.1,148.7-105.1c-4-0.4-6-9.8-6.1-10.2l0,0l-3.2-21.6
				c0-0.2,0.1-0.4,0.4-0.5c0.2,0,0.4,0.1,0.5,0.4l3.1,21.6c0.5,2.6,2.5,9.2,5.3,9.5c0.2,0,0.4,0.2,0.4,0.5
				C149.1-105.2,148.9-105.1,148.7-105.1z"/>
		</g>
		<g>
			<path class="st3" d="M151.2-105.1c0,0-0.1,0-0.1,0c-1.5-0.4-2.6-2.2-3.4-5.3c-0.6-2.3-0.7-4.4-0.7-4.5l-0.8-22.1
				c0-0.2,0.2-0.4,0.4-0.4c0.2,0,0.4,0.2,0.4,0.4l0.8,22.1c0.2,2.3,1.1,8.4,3.5,9.1c0.2,0.1,0.4,0.3,0.3,0.5
				C151.5-105.2,151.3-105.1,151.2-105.1z"/>
		</g>
		<g>
			<path class="st3" d="M153.5-104.9c-0.1,0-0.3-0.1-0.3-0.2c-1.3-1.8-1.3-7.6-1.3-7.8L152-137c0-0.2,0.2-0.4,0.4-0.4
				c0.2,0,0.4,0.2,0.4,0.4l-0.2,24.2c0,1.6,0.2,6,1.2,7.3c0.1,0.2,0.1,0.4-0.1,0.6C153.6-104.9,153.5-104.9,153.5-104.9z"/>
		</g>
		<g>
			<path class="st3" d="M163.5-105.1c-0.2,0-0.4-0.2-0.4-0.4c0-0.2,0.1-0.4,0.4-0.5c2.8-0.3,4.8-7,5.3-9.5l3.1-21.6
				c0-0.2,0.2-0.4,0.5-0.4c0.2,0,0.4,0.2,0.4,0.5l-3.2,21.7C169.5-114.9,167.5-105.5,163.5-105.1
				C163.5-105.1,163.5-105.1,163.5-105.1z"/>
		</g>
		<g>
			<path class="st3" d="M161-105.1c-0.2,0-0.4-0.1-0.4-0.3c-0.1-0.2,0.1-0.5,0.3-0.5c2.3-0.6,3.3-6.8,3.5-9.1l0.8-22
				c0-0.2,0.2-0.4,0.4-0.4c0.2,0,0.4,0.2,0.4,0.4l-0.8,22.1c0,0.1-0.2,2.2-0.7,4.5c-0.8,3.2-1.9,5-3.4,5.3
				C161.1-105.1,161.1-105.1,161-105.1z"/>
		</g>
		<g>
			<path class="st3" d="M158.7-104.9c-0.1,0-0.2,0-0.3-0.1c-0.2-0.1-0.2-0.4-0.1-0.6c1-1.3,1.2-5.7,1.2-7.3l-0.2-24.2
				c0-0.2,0.2-0.4,0.4-0.4c0,0,0,0,0,0c0.2,0,0.4,0.2,0.4,0.4l0.2,24.2c0,0.2,0,6-1.3,7.8C159-104.9,158.8-104.9,158.7-104.9z"/>
		</g>
		<g class="st15">
			<path class="st0" d="M158.9-138.8l11.3,30.6c2.2-2.2,3.4-5.1,3.4-5.1l5.1-24.7L158.9-138.8z"/>
		</g>
		<g>
			<path class="st5" d="M157.8-146.4c0,0.7-0.6,1.3-1.3,1.3h0c-0.7,0-1.3-0.6-1.3-1.3V-205c0-0.7,0.6-1.3,1.3-1.3h0
				c0.7,0,1.3,0.6,1.3,1.3V-146.4z"/>
		</g>
		<g>
			<path class="st12" d="M183.9-145.2c0,1.4-1.1,2.6-2.5,2.6h-50c-1.4,0-2.5-1.2-2.5-2.6v-0.4c0-1.4,1.1-2.5,2.5-2.5h50
				c1.4,0,2.5,1.1,2.5,2.5V-145.2z"/>
		</g>
		<g>
			<path class="st14" d="M180.1-140c0,1.4-1.1,2.5-2.5,2.5h-42.2c-1.4,0-2.5-1.1-2.5-2.5l-4-0.4c0-1.4,1.1-2.5,2.5-2.5h50
				c1.4,0,2.5,1.2,2.5,2.5L180.1-140z"/>
		</g>
		<g>
			<g>
				<g>
					<path class="st3" d="M144.7-186c-0.2,0-0.4-0.2-0.4-0.4v-1.9c0-0.2,0.2-0.4,0.4-0.4c0.2,0,0.4,0.2,0.4,0.4v1.9
						C145.1-186.1,144.9-186,144.7-186z"/>
				</g>
				<g>
					<path class="st3" d="M144.7-180.9c-0.2,0-0.4-0.2-0.4-0.4v-2.1c0-0.2,0.2-0.4,0.4-0.4c0.2,0,0.4,0.2,0.4,0.4v2.1
						C145.1-181.1,144.9-180.9,144.7-180.9z"/>
				</g>
			</g>
			<g>
				<g>
					<path class="st3" d="M148-184.4h-1.9c-0.2,0-0.4-0.2-0.4-0.4s0.2-0.4,0.4-0.4h1.9c0.2,0,0.4,0.2,0.4,0.4S148.2-184.4,148-184.4
						z"/>
				</g>
				<g>
					<path class="st3" d="M143.2-184.4h-2.1c-0.2,0-0.4-0.2-0.4-0.4s0.2-0.4,0.4-0.4h2.1c0.2,0,0.4,0.2,0.4,0.4
						S143.4-184.4,143.2-184.4z"/>
				</g>
			</g>
		</g>
		<g>
			<g>
				<g>
					<path class="st3" d="M197.4-197.5c-0.2,0-0.4-0.2-0.4-0.4v-1.9c0-0.2,0.2-0.4,0.4-0.4s0.4,0.2,0.4,0.4v1.9
						C197.8-197.7,197.6-197.5,197.4-197.5z"/>
				</g>
				<g>
					<path class="st3" d="M197.4-192.5c-0.2,0-0.4-0.2-0.4-0.4v-2.1c0-0.2,0.2-0.4,0.4-0.4s0.4,0.2,0.4,0.4v2.1
						C197.8-192.7,197.6-192.5,197.4-192.5z"/>
				</g>
			</g>
			<g>
				<g>
					<path class="st3" d="M200.7-196.1h-1.9c-0.2,0-0.4-0.2-0.4-0.4s0.2-0.4,0.4-0.4h1.9c0.2,0,0.4,0.2,0.4,0.4
						S201-196.1,200.7-196.1z"/>
				</g>
				<g>
					<path class="st3" d="M195.9-196.1h-2.1c-0.2,0-0.4-0.2-0.4-0.4s0.2-0.4,0.4-0.4h2.1c0.2,0,0.4,0.2,0.4,0.4
						S196.1-196.1,195.9-196.1z"/>
				</g>
			</g>
		</g>
		<g>
			<g>
				<g>
					<path class="st3" d="M169.8-210.3c-0.2,0-0.4-0.2-0.4-0.4v-1.9c0-0.2,0.2-0.4,0.4-0.4c0.2,0,0.4,0.2,0.4,0.4v1.9
						C170.2-210.5,170-210.3,169.8-210.3z"/>
				</g>
				<g>
					<path class="st3" d="M169.8-205.3c-0.2,0-0.4-0.2-0.4-0.4v-2.1c0-0.2,0.2-0.4,0.4-0.4c0.2,0,0.4,0.2,0.4,0.4v2.1
						C170.2-205.5,170-205.3,169.8-205.3z"/>
				</g>
			</g>
			<g>
				<g>
					<path class="st3" d="M173.2-208.8h-1.9c-0.2,0-0.4-0.2-0.4-0.4c0-0.2,0.2-0.4,0.4-0.4h1.9c0.2,0,0.4,0.2,0.4,0.4
						C173.6-209,173.4-208.8,173.2-208.8z"/>
				</g>
				<g>
					<path class="st3" d="M168.4-208.8h-2.1c-0.2,0-0.4-0.2-0.4-0.4c0-0.2,0.2-0.4,0.4-0.4h2.1c0.2,0,0.4,0.2,0.4,0.4
						C168.8-209,168.6-208.8,168.4-208.8z"/>
				</g>
			</g>
		</g>
		<g>
			<g>
				<path class="st6" d="M157.2-151.5c0,0-1.2-27.7-32.1-30C125.1-181.6,129.6-149.8,157.2-151.5z"/>
			</g>
			<g>
				<path class="st3" d="M156.1-152.1c-0.1,0-0.2-0.1-0.3-0.2c-5.6-6.7-13.7-14.2-19.6-19.4c-6.3-5.6-11.4-9.6-11.5-9.7
					c-0.2-0.1-0.2-0.4-0.1-0.6c0.1-0.2,0.4-0.2,0.6-0.1c0.1,0,5.1,4.1,11.5,9.7c5.9,5.2,14,12.7,19.6,19.4c0.1,0.2,0.1,0.4-0.1,0.6
					C156.3-152.1,156.2-152.1,156.1-152.1z"/>
			</g>
			<g>
				<path class="st3" d="M141.6-167c-0.1,0-0.1,0-0.2,0c-5.9-2.6-10.8-0.7-10.8-0.6c-0.2,0.1-0.5,0-0.5-0.2c-0.1-0.2,0-0.5,0.2-0.5
					c0.2-0.1,5.3-2.1,11.5,0.7c0.2,0.1,0.3,0.3,0.2,0.6C141.9-167.1,141.7-167,141.6-167z"/>
			</g>
			<g>
				<path class="st3" d="M147.1-161.8c-0.2,0-0.3-0.1-0.4-0.3c-1.7-4.5,0.9-9.7,1-9.9c0.1-0.2,0.4-0.3,0.6-0.2
					c0.2,0.1,0.3,0.4,0.2,0.6c0,0.1-2.5,5.1-1,9.2c0.1,0.2,0,0.5-0.2,0.5C147.2-161.8,147.1-161.8,147.1-161.8z"/>
			</g>
			<g>
				<path class="st3" d="M140.6-155.3c-0.2,0-0.3-0.1-0.4-0.3c-0.1-0.2,0.1-0.5,0.3-0.5c0.4-0.1,8.6-2.6,12.1-0.8
					c0.2,0.1,0.3,0.4,0.2,0.6c-0.1,0.2-0.4,0.3-0.6,0.2c-3.2-1.7-11.4,0.8-11.5,0.8C140.7-155.3,140.6-155.3,140.6-155.3z"/>
			</g>
		</g>
		<g>
			<g>
				<path class="st5" d="M156.8-147.5c0,0,1.1-26,30.1-28.2C186.9-175.7,182.7-145.8,156.8-147.5z"/>
			</g>
			<g>
				<path class="st3" d="M157.8-148c-0.1,0-0.2,0-0.2-0.1c-0.2-0.1-0.2-0.4,0-0.5c5.3-6.3,12.9-13.4,18.4-18.3
					c6-5.3,10.7-9.1,10.8-9.1c0.2-0.1,0.4-0.1,0.5,0.1c0.1,0.2,0.1,0.4-0.1,0.5c0,0-4.8,3.8-10.8,9.1c-5.5,4.8-13.1,11.9-18.4,18.2
					C158-148,157.9-148,157.8-148z"/>
			</g>
			<g>
				<path class="st3" d="M171.5-162c-0.1,0-0.3-0.1-0.3-0.2c-0.1-0.2,0-0.4,0.2-0.5c5.8-2.6,10.6-0.7,10.8-0.6
					c0.2,0.1,0.3,0.3,0.2,0.5c-0.1,0.2-0.3,0.3-0.5,0.2l0,0c0,0-4.6-1.9-10.2,0.6C171.6-162,171.5-162,171.5-162z"/>
			</g>
			<g>
				<path class="st3" d="M166.3-157.1c0,0-0.1,0-0.1,0c-0.2-0.1-0.3-0.3-0.2-0.5c1.4-3.9-0.9-8.6-0.9-8.7c-0.1-0.2,0-0.4,0.2-0.5
					c0.2-0.1,0.4,0,0.5,0.2c0.1,0.2,2.5,5.1,0.9,9.3C166.6-157.2,166.4-157.1,166.3-157.1z"/>
			</g>
			<g>
				<path class="st3" d="M172.4-151c0,0-0.1,0-0.1,0c-0.1,0-7.8-2.4-10.8-0.8c-0.2,0.1-0.4,0-0.5-0.2c-0.1-0.2,0-0.4,0.2-0.5
					c3.3-1.7,11,0.6,11.4,0.7c0.2,0.1,0.3,0.3,0.2,0.5C172.7-151.1,172.5-151,172.4-151z"/>
			</g>
		</g>
		<g>
			<g>
				<rect x="157.8" y="-196.9" class="st13" width="31.8" height="14.7"/>
			</g>
			<g>
				<path class="st3" d="M186-183.4h-24.8l0-0.4c0-1-0.7-1.8-1.6-2.1l-0.3-0.1v-7.4l0.3-0.1c0.9-0.3,1.5-1,1.6-1.9l0-0.4H186l0,0.4
					c0.1,1,0.8,1.8,1.7,2l0.3,0.1v7.3l-0.3,0.1c-1,0.2-1.7,1.1-1.8,2.1L186-183.4z M162-184.2h23.2c0.2-1.2,1-2.1,2-2.4v-6
					c-1-0.4-1.8-1.2-2-2.2H162c-0.2,1-0.8,1.7-1.8,2.1v6.2C161.2-186.2,161.8-185.2,162-184.2z"/>
			</g>
			<g>
				<path class="st3" d="M177.8-189.8c0,2.2-1.8,4-4,4c-2.2,0-4-1.8-4-4c0-2.2,1.8-4,4-4C176-193.8,177.8-192,177.8-189.8z"/>
			</g>
			<g>
				<g>
					<path class="st4" d="M174.1-192.9v0.7c0.4,0,0.8,0.2,1.1,0.3l-0.4,0.9c-0.3-0.2-0.5-0.3-0.7-0.3c-0.2,0-0.3,0-0.4,0.1
						c-0.1,0.1-0.1,0.1-0.1,0.2c0,0.1,0,0.2,0.1,0.2c0.1,0.1,0.2,0.1,0.3,0.2l0.4,0.1c0.4,0.1,0.7,0.3,0.8,0.5
						c0.2,0.2,0.3,0.5,0.3,0.8c0,0.2,0,0.4-0.1,0.5c0,0.1-0.1,0.3-0.2,0.4c-0.1,0.1-0.2,0.2-0.4,0.3c-0.2,0.1-0.4,0.2-0.6,0.2v0.7
						h-0.5v-0.7c-0.1,0-0.3,0-0.4,0c-0.1,0-0.3-0.1-0.4-0.1c-0.1,0-0.3-0.1-0.4-0.2c-0.1-0.1-0.2-0.1-0.3-0.2l0.5-0.9
						c0.4,0.3,0.7,0.5,1.1,0.5c0.1,0,0.3,0,0.4-0.1c0.1-0.1,0.2-0.2,0.2-0.3c0-0.2-0.1-0.3-0.4-0.4l-0.3-0.1
						c-0.2-0.1-0.4-0.1-0.5-0.2c-0.1-0.1-0.3-0.2-0.4-0.3c-0.1-0.1-0.2-0.2-0.2-0.3c0-0.1-0.1-0.3-0.1-0.4c0-0.2,0-0.3,0.1-0.5
						c0-0.2,0.1-0.3,0.2-0.4c0.1-0.1,0.2-0.2,0.4-0.3c0.2-0.1,0.3-0.1,0.5-0.2v-0.7H174.1z"/>
				</g>
			</g>
			<g>
				<path class="st16" d="M166.5-190c0,0.3-0.2,0.4-0.5,0.4h-2.2c-0.3,0-0.5-0.1-0.5-0.4v-0.1c0-0.3,0.2-0.5,0.5-0.5h2.2
					c0.3,0,0.5,0.2,0.5,0.5V-190z"/>
			</g>
			<g>
				<path class="st16" d="M184.4-190c0,0.3-0.3,0.4-0.5,0.4h-2.2c-0.3,0-0.4-0.1-0.4-0.4v-0.1c0-0.3,0.2-0.5,0.4-0.5h2.2
					c0.3,0,0.5,0.2,0.5,0.5V-190z"/>
			</g>
			<g class="st11">
				<polygon class="st0" points="189.6,-182.2 177.4,-182.2 172.2,-196.9 189.6,-196.9 				"/>
			</g>
		</g>
		<g>
			<g>
				<rect x="123.4" y="-206.8" class="st13" width="31.8" height="14.7"/>
			</g>
			<g>
				<path class="st3" d="M151.6-193.3h-24.8l0-0.4c0-1-0.7-1.8-1.6-2.1l-0.3-0.1v-7.4l0.3-0.1c0.9-0.3,1.5-1,1.6-1.9l0-0.3h24.7
					l0,0.3c0.1,1,0.8,1.8,1.8,2l0.3,0.1v7.3l-0.3,0.1c-1,0.2-1.7,1.1-1.8,2.1L151.6-193.3z M127.6-194.1h23.2c0.2-1.2,1-2.1,2-2.5
					v-6c-1-0.4-1.8-1.2-2-2.2h-23.3c-0.2,0.8-1,1.7-1.8,2.1v6.2C126.7-196.1,127.4-195.1,127.6-194.1z"/>
			</g>
			<g>
				
					<ellipse transform="matrix(0.1759 -0.9844 0.9844 0.1759 311.4419 -27.3479)" class="st3" cx="139.4" cy="-199.7" rx="4" ry="4"/>
			</g>
			<g>
				<g>
					<path class="st4" d="M139.6-202.8v0.7c0.4,0,0.8,0.2,1.1,0.3l-0.4,0.9c-0.3-0.2-0.5-0.3-0.7-0.3c-0.2,0-0.3,0-0.4,0.1
						c-0.1,0.1-0.1,0.1-0.1,0.2c0,0.1,0,0.2,0.1,0.2c0.1,0.1,0.2,0.1,0.3,0.2l0.4,0.1c0.4,0.1,0.7,0.3,0.8,0.5
						c0.2,0.2,0.3,0.5,0.3,0.8c0,0.2,0,0.4-0.1,0.5c0,0.1-0.1,0.3-0.2,0.4c-0.1,0.1-0.2,0.2-0.4,0.3c-0.2,0.1-0.4,0.2-0.6,0.2v0.7
						h-0.5v-0.7c-0.1,0-0.3,0-0.4,0c-0.1,0-0.3-0.1-0.4-0.1c-0.1,0-0.3-0.1-0.4-0.2c-0.1-0.1-0.2-0.1-0.3-0.2l0.5-0.9
						c0.4,0.3,0.7,0.5,1.1,0.5c0.1,0,0.3,0,0.4-0.1c0.1-0.1,0.2-0.2,0.2-0.3c0-0.2-0.1-0.3-0.4-0.4l-0.3-0.1
						c-0.2-0.1-0.4-0.1-0.5-0.2c-0.1-0.1-0.3-0.2-0.4-0.3c-0.1-0.1-0.2-0.2-0.2-0.3c0-0.1-0.1-0.3-0.1-0.4c0-0.2,0-0.3,0.1-0.5
						c0-0.2,0.1-0.3,0.2-0.4c0.1-0.1,0.2-0.2,0.4-0.3c0.2-0.1,0.3-0.1,0.5-0.2v-0.7H139.6z"/>
				</g>
			</g>
			<g>
				<path class="st16" d="M132.1-199.9c0,0.3-0.2,0.5-0.5,0.5h-2.2c-0.3,0-0.5-0.2-0.5-0.5v-0.1c0-0.3,0.2-0.5,0.5-0.5h2.2
					C131.9-200.5,132.1-200.2,132.1-199.9L132.1-199.9z"/>
			</g>
			<g>
				<path class="st16" d="M150-199.9c0,0.3-0.2,0.5-0.5,0.5h-2.2c-0.3,0-0.5-0.2-0.5-0.5v-0.1c0-0.3,0.2-0.5,0.5-0.5h2.2
					C149.8-200.5,150-200.2,150-199.9L150-199.9z"/>
			</g>
			<g class="st11">
				<polygon class="st0" points="155.2,-192.1 143,-192.1 137.7,-206.8 155.2,-206.8 				"/>
			</g>
		</g>
	</g>
</g>
</svg>
