<?xml version="1.0" encoding="utf-8"?>
<!-- Generator: Adobe Illustrator 28.0.0, SVG Export Plug-In . SVG Version: 6.00 Build 0)  -->
<svg version="1.1" id="Layer_1" xmlns="http://www.w3.org/2000/svg" xmlns:xlink="http://www.w3.org/1999/xlink" x="0px" y="0px"
	 viewBox="0 0 140 167" style="enable-background:new 0 0 140 167;" xml:space="preserve">
<style type="text/css">
	.st0{fill:#A1E5F8;stroke:#A1E5F8;stroke-miterlimit:10;}
	.st1{fill:none;}
	.st2{fill:#FFFFFF;stroke:#A1E5F8;stroke-width:0.75;stroke-miterlimit:10;}
	.st3{fill:#77BDD7;}
	.st4{fill:#EBFFFF;}
	.st5{fill:#2308B5;}
	.st6{fill:#E2272D;}
	.st7{fill:#E7ABC5;}
	.st8{fill:#EBFFFF;stroke:#77BDD7;stroke-width:1.5044;stroke-miterlimit:10.0001;}
	.st9{fill:#00B5D8;stroke:#00B5D8;stroke-width:0.6686;stroke-miterlimit:10;}
	.st10{opacity:0.18;fill:#D0F2FB;enable-background:new    ;}
	.st11{opacity:0.21;fill:#A1E5F8;enable-background:new    ;}
	.st12{fill:#A1E5F8;}
	.st13{opacity:0.5;}
	.st14{fill:#2795ED;}
	.st15{fill:#00B5D8;}
	.st16{fill:#0032CC;}
	.st17{opacity:0.7;}
	.st18{fill:#F2FFFF;}
</style>
<path class="st0" d="M44,26.3C13.5,34.8,1.8,77,9.2,103.9c3.7,13.4,14.3,37.2,27,44.3c14.1,7.9,27.4-2.8,37.4-12.1
	c14.2-13.2,27.6-27.3,41.4-40.9c10.7-10.6,21.9-17.5,12.5-32.4C111.7,37.6,73.1,18.1,44,26.3z"/>
<polygon class="st1" points="69.1,83.5 69.1,98.2 81,90.9 "/>
<polygon class="st1" points="72,99.1 94.4,99.1 83.2,92.2 "/>
<polygon class="st1" points="89.1,116.9 89.1,111.9 85.3,114.4 "/>
<polygon class="st1" points="94.4,82.6 72,82.6 83.2,89.5 "/>
<path class="st1" d="M77.3,125.1v-2.4h10.4c0.8-0.8,1.6-1.6,2.4-2.4h-14c-0.7,0-1.2-0.5-1.2-1.2v-9.4c0-0.7,0.5-1.2,1.2-1.2h14.2
	c0.6,0,1.1,0.6,1.1,1.2v9.3c1.6-1.6,3.1-3.1,4.7-4.7v-4.6c0-0.7,0.5-1.2,1.2-1.2h4.6c4.4-4.4,8.8-8.8,13.2-13.2
	c0.4-0.4,0.9-0.9,1.3-1.3V76.7h-66v56.2l9.2-2c0.2,0,0.3,0,0.5,0l11.5,2.3l6.7-1.3c2.3-2.2,4.7-4.5,7-6.8H77.3z M79.7,106.2h-2.4
	v-2.4h2.4V106.2z M84.4,106.2H82v-2.4h2.4V106.2z M89.1,106.2h-2.4v-2.4h2.4V106.2z M93.8,106.2h-2.4v-2.4h2.4V106.2z M105.9,88.2
	l1.7-1.7l3.5,3.5c0.5,0.5,0.5,1.2,0,1.8l-3.5,3.5l-1.7-1.7l2.7-2.7L105.9,88.2z M55.3,90l3.5-3.5l1.7,1.7l-2.7,2.6l2.7,2.7l-1.7,1.7
	l-3.5-3.5C54.8,91.2,54.8,90.5,55.3,90z M67.9,125.1H56.1v-2.4h11.8V125.1z M70.2,119.1c0,0.7-0.5,1.2-1.2,1.2H54.9
	c-0.7,0-1.2-0.5-1.2-1.2v-9.4c0-0.7,0.5-1.2,1.2-1.2h14.2c0.6,0,1.1,0.6,1.1,1.2V119.1z M67.9,101.5c-0.7,0-1.2-0.5-1.2-1.2V81.5
	c0-0.7,0.5-1.2,1.2-1.2h30.6c0.7,0,1.2,0.5,1.2,1.1v18.9c0,0.7-0.5,1.2-1.2,1.2H67.9z M72.6,103.8H75v2.4h-2.4V103.8z"/>
<path class="st1" d="M98.5,111.9L98.5,111.9C98.5,111.9,98.5,111.9,98.5,111.9L98.5,111.9z"/>
<polygon class="st1" points="65.2,110.9 58.8,110.9 62,113 "/>
<polygon class="st1" points="80,118 86.4,118 83.2,115.9 "/>
<polygon class="st1" points="56.1,111.9 56.1,116.9 59.9,114.4 "/>
<polygon class="st1" points="58.8,118 65.2,118 62,115.9 "/>
<polygon class="st1" points="67.9,116.9 67.9,111.9 64.1,114.4 "/>
<polygon class="st1" points="97.3,98.2 97.3,83.6 85.4,90.9 "/>
<path class="st1" d="M44.1,26.4C13.6,34.9,1.9,77.1,9.3,104c3.7,13.4,14.3,37.2,27,44.3c14.1,7.9,27.4-2.8,37.4-12.1
	c0.5-0.5,1-0.9,1.5-1.4l-3.6,0.7c-0.2,0-0.3,0-0.5,0l-11.5-2.3l-10.4,2.3c-0.4,0.1-0.7,0-1-0.2c-0.2-0.2-0.4-0.5-0.4-0.9V66.1
	c0-0.7,0.5-1.2,1.2-1.2h68.4c0.6,0,1.1,0.6,1,1.2v26c9.5-8.9,17.6-15.9,9.2-29.2C111.8,37.7,73.2,18.2,44.1,26.4z"/>
<path class="st1" d="M50.2,74.4h66v-7.1h-66V74.4z M111.5,69.7h2.4v2.4h-2.4V69.7z M70.2,69.7h27.1v2.4H70.2V69.7z M62,69.7h2.4v2.4
	H62V69.7z M57.3,69.7h2.4v2.4h-2.4V69.7z M52.6,69.7H55v2.4h-2.4V69.7z"/>
<polygon class="st1" points="86.4,110.9 80,110.9 83.2,113 "/>
<polygon class="st1" points="77.3,111.9 77.3,116.9 81.1,114.4 "/>
<path class="st2" d="M117.4,64.9H49c-0.7,0-1.2,0.5-1.2,1.2v68.3c0,0.4,0.2,0.7,0.4,0.9c0.3,0.2,0.6,0.3,1,0.2l10.4-2.3l11.5,2.3
	c0.2,0,0.3,0,0.5,0l3.6-0.7c1-1,2.1-1.9,3.1-2.9l-6.7,1.3l-11.5-2.3c-0.2,0-0.3,0-0.5,0l-9.2,2V76.7h66V94c0.7-0.6,1.3-1.3,2-1.9
	v-26C118.5,65.5,118,64.9,117.4,64.9z M116.2,74.4h-66v-7.1h66V74.4z"/>
<rect x="52.6" y="69.7" class="st2" width="2.4" height="2.4"/>
<rect x="57.3" y="69.7" class="st2" width="2.4" height="2.4"/>
<rect x="62" y="69.7" class="st2" width="2.4" height="2.4"/>
<rect x="70.2" y="69.7" class="st2" width="27.1" height="2.4"/>
<rect x="111.5" y="69.7" class="st2" width="2.4" height="2.4"/>
<path class="st2" d="M99.7,100.3V81.4c0-0.6-0.5-1.1-1.2-1.1H67.9c-0.7,0-1.2,0.5-1.2,1.2v18.8c0,0.7,0.5,1.2,1.2,1.2h30.6
	C99.2,101.5,99.7,101,99.7,100.3z M94.4,82.6l-11.2,6.9L72,82.6H94.4z M69.1,83.5L81,90.9l-11.9,7.3V83.5z M72,99.1l11.2-6.9
	l11.2,6.9H72z M97.3,98.2l-11.9-7.3l11.9-7.3V98.2z"/>
<path class="st2" d="M107.6,95.3l3.5-3.5c0.5-0.6,0.5-1.3,0-1.8l-3.5-3.5l-1.7,1.7l2.7,2.7l-2.7,2.7L107.6,95.3z"/>
<path class="st2" d="M58.8,95.2l1.7-1.7l-2.7-2.7l2.7-2.6l-1.7-1.7L55.3,90c-0.5,0.5-0.5,1.2,0,1.7L58.8,95.2z"/>
<rect x="72.6" y="103.8" class="st2" width="2.4" height="2.4"/>
<rect x="77.3" y="103.8" class="st2" width="2.4" height="2.4"/>
<rect x="82" y="103.8" class="st2" width="2.4" height="2.4"/>
<rect x="86.7" y="103.8" class="st2" width="2.4" height="2.4"/>
<rect x="91.4" y="103.8" class="st2" width="2.4" height="2.4"/>
<path class="st2" d="M69.1,108.5H54.9c-0.7,0-1.2,0.5-1.2,1.2v9.4c0,0.7,0.5,1.2,1.2,1.2H69c0.7,0,1.2-0.5,1.2-1.2v-9.4
	C70.2,109.1,69.7,108.5,69.1,108.5z M65.2,110.9L62,113l-3.2-2.1H65.2z M56.1,111.9l3.8,2.5l-3.8,2.5V111.9z M58.8,118l3.2-2.1
	l3.2,2.1H58.8z M67.9,116.9l-3.8-2.5l3.8-2.5V116.9z"/>
<path class="st2" d="M90.3,108.5H76.1c-0.7,0-1.2,0.5-1.2,1.2v9.4c0,0.7,0.5,1.2,1.2,1.2h14c0.4-0.4,0.8-0.8,1.3-1.3v-9.3
	C91.4,109.1,90.9,108.5,90.3,108.5z M86.4,110.9l-3.2,2.1l-3.2-2.1H86.4z M77.3,111.9l3.8,2.5l-3.8,2.5V111.9z M80,118l3.2-2.1
	l3.2,2.1H80z M89.1,116.9l-3.8-2.5l3.8-2.5V116.9z"/>
<path class="st2" d="M96.1,109.7v4.6c0.8-0.8,1.6-1.6,2.4-2.4v0l0,0c1.1-1.1,2.3-2.3,3.4-3.4h-4.6C96.6,108.5,96.1,109,96.1,109.7z"
	/>
<rect x="56.1" y="122.7" class="st2" width="11.8" height="2.4"/>
<path class="st2" d="M77.3,125.1h8c0.8-0.8,1.6-1.6,2.4-2.4H77.3V125.1z"/>
<g>
	<ellipse class="st3" cx="62" cy="42.5" rx="34.1" ry="34.1"/>
</g>
<g>
	<path class="st4" d="M91.3,42.5c0,5.6-1.6,10.9-4.3,15.3c-5.2,8.4-14.4,14-25,14c-4.9,0-9.4-1.2-13.5-3.3
		c-9.4-4.9-15.9-14.7-15.9-26.1c0-16.2,13.1-29.3,29.3-29.3C78.2,13.2,91.3,26.3,91.3,42.5z"/>
</g>
<g>
	<path class="st5" d="M51.7,24.1c0,0-15.7,2-9.7,17.4c0,0,0.2,2.7-0.4,4.4c-0.5,1.6,0,5.5,2,7.3s1.5,4.8,0.2,6.6
		c0,0-0.9,2.7,0.7,5.1c0,0,19-4.4,20.9-7.3C67.2,54.6,51.7,24.1,51.7,24.1z"/>
</g>
<g>
	<path class="st6" d="M87,57.8c-5.2,8.4-14.4,14-25,14c-4.9,0-9.4-1.2-13.5-3.3C52,66.3,69.4,55.8,87,57.8z"/>
</g>
<g>
	<path class="st7" d="M46.7,31.4c0,0-3.3,5.9-1.6,11.9c1.6,6,8.6,15.2,10.2,15.7s7.3-3.8,7.3-3.8l1.8,10.4c0,0,6.8,1.3,9-1.8
		c2.2-3.1-4.4-10.4-1.8-24.5S58.6,17.3,46.7,31.4z"/>
</g>
<g>
	<path class="st5" d="M50,27.4c0,0,1.8,5.5,6,7.3s4.6,2.7,4.8,5.5c0.2,2.7,1.5,6.6,4.8,7.7c3.3,1.1,2.4,7.7,2,9.5s0.9,2.6,0.9,2.6
		l18.7-3.8c0,0-0.4-3.8-2.9-6.2c-2.6-2.4-2.7-6-2.7-9c0-2.9-2.7-3.3-4-5.1s0.9-9.7-4.6-13.7C67.4,18,46.7,16.6,50,27.4z"/>
</g>
<g>
	<path class="st5" d="M52.1,49.1l0.3-4.1c0-0.2,0.2-0.4,0.5-0.4c0.2,0,0.4,0.2,0.4,0.5L53,48l0.9-0.2c0.2-0.1,0.5,0.1,0.5,0.3
		c0.1,0.2-0.1,0.5-0.3,0.5L52.1,49.1z"/>
</g>
<g>
	<path class="st4" d="M58.8,46.5c-2.9,0-5.3-2.4-5.3-5.3c0-2.9,2.4-5.3,5.3-5.3c2.9,0,5.3,2.4,5.3,5.3
		C64.2,44.1,61.8,46.5,58.8,46.5z M58.8,36.7c-2.5,0-4.5,2-4.5,4.5s2,4.5,4.5,4.5s4.5-2,4.5-4.5S61.3,36.7,58.8,36.7z"/>
</g>
<g>
	<path class="st4" d="M47.3,48.8c-2.9,0-5.3-2.4-5.3-5.3c0-2.9,2.4-5.3,5.3-5.3c2.9,0,5.3,2.4,5.3,5.3
		C52.6,46.5,50.2,48.8,47.3,48.8z M47.3,39c-2.5,0-4.5,2-4.5,4.5s2,4.5,4.5,4.5s4.5-2,4.5-4.5S49.8,39,47.3,39z"/>
</g>
<g>
	<path class="st5" d="M54.9,53.3c-0.5,0-0.9-0.1-1.2-0.2c-0.2-0.1-0.3-0.3-0.2-0.6c0.1-0.2,0.3-0.3,0.6-0.2c0.1,0,1.5,0.7,2.7-0.7
		c0.2-0.2,0.4-0.2,0.6,0c0.2,0.2,0.2,0.4,0,0.6C56.6,53,55.6,53.3,54.9,53.3z"/>
</g>
<g>
	<path class="st5" d="M48.4,45.2L48.4,45.2c-0.8,0-1.3-0.8-1.4-0.9c-0.1-0.2,0-0.4,0.2-0.6c0.2-0.1,0.5-0.1,0.6,0.1
		c0.1,0.2,0.4,0.5,0.7,0.5l0,0c0.2,0,0.5-0.2,0.7-0.6c0.1-0.2,0.4-0.2,0.6-0.1c0.2,0.1,0.3,0.4,0.1,0.6
		C49.4,44.9,48.9,45.2,48.4,45.2z"/>
</g>
<g>
	<path class="st5" d="M58.1,42.9L58.1,42.9c-0.8,0-1.3-0.8-1.4-0.9c-0.1-0.2,0-0.5,0.2-0.6s0.5-0.1,0.6,0.1c0.1,0.2,0.4,0.5,0.7,0.5
		l0,0c0.2,0,0.5-0.2,0.7-0.6c0.1-0.2,0.4-0.3,0.6-0.1c0.2,0.1,0.3,0.4,0.1,0.6C59.1,42.5,58.6,42.9,58.1,42.9z"/>
</g>
<g>
	<path class="st3" d="M43.5,89.8c-0.5,1-2.2,1.3-3.6,0.6l0,0c-1.5-0.7-2.3-2.1-1.8-3.2L45.7,71c0.5-1,2.2-1.3,3.6-0.6l0,0
		c1.5,0.7,2.3,2.1,1.8,3.2L43.5,89.8z"/>
</g>
<g>
	<path class="st5" d="M33.3,113.7c-0.6,1.3-2,2-3.1,1.5l-3.6-1.7c-1.1-0.5-1.5-2-0.8-3.4L37,86.3c0.6-1.3,2-1.9,3.1-1.4l3.6,1.7
		c1.1,0.5,1.5,1.9,0.9,3.3L33.3,113.7z"/>
</g>
<g>
	<ellipse class="st8" cx="192.2" cy="-37.8" rx="14.7" ry="14.7"/>
</g>
<g>
	<g>
		<path class="st9" d="M199.1-42.1c-0.3-0.3-0.8-0.3-1.1,0l-8,8l-3.7-3.7c-0.3-0.3-0.8-0.3-1.1,0s-0.3,0.8,0,1l4.2,4.2
			c0.3,0.3,0.8,0.3,1.1,0l8.5-8.5C199.4-41.3,199.4-41.8,199.1-42.1z"/>
	</g>
</g>
<path class="st10" d="M52.1,14.8c-4.4,1.6-8.1,4.1-11.2,7.3l42.4,40.6c3.8-4,6.4-9,7.5-14.4c1-5.1,0.7-10.6-1.2-15.9
	C84.2,17.2,67.3,9.3,52.1,14.8"/>
<path class="st11" d="M38.7,84.5c-0.5,0-0.9,0.2-1.1,0.5l-2.5,5.2l4.5,9.7c0.2-0.1,0.3-0.2,0.4-0.4l5.2-11c0.3-0.6-0.4-1.5-1.5-2
	l-3.6-1.7C39.6,84.6,39.1,84.5,38.7,84.5"/>
<path class="st0" d="M-141.8,9.3c-30.5,8.5-42.2,50.7-34.8,77.6c3.7,13.4,14.3,37.2,27,44.3c14.1,7.9,27.4-2.8,37.4-12.1
	c14.2-13.2,27.6-27.3,41.4-40.9c10.7-10.6,21.9-17.5,12.5-32.4C-74.1,20.6-112.7,1.1-141.8,9.3z"/>
<polygon class="st1" points="-116.7,66.5 -116.7,81.2 -104.8,73.9 "/>
<polygon class="st1" points="-113.8,82.1 -91.4,82.1 -102.6,75.2 "/>
<polygon class="st1" points="-96.7,99.9 -96.7,94.9 -100.5,97.4 "/>
<polygon class="st1" points="-91.4,65.6 -113.8,65.6 -102.6,72.5 "/>
<path class="st1" d="M-108.5,108.1v-2.4h10.4c0.8-0.8,1.6-1.6,2.4-2.4h-14c-0.7,0-1.2-0.5-1.2-1.2v-9.4c0-0.7,0.5-1.2,1.2-1.2h14.2
	c0.6,0,1.1,0.6,1.1,1.2v9.3c1.6-1.6,3.1-3.1,4.7-4.7v-4.6c0-0.7,0.5-1.2,1.2-1.2h4.6c4.4-4.4,8.8-8.8,13.2-13.2
	c0.4-0.4,0.9-0.9,1.3-1.3V59.7h-66v56.2l9.2-2c0.2,0,0.3,0,0.5,0l11.5,2.3l6.7-1.3c2.3-2.2,4.7-4.5,7-6.8H-108.5z M-106.1,89.2h-2.4
	v-2.4h2.4V89.2z M-101.4,89.2h-2.4v-2.4h2.4V89.2z M-96.7,89.2h-2.4v-2.4h2.4V89.2z M-92,89.2h-2.4v-2.4h2.4V89.2z M-79.9,71.2
	l1.7-1.7l3.5,3.5c0.5,0.5,0.5,1.2,0,1.8l-3.5,3.5l-1.7-1.7l2.7-2.7L-79.9,71.2z M-130.5,73l3.5-3.5l1.7,1.7l-2.7,2.6l2.7,2.7
	l-1.7,1.7l-3.5-3.5C-131,74.2-131,73.5-130.5,73z M-117.9,108.1h-11.8v-2.4h11.8V108.1z M-115.6,102.1c0,0.7-0.5,1.2-1.2,1.2h-14.1
	c-0.7,0-1.2-0.5-1.2-1.2v-9.4c0-0.7,0.5-1.2,1.2-1.2h14.2c0.6,0,1.1,0.6,1.1,1.2V102.1z M-117.9,84.5c-0.7,0-1.2-0.5-1.2-1.2V64.5
	c0-0.7,0.5-1.2,1.2-1.2h30.6c0.7,0,1.2,0.5,1.2,1.1v18.9c0,0.7-0.5,1.2-1.2,1.2H-117.9z M-113.2,86.8h2.4v2.4h-2.4V86.8z"/>
<path class="st1" d="M-87.3,94.9L-87.3,94.9C-87.3,94.9-87.3,94.9-87.3,94.9L-87.3,94.9z"/>
<polygon class="st1" points="-120.6,93.9 -127,93.9 -123.8,96 "/>
<polygon class="st1" points="-105.8,101 -99.4,101 -102.6,98.9 "/>
<polygon class="st1" points="-129.7,94.9 -129.7,99.9 -125.9,97.4 "/>
<polygon class="st1" points="-127,101 -120.6,101 -123.8,98.9 "/>
<polygon class="st1" points="-117.9,99.9 -117.9,94.9 -121.7,97.4 "/>
<polygon class="st1" points="-88.5,81.2 -88.5,66.6 -100.4,73.9 "/>
<path class="st1" d="M-141.7,9.4c-30.5,8.5-42.2,50.7-34.8,77.6c3.7,13.4,14.3,37.2,27,44.3c14.1,7.9,27.4-2.8,37.4-12.1
	c0.5-0.5,1-0.9,1.5-1.4l-3.6,0.7c-0.2,0-0.3,0-0.5,0l-11.5-2.3l-10.4,2.3c-0.4,0.1-0.7,0-1-0.2c-0.2-0.2-0.4-0.5-0.4-0.9V49.1
	c0-0.7,0.5-1.2,1.2-1.2h68.4c0.6,0,1.1,0.6,1,1.2v26c9.5-8.9,17.6-15.9,9.2-29.2C-74,20.7-112.6,1.2-141.7,9.4z"/>
<path class="st1" d="M-135.6,57.4h66v-7.1h-66V57.4z M-74.3,52.7h2.4v2.4h-2.4V52.7z M-115.6,52.7h27.1v2.4h-27.1V52.7z
	 M-123.8,52.7h2.4v2.4h-2.4V52.7z M-128.5,52.7h2.4v2.4h-2.4V52.7z M-133.2,52.7h2.4v2.4h-2.4V52.7z"/>
<polygon class="st1" points="-99.4,93.9 -105.8,93.9 -102.6,96 "/>
<polygon class="st1" points="-108.5,94.9 -108.5,99.9 -104.7,97.4 "/>
<path class="st2" d="M-68.4,47.9h-68.4c-0.7,0-1.2,0.5-1.2,1.2v68.3c0,0.4,0.2,0.7,0.4,0.9c0.3,0.2,0.6,0.3,1,0.2l10.4-2.3l11.5,2.3
	c0.2,0,0.3,0,0.5,0l3.6-0.7c1-1,2.1-1.9,3.1-2.9l-6.7,1.3l-11.5-2.3c-0.2,0-0.3,0-0.5,0l-9.2,2V59.7h66V77c0.7-0.6,1.3-1.3,2-1.9
	v-26C-67.3,48.5-67.8,47.9-68.4,47.9z M-69.6,57.4h-66v-7.1h66V57.4z"/>
<rect x="-133.2" y="52.7" class="st2" width="2.4" height="2.4"/>
<rect x="-128.5" y="52.7" class="st2" width="2.4" height="2.4"/>
<rect x="-123.8" y="52.7" class="st2" width="2.4" height="2.4"/>
<rect x="-115.6" y="52.7" class="st2" width="27.1" height="2.4"/>
<rect x="-74.3" y="52.7" class="st2" width="2.4" height="2.4"/>
<path class="st2" d="M-86.1,83.3V64.4c0-0.6-0.5-1.1-1.2-1.1h-30.6c-0.7,0-1.2,0.5-1.2,1.2v18.8c0,0.7,0.5,1.2,1.2,1.2h30.6
	C-86.6,84.5-86.1,84-86.1,83.3z M-91.4,65.6l-11.2,6.9l-11.2-6.9H-91.4z M-116.7,66.5l11.9,7.4l-11.9,7.3V66.5z M-113.8,82.1
	l11.2-6.9l11.2,6.9H-113.8z M-88.5,81.2l-11.9-7.3l11.9-7.3V81.2z"/>
<path class="st2" d="M-78.2,78.3l3.5-3.5c0.5-0.6,0.5-1.3,0-1.8l-3.5-3.5l-1.7,1.7l2.7,2.7l-2.7,2.7L-78.2,78.3z"/>
<path class="st2" d="M-127,78.2l1.7-1.7l-2.7-2.7l2.7-2.6l-1.7-1.7l-3.5,3.5c-0.5,0.5-0.5,1.2,0,1.7L-127,78.2z"/>
<rect x="-113.2" y="86.8" class="st2" width="2.4" height="2.4"/>
<rect x="-108.5" y="86.8" class="st2" width="2.4" height="2.4"/>
<rect x="-103.8" y="86.8" class="st2" width="2.4" height="2.4"/>
<rect x="-99.1" y="86.8" class="st2" width="2.4" height="2.4"/>
<rect x="-94.4" y="86.8" class="st2" width="2.4" height="2.4"/>
<path class="st2" d="M-116.7,91.5h-14.2c-0.7,0-1.2,0.5-1.2,1.2v9.4c0,0.7,0.5,1.2,1.2,1.2h14.1c0.7,0,1.2-0.5,1.2-1.2v-9.4
	C-115.6,92.1-116.1,91.5-116.7,91.5z M-120.6,93.9l-3.2,2.1l-3.2-2.1H-120.6z M-129.7,94.9l3.8,2.5l-3.8,2.5V94.9z M-127,101
	l3.2-2.1l3.2,2.1H-127z M-117.9,99.9l-3.8-2.5l3.8-2.5V99.9z"/>
<path class="st2" d="M-95.5,91.5h-14.2c-0.7,0-1.2,0.5-1.2,1.2v9.4c0,0.7,0.5,1.2,1.2,1.2h14c0.4-0.4,0.8-0.8,1.3-1.3v-9.3
	C-94.4,92.1-94.9,91.5-95.5,91.5z M-99.4,93.9l-3.2,2.1l-3.2-2.1H-99.4z M-108.5,94.9l3.8,2.5l-3.8,2.5V94.9z M-105.8,101l3.2-2.1
	l3.2,2.1H-105.8z M-96.7,99.9l-3.8-2.5l3.8-2.5V99.9z"/>
<path class="st2" d="M-89.7,92.7v4.6c0.8-0.8,1.6-1.6,2.4-2.4v0l0,0c1.1-1.1,2.3-2.3,3.4-3.4h-4.6C-89.2,91.5-89.7,92-89.7,92.7z"/>
<rect x="-129.7" y="105.7" class="st2" width="11.8" height="2.4"/>
<path class="st2" d="M-108.5,108.1h8c0.8-0.8,1.6-1.6,2.4-2.4h-10.4V108.1z"/>
<g>
	<ellipse class="st3" cx="-123.8" cy="25.5" rx="34.1" ry="34.1"/>
</g>
<g>
	<path class="st4" d="M-94.5,25.5c0,5.6-1.6,10.9-4.3,15.3c-5.2,8.4-14.4,14-25,14c-4.9,0-9.4-1.2-13.5-3.3
		c-9.4-4.9-15.9-14.7-15.9-26.1c0-16.2,13.1-29.3,29.3-29.3C-107.6-3.8-94.5,9.3-94.5,25.5z"/>
</g>
<g>
	<path class="st5" d="M-134.1,7.1c0,0-15.7,2-9.7,17.4c0,0,0.2,2.7-0.4,4.4c-0.5,1.6,0,5.5,2,7.3s1.5,4.8,0.2,6.6
		c0,0-0.9,2.7,0.7,5.1c0,0,19-4.4,20.9-7.3C-118.6,37.6-134.1,7.1-134.1,7.1z"/>
</g>
<g>
	<path class="st6" d="M-98.8,40.8c-5.2,8.4-14.4,14-25,14c-4.9,0-9.4-1.2-13.5-3.3C-133.8,49.3-116.4,38.8-98.8,40.8z"/>
</g>
<g>
	<path class="st7" d="M-139.1,14.4c0,0-3.3,5.9-1.6,11.9c1.6,6,8.6,15.2,10.2,15.7c1.6,0.5,7.3-3.8,7.3-3.8l1.8,10.4
		c0,0,6.8,1.3,9-1.8c2.2-3.1-4.4-10.4-1.8-24.5S-127.2,0.3-139.1,14.4z"/>
</g>
<g>
	<path class="st5" d="M-135.8,10.4c0,0,1.8,5.5,6,7.3s4.6,2.7,4.8,5.5c0.2,2.7,1.5,6.6,4.8,7.7c3.3,1.1,2.4,7.7,2,9.5
		s0.9,2.6,0.9,2.6l18.7-3.8c0,0-0.4-3.8-2.9-6.2c-2.6-2.4-2.7-6-2.7-9c0-2.9-2.7-3.3-4-5.1s0.9-9.7-4.6-13.7
		C-118.4,1-139.1-0.4-135.8,10.4z"/>
</g>
<g>
	<path class="st5" d="M-133.7,32.1l0.3-4.1c0-0.2,0.2-0.4,0.5-0.4c0.2,0,0.4,0.2,0.4,0.5l-0.3,2.9l0.9-0.2c0.2-0.1,0.5,0.1,0.5,0.3
		c0.1,0.2-0.1,0.5-0.3,0.5L-133.7,32.1z"/>
</g>
<g>
	<path class="st4" d="M-127,29.5c-2.9,0-5.3-2.4-5.3-5.3c0-2.9,2.4-5.3,5.3-5.3s5.3,2.4,5.3,5.3C-121.6,27.1-124,29.5-127,29.5z
		 M-127,19.7c-2.5,0-4.5,2-4.5,4.5s2,4.5,4.5,4.5c2.5,0,4.5-2,4.5-4.5S-124.5,19.7-127,19.7z"/>
</g>
<g>
	<path class="st4" d="M-138.5,31.8c-2.9,0-5.3-2.4-5.3-5.3c0-2.9,2.4-5.3,5.3-5.3c2.9,0,5.3,2.4,5.3,5.3
		C-133.2,29.5-135.6,31.8-138.5,31.8z M-138.5,22c-2.5,0-4.5,2-4.5,4.5s2,4.5,4.5,4.5s4.5-2,4.5-4.5S-136,22-138.5,22z"/>
</g>
<g>
	<path class="st5" d="M-130.9,36.3c-0.5,0-0.9-0.1-1.2-0.2c-0.2-0.1-0.3-0.3-0.2-0.6c0.1-0.2,0.3-0.3,0.6-0.2c0.1,0,1.5,0.7,2.7-0.7
		c0.2-0.2,0.4-0.2,0.6,0s0.2,0.4,0,0.6C-129.2,36-130.2,36.3-130.9,36.3z"/>
</g>
<g>
	<path class="st5" d="M-137.4,28.2L-137.4,28.2c-0.8,0-1.3-0.8-1.4-0.9c-0.1-0.2,0-0.4,0.2-0.6c0.2-0.1,0.5-0.1,0.6,0.1
		c0.1,0.2,0.4,0.5,0.7,0.5l0,0c0.2,0,0.5-0.2,0.7-0.6c0.1-0.2,0.4-0.2,0.6-0.1c0.2,0.1,0.3,0.4,0.1,0.6
		C-136.4,27.9-136.9,28.2-137.4,28.2z"/>
</g>
<g>
	<path class="st5" d="M-127.7,25.9L-127.7,25.9c-0.8,0-1.3-0.8-1.4-0.9c-0.1-0.2,0-0.5,0.2-0.6s0.5-0.1,0.6,0.1
		c0.1,0.2,0.4,0.5,0.7,0.5l0,0c0.2,0,0.5-0.2,0.7-0.6c0.1-0.2,0.4-0.3,0.6-0.1c0.2,0.1,0.3,0.4,0.1,0.6
		C-126.7,25.5-127.2,25.9-127.7,25.9z"/>
</g>
<g>
	<path class="st3" d="M-142.3,72.8c-0.5,1-2.2,1.3-3.6,0.6l0,0c-1.5-0.7-2.3-2.1-1.8-3.2l7.6-16.2c0.5-1,2.2-1.3,3.6-0.6l0,0
		c1.5,0.7,2.3,2.1,1.8,3.2L-142.3,72.8z"/>
</g>
<g>
	<path class="st5" d="M-152.5,96.7c-0.6,1.3-2,2-3.1,1.5l-3.6-1.7c-1.1-0.5-1.5-2-0.8-3.4l11.2-23.8c0.6-1.3,2-1.9,3.1-1.4l3.6,1.7
		c1.1,0.5,1.5,1.9,0.9,3.3L-152.5,96.7z"/>
</g>
<path class="st10" d="M-133.7-2.2c-4.4,1.6-8.1,4.1-11.2,7.3l42.4,40.6c3.8-4,6.4-9,7.5-14.4c1-5.1,0.7-10.6-1.2-15.9
	C-101.6,0.2-118.5-7.7-133.7-2.2"/>
<path class="st11" d="M-147.1,67.5c-0.5,0-0.9,0.2-1.1,0.5l-2.5,5.2l4.5,9.7c0.2-0.1,0.3-0.2,0.4-0.4l5.2-11c0.3-0.6-0.4-1.5-1.5-2
	l-3.6-1.7C-146.2,67.6-146.7,67.5-147.1,67.5"/>
<path class="st12" d="M-53-204.6c4.8,25.9,30.6,74.3,60.5,74c9.6-0.1,18.8-3.5,28.5-3.5c7.1,0,16.7,4.4,23.4,1.4
	c20-8.8,4.1-32.3,4-46.7c-0.1-18.6,19.7-34,5.5-52.7c-9.1-12-27.8-14.8-41.4-17.3C-7.2-255.5-63-258.1-53-204.6z"/>
<g>
	<g>
		
			<rect x="9.2" y="-199.3" transform="matrix(5.342883e-02 -0.9986 0.9986 5.342883e-02 194.2845 -128.8146)" class="st4" width="40" height="64.8"/>
	</g>
	<g class="st13">
		<g>
			<polygon class="st12" points="61.9,-171.4 62.6,-185.1 41.7,-186.2 			"/>
		</g>
		<g>
			<path class="st12" d="M1-188.4l-3.1-0.2l-0.1,1.4C-1.1-187.6-0.1-188,1-188.4z"/>
		</g>
	</g>
	<g>
		
			<rect x="-10" y="-189.9" transform="matrix(0.9973 -7.317933e-02 7.317933e-02 0.9973 12.493 1.1836)" class="st3" width="64.8" height="40"/>
	</g>
	<g class="st13">
		<path class="st12" d="M23.3-187.6l32,22.4l-2-27.1l-33.2,2.4C22-188.4,23.3-187.6,23.3-187.6z"/>
	</g>
	<g>
		<path class="st5" d="M47.5-164.4c0,2.6-2.3,4.7-4.9,4.7h-73.3c-2.6,0-4.7-2.1-4.7-4.7V-215c0-2.6,2.1-4.6,4.7-4.6h73.3
			c2.6,0,4.9,2.1,4.9,4.6V-164.4z"/>
	</g>
	<g>
		<path class="st6" d="M-33.8-204.7c0,0.9-0.7,1.6-1.6,1.6l0,0c-0.9,0-1.6-0.7-1.6-1.6v-6.9c0-0.9,0.7-1.6,1.6-1.6l0,0
			c0.9,0,1.6,0.7,1.6,1.6V-204.7z"/>
	</g>
	<g>
		<path class="st6" d="M-33.8-169.7c0,0.9-0.7,1.6-1.6,1.6l0,0c-0.9,0-1.6-0.7-1.6-1.6v-6.9c0-0.9,0.7-1.6,1.6-1.6l0,0
			c0.9,0,1.6,0.7,1.6,1.6V-169.7z"/>
	</g>
	<g>
		<rect x="-25.8" y="-211.2" class="st4" width="66.3" height="43.4"/>
	</g>
	<g class="st13">
		<polygon class="st12" points="27,-196.6 47.1,-181.8 47.1,-196.9 		"/>
	</g>
	<g>
		<path class="st6" d="M-21.1-195.3c-2.8-0.1-5.1-4.8-5.1-4.8v9v9.1c0,0,2.3-4.7,5.1-4.8c2.6-0.1,4.9-1.4,5.1-4.2
			C-16.2-193.9-18.5-195.2-21.1-195.3z"/>
	</g>
	<g>
		<path class="st12" d="M-24.6-183.4c0,0.9-0.7,1.7-1.5,1.7h-0.1c-0.9,0-1.6-0.8-1.6-1.7V-199c0-0.9,0.7-1.7,1.6-1.7h0.1
			c0.9,0,1.5,0.8,1.5,1.7V-183.4z"/>
	</g>
	<g>
		<path class="st6" d="M54-199.8c0,1.9-1.6,3.5-3.5,3.5H27.9c-1.9,0-3.5-1.6-3.5-3.5v-18.6c0-1.9,1.6-3.5,3.5-3.5h22.6
			c1.9,0,3.5,1.6,3.5,3.5V-199.8z"/>
	</g>
	<g>
		<path class="st7" d="M54-202.6c0,1.9-1.6,3.5-3.5,3.5H27.9c-1.9,0-3.5-1.6-3.5-3.5v-22c0-1.9,1.6-3.5,3.5-3.5h22.6
			c1.9,0,3.5,1.6,3.5,3.5V-202.6z"/>
	</g>
	<g>
		<path class="st3" d="M51.5-221.3c0,1.6-1.6,2.7-3.5,2.7H30.5c-1.9,0-3.5-1.1-3.5-2.7v-0.2c0-1.6,1.6-3,3.5-3H48
			c1.9,0,3.5,1.4,3.5,3V-221.3z"/>
	</g>
	<g>
		<path class="st14" d="M34-208.7c0,0.4,0,0.5-0.4,0.5h-4.5c-0.4,0-0.5-0.1-0.5-0.5v-4.6c0-0.4,0.1-0.7,0.5-0.7h4.5
			c0.4,0,0.4,0.3,0.4,0.7V-208.7z"/>
	</g>
	<g>
		<path class="st14" d="M34-201.7c0,0.4,0,0.5-0.4,0.5h-4.5c-0.4,0-0.5-0.1-0.5-0.5v-4.6c0-0.4,0.1-0.6,0.5-0.6h4.5
			c0.4,0,0.4,0.2,0.4,0.6V-201.7z"/>
	</g>
	<g>
		<path class="st14" d="M42.1-208.7c0,0.4-0.2,0.5-0.6,0.5H37c-0.4,0-0.3-0.1-0.3-0.5v-4.6c0-0.4-0.1-0.7,0.3-0.7h4.5
			c0.4,0,0.6,0.3,0.6,0.7V-208.7z"/>
	</g>
	<g>
		<path class="st14" d="M42.1-201.7c0,0.4-0.2,0.5-0.6,0.5H37c-0.4,0-0.3-0.1-0.3-0.5v-4.6c0-0.4-0.1-0.6,0.3-0.6h4.5
			c0.4,0,0.6,0.2,0.6,0.6V-201.7z"/>
	</g>
	<g>
		<path class="st15" d="M49.8-202.2c0,0.4-0.1,0.6-0.5,0.6h-4.5c-0.4,0-0.4-0.2-0.4-0.6v-11c0-0.4,0-0.7,0.4-0.7h4.5
			c0.4,0,0.5,0.3,0.5,0.7V-202.2z"/>
	</g>
	<g>
		<path class="st14" d="M76.2-177.4c0,1.6-0.7,2.9-2.3,2.9l0,0c-1.6,0-2.3-1.3-2.3-2.9L70.9-211c0-1.6,1.3-2.9,2.9-2.9l0,0
			c1.6,0,2.9,1.3,2.9,2.9L76.2-177.4z"/>
	</g>
	<g>
		<polygon class="st6" points="71.6,-175.7 73.7,-168.5 75.9,-175.7 		"/>
	</g>
	<g>
		<path class="st16" d="M76.5-197.1l0.2-13.8c0-1.6-1.3-2.9-2.9-2.9s-2.9,1.3-2.9,3l0.2,13.8h5.4C76.5-197,76.5-197.1,76.5-197.1z"
			/>
	</g>
	<g>
		<path class="st4" d="M78.3-195.5L78.3-195.5c-0.3,0-0.5-0.3-0.5-0.6c0-0.1,0.2-11.5,0.2-12.9c0-0.3-0.1-0.4-0.1-0.4
			c-0.2-0.2-0.8-0.2-1-0.1c-0.3,0.1-0.5-0.1-0.6-0.4c-0.1-0.3,0.1-0.5,0.4-0.6c0.1,0,1.2-0.2,1.9,0.3c0.2,0.2,0.5,0.5,0.5,1.2
			c0,1.4-0.2,12.5-0.2,12.9C78.8-195.8,78.6-195.5,78.3-195.5z"/>
	</g>
	<g>
		<path class="st12" d="M21.2-170.3c0,0.2-0.2,0.4-0.4,0.4H9.5c-0.2,0-0.4-0.2-0.4-0.4v-3c0-0.2,0.2-0.4,0.4-0.4h11.3
			c0.2,0,0.4,0.2,0.4,0.4C21.2-173.3,21.2-170.3,21.2-170.3z M10-170.7h10.5v-2.2H10V-170.7z"/>
	</g>
	<g>
		<path class="st12" d="M36-170.3c0,0.2-0.2,0.4-0.4,0.4h-18c-0.2,0-0.4-0.2-0.4-0.4v-3c0-0.2,0.2-0.4,0.4-0.4h18
			c0.2,0,0.4,0.2,0.4,0.4V-170.3z M17.9-170.7h17.5v-2.2H17.9V-170.7z"/>
	</g>
	<g>
		<path class="st12" d="M28.9-176.4H-13c-0.2,0-0.4-0.2-0.4-0.5c0-0.2,0.2-0.5,0.4-0.5h41.5v-17.8c0-0.2,0.2-0.4,0.4-0.4
			c0.2,0,0.4,0.2,0.4,0.4v18.2C29.3-176.7,29.1-176.4,28.9-176.4z"/>
	</g>
	<g>
		<polygon class="st15" points="-9.2,-180.1 -10.8,-182.1 0.9,-191.6 7.8,-189.4 17.1,-201.3 19.1,-199.8 8.7,-186.5 1.5,-188.8 		
			"/>
	</g>
	<g>
		<polygon class="st15" points="18.4,-193.4 17.7,-200.1 10.9,-198.7 10.4,-201.2 19.9,-203.1 20.9,-193.6 		"/>
	</g>
	<g>
		<g>
			<path class="st12" d="M-7.6-181.6c-0.2,0-0.4-0.2-0.4-0.4v-1.3c0-0.2,0.2-0.4,0.4-0.4c0.2,0,0.4,0.2,0.4,0.4v1.3
				C-7.3-181.8-7.4-181.6-7.6-181.6z"/>
		</g>
		<g>
			<path class="st12" d="M-7.6-179.1c-0.2,0-0.4-0.2-0.4-0.4v-1.3c0-0.2,0.2-0.4,0.4-0.4c0.2,0,0.4,0.2,0.4,0.4v1.3
				C-7.3-179.3-7.4-179.1-7.6-179.1z"/>
		</g>
		<g>
			<path class="st12" d="M-7.6-176.6c-0.2,0-0.4-0.2-0.4-0.4v-1c0-0.2,0.2-0.4,0.4-0.4c0.2,0,0.4,0.2,0.4,0.4v1
				C-7.3-176.8-7.4-176.6-7.6-176.6z"/>
		</g>
	</g>
	<g>
		<g>
			<path class="st12" d="M1.5-188.9c-0.2,0-0.3-0.2-0.3-0.4v-1c0-0.2,0.1-0.4,0.3-0.4s0.3,0.2,0.3,0.4v1
				C1.7-189.1,1.7-188.9,1.5-188.9z"/>
		</g>
		<g>
			<path class="st12" d="M1.5-179.9c-0.2,0-0.3-0.2-0.3-0.4v-2.3c0-0.2,0.1-0.4,0.3-0.4s0.3,0.2,0.3,0.4v2.3
				C1.7-180.1,1.7-179.9,1.5-179.9z M1.5-184.4c-0.2,0-0.3-0.2-0.3-0.4v-2.3c0-0.2,0.1-0.4,0.3-0.4s0.3,0.2,0.3,0.4v2.3
				C1.7-184.6,1.7-184.4,1.5-184.4z"/>
		</g>
		<g>
			<path class="st12" d="M1.5-177.1c-0.2,0-0.3-0.2-0.3-0.4v-1c0-0.2,0.1-0.4,0.3-0.4s0.3,0.2,0.3,0.4v1
				C1.7-177.3,1.7-177.1,1.5-177.1z"/>
		</g>
	</g>
	<g>
		<g>
			<path class="st12" d="M8.3-188.9c-0.2,0-0.3-0.2-0.3-0.4v-1c0-0.2,0.1-0.4,0.3-0.4s0.3,0.2,0.3,0.4v1
				C8.6-189.1,8.5-188.9,8.3-188.9z"/>
		</g>
		<g>
			<path class="st12" d="M8.3-179.9c-0.2,0-0.3-0.2-0.3-0.4v-2.3c0-0.2,0.1-0.4,0.3-0.4s0.3,0.2,0.3,0.4v2.3
				C8.6-180.1,8.5-179.9,8.3-179.9z M8.3-184.4c-0.2,0-0.3-0.2-0.3-0.4v-2.3c0-0.2,0.1-0.4,0.3-0.4s0.3,0.2,0.3,0.4v2.3
				C8.6-184.6,8.5-184.4,8.3-184.4z"/>
		</g>
		<g>
			<path class="st12" d="M8.3-177.1c-0.2,0-0.3-0.2-0.3-0.4v-1c0-0.2,0.1-0.4,0.3-0.4s0.3,0.2,0.3,0.4v1
				C8.6-177.3,8.5-177.1,8.3-177.1z"/>
		</g>
	</g>
	<g>
		<g>
			<path class="st12" d="M17.6-198.2c-0.2,0-0.4-0.2-0.4-0.4v-1c0-0.2,0.2-0.4,0.4-0.4c0.2,0,0.4,0.2,0.4,0.4v1
				C17.9-198.4,17.8-198.2,17.6-198.2z"/>
		</g>
		<g>
			<path class="st12" d="M17.6-180.1c-0.2,0-0.4-0.2-0.4-0.4v-2.3c0-0.2,0.2-0.4,0.4-0.4c0.2,0,0.4,0.2,0.4,0.4v2.3
				C17.9-180.3,17.8-180.1,17.6-180.1z M17.6-184.7c-0.2,0-0.4-0.2-0.4-0.4v-2.3c0-0.2,0.2-0.4,0.4-0.4c0.2,0,0.4,0.2,0.4,0.4v2.3
				C17.9-184.8,17.8-184.7,17.6-184.7z M17.6-189.2c-0.2,0-0.4-0.2-0.4-0.4v-2.3c0-0.2,0.2-0.4,0.4-0.4c0.2,0,0.4,0.2,0.4,0.4v2.3
				C17.9-189.4,17.8-189.2,17.6-189.2z M17.6-193.7c-0.2,0-0.4-0.2-0.4-0.4v-2.3c0-0.2,0.2-0.4,0.4-0.4c0.2,0,0.4,0.2,0.4,0.4v2.3
				C17.9-193.9,17.8-193.7,17.6-193.7z"/>
		</g>
		<g>
			<path class="st12" d="M17.6-177.1c-0.2,0-0.4-0.2-0.4-0.4v-1.3c0-0.2,0.2-0.4,0.4-0.4c0.2,0,0.4,0.2,0.4,0.4v1.3
				C17.9-177.3,17.8-177.1,17.6-177.1z"/>
		</g>
	</g>
</g>
<g>
	<path class="st12" d="M129.4-199.7c-14.6,8.9-25.3,21.8-22.4,40c2.5,15.4,14.9,25.2,17.1,41.2c2.8,21,9.2,29.9,31.8,31.9
		c18.8,1.6,33.8-1.7,41.2-20.1c6.7-16.8,5.1-36.3,7.8-54.1c2.3-15,14.9-41.1,10-55.8c-5.1-15.2-29.8-16.2-42.5-12.1
		C157.6-224,142.8-208,129.4-199.7z"/>
	<g>
		<g>
			<path class="st5" d="M156.7-138.9l-0.1,1.7l-0.1-1.7l-22,1l5.1,24.7c0,0,2.9,7.5,9,7.7c3.5,0.1,6.3,0.1,7.9,0.1
				c1.7,0,4.4,0.1,7.9-0.1c6.1-0.2,9-7.7,9-7.7l5.1-24.7L156.7-138.9z"/>
		</g>
		<g>
			<path class="st4" d="M148.7-105.1C148.7-105.1,148.6-105.1,148.7-105.1c-4-0.4-6-9.8-6.1-10.2l0,0l-3.2-21.6
				c0-0.2,0.1-0.4,0.4-0.5c0.2,0,0.4,0.1,0.5,0.4l3.1,21.6c0.5,2.6,2.5,9.2,5.3,9.5c0.2,0,0.4,0.2,0.4,0.5
				C149.1-105.2,148.9-105.1,148.7-105.1z"/>
		</g>
		<g>
			<path class="st4" d="M151.2-105.1h-0.1c-1.5-0.4-2.6-2.2-3.4-5.3c-0.6-2.3-0.7-4.4-0.7-4.5l-0.8-22.1c0-0.2,0.2-0.4,0.4-0.4
				s0.4,0.2,0.4,0.4l0.8,22.1c0.2,2.3,1.1,8.4,3.5,9.1c0.2,0.1,0.4,0.3,0.3,0.5C151.5-105.2,151.3-105.1,151.2-105.1z"/>
		</g>
		<g>
			<path class="st4" d="M153.5-104.9c-0.1,0-0.3-0.1-0.3-0.2c-1.3-1.8-1.3-7.6-1.3-7.8L152-137c0-0.2,0.2-0.4,0.4-0.4
				s0.4,0.2,0.4,0.4l-0.2,24.2c0,1.6,0.2,6,1.2,7.3c0.1,0.2,0.1,0.4-0.1,0.6C153.6-104.9,153.5-104.9,153.5-104.9z"/>
		</g>
		<g>
			<path class="st4" d="M163.5-105.1c-0.2,0-0.4-0.2-0.4-0.4c0-0.2,0.1-0.4,0.4-0.5c2.8-0.3,4.8-7,5.3-9.5l3.1-21.6
				c0-0.2,0.2-0.4,0.5-0.4c0.2,0,0.4,0.2,0.4,0.5l-3.2,21.7C169.5-114.9,167.5-105.5,163.5-105.1L163.5-105.1z"/>
		</g>
		<g>
			<path class="st4" d="M161-105.1c-0.2,0-0.4-0.1-0.4-0.3c-0.1-0.2,0.1-0.5,0.3-0.5c2.3-0.6,3.3-6.8,3.5-9.1l0.8-22
				c0-0.2,0.2-0.4,0.4-0.4s0.4,0.2,0.4,0.4l-0.8,22.1c0,0.1-0.2,2.2-0.7,4.5c-0.8,3.2-1.9,5-3.4,5.3
				C161.1-105.1,161.1-105.1,161-105.1z"/>
		</g>
		<g>
			<path class="st4" d="M158.7-104.9c-0.1,0-0.2,0-0.3-0.1c-0.2-0.1-0.2-0.4-0.1-0.6c1-1.3,1.2-5.7,1.2-7.3l-0.2-24.2
				c0-0.2,0.2-0.4,0.4-0.4l0,0c0.2,0,0.4,0.2,0.4,0.4l0.2,24.2c0,0.2,0,6-1.3,7.8C159-104.9,158.8-104.9,158.7-104.9z"/>
		</g>
		<g class="st17">
			<path class="st12" d="M158.9-138.8l11.3,30.6c2.2-2.2,3.4-5.1,3.4-5.1l5.1-24.7L158.9-138.8z"/>
		</g>
		<g>
			<path class="st6" d="M157.8-146.4c0,0.7-0.6,1.3-1.3,1.3l0,0c-0.7,0-1.3-0.6-1.3-1.3V-205c0-0.7,0.6-1.3,1.3-1.3l0,0
				c0.7,0,1.3,0.6,1.3,1.3V-146.4z"/>
		</g>
		<g>
			<path class="st14" d="M183.9-145.2c0,1.4-1.1,2.6-2.5,2.6h-50c-1.4,0-2.5-1.2-2.5-2.6v-0.4c0-1.4,1.1-2.5,2.5-2.5h50
				c1.4,0,2.5,1.1,2.5,2.5V-145.2z"/>
		</g>
		<g>
			<path class="st16" d="M180.1-140c0,1.4-1.1,2.5-2.5,2.5h-42.2c-1.4,0-2.5-1.1-2.5-2.5l-4-0.4c0-1.4,1.1-2.5,2.5-2.5h50
				c1.4,0,2.5,1.2,2.5,2.5L180.1-140z"/>
		</g>
		<g>
			<g>
				<g>
					<path class="st4" d="M144.7-186c-0.2,0-0.4-0.2-0.4-0.4v-1.9c0-0.2,0.2-0.4,0.4-0.4s0.4,0.2,0.4,0.4v1.9
						C145.1-186.1,144.9-186,144.7-186z"/>
				</g>
				<g>
					<path class="st4" d="M144.7-180.9c-0.2,0-0.4-0.2-0.4-0.4v-2.1c0-0.2,0.2-0.4,0.4-0.4s0.4,0.2,0.4,0.4v2.1
						C145.1-181.1,144.9-180.9,144.7-180.9z"/>
				</g>
			</g>
			<g>
				<g>
					<path class="st4" d="M148-184.4h-1.9c-0.2,0-0.4-0.2-0.4-0.4s0.2-0.4,0.4-0.4h1.9c0.2,0,0.4,0.2,0.4,0.4S148.2-184.4,148-184.4
						z"/>
				</g>
				<g>
					<path class="st4" d="M143.2-184.4h-2.1c-0.2,0-0.4-0.2-0.4-0.4s0.2-0.4,0.4-0.4h2.1c0.2,0,0.4,0.2,0.4,0.4
						S143.4-184.4,143.2-184.4z"/>
				</g>
			</g>
		</g>
		<g>
			<g>
				<g>
					<path class="st4" d="M197.4-197.5c-0.2,0-0.4-0.2-0.4-0.4v-1.9c0-0.2,0.2-0.4,0.4-0.4s0.4,0.2,0.4,0.4v1.9
						C197.8-197.7,197.6-197.5,197.4-197.5z"/>
				</g>
				<g>
					<path class="st4" d="M197.4-192.5c-0.2,0-0.4-0.2-0.4-0.4v-2.1c0-0.2,0.2-0.4,0.4-0.4s0.4,0.2,0.4,0.4v2.1
						C197.8-192.7,197.6-192.5,197.4-192.5z"/>
				</g>
			</g>
			<g>
				<g>
					<path class="st4" d="M200.7-196.1h-1.9c-0.2,0-0.4-0.2-0.4-0.4s0.2-0.4,0.4-0.4h1.9c0.2,0,0.4,0.2,0.4,0.4
						S201-196.1,200.7-196.1z"/>
				</g>
				<g>
					<path class="st4" d="M195.9-196.1h-2.1c-0.2,0-0.4-0.2-0.4-0.4s0.2-0.4,0.4-0.4h2.1c0.2,0,0.4,0.2,0.4,0.4
						S196.1-196.1,195.9-196.1z"/>
				</g>
			</g>
		</g>
		<g>
			<g>
				<g>
					<path class="st4" d="M169.8-210.3c-0.2,0-0.4-0.2-0.4-0.4v-1.9c0-0.2,0.2-0.4,0.4-0.4s0.4,0.2,0.4,0.4v1.9
						C170.2-210.5,170-210.3,169.8-210.3z"/>
				</g>
				<g>
					<path class="st4" d="M169.8-205.3c-0.2,0-0.4-0.2-0.4-0.4v-2.1c0-0.2,0.2-0.4,0.4-0.4s0.4,0.2,0.4,0.4v2.1
						C170.2-205.5,170-205.3,169.8-205.3z"/>
				</g>
			</g>
			<g>
				<g>
					<path class="st4" d="M173.2-208.8h-1.9c-0.2,0-0.4-0.2-0.4-0.4s0.2-0.4,0.4-0.4h1.9c0.2,0,0.4,0.2,0.4,0.4
						C173.6-209,173.4-208.8,173.2-208.8z"/>
				</g>
				<g>
					<path class="st4" d="M168.4-208.8h-2.1c-0.2,0-0.4-0.2-0.4-0.4s0.2-0.4,0.4-0.4h2.1c0.2,0,0.4,0.2,0.4,0.4
						C168.8-209,168.6-208.8,168.4-208.8z"/>
				</g>
			</g>
		</g>
		<g>
			<g>
				<path class="st7" d="M157.2-151.5c0,0-1.2-27.7-32.1-30C125.1-181.6,129.6-149.8,157.2-151.5z"/>
			</g>
			<g>
				<path class="st4" d="M156.1-152.1c-0.1,0-0.2-0.1-0.3-0.2c-5.6-6.7-13.7-14.2-19.6-19.4c-6.3-5.6-11.4-9.6-11.5-9.7
					c-0.2-0.1-0.2-0.4-0.1-0.6c0.1-0.2,0.4-0.2,0.6-0.1c0.1,0,5.1,4.1,11.5,9.7c5.9,5.2,14,12.7,19.6,19.4c0.1,0.2,0.1,0.4-0.1,0.6
					C156.3-152.1,156.2-152.1,156.1-152.1z"/>
			</g>
			<g>
				<path class="st4" d="M141.6-167c-0.1,0-0.1,0-0.2,0c-5.9-2.6-10.8-0.7-10.8-0.6c-0.2,0.1-0.5,0-0.5-0.2c-0.1-0.2,0-0.5,0.2-0.5
					c0.2-0.1,5.3-2.1,11.5,0.7c0.2,0.1,0.3,0.3,0.2,0.6C141.9-167.1,141.7-167,141.6-167z"/>
			</g>
			<g>
				<path class="st4" d="M147.1-161.8c-0.2,0-0.3-0.1-0.4-0.3c-1.7-4.5,0.9-9.7,1-9.9s0.4-0.3,0.6-0.2c0.2,0.1,0.3,0.4,0.2,0.6
					c0,0.1-2.5,5.1-1,9.2c0.1,0.2,0,0.5-0.2,0.5C147.2-161.8,147.1-161.8,147.1-161.8z"/>
			</g>
			<g>
				<path class="st4" d="M140.6-155.3c-0.2,0-0.3-0.1-0.4-0.3c-0.1-0.2,0.1-0.5,0.3-0.5c0.4-0.1,8.6-2.6,12.1-0.8
					c0.2,0.1,0.3,0.4,0.2,0.6c-0.1,0.2-0.4,0.3-0.6,0.2c-3.2-1.7-11.4,0.8-11.5,0.8C140.7-155.3,140.6-155.3,140.6-155.3z"/>
			</g>
		</g>
		<g>
			<g>
				<path class="st6" d="M156.8-147.5c0,0,1.1-26,30.1-28.2C186.9-175.7,182.7-145.8,156.8-147.5z"/>
			</g>
			<g>
				<path class="st4" d="M157.8-148c-0.1,0-0.2,0-0.2-0.1c-0.2-0.1-0.2-0.4,0-0.5c5.3-6.3,12.9-13.4,18.4-18.3
					c6-5.3,10.7-9.1,10.8-9.1c0.2-0.1,0.4-0.1,0.5,0.1c0.1,0.2,0.1,0.4-0.1,0.5c0,0-4.8,3.8-10.8,9.1c-5.5,4.8-13.1,11.9-18.4,18.2
					C158-148,157.9-148,157.8-148z"/>
			</g>
			<g>
				<path class="st4" d="M171.5-162c-0.1,0-0.3-0.1-0.3-0.2c-0.1-0.2,0-0.4,0.2-0.5c5.8-2.6,10.6-0.7,10.8-0.6
					c0.2,0.1,0.3,0.3,0.2,0.5s-0.3,0.3-0.5,0.2l0,0c0,0-4.6-1.9-10.2,0.6C171.6-162,171.5-162,171.5-162z"/>
			</g>
			<g>
				<path class="st4" d="M166.3-157.1h-0.1c-0.2-0.1-0.3-0.3-0.2-0.5c1.4-3.9-0.9-8.6-0.9-8.7c-0.1-0.2,0-0.4,0.2-0.5s0.4,0,0.5,0.2
					s2.5,5.1,0.9,9.3C166.6-157.2,166.4-157.1,166.3-157.1z"/>
			</g>
			<g>
				<path class="st4" d="M172.4-151h-0.1c-0.1,0-7.8-2.4-10.8-0.8c-0.2,0.1-0.4,0-0.5-0.2s0-0.4,0.2-0.5c3.3-1.7,11,0.6,11.4,0.7
					c0.2,0.1,0.3,0.3,0.2,0.5C172.7-151.1,172.5-151,172.4-151z"/>
			</g>
		</g>
		<g>
			<g>
				<rect x="157.8" y="-196.9" class="st15" width="31.8" height="14.7"/>
			</g>
			<g>
				<path class="st4" d="M186-183.4h-24.8v-0.4c0-1-0.7-1.8-1.6-2.1l-0.3-0.1v-7.4l0.3-0.1c0.9-0.3,1.5-1,1.6-1.9v-0.4H186v0.4
					c0.1,1,0.8,1.8,1.7,2l0.3,0.1v7.3l-0.3,0.1c-1,0.2-1.7,1.1-1.8,2.1L186-183.4z M162-184.2h23.2c0.2-1.2,1-2.1,2-2.4v-6
					c-1-0.4-1.8-1.2-2-2.2H162c-0.2,1-0.8,1.7-1.8,2.1v6.2C161.2-186.2,161.8-185.2,162-184.2z"/>
			</g>
			<g>
				<path class="st4" d="M177.8-189.8c0,2.2-1.8,4-4,4s-4-1.8-4-4s1.8-4,4-4S177.8-192,177.8-189.8z"/>
			</g>
			<g>
				<g>
					<path class="st5" d="M174.1-192.9v0.7c0.4,0,0.8,0.2,1.1,0.3l-0.4,0.9c-0.3-0.2-0.5-0.3-0.7-0.3s-0.3,0-0.4,0.1
						c-0.1,0.1-0.1,0.1-0.1,0.2c0,0.1,0,0.2,0.1,0.2c0.1,0.1,0.2,0.1,0.3,0.2l0.4,0.1c0.4,0.1,0.7,0.3,0.8,0.5
						c0.2,0.2,0.3,0.5,0.3,0.8c0,0.2,0,0.4-0.1,0.5c0,0.1-0.1,0.3-0.2,0.4c-0.1,0.1-0.2,0.2-0.4,0.3s-0.4,0.2-0.6,0.2v0.7h-0.5v-0.7
						c-0.1,0-0.3,0-0.4,0c-0.1,0-0.3-0.1-0.4-0.1c-0.1,0-0.3-0.1-0.4-0.2c-0.1-0.1-0.2-0.1-0.3-0.2l0.5-0.9c0.4,0.3,0.7,0.5,1.1,0.5
						c0.1,0,0.3,0,0.4-0.1c0.1-0.1,0.2-0.2,0.2-0.3c0-0.2-0.1-0.3-0.4-0.4l-0.3-0.1c-0.2-0.1-0.4-0.1-0.5-0.2
						c-0.1-0.1-0.3-0.2-0.4-0.3c-0.1-0.1-0.2-0.2-0.2-0.3s-0.1-0.3-0.1-0.4c0-0.2,0-0.3,0.1-0.5c0-0.2,0.1-0.3,0.2-0.4
						c0.1-0.1,0.2-0.2,0.4-0.3s0.3-0.1,0.5-0.2v-0.7H174.1z"/>
				</g>
			</g>
			<g>
				<path class="st18" d="M166.5-190c0,0.3-0.2,0.4-0.5,0.4h-2.2c-0.3,0-0.5-0.1-0.5-0.4v-0.1c0-0.3,0.2-0.5,0.5-0.5h2.2
					c0.3,0,0.5,0.2,0.5,0.5V-190z"/>
			</g>
			<g>
				<path class="st18" d="M184.4-190c0,0.3-0.3,0.4-0.5,0.4h-2.2c-0.3,0-0.4-0.1-0.4-0.4v-0.1c0-0.3,0.2-0.5,0.4-0.5h2.2
					c0.3,0,0.5,0.2,0.5,0.5V-190z"/>
			</g>
			<g class="st13">
				<polygon class="st12" points="189.6,-182.2 177.4,-182.2 172.2,-196.9 189.6,-196.9 				"/>
			</g>
		</g>
		<g>
			<g>
				<rect x="123.4" y="-206.8" class="st15" width="31.8" height="14.7"/>
			</g>
			<g>
				<path class="st4" d="M151.6-193.3h-24.8v-0.4c0-1-0.7-1.8-1.6-2.1l-0.3-0.1v-7.4l0.3-0.1c0.9-0.3,1.5-1,1.6-1.9v-0.3h24.7v0.3
					c0.1,1,0.8,1.8,1.8,2l0.3,0.1v7.3l-0.3,0.1c-1,0.2-1.7,1.1-1.8,2.1L151.6-193.3z M127.6-194.1h23.2c0.2-1.2,1-2.1,2-2.5v-6
					c-1-0.4-1.8-1.2-2-2.2h-23.3c-0.2,0.8-1,1.7-1.8,2.1v6.2C126.7-196.1,127.4-195.1,127.6-194.1z"/>
			</g>
			<g>
				<ellipse class="st4" cx="139.4" cy="-199.7" rx="4" ry="4"/>
			</g>
			<g>
				<g>
					<path class="st5" d="M139.6-202.8v0.7c0.4,0,0.8,0.2,1.1,0.3l-0.4,0.9c-0.3-0.2-0.5-0.3-0.7-0.3s-0.3,0-0.4,0.1
						c-0.1,0.1-0.1,0.1-0.1,0.2c0,0.1,0,0.2,0.1,0.2c0.1,0.1,0.2,0.1,0.3,0.2l0.4,0.1c0.4,0.1,0.7,0.3,0.8,0.5
						c0.2,0.2,0.3,0.5,0.3,0.8c0,0.2,0,0.4-0.1,0.5c0,0.1-0.1,0.3-0.2,0.4c-0.1,0.1-0.2,0.2-0.4,0.3s-0.4,0.2-0.6,0.2v0.7h-0.5v-0.7
						c-0.1,0-0.3,0-0.4,0c-0.1,0-0.3-0.1-0.4-0.1c-0.1,0-0.3-0.1-0.4-0.2c-0.1-0.1-0.2-0.1-0.3-0.2l0.5-0.9c0.4,0.3,0.7,0.5,1.1,0.5
						c0.1,0,0.3,0,0.4-0.1c0.1-0.1,0.2-0.2,0.2-0.3c0-0.2-0.1-0.3-0.4-0.4l-0.3-0.1c-0.2-0.1-0.4-0.1-0.5-0.2
						c-0.1-0.1-0.3-0.2-0.4-0.3c-0.1-0.1-0.2-0.2-0.2-0.3s-0.1-0.3-0.1-0.4c0-0.2,0-0.3,0.1-0.5c0-0.2,0.1-0.3,0.2-0.4
						c0.1-0.1,0.2-0.2,0.4-0.3s0.3-0.1,0.5-0.2v-0.7H139.6z"/>
				</g>
			</g>
			<g>
				<path class="st18" d="M132.1-199.9c0,0.3-0.2,0.5-0.5,0.5h-2.2c-0.3,0-0.5-0.2-0.5-0.5v-0.1c0-0.3,0.2-0.5,0.5-0.5h2.2
					C131.9-200.5,132.1-200.2,132.1-199.9L132.1-199.9z"/>
			</g>
			<g>
				<path class="st18" d="M150-199.9c0,0.3-0.2,0.5-0.5,0.5h-2.2c-0.3,0-0.5-0.2-0.5-0.5v-0.1c0-0.3,0.2-0.5,0.5-0.5h2.2
					C149.8-200.5,150-200.2,150-199.9L150-199.9z"/>
			</g>
			<g class="st13">
				<polygon class="st12" points="155.2,-192.1 143,-192.1 137.7,-206.8 155.2,-206.8 				"/>
			</g>
		</g>
	</g>
</g>
<g>
	<g>
		<g>
			<path class="st2" d="M-62.5,176.6h-68.4c-0.7,0-1.2,0.5-1.2,1.2v68.3c0,0.4,0.2,0.7,0.4,0.9c0.3,0.2,0.6,0.3,1,0.2l10.4-2.3
				l11.5,2.3c0.2,0,0.3,0,0.5,0l11.5-2.3l11.5,2.3c0.2,0,0.3,0,0.5,0l11.5-2.3l10.4,2.3c0.1,0,0.2,0,0.3,0c0.3,0,0.5-0.1,0.7-0.3
				c0.3-0.2,0.4-0.6,0.4-0.9v-68.2C-61.4,177.2-61.9,176.6-62.5,176.6z M-63.7,244.7l-9.2-2c-0.2,0-0.3,0-0.5,0l-11.5,2.2l-11.5-2.3
				c-0.1,0-0.2,0-0.2,0h-0.2l-11.5,2.3l-11.5-2.3c-0.2,0-0.3,0-0.5,0l-9.2,2v-56.2h66v56.3H-63.7z M-63.7,186.1h-66V179h66
				C-63.7,179-63.7,186.1-63.7,186.1z"/>
		</g>
	</g>
	<g>
		<g>
			<rect x="-127.3" y="181.4" class="st2" width="2.4" height="2.4"/>
		</g>
	</g>
	<g>
		<g>
			<rect x="-122.6" y="181.4" class="st2" width="2.4" height="2.4"/>
		</g>
	</g>
	<g>
		<g>
			<rect x="-117.9" y="181.4" class="st2" width="2.4" height="2.4"/>
		</g>
	</g>
	<g>
		<g>
			<rect x="-109.7" y="181.4" class="st2" width="27.1" height="2.4"/>
		</g>
	</g>
	<g>
		<g>
			<rect x="-68.4" y="181.4" class="st2" width="2.4" height="2.4"/>
		</g>
	</g>
	<g>
		<g>
			<path class="st2" d="M-81.4,192H-112c-0.7,0-1.2,0.5-1.2,1.2V212c0,0.7,0.5,1.2,1.2,1.2h30.6c0.7,0,1.2-0.5,1.2-1.2v-18.9
				C-80.2,192.5-80.7,192-81.4,192z M-85.5,194.3l-11.2,6.9l-11.2-6.9H-85.5z M-110.8,195.2l11.9,7.4l-11.9,7.3V195.2L-110.8,195.2z
				 M-107.9,210.8l11.2-6.9l11.2,6.9H-107.9z M-82.6,209.9l-11.9-7.3l11.9-7.3V209.9L-82.6,209.9z"/>
		</g>
	</g>
	<g>
		<g>
			<path class="st2" d="M-68.8,201.7l-3.5-3.5l-1.7,1.7l2.7,2.7l-2.7,2.7l1.7,1.7l3.5-3.5C-68.3,202.9-68.3,202.2-68.8,201.7z"/>
		</g>
	</g>
	<g>
		<g>
			<path class="st2" d="M-119.4,199.9l-1.7-1.7l-3.5,3.5c-0.5,0.5-0.5,1.2,0,1.7l3.5,3.5l1.7-1.7l-2.7-2.7L-119.4,199.9z"/>
		</g>
	</g>
	<g>
		<g>
			<rect x="-107.3" y="215.5" class="st2" width="2.4" height="2.4"/>
		</g>
	</g>
	<g>
		<g>
			<rect x="-102.6" y="215.5" class="st2" width="2.4" height="2.4"/>
		</g>
	</g>
	<g>
		<g>
			<rect x="-97.9" y="215.5" class="st2" width="2.4" height="2.4"/>
		</g>
	</g>
	<g>
		<g>
			<rect x="-93.2" y="215.5" class="st2" width="2.4" height="2.4"/>
		</g>
	</g>
	<g>
		<g>
			<rect x="-88.5" y="215.5" class="st2" width="2.4" height="2.4"/>
		</g>
	</g>
	<g>
		<g>
			<path class="st2" d="M-110.8,220.2H-125c-0.7,0-1.2,0.5-1.2,1.2v9.4c0,0.7,0.5,1.2,1.2,1.2h14.1c0.7,0,1.2-0.5,1.2-1.2v-9.4
				C-109.7,220.8-110.2,220.2-110.8,220.2z M-114.7,222.6l-3.2,2.1l-3.2-2.1H-114.7z M-123.8,223.6l3.8,2.5l-3.8,2.5V223.6z
				 M-121.1,229.7l3.2-2.1l3.2,2.1H-121.1z M-112,228.6l-3.8-2.5l3.8-2.5V228.6z"/>
		</g>
	</g>
	<g>
		<g>
			<path class="st2" d="M-89.6,220.2h-14.2c-0.7,0-1.2,0.5-1.2,1.2v9.4c0,0.7,0.5,1.2,1.2,1.2h14.1c0.7,0,1.2-0.5,1.2-1.2v-9.4
				C-88.5,220.8-89,220.2-89.6,220.2z M-93.5,222.6l-3.2,2.1l-3.2-2.1H-93.5z M-102.6,223.6l3.8,2.5l-3.8,2.5V223.6L-102.6,223.6z
				 M-99.9,229.7l3.2-2.1l3.2,2.1H-99.9z M-90.8,228.6l-3.8-2.5l3.8-2.5V228.6z"/>
		</g>
	</g>
	<g>
		<g>
			<path class="st2" d="M-68.4,220.2h-14.2c-0.7,0-1.2,0.5-1.2,1.2v9.4c0,0.7,0.5,1.2,1.2,1.2h14.1c0.7,0,1.2-0.5,1.2-1.2v-9.4
				C-67.3,220.8-67.8,220.2-68.4,220.2z M-72.3,222.6l-3.2,2.1l-3.2-2.1H-72.3z M-81.4,223.6l3.8,2.5l-3.8,2.5V223.6z M-78.7,229.7
				l3.2-2.1l3.2,2.1H-78.7z M-69.6,228.6l-3.8-2.5l3.8-2.5V228.6L-69.6,228.6z"/>
		</g>
	</g>
	<g>
		<g>
			<rect x="-123.8" y="234.4" class="st2" width="11.8" height="2.4"/>
		</g>
	</g>
	<g>
		<g>
			<rect x="-102.6" y="234.4" class="st2" width="11.8" height="2.4"/>
		</g>
	</g>
	<g>
		<g>
			<rect x="-81.4" y="234.4" class="st2" width="11.8" height="2.4"/>
		</g>
	</g>
</g>
</svg>
