<?xml version="1.0" encoding="utf-8"?>
<!-- Generator: Adobe Illustrator 23.0.6, SVG Export Plug-In . SVG Version: 6.00 Build 0)  -->
<svg version="1.1" id="Layer_1" xmlns="http://www.w3.org/2000/svg" xmlns:xlink="http://www.w3.org/1999/xlink" x="0px" y="0px"
	 viewBox="0 0 140 167" style="enable-background:new 0 0 140 167;" xml:space="preserve">
<style type="text/css">
	.st0{fill:#A1E5F8;}
	.st1{fill:#FFFFFF;}
	.st2{fill:#77BDD7;}
	.st3{fill:#EBFFFF;}
	.st4{fill:#2308B5;}
	.st5{fill:#E2272D;}
	.st6{fill:#E7ABC5;}
	.st7{fill:#EBFFFF;stroke:#77BDD7;stroke-width:1.5044;stroke-miterlimit:10;}
	.st8{fill:#00B5D8;stroke:#00B5D8;stroke-width:0.6686;stroke-miterlimit:10;}
	.st9{opacity:0.18;fill:#D0F2FB;}
	.st10{opacity:0.21;fill:#A1E5F8;}
	.st11{opacity:0.5;}
	.st12{fill:#2795ED;}
	.st13{fill:#00B5D8;}
	.st14{fill:#0032CC;}
	.st15{opacity:0.7;}
	.st16{fill:#F2FFFF;}
</style>
<path class="st0" d="M-199,26.3c-30.4,8.6-42.2,50.7-34.7,77.6c3.7,13.4,14.3,37.2,27,44.3c14.1,7.9,27.4-2.8,37.4-12.1
	c14.2-13.2,27.6-27.3,41.4-40.9c10.7-10.6,21.9-17.5,12.5-32.4C-131.3,37.6-169.9,18.1-199,26.3z"/>
<g>
	<g>
		<g>
			<path class="st1" d="M-125.6,64.9H-194c-0.7,0-1.2,0.5-1.2,1.2v68.3c0,0.4,0.2,0.7,0.4,0.9c0.3,0.2,0.6,0.3,1,0.2l10.4-2.3
				l11.5,2.3c0.2,0,0.3,0,0.5,0l11.5-2.3l11.5,2.3c0.2,0,0.3,0,0.5,0l11.5-2.3l10.4,2.3c0.1,0,0.2,0,0.3,0c0.3,0,0.5-0.1,0.7-0.3
				c0.3-0.2,0.4-0.6,0.4-0.9V66.1C-124.5,65.5-125,64.9-125.6,64.9z M-126.8,133l-9.2-2c-0.2,0-0.3,0-0.5,0l-11.5,2.3l-11.5-2.3
				c-0.1,0-0.2,0-0.2,0c-0.1,0-0.2,0-0.2,0l-11.5,2.3l-11.5-2.3c-0.2,0-0.3,0-0.5,0l-9.2,2V76.7h66V133z M-126.8,74.4h-66v-7.1h66
				V74.4z"/>
		</g>
	</g>
	<g>
		<g>
			<rect x="-190.4" y="69.7" class="st1" width="2.4" height="2.4"/>
		</g>
	</g>
	<g>
		<g>
			<rect x="-185.7" y="69.7" class="st1" width="2.4" height="2.4"/>
		</g>
	</g>
	<g>
		<g>
			<rect x="-181" y="69.7" class="st1" width="2.4" height="2.4"/>
		</g>
	</g>
	<g>
		<g>
			<rect x="-172.8" y="69.7" class="st1" width="27.1" height="2.4"/>
		</g>
	</g>
	<g>
		<g>
			<rect x="-131.5" y="69.7" class="st1" width="2.4" height="2.4"/>
		</g>
	</g>
	<g>
		<g>
			<path class="st1" d="M-144.5,80.3h-30.6c-0.7,0-1.2,0.5-1.2,1.2v18.8c0,0.7,0.5,1.2,1.2,1.2h30.6c0.7,0,1.2-0.5,1.2-1.2V81.4
				C-143.3,80.8-143.8,80.3-144.5,80.3z M-148.6,82.6l-11.2,6.9l-11.2-6.9H-148.6z M-173.9,83.5l11.9,7.3l-11.9,7.3L-173.9,83.5
				L-173.9,83.5z M-171,99.1l11.2-6.9l11.2,6.9H-171z M-145.7,98.2l-11.9-7.3l11.9-7.3L-145.7,98.2L-145.7,98.2z"/>
		</g>
	</g>
	<g>
		<g>
			<path class="st1" d="M-131.9,90l-3.5-3.5l-1.7,1.7l2.7,2.7l-2.7,2.7l1.7,1.7l3.5-3.5C-131.4,91.2-131.4,90.5-131.9,90z"/>
		</g>
	</g>
	<g>
		<g>
			<path class="st1" d="M-182.5,88.2l-1.7-1.7l-3.5,3.5c-0.5,0.5-0.5,1.2,0,1.7l3.5,3.5l1.7-1.7l-2.7-2.7L-182.5,88.2z"/>
		</g>
	</g>
	<g>
		<g>
			<rect x="-170.4" y="103.8" class="st1" width="2.4" height="2.4"/>
		</g>
	</g>
	<g>
		<g>
			<rect x="-165.7" y="103.8" class="st1" width="2.4" height="2.4"/>
		</g>
	</g>
	<g>
		<g>
			<rect x="-161" y="103.8" class="st1" width="2.4" height="2.4"/>
		</g>
	</g>
	<g>
		<g>
			<rect x="-156.3" y="103.8" class="st1" width="2.4" height="2.4"/>
		</g>
	</g>
	<g>
		<g>
			<rect x="-151.6" y="103.8" class="st1" width="2.4" height="2.4"/>
		</g>
	</g>
	<g>
		<g>
			<path class="st1" d="M-173.9,108.5h-14.1c-0.7,0-1.2,0.5-1.2,1.2v9.4c0,0.7,0.5,1.2,1.2,1.2h14.1c0.7,0,1.2-0.5,1.2-1.2v-9.4
				C-172.8,109.1-173.3,108.5-173.9,108.5z M-177.8,110.9l-3.2,2.1l-3.2-2.1H-177.8z M-186.9,111.9l3.8,2.5l-3.8,2.5
				C-186.9,116.9-186.9,111.9-186.9,111.9z M-184.2,118l3.2-2.1l3.2,2.1H-184.2z M-175.1,116.9l-3.8-2.5l3.8-2.5V116.9z"/>
		</g>
	</g>
	<g>
		<g>
			<path class="st1" d="M-152.7,108.5h-14.1c-0.7,0-1.2,0.5-1.2,1.2v9.4c0,0.7,0.5,1.2,1.2,1.2h14.1c0.7,0,1.2-0.5,1.2-1.2v-9.4
				C-151.6,109.1-152.1,108.5-152.7,108.5z M-156.6,110.9l-3.2,2.1l-3.2-2.1H-156.6z M-165.7,111.9l3.8,2.5l-3.8,2.5V111.9
				L-165.7,111.9z M-163,118l3.2-2.1l3.2,2.1H-163z M-153.9,116.9l-3.8-2.5l3.8-2.5V116.9z"/>
		</g>
	</g>
	<g>
		<g>
			<path class="st1" d="M-131.5,108.5h-14.1c-0.7,0-1.2,0.5-1.2,1.2v9.4c0,0.7,0.5,1.2,1.2,1.2h14.1c0.7,0,1.2-0.5,1.2-1.2v-9.4
				C-130.4,109.1-130.9,108.5-131.5,108.5z M-135.4,110.9l-3.2,2.1l-3.2-2.1H-135.4z M-144.5,111.9l3.8,2.5l-3.8,2.5V111.9z
				 M-141.8,118l3.2-2.1l3.2,2.1H-141.8z M-132.7,116.9l-3.8-2.5l3.8-2.5L-132.7,116.9L-132.7,116.9z"/>
		</g>
	</g>
	<g>
		<g>
			<rect x="-186.9" y="122.7" class="st1" width="11.8" height="2.4"/>
		</g>
	</g>
	<g>
		<g>
			<rect x="-165.7" y="122.7" class="st1" width="11.8" height="2.4"/>
		</g>
	</g>
	<g>
		<g>
			<rect x="-144.5" y="122.7" class="st1" width="11.8" height="2.4"/>
		</g>
	</g>
</g>
<g>
	
		<ellipse transform="matrix(0.9999 -1.654623e-02 1.654623e-02 0.9999 -0.728 -2.989)" class="st2" cx="-181" cy="42.5" rx="34.1" ry="34.1"/>
</g>
<g>
	<path class="st3" d="M-151.7,42.5c0,5.6-1.6,10.9-4.3,15.3c-5.2,8.4-14.4,14-25,14c-4.9,0-9.4-1.2-13.5-3.3
		c-9.4-4.9-15.9-14.7-15.9-26.1c0-16.2,13.1-29.3,29.3-29.3C-164.8,13.2-151.7,26.3-151.7,42.5z"/>
</g>
<g>
	<path class="st4" d="M-191.3,24.1c0,0-15.7,2-9.7,17.4c0,0,0.2,2.7-0.4,4.4c-0.5,1.6,0,5.5,2,7.3c2,1.8,1.5,4.8,0.2,6.6
		c0,0-0.9,2.7,0.7,5.1c0,0,19-4.4,20.9-7.3C-175.8,54.6-191.3,24.1-191.3,24.1z"/>
</g>
<g>
	<path class="st5" d="M-156,57.8c-5.2,8.4-14.4,14-25,14c-4.9,0-9.4-1.2-13.5-3.3C-191,66.3-173.6,55.8-156,57.8z"/>
</g>
<g>
	<path class="st6" d="M-196.3,31.4c0,0-3.3,5.9-1.6,11.9c1.6,6,8.6,15.2,10.2,15.7c1.6,0.5,7.3-3.8,7.3-3.8l1.8,10.4
		c0,0,6.8,1.3,9-1.8c2.2-3.1-4.4-10.4-1.8-24.5C-168.8,25.2-184.4,17.3-196.3,31.4z"/>
</g>
<g>
	<path class="st4" d="M-193,27.4c0,0,1.8,5.5,6,7.3c4.2,1.8,4.6,2.7,4.8,5.5c0.2,2.7,1.5,6.6,4.8,7.7c3.3,1.1,2.4,7.7,2,9.5
		c-0.4,1.8,0.9,2.6,0.9,2.6l18.7-3.8c0,0-0.4-3.8-2.9-6.2c-2.6-2.4-2.7-6-2.7-9c0-2.9-2.7-3.3-4-5.1c-1.3-1.8,0.9-9.7-4.6-13.7
		C-175.6,18-196.3,16.6-193,27.4z"/>
</g>
<g>
	<path class="st4" d="M-190.9,49.1l0.3-4.1c0-0.2,0.2-0.4,0.5-0.4c0.2,0,0.4,0.2,0.4,0.5l-0.2,3l0.9-0.2c0.2-0.1,0.5,0.1,0.5,0.3
		c0.1,0.2-0.1,0.5-0.3,0.5L-190.9,49.1z"/>
</g>
<g>
	<path class="st3" d="M-184.2,46.5c-2.9,0-5.3-2.4-5.3-5.3c0-2.9,2.4-5.3,5.3-5.3c2.9,0,5.3,2.4,5.3,5.3
		C-178.8,44.1-181.2,46.5-184.2,46.5z M-184.2,36.7c-2.5,0-4.5,2-4.5,4.5c0,2.5,2,4.5,4.5,4.5c2.5,0,4.5-2,4.5-4.5
		C-179.7,38.7-181.7,36.7-184.2,36.7z"/>
</g>
<g>
	<path class="st3" d="M-195.7,48.8c-2.9,0-5.3-2.4-5.3-5.3c0-2.9,2.4-5.3,5.3-5.3c2.9,0,5.3,2.4,5.3,5.3
		C-190.4,46.5-192.8,48.8-195.7,48.8z M-195.7,39c-2.5,0-4.5,2-4.5,4.5s2,4.5,4.5,4.5c2.5,0,4.5-2,4.5-4.5S-193.2,39-195.7,39z"/>
</g>
<g>
	<path class="st4" d="M-188.1,53.3c-0.5,0-0.9-0.1-1.2-0.2c-0.2-0.1-0.3-0.3-0.2-0.6c0.1-0.2,0.3-0.3,0.6-0.2c0.1,0,1.5,0.7,2.7-0.7
		c0.2-0.2,0.4-0.2,0.6,0c0.2,0.2,0.2,0.4,0,0.6C-186.4,53-187.4,53.3-188.1,53.3z"/>
</g>
<g>
	<path class="st4" d="M-194.6,45.2C-194.6,45.2-194.6,45.2-194.6,45.2c-0.8,0-1.3-0.8-1.4-0.9c-0.1-0.2,0-0.4,0.2-0.6
		c0.2-0.1,0.5-0.1,0.6,0.1c0.1,0.2,0.4,0.5,0.7,0.5c0,0,0,0,0,0c0.2,0,0.5-0.2,0.7-0.6c0.1-0.2,0.4-0.2,0.6-0.1
		c0.2,0.1,0.3,0.4,0.1,0.6C-193.6,44.9-194.1,45.2-194.6,45.2z"/>
</g>
<g>
	<path class="st4" d="M-184.9,42.9C-184.9,42.9-184.9,42.9-184.9,42.9c-0.8,0-1.3-0.8-1.4-0.9c-0.1-0.2,0-0.5,0.2-0.6
		c0.2-0.1,0.5-0.1,0.6,0.1c0.1,0.2,0.4,0.5,0.7,0.5c0,0,0,0,0,0c0.2,0,0.5-0.2,0.7-0.6c0.1-0.2,0.4-0.3,0.6-0.1
		c0.2,0.1,0.3,0.4,0.1,0.6C-183.9,42.5-184.4,42.9-184.9,42.9z"/>
</g>
<g>
	<path class="st2" d="M-199.5,89.8c-0.5,1-2.2,1.3-3.6,0.6l0,0c-1.5-0.7-2.3-2.1-1.8-3.2l7.7-16.2c0.5-1,2.2-1.3,3.6-0.6l0,0
		c1.5,0.7,2.3,2.1,1.8,3.2L-199.5,89.8z"/>
</g>
<g>
	<path class="st4" d="M-209.7,113.7c-0.6,1.3-2,2-3.1,1.5l-3.6-1.7c-1.1-0.5-1.5-2-0.8-3.4l11.3-23.8c0.6-1.3,2-1.9,3.1-1.4l3.6,1.7
		c1.1,0.5,1.5,1.9,0.9,3.3L-209.7,113.7z"/>
</g>
<g>
	
		<ellipse transform="matrix(0.2387 -0.9711 0.9711 0.2387 -131.9681 -134.7522)" class="st7" cx="-151.9" cy="16.8" rx="14.7" ry="14.7"/>
</g>
<g>
	<g>
		<path class="st8" d="M-145,12.5c-0.3-0.3-0.8-0.3-1.1,0l-8,8l-3.7-3.7c-0.3-0.3-0.8-0.3-1.1,0c-0.3,0.3-0.3,0.8,0,1l4.2,4.2
			c0.3,0.3,0.8,0.3,1.1,0l8.5-8.5C-144.7,13.3-144.7,12.8-145,12.5z"/>
	</g>
</g>
<path class="st9" d="M-190.9,14.8c-4.4,1.6-8.1,4.1-11.2,7.3l42.4,40.6c3.8-4,6.4-9,7.5-14.4c1-5.1,0.7-10.6-1.2-15.9
	C-158.8,17.2-175.7,9.3-190.9,14.8"/>
<path class="st10" d="M-204.3,84.5c-0.5,0-0.9,0.2-1.1,0.5l-2.5,5.2l4.5,9.7c0.2-0.1,0.3-0.2,0.4-0.4l5.2-11c0.3-0.6-0.4-1.5-1.5-2
	l-3.6-1.7C-203.4,84.6-203.9,84.5-204.3,84.5"/>
<path class="st0" d="M-179-110.6c4.8,25.9,30.6,74.3,60.5,74c9.6-0.1,18.8-3.5,28.5-3.5c7.1,0,16.7,4.4,23.4,1.4
	c20-8.8,4.1-32.3,4-46.7c-0.1-18.6,19.7-34,5.5-52.7c-9.1-12-27.8-14.8-41.4-17.3C-133.2-161.5-189-164.1-179-110.6z"/>
<g>
	<g>
		
			<rect x="-116.8" y="-105.3" transform="matrix(5.343187e-02 -0.9986 0.9986 5.343187e-02 -18.8714 -165.6091)" class="st3" width="40" height="64.8"/>
	</g>
	<g class="st11">
		<g>
			<polygon class="st0" points="-64.1,-77.4 -63.4,-91.1 -84.3,-92.2 			"/>
		</g>
		<g>
			<path class="st0" d="M-125-94.4l-3.1-0.2l-0.1,1.4C-127.1-93.6-126.1-94-125-94.4z"/>
		</g>
	</g>
	<g>
		
			<rect x="-136" y="-95.9" transform="matrix(0.9973 -7.317656e-02 7.317656e-02 0.9973 5.2794 -7.7813)" class="st2" width="64.8" height="40"/>
	</g>
	<g class="st11">
		<path class="st0" d="M-102.7-93.6l32,22.4l-2-27.1l-33.2,2.4C-104-94.4-102.7-93.6-102.7-93.6z"/>
	</g>
	<g>
		<path class="st4" d="M-78.5-70.4c0,2.6-2.3,4.7-4.9,4.7h-73.3c-2.6,0-4.7-2.1-4.7-4.7V-121c0-2.6,2.1-4.6,4.7-4.6h73.3
			c2.6,0,4.9,2.1,4.9,4.6V-70.4z"/>
	</g>
	<g>
		<path class="st5" d="M-159.8-110.7c0,0.9-0.7,1.6-1.6,1.6h0c-0.9,0-1.6-0.7-1.6-1.6v-6.9c0-0.9,0.7-1.6,1.6-1.6h0
			c0.9,0,1.6,0.7,1.6,1.6V-110.7z"/>
	</g>
	<g>
		<path class="st5" d="M-159.8-75.7c0,0.9-0.7,1.6-1.6,1.6h0c-0.9,0-1.6-0.7-1.6-1.6v-6.9c0-0.9,0.7-1.6,1.6-1.6h0
			c0.9,0,1.6,0.7,1.6,1.6V-75.7z"/>
	</g>
	<g>
		<rect x="-151.8" y="-117.2" class="st3" width="66.3" height="43.4"/>
	</g>
	<g class="st11">
		<polygon class="st0" points="-99,-102.6 -78.9,-87.8 -78.9,-102.9 		"/>
	</g>
	<g>
		<path class="st5" d="M-147.1-101.3c-2.8-0.1-5.1-4.8-5.1-4.8v9v9.1c0,0,2.3-4.7,5.1-4.8c2.6-0.1,4.9-1.4,5.1-4.2
			C-142.2-99.9-144.5-101.2-147.1-101.3z"/>
	</g>
	<g>
		<path class="st0" d="M-150.6-89.4c0,0.9-0.7,1.7-1.5,1.7h-0.1c-0.9,0-1.6-0.8-1.6-1.7V-105c0-0.9,0.7-1.7,1.6-1.7h0.1
			c0.9,0,1.5,0.8,1.5,1.7V-89.4z"/>
	</g>
	<g>
		<path class="st5" d="M-72-105.8c0,1.9-1.6,3.5-3.5,3.5h-22.6c-1.9,0-3.5-1.6-3.5-3.5v-18.6c0-1.9,1.6-3.5,3.5-3.5h22.6
			c1.9,0,3.5,1.6,3.5,3.5V-105.8z"/>
	</g>
	<g>
		<path class="st6" d="M-72-108.6c0,1.9-1.6,3.5-3.5,3.5h-22.6c-1.9,0-3.5-1.6-3.5-3.5v-22c0-1.9,1.6-3.5,3.5-3.5h22.6
			c1.9,0,3.5,1.6,3.5,3.5V-108.6z"/>
	</g>
	<g>
		<path class="st2" d="M-74.5-127.3c0,1.6-1.6,2.7-3.5,2.7h-17.5c-1.9,0-3.5-1.1-3.5-2.7v-0.2c0-1.6,1.6-3,3.5-3H-78
			c1.9,0,3.5,1.4,3.5,3V-127.3z"/>
	</g>
	<g>
		<path class="st12" d="M-92-114.7c0,0.4,0,0.5-0.4,0.5h-4.5c-0.4,0-0.5-0.1-0.5-0.5v-4.6c0-0.4,0.1-0.7,0.5-0.7h4.5
			c0.4,0,0.4,0.3,0.4,0.7V-114.7z"/>
	</g>
	<g>
		<path class="st12" d="M-92-107.7c0,0.4,0,0.5-0.4,0.5h-4.5c-0.4,0-0.5-0.1-0.5-0.5v-4.6c0-0.4,0.1-0.6,0.5-0.6h4.5
			c0.4,0,0.4,0.2,0.4,0.6V-107.7z"/>
	</g>
	<g>
		<path class="st12" d="M-83.9-114.7c0,0.4-0.2,0.5-0.6,0.5H-89c-0.4,0-0.3-0.1-0.3-0.5v-4.6c0-0.4-0.1-0.7,0.3-0.7h4.5
			c0.4,0,0.6,0.3,0.6,0.7V-114.7z"/>
	</g>
	<g>
		<path class="st12" d="M-83.9-107.7c0,0.4-0.2,0.5-0.6,0.5H-89c-0.4,0-0.3-0.1-0.3-0.5v-4.6c0-0.4-0.1-0.6,0.3-0.6h4.5
			c0.4,0,0.6,0.2,0.6,0.6V-107.7z"/>
	</g>
	<g>
		<path class="st13" d="M-76.2-108.2c0,0.4-0.1,0.6-0.5,0.6h-4.5c-0.4,0-0.4-0.2-0.4-0.6v-11c0-0.4,0-0.7,0.4-0.7h4.5
			c0.4,0,0.5,0.3,0.5,0.7V-108.2z"/>
	</g>
	<g>
		<path class="st12" d="M-49.8-83.4c0,1.6-0.7,2.9-2.3,2.9l0,0c-1.6,0-2.3-1.3-2.3-2.9l-0.6-33.6c0-1.6,1.3-2.9,2.9-2.9l0,0
			c1.6,0,2.9,1.3,2.9,2.9L-49.8-83.4z"/>
	</g>
	<g>
		<polygon class="st5" points="-54.4,-81.7 -52.3,-74.5 -50.1,-81.7 		"/>
	</g>
	<g>
		<path class="st14" d="M-49.5-103.1l0.2-13.8c0-1.6-1.3-2.9-2.9-2.9c-1.6,0-2.9,1.3-2.9,3l0.2,13.8H-49.5z"/>
	</g>
	<g>
		<path class="st3" d="M-47.7-101.5C-47.7-101.5-47.7-101.5-47.7-101.5c-0.3,0-0.5-0.3-0.5-0.6c0-0.1,0.2-11.5,0.2-12.9
			c0-0.3-0.1-0.4-0.1-0.4c-0.2-0.2-0.8-0.2-1-0.1c-0.3,0.1-0.5-0.1-0.6-0.4c-0.1-0.3,0.1-0.5,0.4-0.6c0.1,0,1.2-0.2,1.9,0.3
			c0.2,0.2,0.5,0.5,0.5,1.2c0,1.4-0.2,12.5-0.2,12.9C-47.2-101.8-47.4-101.5-47.7-101.5z"/>
	</g>
	<g>
		<path class="st0" d="M-104.8-76.3c0,0.2-0.2,0.4-0.4,0.4h-11.3c-0.2,0-0.4-0.2-0.4-0.4v-3c0-0.2,0.2-0.4,0.4-0.4h11.3
			c0.2,0,0.4,0.2,0.4,0.4V-76.3z M-116-76.7h10.5v-2.2H-116V-76.7z"/>
	</g>
	<g>
		<path class="st0" d="M-90-76.3c0,0.2-0.2,0.4-0.4,0.4h-18c-0.2,0-0.4-0.2-0.4-0.4v-3c0-0.2,0.2-0.4,0.4-0.4h18
			c0.2,0,0.4,0.2,0.4,0.4V-76.3z M-108.1-76.7h17.5v-2.2h-17.5V-76.7z"/>
	</g>
	<g>
		<path class="st0" d="M-97.1-82.4H-139c-0.2,0-0.4-0.2-0.4-0.5c0-0.2,0.2-0.5,0.4-0.5h41.5v-17.8c0-0.2,0.2-0.4,0.4-0.4
			c0.2,0,0.4,0.2,0.4,0.4v18.2C-96.7-82.7-96.9-82.4-97.1-82.4z"/>
	</g>
	<g>
		<polygon class="st13" points="-135.2,-86.1 -136.8,-88.1 -125.1,-97.6 -118.2,-95.4 -108.9,-107.3 -106.9,-105.8 -117.3,-92.5 
			-124.5,-94.8 		"/>
	</g>
	<g>
		<polygon class="st13" points="-107.6,-99.4 -108.3,-106.1 -115.1,-104.7 -115.6,-107.2 -106.1,-109.1 -105.1,-99.6 		"/>
	</g>
	<g>
		<g>
			<path class="st0" d="M-133.6-87.6c-0.2,0-0.4-0.2-0.4-0.4v-1.3c0-0.2,0.2-0.4,0.4-0.4c0.2,0,0.4,0.2,0.4,0.4v1.3
				C-133.3-87.8-133.4-87.6-133.6-87.6z"/>
		</g>
		<g>
			<path class="st0" d="M-133.6-85.1c-0.2,0-0.4-0.2-0.4-0.4v-1.3c0-0.2,0.2-0.4,0.4-0.4c0.2,0,0.4,0.2,0.4,0.4v1.3
				C-133.3-85.3-133.4-85.1-133.6-85.1z"/>
		</g>
		<g>
			<path class="st0" d="M-133.6-82.6c-0.2,0-0.4-0.2-0.4-0.4v-1c0-0.2,0.2-0.4,0.4-0.4c0.2,0,0.4,0.2,0.4,0.4v1
				C-133.3-82.8-133.4-82.6-133.6-82.6z"/>
		</g>
	</g>
	<g>
		<g>
			<path class="st0" d="M-124.5-94.9c-0.2,0-0.3-0.2-0.3-0.4v-1c0-0.2,0.1-0.4,0.3-0.4c0.2,0,0.3,0.2,0.3,0.4v1
				C-124.3-95.1-124.3-94.9-124.5-94.9z"/>
		</g>
		<g>
			<path class="st0" d="M-124.5-85.9c-0.2,0-0.3-0.2-0.3-0.4v-2.3c0-0.2,0.1-0.4,0.3-0.4c0.2,0,0.3,0.2,0.3,0.4v2.3
				C-124.3-86.1-124.3-85.9-124.5-85.9z M-124.5-90.4c-0.2,0-0.3-0.2-0.3-0.4v-2.3c0-0.2,0.1-0.4,0.3-0.4c0.2,0,0.3,0.2,0.3,0.4v2.3
				C-124.3-90.6-124.3-90.4-124.5-90.4z"/>
		</g>
		<g>
			<path class="st0" d="M-124.5-83.1c-0.2,0-0.3-0.2-0.3-0.4v-1c0-0.2,0.1-0.4,0.3-0.4c0.2,0,0.3,0.2,0.3,0.4v1
				C-124.3-83.3-124.3-83.1-124.5-83.1z"/>
		</g>
	</g>
	<g>
		<g>
			<path class="st0" d="M-117.7-94.9c-0.2,0-0.3-0.2-0.3-0.4v-1c0-0.2,0.1-0.4,0.3-0.4c0.2,0,0.3,0.2,0.3,0.4v1
				C-117.4-95.1-117.5-94.9-117.7-94.9z"/>
		</g>
		<g>
			<path class="st0" d="M-117.7-85.9c-0.2,0-0.3-0.2-0.3-0.4v-2.3c0-0.2,0.1-0.4,0.3-0.4c0.2,0,0.3,0.2,0.3,0.4v2.3
				C-117.4-86.1-117.5-85.9-117.7-85.9z M-117.7-90.4c-0.2,0-0.3-0.2-0.3-0.4v-2.3c0-0.2,0.1-0.4,0.3-0.4c0.2,0,0.3,0.2,0.3,0.4v2.3
				C-117.4-90.6-117.5-90.4-117.7-90.4z"/>
		</g>
		<g>
			<path class="st0" d="M-117.7-83.1c-0.2,0-0.3-0.2-0.3-0.4v-1c0-0.2,0.1-0.4,0.3-0.4c0.2,0,0.3,0.2,0.3,0.4v1
				C-117.4-83.3-117.5-83.1-117.7-83.1z"/>
		</g>
	</g>
	<g>
		<g>
			<path class="st0" d="M-108.4-104.2c-0.2,0-0.4-0.2-0.4-0.4v-1c0-0.2,0.2-0.4,0.4-0.4c0.2,0,0.4,0.2,0.4,0.4v1
				C-108.1-104.4-108.2-104.2-108.4-104.2z"/>
		</g>
		<g>
			<path class="st0" d="M-108.4-86.1c-0.2,0-0.4-0.2-0.4-0.4v-2.3c0-0.2,0.2-0.4,0.4-0.4c0.2,0,0.4,0.2,0.4,0.4v2.3
				C-108.1-86.3-108.2-86.1-108.4-86.1z M-108.4-90.7c-0.2,0-0.4-0.2-0.4-0.4v-2.3c0-0.2,0.2-0.4,0.4-0.4c0.2,0,0.4,0.2,0.4,0.4v2.3
				C-108.1-90.8-108.2-90.7-108.4-90.7z M-108.4-95.2c-0.2,0-0.4-0.2-0.4-0.4v-2.3c0-0.2,0.2-0.4,0.4-0.4c0.2,0,0.4,0.2,0.4,0.4v2.3
				C-108.1-95.4-108.2-95.2-108.4-95.2z M-108.4-99.7c-0.2,0-0.4-0.2-0.4-0.4v-2.3c0-0.2,0.2-0.4,0.4-0.4c0.2,0,0.4,0.2,0.4,0.4v2.3
				C-108.1-99.9-108.2-99.7-108.4-99.7z"/>
		</g>
		<g>
			<path class="st0" d="M-108.4-83.1c-0.2,0-0.4-0.2-0.4-0.4v-1.3c0-0.2,0.2-0.4,0.4-0.4c0.2,0,0.4,0.2,0.4,0.4v1.3
				C-108.1-83.3-108.2-83.1-108.4-83.1z"/>
		</g>
	</g>
</g>
<g>
	<path class="st0" d="M36.7,33.8C21.9,42.8,11,55.9,14,74.4c2.5,15.7,15.2,25.6,17.3,41.9c2.8,21.3,9.3,30.3,32.3,32.4
		c19.1,1.7,34.4-1.8,41.8-20.4c6.8-17.1,5.1-36.9,7.9-55c2.3-15.2,15.2-41.8,10.2-56.7C118.4,1.2,93.3,0.1,80.4,4.2
		C65.4,9.1,50.4,25.4,36.7,33.8z"/>
	<g>
		<g>
			<path class="st4" d="M64.5,95.6l-0.1,1.7l-0.1-1.7l-22.3,1l5.2,25.1c0,0,3,7.7,9.2,7.8c3.6,0.1,6.4,0.1,8.1,0.1
				c1.7,0,4.5,0.1,8.1-0.1c6.2-0.2,9.2-7.8,9.2-7.8l5.2-25.1L64.5,95.6z"/>
		</g>
		<g>
			<path class="st3" d="M56.3,129.9C56.3,129.9,56.3,129.9,56.3,129.9c-4.1-0.5-6.1-10-6.2-10.4l0,0l-3.2-22c0-0.2,0.1-0.4,0.4-0.5
				c0.2,0,0.4,0.1,0.5,0.4l3.2,22c0.5,2.6,2.6,9.4,5.4,9.7c0.2,0,0.4,0.2,0.4,0.5C56.7,129.8,56.6,129.9,56.3,129.9z"/>
		</g>
		<g>
			<path class="st3" d="M58.9,129.9c0,0-0.1,0-0.1,0c-1.5-0.4-2.6-2.2-3.4-5.4c-0.6-2.3-0.7-4.5-0.7-4.6l-0.9-22.4
				c0-0.2,0.2-0.4,0.4-0.4c0.2,0,0.4,0.2,0.4,0.4l0.9,22.4c0.2,2.3,1.1,8.6,3.5,9.2c0.2,0.1,0.4,0.3,0.3,0.5
				C59.2,129.8,59,129.9,58.9,129.9z"/>
		</g>
		<g>
			<path class="st3" d="M61.2,130.1c-0.1,0-0.3-0.1-0.3-0.2c-1.4-1.8-1.4-7.7-1.4-7.9l0.2-24.5c0-0.2,0.2-0.4,0.4-0.4
				c0.2,0,0.4,0.2,0.4,0.4L60.4,122c0,1.6,0.2,6.1,1.2,7.4c0.1,0.2,0.1,0.5-0.1,0.6C61.4,130.1,61.3,130.1,61.2,130.1z"/>
		</g>
		<g>
			<path class="st3" d="M71.4,129.9c-0.2,0-0.4-0.2-0.4-0.4c0-0.2,0.1-0.4,0.4-0.5c2.9-0.3,4.9-7.1,5.4-9.7l3.2-22
				c0-0.2,0.3-0.4,0.5-0.4c0.2,0,0.4,0.3,0.4,0.5l-3.2,22C77.5,119.9,75.5,129.5,71.4,129.9C71.4,129.9,71.4,129.9,71.4,129.9z"/>
		</g>
		<g>
			<path class="st3" d="M68.9,129.9c-0.2,0-0.4-0.1-0.4-0.3c-0.1-0.2,0.1-0.5,0.3-0.5c2.4-0.6,3.4-6.9,3.5-9.2l0.9-22.4
				c0-0.2,0.2-0.4,0.4-0.4c0.2,0,0.4,0.2,0.4,0.4l-0.9,22.4c0,0.1-0.2,2.3-0.7,4.6c-0.8,3.2-1.9,5-3.4,5.4
				C69,129.9,68.9,129.9,68.9,129.9z"/>
		</g>
		<g>
			<path class="st3" d="M66.5,130.1c-0.1,0-0.2,0-0.3-0.1c-0.2-0.1-0.2-0.4-0.1-0.6c1-1.3,1.2-5.8,1.2-7.4l-0.2-24.5
				c0-0.2,0.2-0.4,0.4-0.4c0,0,0,0,0,0c0.2,0,0.4,0.2,0.4,0.4l0.2,24.5c0,0.3,0,6.1-1.4,7.9C66.8,130.1,66.7,130.1,66.5,130.1z"/>
		</g>
		<g class="st15">
			<path class="st0" d="M66.7,95.6l11.5,31.1c2.3-2.3,3.4-5.1,3.4-5.1l5.2-25.1L66.7,95.6z"/>
		</g>
		<g>
			<path class="st5" d="M65.6,87.9c0,0.7-0.6,1.3-1.3,1.3h0c-0.7,0-1.3-0.6-1.3-1.3V28.4c0-0.7,0.6-1.3,1.3-1.3h0
				c0.7,0,1.3,0.6,1.3,1.3V87.9z"/>
		</g>
		<g>
			<path class="st12" d="M92.1,89.1c0,1.4-1.1,2.6-2.5,2.6H38.8c-1.4,0-2.5-1.2-2.5-2.6v-0.4c0-1.4,1.1-2.5,2.5-2.5h50.8
				c1.4,0,2.5,1.1,2.5,2.5V89.1z"/>
		</g>
		<g>
			<path class="st14" d="M88.3,94.5c0,1.4-1.1,2.6-2.6,2.6H42.9c-1.4,0-2.6-1.1-2.6-2.6L36.2,94c0-1.4,1.1-2.6,2.6-2.6h50.8
				c1.4,0,2.6,1.2,2.6,2.6L88.3,94.5z"/>
		</g>
		<g>
			<g>
				<g>
					<path class="st3" d="M52.3,47.8c-0.2,0-0.4-0.2-0.4-0.4v-1.9c0-0.2,0.2-0.4,0.4-0.4c0.2,0,0.4,0.2,0.4,0.4v1.9
						C52.7,47.6,52.6,47.8,52.3,47.8z"/>
				</g>
				<g>
					<path class="st3" d="M52.3,52.9c-0.2,0-0.4-0.2-0.4-0.4v-2.1c0-0.2,0.2-0.4,0.4-0.4c0.2,0,0.4,0.2,0.4,0.4v2.1
						C52.7,52.7,52.6,52.9,52.3,52.9z"/>
				</g>
			</g>
			<g>
				<g>
					<path class="st3" d="M55.7,49.3h-1.9c-0.2,0-0.4-0.2-0.4-0.4c0-0.2,0.2-0.4,0.4-0.4h1.9c0.2,0,0.4,0.2,0.4,0.4
						C56.1,49.1,55.9,49.3,55.7,49.3z"/>
				</g>
				<g>
					<path class="st3" d="M50.7,49.3h-2.1c-0.2,0-0.4-0.2-0.4-0.4c0-0.2,0.2-0.4,0.4-0.4h2.1c0.2,0,0.4,0.2,0.4,0.4
						C51.2,49.1,51,49.3,50.7,49.3z"/>
				</g>
			</g>
		</g>
		<g>
			<g>
				<g>
					<path class="st3" d="M105.8,36c-0.2,0-0.4-0.2-0.4-0.4v-1.9c0-0.2,0.2-0.4,0.4-0.4c0.2,0,0.4,0.2,0.4,0.4v1.9
						C106.2,35.8,106,36,105.8,36z"/>
				</g>
				<g>
					<path class="st3" d="M105.8,41.1c-0.2,0-0.4-0.2-0.4-0.4v-2.1c0-0.2,0.2-0.4,0.4-0.4c0.2,0,0.4,0.2,0.4,0.4v2.1
						C106.2,40.9,106,41.1,105.8,41.1z"/>
				</g>
			</g>
			<g>
				<g>
					<path class="st3" d="M109.2,37.4h-1.9c-0.2,0-0.4-0.2-0.4-0.4c0-0.2,0.2-0.4,0.4-0.4h1.9c0.2,0,0.4,0.2,0.4,0.4
						C109.6,37.2,109.5,37.4,109.2,37.4z"/>
				</g>
				<g>
					<path class="st3" d="M104.3,37.4h-2.1c-0.2,0-0.4-0.2-0.4-0.4c0-0.2,0.2-0.4,0.4-0.4h2.1c0.2,0,0.4,0.2,0.4,0.4
						C104.7,37.2,104.5,37.4,104.3,37.4z"/>
				</g>
			</g>
		</g>
		<g>
			<g>
				<g>
					<path class="st3" d="M77.8,23c-0.2,0-0.4-0.2-0.4-0.4v-1.9c0-0.2,0.2-0.4,0.4-0.4c0.2,0,0.4,0.2,0.4,0.4v1.9
						C78.2,22.8,78,23,77.8,23z"/>
				</g>
				<g>
					<path class="st3" d="M77.8,28.1c-0.2,0-0.4-0.2-0.4-0.4v-2.1c0-0.2,0.2-0.4,0.4-0.4c0.2,0,0.4,0.2,0.4,0.4v2.1
						C78.2,27.9,78,28.1,77.8,28.1z"/>
				</g>
			</g>
			<g>
				<g>
					<path class="st3" d="M81.3,24.5h-1.9c-0.2,0-0.4-0.2-0.4-0.4c0-0.2,0.2-0.4,0.4-0.4h1.9c0.2,0,0.4,0.2,0.4,0.4
						C81.7,24.3,81.5,24.5,81.3,24.5z"/>
				</g>
				<g>
					<path class="st3" d="M76.4,24.5h-2.1c-0.2,0-0.4-0.2-0.4-0.4c0-0.2,0.2-0.4,0.4-0.4h2.1c0.2,0,0.4,0.2,0.4,0.4
						C76.8,24.3,76.6,24.5,76.4,24.5z"/>
				</g>
			</g>
		</g>
		<g>
			<g>
				<path class="st6" d="M65,82.7c0,0-1.2-28.1-32.6-30.5C32.3,52.2,36.9,84.5,65,82.7z"/>
			</g>
			<g>
				<path class="st3" d="M63.9,82.2c-0.1,0-0.2-0.1-0.3-0.2c-5.7-6.8-13.9-14.4-19.9-19.7c-6.4-5.7-11.6-9.8-11.6-9.8
					c-0.2-0.1-0.2-0.4-0.1-0.6c0.1-0.2,0.4-0.2,0.6-0.1c0.1,0,5.2,4.2,11.7,9.9c6,5.3,14.2,12.9,20,19.8c0.2,0.2,0.1,0.4-0.1,0.6
					C64.1,82.1,64,82.2,63.9,82.2z"/>
			</g>
			<g>
				<path class="st3" d="M49.1,67.1c-0.1,0-0.1,0-0.2,0c-6-2.7-11-0.7-11-0.7c-0.2,0.1-0.5,0-0.6-0.2c-0.1-0.2,0-0.5,0.2-0.6
					c0.2-0.1,5.3-2.2,11.7,0.7c0.2,0.1,0.3,0.3,0.2,0.6C49.4,67,49.3,67.1,49.1,67.1z"/>
			</g>
			<g>
				<path class="st3" d="M54.7,72.3c-0.2,0-0.3-0.1-0.4-0.3c-1.7-4.6,0.9-9.8,1-10c0.1-0.2,0.4-0.3,0.6-0.2c0.2,0.1,0.3,0.4,0.2,0.6
					c0,0.1-2.5,5.2-1,9.4c0.1,0.2,0,0.5-0.3,0.5C54.8,72.3,54.8,72.3,54.7,72.3z"/>
			</g>
			<g>
				<path class="st3" d="M48.1,78.9c-0.2,0-0.4-0.1-0.4-0.3c-0.1-0.2,0.1-0.5,0.3-0.5c0.4-0.1,8.8-2.7,12.3-0.8
					c0.2,0.1,0.3,0.4,0.2,0.6c-0.1,0.2-0.4,0.3-0.6,0.2c-3.3-1.7-11.6,0.8-11.7,0.9C48.2,78.9,48.2,78.9,48.1,78.9z"/>
			</g>
		</g>
		<g>
			<g>
				<path class="st5" d="M64.6,86.9c0,0,1.2-26.4,30.6-28.7C95.2,58.2,90.9,88.6,64.6,86.9z"/>
			</g>
			<g>
				<path class="st3" d="M65.6,86.3c-0.1,0-0.2,0-0.2-0.1c-0.2-0.1-0.2-0.4,0-0.5c5.4-6.4,13.1-13.6,18.7-18.5
					c6.1-5.3,10.9-9.2,11-9.3c0.2-0.1,0.4-0.1,0.5,0.1c0.1,0.2,0.1,0.4-0.1,0.5c0,0-4.9,3.9-10.9,9.2C79,72.6,71.2,79.8,65.9,86.2
					C65.8,86.3,65.7,86.3,65.6,86.3z"/>
			</g>
			<g>
				<path class="st3" d="M79.5,72.1c-0.1,0-0.3-0.1-0.3-0.2c-0.1-0.2,0-0.4,0.2-0.5c5.9-2.7,10.7-0.7,10.9-0.6
					c0.2,0.1,0.3,0.3,0.2,0.5c-0.1,0.2-0.3,0.3-0.5,0.2l0,0c0,0-4.7-1.9-10.4,0.6C79.6,72.1,79.5,72.1,79.5,72.1z"/>
			</g>
			<g>
				<path class="st3" d="M74.2,77.1c0,0-0.1,0-0.1,0c-0.2-0.1-0.3-0.3-0.2-0.5c1.5-4-0.9-8.8-0.9-8.8c-0.1-0.2,0-0.4,0.2-0.5
					c0.2-0.1,0.4,0,0.5,0.2c0.1,0.2,2.5,5.1,0.9,9.4C74.5,77,74.4,77.1,74.2,77.1z"/>
			</g>
			<g>
				<path class="st3" d="M80.4,83.2c0,0-0.1,0-0.1,0c-0.1,0-7.9-2.4-11-0.8c-0.2,0.1-0.4,0-0.5-0.2c-0.1-0.2,0-0.4,0.2-0.5
					c3.3-1.7,11.2,0.6,11.5,0.7c0.2,0.1,0.3,0.3,0.2,0.5C80.7,83.1,80.6,83.2,80.4,83.2z"/>
			</g>
		</g>
		<g>
			<g>
				<rect x="65.6" y="36.6" class="st13" width="32.3" height="14.9"/>
			</g>
			<g>
				<path class="st3" d="M94.3,50.3H69.1l0-0.4c0-1-0.7-1.8-1.6-2.1l-0.3-0.1v-7.5l0.3-0.1c0.9-0.3,1.5-1,1.6-2l0-0.4h25.1l0,0.4
					c0.1,1,0.8,1.8,1.8,2l0.3,0.1v7.4l-0.3,0.1c-1,0.2-1.7,1.1-1.8,2.2L94.3,50.3z M69.9,49.5h23.6c0.2-1.2,1-2.1,2-2.5v-6.1
					c-1-0.4-1.8-1.2-2-2.3H69.9c-0.2,1-0.8,1.8-1.9,2.2v6.3C69,47.5,69.7,48.5,69.9,49.5z"/>
			</g>
			<g>
				<path class="st3" d="M86,43.8c0,2.2-1.8,4.1-4.1,4.1c-2.2,0-4.1-1.8-4.1-4.1c0-2.2,1.8-4.1,4.1-4.1C84.1,39.8,86,41.6,86,43.8z"
					/>
			</g>
			<g>
				<g>
					<path class="st4" d="M82.1,40.7v0.7c0.4,0,0.8,0.2,1.1,0.4l-0.4,0.9c-0.3-0.2-0.5-0.3-0.8-0.3c-0.2,0-0.3,0-0.4,0.1
						c-0.1,0.1-0.1,0.1-0.1,0.2c0,0.1,0,0.2,0.1,0.2c0.1,0.1,0.2,0.1,0.3,0.2l0.4,0.1c0.4,0.1,0.7,0.3,0.9,0.5
						c0.2,0.2,0.3,0.5,0.3,0.8c0,0.2,0,0.4-0.1,0.5c0,0.1-0.1,0.3-0.2,0.4c-0.1,0.1-0.2,0.2-0.4,0.3c-0.2,0.1-0.4,0.2-0.6,0.2v0.7
						h-0.6V46c-0.1,0-0.3,0-0.4,0c-0.1,0-0.3-0.1-0.4-0.1c-0.1-0.1-0.3-0.1-0.4-0.2c-0.1-0.1-0.2-0.1-0.3-0.2l0.5-0.9
						c0.4,0.3,0.7,0.5,1.1,0.5c0.1,0,0.3,0,0.4-0.1c0.1-0.1,0.2-0.2,0.2-0.3c0-0.2-0.1-0.3-0.4-0.4l-0.3-0.1
						C81.3,44,81.1,44,81,43.9c-0.1-0.1-0.3-0.2-0.4-0.3c-0.1-0.1-0.2-0.2-0.2-0.3c0-0.1-0.1-0.3-0.1-0.4c0-0.2,0-0.3,0.1-0.5
						c0.1-0.2,0.1-0.3,0.2-0.4c0.1-0.1,0.2-0.2,0.4-0.3c0.2-0.1,0.3-0.1,0.5-0.2v-0.7H82.1z"/>
				</g>
			</g>
			<g>
				<path class="st16" d="M74.5,43.6c0,0.3-0.3,0.4-0.5,0.4h-2.2c-0.3,0-0.5-0.2-0.5-0.4v-0.1c0-0.3,0.2-0.5,0.5-0.5H74
					c0.3,0,0.5,0.2,0.5,0.5V43.6z"/>
			</g>
			<g>
				<path class="st16" d="M92.6,43.6c0,0.3-0.3,0.4-0.5,0.4h-2.2c-0.3,0-0.4-0.2-0.4-0.4v-0.1c0-0.3,0.2-0.5,0.4-0.5h2.2
					c0.3,0,0.5,0.2,0.5,0.5V43.6z"/>
			</g>
			<g class="st11">
				<polygon class="st0" points="97.9,51.5 85.5,51.5 80.2,36.6 97.9,36.6 				"/>
			</g>
		</g>
		<g>
			<g>
				<rect x="30.7" y="26.6" class="st13" width="32.3" height="14.9"/>
			</g>
			<g>
				<path class="st3" d="M59.3,40.3H34.1l0-0.4c0-1-0.7-1.8-1.6-2.1l-0.3-0.1v-7.5l0.3-0.1c0.9-0.3,1.5-1,1.6-2l0-0.4h25.1l0,0.4
					c0.1,1,0.8,1.8,1.8,2l0.3,0.1v7.4l-0.3,0.1c-1,0.2-1.7,1.1-1.8,2.2L59.3,40.3z M34.9,39.5h23.6c0.2-1.2,1-2.1,2.1-2.5v-6.1
					c-1-0.4-1.8-1.2-2-2.2H34.9c-0.2,0.8-1,1.8-1.8,2.2v6.3C34.1,37.5,34.7,38.5,34.9,39.5z"/>
			</g>
			<g>
				<ellipse transform="matrix(0.1759 -0.9844 0.9844 0.1759 5.3755 74.0404)" class="st3" cx="46.9" cy="33.8" rx="4.1" ry="4.1"/>
			</g>
			<g>
				<g>
					<path class="st4" d="M47.1,30.7v0.7c0.4,0,0.8,0.2,1.1,0.4l-0.4,0.9c-0.3-0.2-0.5-0.3-0.8-0.3c-0.2,0-0.3,0-0.4,0.1
						c-0.1,0.1-0.1,0.1-0.1,0.2c0,0.1,0,0.2,0.1,0.2c0.1,0.1,0.2,0.1,0.3,0.2l0.4,0.1c0.4,0.1,0.7,0.3,0.9,0.5
						c0.2,0.2,0.3,0.5,0.3,0.8c0,0.2,0,0.4-0.1,0.5c0,0.1-0.1,0.3-0.2,0.4c-0.1,0.1-0.2,0.2-0.4,0.3c-0.2,0.1-0.4,0.2-0.6,0.2v0.7
						h-0.6V36c-0.1,0-0.3,0-0.4,0c-0.1,0-0.3-0.1-0.4-0.1c-0.1-0.1-0.3-0.1-0.4-0.2c-0.1-0.1-0.2-0.1-0.3-0.2l0.5-0.9
						c0.4,0.3,0.7,0.5,1.1,0.5c0.1,0,0.3,0,0.4-0.1c0.1-0.1,0.2-0.2,0.2-0.3c0-0.2-0.1-0.3-0.4-0.4l-0.3-0.1
						c-0.2-0.1-0.4-0.1-0.5-0.2c-0.1-0.1-0.3-0.2-0.4-0.3c-0.1-0.1-0.2-0.2-0.2-0.3c0-0.1-0.1-0.3-0.1-0.4c0-0.2,0-0.3,0.1-0.5
						c0-0.2,0.1-0.3,0.2-0.4c0.1-0.1,0.2-0.2,0.4-0.3c0.2-0.1,0.3-0.1,0.5-0.2v-0.7H47.1z"/>
				</g>
			</g>
			<g>
				<path class="st16" d="M39.5,33.6c0,0.3-0.2,0.5-0.5,0.5h-2.3c-0.3,0-0.5-0.2-0.5-0.5v-0.1c0-0.3,0.2-0.5,0.5-0.5H39
					C39.3,33,39.5,33.2,39.5,33.6L39.5,33.6z"/>
			</g>
			<g>
				<path class="st16" d="M57.7,33.6c0,0.3-0.2,0.5-0.5,0.5h-2.3c-0.3,0-0.5-0.2-0.5-0.5v-0.1c0-0.3,0.2-0.5,0.5-0.5h2.3
					C57.4,33,57.7,33.2,57.7,33.6L57.7,33.6z"/>
			</g>
			<g class="st11">
				<polygon class="st0" points="62.9,41.5 50.5,41.5 45.2,26.6 62.9,26.6 				"/>
			</g>
		</g>
	</g>
</g>
</svg>
