<?xml version="1.0" encoding="utf-8"?>
<!-- Generator: Adobe Illustrator 24.1.3, SVG Export Plug-In . SVG Version: 6.00 Build 0)  -->
<svg version="1.1" id="Layer_1" xmlns="http://www.w3.org/2000/svg" xmlns:xlink="http://www.w3.org/1999/xlink" x="0px" y="0px"
	 viewBox="0 0 1000 1000" style="enable-background:new 0 0 1000 1000;" xml:space="preserve">
<style type="text/css">
	.st0{fill:#A1E5F8;}
	.st1{fill:#77BDD7;}
	.st2{fill:#E7ABC5;}
	.st3{fill:#F2FFFF;}
	.st4{fill:#2795ED;}
	.st5{fill:#E2272D;}
	.st6{fill:#2308B5;}
	.st7{fill:#00B5D8;}
	.st8{fill:#EBFFFF;}
</style>
<path class="st0" d="M907.6,901.23c160.26-82.15,66.94-190.54,12.38-286.06c-57.42-100.52-5.9-168.58-44.04-272.29
	c-41.55-112.95-193.57-130.54-296.08-158.4c-129.21-35.12-302.4-100.73-435.04-46.89C24.43,186.46,11.74,334.22,20.26,448.99
	c11.86,159.65,96.31,202.08,210.18,290.14c119.11,92.11,144.76,195.16,303.25,236.85C678.28,1014.03,779.29,967.01,907.6,901.23z"/>
<g>
	<path class="st1" d="M844.88,515.18c0,0,28.91-1.06,23.5,36.9c-5.4,37.97-8.2,53.08-8.2,53.08s-8.54,18.93-32.83,17.27
		L844.88,515.18z"/>
</g>
<g>
	<path class="st2" d="M698.04,695.17c0,0-28.95-26.72-50.85-34.12c-21.9-7.39-86.64-11.42-86.95-5.56
		c-0.69,13.3,41.69,16.6,62.05,24.18c20.37,7.58,55.51,52.97,55.51,52.97S701.36,715.74,698.04,695.17z"/>
</g>
<g>
	<path class="st2" d="M962.42,893.24c0,0-121.28-117.61-146.38-136.27c-25.1-18.65-108.61-48.73-116.79-31.14
		c-8.18,17.59-51.93,124.55,0.73,131.5c52.67,6.95,68.1,6.08,84.28,19.62c16.18,13.54,72.98,87.33,72.98,87.33
		S928.68,947.15,962.42,893.24z"/>
</g>
<g>
	<path class="st3" d="M482.03,353.44c0,0,100.85,99.72,159.89,102.64l-15.14,150.3c0,0-91.45-13.42-173.41,58.5L482.03,353.44z"/>
</g>
<g>
	<g>
		<path class="st4" d="M517.33,514.33c-10.33,89.88-51.22,159.01-91.32,154.4c-40.1-4.61-64.23-81.21-53.9-171.1
			c10.34-89.89,51.22-159.01,91.32-154.4C503.54,347.84,527.67,424.44,517.33,514.33z"/>
	</g>
	<g>
		<path class="st5" d="M496.53,511.93c-2.7,23.44-7.71,45.21-14.28,63.94c-14.43,41.12-36.35,67.62-57.79,65.16
			c-31.18-3.58-49.48-67.19-40.87-142.09c8.61-74.89,40.87-132.69,72.06-129.1c21.33,2.45,36.63,32.98,41.42,75.99
			C499.29,465.71,499.26,488.25,496.53,511.93z"/>
	</g>
	<g>
		<path class="st6" d="M497.71,512.07c-2.7,23.44-8.31,45.14-15.96,63.75c-13.67-8.98-33.3-17.39-59.98-19.21l8.2-107.41
			c0,0,36.96,8.51,66.56-3.43C499.84,465.77,500.43,488.39,497.71,512.07z"/>
	</g>
	<g>
		<path class="st4" d="M451.25,506.73c-3.45,30.02-18.58,52.94-33.78,51.2c-15.2-1.75-24.73-27.5-21.28-57.53
			c3.45-30.02,18.58-52.94,33.78-51.19C445.18,450.95,454.71,476.71,451.25,506.73z"/>
	</g>
</g>
<g>
	<path class="st6" d="M612.64,601.61c0,0-0.42,28.03,13.54,34.07c13.96,6.05,52.79,12.12,53.72,32.2
		c0.93,20.09-17.61,89.99-29.5,113.22c-11.89,23.23-22.18,65.69,28.9,70.25c51.08,4.56,57.48,6.1,59.48-59.43
		c1.99-65.52,4.63-113.25,16.03-121.65c11.39-8.4,17.52-15.38,18.13-41.88L612.64,601.61z"/>
</g>
<g>
	<path class="st2" d="M640.28,771.43c-11.02-2.06-14.56,20.23-8.44,31.08c6.12,10.85,37.52,32.9,45.49,36.69
		c7.98,3.79,41.26-8.52,48.41-11.45c7.15-2.93-1.58-12.77-15.03-11.11c-13.45,1.66-25.04,1.73-34.86-5.92
		C666.03,803.05,655.65,774.3,640.28,771.43z"/>
</g>
<g>
	<path class="st2" d="M656.41,710.42c-12.55-2.35-16.58,23.03-9.61,35.38c6.97,12.35,42.71,37.45,51.8,41.77
		c9.08,4.32,46.98-9.7,55.11-13.04c8.14-3.34-1.8-14.54-17.11-12.65c-15.31,1.89-28.51,1.97-39.69-6.74
		C685.73,746.43,673.91,713.7,656.41,710.42z"/>
</g>
<g>
	<path class="st2" d="M647.57,739.49c-12.55-2.35-16.58,23.03-9.61,35.38c6.97,12.35,42.71,37.45,51.8,41.77
		c9.08,4.31,46.98-9.7,55.11-13.04c8.13-3.34-1.8-14.54-17.11-12.65c-15.31,1.89-28.51,1.97-39.69-6.74
		C676.9,775.49,665.08,742.76,647.57,739.49z"/>
</g>
<g>
	<path class="st6" d="M686.3,842.44c-4.33,0.54-7.97,0.46-10.22-0.61c-8.25-3.92-40.28-26.36-46.78-37.89
		c-0.79-1.4-0.3-3.18,1.11-3.97c1.4-0.8,3.18-0.3,3.97,1.11c5.76,10.21,36.81,31.97,44.21,35.49c5.55,2.64,32.51-5.96,46.05-11.52
		c0.62-0.26,0.76-0.48,0.76-0.48c0-0.08-0.14-0.71-1.06-1.62c-2.26-2.24-7.24-4.17-13.26-3.42c-1.6,0.2-3.05-0.94-3.25-2.54
		c-0.2-1.6,0.94-3.05,2.53-3.25c10.56-1.31,19.2,3.72,20.64,9.23c0.83,3.16-0.8,6.1-4.15,7.47
		C726.53,830.57,701.94,840.5,686.3,842.44z"/>
</g>
<g>
	<path class="st6" d="M708.77,790.89c-4.85,0.6-8.91,0.51-11.42-0.68c-9.37-4.45-45.71-29.91-53.08-42.97
		c-0.79-1.4-0.3-3.18,1.1-3.97c1.4-0.8,3.18-0.3,3.97,1.1c6.59,11.67,42.06,36.55,50.51,40.57c6.73,3.2,38.2-7.13,52.76-13.1
		c1.23-0.51,1.14-0.89,1.06-1.16c-0.69-2.62-7.2-7.07-16.71-5.9c-13.54,1.68-29.06,2.63-41.84-7.34c-1.27-0.99-1.5-2.82-0.51-4.09
		c0.99-1.27,2.82-1.5,4.09-0.51c9.95,7.76,21.74,8.1,37.54,6.15c11.81-1.46,21.46,4.1,23.06,10.2c0.9,3.45-0.82,6.53-4.49,8.03
		C754.46,777.38,726.44,788.7,708.77,790.89z"/>
</g>
<g>
	<path class="st6" d="M699.93,819.95c-4.85,0.6-8.91,0.51-11.42-0.68c-9.37-4.45-45.71-29.91-53.08-42.97
		c-0.79-1.4-0.3-3.18,1.11-3.97c1.4-0.8,3.18-0.3,3.97,1.11c6.59,11.67,42.06,36.55,50.51,40.57c6.73,3.2,38.19-7.13,52.76-13.1
		c1.23-0.51,1.14-0.88,1.06-1.16c-0.69-2.62-7.2-7.07-16.71-5.89c-1.6,0.2-3.05-0.94-3.25-2.53c-0.2-1.6,0.94-3.05,2.54-3.25
		c11.81-1.46,21.46,4.1,23.06,10.2c0.9,3.45-0.82,6.53-4.49,8.03C745.63,806.45,717.61,817.77,699.93,819.95z"/>
</g>
<g>
	<path class="st2" d="M812.79,753.93c0,0-10.54-0.68-31.52-31.83c-20.98-31.16-22.24-41.99-46.34-39.62
		c-24.1,2.37-41.2,40.37-62.08,45.88c-20.88,5.5,5.62,15.27,24.57,5.48c18.96-9.78,31.79-15.56,31.79-15.56
		S743.75,806.69,812.79,753.93z"/>
</g>
<g>
	<path class="st6" d="M770.27,773.45c-0.21,0.03-0.43,0.03-0.65,0.01c-14.41-1.43-26.48-11.46-34.92-28.99
		c-4.23-8.79-6.54-17.3-7.61-22c-4.98,2.33-15.23,7.2-28.33,13.96c-12.8,6.6-28.68,5.03-33.99,1.04c-2.69-2.02-2.57-4.36-2.39-5.28
		c0.57-2.94,3.67-5.06,9.73-6.65c8.77-2.31,17.14-11.24,26-20.69c11.01-11.74,22.39-23.9,36.53-25.27c1.6-0.16,3.03,1.01,3.19,2.62
		c0.16,1.6-0.96,3.02-2.62,3.18c-11.91,1.16-22.57,12.5-32.85,23.46c-9.45,10.08-18.38,19.6-28.77,22.34
		c-2.85,0.75-4.29,1.47-4.99,1.92c3.25,2.09,16.3,3.93,27.49-1.84c18.81-9.71,31.8-15.57,31.93-15.63l3.45-1.55l0.62,3.74
		c0.08,0.47,8.1,46.87,38.1,49.85c1.6,0.16,2.77,1.59,2.61,3.19C772.67,772.22,771.59,773.28,770.27,773.45z"/>
</g>
<g>
	<path class="st1" d="M612.64,601.61l159.14,30.04c0,0,16.65-3.62,20.69-21.21c4.04-17.6,15.68-93.9,15.68-93.9
		s0.98-17.22-19.29-24.03c-20.27-6.82-121.7-34.41-121.7-34.41s-34.13-12.09-40.19,8.08c-6.05,20.18-20.68,90.37-20.68,90.37
		S601.35,598.34,612.64,601.61z"/>
</g>
<g>
	<path class="st5" d="M830.98,612.93c-1.69,11.9-12.71,20.18-24.61,18.48l-1.05-0.15c-11.9-1.69-20.18-12.71-18.48-24.61
		l16.26-85.88c1.69-11.9,12.71-20.18,24.61-18.48l1.05,0.15c11.9,1.69,20.18,12.71,18.48,24.61L830.98,612.93z"/>
</g>
<g>
	<path class="st6" d="M769.17,515.06c-0.87,4.85-5.99,7.99-11.44,7.01l-94.13-16.86c-5.45-0.98-9.16-5.7-8.3-10.54l0,0
		c0.87-4.85,5.99-7.99,11.44-7.01l94.13,16.86C766.32,505.5,770.04,510.22,769.17,515.06L769.17,515.06z"/>
</g>
<g>
	<path class="st7" d="M676.18,540.51c0.68,5.49-3.22,10.5-8.72,11.18c-5.49,0.68-10.5-3.22-11.18-8.72
		c-0.68-5.5,3.22-10.5,8.72-11.18C670.49,531.12,675.5,535.02,676.18,540.51z"/>
</g>
<g>
	<path class="st5" d="M707.74,544.38c0.68,5.5-3.22,10.5-8.72,11.18c-5.5,0.68-10.5-3.22-11.18-8.72
		c-0.68-5.49,3.22-10.5,8.72-11.18C702.05,534.98,707.06,538.88,707.74,544.38z"/>
</g>
<g>
	<g>
		<path class="st8" d="M263.23,474.98c-1.6,0.2-3.05-0.94-3.25-2.54c-0.07-0.53-6.09-53.46,36.62-76.61
			c1.41-0.77,3.19-0.24,3.95,1.17c0.77,1.42,0.24,3.18-1.17,3.95c-39.25,21.27-33.67,70.27-33.61,70.76
			C265.96,473.32,264.83,474.78,263.23,474.98z"/>
	</g>
	<g>
		<path class="st8" d="M213.63,480.88C213.63,480.88,213.63,480.88,213.63,480.88c-1.6,0.2-3.05-0.94-3.25-2.53
			c-0.12-0.96-2.84-23.89,3.67-52.17c6.04-26.23,21.54-61.98,61.04-83.39c1.42-0.77,3.18-0.24,3.95,1.17
			c0.77,1.42,0.24,3.18-1.17,3.95c-30.12,16.33-49.67,43.04-58.09,79.39c-6.33,27.31-3.64,50.1-3.61,50.33
			C216.36,479.23,215.23,480.68,213.63,480.88z"/>
	</g>
	<g>
		<path class="st8" d="M161.35,490.22c-1.6,0.2-3.05-0.94-3.25-2.53c-0.17-1.38-4.08-34.27,5.28-74.9
			c8.67-37.62,30.89-88.91,87.52-119.6c1.42-0.77,3.18-0.24,3.95,1.17c0.77,1.42,0.24,3.18-1.17,3.95
			c-54.72,29.66-76.22,79.33-84.61,115.79c-9.13,39.64-5.22,72.55-5.18,72.88C164.08,488.57,162.94,490.02,161.35,490.22z"/>
	</g>
</g>
<g>
	<path class="st7" d="M857.24,964.28c0,0,71.44-17.13,105.18-71.04C887.81,884.86,857.24,964.28,857.24,964.28z"/>
</g>
</svg>
