<?xml version="1.0" encoding="UTF-8" standalone="no"?>
<svg width="71px" height="34px" viewBox="0 0 71 34" version="1.1" xmlns="http://www.w3.org/2000/svg" xmlns:xlink="http://www.w3.org/1999/xlink">
    <!-- Generator: Sketch 3.8.3 (29802) - http://www.bohemiancoding.com/sketch -->
    <title>RAN_Logo_wh</title>
    <desc>Created with Sketch.</desc>
    <defs/>
    <g id="Welcome" stroke="none" stroke-width="1" fill="none" fill-rule="evenodd">
        <g id="No-FCS-internal-page" transform="translate(-147.000000, -19.000000)" stroke-width="0.504" stroke="#FFFFFF" fill="#FFFFFF">
            <g id="Header" transform="translate(-1.000000, 0.000000)">
                <g id="RAN_Logo_wh" transform="translate(149.000000, 20.000000)">
                    <g id="Group">
                        <g id="Layer_3">
                            <path d="M68.2131052,6.61466681 C68.2873221,7.17666281 68.3244306,8.5629196 68.6584071,9.1249156 C68.955275,9.6869116 69.1037089,10.3238404 68.9181665,10.5486388 C68.732624,10.8109036 67.7306948,11.410366 67.3596099,11.5602316 C66.988525,11.7100972 66.7287655,11.3728996 66.5061146,11.4478324 C66.2463552,11.5227652 66.0608127,11.7100972 65.8381618,11.7100972 C65.9494872,11.410366 66.3205721,11.035702 66.0979212,10.5861052 C65.8381618,10.1365084 64.9846665,9.537046 64.5393646,9.3871804 C64.0940627,9.2747812 63.5003268,9.5745124 63.4261098,10.0241092 C63.3518929,10.473706 63.7229778,11.78503 63.7971948,12.0847612 C64.0569542,12.0847612 64.2796051,12.1971604 64.4651476,12.159694 C64.2796051,12.6467572 63.9085202,12.6467572 63.7971948,12.8340892 C63.6858693,13.0214212 63.6116523,13.6958164 63.1292419,13.6958164 C62.6468315,13.6958164 62.1273127,12.8715556 61.9046617,12.4594252 C61.6449023,12.0098284 60.865624,10.6985044 60.3461051,10.5861052 C59.8636947,10.473706 58.676223,10.84837 58.3793551,11.035702 C58.0824872,11.223034 57.3403173,11.6726308 56.78369,11.7100972 C56.2270626,11.78503 54.668506,11.8224964 54.1860956,12.0847612 C53.7036852,12.347026 52.4048881,13.8831484 52.0709116,14.2578124 C51.7740437,14.6324764 50.1412701,15.8688676 50.0299447,16.2060652 C49.9186192,16.5057964 49.2135579,19.2033772 49.6588597,20.589634 C50.1041616,21.9758908 51.0318739,23.96161 51.3287418,24.2613412 C51.7740437,24.2613412 52.5162135,24.336274 52.627539,24.9357364 C53.1099494,25.0481356 53.3697088,25.6101316 53.2954918,25.8723964 C53.2212749,26.1346612 53.1099494,26.6217244 52.553322,26.6966572 C51.9966947,26.77159 51.5513928,26.584258 51.3287418,26.8090564 C51.0689824,27.0713212 49.9186192,26.6966572 49.6588597,26.3594596 C49.3991003,26.0597284 49.0280154,25.9847956 48.9166899,25.6101316 C48.8053645,25.2354676 48.9166899,25.0481356 48.619822,24.8608036 C48.3229541,24.6734716 46.2077701,22.1257564 45.7253597,21.1890964 C45.2429493,20.2524364 43.9441522,18.1917844 44.0554776,17.1801916 C44.1668031,16.1685988 44.2410201,16.6181956 43.3133078,16.3184644 C42.8680059,16.1685988 41.9031852,15.9438004 41.4578833,15.9438004 C41.0125814,15.9438004 39.7880012,16.0561996 39.5282417,16.2060652 C39.2684823,16.3184644 38.34077,17.966986 37.9325766,18.34165 C37.4872747,18.716314 35.9658266,20.027638 35.7802842,20.4772348 C35.5947417,20.9268316 35.4834162,21.7885588 35.7060672,21.7885588 C35.9658266,21.7885588 36.5595625,22.08829 36.7451049,22.275622 C36.9306474,22.462954 37.6728172,22.462954 37.6728172,22.7626852 C37.6728172,23.0624164 37.5614917,23.5120132 37.2275153,23.774278 C36.9306474,24.0365428 36.7822134,24.2238748 36.0400436,24.0740092 C35.2978738,23.9241436 34.40727,23.96161 33.9990766,23.8117444 C33.5166662,23.6618788 33.5537747,23.3621476 33.3682323,23.2497484 C33.1826898,23.1373492 32.8858219,22.7626852 32.9971474,22.3880212 C33.1084728,22.0133572 32.8116049,21.6386932 32.5518455,21.3764284 C32.292086,21.1141636 32.6260624,20.8893652 32.8116049,20.3648356 C32.9971474,19.840306 33.9990766,17.4799228 34.0361851,16.8055276 C34.1104021,16.1311324 33.9248596,16.3933972 33.2197983,16.4308636 C32.8487134,16.46833 30.3624445,16.6931284 30.1397936,16.6931284 C29.8800341,16.6931284 29.5831662,17.3675236 29.3976237,17.6297884 C29.2120813,17.8920532 27.9875011,20.2524364 27.8390671,20.5521676 C27.7277417,20.8518988 28.0988266,21.7885588 28.284369,21.9758908 C28.4699115,22.1632228 28.9523219,22.4254876 29.1378643,22.4254876 C29.3234068,22.4254876 30.8077464,22.5004204 31.1046143,22.5378868 C31.4014822,22.6128196 31.3272653,22.9500172 31.5870247,23.02495 C31.8838926,23.0998828 32.3291945,23.2872148 32.2549775,23.774278 C32.1807606,24.2613412 31.6983502,24.4486732 31.4385907,24.4486732 C31.1788313,24.4486732 30.7706379,24.5610724 30.5850955,24.8233372 C30.399553,25.085602 29.6573832,25.1980012 29.3605153,25.085602 C29.0636473,24.9732028 28.358586,24.148942 27.9503926,24.0365428 C27.5050907,23.9241436 25.6496662,23.2872148 25.4270152,22.9874836 C25.1672558,22.6877524 24.7961709,22.3505548 24.7590624,21.3764284 C24.6848454,20.3648356 24.4621945,19.9527052 24.3137605,19.6155076 C24.202435,19.3157764 23.8684586,19.5405748 23.6829162,19.7279068 C23.4973737,19.9152388 22.1985765,21.338962 21.7532746,21.6761596 C21.3079727,21.9758908 18.8588123,23.7368116 18.1166425,24.1114756 C17.3744727,24.4861396 14.220251,25.6850644 13.5894066,26.0971948 C12.9585623,26.5467916 11.6597651,27.895582 11.3628972,28.6074436 C11.0660293,29.3193052 11.3628972,29.206906 11.7339821,29.2443724 C12.03085,29.2443724 12.5132604,29.4691708 12.6616944,29.8063684 C12.7730198,30.1060996 13.0698878,30.143566 13.1441048,30.4432972 C13.2554302,30.8554276 12.8101283,30.892894 12.4761519,31.080226 C12.1421755,31.267558 11.9195246,31.4174236 11.6968736,31.5672892 C11.4742227,31.7171548 11.2144632,31.7546212 10.9547038,31.7546212 C10.6949444,31.7546212 10.286751,31.5298228 10.1012085,31.4923564 C9.91566605,31.45489 9.50747265,31.4174236 9.39614718,31.080226 C9.28482171,30.7804948 9.39614718,30.0311668 9.13638774,29.6939692 C8.87662831,29.3567716 8.83951982,29.019574 8.83951982,28.6823764 C8.83951982,28.3451788 9.21060472,27.4459852 9.58168963,26.9963884 C9.95277454,26.5467916 10.6207274,25.4227996 10.6949444,25.0481356 C10.7691613,24.6734716 10.6949444,23.9241436 11.1402462,23.7368116 C11.5855481,23.5494796 12.9214538,22.8750844 13.4409727,22.3130884 C13.9604916,21.7510924 14.9995293,19.8028396 15.2963972,18.2667172 C15.5932651,16.7305948 16.8549538,12.5718244 17.2631472,11.8974292 C15.6674821,13.2087532 15.1108548,14.5575436 14.7397699,15.4942036 C14.368685,16.4308636 13.1441048,19.1659108 12.2906095,20.589634 C11.4371142,22.0133572 10.138317,24.0740092 8.61686887,25.2354676 C7.09542075,26.396926 5.90794904,27.3710524 3.90409053,27.3710524 C1.90023203,27.3710524 1.04673674,26.3219932 0.527217866,25.5351988 C0.00769899387,24.7484044 -0.289168933,23.02495 0.415892393,21.900958 C1.12095372,20.776966 2.93926977,19.2033772 3.49589713,19.0160452 C4.0525245,18.8287132 4.68336884,19.0160452 4.72047733,19.5780412 C4.79469431,20.1400372 4.34939242,20.589634 3.97830751,20.8893652 C3.60722261,21.1890964 1.86312354,22.5378868 2.23420844,23.6993452 C2.60529335,24.8233372 3.60722261,24.9357364 4.34939242,24.9357364 C5.09156224,24.9357364 6.31614244,24.2988076 7.57783113,22.9500172 C8.80241132,21.5637604 10.1012085,19.7653732 11.4742227,16.8804604 C12.8472368,13.9955476 13.7007321,12.0847612 14.7026614,10.8109036 C15.7045906,9.5745124 17.5971237,7.5138604 18.7845954,6.87693161 C19.9720671,6.24000281 21.8274916,5.60307401 22.9407463,5.11601081 C24.0540011,4.62894761 26.8371379,3.16775801 27.6906332,2.86802681 C28.5441285,2.53082921 31.1046143,1.78150121 32.588954,1.55670281 C34.0732936,1.29443801 35.8173927,1.63163561 37.2275153,1.81896761 C38.637638,2.00629961 41.0496899,2.19363161 42.496921,2.00629961 C43.9441522,1.81896761 44.9831899,1.33190441 45.7624682,0.807374809 C46.5417465,0.282845209 47.5065673,0.245378809 48.2487371,0.245378809 C48.9909069,0.245378809 51.5142843,0.807374809 52.5904305,0.994706809 C53.6294683,1.18203881 56.4868221,1.25697161 57.1176664,1.18203881 C57.7485107,1.10710601 59.7152608,1.25697161 60.5687561,1.44430361 C61.4222513,1.63163561 64.1682797,2.64322841 65.2073174,3.43002281 C66.2092467,4.21681721 68.1388882,6.09013721 68.2131052,6.61466681 L68.2131052,6.61466681 Z M65.3186429,6.83946521 C65.1331004,7.32652841 65.3557514,8.7502516 66.2834636,8.787718 C67.2111759,8.8251844 67.062742,8.1507892 67.0256335,7.9259908 L66.840091,7.7761252 C66.8029825,8.3755876 65.8381618,8.3006548 65.4670768,6.95186441 L65.3186429,6.83946521 L65.3186429,6.83946521 Z" id="Shape"/>
                        </g>
                    </g>
                </g>
            </g>
        </g>
    </g>
</svg>