<?xml version="1.0" encoding="utf-8"?>
<!-- Generator: Adobe Illustrator 25.2.3, SVG Export Plug-In . SVG Version: 6.00 Build 0)  -->
<svg version="1.1" id="Layer_1" xmlns="http://www.w3.org/2000/svg" xmlns:xlink="http://www.w3.org/1999/xlink" x="0px" y="0px"
	 viewBox="0 0 74 11.3" style="enable-background:new 0 0 74 11.3;" xml:space="preserve">
<style type="text/css">
	.st0{fill:#FFFFFF;}
	.st1{fill:#C5C4C4;}
	.st2{enable-background:new    ;}
</style>
<rect x="17" y="9.3" class="st0" width="1.1" height="2"/>
<rect x="19.5" y="6.5" class="st0" width="1.1" height="4.8"/>
<rect x="22" y="3.6" class="st0" width="1.1" height="7.8"/>
<rect x="24.4" y="0" class="st1" width="1.1" height="11.3"/>
<path class="st0" d="M0,3.9c2.8-3,7.5-3.2,10.5-0.4c0.1,0.1,0.3,0.3,0.4,0.4l-0.9,1C7.6,2.4,3.7,2.3,1.3,4.6C1.2,4.7,1.1,4.8,1,4.9
	L0,3.9z M2.6,6.7C4,5.1,6.5,5,8.1,6.4c0.1,0.1,0.2,0.2,0.2,0.2l1-1C7.4,3.6,4.1,3.4,2,5.4C1.9,5.5,1.8,5.6,1.7,5.7L2.6,6.7z
	 M4.3,8.4C4.6,8.1,5,7.9,5.4,7.9c0.5,0,0.9,0.2,1.2,0.5l0.9-1C7,6.8,6.3,6.5,5.4,6.5c-0.8,0-1.6,0.3-2.1,0.9L4.3,8.4z M5.4,8.9
	C5,8.9,4.6,9.3,4.6,9.7s0.4,0.9,0.9,0.9s0.9-0.4,0.9-0.9c0,0,0,0,0,0C6.3,9.3,5.9,8.9,5.4,8.9C5.4,8.9,5.4,8.9,5.4,8.9L5.4,8.9z"/>
<g class="st2">
	<path class="st0" d="M36.5,11.3h-1.3v-8l-1.9,0V2.4L36.5,2V11.3z"/>
	<path class="st0" d="M46.1,7.7c0,1.2-0.3,2.1-0.8,2.7c-0.5,0.6-1.2,0.9-2.1,0.9s-1.6-0.3-2.2-0.9s-0.8-1.5-0.8-2.7V5.6
		c0-1.2,0.3-2.1,0.8-2.7c0.5-0.6,1.2-0.9,2.1-0.9c0.9,0,1.6,0.3,2.2,0.9c0.5,0.6,0.8,1.5,0.8,2.7V7.7z M44.8,5.3
		c0-0.8-0.1-1.4-0.4-1.8c-0.3-0.4-0.7-0.6-1.3-0.6s-1,0.2-1.3,0.6c-0.3,0.4-0.4,1-0.4,1.8V8c0,0.8,0.1,1.4,0.4,1.8s0.7,0.6,1.3,0.6
		s1-0.2,1.3-0.6c0.3-0.4,0.4-1,0.4-1.8V5.3z"/>
	<path class="st0" d="M53.4,7.7c0,1.2-0.3,2.1-0.8,2.7c-0.5,0.6-1.2,0.9-2.1,0.9s-1.6-0.3-2.2-0.9s-0.8-1.5-0.8-2.7V5.6
		c0-1.2,0.3-2.1,0.8-2.7c0.5-0.6,1.2-0.9,2.1-0.9c0.9,0,1.6,0.3,2.2,0.9c0.5,0.6,0.8,1.5,0.8,2.7V7.7z M52.1,5.3
		c0-0.8-0.1-1.4-0.4-1.8c-0.3-0.4-0.7-0.6-1.3-0.6s-1,0.2-1.3,0.6c-0.3,0.4-0.4,1-0.4,1.8V8c0,0.8,0.1,1.4,0.4,1.8s0.7,0.6,1.3,0.6
		s1-0.2,1.3-0.6c0.3-0.4,0.4-1,0.4-1.8V5.3z"/>
	<path class="st0" d="M54.8,3.8c0-0.5,0.2-1,0.5-1.4c0.3-0.4,0.8-0.6,1.4-0.6c0.6,0,1,0.2,1.4,0.5c0.3,0.4,0.5,0.8,0.5,1.4v0.5
		c0,0.5-0.2,1-0.5,1.4s-0.8,0.5-1.4,0.5c-0.6,0-1-0.2-1.4-0.5c-0.3-0.4-0.5-0.8-0.5-1.4V3.8z M55.7,4.3c0,0.3,0.1,0.6,0.3,0.8
		c0.2,0.2,0.4,0.3,0.7,0.3c0.3,0,0.5-0.1,0.7-0.3c0.2-0.2,0.3-0.5,0.3-0.8V3.8c0-0.3-0.1-0.6-0.3-0.8c-0.2-0.2-0.4-0.3-0.7-0.3
		c-0.3,0-0.6,0.1-0.7,0.3c-0.2,0.2-0.3,0.5-0.3,0.8V4.3z M57,10.6l-0.7-0.4l4.5-7.2l0.7,0.4L57,10.6z M59.2,9c0-0.5,0.2-1,0.5-1.4
		c0.3-0.4,0.8-0.5,1.4-0.5c0.6,0,1,0.2,1.4,0.5C62.9,8,63.1,8.5,63.1,9v0.5c0,0.5-0.2,1-0.5,1.4c-0.3,0.4-0.8,0.5-1.4,0.5
		c-0.6,0-1.1-0.2-1.4-0.5c-0.3-0.4-0.5-0.8-0.5-1.4V9z M60.2,9.5c0,0.3,0.1,0.6,0.3,0.8c0.2,0.2,0.4,0.3,0.7,0.3
		c0.3,0,0.5-0.1,0.7-0.3c0.2-0.2,0.3-0.5,0.3-0.8V9c0-0.3-0.1-0.6-0.3-0.8c-0.2-0.2-0.4-0.3-0.7-0.3c-0.3,0-0.6,0.1-0.7,0.3
		c-0.2,0.2-0.3,0.5-0.3,0.8V9.5z"/>
</g>
<rect x="67.2" y="1.5" class="st0" width="6.8" height="9.9"/>
<rect x="69.2" y="0.3" class="st0" width="2.7" height="2"/>
</svg>
