<svg id="Layer_1" data-name="Layer 1" xmlns="http://www.w3.org/2000/svg" viewBox="0 0 227.34 19.03"><defs><style>.cls-1{fill:#fff;}</style></defs><rect class="cls-1" y="1.25" width="2.51" height="17.77" rx="1.25"/><rect class="cls-1" x="6.89" y="1.25" width="2.51" height="17.77" rx="1.25"/><rect class="cls-1" x="13.96" y="1.25" width="2.51" height="17.77" rx="1.25"/><path class="cls-1" d="M977.24,1297a4.08,4.08,0,0,1,4.08,4.07V1308a4.08,4.08,0,0,1-4.08,4.07h-6.87a4.08,4.08,0,0,1-4.08-4.07v-6.88a4.08,4.08,0,0,1,4.08-4.07h6.87m0-2h-6.87a6.08,6.08,0,0,0-6.08,6.07V1308a6.08,6.08,0,0,0,6.08,6.07h6.87a6.08,6.08,0,0,0,6.08-6.07v-6.88a6.08,6.08,0,0,0-6.08-6.07Z" transform="translate(-858.38 -1295.04)"/><path class="cls-1" d="M1079,1305l6.32-5.94a1.26,1.26,0,1,0-1.72-1.83l-7.25,6.82a1.23,1.23,0,0,0-.38,1,1.26,1.26,0,0,0,.38,1l7.25,6.81a1.25,1.25,0,1,0,1.72-1.82Z" transform="translate(-858.38 -1295.04)"/></svg>