<svg id="Layer_1" data-name="Layer 1" xmlns="http://www.w3.org/2000/svg" viewBox="0 0 37.29 7.55"><defs><style>.cls-1{fill:#fff;}</style></defs><path class="cls-1" d="M752.51,1065.94a6.18,6.18,0,0,1,9.07,0l-.77.81a5.14,5.14,0,0,0-7.53,0Zm2.16,2.28a3.27,3.27,0,0,1,2.37-1,3.23,3.23,0,0,1,2.37,1l.8-.83a4.32,4.32,0,0,0-6.33,0Zm1.38,1.46a1.37,1.37,0,0,1,1-.43,1.34,1.34,0,0,1,1,.43l.78-.82a2.41,2.41,0,0,0-3.53,0Zm1,.38a.73.73,0,0,0,0,1.46.73.73,0,0,0,0-1.46Z" transform="translate(-740.43 -1063.96)"/><path class="cls-1" d="M775.41,1066.16v3.7h-7.85v-3.7Zm.92-.92h-9.69v5.54h9.69Zm.47,4.15h.34a.57.57,0,0,0,.58-.57v-1.62a.58.58,0,0,0-.58-.58h-.34Zm-5.08-2.77H768v2.77h3.7Z" transform="translate(-740.43 -1063.96)"/><rect class="cls-1" y="4.05" width="1.56" height="2.94"/><rect class="cls-1" x="2.32" y="2.97" width="1.56" height="4.02"/><rect class="cls-1" x="4.86" y="1.11" width="1.56" height="5.88"/><rect class="cls-1" x="7.29" y="0.03" width="1.56" height="6.96"/></svg>