<svg class="animated" id="freepik_stories-fine" xmlns="http://www.w3.org/2000/svg" viewBox="0 0 500 500" version="1.1" xmlns:xlink="http://www.w3.org/1999/xlink" xmlns:svgjs="http://svgjs.com/svgjs"><style>svg#freepik_stories-fine:not(.animated) .animable {opacity: 0;}svg#freepik_stories-fine.animated #freepik--background-complete--inject-2 {animation: 1.4s 1 forwards cubic-bezier(.36,-0.01,.5,1.38) slideDown;animation-delay: 0.3s;opacity: 0}svg#freepik_stories-fine.animated #freepik--Floor--inject-2 {animation: 1.8s 1 forwards cubic-bezier(.36,-0.01,.5,1.38) fadeIn;animation-delay: 0s;}svg#freepik_stories-fine.animated #freepik--speech-bubble--inject-2 {animation: 1.5s 1 forwards cubic-bezier(.36,-0.01,.5,1.38) slideDown,1.5s Infinite  linear floating;animation-delay: 0.7s,2.2s;opacity: 0}svg#freepik_stories-fine.animated #freepik--Document--inject-2 {animation: 1s 1 forwards cubic-bezier(.36,-0.01,.5,1.38) slideDown;animation-delay: 0s;}svg#freepik_stories-fine.animated #freepik--Character--inject-2 {animation: 1s 1 forwards cubic-bezier(.36,-0.01,.5,1.38) slideLeft;animation-delay: 0s;}svg#freepik_stories-fine.animated #freepik--Sign--inject-2 {animation: 1s 1 forwards cubic-bezier(.36,-0.01,.5,1.38) zoomOut,1.5s Infinite  linear shake;animation-delay: 0s,1s;}svg#freepik_stories-fine.animated #freepik--Coins--inject-2 {animation: 1s 1 forwards cubic-bezier(.36,-0.01,.5,1.38) slideUp;animation-delay: 0.2s;opacity: 0}            @keyframes slideDown {                0% {                    opacity: 0;                    transform: translateY(-30px);                }                100% {                    opacity: 1;                    transform: translateY(0);                }            }                    @keyframes fadeIn {                0% {                    opacity: 0;                }                100% {                    opacity: 1;                }            }                    @keyframes floating {                0% {                    opacity: 1;                    transform: translateY(0px);                }                50% {                    transform: translateY(-10px);                }                100% {                    opacity: 1;                    transform: translateY(0px);                }            }                    @keyframes slideLeft {                0% {                    opacity: 0;                    transform: translateX(-30px);                }                100% {                    opacity: 1;                    transform: translateX(0);                }            }                    @keyframes zoomOut {                0% {                    opacity: 0;                    transform: scale(1.5);                }                100% {                    opacity: 1;                    transform: scale(1);                }            }                    @keyframes shake {                10%, 90% {                    transform: translate3d(-1px, 0, 0);                  }                  20%, 80% {                    transform: translate3d(2px, 0, 0);                  }                  30%, 50%, 70% {                    transform: translate3d(-4px, 0, 0);                  }                  40%, 60% {                    transform: translate3d(4px, 0, 0);                  }            }                    @keyframes slideUp {                0% {                    opacity: 0;                    transform: translateY(30px);                }                100% {                    opacity: 1;                    transform: inherit;                }            }        </style><g id="freepik--background-complete--inject-2" class="animable" style="transform-origin: 262.822px 189.124px;"><path d="M175.92,29.46c-43.15,0-43.22,61.36,0,61.36S219.13,29.46,175.92,29.46Z" style="fill: rgb(235, 235, 235); transform-origin: 175.931px 60.14px;" id="eleq7cvn5iy84" class="animable"></path><path d="M202.15,65.89c-2.3,10.56-11.05,19.71-26.24,19.71-35.86,0-35.8-50.92,0-50.92h.71c-33.7.62-33.54,48.84.66,48.84C191.23,83.53,199.54,75.46,202.15,65.89Z" style="fill: rgb(219, 219, 219); transform-origin: 175.594px 60.14px;" id="elnap9ovhpt19" class="animable"></path><path d="M176.17,41.39a1.09,1.09,0,0,1,1.12,1v1.7a16.12,16.12,0,0,1,8.31,3c.42.3.66.56.66,1A1.15,1.15,0,0,1,185,49.16a1.22,1.22,0,0,1-.84-.29,13.91,13.91,0,0,0-7-2.78v12c7.1,1.36,10.08,3.8,10.08,8,0,4.52-4.15,7.73-10,7.9v3.33a1.12,1.12,0,0,1-2.24,0V73.89a18.3,18.3,0,0,1-10.5-4.14,1.07,1.07,0,0,1-.51-.9,1.17,1.17,0,0,1,1.16-1.06,1.28,1.28,0,0,1,.85.3,15.69,15.69,0,0,0,9.1,3.88V59.8c-7-1.41-9.9-3.76-9.9-8s4.11-7.6,9.8-7.73V42.42A1.1,1.1,0,0,1,176.17,41.39Zm-1,16.23V46c-4.53.09-7.52,2.56-7.52,5.64C167.63,54.5,169.13,56.3,175.15,57.62Zm2,2.61V72c4.67-.09,7.7-2.57,7.7-5.81C184.9,63.26,183.27,61.47,177.2,60.23Z" style="fill: rgb(219, 219, 219); transform-origin: 175.615px 59.9138px;" id="elm2nx0ax9maa" class="animable"></path><path d="M407,297.15c-38.85,7-28.59,64.52,10.33,57.54S445.88,290.16,407,297.15Z" style="fill: rgb(219, 219, 219); transform-origin: 412.173px 325.919px;" id="elhfl80ckwnwi" class="animable"></path><path d="M410.61,296.49c-37,6.64-26.76,64.2,10.33,57.54S447.7,289.84,410.61,296.49Z" style="fill: rgb(235, 235, 235); transform-origin: 415.794px 325.261px;" id="elh6gkakbt234" class="animable"></path><path d="M439.26,326.62c-.2,10.25-6.17,20.18-19.21,22.52-30.77,5.52-39.29-42.24-8.57-47.76l.61-.09c-28.81,5.77-20.56,51,8.79,45.7C432.85,344.84,438.62,336,439.26,326.62Z" style="fill: rgb(219, 219, 219); transform-origin: 415.763px 325.437px;" id="eloyvns3rf8fr" class="animable"></path><path d="M418,307.62a1,1,0,0,1,.86,1.08l-.19,1.62a13.24,13.24,0,0,1,6.86,3.67,1.16,1.16,0,0,1,.46,1,1,1,0,0,1-1.17.88,1,1,0,0,1-.7-.36,11.54,11.54,0,0,0-5.75-3.34L417,323.48c6,2,8.3,4.63,7.84,8.59-.51,4.28-4.46,6.89-9.53,6.46l-.37,3.15a1,1,0,1,1-1.94-.23l.37-3.19a15.32,15.32,0,0,1-8.63-5,1,1,0,0,1,.79-1.79,1,1,0,0,1,.69.36,13.12,13.12,0,0,0,7.45,4.61l1.35-11.52c-5.9-2.05-8.15-4.56-7.67-8.61s4.4-6.77,9.35-6.31l.18-1.54A1,1,0,0,1,418,307.62Zm-2.69,15.25,1.29-11c-3.93-.38-6.79,1.65-7.13,4.56C409.15,319.15,410.24,321,415.31,322.87Zm1.48,2.67-1.31,11.16c4,.39,7-1.64,7.32-4.71C423.13,329.2,421.91,327.33,416.79,325.54Z" style="fill: rgb(219, 219, 219); transform-origin: 415.158px 325.195px;" id="elov03cr7k7u" class="animable"></path><path d="M85.92,120c31.41,5.64,23.12,52.17-8.34,46.52S54.46,114.31,85.92,120Z" style="fill: rgb(219, 219, 219); transform-origin: 81.7396px 143.257px;" id="ela4sodjmp0gt" class="animable"></path><path d="M83,119.42c29.93,5.37,21.63,51.9-8.35,46.52S53,114,83,119.42Z" style="fill: rgb(235, 235, 235); transform-origin: 78.8114px 142.677px;" id="eldhfhhxcwzci" class="animable"></path><path d="M59.82,143.78c.16,8.29,5,16.32,15.52,18.21,24.88,4.46,31.77-34.15,6.93-38.61l-.49-.08c23.3,4.66,16.62,41.21-7.1,37C65,158.52,60.33,151.36,59.82,143.78Z" style="fill: rgb(219, 219, 219); transform-origin: 78.8128px 142.824px;" id="elfd0pp5gc1qh" class="animable"></path><path d="M80.56,126.77a.8.8,0,0,1,.63.92L81,129a10.79,10.79,0,0,1,5.34,3.34.91.91,0,0,1,.31.83.86.86,0,0,1-1.53.32,9.33,9.33,0,0,0-4.46-3l-1.69,9.06c4.73,1.95,6.45,4.18,5.86,7.35-.64,3.43-4,5.31-8,4.69l-.47,2.52a.79.79,0,0,1-1.56-.28l.48-2.56a12.32,12.32,0,0,1-6.69-4.49.83.83,0,0,1,.73-1.41.84.84,0,0,1,.54.34,10.59,10.59,0,0,0,5.76,4.12l1.71-9.22c-4.65-2-6.33-4.13-5.72-7.36s3.92-5.23,7.88-4.59l.23-1.23A.8.8,0,0,1,80.56,126.77Zm-3,12.16,1.64-8.83c-3.15-.52-5.57,1-6,3.3S73.57,137.15,77.56,138.93Zm1,2.24L77,150.09c3.25.54,5.7-.94,6.16-3.4C83.52,144.46,82.65,142.89,78.61,141.17Z" style="fill: rgb(219, 219, 219); transform-origin: 77.5002px 140.765px;" id="el6bohby3ogxu" class="animable"></path><g id="eleskm0ji6qlh"><rect x="289.65" y="52.97" width="170.38" height="82.45" style="fill: rgb(235, 235, 235); transform-origin: 374.84px 94.195px; transform: rotate(22.99deg);" class="animable"></rect></g><path d="M312.53,23l-32.21,75.9,156.84,66.55,32.21-75.9ZM434.22,158.14,287.6,95.93l27.87-65.69L462.09,92.46Z" style="fill: rgb(219, 219, 219); transform-origin: 374.845px 94.225px;" id="elbgkn2nrcyxa" class="animable"></path><path d="M343.29,80.81a6,6,0,1,1-3.19-7.89A6,6,0,0,1,343.29,80.81Z" style="fill: rgb(219, 219, 219); transform-origin: 337.773px 78.4505px;" id="el7384l22cpe" class="animable"></path><path d="M417.47,112.28a6,6,0,1,1-3.19-7.88A6,6,0,0,1,417.47,112.28Z" style="fill: rgb(219, 219, 219); transform-origin: 411.95px 109.929px;" id="elv8yma7977d" class="animable"></path><path d="M450.5,87.54a12.6,12.6,0,0,0,6.68,16.51l4.91-11.59Z" style="fill: rgb(219, 219, 219); transform-origin: 455.797px 95.795px;" id="el687zg8h5jx7" class="animable"></path><path d="M439.14,146.55a12.6,12.6,0,0,0-16.51,6.68l11.59,4.91Z" style="fill: rgb(219, 219, 219); transform-origin: 430.885px 151.847px;" id="elqhxe1os733f" class="animable"></path><path d="M299.19,100.85a12.6,12.6,0,0,0-6.67-16.51L287.6,95.93Z" style="fill: rgb(219, 219, 219); transform-origin: 293.894px 92.595px;" id="el09i4dmag9de" class="animable"></path><path d="M310.55,41.83a12.59,12.59,0,0,0,16.51-6.67l-11.59-4.92Z" style="fill: rgb(219, 219, 219); transform-origin: 318.805px 36.5357px;" id="elivu0h9ubvpn" class="animable"></path><g id="elbqhuu1fq9k"><ellipse cx="374.84" cy="94.2" rx="27.06" ry="22.08" style="fill: rgb(219, 219, 219); transform-origin: 374.84px 94.2px; transform: rotate(-67.01deg);" class="animable"></ellipse></g><path d="M383.25,75.59a2,2,0,0,1,1.07,2.66l-.4,1a17.06,17.06,0,0,1,5.71,5.23,2.54,2.54,0,0,1,.42,2.64,2.59,2.59,0,0,1-3.44,1.35,2.66,2.66,0,0,1-1.14-.94,17.06,17.06,0,0,0-3.66-3.8L378.28,92c5.89,4.45,7.59,8.29,5.62,12.93s-7.1,6.36-12.83,4.54l-1.11,2.6a2,2,0,0,1-2.65,1.08,2,2,0,0,1-1.12-2.68l1.14-2.69a20.42,20.42,0,0,1-7.46-7.16,2.62,2.62,0,0,1-.29-2.58,2.59,2.59,0,0,1,4.63-.28,16.69,16.69,0,0,0,5.19,5.62L373,94.86c-5.64-4.34-7.58-8-5.5-12.88,2-4.64,7-6.29,12.63-4.42l.39-.91A2.06,2.06,0,0,1,383.25,75.59Zm-8,14.06L378.5,82c-2.89-.92-4.91,0-5.72,1.88S372.36,87.15,375.24,89.65Zm.87,7.49-3.36,7.9c2.91.87,5,.13,5.9-2C379.46,101.17,379,99.59,376.11,97.14Z" style="fill: rgb(235, 235, 235); transform-origin: 374.807px 94.3633px;" id="el2a62k0db1tf" class="animable"></path><g id="elo6hb6ytu1w"><rect x="297.64" y="117.17" width="170.38" height="82.45" style="fill: rgb(235, 235, 235); transform-origin: 382.83px 158.395px; transform: rotate(2.45deg);" class="animable"></rect></g><path d="M299.48,113.56,296,195.94l170.21,7.28,3.53-82.38Zm161.39,83.88-159.13-6.81,3.05-71.29,159.13,6.81Z" style="fill: rgb(219, 219, 219); transform-origin: 382.87px 158.39px;" id="eltve4kowthoc" class="animable"></path><g id="elfhvdlwke2un"><circle cx="342.57" cy="156.67" r="6.01" style="fill: rgb(219, 219, 219); transform-origin: 342.57px 156.67px; transform: rotate(-42.93deg);" class="animable"></circle></g><g id="elbesci5sbigu"><circle cx="423.08" cy="160.11" r="6.01" style="fill: rgb(219, 219, 219); transform-origin: 423.08px 160.11px; transform: rotate(-42.93deg);" class="animable"></circle></g><path d="M451.34,125.61a12.59,12.59,0,0,0,12,13.12l.54-12.58Z" style="fill: rgb(219, 219, 219); transform-origin: 457.604px 132.17px;" id="elvpz72e0p9z" class="animable"></path><path d="M461.41,184.86a12.59,12.59,0,0,0-13.12,12l12.58.54Z" style="fill: rgb(219, 219, 219); transform-origin: 454.85px 191.124px;" id="eldqc6dl6aawr" class="animable"></path><path d="M314.32,191.17a12.6,12.6,0,0,0-12-13.12l-.54,12.58Z" style="fill: rgb(219, 219, 219); transform-origin: 308.056px 184.61px;" id="elkj56gsuvzla" class="animable"></path><path d="M304.25,131.92a12.6,12.6,0,0,0,13.12-12l-12.58-.54Z" style="fill: rgb(219, 219, 219); transform-origin: 310.81px 125.656px;" id="elfl7a2v25xj9" class="animable"></path><g id="elqzbxg74ov6j"><ellipse cx="382.83" cy="158.39" rx="27.06" ry="22.08" style="fill: rgb(219, 219, 219); transform-origin: 382.83px 158.39px; transform: rotate(-87.55deg);" class="animable"></ellipse></g><path d="M384.17,138a2,2,0,0,1,1.94,2.11l-.05,1a17.09,17.09,0,0,1,7.19,2.9,2.52,2.52,0,0,1,1.32,2.32,2.6,2.6,0,0,1-2.75,2.48,2.74,2.74,0,0,1-1.39-.48,17.4,17.4,0,0,0-4.76-2.29l-.39,9.05c7.08,2.09,10,5.1,9.8,10.13-.22,5.18-4.42,8.45-10.42,8.76l-.12,2.82a2,2,0,0,1-2.11,1.94,2,2,0,0,1-2-2.11l.12-2.92a20.37,20.37,0,0,1-9.49-4.09,2.61,2.61,0,0,1,1.53-4.79,2.54,2.54,0,0,1,1.53.59,16.7,16.7,0,0,0,6.83,3.45l.4-9.28c-6.8-2.09-9.89-4.81-9.67-10.13.22-5,4.37-8.36,10.28-8.57l0-1A2.06,2.06,0,0,1,384.17,138Zm-2.57,16,.36-8.33c-3,.15-4.6,1.69-4.69,3.76S378,152.67,381.6,154Zm3.44,6.7-.37,8.58c3-.2,4.74-1.64,4.84-3.9C389.6,163.31,388.62,162,385,160.7Z" style="fill: rgb(235, 235, 235); transform-origin: 382.486px 158.369px;" id="elox57t2e9v4b" class="animable"></path></g><g id="freepik--Floor--inject-2" class="animable" style="transform-origin: 250px 474.872px;"><path d="M46.66,474.87c130.27-.61,276.41-.61,406.68,0-130.27.62-276.41.61-406.68,0Z" style="fill: rgb(38, 50, 56); transform-origin: 250px 474.872px;" id="elx225xuzly9c" class="animable"></path></g><g id="freepik--speech-bubble--inject-2" class="animable" style="transform-origin: 60.1333px 50.8925px;"><path d="M33.74,53.41A24,24,0,0,0,73.83,68.59l12,1.76L79.83,60a23.69,23.69,0,0,0,1.64-11.55,24,24,0,0,0-47.73,5Z" style="fill: rgb(255, 255, 255); transform-origin: 59.7415px 51.1549px;" id="elunzi948ogdr" class="animable"></path><path d="M40.92,33.6A23.95,23.95,0,0,1,61,26.92a24.18,24.18,0,0,1,10.24,3.84,24.56,24.56,0,0,1,7.51,8,24.27,24.27,0,0,1,1.48,21.39l0-.41,6,10.4.44.76-.87-.13-12-1.84.28-.09A24.17,24.17,0,0,1,62.19,74.7a21.6,21.6,0,0,1-3.32.35A23.14,23.14,0,0,1,55.54,75a24.22,24.22,0,0,1-12.25-4.77,27.24,27.24,0,0,1-2.53-2.14,26,26,0,0,1-2.18-2.51,24.13,24.13,0,0,1,2.34-32ZM38.65,65.52A27.15,27.15,0,0,0,40.84,68a26.93,26.93,0,0,0,2.53,2.11,22.51,22.51,0,0,0,5.79,3.12,23.42,23.42,0,0,0,6.41,1.41,23.94,23.94,0,0,0,3.28,0,19.89,19.89,0,0,0,3.26-.4A23.55,23.55,0,0,0,73.6,68.33l.11-.11.17,0,12,1.68-.43.63-6-10.35-.11-.2.09-.21a24.13,24.13,0,0,0,1.69-10.46,23.73,23.73,0,0,0-3-10.15,24.55,24.55,0,0,0-7.18-7.83A23.68,23.68,0,0,0,61,27.44a23.78,23.78,0,0,0-27.21,26A24.14,24.14,0,0,0,38.65,65.52Z" style="fill: rgb(38, 50, 56); transform-origin: 60.1333px 50.8925px;" id="el0d5yfwcoc2wg" class="animable"></path><path d="M50.74,56V41.76a2,2,0,0,1,1.95-1.94,1.93,1.93,0,0,1,1.91,1.94V56A1.91,1.91,0,0,1,52.69,58,2,2,0,0,1,50.74,56Zm1.95,8.52a2,2,0,0,1-1.95-1.95v-.7A2,2,0,0,1,52.69,60,1.94,1.94,0,0,1,54.6,61.9v.7A1.91,1.91,0,0,1,52.69,64.55Z" style="fill: rgb(38, 50, 56); transform-origin: 52.6711px 52.185px;" id="eltch35bmy8js" class="animable"></path><path d="M59.65,56V41.76a2,2,0,0,1,1.94-1.94,1.93,1.93,0,0,1,1.91,1.94V56A1.91,1.91,0,0,1,61.59,58,1.94,1.94,0,0,1,59.65,56Zm1.94,8.52a1.94,1.94,0,0,1-1.94-1.95v-.7A2,2,0,0,1,61.59,60,1.94,1.94,0,0,1,63.5,61.9v.7A1.91,1.91,0,0,1,61.59,64.55Z" style="fill: rgb(38, 50, 56); transform-origin: 61.5756px 52.185px;" id="eld9gakgy9f4g" class="animable"></path></g><g id="freepik--Document--inject-2" class="animable" style="transform-origin: 256.47px 234.02px;"><polygon points="385.76 416.25 109.31 398.48 131.57 52.18 336.83 65.37 403.67 137.56 385.76 416.25" style="fill: rgb(255, 255, 255); transform-origin: 256.49px 234.215px;" id="el6xd9fiuk7it" class="animable"></polygon><path d="M385.76,416.25,109.06,398.7c-.13,0,22.23-346.48,22.14-346.54l0-.37.37,0C131.69,51.8,337,65,337,65.18s66.82,72.23,66.88,72.3-18.2,278.68-18.15,278.77Zm0,0c0,.05,17.62-279.33,17.73-278.52L336.62,65.56c1.08.13-205.34-13-205.08-13l.39-.35L109.55,398.5C108,398,386.13,416.31,385.76,416.25Z" style="fill: rgb(38, 50, 56); transform-origin: 256.47px 234.02px;" id="el8ikby202djx" class="animable"></path><polygon points="336.83 65.37 403.67 137.56 332.48 132.99 336.83 65.37" style="fill: rgb(235, 235, 235); transform-origin: 368.075px 101.465px;" id="eldeh7a2h3igw" class="animable"></polygon><g id="elbz9m8wunjuv"><rect x="157.68" y="79.61" width="34.66" height="3.76" style="fill: rgb(69, 78, 93); transform-origin: 175.01px 81.49px; transform: rotate(-176.32deg);" class="animable"></rect></g><g id="elkl8elr5fj4"><rect x="219.83" y="83.6" width="34.66" height="3.76" style="fill: rgb(69, 78, 93); transform-origin: 237.16px 85.48px; transform: rotate(-176.32deg);" class="animable"></rect></g><g id="elca7jt7h1x4p"><rect x="154.85" y="123.64" width="34.66" height="3.76" style="fill: rgb(69, 78, 93); transform-origin: 172.18px 125.52px; transform: rotate(-176.32deg);" class="animable"></rect></g><g id="ele0se6wagosq"><rect x="217" y="127.64" width="34.66" height="3.76" style="fill: rgb(69, 78, 93); transform-origin: 234.33px 129.52px; transform: rotate(-176.32deg);" class="animable"></rect></g><g id="elmampyiakh6j"><rect x="245.42" y="93.07" width="13.22" height="3.76" style="fill: rgb(69, 78, 93); transform-origin: 252.03px 94.95px; transform: rotate(93.68deg);" class="animable"></rect></g><g id="el9gv6ujazsgb"><rect x="243.68" y="120.15" width="13.22" height="3.76" style="fill: rgb(69, 78, 93); transform-origin: 250.29px 122.03px; transform: rotate(93.68deg);" class="animable"></rect></g><g id="elwotp9208run"><rect x="152.44" y="87.09" width="13.22" height="3.76" style="fill: rgb(69, 78, 93); transform-origin: 159.05px 88.97px; transform: rotate(93.68deg);" class="animable"></rect></g><g id="elq79g1f00pe"><rect x="150.69" y="114.18" width="13.22" height="3.76" style="fill: rgb(69, 78, 93); transform-origin: 157.3px 116.06px; transform: rotate(93.68deg);" class="animable"></rect></g><path d="M166.62,113.83,168,92.37a2,2,0,0,1,2.13-1.87h.11l11.79.76a2,2,0,0,1-.26,4l-9.86-.63-.43,6.66,8.48.54a2.06,2.06,0,0,1,1.87,2.13,2,2,0,0,1-2.13,1.91l-8.48-.55-.56,8.73A2,2,0,0,1,168.5,116,2,2,0,0,1,166.62,113.83Z" style="fill: rgb(69, 78, 93); transform-origin: 175.258px 103.251px;" id="el5g620lx1nuq" class="animable"></path><path d="M190.27,93.81a2,2,0,0,1,2.13-1.88,2,2,0,0,1,1.91,2.13l-1.38,21.46a2,2,0,0,1-2.16,1.87,2,2,0,0,1-1.88-2.12Z" style="fill: rgb(69, 78, 93); transform-origin: 191.6px 104.661px;" id="elvlquzpmh15" class="animable"></path><path d="M203.74,116.22a2,2,0,0,1-2.09,1.87,2,2,0,0,1-1.87-2.13l1.36-21.13v0a2,2,0,0,1,.91-1.63,2,2,0,0,1,2.73.62l10.71,17,1-15A2,2,0,0,1,218.54,94a2,2,0,0,1,1.87,2.09l-1.35,21.13a2,2,0,0,1-2.13,1.88,2,2,0,0,1-1.45-.83.72.72,0,0,1-.17-.23l-10.6-16.89Z" style="fill: rgb(69, 78, 93); transform-origin: 210.094px 106.004px;" id="els6mzyrvrcl8" class="animable"></path><path d="M225.43,117.61l1.38-21.46a2,2,0,0,1,2.13-1.87h.11l11.79.76a2,2,0,0,1,1.87,2.12,2.06,2.06,0,0,1-2.13,1.91l-9.86-.63-.43,6.66,8.48.54a2,2,0,0,1-.26,4l-8.48-.55-.43,6.7,9.86.63a2,2,0,0,1-.26,4l-11.78-.76c-.08,0-.08,0-.08,0l0,0A2,2,0,0,1,225.43,117.61Z" style="fill: rgb(69, 78, 93); transform-origin: 234.072px 107.35px;" id="ela68e0b7xzac" class="animable"></path><g id="elomkrz1itp7e"><rect x="153.4" y="149.17" width="221.22" height="3.76" style="fill: rgb(219, 219, 219); transform-origin: 264.01px 151.05px; transform: rotate(-176.32deg);" class="animable"></rect></g><g id="elgwhymfbu0q7"><rect x="151.97" y="168.83" width="62.27" height="3.76" style="fill: rgb(219, 219, 219); transform-origin: 183.105px 170.71px; transform: rotate(-176.32deg);" class="animable"></rect></g><g id="eltxvqitvzj"><rect x="281.74" y="189.65" width="63.88" height="3.76" style="fill: rgb(219, 219, 219); transform-origin: 313.68px 191.53px; transform: rotate(-176.32deg);" class="animable"></rect></g><g id="elr4o3393g7rp"><rect x="278.64" y="164.74" width="68.57" height="3.76" style="fill: rgb(219, 219, 219); transform-origin: 312.925px 166.62px; transform: rotate(-176.32deg);" class="animable"></rect></g><g id="elkpyh1z8gwj"><rect x="209.31" y="159.94" width="57.75" height="3.76" style="fill: rgb(219, 219, 219); transform-origin: 238.185px 161.82px; transform: rotate(-176.32deg);" class="animable"></rect></g><g id="elo2i60eaca4i"><rect x="147.99" y="230.92" width="68.57" height="3.76" style="fill: rgb(219, 219, 219); transform-origin: 182.275px 232.8px; transform: rotate(-176.32deg);" class="animable"></rect></g><g id="elojeqlug9z2b"><rect x="227.38" y="235.16" width="41.62" height="3.76" style="fill: rgb(219, 219, 219); transform-origin: 248.19px 237.04px; transform: rotate(-176.32deg);" class="animable"></rect></g><g id="els2boglmm83"><rect x="319.11" y="241.31" width="49.76" height="3.76" style="fill: rgb(219, 219, 219); transform-origin: 343.99px 243.19px; transform: rotate(-176.32deg);" class="animable"></rect></g><g id="elt0uifb9dw29"><rect x="279.26" y="238.08" width="28.92" height="3.76" style="fill: rgb(219, 219, 219); transform-origin: 293.72px 239.96px; transform: rotate(-176.32deg);" class="animable"></rect></g><g id="elpkq2zfvdzik"><rect x="224.99" y="172.45" width="28.92" height="3.76" style="fill: rgb(219, 219, 219); transform-origin: 239.45px 174.33px; transform: rotate(-176.566deg);" class="animable"></rect></g><g id="elll6dzidgwvp"><rect x="152.78" y="155.95" width="46.43" height="3.76" style="fill: rgb(219, 219, 219); transform-origin: 175.995px 157.83px; transform: rotate(-176.32deg);" class="animable"></rect></g><g id="elxhubcheipnb"><rect x="151.21" y="180.21" width="31.13" height="3.76" style="fill: rgb(219, 219, 219); transform-origin: 166.775px 182.09px; transform: rotate(-176.32deg);" class="animable"></rect></g><g id="el7wotkf5y2fl"><rect x="191.32" y="183.1" width="40.8" height="3.76" style="fill: rgb(219, 219, 219); transform-origin: 211.72px 184.98px; transform: rotate(-176.32deg);" class="animable"></rect></g><g id="elcjzva8jw14o"><rect x="242.83" y="185.98" width="27.6" height="3.76" style="fill: rgb(219, 219, 219); transform-origin: 256.63px 187.86px; transform: rotate(-176.32deg);" class="animable"></rect></g><g id="elbsejml01lwd"><rect x="149.59" y="205.77" width="56.31" height="3.76" style="fill: rgb(219, 219, 219); transform-origin: 177.745px 207.65px; transform: rotate(-176.32deg);" class="animable"></rect></g><g id="elmrwler8blq"><rect x="147.19" y="243.51" width="75.05" height="3.76" style="fill: rgb(219, 219, 219); transform-origin: 184.715px 245.39px; transform: rotate(-176.566deg);" class="animable"></rect></g><g id="elr8pg1bhs2ip"><rect x="232.57" y="248.25" width="51.79" height="3.76" style="fill: rgb(219, 219, 219); transform-origin: 258.465px 250.13px; transform: rotate(-176.32deg);" class="animable"></rect></g><g id="elmuq4wipsyq"><rect x="293.73" y="251.52" width="31.22" height="3.76" style="fill: rgb(219, 219, 219); transform-origin: 309.34px 253.4px; transform: rotate(-176.32deg);" class="animable"></rect></g><g id="elhlfjmri4c9d"><rect x="146.43" y="254.63" width="35.83" height="3.76" style="fill: rgb(219, 219, 219); transform-origin: 164.345px 256.51px; transform: rotate(-176.32deg);" class="animable"></rect></g><g id="ely832kclv6v"><rect x="190.48" y="258.33" width="62.92" height="3.76" style="fill: rgb(219, 219, 219); transform-origin: 221.94px 260.21px; transform: rotate(-176.32deg);" class="animable"></rect></g><g id="ellp8abo76im"><rect x="262.03" y="262.07" width="36.19" height="3.76" style="fill: rgb(219, 219, 219); transform-origin: 280.125px 263.95px; transform: rotate(-176.32deg);" class="animable"></rect></g><g id="el8kk4cl8asa"><rect x="307.79" y="265.22" width="42.73" height="3.76" style="fill: rgb(219, 219, 219); transform-origin: 329.155px 267.1px; transform: rotate(-176.32deg);" class="animable"></rect></g><g id="el34htchamyc"><rect x="145.61" y="267.66" width="56.31" height="3.76" style="fill: rgb(219, 219, 219); transform-origin: 173.765px 269.54px; transform: rotate(-176.32deg);" class="animable"></rect></g><g id="elm6ztrp3vsp"><rect x="210.97" y="272.17" width="66.01" height="3.76" style="fill: rgb(219, 219, 219); transform-origin: 243.975px 274.05px; transform: rotate(-176.32deg);" class="animable"></rect></g><g id="elsqja5ilxvz"><rect x="286.29" y="276.26" width="42.47" height="3.76" style="fill: rgb(219, 219, 219); transform-origin: 307.525px 278.14px; transform: rotate(-176.32deg);" class="animable"></rect></g><g id="elrcm3p40k6cj"><rect x="144.04" y="292" width="43.23" height="3.76" style="fill: rgb(219, 219, 219); transform-origin: 165.655px 293.88px; transform: rotate(-176.32deg);" class="animable"></rect></g><g id="eltquz2l3xz4l"><rect x="143.24" y="304.34" width="43.23" height="3.76" style="fill: rgb(219, 219, 219); transform-origin: 164.855px 306.22px; transform: rotate(-176.32deg);" class="animable"></rect></g><g id="el7tut9rrt0yp"><rect x="142.34" y="320" width="146.8" height="3.76" style="fill: rgb(219, 219, 219); transform-origin: 215.74px 321.88px; transform: rotate(-176.32deg);" class="animable"></rect></g><g id="elgieyfqv074b"><rect x="196.45" y="295.8" width="56.74" height="3.76" style="fill: rgb(219, 219, 219); transform-origin: 224.82px 297.68px; transform: rotate(-176.32deg);" class="animable"></rect></g><g id="elqogxg2r1c4"><rect x="262.24" y="299.12" width="28.37" height="3.76" style="fill: rgb(219, 219, 219); transform-origin: 276.425px 301px; transform: rotate(-176.32deg);" class="animable"></rect></g><g id="elw8rsaybkjr7"><rect x="299.94" y="302.71" width="64.97" height="3.76" style="fill: rgb(219, 219, 219); transform-origin: 332.425px 304.59px; transform: rotate(-176.32deg);" class="animable"></rect></g><g id="el135e3nn6nqj"><rect x="211.27" y="309.39" width="63.31" height="3.76" style="fill: rgb(219, 219, 219); transform-origin: 242.925px 311.27px; transform: rotate(-176.32deg);" class="animable"></rect></g><g id="elou29zp419tk"><rect x="214.37" y="209.36" width="38.54" height="3.76" style="fill: rgb(219, 219, 219); transform-origin: 233.64px 211.24px; transform: rotate(-176.32deg);" class="animable"></rect></g><g id="ell009v7q9pt"><rect x="289.99" y="214.22" width="38.54" height="3.76" style="fill: rgb(219, 219, 219); transform-origin: 309.26px 216.1px; transform: rotate(-176.32deg);" class="animable"></rect></g><g id="el15ly76015x1"><rect x="261.63" y="211.81" width="20.05" height="3.76" style="fill: rgb(219, 219, 219); transform-origin: 271.655px 213.69px; transform: rotate(-176.32deg);" class="animable"></rect></g><g id="elo37hsibt6xm"><rect x="349.59" y="229.89" width="20.05" height="3.76" style="fill: rgb(219, 219, 219); transform-origin: 359.615px 231.77px; transform: rotate(-176.32deg);" class="animable"></rect></g><g id="el5zd2b48l3kd"><rect x="148.81" y="217.83" width="46.43" height="3.76" style="fill: rgb(219, 219, 219); transform-origin: 172.025px 219.71px; transform: rotate(-176.32deg);" class="animable"></rect></g><g id="el1klgu60pi9i"><rect x="204.98" y="222.16" width="68.83" height="3.76" style="fill: rgb(219, 219, 219); transform-origin: 239.395px 224.04px; transform: rotate(-176.32deg);" class="animable"></rect></g><g id="elkdh97khc82l"><rect x="285.83" y="226.85" width="53" height="3.76" style="fill: rgb(219, 219, 219); transform-origin: 312.33px 228.73px; transform: rotate(-176.32deg);" class="animable"></rect></g><g id="elu90e5dlmv"><rect x="266.1" y="175.66" width="46.43" height="3.76" style="fill: rgb(219, 219, 219); transform-origin: 289.315px 177.54px; transform: rotate(-176.32deg);" class="animable"></rect></g><g id="eld4df2nhjuz6"><rect x="267.15" y="87.3" width="59.49" height="3.76" style="fill: rgb(219, 219, 219); transform-origin: 296.895px 89.18px; transform: rotate(-176.32deg);" class="animable"></rect></g><g id="elz0iksjk1og"><rect x="265.56" y="112.06" width="59.49" height="3.76" style="fill: rgb(219, 219, 219); transform-origin: 295.305px 113.94px; transform: rotate(-176.32deg);" class="animable"></rect></g><g id="elcdd2cpgg6av"><rect x="266.37" y="99.2" width="44.36" height="3.76" style="fill: rgb(219, 219, 219); transform-origin: 288.55px 101.08px; transform: rotate(-176.32deg);" class="animable"></rect></g><g id="elm27ye1chtzl"><rect x="264.79" y="123.48" width="29.75" height="3.76" style="fill: rgb(219, 219, 219); transform-origin: 279.665px 125.36px; transform: rotate(-176.32deg);" class="animable"></rect></g><path d="M303.37,359.8l2.33-36.26a5,5,0,0,1,5.25-4.62,4.91,4.91,0,0,1,4.53,5.25l-2.33,36.26a4.85,4.85,0,0,1-5.16,4.62A4.92,4.92,0,0,1,303.37,359.8Zm3.55,21.95a5,5,0,0,1-4.63-5.25l.12-1.8a5,5,0,0,1,5.26-4.62,4.9,4.9,0,0,1,4.52,5.25l-.11,1.79A4.86,4.86,0,0,1,306.92,381.75Z" style="fill: rgb(69, 78, 93); transform-origin: 308.888px 350.336px;" id="elkpne6lcef6l" class="animable"></path><path d="M327.39,361.34l2.33-36.25a5,5,0,0,1,5.25-4.62,4.91,4.91,0,0,1,4.53,5.25L337.17,362A4.86,4.86,0,0,1,332,366.6,4.93,4.93,0,0,1,327.39,361.34Zm3.55,22a4.94,4.94,0,0,1-4.63-5.25l.12-1.8a5,5,0,0,1,5.26-4.62,4.9,4.9,0,0,1,4.52,5.25l-.11,1.8A4.86,4.86,0,0,1,330.94,383.29Z" style="fill: rgb(69, 78, 93); transform-origin: 332.906px 351.902px;" id="ellcyucac7h7o" class="animable"></path><path d="M351.41,362.88l2.33-36.25A5,5,0,0,1,359,322a4.91,4.91,0,0,1,4.53,5.25l-2.33,36.25a4.86,4.86,0,0,1-5.16,4.63A4.93,4.93,0,0,1,351.41,362.88ZM355,384.83a4.93,4.93,0,0,1-4.63-5.25l.12-1.8a5,5,0,0,1,5.26-4.62,4.91,4.91,0,0,1,4.52,5.25l-.11,1.8A4.85,4.85,0,0,1,355,384.83Z" style="fill: rgb(69, 78, 93); transform-origin: 356.951px 353.416px;" id="el4leo0ba05ea" class="animable"></path><path d="M155.88,327.88a2.17,2.17,0,0,1,2,2.33l-.07,1.11a18.59,18.59,0,0,1,7.69,3.3,2.72,2.72,0,0,1,1.37,2.54,2.8,2.8,0,0,1-3,2.61,3,3,0,0,1-1.5-.56,18.71,18.71,0,0,0-5.08-2.57l-.63,9.75c7.59,2.43,10.7,5.74,10.35,11.17-.36,5.59-5,9-11.46,9.21l-.19,3a2.18,2.18,0,0,1-2.33,2.05,2.22,2.22,0,0,1-2.09-2.33l.2-3.15A22,22,0,0,1,141,361.75a2.81,2.81,0,1,1,3.4-4.47,18,18,0,0,0,7.29,3.89l.65-10c-7.3-2.4-10.57-5.42-10.2-11.16.35-5.43,4.91-8.91,11.29-9l.06-1.07A2.22,2.22,0,0,1,155.88,327.88Zm-3.14,17.19.58-9c-3.27.09-5,1.72-5.15,3.95S148.91,343.55,152.74,345.07Zm3.56,7.31-.6,9.25c3.27-.15,5.16-1.66,5.31-4.1C161.16,355.3,160.12,353.85,156.3,352.38Z" style="fill: rgb(219, 219, 219); transform-origin: 153.422px 349.849px;" id="el174v5hksr7x" class="animable"></path><path d="M195.71,330.44a2.17,2.17,0,0,1,2,2.33l-.07,1.11a18.59,18.59,0,0,1,7.69,3.3,2.75,2.75,0,0,1,1.37,2.54,2.81,2.81,0,0,1-3,2.61,3,3,0,0,1-1.49-.56,18.62,18.62,0,0,0-5.09-2.57l-.62,9.75c7.59,2.43,10.69,5.74,10.34,11.17-.36,5.59-5,9-11.45,9.21l-.2,3a2.17,2.17,0,0,1-2.32,2.05,2.23,2.23,0,0,1-2.1-2.33l.21-3.15a22,22,0,0,1-10.16-4.63,2.8,2.8,0,0,1-1.21-2.52,2.79,2.79,0,0,1,4.61-2,18,18,0,0,0,7.3,3.88l.64-10c-7.29-2.4-10.56-5.42-10.2-11.16.35-5.43,4.91-8.91,11.29-9l.07-1.07A2.22,2.22,0,0,1,195.71,330.44Zm-3.15,17.19.58-9c-3.27.09-5,1.72-5.15,3.95S188.73,346.11,192.56,347.63Zm3.56,7.31-.59,9.24c3.27-.14,5.15-1.65,5.31-4.09C201,357.86,200,356.41,196.12,354.94Z" style="fill: rgb(219, 219, 219); transform-origin: 193.234px 352.409px;" id="elhpu4ssjl1ot" class="animable"></path><path d="M235.53,333a2.19,2.19,0,0,1,2.05,2.33l-.08,1.11a18.48,18.48,0,0,1,7.69,3.3,2.72,2.72,0,0,1,1.37,2.54,2.8,2.8,0,0,1-3,2.61,3,3,0,0,1-1.49-.56,18.62,18.62,0,0,0-5.09-2.57l-.63,9.75c7.59,2.43,10.7,5.74,10.35,11.17s-5,9-11.45,9.21l-.2,3a2.18,2.18,0,0,1-2.32,2.05,2.22,2.22,0,0,1-2.1-2.33l.2-3.15a22,22,0,0,1-10.15-4.63,2.81,2.81,0,0,1-1.22-2.52,2.8,2.8,0,0,1,4.62-2,17.84,17.84,0,0,0,7.3,3.88l.64-10c-7.29-2.41-10.57-5.42-10.2-11.16.35-5.43,4.91-8.91,11.29-9l.07-1.07A2.2,2.2,0,0,1,235.53,333Zm-3.14,17.19.58-9c-3.27.09-5,1.72-5.15,3.95S228.56,348.67,232.39,350.19ZM236,357.5l-.6,9.24c3.28-.14,5.16-1.65,5.32-4.09C240.81,360.42,239.78,359,236,357.5Z" style="fill: rgb(219, 219, 219); transform-origin: 233.09px 354.969px;" id="el7stwjkc7s1n" class="animable"></path><path d="M275.36,335.56a2.17,2.17,0,0,1,2,2.32l-.07,1.12a18.59,18.59,0,0,1,7.69,3.3,2.74,2.74,0,0,1,1.37,2.54,2.81,2.81,0,0,1-3,2.61,3,3,0,0,1-1.49-.56,18.71,18.71,0,0,0-5.08-2.57l-.63,9.75c7.59,2.43,10.69,5.74,10.35,11.17s-5,9-11.46,9.21l-.19,3a2.19,2.19,0,0,1-2.33,2.05,2.21,2.21,0,0,1-2.09-2.33l.2-3.15a22,22,0,0,1-10.15-4.63,2.79,2.79,0,0,1-1.22-2.53,2.79,2.79,0,0,1,4.61-1.94,18,18,0,0,0,7.3,3.88l.65-10c-7.3-2.41-10.57-5.42-10.2-11.16.35-5.43,4.9-8.91,11.28-9l.07-1.07A2.22,2.22,0,0,1,275.36,335.56Zm-3.14,17.19.57-9c-3.27.09-5,1.72-5.14,3.95S268.39,351.23,272.22,352.75Zm3.55,7.31-.59,9.24c3.27-.14,5.15-1.65,5.31-4.09C280.64,363,279.6,361.53,275.77,360.06Z" style="fill: rgb(219, 219, 219); transform-origin: 272.888px 357.529px;" id="el9nlvtmmx93k" class="animable"></path></g><g id="freepik--Character--inject-2" class="animable" style="transform-origin: 117.38px 271.199px;"><path d="M186.9,474c-2.63.83-79.67-.83-82.49-2.71-1.08-.7,5.52-73.67,5.52-73.67l48.86.94-5.55,48.81s28.42,13.46,31.3,15.85S189.54,473.2,186.9,474Z" style="fill: rgb(173, 99, 89); transform-origin: 146.197px 435.92px;" id="elk52syzawyvl" class="animable"></path><path d="M186.91,474c-2.64.82-79.68-.85-82.49-2.73-.34-.21-.45-7.62.78-17.27,14,2.35,63.83,10,67.72,7.72,2.7-1.59.31-4.08-1.91-5.76,6.36,3.18,12.3,6.23,13.53,7.26C187.4,465.62,189.54,473.2,186.91,474Z" style="fill: rgb(38, 50, 56); transform-origin: 146.148px 464.107px;" id="elo478st3tu2" class="animable"></path><path d="M154.61,435.68l-48-.68s9.5-114.88,9.1-117.09c-.5-2.83-34.53-136.27-34.53-136.27H127S163.1,306,164.39,318C166.49,337.35,154.61,435.68,154.61,435.68Z" style="fill: rgb(38, 50, 56); transform-origin: 122.909px 308.66px;" id="elup8hlldpxtd" class="animable"></path><path d="M111,424.17c2.83-.2,5.7-.17,8.54-.21s5.69,0,8.53,0c5.69.06,11.38.15,17.06.31,1.56,0,3.12.09,4.67.16s3.32.36,5,.42a.1.1,0,0,1,0,.2c-1.4,0-2.8.23-4.2.27s-2.9.05-4.35.05l-8.53,0c-5.68-.05-11.38-.13-17.06-.36-3.21-.14-6.45-.18-9.65-.5A.15.15,0,0,1,111,424.17Z" style="fill: rgb(55, 71, 79); transform-origin: 132.868px 424.656px;" id="eldjeyh5h04ov" class="animable"></path><path d="M91.29,192.42c4.09,14.5,7.84,29.14,11.51,43.75s7.32,29.26,11,43.9L119.23,302c1.77,7.12,3.83,14.28,4.27,21.65s-.51,15-1.14,22.48-1.26,15-1.92,22.46c-1.31,15-2.57,30-4.2,44.93q-.3,2.81-.59,5.61c0,.16-.26.16-.25,0,1-15,2-30,3.22-44.95q.9-11.24,1.83-22.47c.62-7.48,1.49-15,1.72-22.48s-1.14-14.81-3-22.12q-2.69-10.74-5.38-21.48-5.49-21.94-11-43.9c-4.06-16.38-8.12-32.8-11.71-49.3A.07.07,0,0,1,91.29,192.42Z" style="fill: rgb(55, 71, 79); transform-origin: 107.346px 305.785px;" id="elhonq10y6ued" class="animable"></path><path d="M81.22,181.64s14.6,57.25,24.81,97.55l19.48-97.55Z" style="fill: rgb(55, 71, 79); transform-origin: 103.365px 230.415px;" id="el6ddigzcu1zh" class="animable"></path><path d="M129.37,474.19c-2.63.83-79.67-.84-82.49-2.71-1.08-.7,2.95-73.71,2.95-73.71L98,398.7l-2.33,48.85S124.13,461,127,463.41,132,473.38,129.37,474.19Z" style="fill: rgb(173, 99, 89); transform-origin: 88.6302px 436.089px;" id="el564lp3ttau9" class="animable"></path><path d="M129.37,474.19c-2.63.82-79.67-.84-82.48-2.72-.35-.21-.27-7.43,0-17.28,14,2.34,64.61,10,68.49,7.73,2.71-1.6.32-4.08-1.9-5.76,6.36,3.18,12.3,6.23,13.53,7.26C129.87,465.79,132,473.38,129.37,474.19Z" style="fill: rgb(38, 50, 56); transform-origin: 88.6106px 464.297px;" id="elfdn966pv9g" class="animable"></path><path d="M125.52,181.62s-2.59,32.37-7.93,40.5a82.08,82.08,0,0,0-13.28,6.61s-3.29,86.59-3.23,91.79c.21,19.45-4.76,114.19-4.76,114.19L48,434.25S53,327.11,53,320c0-6.89,3.29-50.37,6.21-88.06,0,0-4.3-12-3.83-18.12,1.16-14.74,7.77-32.17,7.77-32.17Z" style="fill: rgb(38, 50, 56); transform-origin: 86.76px 308.165px;" id="el3aac2eefs1p" class="animable"></path><path d="M108.5,212.4c.18-1.21.36-2.42.55-3.63.34-2.22.79-4.42,1.18-6.63.88-5,1.79-10,2.91-15,0-.12.23-.09.22,0-.2,2-.43,4-.71,6s-.48,4-.77,6c-.56,4-1.11,7.93-1.78,11.87-.26,1.52-1.21,4.25,1,4.72,1.73.37,3-1.33,3.51-2.76a34.79,34.79,0,0,0,1.17-5.47q.52-3,.95-6c.62-4.38,1.3-8.74,2-13.11,0-.13.22-.09.22,0a133.68,133.68,0,0,1-1,13.42c-.29,2.14-.6,4.26-1,6.38a22.44,22.44,0,0,1-1.46,6,4.83,4.83,0,0,1-3.62,2.9h-.1a.16.16,0,0,1,.06.12c0,.71,0,1.43-.08,2.14s-.22,1.4-.35,2.09a14.77,14.77,0,0,1-.54,2.08,10.14,10.14,0,0,1-.39,1,8.76,8.76,0,0,1-.56.88c-.08.13-.23,0-.24-.07h0c0-.12,0-.23,0-.35v-.06h0a4.3,4.3,0,0,1,0-.62c0-.34.13-.68.2-1,.15-.67.33-1.35.52-2s.32-1.34.49-2,.41-1.37.57-2.06c0,0,0,0,0-.07a3.15,3.15,0,0,1-3-1.91A5.45,5.45,0,0,1,108.5,212.4Z" style="fill: rgb(55, 71, 79); transform-origin: 113.617px 206.258px;" id="el826b1lh8fc4" class="animable"></path><path d="M100.4,229.79a39.28,39.28,0,0,1,4.55-3,43.89,43.89,0,0,1,5.19-2.68c3.5-1.52,7.1-2.56,10.72-3.75.1,0,.17.14.07.18-3.5,1.39-6.85,3.24-10.23,4.89-1.66.82-3.35,1.59-5,2.34s-3.38,1.62-5.13,2.26C100.4,230.08,100.3,229.88,100.4,229.79Z" style="fill: rgb(55, 71, 79); transform-origin: 110.669px 225.199px;" id="elsa43gjyrhx" class="animable"></path><path d="M73.1,202.77c2.46,0,11-.62,13.49-3.45a17.17,17.17,0,0,0,3.15-5.68,54.48,54.48,0,0,0,1.91-6.89c0-.12.19-.08.2,0a26.6,26.6,0,0,1-1,7.83c-.59,2.16-1.39,4.57-3.13,6.08s-4.34,2.16-6.69,2.45a30.59,30.59,0,0,1-7.94-.11A.13.13,0,0,1,73.1,202.77Z" style="fill: rgb(55, 71, 79); transform-origin: 82.4409px 194.995px;" id="el0b12mamq64ss" class="animable"></path><path d="M131.3,203.43a8.22,8.22,0,0,1-3.26-2c-1.85-2.8-2.31-11.71-2.47-14.05,0-.11-.06-.08-.06,0,0,2.63.1,5.3.31,7.83a27.74,27.74,0,0,0,1,6.09c.57,1.59,3.7,2.69,4.51,2.33C131.35,203.67,131.35,203.43,131.3,203.43Z" style="fill: rgb(55, 71, 79); transform-origin: 128.426px 195.503px;" id="elfnqsmshyomo" class="animable"></path><path d="M50.09,424.88c2.84-.2,5.7-.17,8.54-.21s5.69,0,8.54,0c5.68.06,11.37.15,17.06.31,1.55,0,3.11.09,4.66.16s3.32.36,5,.42a.1.1,0,0,1,0,.2c-1.4,0-2.79.23-4.19.27s-2.9.05-4.35.05c-2.85,0-5.69,0-8.54,0-5.68,0-11.37-.12-17.06-.35-3.21-.14-6.45-.18-9.64-.5A.15.15,0,0,1,50.09,424.88Z" style="fill: rgb(55, 71, 79); transform-origin: 71.9585px 425.366px;" id="elwl4boroj49" class="animable"></path><path d="M56,418.58h0a.59.59,0,0,1-.56-.62L66.32,230.48c-.14-.82-3.21-11.29-3.49-16.64-.29-5.66,5.56-27.7,5.81-28.63a.59.59,0,0,1,.72-.42.6.6,0,0,1,.42.72c-.06.23-6.05,22.8-5.77,28.27s3.47,16.48,3.49,16.57S56.58,418,56.58,418A.58.58,0,0,1,56,418.58Z" style="fill: rgb(55, 71, 79); transform-origin: 62.6182px 301.675px;" id="elr16n28rew2k" class="animable"></path><path d="M108,72.16s-3.17-4.52-7.42-4.15-4.81,3.08-7.39,3.5-8.06-.37-10.81,2.2-1.76,7.82-3,9.39-5.43,1.79-6.4,5.7c-1.12,4.53,1.69,7.25,1.56,9.59-.23,3.91-3,7.06-.81,11.63,2.31,4.91,6.6,4.81,9.4,6.4s3.23,6.73,9.28,7.07,7.64-3.48,11.19-4.85,8.64,1,12.43-1.57,2.6-6.25,3.65-8.18,4.11-2,5.29-5.41-1.82-6.47-2.06-7.8c-.4-2.29,1.17-3.53.62-6.78s-4.5-5.52-5.28-6.52c-1.87-2.38,0-7.37-3-9.54A6.6,6.6,0,0,0,108,72.16Z" style="fill: rgb(38, 50, 56); transform-origin: 98.9798px 95.7499px;" id="elj23z2j4djj" class="animable"></path><path d="M80.78,76.48c-.28,2.36-.33,5.23-2.67,6.57-3.48,1.66-6.84,4.36-6.06,8.61.24,2.37,2.2,4.31,2.29,6.82-.4,2.33-1.62,4.41-1.67,7a8.19,8.19,0,0,0,1,4.54c-2.06-2.64-1.66-6.33-.76-9.35.11-.39.38-1.33.47-1.71a3.85,3.85,0,0,0-.58-2.57c-2.9-4.75-2.59-10.14,2.81-12.83,1.37-.75,3-1.16,3.78-2.57a19.86,19.86,0,0,0,1.36-4.51Z" style="fill: rgb(38, 50, 56); transform-origin: 75.8805px 93.25px;" id="el1ko2kov12q5" class="animable"></path><path d="M112.79,118.22c6-1.19,6.28-2.73,7.17-8.38a3.05,3.05,0,0,1,1.27-1.64c2-1.35,3.83-2.77,4-5.27.45-2.32-1-4.47-2.11-6.6a27.55,27.55,0,0,1,2.06,3,6.56,6.56,0,0,1-.51,7.24c-1.06,1.35-2.61,2-3.64,3.19a9.63,9.63,0,0,0-.48,2.07c-.53,4.71-3.25,6.29-7.76,6.38Z" style="fill: rgb(38, 50, 56); transform-origin: 119.412px 107.275px;" id="el0gf1ho6la7q" class="animable"></path><path d="M114.59,122.22c15.25,17.3,30.61,36.89,30.11,43.2-1.2,15-10.69,14.1-12.16,13.77-10-2.28-24.35-34-28.57-50.5C100.21,114,106.07,112.54,114.59,122.22Z" style="fill: rgb(69, 78, 93); transform-origin: 123.761px 147.7px;" id="elss0l7i5h1q" class="animable"></path><path d="M129.66,140.18l-18.84,7.93c-1.36-3.16-2.59-6.3-3.67-9.29l15.94-6.71C125.37,134.83,127.58,137.54,129.66,140.18Z" style="fill: rgb(69, 78, 93); transform-origin: 118.405px 140.11px;" id="elktnq1u8kc" class="animable"></path><g id="elt29aquuj5z"><path d="M129.66,140.18l-18.84,7.93c-1.36-3.16-2.59-6.3-3.67-9.29l15.94-6.71C125.37,134.83,127.58,137.54,129.66,140.18Z" style="fill: rgb(255, 255, 255); opacity: 0.5; transform-origin: 118.405px 140.11px;" class="animable"></path></g><path d="M133.86,145.65l-20.29,8.55c-.45-.94-.89-1.9-1.32-2.85l19.66-8.28C132.58,143.94,133.23,144.81,133.86,145.65Z" style="fill: rgb(69, 78, 93); transform-origin: 123.055px 148.635px;" id="eluodanut7hg" class="animable"></path><g id="elnxmg0yazr8g"><path d="M133.86,145.65l-20.29,8.55c-.45-.94-.89-1.9-1.32-2.85l19.66-8.28C132.58,143.94,133.23,144.81,133.86,145.65Z" style="fill: rgb(255, 255, 255); opacity: 0.5; transform-origin: 123.055px 148.635px;" class="animable"></path></g><g id="elhnzsdphpdll"><path d="M144.7,165.42c-1.2,15-10.69,14.1-12.16,13.77-10-2.28-24.35-34-28.57-50.5-2.54-9.93-.7-13.81,3.39-12.32l33.43,39.35C143.38,160,144.86,163.39,144.7,165.42Z" style="opacity: 0.1; transform-origin: 123.759px 147.695px;" class="animable"></path></g><path d="M127.52,182.25l-4.67-22.78s4.25-5.7,2.45-12c-1.31-4.57-12-26.64-19.42-31.95-6.06-4.36-15-1.51-18.86,3.85-6.34,8.75-19.58,29.21-24.3,62.53Z" style="fill: rgb(69, 78, 93); transform-origin: 95.12px 147.819px;" id="elc2zk4w5e7xj" class="animable"></path><path d="M113.7,155.47a64.38,64.38,0,0,0-9.36,1.67c-1.53.41-3,.89-4.51,1.41-.75.25-1.49.48-2.25.71a10.42,10.42,0,0,1-2.41.49.06.06,0,0,0,0,.11,18.09,18.09,0,0,0,2.33-.07,16.79,16.79,0,0,0,2.22-.45c1.55-.4,3.08-.88,4.62-1.3,3.12-.84,6.23-1.69,9.4-2.31C113.89,155.7,113.85,155.46,113.7,155.47Z" style="fill: rgb(38, 50, 56); transform-origin: 104.484px 157.67px;" id="elczavz070mlf" class="animable"></path><path d="M121.55,158.17a68.39,68.39,0,0,0-7.84-.27c-1.31,0-2.61.14-3.92.28l-1.86.24c-.68.09-1.35.28-2,.37-.07,0-.07.12,0,.11.65-.06,1.31,0,2,0l2-.08c1.31-.05,2.61-.08,3.92-.14,2.61-.13,5.21-.22,7.83-.26C121.7,158.38,121.69,158.18,121.55,158.17Z" style="fill: rgb(38, 50, 56); transform-origin: 113.783px 158.391px;" id="eldsujjy3cbgh" class="animable"></path><path d="M84.25,120c-17,15.14-36.59,46.22-33.3,53.37,3.67,8,27.4-13.27,27.4-14.6,0-1,6.41-19.53,13.33-34.19S88.46,116.2,84.25,120Z" style="fill: rgb(247, 169, 160); transform-origin: 72.3088px 145.259px;" id="elkndajsukz7" class="animable"></path><path d="M78.5,158.75c.82-2.16,10.49-27.09,14.1-35.52,3.24-7.56,2-10.83-4.74-6.46-12.43,8.06-32.76,33-38,46.74-5.07,13.21,3.91,14,13.48,8.37C71.15,167.28,78.5,158.75,78.5,158.75Z" style="fill: rgb(69, 78, 93); transform-origin: 71.3541px 144.999px;" id="elxm18e1btc1" class="animable"></path><path d="M87.55,135.63c-1.22,3.07-2.49,6.29-3.68,9.32l-18.74-5.66c2.28-2.86,4.67-5.66,7.07-8.3Z" style="fill: rgb(69, 78, 93); transform-origin: 76.34px 137.97px;" id="elpdd878peu8" class="animable"></path><g id="el1ozeqxeh7s1i"><path d="M87.55,135.63c-1.22,3.07-2.49,6.29-3.68,9.32l-18.74-5.66c2.28-2.86,4.67-5.66,7.07-8.3Z" style="fill: rgb(255, 255, 255); opacity: 0.5; transform-origin: 76.34px 137.97px;" class="animable"></path></g><path d="M82.57,148.26l-1.14,2.93L60.8,145c.65-.89,1.32-1.78,2-2.67Z" style="fill: rgb(69, 78, 93); transform-origin: 71.685px 146.76px;" id="eldn4eohevnka" class="animable"></path><g id="eljdvxs146n5"><path d="M82.57,148.26l-1.14,2.93L60.8,145c.65-.89,1.32-1.78,2-2.67Z" style="fill: rgb(255, 255, 255); opacity: 0.5; transform-origin: 71.685px 146.76px;" class="animable"></path></g><path d="M76.82,162.48Q82.3,147,89.09,132q-5.48,15.53-12.27,30.53Z" style="fill: rgb(38, 50, 56); transform-origin: 82.955px 147.265px;" id="eluoubtppb4bb" class="animable"></path><path d="M86.82,137.9a16.71,16.71,0,0,1,2.41-3.59,11.12,11.12,0,0,1-2.41,3.59Z" style="fill: rgb(38, 50, 56); transform-origin: 88.025px 136.105px;" id="eljpyl6g3vh9c" class="animable"></path><path d="M95.48,117c.25,1.15,6.6,7.29,11.85,7.12,1.72-.06.84-8,.84-8l.17-.69,2.31-9.64L99.4,98.28l-1.63-1s-.46,2.68-1,6c0,.16,0,.31-.07.48s-.07.36-.1.54c-.09.5-.17,1-.25,1.52s-.12.76-.16,1.17-.11.81-.17,1.21A64.37,64.37,0,0,0,95.48,117Z" style="fill: rgb(173, 99, 89); transform-origin: 103.064px 110.702px;" id="elntn5f6xuhp" class="animable"></path><path d="M96.77,103.31a19.9,19.9,0,0,0,11.57,12.07l2.31-9.64L99.4,98.28l-1.63-1S97.31,100,96.77,103.31Z" style="fill: rgb(38, 50, 56); transform-origin: 103.71px 106.33px;" id="eleif0yquxu4s" class="animable"></path><path d="M121.52,87.54c4.71,16.75-4.8,21.47-8.41,22.48-3.28.92-14.57,3.64-21-12.53S92,73.83,99.4,71.33,116.81,70.8,121.52,87.54Z" style="fill: rgb(173, 99, 89); transform-origin: 106.125px 90.6086px;" id="elrxs1djra08" class="animable"></path><path d="M93.52,99.37a7.08,7.08,0,0,0,2.62-6.49,18.48,18.48,0,0,0,6-7.56c0,.37-.29,3.05-.46,4.41,10.2-4.36,11.69-13.24,11.69-13.24a18.69,18.69,0,0,1,6.14,5.71s-1.38-6.55-5.71-10.17a10.79,10.79,0,0,0-10.68-2.18,15.42,15.42,0,0,0-13.69,7.8C84.22,86.72,93.52,99.37,93.52,99.37Z" style="fill: rgb(38, 50, 56); transform-origin: 103.677px 84.3221px;" id="elfknc3mmmt9q" class="animable"></path><path d="M109.41,86.16a20,20,0,0,1-5,3.23,0,0,0,0,1,0,0,17,17,0,0,0,6.77-6.46,16.33,16.33,0,0,0,1.58-3.73,11,11,0,0,0,.51-4.37.09.09,0,0,1,.17,0,12.89,12.89,0,0,1,.09,4.38,11.8,11.8,0,0,1-1.58,4,13.63,13.63,0,0,1-2.51,3" style="fill: rgb(38, 50, 56); transform-origin: 109.043px 82.0798px;" id="elqzvf4umqjla" class="animable"></path><path d="M95.15,98s-4.74-4.63-6.91-2.84,2.1,9,5.15,9.51A3,3,0,0,0,97,102.41Z" style="fill: rgb(173, 99, 89); transform-origin: 92.324px 99.7488px;" id="elc4rl8xdf417" class="animable"></path><path d="M89.51,97.23s0,.07,0,.08c2.15.42,3.55,2.07,4.65,3.85a1.62,1.62,0,0,0-2.47,0s0,.12.07.1a1.82,1.82,0,0,1,2.08.25,9.2,9.2,0,0,1,1.24,1.4c.12.16.43,0,.32-.19l0,0C94.94,100.14,92.29,97,89.51,97.23Z" style="fill: rgb(38, 50, 56); transform-origin: 92.4666px 100.097px;" id="elbrlkgd2tp3b" class="animable"></path><path d="M117.84,84.48a9.58,9.58,0,0,0-1.19-.22,1.91,1.91,0,0,0-1.25,0,.61.61,0,0,0-.29.7,1.54,1.54,0,0,0,1.27.91,2.28,2.28,0,0,0,1.62-.2A.66.66,0,0,0,117.84,84.48Z" style="fill: rgb(38, 50, 56); transform-origin: 116.697px 85.046px;" id="elwwxyg7js6q" class="animable"></path><path d="M105.86,90c.29-.3.6-.53.91-.8a2,2,0,0,1,1.08-.64.62.62,0,0,1,.61.45,1.54,1.54,0,0,1-.62,1.44,2.33,2.33,0,0,1-1.49.67A.67.67,0,0,1,105.86,90Z" style="fill: rgb(38, 50, 56); transform-origin: 107.079px 89.8399px;" id="elb5vwosb9k9u" class="animable"></path><path d="M109.63,103c.32.24.65.59,1.09.57a3.29,3.29,0,0,0,1.23-.46s.08,0,.06.05a1.63,1.63,0,0,1-1.42.84,1.27,1.27,0,0,1-1.06-.93C109.5,103,109.59,103,109.63,103Z" style="fill: rgb(38, 50, 56); transform-origin: 110.769px 103.5px;" id="el31l34eniu1t" class="animable"></path><path d="M111.59,100.13a11,11,0,0,1,4.33-1.21c.12-.06.39-.23.38-.36h0l-.75-2.39c.36.07,2.18.34,2-.1a59.19,59.19,0,0,0-4.74-11.17.11.11,0,0,0-.2.09c1.09,3.58,2.8,7,4,10.54a6.85,6.85,0,0,0-2,0c-.12.07.92,2.48,1,2.88a6.68,6.68,0,0,0-4.22,1.6C110.93,100.34,110.91,100.5,111.59,100.13Z" style="fill: rgb(38, 50, 56); transform-origin: 114.311px 92.5928px;" id="elliinz31ts7" class="animable"></path><path d="M114.09,101.16c.51-.28,1-2.59.06-2.58a4.56,4.56,0,0,0-3.57,2.47c-.49,1.32,2.09,0,2.56.1S113.72,101.36,114.09,101.16Z" style="fill: rgb(38, 50, 56); transform-origin: 112.6px 100.11px;" id="eleggoui486h" class="animable"></path><path d="M113.15,101.15l.22.06a1.62,1.62,0,0,0-2-1.29,3,3,0,0,0-.76,1.12C110.09,102.37,112.67,101,113.15,101.15Z" style="fill: rgb(255, 154, 187); transform-origin: 111.956px 100.748px;" id="ely3kc8bvn0ps" class="animable"></path><path d="M109.56,92.5s-.08.07-.06.12c.32,1.17.49,2.57-.49,3.21,0,0,0,.08,0,.07C110.3,95.4,110.05,93.55,109.56,92.5Z" style="fill: rgb(38, 50, 56); transform-origin: 109.484px 94.2004px;" id="elce0u8ar0y4s" class="animable"></path><path d="M108.21,91.52c-1.93.31-1.16,4.15.63,3.86S109.83,91.26,108.21,91.52Z" style="fill: rgb(38, 50, 56); transform-origin: 108.47px 93.4515px;" id="elm2nkxt9wpzj" class="animable"></path><path d="M107.5,91.87c-.29.28-.54.73-.94.85s-.89-.19-1.28-.51c0,0-.06,0,0,.05.13.74.57,1.44,1.38,1.39s1.12-.8,1.16-1.57C107.78,91.93,107.62,91.76,107.5,91.87Z" style="fill: rgb(38, 50, 56); transform-origin: 106.537px 92.7437px;" id="el1eftxdbx4do" class="animable"></path><path d="M116.41,90.59s.11,0,.11.09c.19,1.19.61,2.53,1.77,2.72,0,0,0,.07,0,.07C116.94,93.54,116.4,91.75,116.41,90.59Z" style="fill: rgb(38, 50, 56); transform-origin: 117.35px 92.031px;" id="el7acw2d1zsn4" class="animable"></path><path d="M117.24,89.14c1.89-.51,2.77,3.3,1,3.78S115.66,89.57,117.24,89.14Z" style="fill: rgb(38, 50, 56); transform-origin: 117.798px 91.0273px;" id="eldm2fm52gbnd" class="animable"></path><path d="M118.09,89.21c.35.13.73.43,1.1.37s.64-.56.81-1c0,0,.06,0,.07,0,.19.73.12,1.54-.54,1.85s-1.23-.24-1.57-.93C117.9,89.38,118,89.15,118.09,89.21Z" style="fill: rgb(38, 50, 56); transform-origin: 119.052px 89.5493px;" id="elw156qlgbr7" class="animable"></path><path d="M131.27,174.9c-2.71-6.35-3.37-22.68-.92-45.75.4-3.77,23.59-5.23,23.59-1.18,0,5.11-3.25,33.2-3.52,34.64C148.19,174.75,133.08,179.13,131.27,174.9Z" style="fill: rgb(173, 99, 89); transform-origin: 141.385px 151.009px;" id="elyrwy9hk0icm" class="animable"></path><path d="M153.53,130.25s4.37-8.41,5.3-13.54a33.45,33.45,0,0,0-1.42-16c-1.88-5.54-10.24-17.64-14.15-15.84-3.53,1.63,5.64,13.57,5.64,13.57s-7.35-13.72-11.24-11,7.55,16,7.55,16-7.87-13.92-11.44-10.46c-2.7,2.62,7,15.21,7,15.21s-6.85-11.92-9.74-9.34c-3.19,2.84,5,15,5,15-6.24,7.79-6,14-5.35,18.48C130.86,133.5,153.53,130.25,153.53,130.25Z" style="fill: rgb(173, 99, 89); transform-origin: 144.759px 108.637px;" id="elnldjn40lup" class="animable"></path><path d="M151.75,103.06c-.8-1.64-1.61-3.31-2.56-4.88s-1.95-3.09-3-4.56a31.29,31.29,0,0,0-4.78-5.32,67.4,67.4,0,0,1,7.4,10.16c.95,1.56,2,3.08,2.92,4.64A0,0,0,0,0,151.75,103.06Z" style="fill: rgb(38, 50, 56); transform-origin: 146.58px 95.7px;" id="elf0cysrlz5pj" class="animable"></path><path d="M146.16,106.59c-1.12-2.06-2.15-4.14-3.36-6.14s-2.52-3.78-3.86-5.69c-.1-.14-.15,0-.05.11,1.26,2,2.27,3.87,3.51,5.84s2.55,3.9,3.71,5.91C146.13,106.65,146.18,106.62,146.16,106.59Z" style="fill: rgb(38, 50, 56); transform-origin: 142.5px 100.667px;" id="eloyhv56dzx8n" class="animable"></path><path d="M141.91,110.48a52.16,52.16,0,0,0-5.86-9c-.11-.14-.15,0-.05.15,2,3,3.6,5.25,5.8,8.89C141.83,110.59,141.94,110.54,141.91,110.48Z" style="fill: rgb(38, 50, 56); transform-origin: 138.929px 105.988px;" id="el15dy8xzv0iu" class="animable"></path><path d="M136,113.94a42.9,42.9,0,0,1-5.43-10.2c-.52-1.61-1.16-4.68,1-5.28a2.53,2.53,0,0,1,1.46.43,23.58,23.58,0,0,1,3.27,2.87l-.24.21c-1.37-2.24-2.8-4.61-3.06-7.27a2.12,2.12,0,0,1,2.72-2.3A7.74,7.74,0,0,1,139,94.78l-.2.16c-1.22-1.9-3.89-7.47,0-7.83a4.7,4.7,0,0,1,2.74,1.33c-1.06-.91-2.9-1.9-4.08-.67-1.52,1.8.5,5.33,1.53,7l.62,1L138.8,95a7.92,7.92,0,0,0-3.06-2.28A2.18,2.18,0,0,0,134,93a1.84,1.84,0,0,0-.58,1.65c.26,2.58,1.7,4.91,3,7.1l.61.95-.85-.73A24.22,24.22,0,0,0,133,99.15a2.25,2.25,0,0,0-1.27-.39c-1.93.57-1.28,3.45-.85,4.91a45.29,45.29,0,0,0,5.2,10.27Z" style="fill: rgb(38, 50, 56); transform-origin: 135.8px 100.525px;" id="el2uetcmbws5u" class="animable"></path><path d="M155.91,136.33l-30,2.38s-.62,31.74,3.29,37.6c4.52,6.8,19.89,1.94,22.38-14.2Z" style="fill: rgb(69, 78, 93); transform-origin: 140.892px 157.812px;" id="elte6lfnuakko" class="animable"></path><path d="M153.48,143.72c-12.51,2.29-23.72,2.43-26.07,2.69-.11,0-.12-.17,0-.18,2.32-.13,15.39-2,26.07-2.7C153.6,143.52,153.6,143.7,153.48,143.72Z" style="fill: rgb(38, 50, 56); transform-origin: 140.447px 144.97px;" id="elh3dn9j88w6" class="animable"></path><path d="M127.2,168.77c-.25-3.92-.52-7.83-.72-11.75s-.3-7.84-.34-11.76c0-2.17.1-4.18.14-6.35,1.11-.23,1.78-.22,3.14-.48.17,0,.11-.44-.06-.41-1.49.21-3.75.17-3.76.27-.16,3.93-.06,8.13,0,12.06s.31,7.9.67,11.83c.2,2.21.49,4.41.83,6.6C127.15,168.82,127.2,168.81,127.2,168.77Z" style="fill: rgb(38, 50, 56); transform-origin: 127.517px 153.412px;" id="elmmlcbir67s" class="animable"></path><path d="M51.56,174.38c4.93,3.89,15.85,1.78,40.65-.68,3.43-.34,6.31-25,2.63-24.79-4.64.22-22.6,2.07-23.9,2.38C60,153.83,48.21,171.73,51.56,174.38Z" style="fill: rgb(173, 99, 89); transform-origin: 73.7681px 162.719px;" id="elysnuou0k8oc" class="animable"></path><path d="M102.5,146.24c7.63-.15,9.62,1,16-2.56,4.18-2.33,7.46-.66,4.74,3.51-4.46,6.81-14.26,9.07-17.89,8.87Z" style="fill: rgb(173, 99, 89); transform-origin: 113.367px 149.347px;" id="elgrqtc4qzqzp" class="animable"></path><path d="M81.7,151.08a78.06,78.06,0,0,1,17.11-4.64c5.61-.66,18-.75,28.21,12.67,2.43,3.18,3.63,9.44-2.22,5.68-4.16-2.67-6-5.62-8.68-6.74,0,0,.58,8.14-2.71,10.45a73.72,73.72,0,0,1-9,5.41,16.77,16.77,0,0,1-1.16-1.59s-6.41,3.17-13.07,1.59Z" style="fill: rgb(173, 99, 89); transform-origin: 105.363px 160.283px;" id="elws4zifli86n" class="animable"></path><path d="M104.27,146.66c2.45,1.67,7.57,5.3,10.73,9.73,3.51,4.92,8.94,15.34,5.29,17.89-2.69,1.87-5.11-1.92-5.11-1.92s1.34,4.78-1.45,5.94c-2.55,1.06-4.25-2-4.25-2s.31,3-2.33,3.59c-3.19.65-3.32-5.82-7.12-7.94C99.18,171.48,104.27,146.66,104.27,146.66Z" style="fill: rgb(173, 99, 89); transform-origin: 110.718px 163.298px;" id="el2qwpwfy97th" class="animable"></path><path d="M109.19,159.23a24.07,24.07,0,0,1,6,13c0,.12-.07.19-.11.08a59,59,0,0,0-6-13.06S109.16,159.21,109.19,159.23Z" style="fill: rgb(38, 50, 56); transform-origin: 112.135px 165.795px;" id="elw9niyoj7mua" class="animable"></path><path d="M104.32,162.92a27.06,27.06,0,0,1,5.27,13.35c0,.12-.09.19-.12.08a64,64,0,0,0-5.19-13.4S104.3,162.9,104.32,162.92Z" style="fill: rgb(38, 50, 56); transform-origin: 106.935px 169.66px;" id="el3ckzbayuayc" class="animable"></path><path d="M90.54,146.71,76.61,180.49S53.44,178.65,49.87,174c-2.55-3.36,8.87-20.57,21-23.36Z" style="fill: rgb(69, 78, 93); transform-origin: 70.0251px 163.6px;" id="elo6vbgtprzlb" class="animable"></path><path d="M57.75,159c1.34-2.06,6.14-6.67,13.12-8.39.06,0,.1.08,0,.1-5.08,1.79-11.63,6.49-13.09,8.36C57.78,159.06,57.71,159,57.75,159Z" style="fill: rgb(38, 50, 56); transform-origin: 64.3343px 154.84px;" id="elbh4v8js5crt" class="animable"></path><path d="M72.16,175c1.09-3.36,2.35-6.66,3.62-10s2.55-6.6,3.9-9.87c.77-1.84,1.52-3.69,2.35-5.51,0-.05.11,0,.09,0-1.08,3.35-2.33,6.66-3.58,10s-2.54,6.6-3.86,9.88q-1.11,2.79-2.35,5.52C72.29,175.17,72.13,175.12,72.16,175Z" style="fill: rgb(38, 50, 56); transform-origin: 77.1394px 162.355px;" id="eluf0vczseu58" class="animable"></path><path d="M90.46,146.41a29.54,29.54,0,0,0-4.07.58c-1.36.25-2.71.52-4,.8-2.68.56-8.42,1.45-13.07,3.24,0,0,.3.17.35.15,2.18-1,19.28-3.9,20.62-4.3,0,.1-.85,2.27-.85,2.38s.1.13.15.06,1-2.42,1.1-2.6A.2.2,0,0,0,90.46,146.41Z" style="fill: rgb(38, 50, 56); transform-origin: 80.0264px 148.789px;" id="elblq9nrj32t7" class="animable"></path><path d="M78.83,175.1c-.66,1.89-1.36,3.76-2.07,5.64-3.08-.2-6.14-.53-9.2-1a61.89,61.89,0,0,1-13.23-3.15c-.46-.2-.92-.42-1.38-.63a68.38,68.38,0,0,0,11.73,2.64c4,.63,8,1.16,11.94,1.62l-.23.15q1.19-2.67,2.44-5.31Z" style="fill: rgb(38, 50, 56); transform-origin: 65.89px 177.9px;" id="elr8o6spih6ie" class="animable"></path></g><g id="freepik--Sign--inject-2" class="animable animator-active" style="transform-origin: 400.085px 239.96px;"><polygon points="400.08 194.41 347.49 285.51 452.68 285.51 400.08 194.41" style="fill: rgb(38, 50, 56); transform-origin: 400.085px 239.96px;" id="elbfr7whjuyys" class="animable"></polygon><polygon points="400.08 207.61 358.92 278.92 441.25 278.92 400.08 207.61" style="fill: rgb(69, 78, 93); transform-origin: 400.085px 243.265px;" id="el4hwak55x2bo" class="animable"></polygon><path d="M396.83,255.66V231.53a3.32,3.32,0,0,1,3.28-3.29,3.27,3.27,0,0,1,3.23,3.29v24.13a3.22,3.22,0,0,1-3.23,3.28A3.27,3.27,0,0,1,396.83,255.66Zm3.28,14.39a3.27,3.27,0,0,1-3.28-3.29v-1.19a3.31,3.31,0,0,1,3.28-3.28,3.26,3.26,0,0,1,3.23,3.28v1.19A3.22,3.22,0,0,1,400.11,270.05Z" style="fill: rgb(38, 50, 56); transform-origin: 400.085px 249.145px;" id="elcij9whd66d7" class="animable"></path></g><g id="freepik--Coins--inject-2" class="animable" style="transform-origin: 250px 428.155px;"><rect x="53.73" y="459.1" width="70.17" height="15.51" style="fill: rgb(69, 78, 93); transform-origin: 88.815px 466.855px;" id="elaanxy5u1z6p" class="animable"></rect><g id="elcc02owwcd2s"><g style="opacity: 0.1; transform-origin: 88.6819px 466.72px;" class="animable"><path d="M56.62,460.52a37.4,37.4,0,0,1,0,12.4,37.67,37.67,0,0,1,0-12.4Z" id="eliumhuz4qpf" class="animable" style="transform-origin: 56.6219px 466.72px;"></path><path d="M61.85,460.52a37.67,37.67,0,0,1,0,12.4,37.4,37.4,0,0,1,0-12.4Z" id="elhigg9nauv5" class="animable" style="transform-origin: 61.8481px 466.72px;"></path><path d="M64.4,460.52a37.67,37.67,0,0,1,0,12.4,37.4,37.4,0,0,1,0-12.4Z" id="elzz6ploremcn" class="animable" style="transform-origin: 64.3981px 466.72px;"></path><path d="M78.41,460.52a37.4,37.4,0,0,1,0,12.4,37.67,37.67,0,0,1,0-12.4Z" id="elpznxn8wckgb" class="animable" style="transform-origin: 78.4119px 466.72px;"></path><path d="M82.21,460.52a37.67,37.67,0,0,1,0,12.4,37.4,37.4,0,0,1,0-12.4Z" id="el452tg1v0mfk" class="animable" style="transform-origin: 82.2081px 466.72px;"></path><path d="M97.88,460.52a37.4,37.4,0,0,1,0,12.4,37.67,37.67,0,0,1,0-12.4Z" id="elryv4ftr2l0n" class="animable" style="transform-origin: 97.8819px 466.72px;"></path><path d="M101.5,460.52a37.4,37.4,0,0,1,0,12.4,37.67,37.67,0,0,1,0-12.4Z" id="elsij76nveotm" class="animable" style="transform-origin: 101.502px 466.72px;"></path><path d="M108.16,460.52a37.67,37.67,0,0,1,0,12.4,37.13,37.13,0,0,1,0-12.4Z" id="elkl81cl03p1" class="animable" style="transform-origin: 108.156px 466.72px;"></path><path d="M94.85,460.52a37.4,37.4,0,0,1,0,12.4,37.67,37.67,0,0,1,0-12.4Z" id="elcss800cn2gd" class="animable" style="transform-origin: 94.8519px 466.72px;"></path><path d="M69,460.52a37.4,37.4,0,0,1,0,12.4,37.67,37.67,0,0,1,0-12.4Z" id="elyrmky8ommw" class="animable" style="transform-origin: 69.0019px 466.72px;"></path><path d="M87.19,460.52a37.4,37.4,0,0,1,0,12.4,37.67,37.67,0,0,1,0-12.4Z" id="elcp0z3mzx2n" class="animable" style="transform-origin: 87.1919px 466.72px;"></path><path d="M89.81,460.52a37.67,37.67,0,0,1,0,12.4,37.4,37.4,0,0,1,0-12.4Z" id="elsof0tzfyr5i" class="animable" style="transform-origin: 89.8081px 466.72px;"></path><path d="M116.82,460.52a37.4,37.4,0,0,1,0,12.4,37.4,37.4,0,0,1,0-12.4Z" id="el11m9mceff74" class="animable" style="transform-origin: 116.82px 466.72px;"></path><path d="M120.74,460.52a37.4,37.4,0,0,1,0,12.4,37.67,37.67,0,0,1,0-12.4Z" id="el3ymyvg62y1f" class="animable" style="transform-origin: 120.742px 466.72px;"></path><path d="M111.24,460.52a37.4,37.4,0,0,1,0,12.4,37.67,37.67,0,0,1,0-12.4Z" id="eltf4pwpvpwfs" class="animable" style="transform-origin: 111.242px 466.72px;"></path><path d="M75.39,460.52a37.67,37.67,0,0,1,0,12.4,37.4,37.4,0,0,1,0-12.4Z" id="elrsqjo2d461h" class="animable" style="transform-origin: 75.3881px 466.72px;"></path></g></g><g id="elz5jmvyunofi"><polygon points="123.89 459.1 123.89 462.39 53.73 464.61 53.73 459.1 123.89 459.1" style="opacity: 0.1; transform-origin: 88.81px 461.855px;" class="animable"></polygon></g><rect x="47.87" y="443.59" width="70.17" height="15.51" style="fill: rgb(69, 78, 93); transform-origin: 82.955px 451.345px;" id="el94q5bnkt2zk" class="animable"></rect><g id="elvgk82tkum2j"><g style="opacity: 0.1; transform-origin: 82.825px 451.21px;" class="animable"><path d="M114.89,457.42a37.4,37.4,0,0,1,0-12.4,37.67,37.67,0,0,1,0,12.4Z" id="elzbd25ytot7d" class="animable" style="transform-origin: 114.888px 451.22px;"></path><path d="M109.66,457.42a37.67,37.67,0,0,1,0-12.4,37.4,37.4,0,0,1,0,12.4Z" id="el0u9j9rz9spf" class="animable" style="transform-origin: 109.662px 451.22px;"></path><path d="M107.11,457.42a37.4,37.4,0,0,1,0-12.4,37.67,37.67,0,0,1,0,12.4Z" id="elv537yky8fc" class="animable" style="transform-origin: 107.108px 451.22px;"></path><path d="M93.1,457.42a37.4,37.4,0,0,1,0-12.4,37.67,37.67,0,0,1,0,12.4Z" id="elcp2x837q6i" class="animable" style="transform-origin: 93.0981px 451.22px;"></path><path d="M89.3,457.42a37.67,37.67,0,0,1,0-12.4,37.4,37.4,0,0,1,0,12.4Z" id="elzbylre9k9vo" class="animable" style="transform-origin: 89.3019px 451.22px;"></path><path d="M73.63,457.42a37.4,37.4,0,0,1,0-12.4,37.67,37.67,0,0,1,0,12.4Z" id="eleol53pbru6" class="animable" style="transform-origin: 73.6281px 451.22px;"></path><path d="M70,457.42A37.67,37.67,0,0,1,70,445a37.4,37.4,0,0,1,0,12.4Z" id="eldkxrhqy5en" class="animable" style="transform-origin: 70.001px 451.21px;"></path><path d="M63.35,457.42a37.67,37.67,0,0,1,0-12.4,37.4,37.4,0,0,1,0,12.4Z" id="ellhqc0dq6rs" class="animable" style="transform-origin: 63.3519px 451.22px;"></path><path d="M76.66,457.42a37.4,37.4,0,0,1,0-12.4,37.67,37.67,0,0,1,0,12.4Z" id="elg7zsuxq0mst" class="animable" style="transform-origin: 76.6581px 451.22px;"></path><path d="M102.48,457.42a37.4,37.4,0,0,1,0-12.4,37.67,37.67,0,0,1,0,12.4Z" id="elchsudw5a697" class="animable" style="transform-origin: 102.478px 451.22px;"></path><path d="M84.32,457.42a37.4,37.4,0,0,1,0-12.4,37.67,37.67,0,0,1,0,12.4Z" id="eltpgkabdgl2b" class="animable" style="transform-origin: 84.3181px 451.22px;"></path><path d="M81.7,457.42a37.67,37.67,0,0,1,0-12.4,37.4,37.4,0,0,1,0,12.4Z" id="el239jiqq25uz" class="animable" style="transform-origin: 81.7019px 451.22px;"></path><path d="M54.68,457.42a37.67,37.67,0,0,1,0-12.4,37.4,37.4,0,0,1,0,12.4Z" id="el9tusfm8sfuq" class="animable" style="transform-origin: 54.6819px 451.22px;"></path><path d="M50.76,457.42a37.67,37.67,0,0,1,0-12.4,37.13,37.13,0,0,1,0,12.4Z" id="elkmj0w2a99o" class="animable" style="transform-origin: 50.7638px 451.22px;"></path><path d="M60.27,457.42a37.4,37.4,0,0,1,0-12.4,37.67,37.67,0,0,1,0,12.4Z" id="ely9ei0mzowkl" class="animable" style="transform-origin: 60.2681px 451.22px;"></path><path d="M96.12,457.42a37.67,37.67,0,0,1,0-12.4,37.4,37.4,0,0,1,0,12.4Z" id="elh5c54uvphqv" class="animable" style="transform-origin: 96.1219px 451.22px;"></path></g></g><g id="elwd6i3paaqks"><polygon points="118.04 443.6 118.04 446.89 47.87 449.1 47.87 443.6 118.04 443.6" style="opacity: 0.1; transform-origin: 82.955px 446.35px;" class="animable"></polygon></g><rect x="53.28" y="428.22" width="70.17" height="15.51" style="fill: rgb(69, 78, 93); transform-origin: 88.365px 435.975px;" id="elhwnsk653wqc" class="animable"></rect><g id="el58lqdlnz9g"><g style="opacity: 0.1; transform-origin: 88.2319px 435.82px;" class="animable"><path d="M56.17,429.64a37.4,37.4,0,0,1,0,12.4,37.67,37.67,0,0,1,0-12.4Z" id="eldvyvrv537ne" class="animable" style="transform-origin: 56.1719px 435.84px;"></path><path d="M61.4,429.64a37.67,37.67,0,0,1,0,12.4,37.4,37.4,0,0,1,0-12.4Z" id="elko5nvk1t5w" class="animable" style="transform-origin: 61.3981px 435.84px;"></path><path d="M64,429.64A37.67,37.67,0,0,1,64,442a37.67,37.67,0,0,1,0-12.4Z" id="elgujfoev5per" class="animable" style="transform-origin: 63.9983px 435.8px;"></path><path d="M78,429.64A37.4,37.4,0,0,1,78,442a37.67,37.67,0,0,1,0-12.4Z" id="el3nmrk1w7udt" class="animable" style="transform-origin: 78.0002px 435.8px;"></path><path d="M81.76,429.64a37.67,37.67,0,0,1,0,12.4,37.4,37.4,0,0,1,0-12.4Z" id="elwplf5mwzpxd" class="animable" style="transform-origin: 81.7581px 435.84px;"></path><path d="M97.43,429.64a37.4,37.4,0,0,1,0,12.4,37.67,37.67,0,0,1,0-12.4Z" id="elptthq3ufpu" class="animable" style="transform-origin: 97.4319px 435.84px;"></path><path d="M101.06,429.64a37.67,37.67,0,0,1,0,12.4,37.13,37.13,0,0,1,0-12.4Z" id="eliw6ml6gk7fa" class="animable" style="transform-origin: 101.056px 435.84px;"></path><path d="M107.71,429.64a37.67,37.67,0,0,1,0,12.4,37.4,37.4,0,0,1,0-12.4Z" id="elsh89ebfstr" class="animable" style="transform-origin: 107.708px 435.84px;"></path><path d="M94.4,429.64a37.4,37.4,0,0,1,0,12.4,37.67,37.67,0,0,1,0-12.4Z" id="el0rm7bg337z7" class="animable" style="transform-origin: 94.4019px 435.84px;"></path><path d="M68.58,429.64a37.4,37.4,0,0,1,0,12.4,37.67,37.67,0,0,1,0-12.4Z" id="elg0gpl87xqz4" class="animable" style="transform-origin: 68.5819px 435.84px;"></path><path d="M86.74,429.64a37.4,37.4,0,0,1,0,12.4,37.67,37.67,0,0,1,0-12.4Z" id="elq4noy8kgy4o" class="animable" style="transform-origin: 86.7419px 435.84px;"></path><path d="M89.36,429.64a37.67,37.67,0,0,1,0,12.4,37.4,37.4,0,0,1,0-12.4Z" id="elpivcnzpv8qj" class="animable" style="transform-origin: 89.3581px 435.84px;"></path><path d="M116.38,429.64a37.67,37.67,0,0,1,0,12.4,37.4,37.4,0,0,1,0-12.4Z" id="elxluko9g5hb" class="animable" style="transform-origin: 116.378px 435.84px;"></path><path d="M120.29,429.64a37.4,37.4,0,0,1,0,12.4,37.67,37.67,0,0,1,0-12.4Z" id="elw90v54sxglo" class="animable" style="transform-origin: 120.292px 435.84px;"></path><path d="M110.79,429.64a37.4,37.4,0,0,1,0,12.4,37.67,37.67,0,0,1,0-12.4Z" id="elnp9waepv8h" class="animable" style="transform-origin: 110.792px 435.84px;"></path><path d="M74.94,429.64a37.67,37.67,0,0,1,0,12.4,37.4,37.4,0,0,1,0-12.4Z" id="elpqodc9okn4" class="animable" style="transform-origin: 74.9381px 435.84px;"></path></g></g><g id="elwl9zfi0kth"><polygon points="123.44 428.22 123.44 431.51 53.28 433.73 53.28 428.22 123.44 428.22" style="opacity: 0.1; transform-origin: 88.36px 430.975px;" class="animable"></polygon></g><g id="ele3hpclgbx64"><rect x="111.36" y="435.21" width="70.17" height="15.51" style="fill: rgb(69, 78, 93); transform-origin: 146.445px 442.965px; transform: rotate(49.26deg);" class="animable"></rect></g><g id="elcfarlne6mxf"><g style="opacity: 0.1; transform-origin: 146.455px 442.77px;" class="animable"><path d="M130.23,414.44a37.54,37.54,0,0,1-9.4,8.09,37.54,37.54,0,0,1,9.4-8.09Z" id="el9budh5mhyw8" class="animable" style="transform-origin: 125.53px 418.485px;"></path><path d="M133.64,418.4a37.54,37.54,0,0,1-9.4,8.09,37.33,37.33,0,0,1,9.4-8.09Z" id="elqxc0qt3zhb" class="animable" style="transform-origin: 128.94px 422.445px;"></path><path d="M135.31,420.33a38,38,0,0,1-9.4,8.1,37.4,37.4,0,0,1,9.4-8.1Z" id="elw2s5p3yk2cf" class="animable" style="transform-origin: 130.61px 424.38px;"></path><path d="M144.45,431a37.78,37.78,0,0,1-9.4,8.1,37.75,37.75,0,0,1,9.4-8.1Z" id="elu63h2z5j8l" class="animable" style="transform-origin: 139.75px 435.05px;"></path><path d="M146.93,433.82a37.55,37.55,0,0,1-9.4,8.1,37.57,37.57,0,0,1,9.4-8.1Z" id="elrxkuhqioola" class="animable" style="transform-origin: 142.23px 437.87px;"></path><path d="M157.16,445.7a38,38,0,0,1-9.4,8.1,37.57,37.57,0,0,1,9.4-8.1Z" id="el8vsrp0bzbxa" class="animable" style="transform-origin: 152.46px 449.75px;"></path><path d="M159.52,448.44a37.37,37.37,0,0,1-9.4,8.1,37.75,37.75,0,0,1,9.4-8.1Z" id="elb5jcvb9lafi" class="animable" style="transform-origin: 154.82px 452.49px;"></path><path d="M163.86,453.48a37.37,37.37,0,0,1-9.4,8.1,37.75,37.75,0,0,1,9.4-8.1Z" id="elbj94myehzo8" class="animable" style="transform-origin: 159.16px 457.53px;"></path><path d="M155.18,443.4a37.37,37.37,0,0,1-9.4,8.1,37.57,37.57,0,0,1,9.4-8.1Z" id="elxi0kt4bpt3" class="animable" style="transform-origin: 150.48px 447.45px;"></path><path d="M138.33,423.84a37.78,37.78,0,0,1-9.4,8.1,37.57,37.57,0,0,1,9.4-8.1Z" id="elg0rl8qn8jd" class="animable" style="transform-origin: 133.63px 427.89px;"></path><path d="M150.18,437.6a37.37,37.37,0,0,1-9.4,8.1,37.75,37.75,0,0,1,9.4-8.1Z" id="elxtok7kzb6tc" class="animable" style="transform-origin: 145.48px 441.65px;"></path><path d="M151.89,439.58a37.75,37.75,0,0,1-9.4,8.1,37.57,37.57,0,0,1,9.4-8.1Z" id="els4yxbufln9e" class="animable" style="transform-origin: 147.19px 443.63px;"></path><path d="M169.52,460.05a37.37,37.37,0,0,1-9.4,8.1,37.57,37.57,0,0,1,9.4-8.1Z" id="elm5lv8b14p3b" class="animable" style="transform-origin: 164.82px 464.1px;"></path><path d="M172.08,463a37.37,37.37,0,0,1-9.4,8.1,37.57,37.57,0,0,1,9.4-8.1Z" id="ellelorh4u22d" class="animable" style="transform-origin: 167.38px 467.05px;"></path><path d="M165.88,455.82a37.55,37.55,0,0,1-9.4,8.1,37.57,37.57,0,0,1,9.4-8.1Z" id="ela4qvm1l24e" class="animable" style="transform-origin: 161.18px 459.87px;"></path><path d="M142.47,428.65a37.33,37.33,0,0,1-9.39,8.1,37.53,37.53,0,0,1,9.39-8.1Z" id="elf0kk4uexug7" class="animable" style="transform-origin: 137.775px 432.7px;"></path></g></g><g id="elt51ye3eokpr"><polygon points="175.21 464.48 172.71 466.63 125.24 414.91 129.42 411.32 175.21 464.48" style="opacity: 0.1; transform-origin: 150.225px 438.975px;" class="animable"></polygon></g><rect x="375.92" y="459.1" width="70.17" height="15.51" style="fill: rgb(69, 78, 93); transform-origin: 411.005px 466.855px;" id="elbd92s0m89vw" class="animable"></rect><g id="elatpfzgkajhj"><g style="opacity: 0.1; transform-origin: 410.87px 466.72px;" class="animable"><path d="M378.81,460.52a37.67,37.67,0,0,1,0,12.4,37.4,37.4,0,0,1,0-12.4Z" id="eleh4nghs5d45" class="animable" style="transform-origin: 378.808px 466.72px;"></path><path d="M384,460.52a37.4,37.4,0,0,1,0,12.4,37.67,37.67,0,0,1,0-12.4Z" id="eljkxcblkk4o" class="animable" style="transform-origin: 384.002px 466.72px;"></path><path d="M386.59,460.52a37.67,37.67,0,0,1,0,12.4,37.4,37.4,0,0,1,0-12.4Z" id="elacykztj64ye" class="animable" style="transform-origin: 386.588px 466.72px;"></path><path d="M400.6,460.52a37.4,37.4,0,0,1,0,12.4,37.67,37.67,0,0,1,0-12.4Z" id="el25ol0suynpp" class="animable" style="transform-origin: 400.602px 466.72px;"></path><path d="M404.39,460.52a37.4,37.4,0,0,1,0,12.4,37.67,37.67,0,0,1,0-12.4Z" id="el609z1anher7" class="animable" style="transform-origin: 404.392px 466.72px;"></path><path d="M420.07,460.52a37.4,37.4,0,0,1,0,12.4,37.67,37.67,0,0,1,0-12.4Z" id="el4png6th6ld3" class="animable" style="transform-origin: 420.072px 466.72px;"></path><path d="M423.69,460.52a37.4,37.4,0,0,1,0,12.4,37.67,37.67,0,0,1,0-12.4Z" id="elxh9ps72wvid" class="animable" style="transform-origin: 423.692px 466.72px;"></path><path d="M430.34,460.52a37.4,37.4,0,0,1,0,12.4,37.67,37.67,0,0,1,0-12.4Z" id="elgbdxr62t8xb" class="animable" style="transform-origin: 430.342px 466.72px;"></path><path d="M417,460.52a37.4,37.4,0,0,1,0,12.4,37.67,37.67,0,0,1,0-12.4Z" id="ellejx5eznxl" class="animable" style="transform-origin: 417.002px 466.72px;"></path><path d="M391.22,460.52a37.67,37.67,0,0,1,0,12.4,37.4,37.4,0,0,1,0-12.4Z" id="elu5afk58fcj" class="animable" style="transform-origin: 391.218px 466.72px;"></path><path d="M409.38,460.52a37.4,37.4,0,0,1,0,12.4,37.67,37.67,0,0,1,0-12.4Z" id="el6dnewa43h4l" class="animable" style="transform-origin: 409.382px 466.72px;"></path><path d="M412,460.52a37.4,37.4,0,0,1,0,12.4,37.67,37.67,0,0,1,0-12.4Z" id="elcckvgaa8kn" class="animable" style="transform-origin: 412.002px 466.72px;"></path><path d="M439,460.52a37.4,37.4,0,0,1,0,12.4,37.67,37.67,0,0,1,0-12.4Z" id="eliooze2anknk" class="animable" style="transform-origin: 439.002px 466.72px;"></path><path d="M442.93,460.52a37.4,37.4,0,0,1,0,12.4,37.67,37.67,0,0,1,0-12.4Z" id="el46xihdy4slc" class="animable" style="transform-origin: 442.932px 466.72px;"></path><path d="M433.43,460.52a37.4,37.4,0,0,1,0,12.4,37.67,37.67,0,0,1,0-12.4Z" id="el3m58xqqe6c9" class="animable" style="transform-origin: 433.432px 466.72px;"></path><path d="M397.57,460.52a37.4,37.4,0,0,1,0,12.4,37.67,37.67,0,0,1,0-12.4Z" id="eljk4brn6idvn" class="animable" style="transform-origin: 397.572px 466.72px;"></path></g></g><g id="el194ka5eitgl"><polygon points="446.08 459.1 446.08 462.39 375.92 464.61 375.92 459.1 446.08 459.1" style="opacity: 0.1; transform-origin: 411px 461.855px;" class="animable"></polygon></g><rect x="368.53" y="443.59" width="70.17" height="15.51" style="fill: rgb(69, 78, 93); transform-origin: 403.615px 451.345px;" id="ellt88enwrkvg" class="animable"></rect><g id="el8r3hqmf9w64"><g style="opacity: 0.1; transform-origin: 403.485px 451.2px;" class="animable"><path d="M371.42,445a37.4,37.4,0,0,1,0,12.4,37.67,37.67,0,0,1,0-12.4Z" id="elzxw2ft77q5b" class="animable" style="transform-origin: 371.422px 451.2px;"></path><path d="M376.65,445a37.67,37.67,0,0,1,0,12.4,37.4,37.4,0,0,1,0-12.4Z" id="el5jc6hyjeye8" class="animable" style="transform-origin: 376.648px 451.2px;"></path><path d="M379.2,445a37.4,37.4,0,0,1,0,12.4,37.67,37.67,0,0,1,0-12.4Z" id="el77n1y83gm4b" class="animable" style="transform-origin: 379.202px 451.2px;"></path><path d="M393.22,445a37.67,37.67,0,0,1,0,12.4,37.4,37.4,0,0,1,0-12.4Z" id="elvuzxr9fzmup" class="animable" style="transform-origin: 393.218px 451.2px;"></path><path d="M397,445a37.67,37.67,0,0,1,0,12.4,37.4,37.4,0,0,1,0-12.4Z" id="elupbew98feho" class="animable" style="transform-origin: 396.998px 451.2px;"></path><path d="M412.68,445a37.4,37.4,0,0,1,0,12.4,37.67,37.67,0,0,1,0-12.4Z" id="elki9asxdp0z8" class="animable" style="transform-origin: 412.682px 451.2px;"></path><path d="M416.31,445a37.67,37.67,0,0,1,0,12.4,37.4,37.4,0,0,1,0-12.4Z" id="el07llgcrzrjf9" class="animable" style="transform-origin: 416.308px 451.2px;"></path><path d="M423,445a37.67,37.67,0,0,1,0,12.4,37.4,37.4,0,0,1,0-12.4Z" id="elkhsjtv62ke" class="animable" style="transform-origin: 422.998px 451.2px;"></path><path d="M409.66,445a37.67,37.67,0,0,1,0,12.4,37.4,37.4,0,0,1,0-12.4Z" id="elssh3awfsd3" class="animable" style="transform-origin: 409.658px 451.2px;"></path><path d="M383.83,445a37.4,37.4,0,0,1,0,12.4,37.67,37.67,0,0,1,0-12.4Z" id="el8mw08jmip7" class="animable" style="transform-origin: 383.832px 451.2px;"></path><path d="M402,445a37.4,37.4,0,0,1,0,12.4,37.4,37.4,0,0,1,0-12.4Z" id="el8gd64r1ngy" class="animable" style="transform-origin: 402px 451.2px;"></path><path d="M404.61,445a37.67,37.67,0,0,1,0,12.4,37.4,37.4,0,0,1,0-12.4Z" id="elrb79xemncu8" class="animable" style="transform-origin: 404.608px 451.2px;"></path><path d="M431.63,445a37.67,37.67,0,0,1,0,12.4,37.4,37.4,0,0,1,0-12.4Z" id="elm5v58ryyckk" class="animable" style="transform-origin: 431.628px 451.2px;"></path><path d="M435.55,445a37.67,37.67,0,0,1,0,12.4,37.4,37.4,0,0,1,0-12.4Z" id="el2clc7k9moqh" class="animable" style="transform-origin: 435.548px 451.2px;"></path><path d="M426,445a37.4,37.4,0,0,1,0,12.4,37.67,37.67,0,0,1,0-12.4Z" id="elz2o76ceu478" class="animable" style="transform-origin: 426.002px 451.2px;"></path><path d="M390.19,445a37.67,37.67,0,0,1,0,12.4,37.4,37.4,0,0,1,0-12.4Z" id="elu3bnpqixl3" class="animable" style="transform-origin: 390.188px 451.2px;"></path></g></g><g id="el920awwktu3j"><polygon points="438.7 443.6 438.7 446.89 368.53 449.1 368.53 443.6 438.7 443.6" style="opacity: 0.1; transform-origin: 403.615px 446.35px;" class="animable"></polygon></g><rect x="381.96" y="412.71" width="70.17" height="15.51" style="fill: rgb(69, 78, 93); transform-origin: 417.045px 420.465px;" id="el6747hfprf2j" class="animable"></rect><g id="el5c9yzy75ml2"><g style="opacity: 0.1; transform-origin: 416.927px 420.335px;" class="animable"><path d="M384.85,414.13a37.73,37.73,0,0,1,0,12.41,37.73,37.73,0,0,1,0-12.41Z" id="elbm02zmqla0u" class="animable" style="transform-origin: 384.85px 420.335px;"></path><path d="M390.08,414.13a37.73,37.73,0,0,1,0,12.41,37.46,37.46,0,0,1,0-12.41Z" id="el3hxav60ya1w" class="animable" style="transform-origin: 390.078px 420.335px;"></path><path d="M392.63,414.13a37.73,37.73,0,0,1,0,12.41,37.46,37.46,0,0,1,0-12.41Z" id="elg3jk2i1ii95" class="animable" style="transform-origin: 392.628px 420.335px;"></path><path d="M406.64,414.13a37.46,37.46,0,0,1,0,12.41,37.73,37.73,0,0,1,0-12.41Z" id="el2d4kseewx7m" class="animable" style="transform-origin: 406.642px 420.335px;"></path><path d="M410.43,414.13a37.19,37.19,0,0,1,0,12.41,37.73,37.73,0,0,1,0-12.41Z" id="elv9vdo2johcq" class="animable" style="transform-origin: 410.434px 420.335px;"></path><path d="M426.11,414.13a37.46,37.46,0,0,1,0,12.41,37.73,37.73,0,0,1,0-12.41Z" id="elz5jehvi2jzj" class="animable" style="transform-origin: 426.112px 420.335px;"></path><path d="M429.73,414.13a37.46,37.46,0,0,1,0,12.41,37.73,37.73,0,0,1,0-12.41Z" id="elz1rg6mhkfx" class="animable" style="transform-origin: 429.732px 420.335px;"></path><path d="M436.38,414.13a37.46,37.46,0,0,1,0,12.41,37.73,37.73,0,0,1,0-12.41Z" id="elsf0uuabay8p" class="animable" style="transform-origin: 436.382px 420.335px;"></path><path d="M423.08,414.13a37.46,37.46,0,0,1,0,12.41,37.73,37.73,0,0,1,0-12.41Z" id="eluhbyeod58i" class="animable" style="transform-origin: 423.082px 420.335px;"></path><path d="M397.26,414.13a37.46,37.46,0,0,1,0,12.41,37.73,37.73,0,0,1,0-12.41Z" id="elyascct9o1pp" class="animable" style="transform-origin: 397.262px 420.335px;"></path><path d="M415.42,414.13a37.46,37.46,0,0,1,0,12.41,37.73,37.73,0,0,1,0-12.41Z" id="elgod6xswgz88" class="animable" style="transform-origin: 415.422px 420.335px;"></path><path d="M418,414.13a37.73,37.73,0,0,1,0,12.41,37.46,37.46,0,0,1,0-12.41Z" id="elqb3kce4zbli" class="animable" style="transform-origin: 417.998px 420.335px;"></path><path d="M445.05,414.13a37.46,37.46,0,0,1,0,12.41,37.73,37.73,0,0,1,0-12.41Z" id="el0hl4gfknmbf" class="animable" style="transform-origin: 445.052px 420.335px;"></path><path d="M449,414.13a37.46,37.46,0,0,1,0,12.41,37.73,37.73,0,0,1,0-12.41Z" id="elsqlllev242" class="animable" style="transform-origin: 449.002px 420.335px;"></path><path d="M439.47,414.13a37.46,37.46,0,0,1,0,12.41,37.73,37.73,0,0,1,0-12.41Z" id="ela6tj3a5mo1" class="animable" style="transform-origin: 439.472px 420.335px;"></path><path d="M403.61,414.13a37.46,37.46,0,0,1,0,12.41,37.73,37.73,0,0,1,0-12.41Z" id="ely82c1s408ef" class="animable" style="transform-origin: 403.612px 420.335px;"></path></g></g><g id="eltoj1nqylmk"><polygon points="452.12 412.71 452.12 416.01 381.96 418.22 381.96 412.71 452.12 412.71" style="opacity: 0.1; transform-origin: 417.04px 415.465px;" class="animable"></polygon></g><rect x="380.19" y="397.21" width="70.17" height="15.51" style="fill: rgb(69, 78, 93); transform-origin: 415.275px 404.965px;" id="elkx95apme45p" class="animable"></rect><g id="eldpyik2psnmt"><g style="opacity: 0.1; transform-origin: 415.14px 404.8px;" class="animable"><path d="M447.2,411a37.67,37.67,0,0,1,0-12.4,37.4,37.4,0,0,1,0,12.4Z" id="ely47c9n9fho" class="animable" style="transform-origin: 447.202px 404.8px;"></path><path d="M442,411a37.4,37.4,0,0,1,0-12.4,37.67,37.67,0,0,1,0,12.4Z" id="el4cjzjvg95ae" class="animable" style="transform-origin: 441.998px 404.8px;"></path><path d="M439.42,411a37.67,37.67,0,0,1,0-12.4,37.4,37.4,0,0,1,0,12.4Z" id="el0ppfk18xks2b" class="animable" style="transform-origin: 439.422px 404.8px;"></path><path d="M425.41,411a37.4,37.4,0,0,1,0-12.4,37.67,37.67,0,0,1,0,12.4Z" id="el652gp1f9qdc" class="animable" style="transform-origin: 425.408px 404.8px;"></path><path d="M421.62,411a37.4,37.4,0,0,1,0-12.4,37.67,37.67,0,0,1,0,12.4Z" id="elt6g6ej4u5f8" class="animable" style="transform-origin: 421.618px 404.8px;"></path><path d="M405.94,411a37.67,37.67,0,0,1,0-12.4,37.4,37.4,0,0,1,0,12.4Z" id="elaart5bt3zzp" class="animable" style="transform-origin: 405.942px 404.8px;"></path><path d="M402.32,411a37.4,37.4,0,0,1,0-12.4,37.67,37.67,0,0,1,0,12.4Z" id="elk38vdid0i5" class="animable" style="transform-origin: 402.318px 404.8px;"></path><path d="M395.67,411a37.4,37.4,0,0,1,0-12.4,37.67,37.67,0,0,1,0,12.4Z" id="ell9p55mbqe2s" class="animable" style="transform-origin: 395.668px 404.8px;"></path><path d="M409,411a37.4,37.4,0,0,1,0-12.4,37.67,37.67,0,0,1,0,12.4Z" id="el4dir8uhbpx8" class="animable" style="transform-origin: 408.998px 404.8px;"></path><path d="M434.79,411a37.67,37.67,0,0,1,0-12.4,37.4,37.4,0,0,1,0,12.4Z" id="elv42377z4grc" class="animable" style="transform-origin: 434.792px 404.8px;"></path><path d="M416.63,411a37.4,37.4,0,0,1,0-12.4,37.67,37.67,0,0,1,0,12.4Z" id="elvhcl9vi6vl" class="animable" style="transform-origin: 416.628px 404.8px;"></path><path d="M414,411a37.4,37.4,0,0,1,0-12.4,37.67,37.67,0,0,1,0,12.4Z" id="eld2uc9uxoy6" class="animable" style="transform-origin: 413.998px 404.8px;"></path><path d="M387,411a37.4,37.4,0,0,1,0-12.4,37.67,37.67,0,0,1,0,12.4Z" id="elb0c41y42r2" class="animable" style="transform-origin: 386.998px 404.8px;"></path><path d="M383.08,411a37.4,37.4,0,0,1,0-12.4,37.67,37.67,0,0,1,0,12.4Z" id="el73kq171lkq" class="animable" style="transform-origin: 383.078px 404.8px;"></path><path d="M392.58,411a37.67,37.67,0,0,1,0-12.4,37.67,37.67,0,0,1,0,12.4Z" id="eltmhrqh9176" class="animable" style="transform-origin: 392.58px 404.8px;"></path><path d="M428.44,411a37.4,37.4,0,0,1,0-12.4,37.67,37.67,0,0,1,0,12.4Z" id="elmsz9mj6rnc" class="animable" style="transform-origin: 428.438px 404.8px;"></path></g></g><g id="ely7sye3s7hfa"><polygon points="450.35 397.21 450.35 400.5 380.19 402.71 380.19 397.21 450.35 397.21" style="opacity: 0.1; transform-origin: 415.27px 399.96px;" class="animable"></polygon></g><rect x="369.62" y="381.7" width="70.17" height="15.51" style="fill: rgb(69, 78, 93); transform-origin: 404.705px 389.455px;" id="elblutz0ip1yj" class="animable"></rect><g id="elz0yxpw4weud"><g style="opacity: 0.1; transform-origin: 404.57px 389.325px;" class="animable"><path d="M372.51,383.12a37.73,37.73,0,0,1,0,12.41,37.46,37.46,0,0,1,0-12.41Z" id="elui8mwi3t10a" class="animable" style="transform-origin: 372.508px 389.325px;"></path><path d="M377.73,383.12a37.46,37.46,0,0,1,0,12.41,37.73,37.73,0,0,1,0-12.41Z" id="ely59v6ncyk37" class="animable" style="transform-origin: 377.732px 389.325px;"></path><path d="M380.29,383.12a37.73,37.73,0,0,1,0,12.41,37.46,37.46,0,0,1,0-12.41Z" id="ellh8sde4film" class="animable" style="transform-origin: 380.288px 389.325px;"></path><path d="M394.3,383.12a37.46,37.46,0,0,1,0,12.41,37.73,37.73,0,0,1,0-12.41Z" id="elwyemumh1el9" class="animable" style="transform-origin: 394.302px 389.325px;"></path><path d="M398.09,383.12a37.46,37.46,0,0,1,0,12.41,37.73,37.73,0,0,1,0-12.41Z" id="ely9mvbe37zbg" class="animable" style="transform-origin: 398.092px 389.325px;"></path><path d="M413.77,383.12a37.73,37.73,0,0,1,0,12.41,37.46,37.46,0,0,1,0-12.41Z" id="elo9gvtjmf5ns" class="animable" style="transform-origin: 413.768px 389.325px;"></path><path d="M417.39,383.12a37.46,37.46,0,0,1,0,12.41,37.73,37.73,0,0,1,0-12.41Z" id="elf1tyjp5kam" class="animable" style="transform-origin: 417.392px 389.325px;"></path><path d="M424,383.12a37.46,37.46,0,0,1,0,12.41,37.73,37.73,0,0,1,0-12.41Z" id="elcnu3ypg2frn" class="animable" style="transform-origin: 424.002px 389.325px;"></path><path d="M410.74,383.12a37.46,37.46,0,0,1,0,12.41,37.73,37.73,0,0,1,0-12.41Z" id="el4owk8k1r0nk" class="animable" style="transform-origin: 410.742px 389.325px;"></path><path d="M384.92,383.12a37.73,37.73,0,0,1,0,12.41,37.46,37.46,0,0,1,0-12.41Z" id="el1cwbxa20q94" class="animable" style="transform-origin: 384.918px 389.325px;"></path><path d="M403.08,383.12a37.73,37.73,0,0,1,0,12.41,37.73,37.73,0,0,1,0-12.41Z" id="elgnpsxawvx5" class="animable" style="transform-origin: 403.08px 389.325px;"></path><path d="M405.69,383.12a37.46,37.46,0,0,1,0,12.41,37.73,37.73,0,0,1,0-12.41Z" id="elign05go7kp" class="animable" style="transform-origin: 405.692px 389.325px;"></path><path d="M432.71,383.12a37.46,37.46,0,0,1,0,12.41,37.73,37.73,0,0,1,0-12.41Z" id="el7pivmrpjq6" class="animable" style="transform-origin: 432.712px 389.325px;"></path><path d="M436.63,383.12a37.46,37.46,0,0,1,0,12.41,37.73,37.73,0,0,1,0-12.41Z" id="el1mcdxdbccyq" class="animable" style="transform-origin: 436.632px 389.325px;"></path><path d="M427.13,383.12a37.73,37.73,0,0,1,0,12.41,37.73,37.73,0,0,1,0-12.41Z" id="elb1ycm0zprfp" class="animable" style="transform-origin: 427.13px 389.325px;"></path><path d="M391.27,383.12a37.46,37.46,0,0,1,0,12.41,37.73,37.73,0,0,1,0-12.41Z" id="el658pc8nq4nw" class="animable" style="transform-origin: 391.272px 389.325px;"></path></g></g><g id="eljhxk9uu8q7"><polygon points="439.78 381.7 439.78 385 369.61 387.21 369.61 381.7 439.78 381.7" style="opacity: 0.1; transform-origin: 404.695px 384.455px;" class="animable"></polygon></g><rect x="375.92" y="428.22" width="70.17" height="15.51" style="fill: rgb(69, 78, 93); transform-origin: 411.005px 435.975px;" id="elpa07jpq9yw" class="animable"></rect><g id="el2e7d7984rkl"><g style="opacity: 0.1; transform-origin: 410.87px 435.8px;" class="animable"><path d="M442.93,442a37.67,37.67,0,0,1,0-12.4,37.4,37.4,0,0,1,0,12.4Z" id="el5b70qpm874" class="animable" style="transform-origin: 442.932px 435.8px;"></path><path d="M437.71,442a37.4,37.4,0,0,1,0-12.4,37.67,37.67,0,0,1,0,12.4Z" id="elzj60z5q29t" class="animable" style="transform-origin: 437.708px 435.8px;"></path><path d="M435.15,442a37.67,37.67,0,0,1,0-12.4,37.4,37.4,0,0,1,0,12.4Z" id="el8apdchtliq9" class="animable" style="transform-origin: 435.152px 435.8px;"></path><path d="M421.14,442a37.4,37.4,0,0,1,0-12.4,37.67,37.67,0,0,1,0,12.4Z" id="elemx16mfl8ls" class="animable" style="transform-origin: 421.138px 435.8px;"></path><path d="M417.35,442a37.4,37.4,0,0,1,0-12.4,37.67,37.67,0,0,1,0,12.4Z" id="el0wbyfvfdref" class="animable" style="transform-origin: 417.348px 435.8px;"></path><path d="M401.67,442a37.67,37.67,0,0,1,0-12.4,37.4,37.4,0,0,1,0,12.4Z" id="elugnbjp1a8hh" class="animable" style="transform-origin: 401.672px 435.8px;"></path><path d="M398.05,442a37.4,37.4,0,0,1,0-12.4,37.67,37.67,0,0,1,0,12.4Z" id="el6g20ywdb3hh" class="animable" style="transform-origin: 398.048px 435.8px;"></path><path d="M391.4,442a37.4,37.4,0,0,1,0-12.4,37.67,37.67,0,0,1,0,12.4Z" id="el48dk36tlic4" class="animable" style="transform-origin: 391.398px 435.8px;"></path><path d="M404.7,442a37.67,37.67,0,0,1,0-12.4,37.67,37.67,0,0,1,0,12.4Z" id="el9covft5zoyf" class="animable" style="transform-origin: 404.7px 435.8px;"></path><path d="M430.52,442a37.67,37.67,0,0,1,0-12.4,37.4,37.4,0,0,1,0,12.4Z" id="el0x4u5r9s828" class="animable" style="transform-origin: 430.522px 435.8px;"></path><path d="M412.36,442a37.67,37.67,0,0,1,0-12.4,37.67,37.67,0,0,1,0,12.4Z" id="eli2krew7f9c" class="animable" style="transform-origin: 412.36px 435.8px;"></path><path d="M409.75,442a37.4,37.4,0,0,1,0-12.4,37.67,37.67,0,0,1,0,12.4Z" id="el4kpz8ys9i5" class="animable" style="transform-origin: 409.748px 435.8px;"></path><path d="M382.73,442a37.4,37.4,0,0,1,0-12.4,37.67,37.67,0,0,1,0,12.4Z" id="eljmriv4osgtp" class="animable" style="transform-origin: 382.728px 435.8px;"></path><path d="M378.81,442a37.4,37.4,0,0,1,0-12.4,37.67,37.67,0,0,1,0,12.4Z" id="elzkp8x4tds6a" class="animable" style="transform-origin: 378.808px 435.8px;"></path><path d="M388.31,442a37.67,37.67,0,0,1,0-12.4,37.4,37.4,0,0,1,0,12.4Z" id="els6xzqjwe2a" class="animable" style="transform-origin: 388.312px 435.8px;"></path><path d="M424.17,442a37.4,37.4,0,0,1,0-12.4,37.67,37.67,0,0,1,0,12.4Z" id="eltnwis4h0w7" class="animable" style="transform-origin: 424.168px 435.8px;"></path></g></g><g id="eltwf0d9iedlg"><polygon points="446.08 428.22 446.08 431.51 375.92 433.73 375.92 428.22 446.08 428.22" style="opacity: 0.1; transform-origin: 411px 430.975px;" class="animable"></polygon></g><path d="M370.4,405.49c46.19,8.29,34,76.72-12.28,68.42S324.13,397.19,370.4,405.49Z" style="fill: rgb(69, 78, 93); transform-origin: 364.243px 439.7px;" id="eleg9hp62pr25" class="animable"></path><g id="elm37zdoq09i"><path d="M370.4,405.49c46.19,8.29,34,76.72-12.28,68.42S324.13,397.19,370.4,405.49Z" style="opacity: 0.1; transform-origin: 364.243px 439.7px;" class="animable"></path></g><path d="M366.06,404.72c44,7.9,31.82,76.32-12.28,68.41S322,396.8,366.06,404.72Z" style="fill: rgb(69, 78, 93); transform-origin: 359.905px 438.924px;" id="elq2mpixc4bad" class="animable"></path><g id="elcdsuhpdn1ep"><path d="M332,440.53c.24,12.19,7.34,24,22.83,26.78,36.59,6.57,46.72-50.22,10.19-56.78l-.72-.11c34.26,6.86,24.44,60.6-10.45,54.34C339.62,462.21,332.76,451.68,332,440.53Z" style="opacity: 0.1; transform-origin: 359.934px 439.129px;" class="animable"></path></g><g id="els8q1z8a7nbj"><g style="opacity: 0.1; transform-origin: 358.005px 437.914px;" class="animable"><path d="M363.73,417.63a1.17,1.17,0,0,1,.84,1.41l-.47,1.87a15.84,15.84,0,0,1,7.54,5.37,1.36,1.36,0,0,1,.39,1.25,1.24,1.24,0,0,1-1.51.87,1.19,1.19,0,0,1-.77-.54,13.71,13.71,0,0,0-6.28-4.81l-3.28,13.14c6.76,3.29,9.1,6.71,7.95,11.31-1.24,5-6.3,7.46-12.21,6.18l-.91,3.66a1.16,1.16,0,0,1-2.26-.56l.93-3.71a18.16,18.16,0,0,1-9.43-7.19,1.23,1.23,0,0,1-.27-1.11,1.27,1.27,0,0,1,1.47-.88,1.2,1.2,0,0,1,.76.54,15.61,15.61,0,0,0,8.09,6.55l3.34-13.38c-6.66-3.3-8.93-6.61-7.75-11.3s6.21-7.33,12-6l.45-1.79A1.18,1.18,0,0,1,363.73,417.63Zm-5.49,17.58,3.2-12.82c-4.58-1-8.26.93-9.1,4.31C351.54,429.9,352.55,432.24,358.24,435.21Zm1.35,3.38-3.23,13c4.72,1.07,8.45-.89,9.34-4.46C366.51,443.85,365.36,441.47,359.59,438.59Z" id="elzmb4qmp1end" class="animable" style="transform-origin: 358.005px 437.914px;"></path></g></g></g><defs>     <filter id="active" height="200%">         <feMorphology in="SourceAlpha" result="DILATED" operator="dilate" radius="2"></feMorphology>                <feFlood flood-color="#32DFEC" flood-opacity="1" result="PINK"></feFlood>        <feComposite in="PINK" in2="DILATED" operator="in" result="OUTLINE"></feComposite>        <feMerge>            <feMergeNode in="OUTLINE"></feMergeNode>            <feMergeNode in="SourceGraphic"></feMergeNode>        </feMerge>    </filter>    <filter id="hover" height="200%">        <feMorphology in="SourceAlpha" result="DILATED" operator="dilate" radius="2"></feMorphology>                <feFlood flood-color="#ff0000" flood-opacity="0.5" result="PINK"></feFlood>        <feComposite in="PINK" in2="DILATED" operator="in" result="OUTLINE"></feComposite>        <feMerge>            <feMergeNode in="OUTLINE"></feMergeNode>            <feMergeNode in="SourceGraphic"></feMergeNode>        </feMerge>            <feColorMatrix type="matrix" values="0   0   0   0   0                0   1   0   0   0                0   0   0   0   0                0   0   0   1   0 "></feColorMatrix>    </filter></defs></svg>