<svg class="animated" id="freepik_stories-floating-in-water" xmlns="http://www.w3.org/2000/svg" viewBox="0 0 500 500" version="1.1" xmlns:xlink="http://www.w3.org/1999/xlink" xmlns:svgjs="http://svgjs.com/svgjs"><style>svg#freepik_stories-floating-in-water:not(.animated) .animable {opacity: 0;}svg#freepik_stories-floating-in-water.animated #freepik--background-complete--inject-11 {animation: 1s 1 forwards cubic-bezier(.36,-0.01,.5,1.38) slideLeft;animation-delay: 0s;}svg#freepik_stories-floating-in-water.animated #freepik--shadow-2--inject-11 {animation: 1s 1 forwards cubic-bezier(.36,-0.01,.5,1.38) slideUp,1.5s Infinite  linear floating;animation-delay: 0s,1s;}svg#freepik_stories-floating-in-water.animated #freepik--shadow-1--inject-11 {animation: 2.7s 1 forwards cubic-bezier(.36,-0.01,.5,1.38) lightSpeedRight,1.5s Infinite  linear floating;animation-delay: 0s,2.7s;}svg#freepik_stories-floating-in-water.animated #freepik--Water--inject-11 {animation: 1s 1 forwards cubic-bezier(.36,-0.01,.5,1.38) fadeIn,1.5s Infinite  linear floating;animation-delay: 0.6s,1.6s;opacity: 0}svg#freepik_stories-floating-in-water.animated #freepik--Float--inject-11 {animation: 3.2s 1 forwards cubic-bezier(.36,-0.01,.5,1.38) lightSpeedRight,1.5s Infinite  linear floating;animation-delay: 0s,3.2s;}svg#freepik_stories-floating-in-water.animated #freepik--Character--inject-11 {animation: 1s 1 forwards cubic-bezier(.36,-0.01,.5,1.38) slideDown,1.5s Infinite  linear floating;animation-delay: 0s,1s;}            @keyframes slideLeft {                0% {                    opacity: 0;                    transform: translateX(-30px);                }                100% {                    opacity: 1;                    transform: translateX(0);                }            }                    @keyframes slideUp {                0% {                    opacity: 0;                    transform: translateY(30px);                }                100% {                    opacity: 1;                    transform: inherit;                }            }                    @keyframes floating {                0% {                    opacity: 1;                    transform: translateY(0px);                }                50% {                    transform: translateY(-10px);                }                100% {                    opacity: 1;                    transform: translateY(0px);                }            }                    @keyframes lightSpeedRight {              from {                transform: translate3d(50%, 0, 0) skewX(-20deg);                opacity: 0;              }              60% {                transform: skewX(10deg);                opacity: 1;              }              80% {                transform: skewX(-2deg);              }              to {                opacity: 1;                transform: translate3d(0, 0, 0);              }            }                    @keyframes fadeIn {                0% {                    opacity: 0;                }                100% {                    opacity: 1;                }            }                    @keyframes slideDown {                0% {                    opacity: 0;                    transform: translateY(-30px);                }                100% {                    opacity: 1;                    transform: translateY(0);                }            }        </style><g id="freepik--background-complete--inject-11" class="animable" style="transform-origin: 250px 230.865px;"><path d="M45.47,83.47c17.61-.74,34.73-5.38,52.12-7.91,4.34-.66,8.89-1.18,13.24-.54,17.44,2.31,34.57,6.58,52.09,8.25,13.14,1.33,26.25-.75,39.12-3.48,4.33-.8,8.64-2.08,13.11-1.84,4.42.41,8.72,1.31,13,2.09,8.63,1.61,17.29,3.37,26.1,3.58-8.81,0-17.52-1.64-26.18-3.09-4.33-.73-8.67-1.6-13-2-4.35-.19-8.66,1.13-12.92,2-12.85,2.89-26.15,5-39.36,3.68-17.55-1.57-34.68-6-52.1-8.35a46.3,46.3,0,0,0-13,.44c-17.38,2.39-34.62,6.78-52.23,7.16Z" style="fill: rgb(219, 219, 219); transform-origin: 149.855px 79.6704px;" id="elyx0igm9c26o" class="animable"></path><path d="M326.28,426.52c-16.83-.39-33.29-4.77-49.89-7.16a41.89,41.89,0,0,0-12.44-.44c-16.64,2.35-33,6.77-49.75,8.34-12.64,1.29-25.36-.79-37.62-3.68-4.06-.82-8.17-2.14-12.32-1.95-4.15.34-8.29,1.21-12.42,1.94-8.27,1.45-16.6,3.05-25,3.1,8.42-.21,16.69-2,24.92-3.58,4.14-.78,8.24-1.69,12.47-2.09,4.28-.24,8.39,1,12.53,1.83,8.21,1.78,16.47,3.39,24.84,3.79,16.79.69,33.33-3.66,49.79-6.51,6.22-1,12.49-2.62,18.84-2.29,18.83,2,37.12,7.91,56.07,8.7Z" style="fill: rgb(219, 219, 219); transform-origin: 226.57px 422.713px;" id="elsnj7p8cupm8" class="animable"></path><path d="M130.8,103.84c10.54-.29,20.87-2.22,31.13-4.48a98.78,98.78,0,0,1,10.4-1.91c3.59-.21,7,.61,10.54,1.16,6.06,1.1,14.67,2.81,20.69,3.66a91.28,91.28,0,0,0,10.45,1c-10.55.14-20.95-2.08-31.29-3.8-3.4-.5-6.9-1.28-10.32-1-6.9.75-13.73,2.75-20.63,3.77a111.64,111.64,0,0,1-21,1.62Z" style="fill: rgb(219, 219, 219); transform-origin: 172.39px 100.647px;" id="elem8njaap6x9" class="animable"></path><path d="M197.05,440.83c10.07-.3,19.93-2.23,29.72-4.49a89.76,89.76,0,0,1,9.93-1.9c3.44-.21,6.74.61,10.08,1.15,5.79,1.11,14,2.81,19.76,3.66a81.33,81.33,0,0,0,10,1c-10.09.15-20-2.07-29.9-3.79-3.24-.5-6.58-1.29-9.84-1.05-6.59.74-13.11,2.75-19.69,3.76a102.81,102.81,0,0,1-20,1.63Z" style="fill: rgb(219, 219, 219); transform-origin: 236.795px 437.618px;" id="el0edrel9oph2e" class="animable"></path><path d="M375.06,222.08c10.07-.29,19.94-2.22,29.72-4.48a89.77,89.77,0,0,1,9.93-1.91c3.44-.21,6.74.61,10.09,1.16,5.78,1.1,14,2.81,19.75,3.66a83.33,83.33,0,0,0,10,1c-10.08.14-20-2.08-29.9-3.8-3.24-.5-6.58-1.28-9.84-1.05-6.58.75-13.1,2.75-19.69,3.76a101.28,101.28,0,0,1-20,1.63Z" style="fill: rgb(219, 219, 219); transform-origin: 414.805px 218.868px;" id="elsk15grp4p5" class="animable"></path><g id="el3uhg9m49d1t"><rect x="27.21" y="44.35" width="445.58" height="5.83" style="fill: rgb(199, 199, 199); transform-origin: 250px 47.265px; transform: rotate(180deg);" class="animable"></rect></g><path d="M458.19,44.35a15.31,15.31,0,0,0,0,5.83,15.87,15.87,0,0,0,0-5.83Z" style="fill: rgb(235, 235, 235); transform-origin: 458.185px 47.265px;" id="elm1xgj3tvfd" class="animable"></path><path d="M440.08,44.35a13.65,13.65,0,0,0-.27,2.91,13.07,13.07,0,0,0,.27,2.92,15.31,15.31,0,0,0,0-5.83Z" style="fill: rgb(235, 235, 235); transform-origin: 440.084px 47.265px;" id="el7cv5nzqj5id" class="animable"></path><path d="M422,44.35a15.31,15.31,0,0,0,0,5.83,13.07,13.07,0,0,0,.27-2.92A13.65,13.65,0,0,0,422,44.35Z" style="fill: rgb(235, 235, 235); transform-origin: 421.996px 47.265px;" id="el69qq2cu6109" class="animable"></path><path d="M403.88,44.35a15.31,15.31,0,0,0,0,5.83,15.87,15.87,0,0,0,0-5.83Z" style="fill: rgb(235, 235, 235); transform-origin: 403.875px 47.265px;" id="elxdiqat5zv5n" class="animable"></path><path d="M385.77,44.35a14.33,14.33,0,0,0-.27,2.91,13.69,13.69,0,0,0,.27,2.92,15.31,15.31,0,0,0,0-5.83Z" style="fill: rgb(235, 235, 235); transform-origin: 385.774px 47.265px;" id="elz95ci2i3jem" class="animable"></path><path d="M367.67,44.35a15.31,15.31,0,0,0,0,5.83,13.07,13.07,0,0,0,.27-2.92A13,13,0,0,0,367.67,44.35Z" style="fill: rgb(235, 235, 235); transform-origin: 367.666px 47.265px;" id="el7vi9rqt58an" class="animable"></path><path d="M349.57,44.35a15.31,15.31,0,0,0,0,5.83,13.69,13.69,0,0,0,.27-2.92A14.33,14.33,0,0,0,349.57,44.35Z" style="fill: rgb(235, 235, 235); transform-origin: 349.566px 47.265px;" id="el7j4fwhdo8po" class="animable"></path><path d="M331.46,44.35a15.87,15.87,0,0,0,0,5.83,15.31,15.31,0,0,0,0-5.83Z" style="fill: rgb(235, 235, 235); transform-origin: 331.465px 47.265px;" id="elgt81yuko115" class="animable"></path><path d="M313.36,44.35a13,13,0,0,0-.27,2.91,13.07,13.07,0,0,0,.27,2.92,15.31,15.31,0,0,0,0-5.83Z" style="fill: rgb(235, 235, 235); transform-origin: 313.364px 47.265px;" id="ellk09tww6lqf" class="animable"></path><path d="M295.26,44.35a15.31,15.31,0,0,0,0,5.83,13.69,13.69,0,0,0,.27-2.92A14.33,14.33,0,0,0,295.26,44.35Z" style="fill: rgb(235, 235, 235); transform-origin: 295.256px 47.265px;" id="elzat3qthz3hl" class="animable"></path><path d="M277.15,44.35a15.87,15.87,0,0,0,0,5.83,15.31,15.31,0,0,0,0-5.83Z" style="fill: rgb(235, 235, 235); transform-origin: 277.155px 47.265px;" id="el3mzw4iwdj09" class="animable"></path><path d="M259.05,44.35a13.65,13.65,0,0,0-.27,2.91,13.07,13.07,0,0,0,.27,2.92,15.31,15.31,0,0,0,0-5.83Z" style="fill: rgb(235, 235, 235); transform-origin: 259.054px 47.265px;" id="elul9ut0a2i4" class="animable"></path><path d="M241,44.35a15.31,15.31,0,0,0,0,5.83,13.07,13.07,0,0,0,.27-2.92A13.65,13.65,0,0,0,241,44.35Z" style="fill: rgb(235, 235, 235); transform-origin: 240.996px 47.265px;" id="elrzhnuzs9mcn" class="animable"></path><path d="M222.85,44.35a15.31,15.31,0,0,0,0,5.83,15.87,15.87,0,0,0,0-5.83Z" style="fill: rgb(235, 235, 235); transform-origin: 222.845px 47.265px;" id="elx0g16ro1g9m" class="animable"></path><path d="M204.74,44.35a14.33,14.33,0,0,0-.27,2.91,13.69,13.69,0,0,0,.27,2.92,15.31,15.31,0,0,0,0-5.83Z" style="fill: rgb(235, 235, 235); transform-origin: 204.744px 47.265px;" id="elc1k6l4sso6g" class="animable"></path><path d="M186.64,44.35a15.31,15.31,0,0,0,0,5.83,13.07,13.07,0,0,0,.27-2.92A13,13,0,0,0,186.64,44.35Z" style="fill: rgb(235, 235, 235); transform-origin: 186.636px 47.265px;" id="eluxnadwhef4k" class="animable"></path><path d="M168.54,44.35a15.31,15.31,0,0,0,0,5.83,15.87,15.87,0,0,0,0-5.83Z" style="fill: rgb(235, 235, 235); transform-origin: 168.535px 47.265px;" id="el919czniw5q6" class="animable"></path><path d="M150.43,44.35a14.33,14.33,0,0,0-.27,2.91,13.69,13.69,0,0,0,.27,2.92,15.31,15.31,0,0,0,0-5.83Z" style="fill: rgb(235, 235, 235); transform-origin: 150.434px 47.265px;" id="el3v541mcste1" class="animable"></path><path d="M132.33,44.35a15.31,15.31,0,0,0,0,5.83,15.31,15.31,0,0,0,0-5.83Z" style="fill: rgb(235, 235, 235); transform-origin: 132.33px 47.265px;" id="elqfwz7vi4sta" class="animable"></path><path d="M114.23,44.35a15.31,15.31,0,0,0,0,5.83,13.69,13.69,0,0,0,.27-2.92A14.33,14.33,0,0,0,114.23,44.35Z" style="fill: rgb(235, 235, 235); transform-origin: 114.226px 47.265px;" id="elsew5uqcn6fo" class="animable"></path><path d="M96.12,44.35a15.87,15.87,0,0,0,0,5.83,15.31,15.31,0,0,0,0-5.83Z" style="fill: rgb(235, 235, 235); transform-origin: 96.125px 47.265px;" id="elk4ma3jcl42" class="animable"></path><path d="M78,44.35a13.65,13.65,0,0,0-.27,2.91A13.07,13.07,0,0,0,78,50.18a15.31,15.31,0,0,0,0-5.83Z" style="fill: rgb(235, 235, 235); transform-origin: 78.0037px 47.265px;" id="el7bipvu8u8kn" class="animable"></path><path d="M59.92,44.35a15.31,15.31,0,0,0,0,5.83,13.07,13.07,0,0,0,.27-2.92A13.65,13.65,0,0,0,59.92,44.35Z" style="fill: rgb(235, 235, 235); transform-origin: 59.9163px 47.265px;" id="elcwoy6qjowjh" class="animable"></path><path d="M41.81,44.35a15.87,15.87,0,0,0,0,5.83,15.31,15.31,0,0,0,0-5.83Z" style="fill: rgb(235, 235, 235); transform-origin: 41.815px 47.265px;" id="el99d5b58jadm" class="animable"></path><g id="elwnovc7pasu"><rect x="33.52" y="50.18" width="432.97" height="13.78" style="fill: rgb(219, 219, 219); transform-origin: 250.005px 57.07px; transform: rotate(180deg);" class="animable"></rect></g><path d="M466.48,64c-24.13,0-38.39-5.12-55-5.12s-30.26,3.67-41.9,3.67-41.37-4.29-69.31-4.29-45.52,4.29-64.54,4.29c-10.47,0-27.49-2.43-43.75-2.43s-22.35,2.43-37.6,2.43-31.81-4.29-54.29-4.29S47.29,64,33.52,64Z" style="fill: rgb(255, 255, 255); transform-origin: 250px 61.13px;" id="el7g1jx472qnr" class="animable"></path><g id="el21hi60iknqo"><rect x="349.31" y="20.9" width="4.53" height="43.08" style="fill: rgb(166, 166, 166); transform-origin: 351.575px 42.44px; transform: rotate(180deg);" class="animable"></rect></g><g id="elqnhyaqmwsxg"><rect x="329.97" y="26.99" width="4.53" height="34.15" style="fill: rgb(166, 166, 166); transform-origin: 332.235px 44.065px; transform: rotate(90deg);" class="animable"></rect></g><g id="el06ihxtaoigxu"><rect x="329.97" y="41.77" width="4.53" height="34.15" style="fill: rgb(166, 166, 166); transform-origin: 332.235px 58.845px; transform: rotate(90deg);" class="animable"></rect></g><g id="el9v9ghvcdhlt"><rect x="310.61" y="20.9" width="4.53" height="43.08" style="fill: rgb(166, 166, 166); transform-origin: 312.875px 42.44px; transform: rotate(180deg);" class="animable"></rect></g></g><g id="freepik--shadow-2--inject-11" class="animable" style="transform-origin: 249.8px 367.645px;"><g id="elqdjc90mk2q8"><g style="opacity: 0.1; transform-origin: 249.8px 367.645px;" class="animable"><path d="M469.56,387.34c-.05,0-.14.05-.27.1s-.48.13-.85.22l-.27.06h0l-.34.08-.38.07h-.08L467,388l-.12,0-.57.11-.46.09-1.26.25-.33.05-.46.08-.14,0-1,.17a.19.19,0,0,0-.1,0l-.68.11h-.08l-1.31.24h0l-.75.12-2.59.44-.3.05c-.4.07-.8.15-1.22.21l-.9.15-.65.1c-.21,0-.43.08-.65.1l-1,.18-1.13.17a1,1,0,0,1-.22.05h0l-.72.12-.58.1a4.17,4.17,0,0,0-.51.08l-.23,0-1,.16-.65.11-.47.07-1,.15-.08,0-1.21.19-.85.12-.36.07-.21,0-.51.09-.93.14a.9.9,0,0,0-.16,0l-.68.11c-.22,0-.45.06-.68.1l-.87.13h0l-.68.1-.26,0-.84.13c-.14,0-.28.05-.43.06s-.35.06-.53.09l-.42.06-.53.09-.79.12-.86.13-.43.06a1.09,1.09,0,0,0-.26,0l-.17,0c-.25,0-.49.08-.75.12l-.86.13-.86.13c-.3,0-.58.07-.86.12h0l-.66.1-1.06.15-.45.06-.22,0c-.42.07-.83.13-1.25.18s-.75.12-1.13.17l-.5.08-.83.11-1.63.24-1,.14-.8.11-.34,0-.53.08-.59.09-1.12.16-.41.05h-.05l-.2,0-1.49.2-.84.11-.3,0-.81.12-1.11.15-2.15.29a1.2,1.2,0,0,1-.2,0l-.55.07-1.35.18-1.15.15a5.15,5.15,0,0,0-.53.07l-.73.09-.69.09h0a2.06,2.06,0,0,0-.26,0,2.85,2.85,0,0,1-.29,0l-.13,0a1,1,0,0,1-.18,0l-1,.12c-.38,0-.76.09-1.13.15l-.5.05L401,398l-.37.05-1.74.2h-.09c-.24,0-.49.05-.72.09h-.19l-.21,0-2.5.27-1.07.1a2.13,2.13,0,0,0-.25,0h0l-2,.17-.49,0-.18,0h-.26l-.42,0-1,0h-.68a1.17,1.17,0,0,1-.27,0l-.14,0h-.06l-.17,0c-.09,0-.2-.35-.33-1-.05-.25-.11-.54-.17-.89s-.1-.46-.15-.73c-.09-.53-.21-1.15-.36-1.87,0-.2-.07-.41-.12-.64-.1-.44-.19-.91-.29-1.41-.33-1.55-.74-3.41-1.27-5.6a1.64,1.64,0,0,0-.41-.48,1.8,1.8,0,0,0-.2-.18l-.51-.41c-.86-.68-2.2-1.62-3.87-2.74l-1-.67-.06-.05-.57-.37-.19-.12,0,0-.2-.14-2-1.27s0,0-.06,0l-.34-.21-.32-.21-.95-.59-.41-.27-.56-.35-1-.63c-.18-.11-.38-.23-.57-.37a2,2,0,0,1-.27-.17.67.67,0,0,1-.18-.11l-1-.64h0a0,0,0,0,0,0,0l-.36-.18-.3-.17-.06,0h0l-.39-.21c-.13-.07-.25-.14-.39-.2l-.13-.08-.12-.06,0,0c-.35-.19-.72-.39-1.09-.57l-.32-.17-.72-.39-.11-.07-.8-.43-.22-.12c-.35-.17-.7-.36-1.05-.55l-1.05-.57-.57-.31-1.6-.86-1.13-.61-.64-.34-.11-.06-.22-.12-.53-.29-.88-.48-.88-.48c-.19-.11-.37-.21-.56-.3l-1-.56-.54-.3-.6-.32-.79-.43,1.33,1.58,1.17,1.42a3.22,3.22,0,0,0,.24.28l2.78,3.38.6.75c.48.58.94,1.16,1.41,1.74l2,2.53.13-.1,5.22,6.88.35.46.05.05.15.2c.37.47.74.94,1.09,1.4s.72.92,1.06,1.37.69.88,1,1.31l.5.64.95,1.24,3,3.9.75,1c.13.15.25.32.36.46l.14.16c.1.12.18.24.27.36l.27.35c.12.14.23.29.33.42l.6.76.3.39.43.53.11.14.44.54.21.26c.08.09.14.17.21.24h0l-.18.14,21.66,28.52s28.72,19.43,31.45,22.11a6.21,6.21,0,0,1,.87,1.1,10.84,10.84,0,0,1,.76,1.4A13.6,13.6,0,0,1,436,457c1,3.16,1.05,6.72-.77,7.11-1,.24-16.4,9.72-30.21,7.37-10.77-1.83-49.86-15.73-51.54-17.07h0s-.06-.1-.06-.24c-.09-.92.39-4.43.57-12.15l0,0a.36.36,0,0,0-.07-.09c-.1-.16-.32-.42-.64-.81l-.87-1-.05-.07c-.15-.18-.3-.36-.48-.55l-.48-.56-.57-.66h0c-.3-.34-.62-.7-.95-1.09l-1.05-1.2a1.49,1.49,0,0,0-.12-.14c-.68-.77-1.4-1.59-2.14-2.45l-.07-.07-3.13-3.56-.16-.14c-.65-.57-1.78-1.56-3.36-3-.18-.15-.35-.31-.53-.48-1.11-1-2.39-2.13-3.86-3.45l-2-1.83-.63-.57c-.44-.41-.9-.81-1.36-1.24-1.16-1.05-2.38-2.18-3.68-3.38-3.25-3-6.9-6.41-10.91-10.2L315,403.64l-3.09-3L308,396.9c-.45-.42-.89-.86-1.34-1.3l-1.83-1.76-5.15-5.07-1.45-1.43-1.16-1.15L295.82,385q-3.22-3.21-6.56-6.58l-3.09-3.13c-.52-.54-1-1.07-1.56-1.6a1.84,1.84,0,0,0-.76-.37l-.48-.13-.29,0-.64-.1-.77-.09-.78-.06-.44,0-.91-.05-1.63,0-1.07,0H274.3l-1.3,0c-20,.31-58.55,3.93-58.55,3.93s-17.56,3.86-27.6,1.75c-.86-.19-1.7-.39-2.53-.6l-.62-.16-.6-.17-.26-.08c-.91-.26-1.8-.53-2.65-.84-.57-.19-1.12-.39-1.66-.61l-.54-.2-.54-.22c-.38-.15-.76-.32-1.14-.49s-.6-.26-.9-.41l-1.24-.59c-.56-.28-1.11-.57-1.63-.86-.77-.43-1.5-.86-2.22-1.32-.54-.32-1.06-.67-1.56-1l-1.11-.78c-.69-.51-1.34-1-2-1.55l-.11-.09c-.28-.22-.54-.45-.81-.69,0,0,0,0-.07,0-.64-.58-1.25-1.15-1.83-1.73l-.06-.05c-.57-.58-1.11-1.15-1.62-1.72l0,0a3.31,3.31,0,0,1-.3-.34l-.29-.33q-.6-.7-1.14-1.38c-.27-.36-.54-.71-.8-1.07l-.65-.91c-.38-.55-.74-1.1-1.08-1.62h0l0,0a4.91,4.91,0,0,1-.31-.44.05.05,0,0,1,0,0c-.15-.22-.28-.43-.41-.66h0c-.15-.23-.29-.46-.42-.71s-.38-.69-.55-1-.28-.55-.41-.83l-.36-.8c-.42-1-.73-1.86-.91-2.43v0c-.06-.16-.1-.31-.14-.42v0a.14.14,0,0,0,0-.07.34.34,0,0,0,0-.14l0-.06c-3-.22-10.12-5-10.12-5l-1.17-.08-1.25-.11-1.45-.17-.33,1-16.75-4.12-3.14-.77.19-1q-2.76-1-5.46-2.11c-.48-.19-1-.41-1.44-.62s-.69-.31-1-.48c-.56-.26-1.12-.52-1.67-.8s-1.11-.55-1.65-.84l-.57-.3h0l-.3-.16c.27,1.51.5,2.84.67,3.79a1.49,1.49,0,0,1,0,.18c.06.34.11.65.16.87,0,.05,0,.09,0,.12.5,2.52,1.06,5.16,1.7,7.89.11.51.24,1,.37,1.54.25,1,.51,2,.78,3.08.18.7.37,1.4.55,2.11s.41,1.49.63,2.24c1.5,5.26,3.25,10.55,5,15.6.59,1.67,1.19,3.33,1.79,4.95l.09.26c.32.85.62,1.67.94,2.49,2,5.37,4,10.25,5.64,14.21l.44,1.06,2.63,6.33h0a3.76,3.76,0,0,1,.25.31c.33.42.68.86,1,1.34.76,1,1.57,2.09,2.36,3.22l.72,1a47.47,47.47,0,0,1,2.65,4.29c2.83,5.36,7.24,25.58,2.3,27s-7.81-12.9-9.29-16.27a8.66,8.66,0,0,0-1.43-2.46.37.37,0,0,0-.13-.12c-.36-.33-.69-.34-1-.07a.4.4,0,0,0-.11.14.78.78,0,0,0-.11.18,1.86,1.86,0,0,0-.1.2h0c0,.28,0,.57,0,.87,0,.76,0,1.53,0,2.29v.16c0,1.11,0,2.21.06,3.31.11,4,.34,7.9.77,11.43,0,.29.08.59.14.88a15,15,0,0,0,.45,1.78c.62,2.11,1.57,4.26,2.33,6.2.21.56.42,1.1.59,1.61.84,2.56,1,4.59-.94,5.44s-3.87-.19-5.29-1.43l-.24-.21a14.47,14.47,0,0,1-2.08-2.41h-.07a5.11,5.11,0,0,1-.9,0,5.41,5.41,0,0,1-.61-.08,12.94,12.94,0,0,1-6.12-3.15s-2,0-4.37-2.35l-.29-.3c-.19-.2-.39-.42-.58-.66a13.87,13.87,0,0,1-1.17-1.62,0,0,0,0,1,0,0l0,0s0,0,0,0a5.91,5.91,0,0,1-2.23-1.44l-.25-.25a7.32,7.32,0,0,1-.74-.94l-.5-.79c-.16-.26-.33-.53-.48-.8-.47-.81-.91-1.63-1.31-2.46l-.32-.69a39.13,39.13,0,0,1-2-5.2c-.09-.31-.2-.62-.28-.95a3.64,3.64,0,0,1-.11-.39c-.1-.34-.19-.68-.27-1s-.25-1-.36-1.47-.26-1.22-.38-1.85-.19-1-.27-1.5c0-.23-.09-.46-.12-.7s-.11-.67-.15-1q-.14-.9-.24-1.8a1.27,1.27,0,0,1,0-.22c-.1-.75-.18-1.5-.25-2.24s-.11-1.24-.16-1.86-.08-1.06-.12-1.59l-.12-2.11v0a.15.15,0,0,1,0-.07,13,13,0,0,0-.28-1.42v0c0-.2-.1-.4-.15-.63,0,0,0,0,0,0-.08-.35-.18-.72-.3-1.12-.16-.59-.35-1.25-.54-2-.08-.3-.18-.61-.26-.92-.63-2.26-1.41-5-2.24-8.14-.1-.39-.21-.79-.31-1.19q-.51-1.95-1-4.05c-.25-1-.5-2-.75-3.11a2.09,2.09,0,0,0-.08-.34c-.24-1.08-.49-2.19-.73-3.32-.3-1.33-.57-2.68-.84-4.06-.23-1.21-.46-2.44-.68-3.68l0-.2c-.23-1.26-.43-2.54-.63-3.83-.41-2.7-.76-5.45-1-8.21a123.14,123.14,0,0,1-.53-12.34l0-1.34c0-.28,0-.56,0-.83s0-.8,0-1.2l0-.81c.05-1.13.1-2.24.16-3.34,0-.36.06-.72.08-1.08,0-.52.07-1,.11-1.55.08-1,.17-2.05.27-3.05.14-1.46.31-2.89.48-4.27.13-1,.26-1.95.4-2.89s.26-1.8.41-2.66c.22-1.37.45-2.68.68-3.93.14-.72.28-1.42.42-2.09.06-.32.12-.62.19-.93.1-.49.2-1,.3-1.42s.25-1.15.39-1.69c.05-.27.12-.54.18-.81l-.44-.09-.65-.14c-.31-.06-.63-.12-1-.2s-.66-.14-1-.22l-.14,0-.24-.06-.61-.16c-.2,0-.4-.1-.61-.16-.41-.09-.79-.21-1.17-.31l-.19-.05c-.45-.13-.9-.25-1.34-.39l-.27-.07v0a2.82,2.82,0,0,0,.18.29,2.23,2.23,0,0,0,.2.3l.23.27.23.27a1.9,1.9,0,0,1,.19.21l1.56,1.67a14.54,14.54,0,0,1,2.69,3.76,4.31,4.31,0,0,1,.33.91,3.73,3.73,0,0,1,.09.46,4.92,4.92,0,0,1,.06,1.09.13.13,0,0,1,0,.06,2.83,2.83,0,0,1,0,.5,4.46,4.46,0,0,1-.2.82c-.07.19-.15.39-.24.58a2.85,2.85,0,0,1-.16.3c-.08.13-.15.25-.24.37l0,0a3,3,0,0,1-.26.36l-.07.08a3.09,3.09,0,0,1-.35.38l-.34.34c-.38.35-.77.69-1.1,1-.12.13-.25.26-.36.39a3.35,3.35,0,0,0-.29.4,3.17,3.17,0,0,0-.18,1.95v0c0,.19,0,.37.07.55,0,.36.1.71.14,1.07s0,.43.07.65a5.91,5.91,0,0,1-1.19,4.55,3.6,3.6,0,0,1-1.28,1,2.49,2.49,0,0,1-.45.18,1.54,1.54,0,0,1-.37.09,6.23,6.23,0,0,1-2.36-.06c-.32-.06-.64-.15-1-.23l-.55-.15-.56-.16h-.18l-.21,0a2.78,2.78,0,0,0-.49.08,3.68,3.68,0,0,0-1.35.84c-.24.21-.47.43-.71.67-1.22,1.19-2.66,2.7-4.66,3l-.24,0a4.67,4.67,0,0,1-2.28-.4A10,10,0,0,1,65.14,344c-.5-.38-1-.74-1.39-1a4.16,4.16,0,0,0-.63-.32l-.28-.08a2.2,2.2,0,0,0-1.38.47h0a7.49,7.49,0,0,0-.72.48l-.41.27A13.45,13.45,0,0,1,58.43,345a7.1,7.1,0,0,1-5.16.49c-.16,0-.32-.1-.48-.15l-.53-.19-.33-.15a2.75,2.75,0,0,1-.3-.14l-.33-.18-.43-.27-.23-.14a7,7,0,0,1-1.12-.94A9.14,9.14,0,0,1,48.39,342h0c-.2-.27-.37-.53-.53-.77l-.31-.47-.64-1c-.1-.16-.21-.31-.32-.47l-.14-.21c-.05-.07-.11-.13-.16-.19a2.35,2.35,0,0,0-.33-.37,2.87,2.87,0,0,0-.31-.29h0l-.11,0-.18-.06a5.57,5.57,0,0,0-.9-.2h0l-.25,0h-.3c-.21,0-.42,0-.62,0-.49,0-1,0-1.46,0s-1,0-1.47,0a12.62,12.62,0,0,1-1.49-.08,9.61,9.61,0,0,1-1.5-.26A6.28,6.28,0,0,1,34.57,336a6.41,6.41,0,0,1-1.46-2.74,13.55,13.55,0,0,1-.48-2.95c-.06-.7-.08-1.4-.1-2.1l0-.83c0-.22,0-.43,0-.64s0-.58,0-.88a2.2,2.2,0,0,0,0-.36,2.5,2.5,0,0,0,0-.29c0-.09,0-.19-.07-.28a2.52,2.52,0,0,0-.13-.33.14.14,0,0,0,0-.06l-.34-.28c-.21-.15-.43-.31-.65-.5s-.16-.15-.24-.22a1.26,1.26,0,0,1-.2-.2,3.76,3.76,0,0,1-.38-.41l-.27-.36h0a3.34,3.34,0,0,1-.25-.4c-.08-.14-.14-.27-.21-.42l0-.05c-.06-.14-.13-.3-.18-.45a6.55,6.55,0,0,1-.19-.67c-.8-3.31,2.42-4.72,3.33-7.3a8.94,8.94,0,0,0-.54-4,5.91,5.91,0,0,1-.24-1.89,1.41,1.41,0,0,1,0-.21,1.1,1.1,0,0,1,0-.27,4.55,4.55,0,0,1,.78-1.75A5.45,5.45,0,0,1,33.76,304a6.07,6.07,0,0,1,.9-.59,9.78,9.78,0,0,1,1.45-.63,16.39,16.39,0,0,1,1.62-.46c.47-.12.93-.23,1.4-.32l1-.23.48-.11.48-.14a1.14,1.14,0,0,0,.22-.07l.09,0,.09-.05.13-.07a.87.87,0,0,0,.23-.16,9,9,0,0,0,1.37-1.38,19.38,19.38,0,0,0,1.23-1.6c.4-.54.79-1.11,1.18-1.65.2-.28.39-.55.58-.84l.58-.85L48,293l.4-.59h0A24,24,0,0,1,50.36,290l.06-.08h0c2.48-3,5.51-5.5,9.08-6.22a16.66,16.66,0,0,1,9.42,1.21h0a14.71,14.71,0,0,1,1.48.11,40.55,40.55,0,0,1,5.89.42c17.76,2.45,18.29,13.36,17.76,17.19a23.46,23.46,0,0,1-.54,2.7l2.41.89.08,0a5.91,5.91,0,0,1,.49-.82l.38-.57c.15-.2.3-.42.46-.62a18.69,18.69,0,0,1,3-3c6.51-5.15,22.1-16.12,41-22.73h0l.36-.13,1-.34,1.42-.47c1.48-.48,3-.93,4.46-1.34.91-.27,1.81-.51,2.71-.76,3.16-.83,6.3-1.57,9.36-2.21l2.48-.51c5-1,9.69-1.75,13.75-2.35l2.54-.36.33,0c.8-.12,1.56-.22,2.29-.31l.46-.07,1-.13,1.83-.24.66-.09c1.37-.19,2.48-.34,3.28-.49l.33-.05a6.68,6.68,0,0,0,.78-.18l.15,0h0l0,0c1.12-.41,2.24-.81,3.39-1.2l.94-.31c1.66-.55,3.33-1.07,5-1.51.36-.11.71-.2,1.08-.28l.93-.23c.25-.07.5-.12.75-.17.45-.11.92-.21,1.38-.3,1.39-.28,2.78-.52,4.18-.68l1.24-.14h.16c.43-.05.86-.08,1.28-.1a36.13,36.13,0,0,1,8.87.45h0a7.79,7.79,0,0,1,.8.2l.37.11c.23.09.45.18.66.28a5.89,5.89,0,0,1,1.87,1.35h0s0,0,0,0h0l.38.07a6.27,6.27,0,0,1,.75.17,3.63,3.63,0,0,1,.65.16h0l.6.18c.18.06.35.11.52.18l.33.13.21.09.21.1a4.49,4.49,0,0,1,.54.26,1.64,1.64,0,0,1,.29.16c.1.06.2.11.28.17l.5.33.06,0,.16.13a3.88,3.88,0,0,1,.46.39.55.55,0,0,1,.11.1,4.32,4.32,0,0,1,1,1.21.44.44,0,0,1,0,.09l.42.22c.14.07.27.15.41.21l.49.29a.07.07,0,0,1,0,0l.21.12.52.34.09.06.19.15a.18.18,0,0,1,.07.05l.13.1h0l.27.2.19.16,0,0,.35.29c.25.22.47.43.67.64a1.75,1.75,0,0,1,.19.2,3.48,3.48,0,0,1,.26.3.57.57,0,0,1,.11.11c.09.11.16.21.23.31l0,0,.16.22a6,6,0,0,1,.7,1.17,2.25,2.25,0,0,1,.18.45h0a.08.08,0,0,1,0,.07h0l.13,0,.51.11.36.1a13.1,13.1,0,0,1,1.72.59,5.26,5.26,0,0,1,.59.26h0l.57.3.09.05a9.3,9.3,0,0,1,.9.59,2.83,2.83,0,0,1,.37.32.87.87,0,0,1,.17.16,2.47,2.47,0,0,1,.28.28,3.84,3.84,0,0,1,1,2.05,2.59,2.59,0,0,1,.05.56.39.39,0,0,1,0,.15.57.57,0,0,1,0,.23,1.51,1.51,0,0,1-.07.37,1.42,1.42,0,0,1-.07.22.2.2,0,0,0,0,.08,1.34,1.34,0,0,1-.13.27.69.69,0,0,1-.17.22l-.15.18-.21.2c28.1-6.1,55.19-10.35,68.72-5.05a94.61,94.61,0,0,1,13.66,7.28c.66.4,1.33.82,2,1.25l1.71,1.1,1,.62c1.29.83,2.62,1.7,4,2.61l2,1.34,0,0,1,.71,1,.72c.35.24.7.47,1,.72h0l2.13,1.48.47.33c.87.61,1.76,1.22,2.65,1.86,4.06,2.86,8.26,5.9,12.5,9l2.28,1.68c2.67,2,5.34,4,8,6,.68.53,1.38,1,2.06,1.57,4.62,3.49,9.17,7,13.55,10.4l2.13,1.66,2.11,1.65,3.85,3c.76.6,1.5,1.18,2.23,1.77.33.25.65.5,1,.77.65.5,1.29,1,1.92,1.51s1.26,1,1.87,1.48q1.85,1.44,3.57,2.84l.22.17q2.49,2,4.68,3.74l1.24,1,.88.71q2.24,1.81,4.09,3.3l.53.43.52.41.26.23c.1.07.18.15.27.22l0,0,.66.51,14.72,11.64s32.75,11.4,36.09,13.29a6.81,6.81,0,0,1,1.37,1.08,12.93,12.93,0,0,1,2.1,2.72c.12.2.24.4.35.62q.33.62.6,1.23c.08.21.17.42.24.62a9.07,9.07,0,0,1,.34,1.19C470.57,385.74,470.43,386.9,469.56,387.34Z" id="elfisv7jjc8zi" class="animable" style="transform-origin: 249.8px 367.645px;"></path></g></g></g><g id="freepik--shadow-1--inject-11" class="animable" style="transform-origin: 313.065px 177.071px;"><g id="elikk4prp0lxe"><path d="M437.37,175.9a42.35,42.35,0,0,0-.9-5.35c-9.28-38.68-76.37-50.7-131.29-50.93-51.42-.2-109.16,18.08-116,50.93a32.16,32.16,0,0,0-.67,6.4c0,.26,0,.53,0,.79,0,1.16.07,2.32.16,3.44h0a37.77,37.77,0,0,0,1.08,6.16c7.68,30.28,51.13,46.9,123,47.18,79.66.31,124.68-23.55,124.87-54.33A43,43,0,0,0,437.37,175.9Zm-125.22,1.71c-28.82-.11-49.35-3.17-51.9-7.06a1.49,1.49,0,0,1-.27-.83,1.81,1.81,0,0,1,0-.23c1.18-4.23,33.8-9.2,50.84-9.12s54.09,2,55.31,8c0,.12,0,.21,0,.32,0,.61-.48,1.24-1.38,1.85C359.41,174.24,338.6,177.71,312.15,177.61Z" style="opacity: 0.1; transform-origin: 313.065px 177.071px;" class="animable"></path></g></g><g id="freepik--Water--inject-11" class="animable" style="transform-origin: 255.282px 228.872px;"><path d="M133.34,319.39c-20.75-3.64-94.34-18.45-90.13-46.61,7.07-28.53,86.36-39.55,112.33-42.65q16.47-1.84,33-2.85-16.53,1.2-33,3.22C130.16,233.57,51,245.08,43.86,272.9c-4.12,27.45,69,42.54,89.48,46.49Z" style="fill: rgb(219, 219, 219); transform-origin: 115.788px 273.335px;" id="elb2yw51hqutc" class="animable"></path><path d="M246.68,329.72a578.8,578.8,0,0,1-86.14-6.07c28.62,3.25,57.36,5.11,86.14,6.07Z" style="fill: rgb(219, 219, 219); transform-origin: 203.61px 326.688px;" id="elqeqo42q5dfr" class="animable"></path><path d="M404.82,313.92c-19.09,5.69-38.84,9-58.64,10.95,19.67-2.94,39.3-6.23,58.64-10.95Z" style="fill: rgb(219, 219, 219); transform-origin: 375.5px 319.395px;" id="elslgn7xhdwb" class="animable"></path><path d="M253.32,225.67a686.1,686.1,0,0,1,109.46,9.26c18,3.23,36,7.29,53.31,13.35,12.74,4.73,26.18,9.94,35.63,20.1,3,3.39,5.3,7.8,5,12.45.27-4.64-2-9-5.1-12.33-14.35-14.84-42.29-22.35-62-27.34-44.61-10.44-90.5-14.34-136.23-15.49Z" style="fill: rgb(219, 219, 219); transform-origin: 355.033px 253.25px;" id="el9etd3xf64dd" class="animable"></path><path d="M329.38,304.26c12.26-1.66,71.56-9.36,67.59-26.57-6.14-15.87-60.27-23.5-76.67-25.66q-11.37-1.5-22.82-2.53,11.44.85,22.87,2.17c18.48,2.4,64.59,8.62,75.94,23.17,12.46,19.79-55.09,28.25-66.91,29.42Z" style="fill: rgb(219, 219, 219); transform-origin: 347.648px 276.88px;" id="el3ze1q5qzg9j" class="animable"></path><path d="M247.34,308.05c20.51-.2,41.78-.73,62.2-1.84a440.87,440.87,0,0,1-62.2,1.84Z" style="fill: rgb(219, 219, 219); transform-origin: 278.44px 307.316px;" id="elhyh3n3vrp2a" class="animable"></path><path d="M135.39,295.73c13.41,2.92,27.52,5.28,41.09,7.53a215.57,215.57,0,0,1-41.09-7.53Z" style="fill: rgb(219, 219, 219); transform-origin: 155.935px 299.495px;" id="el3ovch7k8dke" class="animable"></path><path d="M251.22,247.28c-35.7-.12-115.59,2.07-144.69,20.45-2.6,1.85-5.25,4.34-5.55,7.7.24-3.37,2.87-5.95,5.45-7.85,29.23-19.11,108.81-21.24,144.79-20.3Z" style="fill: rgb(219, 219, 219); transform-origin: 176.1px 261.264px;" id="elz99hsj44z5b" class="animable"></path><path d="M110.72,216.22c66.67-15.48,136.4-19.4,204.28-10.32a412.49,412.49,0,0,1,66.86,14.72l-8.24-2.33c-2.06-.62-6.18-1.71-8.27-2.2-4.16-1.09-12.48-3-16.68-3.86-77.36-16.08-161-12.92-237.95,4Z" style="fill: rgb(219, 219, 219); transform-origin: 246.29px 210.85px;" id="elyq3wooxaznn" class="animable"></path><path d="M53.14,313.41c4.72,4.58,11.13,6.93,17.07,9.52,75.47,28.06,172.41,35.72,252.13,25.86q19.52-2.42,38.8-6.46-19.23,4.21-38.76,6.82c-79.86,10.23-176.73,2.72-252.24-26-5.92-2.65-12.32-5.06-17-9.69Z" style="fill: rgb(219, 219, 219); transform-origin: 207.14px 333.452px;" id="ele3p8tsi3m7e" class="animable"></path><path d="M410.41,257.56c21.18,6.42,40.07,26.23,13.25,41a84,84,0,0,1-18.6,6.93c9.21-3.11,19-6.55,26.06-13.44,14.63-14.94-7.45-29.79-20.71-34.52Z" style="fill: rgb(219, 219, 219); transform-origin: 420.972px 281.51px;" id="elkh247groall" class="animable"></path><path d="M374.37,330.72c22.23-3.85,64.43-12.43,76.23-33.14a29.3,29.3,0,0,1-6.41,8.55c-16.73,15.27-47.67,22-69.82,24.59Z" style="fill: rgb(219, 219, 219); transform-origin: 412.485px 314.15px;" id="elvfef2359538" class="animable"></path><path d="M398.39,114.32c18.69,4,70.22,17.39,69.12,41.46-3.23,26-63.85,36.06-85.5,38.9-8.67,1.1-17.38,1.89-26.09,2.45,8.7-.68,17.39-1.6,26-2.81,21.19-2.86,81.52-13.31,84.9-38.6,1.08-23.55-50.06-37-68.47-41.4Z" style="fill: rgb(219, 219, 219); transform-origin: 411.724px 155.725px;" id="elbb1odzydda" class="animable"></path><path d="M311.63,104.25a368.22,368.22,0,0,1,65.94,6c-21.87-3.06-43.89-4.94-65.94-6Z" style="fill: rgb(219, 219, 219); transform-origin: 344.6px 107.25px;" id="eljtb121s2yd" class="animable"></path><path d="M190.51,117.48a199.35,199.35,0,0,1,44.93-9.5c-14.92,2.55-30.36,5.48-44.93,9.5Z" style="fill: rgb(219, 219, 219); transform-origin: 212.975px 112.73px;" id="eljn2lgimz1i" class="animable"></path><path d="M306.32,198.16c-14.36-.25-28.71-1.1-43-2.65-28.47-3.22-57.17-8.25-83.61-19.68-9.66-4.47-19.81-9.65-26-18.65a16.94,16.94,0,0,1-3-10.16,16.93,16.93,0,0,0,3.16,10.06c6.32,8.8,16.4,13.9,26,18.29,39.91,16.35,83.64,20.83,126.4,22.79Z" style="fill: rgb(219, 219, 219); transform-origin: 228.511px 172.59px;" id="eltywb2lx8u8l" class="animable"></path><path d="M248.26,126.7c-10.4,1.47-58.57,9-51.06,25.26,7.73,13,42.87,19.35,57.5,21.88q8.9,1.49,17.86,2.51-9-.85-17.92-2.15c-14.81-2.33-50.28-8.5-58.07-21.91-7.83-17.43,40.59-24.31,51.69-25.59Z" style="fill: rgb(219, 219, 219); transform-origin: 234.139px 151.525px;" id="elotedrww1b7d" class="animable"></path><path d="M311.08,123.81c-15.46.08-32.2.47-47.63,1.26a276.58,276.58,0,0,1,47.63-1.26Z" style="fill: rgb(219, 219, 219); transform-origin: 287.265px 124.193px;" id="el4ibmioufukw" class="animable"></path><path d="M396.77,135.67c-10.25-2.66-21.06-4.9-31.45-7.07a137.64,137.64,0,0,1,31.45,7.07Z" style="fill: rgb(219, 219, 219); transform-origin: 381.045px 132.135px;" id="el00dzwlh8fdro" class="animable"></path><path d="M308,178.66c27.51.31,90.12-1.31,111.38-18a10,10,0,0,0,3.72-6.41,10.05,10.05,0,0,1-3.59,6.54c-21.12,17.51-83.88,19.1-111.51,17.89Z" style="fill: rgb(219, 219, 219); transform-origin: 365.55px 166.621px;" id="el66v3b1j85rj" class="animable"></path><path d="M186.11,168.34c-9.7-3.79-21-11.89-20.27-23.54,1.83-11.55,14.6-16.66,24.47-19.73-7.45,2.89-15.33,6.26-20.45,12.64-9.65,12.6,5.13,25.76,16.25,30.63Z" style="fill: rgb(219, 219, 219); transform-origin: 178.058px 146.705px;" id="elk23wgeapqvr" class="animable"></path></g><g id="freepik--Float--inject-11" class="animable" style="transform-origin: 313.065px 128.601px;"><g id="elemcgdf9ei0n"><g style="opacity: 0.9; transform-origin: 313.065px 128.596px;" class="animable"><path d="M437.37,127.37a45.72,45.72,0,0,0-.9-5.58c-9.28-40.4-76.37-53-131.29-53.19-51.42-.21-109.16,18.88-116,53.19a35,35,0,0,0-.67,6.68c0,.27,0,.55,0,.82,0,1.22.07,2.42.16,3.6h0a41.1,41.1,0,0,0,1.08,6.43c7.68,31.63,51.13,49,123,49.27,79.66.32,124.68-24.59,124.87-56.74C437.57,130.32,437.51,128.83,437.37,127.37Zm-125.22,1.79c-28.82-.11-49.35-3.32-51.9-7.37a1.64,1.64,0,0,1-.27-.88,2.08,2.08,0,0,1,0-.23c1.18-4.42,33.8-9.61,50.84-9.53s54.09,2.09,55.31,8.37c0,.12,0,.22,0,.34,0,.63-.48,1.29-1.38,1.93C359.41,125.64,338.6,129.26,312.15,129.16Z" style="fill: rgb(255, 250, 223); transform-origin: 313.065px 128.596px;" id="elzzkqxrxx98g" class="animable"></path><g id="el5y2zm7chiev"><g style="opacity: 0.5; transform-origin: 314.465px 107.461px;" class="animable"><path d="M291.5,104.35c11-2.94,23.72-2.88,35.05-1.63a112.37,112.37,0,0,1,16.57,3c5.4,1.43,11.32,3.11,15.88,6,.58.38.27,1.23-.52,1-5.49-1.24-10.69-3.32-16.18-4.62a123.8,123.8,0,0,0-17-2.84c-11.4-1.07-22.18,0-33.48,1.21A1.11,1.11,0,0,1,291.5,104.35Z" style="fill: rgb(252, 248, 235); transform-origin: 325.067px 107.333px;" id="eln7tevqymscn" class="animable"></path><path d="M273.87,109.85c2.88-2.08,8.48-4.11,12.29-3.45.34.06.5.51.21.69a19.92,19.92,0,0,1-5.15,2c-2.15.67-4.27,1.59-6.5,2C273.92,111.27,273.17,110.36,273.87,109.85Z" style="fill: rgb(252, 248, 235); transform-origin: 280.057px 108.693px;" id="elaq936rm2bow" class="animable"></path><path d="M270.53,111.41a1.91,1.91,0,0,1,1.11,0,.33.33,0,0,1,.17.58c-.38.31-.73.89-1.29,1s-.88-.16-.89-.58S270.06,111.57,270.53,111.41Z" style="fill: rgb(252, 248, 235); transform-origin: 270.779px 112.171px;" id="el6k17ssimga8" class="animable"></path></g></g><g id="el3q8ip6fqo6a"><path d="M260,120.68c1.18-4.42,33.8-9.6,50.85-9.53s54.07,2.09,55.3,8.37c-.71-6.33-22.4-15-53-15.16S260.71,115.69,260,120.68Z" style="opacity: 0.1; transform-origin: 313.075px 112.519px;" class="animable"></path></g><g id="el4vvh4ylip54"><g style="opacity: 0.1; transform-origin: 313.174px 107.012px;" class="animable"><path d="M354.88,111a12.89,12.89,0,0,0,.26-2.63c0-.4.71-.48.82-.09.49,1.63.6,3.8-.8,5.14-.25.23-.71,0-.7-.25A10.81,10.81,0,0,1,354.88,111Z" id="elxg9oin542yp" class="animable" style="transform-origin: 355.377px 110.77px;"></path><path d="M321.14,99.47c0-.21.37-.2.38,0,.18,2.91.51,5.92-.1,8.8-.1.47-.95.34-.95-.11C320.44,105.26,321,102.37,321.14,99.47Z" id="el4civjs92fl4" class="animable" style="transform-origin: 321.121px 103.941px;"></path><path d="M315.82,101.48c0-.18.34-.19.34,0a33.11,33.11,0,0,1-.06,5.27c-.06.49-.92.51-.92,0A33.56,33.56,0,0,1,315.82,101.48Z" id="elbunmi58z0x8" class="animable" style="transform-origin: 315.709px 104.233px;"></path><path d="M337.89,107a14.23,14.23,0,0,0,.33-2.6c0-.31.5-.29.54,0,.2,1.5.68,3.55-.28,4.92a.52.52,0,0,1-.91-.21A7,7,0,0,1,337.89,107Z" id="elm7bicd7f5h" class="animable" style="transform-origin: 338.314px 106.844px;"></path><path d="M345.54,103.73c0-.21.41-.27.45,0,.41,2.44.65,5.33-.61,7.62-.17.3-.73.14-.72-.17C344.77,108.65,345.54,106.24,345.54,103.73Z" id="eljg0g2ss5n3q" class="animable" style="transform-origin: 345.49px 107.53px;"></path><path d="M289.58,103.81c.05-.23.49-.17.48.06-.07,2.11.19,4.63-.52,6.65-.1.3-.69.34-.76,0C288.33,108.42,289.08,105.88,289.58,103.81Z" id="elb3r0up1ig84" class="animable" style="transform-origin: 289.351px 107.212px;"></path><path d="M275.29,107.17c.07-.24.56-.19.52.06a37.07,37.07,0,0,0,0,5.27c0,.45-.78.54-.92.1A10,10,0,0,1,275.29,107.17Z" id="el7c6tone69l3" class="animable" style="transform-origin: 275.249px 109.951px;"></path><path d="M270.57,109c0-.19.43-.15.4,0-.22,1.83.2,3.54.22,5.35,0,.42-.7.49-.84.1C269.76,112.8,270.17,110.74,270.57,109Z" id="el92sdj1amrz" class="animable" style="transform-origin: 270.622px 111.79px;"></path></g></g></g></g><g id="elsdeayfqdrm"><g style="opacity: 0.9; transform-origin: 313.651px 154.147px;" class="animable"><g id="elu1u8s89ew4"><path d="M189.72,139.33c7.69,31.63,51.14,49,123,49.27,79.67.32,124.68-24.59,124.86-56.74a44.07,44.07,0,0,0-.19-4.49c-3.71,19.55-42.88,51.93-124.62,51.6C244.17,178.69,197.23,161.65,189.72,139.33Z" style="opacity: 0.1; transform-origin: 313.651px 157.987px;" class="animable"></path></g><path d="M230.85,163c26.32,7.7,55.53,10.05,87,8.85,56.27-2.15,91.24-16.61,101.58-25.49.28-.25.81.08.57.37-7.27,8.71-40.46,26.7-99.93,28.94-39.75,1.49-74.56-6.18-89.64-11.38A.68.68,0,1,1,230.85,163Z" style="fill: rgb(252, 248, 235); transform-origin: 324.988px 161.065px;" id="ellgbls8vs4oi" class="animable"></path><path d="M214.2,157.33a31.43,31.43,0,0,1,5.06,1.63,16.37,16.37,0,0,1,4.59,2.2.37.37,0,0,1-.32.64c-3.38-.38-7.61-1.78-9.8-3.8C213.4,157.7,213.73,157.24,214.2,157.33Z" style="fill: rgb(252, 248, 235); transform-origin: 218.786px 159.563px;" id="el0kzlttuo1ye" class="animable"></path><path d="M226.65,162a.65.65,0,1,1,0,1.3A.65.65,0,1,1,226.65,162Z" style="fill: rgb(252, 248, 235); transform-origin: 226.65px 162.65px;" id="eldkejeizx734" class="animable"></path><path d="M210,155.27a3.11,3.11,0,0,1,1.48.59c.36.23.81.51.92.9,0,.13,0,.22-.18.27a2.43,2.43,0,0,1-1.43-.18,2.61,2.61,0,0,1-1.3-.84A.5.5,0,0,1,210,155.27Z" style="fill: rgb(252, 248, 235); transform-origin: 210.913px 156.166px;" id="elbhzny5lat6d" class="animable"></path><path d="M278.21,128c13.86,3.84,29.25,5,45.82,4.42,29.63-1.07,48.05-8.26,53.5-12.68.14-.12.42,0,.29.18-3.82,4.34-21.3,13.3-52.62,14.4-20.94.74-39.28-3.09-47.22-5.68C277.5,128.5,277.69,127.87,278.21,128Z" style="fill: rgb(252, 248, 235); transform-origin: 327.779px 127.052px;" id="eleyuer00088" class="animable"></path><g id="elc5eox5h7i4j"><g style="opacity: 0.1; transform-origin: 317.505px 159.078px;" class="animable"><path d="M429.14,141.12c.09-1.94-.32-3.86-.32-5.8,0-.2.35-.2.36,0,.15,2.24,1.15,4.33,1.09,6.6a9.26,9.26,0,0,1-1.52,5.33.45.45,0,0,1-.81-.29C428.28,145,429.06,143.16,429.14,141.12Z" id="elv9jqsyb8qq" class="animable" style="transform-origin: 429.106px 141.3px;"></path><path d="M421,153.14a40.21,40.21,0,0,0,1.13-5.09,39.82,39.82,0,0,1,.4-4.49c.05-.29.53-.18.57.07.37,2.9,1,7.45-1.41,9.86A.42.42,0,0,1,421,153.14Z" id="eltuqdb31ohi" class="animable" style="transform-origin: 422.229px 148.488px;"></path><path d="M306.57,178.29a13.24,13.24,0,0,1,.66-3.85.25.25,0,0,1,.45,0,10.25,10.25,0,0,1,.13,4.13,12.11,12.11,0,0,1-.77,4.16.46.46,0,0,1-.86-.1A18.26,18.26,0,0,1,306.57,178.29Z" id="el3gy3a3lpvkq" class="animable" style="transform-origin: 307.066px 178.642px;"></path><path d="M280.9,173.38a.34.34,0,0,1,.64.08,30.21,30.21,0,0,1-.06,3.56,35.26,35.26,0,0,1,0,3.56.49.49,0,0,1-.92.1C279.65,178.6,280.13,175.47,280.9,173.38Z" id="elp67ypkv9pr" class="animable" style="transform-origin: 280.816px 177.073px;"></path><path d="M286.68,174.38c.1-.24.5-.15.45.1-.5,2.3-.23,4.41-.27,6.7,0,.41-.69.48-.83.09C285.2,179.1,285.78,176.46,286.68,174.38Z" id="eln457jrrt3k" class="animable" style="transform-origin: 286.382px 177.884px;"></path><path d="M240.12,165.76a.33.33,0,0,1,.63.15c-.24,1.43-.59,2.86-.69,4.31-.09,1.29.26,2.53.26,3.82,0,.38-.61.51-.84.19C237.81,171.86,239.13,168.15,240.12,165.76Z" id="elf30l18iist" class="animable" style="transform-origin: 239.717px 169.989px;"></path><path d="M234.31,165.35c.1-.17.43-.09.42.1,0,1-.34,1.86-.43,2.81a18.68,18.68,0,0,0,.09,2.8c0,.35-.65.53-.82.19C232.69,169.47,233.35,167,234.31,165.35Z" id="elc502ouete2e" class="animable" style="transform-origin: 233.944px 168.344px;"></path><path d="M211,154c.09-.18.44-.18.44.06a37.46,37.46,0,0,1-.4,4.21,15.44,15.44,0,0,1-.59,3.76.35.35,0,0,1-.64,0C209.15,159.67,209.9,156.28,211,154Z" id="el1azmcxxbnlc" class="animable" style="transform-origin: 210.501px 158.055px;"></path><path d="M205.65,152.85c.06-.22.5-.18.47.06a46.51,46.51,0,0,1-.54,5.78c-.1.43-.78.27-.83-.09A14.78,14.78,0,0,1,205.65,152.85Z" id="elerf1ulepa5t" class="animable" style="transform-origin: 205.429px 155.827px;"></path><path d="M214.62,159.28c.07-.25.56-.2.53.07q-.12,1.25-.15,2.49c0,.83.12,1.68,0,2.5,0,.37-.67.48-.78.09A9.26,9.26,0,0,1,214.62,159.28Z" id="elgu7rx07orxt" class="animable" style="transform-origin: 214.589px 161.896px;"></path><path d="M357.5,174.36c.11-1.36.2-2.72.29-4.08a.26.26,0,0,1,.51,0c.13,2.6,1,6.11-.63,8.46-.22.32-.94.21-.88-.21C357,177.13,357.4,175.78,357.5,174.36Z" id="eljkd1380gfk" class="animable" style="transform-origin: 357.717px 174.498px;"></path><path d="M397.85,165.78a28.93,28.93,0,0,0,.86-7.68c0-.25.46-.31.53-.06a12.76,12.76,0,0,1-.4,8C398.62,166.55,397.73,166.33,397.85,165.78Z" id="elejygnd2xr4r" class="animable" style="transform-origin: 398.769px 162.104px;"></path><path d="M394.47,160.36c0-.26.48-.17.5.06a20.94,20.94,0,0,1-.06,6.61c-.09.44-.79.27-.84-.1A21.39,21.39,0,0,1,394.47,160.36Z" id="elskwnki2reiq" class="animable" style="transform-origin: 394.59px 163.747px;"></path><path d="M353.22,175.22c.07-.92.11-1.83.09-2.75,0-.32.55-.31.58,0,.19,1.72.54,3.9-.17,5.55A.36.36,0,0,1,353,178,14.74,14.74,0,0,1,353.22,175.22Z" id="elkmoozpi9u0d" class="animable" style="transform-origin: 353.572px 175.301px;"></path><path d="M384.58,167.4c.21-1.29.25-2.59.44-3.88a.16.16,0,0,1,.29,0c.74,2.27.76,5.82-.76,7.88-.2.26-.7.16-.7-.17A24,24,0,0,1,384.58,167.4Z" id="elgxutqdc5agg" class="animable" style="transform-origin: 384.825px 167.488px;"></path><path d="M320.54,178.94A26.55,26.55,0,0,1,321,176a.21.21,0,0,1,.38,0,9.78,9.78,0,0,1-.54,6.42c-.2.36-.8.15-.82-.19A16.34,16.34,0,0,1,320.54,178.94Z" id="eljmakcbj5nos" class="animable" style="transform-origin: 320.854px 179.244px;"></path><path d="M253.12,170.32c0-.24.44-.25.45,0,0,2.09.36,4.76-.61,6.73a.39.39,0,0,1-.73-.09C251.93,174.85,252.83,172.42,253.12,170.32Z" id="el3mc9x1lnse7" class="animable" style="transform-origin: 252.902px 173.701px;"></path></g></g></g></g></g><g id="freepik--Character--inject-11" class="animable" style="transform-origin: 250.228px 290.041px;"><path d="M102.8,218.16c7-5.21,24-16.52,44.24-22.4,21.19-6.16,44-7,46.55-7.87,6.58-2.22,10.8,31.8,6.15,32.83-1.62.35-27.22-1.11-50.68,1.23-20.36,2-35.67,7-43.7,8C92.75,231.44,97,222.52,102.8,218.16Z" style="fill: rgb(211, 118, 106); transform-origin: 149.434px 208.951px;" id="elhrvqhuknfk" class="animable"></path><path d="M213.58,210.9c-1.64,1.2-1,2.07,2.59,2.18s18-2.47,18.47,2.62-19.86,8.47-25.86,7.81-15.46-3.82-15.46-3.82C197.15,218.24,206.1,213.84,213.58,210.9Z" style="fill: rgb(211, 118, 106); transform-origin: 213.984px 217.246px;" id="elog22cen8qmf" class="animable"></path><path d="M185.37,190.82c11.08-4,24.75-9.27,37.49-6.6a6.46,6.46,0,0,1,3.68,2.07c5.73,1.1,6.94,4.14,6.94,4.14,5,2.65,5.83,5.93,5.83,5.93s6.71,1.36,6.57,5.55c-.16,4.71-9.56,1.88-15.68,3.48-14,3.68-32.94,12.84-36.88,14.3Z" style="fill: rgb(211, 118, 106); transform-origin: 215.626px 201.592px;" id="el6u03e1gmylc" class="animable"></path><path d="M212.79,198.92a94.53,94.53,0,0,1,12.46-2.53,93.87,93.87,0,0,1,13.93.07.11.11,0,0,0,0-.22,49.22,49.22,0,0,0-26.47,2.49C212.55,198.8,212.58,199,212.79,198.92Z" style="fill: rgb(38, 50, 56); transform-origin: 225.949px 197.193px;" id="elqamyvtc40t" class="animable"></path><path d="M209.34,190.77c4.09-.75,11.29-2,24.12-.21,0,0,.06-.06,0-.07a44.15,44.15,0,0,0-24.18.09C209.05,190.65,209.06,190.82,209.34,190.77Z" style="fill: rgb(38, 50, 56); transform-origin: 221.302px 189.813px;" id="elogie91fiwhp" class="animable"></path><path d="M207.56,186.36c7-1,11.56-.76,18.95,0,0,0,.06-.07,0-.08-8.31-1.69-11.52-1.37-19-.11C207.24,186.17,207.29,186.4,207.56,186.36Z" style="fill: rgb(38, 50, 56); transform-origin: 216.934px 185.741px;" id="elp8puncpphq" class="animable"></path><g id="el9ibgtlb78e"><path d="M245.87,201.92c-.14,4.69-9.55,1.86-15.67,3.47a155.14,155.14,0,0,0-17,5.84c-1.07,1-.24,1.74,3,1.86,3.65.13,18-2.48,18.48,2.61s-19.87,8.46-25.87,7.81a76.77,76.77,0,0,1-12.05-2.75c-7.67-.09-28.39-.74-47.66,1.18-20.37,2-35.68,7-43.71,8s-9.24-2.34-7.52-6l89.62-25.57,11.65-3.32,18.74-5.35,3-.85,7.47-2.14c4.2,1.3,5.15,3.69,5.15,3.69,4.56,2.41,5.65,5.33,5.81,5.85a.1.1,0,0,1,0,.09S246,197.72,245.87,201.92Z" style="opacity: 0.1; transform-origin: 171.531px 208.415px;" class="animable"></path></g><g id="el1t4bokr0qre"><path d="M245.87,201.92a2.33,2.33,0,0,1-.7,1.69c-1,1-3.06,1.19-5.49,1.22h-.61c-.62,0-1.26,0-1.91,0h-1.3c-.44,0-.87,0-1.31,0a19.48,19.48,0,0,0-4.35.53l-1.33.37c-1.35.37-2.73.79-4.13,1.25s-2.82.94-4.25,1.44L219,209c-2,.72-3.92,1.49-5.83,2.25l-.15.16a1,1,0,0,0-.15.22.65.65,0,0,0-.08.17.45.45,0,0,0,0,.16.49.49,0,0,0,.1.34,1.47,1.47,0,0,0,.53.35,3.08,3.08,0,0,0,.68.2,12.05,12.05,0,0,0,2.14.22c3.66.13,18-2.47,18.48,2.62.19,2-2.81,3.73-6.89,5.06l-.46.14a63,63,0,0,1-9.54,2.09l-1,.12c-.66.1-1.32.18-2,.23a31.94,31.94,0,0,1-6.06.18c-.37,0-.77-.09-1.16-.16l-1.22-.19c-.72-.14-1.45-.28-2.19-.44-1.43-.31-2.87-.68-4.21-1-.62-.16-1.21-.33-1.78-.49l-.56-.16-.93-.28c-2.72,0-7.09-.13-12.46-.17h-2.38c-1.57,0-3.23,0-4.93,0-1,0-2,0-3,0-.55,0-1.12,0-1.68,0l-1.71.05c-.26,0-.52,0-.79,0l-1,0-1.66.06-1.78.06-3.57.15-3.36.19c-.69,0-1.38.08-2.08.13l-1.82.14c-1.82.13-3.64.28-5.45.47a242,242,0,0,0-30.46,5.27l-2.47.57-2.32.52c-1.49.33-2.88.64-4.16.9l-1.84.34c-.89.15-1.7.29-2.45.38-3.62.43-5.85,0-7.06-.93l-.28-.25a3,3,0,0,1-.86-2.28,2.49,2.49,0,0,1,0-.47,5.42,5.42,0,0,1,.37-1.39,5,5,0,0,1,.27-.65,13.31,13.31,0,0,1,1.87-2.88q5-.15,9.71-.43c43.78-2.63,86.74-33.61,34.79-24,.93-.3,1.88-.59,2.83-.87,21.14-6.15,43.88-7,46.53-7.87a0,0,0,0,0,.05,0c9.24-3.13,19.52-5.71,29.24-3.67a6.56,6.56,0,0,1,3.64,2h0s0,0,0,0a14.3,14.3,0,0,1,1.77.44h0c.29.09.57.19.83.29l.61.24a11.09,11.09,0,0,1,1.15.6,10,10,0,0,1,.9.62,6.83,6.83,0,0,1,.61.52,5.11,5.11,0,0,1,1,1.33.55.55,0,0,1,0,.1c.29.15.55.3.81.45.46.27.88.56,1.26.83l.32.25a4.85,4.85,0,0,1,.61.49,8.81,8.81,0,0,1,2.8,3.82h0a.12.12,0,0,1,0,.09,13.82,13.82,0,0,1,3.92,1.54,6.88,6.88,0,0,1,.88.61,4.1,4.1,0,0,1,.53.48A3.92,3.92,0,0,1,245.87,201.92Z" style="opacity: 0.2; transform-origin: 171.505px 206.725px;" class="animable"></path></g><path d="M74.54,202.41c1.26.44,7.06,1,9.71,7,2.5,5.64.5,20.71.56,24.1s4.18,4.8,4.35,8.76c.15,3.41-2.45,4.08-3.21,6.39-.59,1.79.65,4.94-1.61,7.28-2.06,2.13-4.62,1-6.4,1.44s-3.61,3.94-6.82,4.29-5.26-2.95-6.84-3.28-4.54,4.11-9.62,2.55-5.61-6.26-7.56-7.59-7.64-1-9.5-4.23-1.5-6.86-2.32-8.41-3.16-1.85-3.87-5.19,2.54-4.65,3.52-7.19c.68-1.77-.58-3.82,1.18-6.37,2.42-3.51,7-1.65,9.62-5.21,2.09-2.79,8-15.65,16.85-17.18C68.71,198.51,74.54,202.41,74.54,202.41Z" style="fill: rgb(38, 50, 56); transform-origin: 60.2379px 230.542px;" id="elwx6ksg06ela" class="animable"></path><path d="M84.82,232.7a4.82,4.82,0,0,0,1,2l1.37,1.82a14.21,14.21,0,0,1,2.29,3.8,4.56,4.56,0,0,1-.37,4A7,7,0,0,1,87.64,246a7.74,7.74,0,0,0-1.71,1.68,3.92,3.92,0,0,0-.32,2.48c.08.77.2,1.51.25,2.25a5.39,5.39,0,0,1-1,4,3.05,3.05,0,0,1-1.72,1.08,5.81,5.81,0,0,1-2.16,0c-.74-.11-1.47-.3-2.22-.45a3.79,3.79,0,0,0-2.26,0,4,4,0,0,1,2.2.2c.73.22,1.45.47,2.2.64a6,6,0,0,0,2.35.13,3.75,3.75,0,0,0,2.12-1.18,5.86,5.86,0,0,0,1.3-4.51c0-.78-.14-1.54-.21-2.28a3.23,3.23,0,0,1,.24-1.95c.7-1.08,2.27-1.84,3.11-3.27a5.1,5.1,0,0,0,.32-4.69,14.32,14.32,0,0,0-2.58-3.83L86,234.6A5.26,5.26,0,0,1,84.82,232.7Z" style="fill: rgb(38, 50, 56); transform-origin: 83.5272px 245.385px;" id="ell0zkurvkeyp" class="animable"></path><path d="M53.37,205.53a67.17,67.17,0,0,0-5,6.45c-.81,1.07-1.6,2.18-2.48,3.17a9.24,9.24,0,0,1-1.4,1.34,1.24,1.24,0,0,1-.38.22,1.51,1.51,0,0,1-.4.16c-.31.08-.64.15-1,.21a40.39,40.39,0,0,0-4,.89,7,7,0,0,0-3.55,2.28,4.41,4.41,0,0,0-.87,2,5.64,5.64,0,0,0,.17,2.1,8.76,8.76,0,0,1,.43,4,8.25,8.25,0,0,0,0-4.07,5.25,5.25,0,0,1-.05-1.93,3.82,3.82,0,0,1,.85-1.66A6.77,6.77,0,0,1,39,218.73a39.4,39.4,0,0,1,3.95-.8c.34-.07.68-.15,1-.25a3,3,0,0,0,1-.52,9.69,9.69,0,0,0,1.51-1.49,32.4,32.4,0,0,0,2.44-3.31l2.19-3.44A34.84,34.84,0,0,1,53.37,205.53Z" style="fill: rgb(38, 50, 56); transform-origin: 43.8138px 216.94px;" id="el20ph0nzweta" class="animable"></path><path d="M34.22,239.53a7.15,7.15,0,0,1,.27,2.85c0,1,0,2,0,2.93a14.42,14.42,0,0,0,.4,3A6.27,6.27,0,0,0,36.3,251c1.55,1.56,3.73,1.89,5.66,2,1,0,1.95,0,2.91.06a6.08,6.08,0,0,1,2.78.62,5.67,5.67,0,0,0-2.74-1c-1-.14-1.95-.2-2.9-.31-1.88-.2-3.85-.61-5.08-1.88a5.78,5.78,0,0,1-1.22-2.39,17,17,0,0,1-.53-2.79c-.12-1-.19-1.93-.27-2.9,0-.48-.11-1-.19-1.46A2.78,2.78,0,0,0,34.22,239.53Z" style="fill: rgb(38, 50, 56); transform-origin: 40.935px 246.605px;" id="el4okuwt7aso7" class="animable"></path><path d="M468.24,314.11c-2.54,1.23-78.41,10.81-81.53,9.35-.34-.16-.52-3.53-2.35-12.14-.09-.41-2-1.88-4.85-3.93-10.88-7.71-36.27-23.76-36.27-23.76l56.93-18.08,28.49,23.82s32.31,12.25,35.58,14.22S470.78,312.89,468.24,314.11Z" style="fill: rgb(211, 118, 106); transform-origin: 406.193px 294.58px;" id="elkoils59wpb" class="animable"></path><path d="M419,281.47l-40.27,24.39s-80.33-44.62-89-57.21c-.29-.41-64.66,12.67-83.53,10.65-26.44-2.84-29.14-8-35.08-17.64l16.41-26.37c39.74-7.13,103.14-24.32,126-14.62C338.4,211.21,419,281.47,419,281.47Z" style="fill: rgb(211, 118, 106); transform-origin: 295.06px 251.817px;" id="ela2dx2wzfc8t" class="animable"></path><g id="el43erkdw2ofp"><path d="M187.53,215.29l90.92,35.27c-19.38,3.46-58.28,10.23-72.25,8.73-26.44-2.83-29.15-8-35.08-17.63Z" style="opacity: 0.1; transform-origin: 224.785px 237.397px;" class="animable"></path></g><g id="el130x3xblcm3b"><path d="M449.69,317c-23.4,3.14-60.8,7.47-63,6.45-.34-.16-.52-3.53-2.35-12.13-.09-.42-1.95-1.89-4.85-3.94-2.56-1.82-5.92-4.09-9.56-6.5-15.46-8.78-47.57-27.33-66.37-40.57l50.91,19.75,40.76,15.81Z" style="opacity: 0.1; transform-origin: 376.625px 291.956px;" class="animable"></path></g><path d="M431.94,389.63c-1,.2-16.6,9.23-30.31,6.51-10.67-2.12-49.23-17-50.88-18.42-.29-.25.4-3.55.85-12.33,0-.42-28.69-34.65-28.69-34.65L362.36,303l37.69,52.58s28.08,20.14,30.73,22.88S434.71,389.1,431.94,389.63Z" style="fill: rgb(211, 118, 106); transform-origin: 378.201px 349.825px;" id="el5ogceoopcf" class="animable"></path><path d="M154.13,269s5.29,21.88,32.71,28.48c9.94,2.39,27.55-1,27.55-1s66.84-4.44,70-1c32.39,35,57.46,57.85,57.46,57.85l37.63-26.85c-8-9.93-53-78-81.5-83.14-19.5-3.52-87.76.58-88.19.29-1.75-1.2-22.23-28.27-22.23-28.27Z" style="fill: rgb(211, 118, 106); transform-origin: 266.805px 284.345px;" id="el824wfikik4" class="animable"></path><path d="M154.13,269a27.64,27.64,0,0,0,3.57,8s20-24.83,52.06-33.43c0,0-4.74-13.7-8.25-18.75s-7.33-10.75-7.33-10.75a48.71,48.71,0,0,0-6.65,1.23s-2.17,14.31-8.43,22S154.13,269,154.13,269Z" style="fill: rgb(255, 250, 223); transform-origin: 181.945px 245.535px;" id="el280crj12klp" class="animable"></path><path d="M178.23,254.29,173,252.67l-3.74,5.15-.73-6.29-.58-.19c1.9-2.4,3.78-4.79,5.51-7l.89,3.31,3.84-.3-2.36,2.78ZM191,216.89l-2,.17-.69-1.64-1.07,1.79h0c-.13.63-.29,1.4-.5,2.26l.6-.05,1.17,2.17.48-2,1.6.58-.63-1.46Zm11.74,9.89c-.39-.71-.78-1.36-1.15-1.9l-.16.14-.91-.56.32,1-1,.49,1.22.26.27,1.44.63-1.06.8.61Zm-11.94,20,0-1.22-1,.65-.82-.66,0,1.23-1,.28,1,.49-.32,1,1-.69,1.22.8-.32-1.19,1-.15Zm4.17-15.41,1.78-3.42-3.68.55-1.46-3L189.79,229l-3.3-.61,2.12,2.71-2.32,2.53,3.89-.58,2.41,3.91.67-3.82,3,.9Zm5.62,13.06-.21-2.27L199,244l-2.09-1,1.11,2.44-2.12,2.3,2.45-.25c1.18-.5,2.37-1,3.6-1.42h0l1.23-1.11ZM163.8,268.88l-.21-2.27-1.38,1.89-2.09-1.05,1.1,2.44-2.12,2.3,2.63-.27v.65c1-1,2.15-2.15,3.48-3.4Z" style="fill: rgb(255, 255, 255); transform-origin: 181.14px 243.995px;" id="elvckso108z4r" class="animable"></path><path d="M209.76,243.56c20.25-1.28,40.52-2.19,60.81-2.18,10.15.25,20.46-.29,30.42,2.17,9.56,3.73,17.42,10.64,25,17.39a217.65,217.65,0,0,1,27,30.2c-4.15-5.34-8.56-10.47-13.17-15.4s-9.38-9.73-14.39-14.24c-7.55-6.55-15.34-13.43-24.76-17.05a49.7,49.7,0,0,0-9.89-1.48c-13.45-.95-27-.71-40.49-.54s-27,.61-40.54,1.13Z" style="fill: rgb(38, 50, 56); transform-origin: 281.37px 266.26px;" id="elwqpmvkrb0d" class="animable"></path><path d="M149.82,214.45l15.1.06s16.6-1,22.61.78L154.13,269c-3-.3-10-5.22-10-5.22-11.95-1-37.95-8.37-47.71-21.75-7.12-9.76-2.83-16.58,5-20.41,2-1,25.38-14.9,34.86-13.78A23.54,23.54,0,0,1,149.82,214.45Z" style="fill: rgb(211, 118, 106); transform-origin: 140.164px 238.388px;" id="el86uwke868m3" class="animable"></path><path d="M120.3,258.87l2.22-9.94s-8.4-16.37,8.58-27.11c0,0-5.6-8-.28-13.51a16.89,16.89,0,0,1,5.51-.51,23.6,23.6,0,0,1,13.49,6.65l7.69,0L140,264.29Z" style="fill: rgb(255, 250, 223); transform-origin: 138.905px 236.023px;" id="el4zq4y6t6eh6" class="animable"></path><path d="M151.13,225.5l2.82-.91-.67,1.91Zm3.43-5.23,0,2.69.69-2h0Zm-22.29,35.6,2.36-2.78-3.84.31-1.24-4.57L127,252.31l-2.9-1.64.46,3.07-3.53,1.72-.11.48,4,1.3.35,3,2.29.64,1.83-2.52,5.21,1.62Zm17.85-38.54,1.06-1.79-2,.18-.69-1.65-1.07,1.8-1.76-.43,1.05,1.52-1.32,1.29,2.11-.19,1.17,2.18.48-2,1.59.58Zm-10.32-6.07.91-.81-1.15-.26-.1-1.05-.92.83-.91-.56.32,1.05-1,.49,1.22.27.27,1.43.63-1.06.8.61Zm-3.56,32.28,0-1.23-1,.66-.82-.66,0,1.23-1,.27,1,.5-.33,1,1-.69,1.22.8-.32-1.19,1-.15Zm-.05-16.14L138,224l-3.67.55-1.47-3L131,225l-3.3-.61,2.12,2.71-2.32,2.54,3.89-.59,2.4,3.91.67-3.82,3,.9Zm8.26,16L147,244l-1-2.31,1.68-1.51-2.59-.53-.21-2.28-1.39,1.89-2.09-1,1.1,2.44-2.11,2.3,2.63-.27,0,2.15Z" style="fill: rgb(255, 255, 255); transform-origin: 138.085px 235.01px;" id="elhp0auiijlg" class="animable"></path><path d="M144.19,223.86a62.09,62.09,0,0,0-2,9.15c-.19,1.54-.31,3.08-.4,4.63,0,.78-.11,1.54-.18,2.31a10.13,10.13,0,0,1-.46,2.38.06.06,0,0,0,.11,0,13.26,13.26,0,0,0,1.21-4.33c.21-1.56.35-3.14.54-4.7.39-3.15.78-6.31,1.4-9.43C144.47,223.77,144.23,223.71,144.19,223.86Z" style="fill: rgb(38, 50, 56); transform-origin: 142.785px 233.068px;" id="elts275ngjwd" class="animable"></path><path d="M149.57,217.7a69.61,69.61,0,0,0-3.17,7.05c-.45,1.21-.84,2.43-1.19,3.67-.17.6-.33,1.19-.48,1.79s-.25,1.34-.42,2c0,.07.08.11.1,0,.19-.61.47-1.2.69-1.8l.66-1.81c.44-1.21.9-2.41,1.32-3.62.86-2.43,1.75-4.84,2.69-7.23C149.82,217.65,149.63,217.59,149.57,217.7Z" style="fill: rgb(38, 50, 56); transform-origin: 147.044px 224.96px;" id="el23muasw5i3v" class="animable"></path><path d="M160.58,226.17c.93,1.56,3,2,4.72,1.87.42-.06.79-.25.85-.58.1-.83-1.28-.94-1.93-.91a2.62,2.62,0,0,0-1.3.36,3.12,3.12,0,0,1,2.72-.56,1,1,0,0,1,.48,1.91c-1.9.85-4.84,0-5.54-2.09Z" style="fill: rgb(38, 50, 56); transform-origin: 163.646px 227.378px;" id="elw9a3jkkx3ch" class="animable"></path><path d="M112.26,215.79c5.79-3.25,11.92-6.52,18.56-7.48a83.28,83.28,0,0,0-9.31,3.62c-2.72,1.15-6.53,2.82-9.25,3.86Z" style="fill: rgb(38, 50, 56); transform-origin: 121.54px 212.05px;" id="elgbsdic6hd9t" class="animable"></path><path d="M113.74,213.53a10.72,10.72,0,0,1,5.32-.94,22.41,22.41,0,0,1-5.32.94Z" style="fill: rgb(38, 50, 56); transform-origin: 116.4px 213.043px;" id="elxfimjhih4es" class="animable"></path><path d="M97.94,236.3c1.21-.08,7.38-4.48,8-9.84.2-1.74-7-3.18-7-3.18l-.67-.27-9.45-3.78-9.26,10.32-1.25,1.51s2.66.86,6,1.9l.47.15c.19.07.36.13.54.18l1.5.48,1.17.34,1.21.35A65,65,0,0,0,97.94,236.3Z" style="fill: rgb(211, 118, 106); transform-origin: 92.127px 227.765px;" id="elv4l3prukhk" class="animable"></path><path d="M84.27,233a20.42,20.42,0,0,0,14-10l-9.45-3.78-9.26,10.32-1.25,1.51S81,231.92,84.27,233Z" style="fill: rgb(38, 50, 56); transform-origin: 88.29px 226.11px;" id="elyh6yqajbwjp" class="animable"></path><path d="M79.28,201.76c17.61,2.94,17.84,13.83,17.21,17.63-.58,3.44-3,15.11-20.82,14s-22-10.22-21.13-18.18S61.66,198.83,79.28,201.76Z" style="fill: rgb(211, 118, 106); transform-origin: 75.5461px 217.314px;" id="el4pxs6y6zb47" class="animable"></path><path d="M76.2,205.39a10.24,10.24,0,0,1-.52,1.11,2,2,0,0,1-.76,1,.63.63,0,0,1-.75-.18,1.58,1.58,0,0,1,0-1.6,2.32,2.32,0,0,1,1.13-1.22A.68.68,0,0,1,76.2,205.39Z" style="fill: rgb(38, 50, 56); transform-origin: 75.1038px 205.999px;" id="elv7u2fjqeqje" class="animable"></path><path d="M74.06,217.88c0-.42,0-.82,0-1.24a2,2,0,0,0-.21-1.26.63.63,0,0,0-.75-.18,1.57,1.57,0,0,0-.72,1.43,2.36,2.36,0,0,0,.46,1.6A.68.68,0,0,0,74.06,217.88Z" style="fill: rgb(38, 50, 56); transform-origin: 73.2289px 216.822px;" id="eli64ad6ritr" class="animable"></path><path d="M87.89,218.12c.37-.17.83-.3,1-.7a3.16,3.16,0,0,0,.18-1.33,0,0,0,0,1,.08,0,1.66,1.66,0,0,1,.07,1.68,1.28,1.28,0,0,1-1.34.51C87.82,218.25,87.83,218.15,87.89,218.12Z" style="fill: rgb(38, 50, 56); transform-origin: 88.6273px 217.202px;" id="elxzatxeqeoaj" class="animable"></path><path d="M85.21,212a26.6,26.6,0,0,1,2.62.56c.08,0,0,.23,0,.51,0,0,0,0,0,0a4.08,4.08,0,0,1-2.64,3.32c-.09,0-.15-.1-.07-.16A6.12,6.12,0,0,0,87.22,213c-.2-.13-3.11-.41-3.08-.55a7.34,7.34,0,0,1,1-1.72c-3.75-.74-7.58-.87-11.31-1.67a.12.12,0,0,1,0-.23,61.81,61.81,0,0,1,12.25,1.28C86.59,210.18,85.45,211.68,85.21,212Z" style="fill: rgb(38, 50, 56); transform-origin: 80.8049px 212.61px;" id="ely0wue43tky" class="animable"></path><path d="M79.31,216.23s0,.1.09.11c1.21.22,2.55.67,2.72,1.83,0,0,.07.05.07,0C82.28,216.81,80.49,216.24,79.31,216.23Z" style="fill: rgb(38, 50, 56); transform-origin: 80.7516px 217.211px;" id="elku4o71djkw" class="animable"></path><path d="M78.29,218.5a3.14,3.14,0,0,0,.68.13,1.76,1.76,0,0,1,.39.38.93.93,0,0,1,.16,1c-.32.67-1.15.72-1.87.52-.06,0-.07-.05,0-.07.47-.16,1-.37,1-.8s-.22-.76-.35-1.12c0,0,0,0,0,0Z" style="fill: rgb(38, 50, 56); transform-origin: 78.6005px 219.567px;" id="ellmxfrxs2x0r" class="animable"></path><path d="M80.62,216.47a1.77,1.77,0,0,1,.79.59,1.33,1.33,0,0,1,.22,1.06,1.22,1.22,0,0,1-.7.83,2.24,2.24,0,0,1-1,.15,3.69,3.69,0,0,1-.58-.09,2.59,2.59,0,0,1-1.1-.51,4.4,4.4,0,0,0,.87.15,5.31,5.31,0,0,0,.8,0c.55,0,1-.25,1.1-.66s-.17-.82-.64-1.1a8.87,8.87,0,0,0-1.56-.69A3.9,3.9,0,0,1,80.62,216.47Z" style="fill: rgb(38, 50, 56); transform-origin: 79.9553px 217.646px;" id="elkv5c29ve8l" class="animable"></path><path d="M80.14,208.77s.07-.09.12-.08c1.2.28,2.61.41,3.23-.6,0,0,.08,0,.06,0C83.1,209.4,81.22,209.22,80.14,208.77Z" style="fill: rgb(38, 50, 56); transform-origin: 81.8466px 208.597px;" id="elbhy2f54xmpe" class="animable"></path><path d="M80.1,206.28a3.62,3.62,0,0,1,.67.14,1.63,1.63,0,0,0,.51-.19,1,1,0,0,0,.54-.85c0-.74-.77-1.11-1.51-1.22-.06,0-.09,0-.06.06.37.33.73.72.63,1.14s-.51.61-.76.89c0,0,0,0,0,0Z" style="fill: rgb(38, 50, 56); transform-origin: 80.96px 205.29px;" id="eluvfx0085ce" class="animable"></path><path d="M81.43,209.06a1.85,1.85,0,0,0,1-.23A1.3,1.3,0,0,0,83,208a1.21,1.21,0,0,0-.31-1,2.11,2.11,0,0,0-.83-.52l-.57-.15a2.74,2.74,0,0,0-1.21,0,4.16,4.16,0,0,1,.86.21,5.36,5.36,0,0,1,.73.32c.48.26.85.64.75,1s-.48.69-1,.76a8,8,0,0,1-1.7,0A3.65,3.65,0,0,0,81.43,209.06Z" style="fill: rgb(38, 50, 56); transform-origin: 81.3665px 207.663px;" id="el29pzcyr62w3" class="animable"></path><path d="M76.86,232.25c.8-2.78-5-4.66-5-4.66s1.21-5.73-6.65-9.34a13,13,0,0,1,6.3,4s1-10.34-6.55-16.37c0,0,4,2.6,5.16,4.51,0,0-.3-4.49-3.31-7.28,0,0,5.26-.75,6.89-1.83,0,0-17.79-3.27-19.33,13.52,0,0-1.45,10.41,5.91,15.8S76.86,232.25,76.86,232.25Z" style="fill: rgb(38, 50, 56); transform-origin: 65.595px 217.268px;" id="elgwwy0kpbkld" class="animable"></path><path d="M77.7,229.26s-6.54,1.86-6,4.71,9.08,2.71,11.1.26a3,3,0,0,0-.21-4.35Z" style="fill: rgb(211, 118, 106); transform-origin: 77.6511px 232.674px;" id="elm451we9fpy" class="animable"></path><path d="M74.11,233.87s0,.07.07,0c1.48-1.7,3.66-2.1,5.81-2.17A1.67,1.67,0,0,0,78.74,234c0,.06.12,0,.13,0a1.83,1.83,0,0,1,1.28-1.72,9.24,9.24,0,0,1,1.88-.39c.21,0,.22-.38,0-.38h0C79.48,230.52,75.3,231.26,74.11,233.87Z" style="fill: rgb(38, 50, 56); transform-origin: 78.1506px 232.557px;" id="eld0beandyobq" class="animable"></path><path d="M93.46,232c-2.5,8.31-7.25,28.26-5.83,49.24,1.48,22,8.52,43.73,8.59,46.42.18,6.94,33.57-.78,32.94-5.5-.22-1.64-10.38-25.18-16.25-48-5.09-19.82-5.66-35.92-7.52-43.79C102.48,218,95.56,225,93.46,232Z" style="fill: rgb(211, 118, 106); transform-origin: 108.27px 277.007px;" id="elc96ieoixa76" class="animable"></path><path d="M124.69,338.54c.57-2,1.59-1.67,2.94,1.68s3.86,17.76,8.81,16.46,1.12-21.57-1.55-27S126,316.5,126,316.5C125.94,320.59,124.88,330.51,124.69,338.54Z" style="fill: rgb(211, 118, 106); transform-origin: 131.764px 336.631px;" id="elty7jtk7kl4" class="animable"></path><path d="M96.15,319c0,11.79-.21,26.43,6.67,37.48a6.45,6.45,0,0,0,3.22,2.73c3,5,6.26,5.1,6.26,5.1,4.22,3.81,7.57,3.44,7.57,3.44s3.58,5.84,7.47,4.26c4.37-1.76-1.52-9.62-2.11-15.92-1.36-14.44.74-35.34.76-39.54Z" style="fill: rgb(211, 118, 106); transform-origin: 112.546px 344.416px;" id="elmavqtk2g26e" class="animable"></path><path d="M113.17,341.91a92.06,92.06,0,0,0,1.91,12.58,93,93,0,0,0,4.85,13.06.12.12,0,0,1-.21.1A49.33,49.33,0,0,1,113,341.93C113,341.73,113.14,341.7,113.17,341.91Z" style="fill: rgb(38, 50, 56); transform-origin: 116.462px 354.729px;" id="elts9u5l270f" class="animable"></path><path d="M104.33,341.47c.7,4.1,2,11.3,8.09,22.73,0,0,0,.08-.06,0a44.18,44.18,0,0,1-8.22-22.74C104.12,341.24,104.29,341.2,104.33,341.47Z" style="fill: rgb(38, 50, 56); transform-origin: 108.279px 352.758px;" id="elhgz778qvcdi" class="animable"></path><path d="M99.58,341.32c1.46,6.93,3.26,11.11,6.47,17.8,0,0,0,.08-.07.05-4.45-7.23-5.25-10.35-6.64-17.83C99.29,341.08,99.52,341.05,99.58,341.32Z" style="fill: rgb(38, 50, 56); transform-origin: 102.691px 350.154px;" id="eld2eg2420m0i" class="animable"></path><path d="M109.36,257.25a129.68,129.68,0,0,1-2.88-19.79,132,132,0,0,1,2.88,19.79Z" style="fill: rgb(38, 50, 56); transform-origin: 107.92px 247.355px;" id="eljsbnqmkausi" class="animable"></path><path d="M108.36,238.39a8.17,8.17,0,0,1-1,5.49c.41-1.84.5-3.65,1-5.49Z" style="fill: rgb(38, 50, 56); transform-origin: 107.918px 241.135px;" id="elawpm0i6xvtw" class="animable"></path><g id="elmbapxgr2dl"><path d="M464.24,303.6c-3.26-2-35.58-14.23-35.58-14.23l-14.34-12c-.22-.17-.43-.36-.67-.55l-.52-.45-1-.88c-1.42-1.22-3-2.61-4.83-4.13l-1.21-1c-5.71-4.84-12.93-10.92-20.86-17.46l-2.08-1.72c-13.65-11.21-29.15-23.58-42.61-33.4-.34-.26-.69-.51-1-.75s-.91-.67-1.36-1l-1.45-1q-2.62-1.89-5.11-3.59l-.95-.65-1.68-1.14q-1.53-1-3-2c7.57,6.11,42.44,35.11.62,34.57-26.56-.35-69.17-6.25-96.77-10.52-15.89-2.46-26.8-4.37-26.8-4.37l0,.07s0,0,0,.06a7.42,7.42,0,0,1-.13,7.88c-3.78,5.93-15.91,9.76-28,12.16h0c-1.55.31-3.09.6-4.62.86-1.26.22-2.52.42-3.74.61-11,1.69-20.18,2.24-20.18,2.24-.7.27-1.39.54-2.09.78-1.63.56-3.27,1-4.89,1.42l-.13,0a65.92,65.92,0,0,1-11.66,1.65l-.57,0a43.79,43.79,0,0,1-5.77-.66c-5-.78-11.49-2-12.41-2a80.77,80.77,0,0,0,11.63,5.46l-.21,1,3.11.86L140,264.29l.36-1,1.44.2c.42.06.84.1,1.23.14s.79.08,1.17.11c0,0,6.94,4.93,9.95,5.23l0,.07.06.23,0,.09c0,.1,0,.21.09.34s.06.18.09.27l0,.1a1.72,1.72,0,0,0,.07.21q.06.23.15.48a25.85,25.85,0,0,0,1.23,3c.15.34.33.7.51,1s.26.48.4.71.22.38.34.58a.64.64,0,0,0,.08.14,5.14,5.14,0,0,0,.32.49c0,.07.09.16.14.23a41.84,41.84,0,0,0,3.38,4.84c.18.23.37.47.56.69a42.56,42.56,0,0,0,3.51,3.67c.25.24.51.48.79.71a39.91,39.91,0,0,0,4.24,3.3c.25.19.52.36.79.53a43.28,43.28,0,0,0,4.58,2.63c.3.16.6.3.9.44l1.12.52c.35.15.7.31,1.06.45q1.59.68,3.33,1.26l1.18.38c.39.13.79.25,1.21.36.81.24,1.64.46,2.5.67,9.94,2.39,27.55-1,27.55-1s66.85-4.43,70-1.06c.51.54,1,1.09,1.51,1.63l3,3.21q3.24,3.45,6.35,6.73l2.32,2.44c23.36,24.44,40.76,40.6,43.81,43.41l0,0c2.12,2.55,4.11,4.94,5.75,7l1.41,1.72.05.05c.34.43.68.83,1,1.19,1.28,1.59,2.05,2.56,2.05,2.63-.45,8.79-1.13,12.09-.85,12.34,1.65,1.38,40.21,16.3,50.88,18.42,13.71,2.72,29.27-6.31,30.31-6.51,2.77-.53,1.46-8.45-1.17-11.2s-30.72-22.89-30.72-22.89l-20.78-29,.18-.13-.41-.51-.41-.55-1.1-1.46-.6-.82-.53-.72-.47-.64c-.23-.32-.47-.66-.73-1l-2.87-4c-.45-.61-.91-1.26-1.39-1.92l-3-4.15a1.56,1.56,0,0,1-.16-.2l0-.05L362.36,303l-.14.1c-2.85-3.8-6-7.81-9.21-11.91l5.71,3.31.21.12.11.06.63.36,4.27,2.46,2,1.15,2.24,1.29a1.57,1.57,0,0,1,.25.14c.13.06.25.14.38.21l.41.23.71.41a0,0,0,0,1,0,0c1.36.89,2.68,1.78,3.94,2.62.31.22.61.42.92.62a2.2,2.2,0,0,0,.32.21,3.39,3.39,0,0,0,.39.27c.66.46,1.31.89,1.92,1.32.07,0,.13.1.21.14l.33.23.45.32,1.07.75c2.89,2.05,4.76,3.53,4.85,3.93,1.83,8.61,2,12,2.35,12.14a.56.56,0,0,0,.17.06l.2,0,.41,0,.95,0c.19,0,.4,0,.62,0a2.84,2.84,0,0,0,.41,0h.44l.49,0,1.42-.07.19,0,.4,0,.18,0h.11c.53,0,1.08-.06,1.66-.11l.41,0,1.29-.11.42,0h.19l.72-.07h.09l1.47-.13c.22,0,.43,0,.65-.06l.66-.05.51-.05,2.12-.21.32,0,.28,0,.26,0,.73-.08.73-.07,1.68-.17,1.35-.15.75-.07,2.16-.24c.36,0,.73-.07,1.09-.12l.82-.08.3,0,2.33-.25.19,0,1.34-.15.85-.1.85-.09,9.5-1.12h0l.86-.1.86-.11.87-.1.91-.11.26,0,.44-.05,1.63-.2c.65-.08,1.29-.15,1.93-.24l.84-.11,1.85-.22.68-.09.83-.11,1.65-.21,2.42-.32.8-.1.26,0,.47-.06.83-.11.81-.11.23,0,.51-.07.58-.08.72-.09.22,0q.58-.06,1.14-.15c.35,0,.69-.08,1-.14l1.3-.16.91-.14,1.21-.17,2.89-.4.75-.11h.05l1.38-.21.68-.09.11,0,1-.15.93-.15,1.26-.21,1-.17.52-.09.39-.06a11.69,11.69,0,0,0,1.78-.43C470.78,312.89,467.48,305.57,464.24,303.6Zm-227.7-46.31c-9.13-1.75-15.26-4.39-14.91-7.88.4-3.86,18.39-6.15,37.65-6.28C281,243,304.4,245.6,306,251.83c.55,2.21-2.12,4-6.83,5.26C285.52,260.86,255,260.86,236.54,257.29Zm-108.36,62c-2.72-7.16-10.45-26.41-15.27-45.19-1.55-6-2.68-11.7-3.55-16.9,0-.25-.1-.59-.17-1,0-.14,0-.29-.06-.43v0c.54,8.56,0,26.16-7,22.83C88.44,272.15,94.44,234,94.44,234l-1.26-1-.34-.27-2.44-1.91-.5-.4h0a25.39,25.39,0,0,1-5,.91c-.46,0-.94.07-1.41.09s-1,.05-1.45,0h0c-.86,0-1.73,0-2.64,0h0l-1.69-.09h0l-.77-.07q-1.47-.13-3-.36h0c-6.36-.93-12.86-3-17.46-6.22-.34-.24-.66-.48-1-.74h0c-4.95-3.86-7.2-9.23-3.64-16.07h0l-.4.13-.12,0c-.58.77-1.13,1.56-1.69,2.33-.2.28-.39.56-.6.83s-.39.55-.6.82c-.82,1.07-1.59,2.18-2.48,3.18a9.17,9.17,0,0,1-1.41,1.32,1.07,1.07,0,0,1-.37.24,2.61,2.61,0,0,1-.41.15c-.3.09-.62.15-1,.22a38.14,38.14,0,0,0-4,.89,7,7,0,0,0-3.55,2.27,4.31,4.31,0,0,0-.87,2,5.71,5.71,0,0,0,.18,2.11,8.85,8.85,0,0,1,.42,4c-1,2.55-4.23,3.85-3.52,7.19.05.23.11.45.17.66s.11.31.17.46a.17.17,0,0,0,0,.05c.07.15.13.29.2.42a3.38,3.38,0,0,0,.24.41,5.15,5.15,0,0,0,.53.7,3.84,3.84,0,0,0,.28.3l.24.22c.32.3.66.55,1,.8a.19.19,0,0,1,0,.07,1,1,0,0,1,.09.27,2.25,2.25,0,0,1,.08.33,1.54,1.54,0,0,1,0,.3c.07.61,0,1.26,0,1.87,0,1,0,2,0,2.93a14.05,14.05,0,0,0,.4,2.95A6.47,6.47,0,0,0,36.3,251c1.55,1.56,3.73,1.88,5.65,2,1,0,2,0,2.92.06.2,0,.41,0,.62,0a1.6,1.6,0,0,1,.3,0l.29,0a4,4,0,0,1,.89.22,1.45,1.45,0,0,1,.29.11,2.33,2.33,0,0,1,.32.31,1.94,1.94,0,0,1,.32.37,4.27,4.27,0,0,1,.29.41c.1.16.2.31.3.48s.4.66.61,1,.38.65.61,1l.19.29.21.3a9.21,9.21,0,0,0,2,2,1.07,1.07,0,0,0,.22.15,7.81,7.81,0,0,0,1.89,1l.46.15c5.08,1.56,8-2.89,9.62-2.55s3.62,3.63,6.84,3.28,5-3.87,6.82-4.29a3.61,3.61,0,0,1,.49-.07,2.36,2.36,0,0,1,.38,0l1.11.34c.31.09.63.18,1,.25a6,6,0,0,0,2.35.13,2.45,2.45,0,0,0,.37-.08,3.76,3.76,0,0,0,1.75-1.1,5.9,5.9,0,0,0,1.31-4.51c0-.22,0-.43-.05-.65,0-.55-.12-1.09-.17-1.62a3.2,3.2,0,0,1,.24-2c.63-1,2-1.71,2.87-2.92.09-.11.17-.24.25-.36a5,5,0,0,0,.72-2.84,4.46,4.46,0,0,0-.41-1.85,14.54,14.54,0,0,0-2.58-3.84L86,234.59l-.41-.49-.21-.27a4.6,4.6,0,0,1-.37-.6s0,0,0,0l.27.09c.5.16,1,.33,1.51.48s.75.24,1.16.34l1.21.35.23.07c1.07.28,2.13.53,3.14.76-2.58,9.6-6.16,27.38-4.91,46,1.47,21.68,8.3,43,8.59,46.28a.66.66,0,0,0,0,.14c.23,9.77,1.33,20.31,6.6,28.75a6.46,6.46,0,0,0,3.14,2.71l0,0s0,0,0,0c3,5,6.27,5.09,6.27,5.09,3.88,3.5,7,3.47,7.51,3.46h.06s3.58,5.83,7.47,4.25c4.38-1.76-1.52-9.61-2.11-15.91a152.33,152.33,0,0,1-.36-18c.59-1.35,1.55-.81,2.76,2.2,1.38,3.39,3.86,17.76,8.81,16.46s1.12-21.57-1.55-27A77.46,77.46,0,0,0,128.18,319.34Z" style="opacity: 0.2; transform-origin: 250.212px 302.115px;" class="animable"></path></g><path d="M213,251.53c.82,7.19,15.49,10.19,21.44,11.46a171.58,171.58,0,0,0,25.49,2.75c12.79.47,25.76.62,38.37-1.8,4-1,8.62-1.83,11.61-4.93-2.86,3.27-7.48,4.27-11.51,5.41a121.8,121.8,0,0,1-25.63,2.5c-12.88.13-25.83-.57-38.48-3.18-6.09-1.42-20.71-4.78-21.29-12.21Z" style="fill: rgb(255, 255, 255); transform-origin: 261.455px 259.232px;" id="elg7d8925rrj" class="animable"></path><path d="M321.9,247.38c8,.12,35.18-.5,31.87-13.3a14.15,14.15,0,0,0-2.77-4.82,13.41,13.41,0,0,1,3.23,4.67c2.52,6.37-4.54,10.57-9.75,12-7.34,2.09-15.06,2.22-22.58,1.43Z" style="fill: rgb(255, 255, 255); transform-origin: 338.328px 238.534px;" id="el71e4poglhwc" class="animable"></path><path d="M150.54,256.17c11.39-1.4,54.78-4.8,56.79-17.77A6.91,6.91,0,0,1,206,242c-8.68,11-41.63,13.75-55.42,14.16Z" style="fill: rgb(255, 255, 255); transform-origin: 178.935px 247.285px;" id="elo471gf3uc7j" class="animable"></path><path d="M249,270.89a234.55,234.55,0,0,0,27.16.92c9-.25,18.16-.83,26.85-3.49a60.73,60.73,0,0,1-6.49,2.11,100.78,100.78,0,0,1-20.33,2.37A140.6,140.6,0,0,1,249,270.89Z" style="fill: rgb(255, 255, 255); transform-origin: 276.005px 270.586px;" id="eli365fule3b" class="animable"></path><path d="M49.27,223.6c3,6.51,20.55,10.39,27.34,10.47A33.29,33.29,0,0,0,81,234c-8.62,1.71-17.81-.35-25.54-4.36-2.4-1.45-5.41-3.1-6.15-6Z" style="fill: rgb(255, 255, 255); transform-origin: 65.135px 229.102px;" id="elbuujfqk41ji" class="animable"></path><path d="M92.84,272.38c2.68,5,8.69,11.72,14.55,7-5.31,6.33-13.21-1-14.55-7Z" style="fill: rgb(255, 255, 255); transform-origin: 100.115px 277.098px;" id="el7ajl3cuwyh4" class="animable"></path><path d="M120.3,256.17a71.87,71.87,0,0,0,22.15.52,33.53,33.53,0,0,1-22.15-.52Z" style="fill: rgb(255, 255, 255); transform-origin: 131.375px 257.246px;" id="elsjexsc1n58" class="animable"></path><path d="M51.17,231.21a73.64,73.64,0,0,0,19.14,4.35,29.47,29.47,0,0,1-19.14-4.35Z" style="fill: rgb(255, 255, 255); transform-origin: 60.74px 233.484px;" id="ell05w3mvjnmq" class="animable"></path><path d="M154.67,211.85c3.12-1.44,7.53-3.39,10.47-5.07,2.43-1.42,5.08-2.87,6.56-5.32a3.45,3.45,0,0,0,.35-2.73c2.69,6.54-12.6,12.11-17.38,13.12Z" style="fill: rgb(255, 255, 255); transform-origin: 163.517px 205.29px;" id="elgciwvdhxtf8" class="animable"></path><path d="M144.45,259.62c9.89-.39,20.15-1,30-2.12a86.28,86.28,0,0,1-30,2.12Z" style="fill: rgb(255, 255, 255); transform-origin: 159.45px 258.796px;" id="elte0wcsutmji" class="animable"></path></g><defs>     <filter id="active" height="200%">         <feMorphology in="SourceAlpha" result="DILATED" operator="dilate" radius="2"></feMorphology>                <feFlood flood-color="#32DFEC" flood-opacity="1" result="PINK"></feFlood>        <feComposite in="PINK" in2="DILATED" operator="in" result="OUTLINE"></feComposite>        <feMerge>            <feMergeNode in="OUTLINE"></feMergeNode>            <feMergeNode in="SourceGraphic"></feMergeNode>        </feMerge>    </filter>    <filter id="hover" height="200%">        <feMorphology in="SourceAlpha" result="DILATED" operator="dilate" radius="2"></feMorphology>                <feFlood flood-color="#ff0000" flood-opacity="0.5" result="PINK"></feFlood>        <feComposite in="PINK" in2="DILATED" operator="in" result="OUTLINE"></feComposite>        <feMerge>            <feMergeNode in="OUTLINE"></feMergeNode>            <feMergeNode in="SourceGraphic"></feMergeNode>        </feMerge>            <feColorMatrix type="matrix" values="0   0   0   0   0                0   1   0   0   0                0   0   0   0   0                0   0   0   1   0 "></feColorMatrix>    </filter></defs></svg>