<svg class="animated" id="freepik_stories-natural-resource-depletion" xmlns="http://www.w3.org/2000/svg" viewBox="0 0 500 500" version="1.1" xmlns:xlink="http://www.w3.org/1999/xlink" xmlns:svgjs="http://svgjs.com/svgjs"><style>svg#freepik_stories-natural-resource-depletion:not(.animated) .animable {opacity: 0;}svg#freepik_stories-natural-resource-depletion.animated #freepik--background-complete--inject-17 {animation: 1s 1 forwards cubic-bezier(.36,-0.01,.5,1.38) slideDown;animation-delay: 0.8s;opacity: 0}svg#freepik_stories-natural-resource-depletion.animated #freepik--Arrows--inject-17 {animation: 1s 1 forwards cubic-bezier(.36,-0.01,.5,1.38) slideDown,1.5s Infinite  linear floating;animation-delay: 0.5s,1.5s;opacity: 0}svg#freepik_stories-natural-resource-depletion.animated #freepik--World--inject-17 {animation: 1s 1 forwards cubic-bezier(.36,-0.01,.5,1.38) slideDown;animation-delay: 0s;}svg#freepik_stories-natural-resource-depletion.animated #freepik--petrol-can--inject-17 {animation: 1s 1 forwards cubic-bezier(.36,-0.01,.5,1.38) slideRight;animation-delay: 0s;}svg#freepik_stories-natural-resource-depletion.animated #freepik--Character--inject-17 {animation: 1s 1 forwards cubic-bezier(.36,-0.01,.5,1.38) slideLeft;animation-delay: 0s;}            @keyframes slideDown {                0% {                    opacity: 0;                    transform: translateY(-30px);                }                100% {                    opacity: 1;                    transform: translateY(0);                }            }                    @keyframes floating {                0% {                    opacity: 1;                    transform: translateY(0px);                }                50% {                    transform: translateY(-10px);                }                100% {                    opacity: 1;                    transform: translateY(0px);                }            }                    @keyframes slideRight {                0% {                    opacity: 0;                    transform: translateX(30px);                }                100% {                    opacity: 1;                    transform: translateX(0);                }            }                    @keyframes slideLeft {                0% {                    opacity: 0;                    transform: translateX(-30px);                }                100% {                    opacity: 1;                    transform: translateX(0);                }            }        </style><g id="freepik--background-complete--inject-17" class="animable" style="transform-origin: 249.994px 259.865px;"><polygon points="283.49 477.85 237.44 477.85 246.29 430.38 246.29 409.69 274.63 409.69 274.63 430.38 283.49 477.85" style="fill: rgb(219, 219, 219); transform-origin: 260.465px 443.77px;" id="elbvgz4llnwi" class="animable"></polygon><rect x="245.05" y="406.97" width="30.81" height="2.72" style="fill: rgb(199, 199, 199); transform-origin: 260.455px 408.33px;" id="elmvvz8mkd1xs" class="animable"></rect><g id="freepik--grupo--inject-17" class="animable" style="transform-origin: 260.46px 423.925px;"><path d="M260.45,430.32a6.29,6.29,0,0,1-6.37-6.41,6.38,6.38,0,0,1,12.76,0A6.3,6.3,0,0,1,260.45,430.32Z" style="fill: rgb(255, 255, 255); transform-origin: 260.46px 423.925px;" id="elri1qgx6nwyl" class="animable"></path><path d="M257.74,428.56l.73-1.35c.28-.5.55-1,.83-1.51a2.21,2.21,0,0,0,2.3,0c.53,1,1,1.89,1.57,2.85a5.38,5.38,0,0,1-2.72.71A5.47,5.47,0,0,1,257.74,428.56Z" style="fill: rgb(199, 199, 199); transform-origin: 260.455px 427.48px;" id="eln08ircgeru" class="animable"></path><path d="M261.51,422.09l1.64-2.75h0a5.42,5.42,0,0,1,2.65,4.51h-3.22A2.22,2.22,0,0,0,261.51,422.09Z" style="fill: rgb(199, 199, 199); transform-origin: 263.655px 421.595px;" id="eldd7opanxth6" class="animable"></path><path d="M255.12,423.8a5.41,5.41,0,0,1,2.69-4.49l1.64,2.76a2.2,2.2,0,0,0-1.1,1.73Z" style="fill: rgb(199, 199, 199); transform-origin: 257.285px 421.555px;" id="elqu2jku9sov" class="animable"></path><path d="M260.46,425.33a1.39,1.39,0,0,1-1.41-1.42,1.41,1.41,0,0,1,2.82,0A1.4,1.4,0,0,1,260.46,425.33Z" style="fill: rgb(199, 199, 199); transform-origin: 260.46px 423.915px;" id="el10ak0osdx81m" class="animable"></path></g><polygon points="334.32 477.85 288.27 477.85 297.13 430.38 297.13 409.69 325.47 409.69 325.47 430.38 334.32 477.85" style="fill: rgb(219, 219, 219); transform-origin: 311.295px 443.77px;" id="eldy38c0wh4v4" class="animable"></polygon><rect x="295.89" y="406.97" width="30.81" height="2.72" style="fill: rgb(199, 199, 199); transform-origin: 311.295px 408.33px;" id="elvyh0irlg6xb" class="animable"></rect><g id="freepik--grupo--inject-17" class="animable" style="transform-origin: 311.295px 424.047px;"><path d="M311.29,430.32a6.3,6.3,0,0,1-6.38-6.41,6.39,6.39,0,0,1,12.77,0A6.3,6.3,0,0,1,311.29,430.32Z" style="fill: rgb(255, 255, 255); transform-origin: 311.295px 424.047px;" id="elnlyhkqtnyai" class="animable"></path><path d="M308.58,428.56l.73-1.35c.27-.5.55-1,.83-1.51a2.21,2.21,0,0,0,2.3,0c.53,1,1,1.89,1.57,2.85a5.55,5.55,0,0,1-5.43,0Z" style="fill: rgb(199, 199, 199); transform-origin: 311.295px 427.48px;" id="el5sjjytsonny" class="animable"></path><path d="M312.35,422.09l1.64-2.75h0a5.42,5.42,0,0,1,2.65,4.51h-3.22A2.25,2.25,0,0,0,312.35,422.09Z" style="fill: rgb(199, 199, 199); transform-origin: 314.495px 421.595px;" id="els0hfdu8r2m" class="animable"></path><path d="M306,423.8a5.41,5.41,0,0,1,2.69-4.49l1.63,2.76a2.23,2.23,0,0,0-1.1,1.73Z" style="fill: rgb(199, 199, 199); transform-origin: 308.16px 421.555px;" id="elyz8g35pholi" class="animable"></path><path d="M311.3,425.33a1.39,1.39,0,0,1-1.41-1.42,1.42,1.42,0,0,1,1.39-1.4,1.43,1.43,0,0,1,1.43,1.41A1.4,1.4,0,0,1,311.3,425.33Z" style="fill: rgb(199, 199, 199); transform-origin: 311.3px 423.92px;" id="elv1m8slv0rmh" class="animable"></path></g><g id="elc5f9uvc46f"><path d="M115.71,347V311.29c0-8.09,6.82-17.77,8.29-23.66s-1.16-17.42,5.89-22.59,12.14-1.39,19.27-8.54,22.49-16.94,32.79-6.74-4.38,24.16-6.48,27.15-.09,10-6,15.75c-4.11,4-12.51,2.37-17.54,6.49-3.89,3.19-5.22,11.2-11.32,13.93s-12.85,1.64-16.09,4.72c-8,7.54-7.42,26.9-7.42,29.16Z" style="fill: rgb(235, 235, 235); opacity: 0.5; transform-origin: 150.645px 296.181px;" class="animable"></path></g><g id="eldgwh6bd896i"><path d="M155.66,347V329.41c0-8.1,9.68-8.22,11.15-14.11s1.87-12.9,8.81-18.22,12.66-4,15.74-6.93c4.14-3.91,5.31-7.85,9.48-12.95,5.27-6.43,14.91-5.76,17.85-.6,4.29,7.53-4.15,13.27-6.25,16.26s2.89,12.13-3,17.91c-4.11,4-12.51,2.38-17.54,6.5-3.89,3.18-3.64,8.15-9.74,10.88s-10.92-1.81-17.75,1.46c-4.82,2.3-7.34,15.09-7.34,17.35Z" style="fill: rgb(235, 235, 235); opacity: 0.5; transform-origin: 187.775px 309.777px;" class="animable"></path></g><g id="elryjjuei7xsr"><rect x="93.59" y="394.03" width="65.22" height="83.82" style="fill: rgb(219, 219, 219); transform-origin: 126.2px 435.94px; transform: rotate(180deg);" class="animable"></rect></g><g id="elxeezafl8wg"><rect x="93.59" y="394.03" width="65.22" height="83.82" style="fill: rgb(255, 255, 255); opacity: 0.4; transform-origin: 126.2px 435.94px; transform: rotate(180deg);" class="animable"></rect></g><g id="eloykdr9po2ih"><rect x="93.59" y="394.03" width="65.22" height="2.24" style="fill: rgb(219, 219, 219); transform-origin: 126.2px 395.15px; transform: rotate(180deg);" class="animable"></rect></g><g id="el725ee1t78ie"><rect x="143.34" y="399.56" width="9.35" height="7.55" style="fill: rgb(219, 219, 219); transform-origin: 148.015px 403.335px; transform: rotate(180deg);" class="animable"></rect></g><g id="elxrqkd6qlq3"><rect x="128.8" y="399.56" width="9.35" height="7.55" style="fill: rgb(219, 219, 219); transform-origin: 133.475px 403.335px; transform: rotate(180deg);" class="animable"></rect></g><g id="el006denessh11s"><rect x="114.26" y="399.56" width="9.35" height="7.55" style="fill: rgb(219, 219, 219); transform-origin: 118.935px 403.335px; transform: rotate(180deg);" class="animable"></rect></g><g id="elp258kc37nj"><rect x="99.72" y="399.56" width="9.35" height="7.55" style="fill: rgb(219, 219, 219); transform-origin: 104.395px 403.335px; transform: rotate(180deg);" class="animable"></rect></g><polygon points="99.72 400.15 99.72 403.83 103.77 407.11 108.34 407.11 99.72 400.15" style="fill: rgb(255, 255, 255); transform-origin: 104.03px 403.63px;" id="elqu6lg72digj" class="animable"></polygon><polygon points="128.8 399.56 128.8 399.64 138.04 407.11 138.15 407.11 138.15 405.34 130.98 399.56 128.8 399.56" style="fill: rgb(255, 255, 255); transform-origin: 133.475px 403.335px;" id="elhky23i9q6ci" class="animable"></polygon><polygon points="128.8 403.14 128.8 404.06 132.56 407.11 133.71 407.11 128.8 403.14" style="fill: rgb(255, 255, 255); transform-origin: 131.255px 405.125px;" id="elxklz0ul8sgs" class="animable"></polygon><polygon points="143.34 399.74 143.34 400.65 151.34 407.11 152.47 407.11 143.34 399.74" style="fill: rgb(255, 255, 255); transform-origin: 147.905px 403.425px;" id="elytupigo1t1k" class="animable"></polygon><polygon points="102.59 399.56 109.07 404.79 109.07 403.86 103.74 399.56 102.59 399.56" style="fill: rgb(255, 255, 255); transform-origin: 105.83px 402.175px;" id="elj6iau3itsu" class="animable"></polygon><polygon points="132.11 348.72 140.93 348.72 144.03 394.03 129.01 394.03 132.11 348.72" style="fill: rgb(219, 219, 219); transform-origin: 136.52px 371.375px;" id="elvd2upxa179" class="animable"></polygon><polygon points="131.11 363.39 141.94 363.39 141.52 357.43 131.52 357.43 131.11 363.39" style="fill: rgb(199, 199, 199); transform-origin: 136.525px 360.41px;" id="el2v2lexzq1ng" class="animable"></polygon><g id="elgqajxuracqm"><rect x="131.25" y="346.96" width="10.53" height="1.77" style="fill: rgb(199, 199, 199); transform-origin: 136.515px 347.845px; transform: rotate(180deg);" class="animable"></rect></g><polygon points="112.1 348.72 120.92 348.72 124.01 394.03 109 394.03 112.1 348.72" style="fill: rgb(219, 219, 219); transform-origin: 116.505px 371.375px;" id="elq11j0pri91" class="animable"></polygon><polygon points="111.09 363.39 121.92 363.39 121.51 357.43 111.5 357.43 111.09 363.39" style="fill: rgb(199, 199, 199); transform-origin: 116.505px 360.41px;" id="elk8i6abtanfg" class="animable"></polygon><g id="el80njt25t7s"><rect x="111.24" y="346.96" width="10.53" height="1.77" style="fill: rgb(199, 199, 199); transform-origin: 116.505px 347.845px; transform: rotate(180deg);" class="animable"></rect></g><polygon points="152.13 348.72 160.94 348.72 164.04 394.03 149.03 394.03 152.13 348.72" style="fill: rgb(219, 219, 219); transform-origin: 156.535px 371.375px;" id="elu4z176ahzgm" class="animable"></polygon><polygon points="151.12 363.39 161.95 363.39 161.54 357.43 151.53 357.43 151.12 363.39" style="fill: rgb(199, 199, 199); transform-origin: 156.535px 360.41px;" id="el2tffjvw8u3f" class="animable"></polygon><g id="elgzehcfomy3f"><rect x="151.27" y="346.96" width="10.53" height="1.77" style="fill: rgb(199, 199, 199); transform-origin: 156.535px 347.845px; transform: rotate(180deg);" class="animable"></rect></g><g id="elhh324a68m37"><rect x="158.81" y="394.03" width="26.92" height="83.82" style="fill: rgb(219, 219, 219); transform-origin: 172.27px 435.94px; transform: rotate(180deg);" class="animable"></rect></g><g id="el9ye6lod0kkd"><rect x="158.81" y="394.03" width="26.92" height="83.82" style="fill: rgb(255, 255, 255); opacity: 0.2; transform-origin: 172.27px 435.94px; transform: rotate(180deg);" class="animable"></rect></g><g id="elapsu18jwt17"><rect x="158.81" y="394.03" width="26.92" height="2.24" style="fill: rgb(219, 219, 219); transform-origin: 172.27px 395.15px; transform: rotate(180deg);" class="animable"></rect></g><g id="elzvden5t9uba"><rect x="167.6" y="399.56" width="9.35" height="7.55" style="fill: rgb(219, 219, 219); transform-origin: 172.275px 403.335px; transform: rotate(180deg);" class="animable"></rect></g><polygon points="167.6 401.11 167.6 404.81 170.45 407.11 175.02 407.11 167.6 401.11" style="fill: rgb(255, 255, 255); transform-origin: 171.31px 404.11px;" id="ell5po1emogu7" class="animable"></polygon><g id="eluvuyzx4un3"><path d="M135.54,347c0-12-4.53-21.82-2.87-30.25s11.85-11,13.81-16.62-1.58-22.14,4.86-31,24.35-6.33,31.58-11.75c4.94-3.7,8.86-11.06,15.59-14.23,6.56-3.08,14-.36,18.15-2.18,6.17-2.73,17.58-12.25,26.65-2.26,6.1,6.71,3.54,19.73-9.94,23.34-3.64,1-9,2.69-11.52,4.75-5.25,4.34-6.51,10-14.08,12.27-11.14,3.31-15.36.75-20.93,4.89-4.6,3.42-3.77,13.18-8.43,17.25s-14.39,4-18.31,6.6-4.38,6.31-9.45,10c-2.43,1.78-8,1.72-9.52,4.14-3.28,5.32-4,14.59-4,25Z" style="fill: rgb(219, 219, 219); opacity: 0.5; transform-origin: 189.372px 290.624px;" class="animable"></path></g><g id="el1jchhwjtw5j"><rect x="169.57" y="408.96" width="26.92" height="68.89" style="fill: rgb(219, 219, 219); transform-origin: 183.03px 443.405px; transform: rotate(180deg);" class="animable"></rect></g><g id="elhb4t0ezrl3p"><rect x="169.57" y="408.96" width="26.92" height="68.89" style="fill: rgb(255, 255, 255); opacity: 0.4; transform-origin: 183.03px 443.405px; transform: rotate(180deg);" class="animable"></rect></g><g id="ellfgv1kxcqib"><rect x="169.57" y="408.96" width="26.92" height="2.24" style="fill: rgb(219, 219, 219); transform-origin: 183.03px 410.08px; transform: rotate(180deg);" class="animable"></rect></g><g id="elwlezmp3y7h"><rect x="175.21" y="415.4" width="15.64" height="18.31" style="fill: rgb(219, 219, 219); transform-origin: 183.03px 424.555px; transform: rotate(180deg);" class="animable"></rect></g><polygon points="180.73 415.4 190.85 423.57 190.85 419.88 185.3 415.4 180.73 415.4" style="fill: rgb(255, 255, 255); transform-origin: 185.79px 419.485px;" id="el2wt8d5ljc2p" class="animable"></polygon><polygon points="175.43 415.4 190.85 427.85 190.85 426.93 176.57 415.4 175.43 415.4" style="fill: rgb(255, 255, 255); transform-origin: 183.14px 421.625px;" id="elzlqt82n9r1f" class="animable"></polygon><polygon points="175.21 425.46 175.21 426.38 184.3 433.72 185.44 433.72 175.21 425.46" style="fill: rgb(255, 255, 255); transform-origin: 180.325px 429.59px;" id="elfc37w7zshvc" class="animable"></polygon><g id="elundj7fbyza8"><rect x="82.84" y="408.96" width="86.73" height="68.89" style="fill: rgb(219, 219, 219); transform-origin: 126.205px 443.405px; transform: rotate(180deg);" class="animable"></rect></g><g id="elghcnxf7gyh8"><rect x="82.84" y="408.96" width="86.73" height="68.89" style="fill: rgb(255, 255, 255); opacity: 0.6; transform-origin: 126.205px 443.405px; transform: rotate(180deg);" class="animable"></rect></g><g id="elyaqpwx87nur"><rect x="82.84" y="408.96" width="86.73" height="2.24" style="fill: rgb(219, 219, 219); transform-origin: 126.205px 410.08px; transform: rotate(180deg);" class="animable"></rect></g><g id="eltocnpe3vby9"><rect x="148.27" y="415.4" width="15.64" height="18.31" style="fill: rgb(219, 219, 219); transform-origin: 156.09px 424.555px; transform: rotate(180deg);" class="animable"></rect></g><g id="eluj5825145br"><rect x="128.35" y="415.4" width="15.64" height="18.31" style="fill: rgb(219, 219, 219); transform-origin: 136.17px 424.555px; transform: rotate(180deg);" class="animable"></rect></g><g id="elywfc0ibudi"><rect x="108.42" y="415.4" width="15.64" height="18.31" style="fill: rgb(219, 219, 219); transform-origin: 116.24px 424.555px; transform: rotate(180deg);" class="animable"></rect></g><g id="elc2osc9wcigh"><rect x="88.49" y="415.4" width="15.64" height="18.31" style="fill: rgb(219, 219, 219); transform-origin: 96.31px 424.555px; transform: rotate(180deg);" class="animable"></rect></g><polygon points="124.06 432.54 108.42 419.91 108.42 423.6 120.95 433.72 124.06 433.72 124.06 432.54" style="fill: rgb(255, 255, 255); transform-origin: 116.24px 426.815px;" id="el0xgxohk8tv6" class="animable"></polygon><polygon points="98.27 415.4 104.14 420.14 104.14 416.45 102.83 415.4 98.27 415.4" style="fill: rgb(255, 255, 255); transform-origin: 101.205px 417.77px;" id="el6a957nk0b2f" class="animable"></polygon><polygon points="141.3 433.72 128.35 423.26 128.35 426.95 136.74 433.72 141.3 433.72" style="fill: rgb(255, 255, 255); transform-origin: 134.825px 428.49px;" id="elsxm8ajuuqys" class="animable"></polygon><polygon points="114.05 415.4 124.06 423.48 124.06 419.8 118.62 415.4 114.05 415.4" style="fill: rgb(255, 255, 255); transform-origin: 119.055px 419.44px;" id="eli6pja4yq8pb" class="animable"></polygon><polygon points="148.32 415.4 163.91 427.99 163.91 426.14 150.61 415.4 148.32 415.4" style="fill: rgb(255, 255, 255); transform-origin: 156.115px 421.695px;" id="elyc6dazjm54" class="animable"></polygon><polygon points="88.49 418.4 88.49 420.25 104.14 432.88 104.14 431.03 88.49 418.4" style="fill: rgb(255, 255, 255); transform-origin: 96.315px 425.64px;" id="el6flbvf8fva" class="animable"></polygon><polygon points="163.91 431.49 148.27 418.86 148.27 419.78 163.91 432.42 163.91 431.49" style="fill: rgb(255, 255, 255); transform-origin: 156.09px 425.64px;" id="eldpvjbxgbrjs" class="animable"></polygon><polygon points="142.84 415.4 143.99 416.33 143.99 415.4 142.84 415.4" style="fill: rgb(255, 255, 255); transform-origin: 143.415px 415.865px;" id="elkdrifq1olrn" class="animable"></polygon><polygon points="161.61 415.4 163.91 417.26 163.91 416.34 162.75 415.4 161.61 415.4" style="fill: rgb(255, 255, 255); transform-origin: 162.76px 416.33px;" id="elwzuerj4pvni" class="animable"></polygon><polygon points="88.49 426.37 88.49 427.29 96.45 433.72 97.59 433.72 88.49 426.37" style="fill: rgb(255, 255, 255); transform-origin: 93.04px 430.045px;" id="elhnd6idzj1vt" class="animable"></polygon><polygon points="143.99 432.05 128.35 419.42 128.35 420.35 143.99 432.98 143.99 432.05" style="fill: rgb(255, 255, 255); transform-origin: 136.17px 426.2px;" id="elcy89c046por" class="animable"></polygon><polygon points="122.22 415.4 124.06 416.89 124.06 415.96 123.37 415.4 122.22 415.4" style="fill: rgb(255, 255, 255); transform-origin: 123.14px 416.145px;" id="el57nyzvlprj" class="animable"></polygon><polygon points="50.04 477.85 82.84 477.85 82.84 408.96 50.04 396.12 50.04 477.85" style="fill: rgb(219, 219, 219); transform-origin: 66.44px 436.985px;" id="elwimnphm914" class="animable"></polygon><g id="elncufwr68y"><polygon points="50.04 477.85 82.84 477.85 82.84 408.96 50.04 396.12 50.04 477.85" style="fill: rgb(255, 255, 255); opacity: 0.6; transform-origin: 66.44px 436.985px;" class="animable"></polygon></g><polygon points="82.84 408.96 82.84 411.2 50.04 401.82 50.04 396.12 82.84 408.96" style="fill: rgb(219, 219, 219); transform-origin: 66.44px 403.66px;" id="elms60vlxrril" class="animable"></polygon><g id="el7b9k6fw3d3i"><rect x="49.36" y="437.35" width="147.13" height="1.39" style="fill: rgb(219, 219, 219); transform-origin: 122.925px 438.045px; transform: rotate(180deg);" class="animable"></rect></g><g id="elzeyevabaxt"><rect x="49.36" y="442.03" width="147.13" height="1.39" style="fill: rgb(219, 219, 219); transform-origin: 122.925px 442.725px; transform: rotate(180deg);" class="animable"></rect></g><g id="eloj6dz9zhdo"><rect x="193.98" y="438.75" width="0.84" height="3.29" style="fill: rgb(219, 219, 219); transform-origin: 194.4px 440.395px; transform: rotate(180deg);" class="animable"></rect></g><g id="ele9wly05n5nf"><rect x="190.18" y="438.75" width="0.84" height="3.29" style="fill: rgb(219, 219, 219); transform-origin: 190.6px 440.395px; transform: rotate(180deg);" class="animable"></rect></g><g id="elofy0ms7pg8"><rect x="186.37" y="438.75" width="0.84" height="3.29" style="fill: rgb(219, 219, 219); transform-origin: 186.79px 440.395px; transform: rotate(180deg);" class="animable"></rect></g><g id="el7vw1k3111r"><rect x="182.56" y="438.75" width="0.84" height="3.29" style="fill: rgb(219, 219, 219); transform-origin: 182.98px 440.395px; transform: rotate(180deg);" class="animable"></rect></g><g id="el5071nxc6og9"><rect x="178.76" y="438.75" width="0.84" height="3.29" style="fill: rgb(219, 219, 219); transform-origin: 179.18px 440.395px; transform: rotate(180deg);" class="animable"></rect></g><g id="el6lkeltka7co"><rect x="174.95" y="438.75" width="0.84" height="3.29" style="fill: rgb(219, 219, 219); transform-origin: 175.37px 440.395px; transform: rotate(180deg);" class="animable"></rect></g><g id="el5who10ngww"><rect x="171.15" y="438.75" width="0.84" height="3.29" style="fill: rgb(219, 219, 219); transform-origin: 171.57px 440.395px; transform: rotate(180deg);" class="animable"></rect></g><g id="el8nmo9p3mg6f"><rect x="167.34" y="438.75" width="0.84" height="3.29" style="fill: rgb(219, 219, 219); transform-origin: 167.76px 440.395px; transform: rotate(180deg);" class="animable"></rect></g><g id="elt6zm0pz47ed"><rect x="163.54" y="438.75" width="0.84" height="3.29" style="fill: rgb(219, 219, 219); transform-origin: 163.96px 440.395px; transform: rotate(180deg);" class="animable"></rect></g><g id="elbyhoj7snhxq"><rect x="159.73" y="438.75" width="0.84" height="3.29" style="fill: rgb(219, 219, 219); transform-origin: 160.15px 440.395px; transform: rotate(180deg);" class="animable"></rect></g><g id="eln3865ppb5u"><rect x="155.92" y="438.75" width="0.84" height="3.29" style="fill: rgb(219, 219, 219); transform-origin: 156.34px 440.395px; transform: rotate(180deg);" class="animable"></rect></g><g id="ely4ibvhb61d8"><rect x="152.12" y="438.75" width="0.84" height="3.29" style="fill: rgb(219, 219, 219); transform-origin: 152.54px 440.395px; transform: rotate(180deg);" class="animable"></rect></g><g id="elr509ts00ubp"><rect x="148.31" y="438.75" width="0.84" height="3.29" style="fill: rgb(219, 219, 219); transform-origin: 148.73px 440.395px; transform: rotate(180deg);" class="animable"></rect></g><g id="eluj2jzzwa97b"><rect x="144.51" y="438.75" width="0.84" height="3.29" style="fill: rgb(219, 219, 219); transform-origin: 144.93px 440.395px; transform: rotate(180deg);" class="animable"></rect></g><g id="elvmbm5j1xvcg"><rect x="140.7" y="438.75" width="0.84" height="3.29" style="fill: rgb(219, 219, 219); transform-origin: 141.12px 440.395px; transform: rotate(180deg);" class="animable"></rect></g><g id="elj5ms5li5t7"><rect x="136.89" y="438.75" width="0.84" height="3.29" style="fill: rgb(219, 219, 219); transform-origin: 137.31px 440.395px; transform: rotate(180deg);" class="animable"></rect></g><g id="eldjdj95o9ij"><rect x="133.09" y="438.75" width="0.84" height="3.29" style="fill: rgb(219, 219, 219); transform-origin: 133.51px 440.395px; transform: rotate(180deg);" class="animable"></rect></g><g id="eliauvdz9nz4k"><rect x="129.28" y="438.75" width="0.84" height="3.29" style="fill: rgb(219, 219, 219); transform-origin: 129.7px 440.395px; transform: rotate(180deg);" class="animable"></rect></g><g id="elt4zge9fxkf9"><rect x="125.48" y="438.75" width="0.84" height="3.29" style="fill: rgb(219, 219, 219); transform-origin: 125.9px 440.395px; transform: rotate(180deg);" class="animable"></rect></g><g id="elswuzctbqyiq"><rect x="121.67" y="438.75" width="0.84" height="3.29" style="fill: rgb(219, 219, 219); transform-origin: 122.09px 440.395px; transform: rotate(180deg);" class="animable"></rect></g><g id="el1pz2spicqc6"><rect x="117.86" y="438.75" width="0.84" height="3.29" style="fill: rgb(219, 219, 219); transform-origin: 118.28px 440.395px; transform: rotate(180deg);" class="animable"></rect></g><g id="elsok20xp0m8"><rect x="114.06" y="438.75" width="0.84" height="3.29" style="fill: rgb(219, 219, 219); transform-origin: 114.48px 440.395px; transform: rotate(180deg);" class="animable"></rect></g><g id="el40k8j54xogj"><rect x="110.25" y="438.75" width="0.84" height="3.29" style="fill: rgb(219, 219, 219); transform-origin: 110.67px 440.395px; transform: rotate(180deg);" class="animable"></rect></g><g id="eln29oyuv1i5"><rect x="106.45" y="438.75" width="0.84" height="3.29" style="fill: rgb(219, 219, 219); transform-origin: 106.87px 440.395px; transform: rotate(180deg);" class="animable"></rect></g><g id="eld7577q67l3n"><rect x="102.64" y="438.75" width="0.84" height="3.29" style="fill: rgb(219, 219, 219); transform-origin: 103.06px 440.395px; transform: rotate(180deg);" class="animable"></rect></g><g id="elkcg6tta78bg"><rect x="98.83" y="438.75" width="0.84" height="3.29" style="fill: rgb(219, 219, 219); transform-origin: 99.25px 440.395px; transform: rotate(180deg);" class="animable"></rect></g><g id="el60mc4dcmx99"><rect x="95.03" y="438.75" width="0.84" height="3.29" style="fill: rgb(219, 219, 219); transform-origin: 95.45px 440.395px; transform: rotate(180deg);" class="animable"></rect></g><g id="eldhr6irq23pc"><rect x="91.22" y="438.75" width="0.84" height="3.29" style="fill: rgb(219, 219, 219); transform-origin: 91.64px 440.395px; transform: rotate(180deg);" class="animable"></rect></g><g id="elfws6b092m2"><rect x="87.42" y="438.75" width="0.84" height="3.29" style="fill: rgb(219, 219, 219); transform-origin: 87.84px 440.395px; transform: rotate(180deg);" class="animable"></rect></g><g id="el8ibmjny2fpu"><rect x="83.61" y="438.75" width="0.84" height="3.29" style="fill: rgb(219, 219, 219); transform-origin: 84.03px 440.395px; transform: rotate(180deg);" class="animable"></rect></g><g id="el2hwa8wkx39"><rect x="79.8" y="438.75" width="0.84" height="3.29" style="fill: rgb(219, 219, 219); transform-origin: 80.22px 440.395px; transform: rotate(180deg);" class="animable"></rect></g><g id="el6jc2agslzrq"><rect x="76" y="438.75" width="0.84" height="3.29" style="fill: rgb(219, 219, 219); transform-origin: 76.42px 440.395px; transform: rotate(180deg);" class="animable"></rect></g><g id="ela5kprfw5snm"><rect x="72.19" y="438.75" width="0.84" height="3.29" style="fill: rgb(219, 219, 219); transform-origin: 72.61px 440.395px; transform: rotate(180deg);" class="animable"></rect></g><g id="el7podo1k6gg"><rect x="68.39" y="438.75" width="0.84" height="3.29" style="fill: rgb(219, 219, 219); transform-origin: 68.81px 440.395px; transform: rotate(180deg);" class="animable"></rect></g><g id="elbd38ushdt95"><rect x="64.58" y="438.75" width="0.84" height="3.29" style="fill: rgb(219, 219, 219); transform-origin: 65px 440.395px; transform: rotate(180deg);" class="animable"></rect></g><g id="elrvcz4o3we2"><rect x="60.77" y="438.75" width="0.84" height="3.29" style="fill: rgb(219, 219, 219); transform-origin: 61.19px 440.395px; transform: rotate(180deg);" class="animable"></rect></g><g id="eln4r31rcwi8l"><rect x="56.97" y="438.75" width="0.84" height="3.29" style="fill: rgb(219, 219, 219); transform-origin: 57.39px 440.395px; transform: rotate(180deg);" class="animable"></rect></g><g id="elbo8ws13adqr"><rect x="53.16" y="438.75" width="0.84" height="3.29" style="fill: rgb(219, 219, 219); transform-origin: 53.58px 440.395px; transform: rotate(180deg);" class="animable"></rect></g><g id="elhhwewjyrn26"><rect x="49.36" y="438.75" width="0.84" height="3.29" style="fill: rgb(219, 219, 219); transform-origin: 49.78px 440.395px; transform: rotate(180deg);" class="animable"></rect></g><path d="M67.7,477.85h3.62V424.38a.87.87,0,0,1,.87-.87h2.24v-3.63H72.19a4.5,4.5,0,0,0-4.49,4.5Z" style="fill: rgb(219, 219, 219); transform-origin: 71.065px 448.865px;" id="el986ye833hg7" class="animable"></path><g id="elnvl6ih0yhxc"><path d="M67.7,477.85h3.62V424.38a.87.87,0,0,1,.87-.87h2.24v-3.63H72.19a4.5,4.5,0,0,0-4.49,4.5Z" style="opacity: 0.1; transform-origin: 71.065px 448.865px;" class="animable"></path></g><g id="elhqqlohc6qz"><g style="opacity: 0.1; transform-origin: 70.3637px 448.004px;" class="animable"><path d="M72.9,423.51a13,13,0,0,1,0-3.63,13,13,0,0,1,0,3.63Z" id="eluvavm73b5ce" class="animable" style="transform-origin: 72.9px 421.695px;"></path><path d="M71.32,426.79a12.91,12.91,0,0,1-3.62,0,12.91,12.91,0,0,1,3.62,0Z" id="el33wjbuxg0bi" class="animable" style="transform-origin: 69.51px 426.79px;"></path><path d="M71.32,428.55a13.3,13.3,0,0,1-3.62,0,12.91,12.91,0,0,1,3.62,0Z" id="elkumakldqf7o" class="animable" style="transform-origin: 69.51px 428.548px;"></path><path d="M71.32,430.3a12.91,12.91,0,0,1-3.62,0,13.3,13.3,0,0,1,3.62,0Z" id="elr65tsaj7yo" class="animable" style="transform-origin: 69.51px 430.302px;"></path><path d="M71.32,432.06a12.91,12.91,0,0,1-3.62,0,12.91,12.91,0,0,1,3.62,0Z" id="elex3uyaro2f9" class="animable" style="transform-origin: 69.51px 432.06px;"></path><path d="M71.32,433.82a12.91,12.91,0,0,1-3.62,0,12.91,12.91,0,0,1,3.62,0Z" id="el34ollk1pw6w" class="animable" style="transform-origin: 69.51px 433.82px;"></path><path d="M71.32,435.57a12.91,12.91,0,0,1-3.62,0,13.71,13.71,0,0,1,3.62,0Z" id="el27qunfihwg7" class="animable" style="transform-origin: 69.51px 435.574px;"></path><path d="M71.32,437.33a12.91,12.91,0,0,1-3.62,0,12.91,12.91,0,0,1,3.62,0Z" id="el920lsj9dte" class="animable" style="transform-origin: 69.51px 437.33px;"></path><path d="M71.32,439.09a12.91,12.91,0,0,1-3.62,0,12.91,12.91,0,0,1,3.62,0Z" id="eln5dwoz7ekn" class="animable" style="transform-origin: 69.51px 439.09px;"></path><path d="M71.32,440.85a13.71,13.71,0,0,1-3.62,0,12.91,12.91,0,0,1,3.62,0Z" id="elytmavpiee5" class="animable" style="transform-origin: 69.51px 440.846px;"></path><path d="M71.32,442.6a12.91,12.91,0,0,1-3.62,0,12.91,12.91,0,0,1,3.62,0Z" id="el3aiivsvwjq8" class="animable" style="transform-origin: 69.51px 442.6px;"></path><path d="M71.32,444.36a12.91,12.91,0,0,1-3.62,0,12.91,12.91,0,0,1,3.62,0Z" id="el3ioukt120lt" class="animable" style="transform-origin: 69.51px 444.36px;"></path><path d="M71.32,446.12a13.3,13.3,0,0,1-3.62,0,12.91,12.91,0,0,1,3.62,0Z" id="elk6ac4bzrvld" class="animable" style="transform-origin: 69.51px 446.118px;"></path><path d="M71.32,447.87a12.91,12.91,0,0,1-3.62,0,13.3,13.3,0,0,1,3.62,0Z" id="el0kjxibm62cw" class="animable" style="transform-origin: 69.51px 447.872px;"></path><path d="M71.32,449.63a12.91,12.91,0,0,1-3.62,0,12.91,12.91,0,0,1,3.62,0Z" id="el1xfhyvrp1bj" class="animable" style="transform-origin: 69.51px 449.63px;"></path><path d="M71.32,451.39a13.3,13.3,0,0,1-3.62,0,12.91,12.91,0,0,1,3.62,0Z" id="el3r1elqf6tbk" class="animable" style="transform-origin: 69.51px 451.388px;"></path><path d="M71.32,453.14a12.91,12.91,0,0,1-3.62,0,13.3,13.3,0,0,1,3.62,0Z" id="elwcbjw411hv9" class="animable" style="transform-origin: 69.51px 453.142px;"></path><path d="M71.32,454.9a12.91,12.91,0,0,1-3.62,0,12.91,12.91,0,0,1,3.62,0Z" id="el6yugcj7cf" class="animable" style="transform-origin: 69.51px 454.9px;"></path><path d="M71.32,456.66a12.91,12.91,0,0,1-3.62,0,12.91,12.91,0,0,1,3.62,0Z" id="elwiwe9ps4t8" class="animable" style="transform-origin: 69.51px 456.66px;"></path><path d="M71.32,458.41a12.91,12.91,0,0,1-3.62,0,13.71,13.71,0,0,1,3.62,0Z" id="elhabfwgyc7t8" class="animable" style="transform-origin: 69.51px 458.414px;"></path><path d="M71.32,460.17a12.91,12.91,0,0,1-3.62,0,12.91,12.91,0,0,1,3.62,0Z" id="ellthve01axwq" class="animable" style="transform-origin: 69.51px 460.17px;"></path><path d="M71.32,461.93a12.91,12.91,0,0,1-3.62,0,12.91,12.91,0,0,1,3.62,0Z" id="elnpsdg7rxyp" class="animable" style="transform-origin: 69.51px 461.93px;"></path><path d="M71.32,463.69a13.71,13.71,0,0,1-3.62,0,12.91,12.91,0,0,1,3.62,0Z" id="el3k2ttpumrat" class="animable" style="transform-origin: 69.51px 463.686px;"></path><path d="M71.32,465.44a12.91,12.91,0,0,1-3.62,0,12.91,12.91,0,0,1,3.62,0Z" id="elj7wielu0wn" class="animable" style="transform-origin: 69.51px 465.44px;"></path><path d="M71.32,467.2a12.91,12.91,0,0,1-3.62,0,12.91,12.91,0,0,1,3.62,0Z" id="eljlhtf4h991n" class="animable" style="transform-origin: 69.51px 467.2px;"></path><path d="M71.32,469a13.3,13.3,0,0,1-3.62,0,12.91,12.91,0,0,1,3.62,0Z" id="elv4he2gemcxo" class="animable" style="transform-origin: 69.51px 468.998px;"></path><path d="M71.32,470.71a12.91,12.91,0,0,1-3.62,0,13.3,13.3,0,0,1,3.62,0Z" id="el02nm79z4wfkx" class="animable" style="transform-origin: 69.51px 470.712px;"></path><path d="M71.32,472.47a12.91,12.91,0,0,1-3.62,0,12.91,12.91,0,0,1,3.62,0Z" id="el8i7vserlagh" class="animable" style="transform-origin: 69.51px 472.47px;"></path><path d="M71.32,474.23a13.3,13.3,0,0,1-3.62,0,12.91,12.91,0,0,1,3.62,0Z" id="eloabtinnef7" class="animable" style="transform-origin: 69.51px 474.228px;"></path><path d="M71.32,476a12.91,12.91,0,0,1-3.62,0,13.3,13.3,0,0,1,3.62,0Z" id="elk13hfyfnzq" class="animable" style="transform-origin: 69.51px 476.002px;"></path><path d="M71.72,423.64a13.17,13.17,0,0,1-1.93-3.06,13,13,0,0,1,1.93,3.06Z" id="el7pzia3a4ot" class="animable" style="transform-origin: 70.755px 422.11px;"></path><path d="M71.34,424.19A13.3,13.3,0,0,1,68,422.81a13,13,0,0,1,3.36,1.38Z" id="ell3raxkz1v1o" class="animable" style="transform-origin: 69.68px 423.5px;"></path><path d="M71.32,425a13.31,13.31,0,0,1-3.62.13,12.56,12.56,0,0,1,3.62-.13Z" id="eltha8ujmr6w" class="animable" style="transform-origin: 69.51px 425.061px;"></path></g></g><path d="M58.46,477.85h3.62V424.38a.87.87,0,0,1,.87-.87h2.23v-3.63H63a4.5,4.5,0,0,0-4.49,4.5Z" style="fill: rgb(219, 219, 219); transform-origin: 61.82px 448.865px;" id="elr6hddfzciu9" class="animable"></path><g id="elqjo8vjwherd"><path d="M58.46,477.85h3.62V424.38a.87.87,0,0,1,.87-.87h2.23v-3.63H63a4.5,4.5,0,0,0-4.49,4.5Z" style="opacity: 0.1; transform-origin: 61.82px 448.865px;" class="animable"></path></g><g id="elz2o5ke5q4tf"><g style="opacity: 0.1; transform-origin: 61.1237px 448.004px;" class="animable"><path d="M63.66,423.51a13,13,0,0,1,0-3.63,13,13,0,0,1,0,3.63Z" id="el2965ko8bcey" class="animable" style="transform-origin: 63.66px 421.695px;"></path><path d="M62.08,426.79a12.91,12.91,0,0,1-3.62,0,12.91,12.91,0,0,1,3.62,0Z" id="elip9g7rm767c" class="animable" style="transform-origin: 60.27px 426.79px;"></path><path d="M62.08,428.55a13.3,13.3,0,0,1-3.62,0,12.91,12.91,0,0,1,3.62,0Z" id="elan2ad5oifrj" class="animable" style="transform-origin: 60.27px 428.548px;"></path><path d="M62.08,430.3a12.91,12.91,0,0,1-3.62,0,13.3,13.3,0,0,1,3.62,0Z" id="elbcj8odvce6s" class="animable" style="transform-origin: 60.27px 430.302px;"></path><path d="M62.08,432.06a12.91,12.91,0,0,1-3.62,0,12.91,12.91,0,0,1,3.62,0Z" id="el2jw75ay8smg" class="animable" style="transform-origin: 60.27px 432.06px;"></path><path d="M62.08,433.82a12.91,12.91,0,0,1-3.62,0,12.91,12.91,0,0,1,3.62,0Z" id="elv9jit7dpuof" class="animable" style="transform-origin: 60.27px 433.82px;"></path><path d="M62.08,435.57a12.91,12.91,0,0,1-3.62,0,13.71,13.71,0,0,1,3.62,0Z" id="elutt88cbfq7c" class="animable" style="transform-origin: 60.27px 435.574px;"></path><path d="M62.08,437.33a12.91,12.91,0,0,1-3.62,0,12.91,12.91,0,0,1,3.62,0Z" id="elc9x493tlmn5" class="animable" style="transform-origin: 60.27px 437.33px;"></path><path d="M62.08,439.09a12.91,12.91,0,0,1-3.62,0,12.91,12.91,0,0,1,3.62,0Z" id="elfl5xoxa2c5g" class="animable" style="transform-origin: 60.27px 439.09px;"></path><path d="M62.08,440.85a13.71,13.71,0,0,1-3.62,0,12.91,12.91,0,0,1,3.62,0Z" id="el83l67293ze8" class="animable" style="transform-origin: 60.27px 440.846px;"></path><path d="M62.08,442.6a12.91,12.91,0,0,1-3.62,0,12.91,12.91,0,0,1,3.62,0Z" id="elkunaud9dp8" class="animable" style="transform-origin: 60.27px 442.6px;"></path><path d="M62.08,444.36a12.91,12.91,0,0,1-3.62,0,12.91,12.91,0,0,1,3.62,0Z" id="el86hmu71p8zl" class="animable" style="transform-origin: 60.27px 444.36px;"></path><path d="M62.08,446.12a13.3,13.3,0,0,1-3.62,0,12.91,12.91,0,0,1,3.62,0Z" id="el24nszn94k" class="animable" style="transform-origin: 60.27px 446.118px;"></path><path d="M62.08,447.87a12.91,12.91,0,0,1-3.62,0,13.3,13.3,0,0,1,3.62,0Z" id="elqpo8wc9alq" class="animable" style="transform-origin: 60.27px 447.872px;"></path><path d="M62.08,449.63a12.91,12.91,0,0,1-3.62,0,12.91,12.91,0,0,1,3.62,0Z" id="elzqnve157dwa" class="animable" style="transform-origin: 60.27px 449.63px;"></path><path d="M62.08,451.39a13.3,13.3,0,0,1-3.62,0,12.91,12.91,0,0,1,3.62,0Z" id="elnmo7yylmjt" class="animable" style="transform-origin: 60.27px 451.388px;"></path><path d="M62.08,453.14a12.91,12.91,0,0,1-3.62,0,13.3,13.3,0,0,1,3.62,0Z" id="elqri7t0383i" class="animable" style="transform-origin: 60.27px 453.142px;"></path><path d="M62.08,454.9a12.91,12.91,0,0,1-3.62,0,12.91,12.91,0,0,1,3.62,0Z" id="elubz5bnym43" class="animable" style="transform-origin: 60.27px 454.9px;"></path><path d="M62.08,456.66a12.91,12.91,0,0,1-3.62,0,12.91,12.91,0,0,1,3.62,0Z" id="el1fepcu9x6t3" class="animable" style="transform-origin: 60.27px 456.66px;"></path><path d="M62.08,458.41a12.91,12.91,0,0,1-3.62,0,13.71,13.71,0,0,1,3.62,0Z" id="el2y345i625ma" class="animable" style="transform-origin: 60.27px 458.414px;"></path><path d="M62.08,460.17a12.91,12.91,0,0,1-3.62,0,12.91,12.91,0,0,1,3.62,0Z" id="elsysxjs9l709" class="animable" style="transform-origin: 60.27px 460.17px;"></path><path d="M62.08,461.93a12.91,12.91,0,0,1-3.62,0,12.91,12.91,0,0,1,3.62,0Z" id="el6jnh658tdzq" class="animable" style="transform-origin: 60.27px 461.93px;"></path><path d="M62.08,463.69a13.71,13.71,0,0,1-3.62,0,12.91,12.91,0,0,1,3.62,0Z" id="elwbttiu2nrra" class="animable" style="transform-origin: 60.27px 463.686px;"></path><path d="M62.08,465.44a12.91,12.91,0,0,1-3.62,0,12.91,12.91,0,0,1,3.62,0Z" id="el8bbw8qh82ac" class="animable" style="transform-origin: 60.27px 465.44px;"></path><path d="M62.08,467.2a12.91,12.91,0,0,1-3.62,0,12.91,12.91,0,0,1,3.62,0Z" id="el389r3wkth04" class="animable" style="transform-origin: 60.27px 467.2px;"></path><path d="M62.08,469a13.3,13.3,0,0,1-3.62,0,12.91,12.91,0,0,1,3.62,0Z" id="el3p27ndedn1v" class="animable" style="transform-origin: 60.27px 468.998px;"></path><path d="M62.08,470.71a12.91,12.91,0,0,1-3.62,0,13.3,13.3,0,0,1,3.62,0Z" id="eltrsb4fl5pw" class="animable" style="transform-origin: 60.27px 470.712px;"></path><path d="M62.08,472.47a12.91,12.91,0,0,1-3.62,0,12.91,12.91,0,0,1,3.62,0Z" id="elvn5iyqacoek" class="animable" style="transform-origin: 60.27px 472.47px;"></path><path d="M62.08,474.23a13.3,13.3,0,0,1-3.62,0,12.91,12.91,0,0,1,3.62,0Z" id="elvtlzyovpeja" class="animable" style="transform-origin: 60.27px 474.228px;"></path><path d="M62.08,476a12.91,12.91,0,0,1-3.62,0,13.3,13.3,0,0,1,3.62,0Z" id="elauzmszl5my5" class="animable" style="transform-origin: 60.27px 476.002px;"></path><path d="M62.48,423.64a13.17,13.17,0,0,1-1.93-3.06,13,13,0,0,1,1.93,3.06Z" id="elrw3xenogxxg" class="animable" style="transform-origin: 61.515px 422.11px;"></path><path d="M62.1,424.19a13.3,13.3,0,0,1-3.36-1.38,13.15,13.15,0,0,1,3.36,1.38Z" id="elkyf5zaozans" class="animable" style="transform-origin: 60.42px 423.5px;"></path><path d="M62.08,425a13.31,13.31,0,0,1-3.62.13,12.56,12.56,0,0,1,3.62-.13Z" id="elupzfa6htqpp" class="animable" style="transform-origin: 60.27px 425.061px;"></path></g></g><g id="elrf0u9ahojvj"><rect x="173.99" y="456.03" width="35.76" height="21.82" style="fill: rgb(219, 219, 219); transform-origin: 191.87px 466.94px; transform: rotate(180deg);" class="animable"></rect></g><g id="eliinqqz0hzu"><rect x="173.99" y="456.03" width="35.76" height="21.82" style="fill: rgb(255, 255, 255); opacity: 0.4; transform-origin: 191.87px 466.94px; transform: rotate(180deg);" class="animable"></rect></g><g id="el5q8yt86871u"><rect x="173.99" y="456.03" width="35.76" height="2.24" style="fill: rgb(219, 219, 219); transform-origin: 191.87px 457.15px; transform: rotate(180deg);" class="animable"></rect></g><g id="el3kdibl1696r"><rect x="194.28" y="461.55" width="9.35" height="7.55" style="fill: rgb(219, 219, 219); transform-origin: 198.955px 465.325px; transform: rotate(180deg);" class="animable"></rect></g><g id="el6laclo80mae"><rect x="179.73" y="461.55" width="9.35" height="7.55" style="fill: rgb(219, 219, 219); transform-origin: 184.405px 465.325px; transform: rotate(180deg);" class="animable"></rect></g><polygon points="179.73 461.55 179.73 461.64 188.98 469.1 189.08 469.1 189.08 467.34 181.91 461.55 179.73 461.55" style="fill: rgb(255, 255, 255); transform-origin: 184.405px 465.325px;" id="elg59jwlkx41n" class="animable"></polygon><polygon points="179.73 465.14 179.73 466.06 183.5 469.1 184.64 469.1 179.73 465.14" style="fill: rgb(255, 255, 255); transform-origin: 182.185px 467.12px;" id="elyyclskhs2ur" class="animable"></polygon><polygon points="194.28 461.73 194.28 462.65 202.27 469.1 203.41 469.1 194.28 461.73" style="fill: rgb(255, 255, 255); transform-origin: 198.845px 465.415px;" id="elt5wm14zo1s" class="animable"></polygon><g id="elxoo7lr8j40g"><rect x="209.75" y="456.03" width="26.92" height="21.82" style="fill: rgb(219, 219, 219); transform-origin: 223.21px 466.94px; transform: rotate(180deg);" class="animable"></rect></g><g id="el3pfx1abtize"><rect x="209.75" y="456.03" width="26.92" height="21.82" style="fill: rgb(255, 255, 255); opacity: 0.2; transform-origin: 223.21px 466.94px; transform: rotate(180deg);" class="animable"></rect></g><g id="elrssh5fmv6r"><rect x="209.75" y="456.03" width="26.92" height="2.24" style="fill: rgb(219, 219, 219); transform-origin: 223.21px 457.15px; transform: rotate(180deg);" class="animable"></rect></g><g id="elgsnos2ucfzg"><rect x="218.53" y="461.55" width="9.35" height="7.55" style="fill: rgb(219, 219, 219); transform-origin: 223.205px 465.325px; transform: rotate(180deg);" class="animable"></rect></g><polygon points="218.53 463.11 218.53 466.8 221.38 469.1 225.96 469.1 218.53 463.11" style="fill: rgb(255, 255, 255); transform-origin: 222.245px 466.105px;" id="elcsej2cjee8" class="animable"></polygon><polygon points="221.6 429.52 224.81 429.52 225.94 456.04 220.48 456.04 221.6 429.52" style="fill: rgb(219, 219, 219); transform-origin: 223.21px 442.78px;" id="elzqpwo28rl3" class="animable"></polygon><g id="el9d4kgo1jy5r"><rect x="221.29" y="428.49" width="3.83" height="1.03" style="fill: rgb(219, 219, 219); transform-origin: 223.205px 429.005px; transform: rotate(180deg);" class="animable"></rect></g><polygon points="214.33 429.52 217.53 429.52 218.66 456.04 213.2 456.04 214.33 429.52" style="fill: rgb(219, 219, 219); transform-origin: 215.93px 442.78px;" id="elmzx9iz4lou" class="animable"></polygon><g id="el4wn9rhyndnk"><rect x="214.02" y="428.49" width="3.83" height="1.03" style="fill: rgb(219, 219, 219); transform-origin: 215.935px 429.005px; transform: rotate(180deg);" class="animable"></rect></g><polygon points="228.88 429.52 232.09 429.52 233.22 456.04 227.76 456.04 228.88 429.52" style="fill: rgb(219, 219, 219); transform-origin: 230.49px 442.78px;" id="elkqpzqu6wbb" class="animable"></polygon><g id="elrbxzblmnwe9"><rect x="228.57" y="428.49" width="3.83" height="1.03" style="fill: rgb(219, 219, 219); transform-origin: 230.485px 429.005px; transform: rotate(180deg);" class="animable"></rect></g><path d="M45,133c-.54,0-.59-1.1,0-1.18,2.59-.32,5.19-2.64,7.77-3a23.09,23.09,0,0,0,7.43-1.78c3.86-1.93,6.25-5.8,10.24-7.66,7-3.26,14.2-1.86,21,1a23.9,23.9,0,0,0,12.87,1.89c4-.5,7.84-1.6,11.8-2.17a23.48,23.48,0,0,1,10.61.51c3.55,1.15,6.61,3.38,9.95,5,4.41,2.13,8.76,1.77,13.5,1.9,3.42.1,10.57,2.26,10.57,4.57C160.8,133.67,51.8,133,45,133Z" style="fill: rgb(235, 235, 235); transform-origin: 102.658px 125.32px;" id="el255vte7kftu" class="animable"></path><path d="M191,363.74c-.55,0-.6-1.09,0-1.18,2.59-.32,5.18-2.64,7.77-3a22.89,22.89,0,0,0,7.43-1.78c3.85-1.93,6.25-5.8,10.24-7.66,7-3.26,14.2-1.86,21,1A23.88,23.88,0,0,0,250.32,353c4-.5,7.85-1.6,11.81-2.17a23.43,23.43,0,0,1,10.6.51c3.56,1.15,6.61,3.38,10,5,4.4,2.13,8.76,1.77,13.5,1.91,3.42.1,10.57,2.25,10.57,4.56C306.76,364.39,197.75,363.74,191,363.74Z" style="fill: rgb(235, 235, 235); transform-origin: 248.684px 356.056px;" id="el2ycpvm9n7lc" class="animable"></path><path d="M455.25,303.72c-4.77,0-123.92-.83-157.58-.83-2.35,0,.62-4.08,1.92-4.36,4.14-.91,8.45-1,12.65-1.39a41.55,41.55,0,0,0,12.07-3c3.31-1.4,6.61-3,10.2-3.58,6.93-1.08,13,2.67,19.52,4.33a14.74,14.74,0,0,0,11.82-1.61c3-1.81,5.74-4,8.88-5.56a48.75,48.75,0,0,1,38.94-1.79,46.17,46.17,0,0,1,8.51,4.36c3.18,2.09,5.92,4.75,9.11,6.81,7,4.57,15.78,3.08,23.48,5.7C455.19,302.92,455.67,303.72,455.25,303.72Z" style="fill: rgb(235, 235, 235); transform-origin: 376.102px 293.216px;" id="eljydn6ir1vr" class="animable"></path><path d="M233.61,164.16c-6.32,0-112.55.7-119.22.48-.48,0-.74-.72-.27-.95,4.21-2.09,9-1.67,13.36-3.14,2.57-.87,4.15-2.55,5.94-4.48a12.28,12.28,0,0,1,5.53-3.61,11.71,11.71,0,0,1,6-.19c2.15.52,4,1.75,6.08,2.53,5.1,1.92,10.06.09,13.71-3.68,3-3.11,6-6.05,10-7.73a13.39,13.39,0,0,1,10.64-.15c3.9,1.77,6.57,5.32,10.23,7.46,4.34,2.53,9.53,1.93,14.32,2.7s8.47,4.8,12.68,7.12a8.91,8.91,0,0,0,4.58,1.42c.94,0,1.86-.28,2.79-.39,1.44-.18,2.82-.14,3.79,1.07C234.07,162.91,234,164.16,233.61,164.16Z" style="fill: rgb(235, 235, 235); transform-origin: 173.914px 153.447px;" id="elokbxi9swkzg" class="animable"></path><path d="M450.28,257.29c-6.32,0-112.55.7-119.22.49-.48,0-.74-.72-.27-1,4.21-2.08,9-1.66,13.36-3.14,2.57-.86,4.15-2.55,5.94-4.48a12.34,12.34,0,0,1,5.53-3.6,11.6,11.6,0,0,1,6-.19c2.15.51,4,1.75,6.08,2.52,5.1,1.93,10.06.1,13.71-3.68,3-3.11,6-6.05,10-7.72a13.31,13.31,0,0,1,10.64-.15c3.9,1.77,6.57,5.32,10.23,7.45,4.34,2.54,9.53,1.94,14.32,2.7s8.47,4.8,12.68,7.13a9,9,0,0,0,4.58,1.42c.94,0,1.86-.28,2.79-.4,1.44-.18,2.82-.14,3.79,1.07C450.74,256.05,450.69,257.29,450.28,257.29Z" style="fill: rgb(235, 235, 235); transform-origin: 390.587px 246.562px;" id="elo1depk0ejl" class="animable"></path><path d="M417.51,65H285.82c-.53,0-.73-.57-.19-.82,4.71-2.22,10-1.64,14.88-3.18,2.87-.9,4.67-2.73,6.69-4.83a13.68,13.68,0,0,1,6.21-3.87,12.93,12.93,0,0,1,6.68-.07c2.38.62,4.43,2,6.69,2.94,5.62,2.25,11.16.34,15.28-3.77,3.41-3.38,6.75-6.57,11.32-8.33a14.79,14.79,0,0,1,11.81.08c4.28,2,7.16,6,11.17,8.5,4.75,2.91,10.52,2.36,15.82,3.32s9.71,3.25,14.32,5.92a9.84,9.84,0,0,0,5,1.68,29.63,29.63,0,0,0,3.11-.37c1.61-.17,3.13-.09,4.18,1.27C419.09,63.79,420.61,65,417.51,65Z" style="fill: rgb(235, 235, 235); transform-origin: 352.369px 53.4398px;" id="eles5xyxvze66" class="animable"></path></g><g id="freepik--Floor--inject-17" class="animable" style="transform-origin: 250px 477.848px;"><path d="M49.36,477.85c128.54-.61,272.74-.62,401.28,0-128.54.61-272.74.61-401.28,0Z" style="fill: rgb(38, 50, 56); transform-origin: 250px 477.848px;" id="elvgkmopmvsrf" class="animable"></path></g><g id="freepik--Arrows--inject-17" class="animable animator-active" style="transform-origin: 250px 254.745px;"><polygon points="269.11 329.75 231 329.74 231 314.07 269.12 314.09 269.11 329.75" style="fill: rgb(149, 214, 9); transform-origin: 250.06px 321.91px;" id="elcutswepmv4m" class="animable"></polygon><rect x="231.01" y="289.37" width="38.11" height="2.98" style="fill: rgb(149, 214, 9); transform-origin: 250.065px 290.86px;" id="el5ck67gyk21y" class="animable"></rect><polygon points="213.89 382.3 230.94 382.31 230.99 336.68 269.11 336.68 269.06 382.3 286.11 382.31 249.97 438.53 213.89 382.3" style="fill: rgb(149, 214, 9); transform-origin: 250px 387.605px;" id="elzdciawtg39" class="animable"></polygon><polygon points="269.12 307.89 231.01 307.88 231.01 297.73 269.11 297.74 269.12 307.89" style="fill: rgb(149, 214, 9); transform-origin: 250.065px 302.81px;" id="el43e1l7iwp43" class="animable"></polygon><rect x="374.63" y="239.44" width="26.76" height="11" style="fill: rgb(149, 214, 9); transform-origin: 388.01px 244.94px;" id="el3xvdlahkpgf" class="animable"></rect><rect x="374.63" y="222.09" width="26.76" height="2.1" style="fill: rgb(149, 214, 9); transform-origin: 388.01px 223.14px;" id="elc5tysjbu7vb" class="animable"></rect><polygon points="362.61 283.53 374.59 283.54 374.62 255.31 401.39 255.31 401.35 283.53 413.33 283.54 387.95 323.02 362.61 283.53" style="fill: rgb(149, 214, 9); transform-origin: 387.97px 289.165px;" id="eljq9e9so7zpg" class="animable"></polygon><rect x="374.63" y="227.97" width="26.76" height="7.12" style="fill: rgb(149, 214, 9); transform-origin: 388.01px 231.53px;" id="elibeymsb7u1h" class="animable"></rect><rect x="98.69" y="88.3" width="26.76" height="11" style="fill: rgb(149, 214, 9); transform-origin: 112.07px 93.8px;" id="eluouw0vmvgcs" class="animable"></rect><rect x="98.69" y="70.96" width="26.76" height="2.1" style="fill: rgb(149, 214, 9); transform-origin: 112.07px 72.01px;" id="elok9kkqxffhf" class="animable"></rect><polygon points="86.67 132.39 98.65 132.4 98.68 104.17 125.45 104.17 125.41 132.39 137.39 132.4 112.01 171.88 86.67 132.39" style="fill: rgb(149, 214, 9); transform-origin: 112.03px 138.025px;" id="elv9wmk7jzyv" class="animable"></polygon><rect x="98.69" y="76.83" width="26.76" height="7.12" style="fill: rgb(149, 214, 9); transform-origin: 112.07px 80.39px;" id="elo7a42v0brqh" class="animable"></rect></g><g id="freepik--World--inject-17" class="animable" style="transform-origin: 251.61px 206.38px;"><path d="M367.45,371.86l-8.68-28.7a4,4,0,0,0-3.78-2.7H258.81a14,14,0,0,1-14-14V292.72h10v33.75a4,4,0,0,0,4,4H355a14,14,0,0,1,13.33,9.72L377,369Z" style="fill: rgb(38, 50, 56); transform-origin: 310.905px 332.29px;" id="el2ebjmq3g50a" class="animable"></path><rect x="230.88" y="281.08" width="38.24" height="11.28" style="fill: rgb(69, 90, 100); transform-origin: 250px 286.72px;" id="el4k938uwkcef" class="animable"></rect><rect x="235.07" y="292.36" width="29.6" height="7.64" style="fill: rgb(69, 90, 100); transform-origin: 249.87px 296.18px;" id="ely54ggvywgs" class="animable"></rect><polygon points="264.68 294.27 235.07 295.17 235.07 292.36 264.68 292.36 264.68 294.27" style="fill: rgb(55, 71, 79); transform-origin: 249.875px 293.765px;" id="el4pp3sdtpmaw" class="animable"></polygon><path d="M371.39,186.28c-.1.64-.22,1.27-.35,1.9a122.67,122.67,0,0,1-21.3,49v0A123.3,123.3,0,0,1,128.79,187.3a1.13,1.13,0,0,1,0-.18.71.71,0,0,1,0-.14c0-4.06,13.59-3.22,35.56-4.67,22-1.1,52.32-4.48,85.84-8.73s63.88-4.64,85.85-.89C356.56,175.88,369.78,182.68,371.39,186.28Z" style="fill: rgb(149, 214, 9); transform-origin: 250.088px 229.053px;" id="elcfa0hc50cqv" class="animable"></path><g id="elvp7nefoqpmk"><path d="M371.39,186.28c-.1.64-.22,1.27-.35,1.9a122.67,122.67,0,0,1-21.3,49v0A123.3,123.3,0,0,1,128.79,187.3a1.13,1.13,0,0,1,0-.18.71.71,0,0,1,0-.14c0-4.06,13.59-3.22,35.56-4.67,22-1.1,52.32-4.48,85.84-8.73s63.88-4.64,85.85-.89C356.56,175.88,369.78,182.68,371.39,186.28Z" style="opacity: 0.6; transform-origin: 250.088px 229.053px;" class="animable"></path></g><path d="M371.56,187a1.65,1.65,0,0,1-.52,1.2c-2.69,2.69-15.58,2.18-35,3.47-22,1.09-52.32,4.47-85.85,8.72s-63.87,4.64-85.84.88C143,198,129.6,190.79,128.79,187.3a1.13,1.13,0,0,1,0-.18.71.71,0,0,1,0-.14c0-4.06,13.59-3.22,35.56-4.67,22-1.1,52.32-4.48,85.84-8.73s63.88-4.64,85.85-.89c20.56,3.19,33.78,10,35.39,13.59A1.75,1.75,0,0,1,371.56,187Z" style="fill: rgb(149, 214, 9); transform-origin: 250.174px 186.984px;" id="elii3j1uyzd" class="animable"></path><g id="el9r7onnx73na"><path d="M371.56,187a1.65,1.65,0,0,1-.52,1.2c-2.69,2.69-15.58,2.18-35,3.47-22,1.09-52.32,4.47-85.85,8.72s-63.87,4.64-85.84.88C143,198,129.6,190.79,128.79,187.3a1.13,1.13,0,0,1,0-.18.71.71,0,0,1,0-.14c0-4.06,13.59-3.22,35.56-4.67,22-1.1,52.32-4.48,85.84-8.73s63.88-4.64,85.85-.89c20.56,3.19,33.78,10,35.39,13.59A1.75,1.75,0,0,1,371.56,187Z" style="opacity: 0.5; transform-origin: 250.174px 186.984px;" class="animable"></path></g><g id="el7e46pcux6kh"><path d="M228.62,197.21a237.29,237.29,0,0,1-41.71,1.37c-9.28-.46-18.59-.92-27.73-2.73-2.4-.32-23.2-5.13-16.5-9a25,25,0,0,1,7-1.21c4.64-.34,9.27-.45,13.91-.59-4.34.72-9.32.79-13.84,1.37a25.06,25.06,0,0,0-6.65,1.3c-3.64,1.63,8.37,5.29,9.57,5.59a149.58,149.58,0,0,0,34.26,5c13.86.33,28-.76,41.7-1Z" style="opacity: 0.2; transform-origin: 184.993px 191.996px;" class="animable"></path></g><g id="elgpxu6f7km16"><path d="M281.82,191.14a108.28,108.28,0,0,1-16.42,2.09c-9,1.15-18.42,3.18-27.42,3,9-1.9,18.23-2.36,27.38-3.33,5.38-.85,11.14-2,16.46-1.77Z" style="opacity: 0.2; transform-origin: 259.9px 193.671px;" class="animable"></path></g><g id="eln6m13og4xs8"><path d="M345.52,176.73c2.14.36,16.72,3.81,12.61,7.27-1.86,1.14-4.08,1.17-6.16,1.45-3.66.32-7.31.36-11,.57-10.94.52-21.81,2.11-32.72,3-7.21.57-14.8,1.29-21.86,1.54l5.42-.8q19-2.33,38.2-3.45c7.29-.32,14.61-.73,21.83-1.64,2-.28,4.06-.42,5.75-1.33,1.4-.81-1.26-2.16-2-2.59-3.09-1.76-7-2.69-10.13-4Z" style="opacity: 0.2; transform-origin: 322.623px 183.645px;" class="animable"></path></g><g id="el1a2o4eejtin"><path d="M173.48,184.32c20.75-2,41.46-4.24,62.18-6.45,34.3-4.39,69.48-9.28,103.8-2.47l0,.09c-27.49-4.23-55.47-2.26-83,.3-27.56,2.84-55.35,7.8-82.92,8.53Z" style="opacity: 0.2; transform-origin: 256.47px 178.172px;" class="animable"></path></g><g id="elifs1fwg87q"><path d="M287,176.6a179.4,179.4,0,0,1,29-.52c6.43.29,12.89.3,19.3,1.11,3.58.57,7.83.79,11.07,2.65,2.18,2.5-6.31,2.43-7.53,2.62-3.16.07-6.68.45-9.66.2l9.6-1c2.26-.32,4.93-.31,7-1.25a.25.25,0,0,0,0,.18c-3-1.49-7.08-1.88-10.56-2.49q-4.75-.66-9.56-1.13c-12.76-1.34-25.94.18-38.56-.39Z" style="opacity: 0.2; transform-origin: 316.863px 179.234px;" class="animable"></path></g><g id="eljt2pqjv3jt"><path d="M235.28,180.93a101.15,101.15,0,0,1,16.49-1.74c9.11-.81,18.57-2.5,27.57-2.07-9.11,1.64-18.33,1.77-27.54,2.39-5.41.67-11.2,1.74-16.52,1.42Z" style="opacity: 0.2; transform-origin: 257.31px 179.02px;" class="animable"></path></g><g id="el2nvr68edk82"><path d="M154.11,188.71c-.39-1.13,3.24-1.48,4-1.65,7.48-1.08,15-1.12,22.55-1.5,15-1.34,29.93-3.32,45-3.69v.1c-17.9,2.62-36,2.93-54,4.77-5.24.46-10.51.47-15.73,1.08a4.71,4.71,0,0,0-1.58.45.32.32,0,0,0-.19.38l-.08.06Z" style="opacity: 0.2; transform-origin: 189.87px 185.29px;" class="animable"></path></g><g id="elqstw9xm5i9m"><path d="M323.88,183.1c-24.68,2.33-59,5-83.26,7.68-17.34,1.73-34.78,2.95-52.22,2.6-10.44-.38-21-.77-31.17-3.35,3.23.46,6.91,1.18,10.34,1.44,24.29,2.1,48.72.47,73-1.23,27.71-2.21,55.66-6.56,83.31-7.14Z" style="opacity: 0.2; transform-origin: 240.555px 188.27px;" class="animable"></path></g><path d="M250,288.46A123.78,123.78,0,0,1,250,40.9c3.38,0,6.78.14,10.09.41A123.78,123.78,0,0,1,250,288.46ZM250,41.9a121.8,121.8,0,0,0-72.7,23.83,122.79,122.79,0,1,0,172,171.15A122.77,122.77,0,0,0,260,42.31C256.72,42,253.36,41.9,250,41.9Z" style="fill: rgb(38, 50, 56); transform-origin: 250.012px 164.68px;" id="el0t7sr2la0rye" class="animable"></path><path d="M276.62,222.87c-1.55,4.15,1,4.32,1.21,6s0,5-5,10-13.29,4-15,6-4.66,10.88-8.8,13.81-4.84,1.21-10.71,2.42S227.93,270,226.2,273.63s.35,9.67-3.79,9.85-6-8.81-9.85-13.64-5-9.16-6.21-14.85.69-17.62,0-22.28-13.12-13-17.61-18.64S178,197,178.38,193.17a15.38,15.38,0,0,1,5.18-9.49c2.07-1.56,1.21-2.42,1.55-3.8s2.07-1.73,2.42-3.45-1-6.91-2.76-7.77-2.94,2.07-4,1.55-4.14-4.14-5.35-4.49-.86,2.25-2.59-1-2.59-11.56-4-13-2.42,2.42-5.7,0-4.66-7.07-6-7.76-3.28.17-4.7-2.59,1.25-7.77,0-7.26-3.93,4.49-4.62.69,3.45-16.57,2.76-23.48a27.63,27.63,0,0,1,6.56-20s.69-3.79,1.38-6.21S174.06,73,175.79,70.24A13.34,13.34,0,0,0,177,65.33,122.69,122.69,0,0,1,250,41.4q5.07,0,10.05.41c.11.16.22.31.34.46,1.5,1.9,3.11,3.11,7.48,4.72s5.41,3.68,4.49,5.41-2.41,2.07-4.14,2.19-3.34-.81-5.18.34-3.69,7.37-6.1,7.71-6.68-5.52-7.6-7.25,2.07-5.41.66-7.14-3.88-1.38-7.8-1.72-13,1.15-12.66,2.64,13.35-.23,13.7,2.77S233.69,60,232,59.53s-4-3.45-6.56-3.79-4.61,1.72-6.2,1.95-3.47-1.72-5.89-1.26-3,2.53-4.26,3.34-4.26.8-4.6,2.64,3.8,2.88,4.83,4-1.26,5.07-.23,5.87,7.48-4.83,9.1-6.21,3-7.37,6.44-7.26,4.61,6,5.76,6.56,3.68-1.38,7.48-.57,6.44,9.09,7.14,11.62,2.3,5.07.92,6.11-7.6-.69-8.4-2.31,4.14-4,3.79-4.6-3.22-1.38-4.72-.48-2.18,2.78-3.79,3.24-5.88-4.37-7-3,1.15,5.76,2.3,6.79,5.42,1.61,5.76,2.76-2.88,3.68-6.79,3.46-7.14-3.23-8.63-2-.7,4.6-1.73,5.76-6.68.34-9.44,3.33-4,7.48-6.79,10-4-.69-7.71,2.88-4.26,11.51-4.38,14.27,0,5-.92,4.6-2.19-2.76-2.53-4.26.81-4,.81-4.95-5.3-5.64-8.41-6.1-5.87,2.07-8.17,3.92-6.45,1.49-7.94,3-2.65,14.73-1.5,17.84,2.65,3.11,6.33,1.5,1.61-4.72,3.8-4a5.14,5.14,0,0,1,3.34,4.83c0,1.85-4.37,6.22-3.8,7.49s4.38-.24,6.22.34,2.76,1.73,2.18,6.45-.23,8.4,2.54,10,4.31-2.24,5.52-1.72,2.94,3.28,4.66,3.1.87-1.72,4.15-2.76,2.07-1.72,2.76-3.8,2.76-3.8,5-2.76.69,2.59.86,4.32,4.14,1.9,7.25,2.93,4.84,0,11,2.07,6.56,8.29,9.15,9.33,11.23-.69,17.44,3.8,4.49,12.77,7.6,15.19,14.68,5.7,19.16,6.56,5.18-2.24,8.81-1.38,5.7,1.9,6.91,6.91C291.67,209.49,278.17,218.73,276.62,222.87Z" style="fill: rgb(149, 214, 9); transform-origin: 219.205px 162.441px;" id="elj0mea4y4wnf" class="animable"></path><path d="M183.84,134.58c.12,1,3,1.39,6.45,3.34s4.72,7.71,6.56,7.6,1.27-2.76,2-3.45,1.84-2.19,0-3.69-3.64-4.72-7-5.18-3.94-1.84-5.43-1.72A2.6,2.6,0,0,0,183.84,134.58Z" style="fill: rgb(149, 214, 9); transform-origin: 191.823px 138.497px;" id="elrnwvatn5dko" class="animable"></path><path d="M202.84,144.25c-.52,1.41,0,2.42,3.68,3.34s7.14-.92,6-1.67-2.88-.4-2.19-1.67.45-3.1-2.54-2.76S203.3,143,202.84,144.25Z" style="fill: rgb(149, 214, 9); transform-origin: 207.705px 144.645px;" id="elnjiid9dye0b" class="animable"></path><path d="M215.73,144.65c-1.26.18-2,2.37-.69,3.75s1.26,1.15,2.76,0,3.8-1.73,3.22-2.88S217,144.46,215.73,144.65Z" style="fill: rgb(149, 214, 9); transform-origin: 217.731px 146.943px;" id="el64pk4002727" class="animable"></path><path d="M225.74,149.35c.57-1.73,3.46,0,4.72,1.81s.69,4.49,0,6.45-1.15,4.25-2.76,3.33.12-3.68-.11-5.29S225.28,150.76,225.74,149.35Z" style="fill: rgb(149, 214, 9); transform-origin: 228.44px 154.893px;" id="elvmzd7lhqjyc" class="animable"></path><path d="M275.35,53.32c-.6,1.44,2.19,2,3.8,2.88s2.88,1.49,3.8,0-.34-3.23-1.61-3.57S275.93,51.94,275.35,53.32Z" style="fill: rgb(149, 214, 9); transform-origin: 279.266px 54.7132px;" id="el12d570jgas2" class="animable"></path><path d="M297.11,66.79c1.06,1.12,2.88.92,4.14,2.53s.81,4.37,2.42,5.18,2.76,0,2.88-1.15-2.3-4-2.07-4.61,3.33.81,4,2.53-.7,4.15.92,4.61,1.26-1.61,1.95-2.07,2.19-.23,2.08-1.61A10.36,10.36,0,0,0,310,66.79c-1.49-1-2.65-2.19-5.18-2.77s-4.95-.11-6.21.92S296.46,66.1,297.11,66.79Z" style="fill: rgb(149, 214, 9); transform-origin: 305.164px 69.8572px;" id="elz0l40bb3nx" class="animable"></path><path d="M346.91,88.48a2.08,2.08,0,0,1-.65,1.21c-2.42,1.73-5.3-4.26-8.63-5.41s-4.84-5.41-5.53-4.49-.46,2.19-1.49,3.69-2.54,1.15-3.23,4,3.23,8.17,2.31,9.9-2.08,1.15-3.92,1-1.49,1.5-3.91.81-.35-3.69-4.15-7.26-5.06-4.25-4.25-5.87-.35-3.91,1.38-4.14,3.11,2.3,4.26,3,2.64-1.38,2.76-3.22-4-4.37-5.53-5.8-1.61-6.63-1-7.67,2.3-.69,2.76-3.22c.27-1.49-2.09-4-4.08-5.77A123.72,123.72,0,0,1,346.91,88.48Z" style="fill: rgb(149, 214, 9); transform-origin: 330.068px 79.2997px;" id="el2z0mznn8qq6" class="animable"></path><path d="M364.1,191.68c.35-3.69-1.49-3.92.35-10.71s-2-14-3.34-15.54-4.37-1-6.79.46-.69,2.65-2.3,3.23-3.23-.35-4.72-.23-2.88,3.91-6.1,3.8-5.3-4.72-7.71-8-7.37-5.35-9-9.38,1.49-10.24.8-15-3.8-3.69-4.37-6.33.46-1.38,1.26-3.92-.92-3.91.69-8.28,4.49-6.57,3.8-8.52-2.87-5.18-3-7.48,2.19-2.19,6.56-5.41,5.53-3,8.86-1.84a48.46,48.46,0,0,0,7.37,2.07c2,.34,4.61,5.41,5.41,5.18s.92-1.73,1.27-3.92a4.8,4.8,0,0,1,1.43-2.47,123.35,123.35,0,0,1-4.86,137.74C361.48,219.23,363.76,195.36,364.1,191.68Z" style="fill: rgb(149, 214, 9); transform-origin: 347.002px 167.44px;" id="ellqk2kzqfckl" class="animable"></path><g id="ellvwwc027iph"><g style="opacity: 0.1; transform-origin: 260.491px 162.441px;" class="animable"><path d="M276.62,222.87c-1.55,4.15,1,4.32,1.21,6s0,5-5,10-13.29,4-15,6-4.66,10.88-8.8,13.81-4.84,1.21-10.71,2.42S227.93,270,226.2,273.63s.35,9.67-3.79,9.85-6-8.81-9.85-13.64-5-9.16-6.21-14.85.69-17.62,0-22.28-13.12-13-17.61-18.64S178,197,178.38,193.17a15.38,15.38,0,0,1,5.18-9.49c2.07-1.56,1.21-2.42,1.55-3.8s2.07-1.73,2.42-3.45-1-6.91-2.76-7.77-2.94,2.07-4,1.55-4.14-4.14-5.35-4.49-.86,2.25-2.59-1-2.59-11.56-4-13-2.42,2.42-5.7,0-4.66-7.07-6-7.76-3.28.17-4.7-2.59,1.25-7.77,0-7.26-3.93,4.49-4.62.69,3.45-16.57,2.76-23.48a27.63,27.63,0,0,1,6.56-20s.69-3.79,1.38-6.21S174.06,73,175.79,70.24A13.34,13.34,0,0,0,177,65.33,122.69,122.69,0,0,1,250,41.4q5.07,0,10.05.41c.11.16.22.31.34.46,1.5,1.9,3.11,3.11,7.48,4.72s5.41,3.68,4.49,5.41-2.41,2.07-4.14,2.19-3.34-.81-5.18.34-3.69,7.37-6.1,7.71-6.68-5.52-7.6-7.25,2.07-5.41.66-7.14-3.88-1.38-7.8-1.72-13,1.15-12.66,2.64,13.35-.23,13.7,2.77S233.69,60,232,59.53s-4-3.45-6.56-3.79-4.61,1.72-6.2,1.95-3.47-1.72-5.89-1.26-3,2.53-4.26,3.34-4.26.8-4.6,2.64,3.8,2.88,4.83,4-1.26,5.07-.23,5.87,7.48-4.83,9.1-6.21,3-7.37,6.44-7.26,4.61,6,5.76,6.56,3.68-1.38,7.48-.57,6.44,9.09,7.14,11.62,2.3,5.07.92,6.11-7.6-.69-8.4-2.31,4.14-4,3.79-4.6-3.22-1.38-4.72-.48-2.18,2.78-3.79,3.24-5.88-4.37-7-3,1.15,5.76,2.3,6.79,5.42,1.61,5.76,2.76-2.88,3.68-6.79,3.46-7.14-3.23-8.63-2-.7,4.6-1.73,5.76-6.68.34-9.44,3.33-4,7.48-6.79,10-4-.69-7.71,2.88-4.26,11.51-4.38,14.27,0,5-.92,4.6-2.19-2.76-2.53-4.26.81-4,.81-4.95-5.3-5.64-8.41-6.1-5.87,2.07-8.17,3.92-6.45,1.49-7.94,3-2.65,14.73-1.5,17.84,2.65,3.11,6.33,1.5,1.61-4.72,3.8-4a5.14,5.14,0,0,1,3.34,4.83c0,1.85-4.37,6.22-3.8,7.49s4.38-.24,6.22.34,2.76,1.73,2.18,6.45-.23,8.4,2.54,10,4.31-2.24,5.52-1.72,2.94,3.28,4.66,3.1.87-1.72,4.15-2.76,2.07-1.72,2.76-3.8,2.76-3.8,5-2.76.69,2.59.86,4.32,4.14,1.9,7.25,2.93,4.84,0,11,2.07,6.56,8.29,9.15,9.33,11.23-.69,17.44,3.8,4.49,12.77,7.6,15.19,14.68,5.7,19.16,6.56,5.18-2.24,8.81-1.38,5.7,1.9,6.91,6.91C291.67,209.49,278.17,218.73,276.62,222.87Z" id="elog5t0jlfzpq" class="animable" style="transform-origin: 219.205px 162.441px;"></path><path d="M183.84,134.58c.12,1,3,1.39,6.45,3.34s4.72,7.71,6.56,7.6,1.27-2.76,2-3.45,1.84-2.19,0-3.69-3.64-4.72-7-5.18-3.94-1.84-5.43-1.72A2.6,2.6,0,0,0,183.84,134.58Z" id="el5q2wfywotiy" class="animable" style="transform-origin: 191.823px 138.497px;"></path><path d="M202.84,144.25c-.52,1.41,0,2.42,3.68,3.34s7.14-.92,6-1.67-2.88-.4-2.19-1.67.45-3.1-2.54-2.76S203.3,143,202.84,144.25Z" id="elujo83hio4m" class="animable" style="transform-origin: 207.705px 144.645px;"></path><path d="M215.73,144.65c-1.26.18-2,2.37-.69,3.75s1.26,1.15,2.76,0,3.8-1.73,3.22-2.88S217,144.46,215.73,144.65Z" id="elrkrqfk1t12f" class="animable" style="transform-origin: 217.731px 146.943px;"></path><path d="M225.74,149.35c.57-1.73,3.46,0,4.72,1.81s.69,4.49,0,6.45-1.15,4.25-2.76,3.33.12-3.68-.11-5.29S225.28,150.76,225.74,149.35Z" id="elmfycrxohce" class="animable" style="transform-origin: 228.44px 154.893px;"></path><path d="M275.35,53.32c-.6,1.44,2.19,2,3.8,2.88s2.88,1.49,3.8,0-.34-3.23-1.61-3.57S275.93,51.94,275.35,53.32Z" id="el4c9q2ku7y14" class="animable" style="transform-origin: 279.266px 54.7132px;"></path><path d="M297.11,66.79c1.06,1.12,2.88.92,4.14,2.53s.81,4.37,2.42,5.18,2.76,0,2.88-1.15-2.3-4-2.07-4.61,3.33.81,4,2.53-.7,4.15.92,4.61,1.26-1.61,1.95-2.07,2.19-.23,2.08-1.61A10.36,10.36,0,0,0,310,66.79c-1.49-1-2.65-2.19-5.18-2.77s-4.95-.11-6.21.92S296.46,66.1,297.11,66.79Z" id="elafvptqa8mh" class="animable" style="transform-origin: 305.164px 69.8572px;"></path><path d="M346.91,88.48a2.08,2.08,0,0,1-.65,1.21c-2.42,1.73-5.3-4.26-8.63-5.41s-4.84-5.41-5.53-4.49-.46,2.19-1.49,3.69-2.54,1.15-3.23,4,3.23,8.17,2.31,9.9-2.08,1.15-3.92,1-1.49,1.5-3.91.81-.35-3.69-4.15-7.26-5.06-4.25-4.25-5.87-.35-3.91,1.38-4.14,3.11,2.3,4.26,3,2.64-1.38,2.76-3.22-4-4.37-5.53-5.8-1.61-6.63-1-7.67,2.3-.69,2.76-3.22c.27-1.49-2.09-4-4.08-5.77A123.72,123.72,0,0,1,346.91,88.48Z" id="elktd2np38pn" class="animable" style="transform-origin: 330.068px 79.2997px;"></path><path d="M364.1,191.68c.35-3.69-1.49-3.92.35-10.71s-2-14-3.34-15.54-4.37-1-6.79.46-.69,2.65-2.3,3.23-3.23-.35-4.72-.23-2.88,3.91-6.1,3.8-5.3-4.72-7.71-8-7.37-5.35-9-9.38,1.49-10.24.8-15-3.8-3.69-4.37-6.33.46-1.38,1.26-3.92-.92-3.91.69-8.28,4.49-6.57,3.8-8.52-2.87-5.18-3-7.48,2.19-2.19,6.56-5.41,5.53-3,8.86-1.84a48.46,48.46,0,0,0,7.37,2.07c2,.34,4.61,5.41,5.41,5.18s.92-1.73,1.27-3.92a4.8,4.8,0,0,1,1.43-2.47,123.35,123.35,0,0,1-4.86,137.74C361.48,219.23,363.76,195.36,364.1,191.68Z" id="eldgblzr66dja" class="animable" style="transform-origin: 347.002px 167.44px;"></path></g></g><g id="el2qvbtccw4x4"><path d="M373.28,164.68a122.68,122.68,0,0,1-23.54,72.47s0,0,0,0a123.86,123.86,0,0,1-44.28,37.64A124.65,124.65,0,0,0,344.33,240a0,0,0,0,0,0,0A123.81,123.81,0,0,0,341.5,90.42a124.77,124.77,0,0,0-33.11-29.36,123.32,123.32,0,0,0-54.26-17.58q-5-.4-10.1-.41a124.33,124.33,0,0,0-29.77,3.6A123.25,123.25,0,0,1,250,41.4q5.07,0,10.05.41A122.53,122.53,0,0,1,314,59.29a123.87,123.87,0,0,1,32.93,29.19,120.75,120.75,0,0,1,7.69,10.94A122.66,122.66,0,0,1,373.28,164.68Z" style="opacity: 0.1; transform-origin: 293.77px 158.095px;" class="animable"></path></g><g id="elyko80smshtq"><g style="opacity: 0.5; transform-origin: 245.488px 157.44px;" class="animable"><path d="M211.59,56.43c-14,11.46-27.18,23.9-37.05,39.06-14.11,21.37-20.22,46.81-20.39,72.24-.11,14,3,27.63,7.83,41,7,18.37,16.64,35.82,31.29,49.72-20.18-7.11-35.45-24.77-45.72-43.09-7.86-14.36-12.91-30.9-13.21-47.58-.38-21.82,4.3-44.09,15.32-63.15C163,81.37,186,63.73,211.59,56.43Z" style="fill: rgb(255, 255, 255); transform-origin: 172.954px 157.44px;" id="elhjp78bsn2pf" class="animable"></path><path d="M323.46,252.86c16.12-17.59,27.69-50,32.62-73.29,3.68,23.8-10.57,61.79-32.62,73.29Z" style="fill: rgb(255, 255, 255); transform-origin: 340.059px 216.215px;" id="eln6cx6cpeuja" class="animable"></path></g></g></g><g id="freepik--petrol-can--inject-17" class="animable" style="transform-origin: 406.097px 416.5px;"><path d="M368.08,380.15l16.1-4.81h60.2a6.26,6.26,0,0,1,6.26,6.26v90a6.27,6.27,0,0,1-6.26,6.27H369.87a6.27,6.27,0,0,1-6.26-6.27V386.16A6.27,6.27,0,0,1,368.08,380.15Z" style="fill: rgb(149, 214, 9); transform-origin: 407.125px 426.605px;" id="elif1pa32k6tk" class="animable"></path><path d="M384.19,375.34h12l6.08-10.56a1.75,1.75,0,0,1,1.53-.88h30a1.77,1.77,0,0,1,1.71,2.24l-2.52,9.2,17.59,8.3V359.93a4.8,4.8,0,0,0-4.8-4.8H398.61a4.81,4.81,0,0,0-4.16,2.4Z" style="fill: rgb(149, 214, 9); transform-origin: 417.385px 369.385px;" id="ely6rbfcu5drp" class="animable"></path><g id="eld7qhn5rq3id"><rect x="362.12" y="364.48" width="18.76" height="6.7" style="fill: rgb(149, 214, 9); transform-origin: 371.5px 367.83px; transform: rotate(163.37deg);" class="animable"></rect></g><g id="el2pedpeiezs2"><rect x="362.12" y="364.48" width="18.76" height="6.7" style="opacity: 0.3; transform-origin: 371.5px 367.83px; transform: rotate(163.37deg);" class="animable"></rect></g><g id="el63xszbo2w6"><rect x="366.32" y="370.86" width="14.52" height="7.49" style="fill: rgb(149, 214, 9); transform-origin: 373.58px 374.605px; transform: rotate(163.37deg);" class="animable"></rect></g><g id="eltaingnp86jp"><rect x="366.32" y="370.86" width="14.52" height="7.49" style="opacity: 0.3; transform-origin: 373.58px 374.605px; transform: rotate(163.37deg);" class="animable"></rect></g><g id="elbfa3ink27bc"><polygon points="366.09 374.89 380.26 371.57 379.47 368.94 365.56 373.09 366.09 374.89" style="opacity: 0.1; transform-origin: 372.91px 371.915px;" class="animable"></polygon></g><g id="el5rs01nfw39a"><g style="opacity: 0.1; transform-origin: 407.152px 426.614px;" class="animable"><path d="M434.69,452a1.49,1.49,0,0,1,0,2.12,1.5,1.5,0,0,1-2.12,0l-11-11H392.73l-11,11a1.53,1.53,0,0,1-1.06.44,1.5,1.5,0,0,1-1.06-2.56l11.1-11.1V412.29l-11.1-11.1a1.5,1.5,0,0,1,2.12-2.12l11.13,11.13h28.61l11.13-11.13a1.5,1.5,0,0,1,2.12,2.12l-11.12,11.12v28.57Z" id="elpx3k0h23nsq" class="animable" style="transform-origin: 407.152px 426.614px;"></path></g></g></g><g id="freepik--Character--inject-17" class="animable" style="transform-origin: 152.999px 306.617px;"><path d="M139.32,170.45s-6.65,46.28-6.21,50.68S139,268.19,139,268.19s12.18-2.62,15.7-4.73c2.53-1.51,11.48-9.23,11.48-9.23s-15.24-29.75-16.47-35.78-2.08-35.3-3.52-41.19a12,12,0,0,0-7-7.91" style="fill: rgb(55, 71, 79); transform-origin: 149.635px 218.77px;" id="elwqysb3by06" class="animable"></path><g id="el7b7cca50m5w"><path d="M162.07,246.09V257.7l-.35.29V245.38C161.84,245.62,162,245.86,162.07,246.09Zm-9.94-21v39.56a16,16,0,0,0,2.56-1.14c.42-.25,1-.68,1.74-1.22V234.48c-.45-.95-.9-1.9-1.33-2.83,0-.11-.11-.24-.17-.35-.86-1.86-1.67-3.65-2.39-5.3Zm-5.65-46.12v87.43a3.58,3.58,0,0,1,.35-.09v-86h-.17Q146.57,179.55,146.48,178.93Zm-9.6,9v63.63l.09.64c.18,1.48.36,2.92.54,4.29.24,1.94.47,3.73.67,5.3,0,.12,0,.23,0,.35.31,2.45.54,4.32.67,5.3.06.49.1.75.1.75l2.2-.49V170.34h-.12a10.73,10.73,0,0,0-1.89-1l.12,1,0,.12s0,.07,0,.22c-.08.62-.36,2.55-.75,5.3-.17,1.27-.38,2.72-.59,4.3s-.48,3.42-.74,5.29c0,.12,0,.24,0,.36C137.07,186.58,137,187.25,136.88,187.92Zm2,79.51c.06.49.1.75.1.75l2.2-.49,1.1-.26Zm-.71-5.65c0,.12,0,.23,0,.35h18.36l.46-.35ZM137,252.19c.18,1.48.36,2.92.54,4.29h26c1.54-1.3,2.64-2.25,2.64-2.25s-.39-.75-1-2Zm-.72-5.65c0,.11,0,.23,0,.34h26.18c-.06-.11-.11-.22-.17-.34Zm-1.21-9.6c.18,1.41.36,2.85.54,4.31h24.1c-.68-1.4-1.38-2.85-2.07-4.31Zm-.71-5.64c0,.11,0,.23,0,.35H155.1c0-.11-.11-.24-.17-.35Zm-1.15-9.59c.09.88.26,2.38.5,4.29h18.86l-.41-.95c-.53-1.22-1-2.35-1.36-3.34Zm.19-5.31h16c0-.11,0-.22-.05-.34H133.4C133.38,216.18,133.38,216.29,133.37,216.4Zm.59-5.64h14.92c-.1-1.34-.21-2.78-.3-4.3H134.47C134.29,208,134.12,209.41,134,210.76Zm1.17-9.6h13.1c0-.12,0-.23,0-.34h-13C135.16,200.94,135.15,201.05,135.13,201.16Zm.74-5.64h12c-.09-1.46-.18-2.9-.28-4.3H136.44C136.25,192.64,136.06,194.08,135.87,195.52Zm1.29-9.59h10.06c0-.12,0-.24,0-.36h-10C137.19,185.69,137.17,185.81,137.16,185.93Zm.78-5.65h8.72q-.09-.74-.18-1.35c-.1-.68-.2-1.24-.31-1.67a10.06,10.06,0,0,0-.4-1.28h-7.24C138.36,177.25,138.15,178.7,137.94,180.28Zm1.34-9.6h2.3l-.39-.27v-.07H139.3l0,.12S139.31,170.53,139.28,170.68Z" style="fill: rgb(3, 4, 2); opacity: 0.1; transform-origin: 149.695px 218.785px;" class="animable"></path></g><path d="M82.37,386.17s-20.72,36.64-20.74,36.66c-3.33,7.39-6.11,13.93-7.24,17.45a.07.07,0,0,0,0,.05,5.66,5.66,0,0,0-.49,2.53.64.64,0,0,0,0,.07c1.53,2.48,59.81,30.8,62.17,31.1s3.42-6.41,2-9.31S99.26,441,99.26,441L119.6,404.2Z" style="fill: rgb(247, 169, 160); transform-origin: 86.7479px 430.105px;" id="el3805iy0co7u" class="animable"></path><path d="M115.15,473.82c-2.36-.31-59.71-28.41-61.23-30.89,0,0,0,0,0-.07a5.68,5.68,0,0,1,.48-2.52l0-.06c1.13-3.52,3.92-10.06,7.24-17.45,0,0,3.49-6.4,4.88-8.63l37.07,19.16L99.26,441s16.53,20.6,17.92,23.51S117.52,474.13,115.15,473.82Z" style="fill: rgb(149, 214, 9); transform-origin: 85.8591px 444.015px;" id="eldjm79mkade" class="animable"></path><path d="M116.72,470.44c-9.66-5.28-49.14-25.68-59.09-30.17-.09,0-.11,0,0,.07,9.47,5.44,49.11,25.52,59.05,30.26C116.85,470.7,116.92,470.55,116.72,470.44Z" style="fill: rgb(255, 255, 255); transform-origin: 87.1983px 455.451px;" id="elyiejithn6" class="animable"></path><path d="M103.13,441.06c-3.48-2.7-8.5-4.53-12.86-3.31-.16.05-.09.29,0,.31a60.79,60.79,0,0,1,12.54,3.48A.28.28,0,0,0,103.13,441.06Z" style="fill: rgb(38, 50, 56); transform-origin: 96.7165px 439.476px;" id="elpgaqjxiqf5b" class="animable"></path><path d="M105,444.17c-3.48-2.7-8.49-4.54-12.85-3.31-.17.05-.1.29,0,.31a61,61,0,0,1,12.54,3.48A.28.28,0,0,0,105,444.17Z" style="fill: rgb(38, 50, 56); transform-origin: 98.5889px 442.583px;" id="elai7jx4ux30i" class="animable"></path><path d="M107,447.28c-3.48-2.7-8.5-4.54-12.85-3.31-.17,0-.1.29,0,.31a60.88,60.88,0,0,1,12.55,3.48A.28.28,0,0,0,107,447.28Z" style="fill: rgb(38, 50, 56); transform-origin: 100.59px 445.692px;" id="el00kpz63w8jlfr" class="animable"></path><path d="M68.94,431.26c-3.12-4.27-9.77.58-6.64,4.86S72.07,435.54,68.94,431.26Z" style="fill: rgb(255, 255, 255); transform-origin: 65.6204px 433.692px;" id="ele9e8lstmn0s" class="animable"></path><g id="eljvfhs7sjxyp"><path d="M102.59,442.54l4.18,26.07c5.25,2.61,8.88,4.33,9.44,4.42,2.38.37,3.6-6.39,2.27-9.34C117.47,461.44,107.41,448.62,102.59,442.54Z" style="opacity: 0.1; transform-origin: 110.809px 457.792px;" class="animable"></path></g><path d="M118.18,471.4c.83.94-1.19,4.31-2.09,4.21s-64.06-33-65-33.8,1.43-4.45,2.79-4S118.18,471.4,118.18,471.4Z" style="fill: rgb(38, 50, 56); transform-origin: 84.6256px 456.692px;" id="el9adrjkc0f4r" class="animable"></path><path d="M65.12,414.11l41.76,22.3S160.9,358,162,338.22c1.46-27.26-21.81-113.8-21.81-113.8L103,224.17s15.09,89,13.87,104.18C116.23,336.29,65.12,414.11,65.12,414.11Z" style="fill: rgb(38, 50, 56); transform-origin: 113.593px 330.29px;" id="el1votdh7fpto" class="animable"></path><path d="M110.52,427.78c-2.15-1.55-21.94-13-37-20.35-.1-.05-.17.1-.08.16,4.58,3,34.12,19.2,37,20.35C110.51,428,110.62,427.85,110.52,427.78Z" style="fill: rgb(55, 71, 79); transform-origin: 91.9793px 417.687px;" id="el7p8w6h38ea6" class="animable"></path><path d="M122,309.33c-1.72-13-3.62-26-5.78-39s-4.47-26-7.19-38.94c-.33-1.58-.68-3.15-1-4.73a.19.19,0,0,0-.38.08c2.29,12.81,4.65,25.61,6.75,38.46s4.07,25.71,5.83,38.6c.44,3.19.86,6.39,1.27,9.58a85.23,85.23,0,0,1,1,10,25.33,25.33,0,0,1-1.59,9.32,54.2,54.2,0,0,1-4.28,8.38c-6.71,11.36-38.1,64.35-38.88,65.79,0,.1.08.2.14.1,7.22-11.2,30.92-50.31,37.73-61.85,3.07-5.21,6.59-10.49,7.6-16.56C124.21,322.21,122.86,315.6,122,309.33Z" style="fill: rgb(55, 71, 79); transform-origin: 100.659px 316.759px;" id="elb3xif4p92ok" class="animable"></path><path d="M111.33,410.78s-.42,42.35-.42,42.38c.23,8.11.57,15.2,1.09,18.86a.13.13,0,0,0,0,.06,5.6,5.6,0,0,0,.66,2.48l0,.05c2.46,1.57,67.25,1.67,69.51.91s.29-7.26-2.23-9.27-27.31-13.14-27.31-13.14l0-42.33Z" style="fill: rgb(247, 169, 160); transform-origin: 147.036px 443.38px;" id="el2hk8jr7pp4r" class="animable"></path><path d="M111,444.47s-.09,8.66-.09,8.69c.23,8.11.57,15.2,1.09,18.86a.13.13,0,0,0,0,.06,11.07,11.07,0,0,0,.66,2.48l0,.05c2.46,1.57,67.25,1.67,69.51.91s.29-7.26-2.23-9.27-27.31-13.14-27.31-13.14v-8.83Z" style="fill: rgb(149, 214, 9); transform-origin: 147.036px 460.13px;" id="elvjj87zw9x1m" class="animable"></path><path d="M181.57,472.9c-11-.47-55.43-1.3-66.34-.92-.09,0-.09.06,0,.07,10.9.69,55.33,1.17,66.34,1C181.8,473.07,181.8,472.91,181.57,472.9Z" style="fill: rgb(255, 255, 255); transform-origin: 148.453px 472.484px;" id="elnyfqiy70k6g" class="animable"></path><path d="M156.39,452.56c-4.32-.88-9.63-.31-13,2.72-.13.11,0,.3.18.25a60.85,60.85,0,0,1,12.78-2.42A.28.28,0,0,0,156.39,452.56Z" style="fill: rgb(38, 50, 56); transform-origin: 149.969px 453.861px;" id="el7dzyc6s91hn" class="animable"></path><path d="M159.48,454.5c-4.31-.88-9.62-.31-13,2.72-.13.11,0,.3.18.25a60.94,60.94,0,0,1,12.79-2.42A.28.28,0,0,0,159.48,454.5Z" style="fill: rgb(38, 50, 56); transform-origin: 153.061px 455.801px;" id="elz5rhafp0th" class="animable"></path><path d="M162.58,456.44c-4.32-.89-9.63-.31-13,2.72-.13.11,0,.3.18.25A61.06,61.06,0,0,1,162.55,457,.28.28,0,0,0,162.58,456.44Z" style="fill: rgb(38, 50, 56); transform-origin: 156.185px 457.739px;" id="el8f0t14s6t5i" class="animable"></path><path d="M183.3,473.12c1.17.47.84,4.39,0,4.69s-72.05-1.27-73.26-1.56-.68-4.63.73-4.83S183.3,473.12,183.3,473.12Z" style="fill: rgb(38, 50, 56); transform-origin: 146.713px 474.627px;" id="elf0h2potov7a" class="animable"></path><path d="M121.39,458.89c-4.69-2.45-8.51,4.84-3.8,7.29S126.09,461.34,121.39,458.89Z" style="fill: rgb(255, 255, 255); transform-origin: 119.49px 462.535px;" id="elpgtgg3lg35p" class="animable"></path><path d="M139.67,224.33l0,0c-.24.77-13.58,37.33-14.84,37.91-1.42.66,29.47,52.56,31.3,76.67,1.17,15.42-1.12,107.32-1.12,107.32H109.82S112,363.18,113,338.32c.4-9.64-31-57.64-31.4-87.52-.12-9.42,6.65-26.63,6.65-26.63Z" style="fill: rgb(38, 50, 56); transform-origin: 119.031px 335.2px;" id="elhzu1le0lvx" class="animable"></path><path d="M113.28,337.65c0-.4-.31-.53-.34-.12-1,13.45-1.26,26.83-1.91,40.31s-.27,16.67-.87,30.11c-.34,7.61,0,19.86-.2,27.47,0,.12.18.14.19,0C111.56,422,113.27,345.27,113.28,337.65Z" style="fill: rgb(55, 71, 79); transform-origin: 111.62px 386.398px;" id="el9ipigaiyvbk" class="animable"></path><path d="M156.11,339.48a67.12,67.12,0,0,0-.91-9.91,49.75,49.75,0,0,0-2.79-9.3c-2.5-6.29-5.45-12.42-8.27-18.58s-5.77-12.44-8.78-18.6q-2.54-5.19-5.11-10.37c-1.74-3.49-3.61-6.92-5.43-10.36a.12.12,0,1,0-.21.1c2.89,6.22,5.75,12.45,8.65,18.67s5.73,12.45,8.58,18.69,5.6,12.28,8.24,18.49a61.17,61.17,0,0,1,3.22,9.14,53.41,53.41,0,0,1,1.32,9.83c.44,7.72.65,15.46,1.41,23.15a.09.09,0,0,0,.17,0C156.43,353.46,156.32,346.44,156.11,339.48Z" style="fill: rgb(55, 71, 79); transform-origin: 140.455px 311.377px;" id="elp9etbpehvs" class="animable"></path><path d="M151.72,437.34c-2.63-.34-22.64-1-39.39-.32a.09.09,0,0,0,0,.17c5.45.49,36.29.7,39.36.34C151.8,437.52,151.84,437.35,151.72,437.34Z" style="fill: rgb(55, 71, 79); transform-origin: 132.031px 437.218px;" id="elsu454ih6ia" class="animable"></path><path d="M131.05,260.25a86.1,86.1,0,0,0-14.12,4.9.15.15,0,0,0,.1.29c4.74-1.49,9.56-2.88,14.21-4.62A.3.3,0,0,0,131.05,260.25Z" style="fill: rgb(55, 71, 79); transform-origin: 124.135px 262.842px;" id="ele5fux7kpk15" class="animable"></path><path d="M135.61,229.29c0-.16-.27-.22-.29,0A150.83,150.83,0,0,1,133,244.33c-.45,2.32-3.66,15-7.62,13.69-.66-.22-.94-.93-.94-2a16.27,16.27,0,0,1,.94-3.91c.73-2.66,1.37-5.34,1.88-8.05a74.26,74.26,0,0,0,1.4-15.31.13.13,0,0,0-.26,0,140.25,140.25,0,0,1-3.4,21c-.85,3.31-3.06,8.2.4,9.08s6.72-7.35,7.39-9.62A78,78,0,0,0,135.61,229.29Z" style="fill: rgb(55, 71, 79); transform-origin: 129.565px 243.758px;" id="eljgh7vcf6q6r" class="animable"></path><path d="M125.46,258.38a22.37,22.37,0,0,0-1.18,2.59,6.19,6.19,0,0,0-.61,2.16c0,.15.19.18.28.09a8,8,0,0,0,1.16-2c.39-.8.8-1.59,1.17-2.4A.46.46,0,0,0,125.46,258.38Z" style="fill: rgb(55, 71, 79); transform-origin: 125.003px 260.703px;" id="eltkayksidzg" class="animable"></path><path d="M117.9,350.92c.24-6.42.95-13.15-1.16-19.35a63.35,63.35,0,0,0-4.12-8.79q-2.34-4.53-4.61-9.11c-6-12.19-11.72-24.57-16.8-37.19a79,79,0,0,1-5.51-18.84A58.18,58.18,0,0,1,87,237.15c.39-1.67.79-3.33,1.25-5,0-.12-.15-.19-.19-.07a67.48,67.48,0,0,0-3.52,19.6,55.19,55.19,0,0,0,3.4,18.72c2.16,6.31,4.88,12.44,7.55,18.54q4.13,9.44,8.58,18.73c3,6.16,6.1,12.22,9.22,18.29a33,33,0,0,1,3.47,9.23,47.48,47.48,0,0,1,.37,10.11c-.53,14.21-1.75,66.12-1.93,80.29,0,1.8,0,3.6-.07,5.4,0,.16.24.18.25,0C116.24,416.89,117.39,365.08,117.9,350.92Z" style="fill: rgb(55, 71, 79); transform-origin: 101.375px 331.568px;" id="elj4ex4h9wgej" class="animable"></path><path d="M107.77,233.54c0-.11-.16-.09-.17,0-.53,3.91-.83,8-2.72,11.52-1.73,3.25-4.76,5.35-8,6.82A57.9,57.9,0,0,1,91,254c-.14.05-.11.27,0,.24,3.74-.78,7.54-1.65,10.78-3.75,3.48-2.24,5.27-5.84,5.84-9.86A34,34,0,0,0,107.77,233.54Z" style="fill: rgb(55, 71, 79); transform-origin: 99.3969px 243.854px;" id="ela4xochxcjtd" class="animable"></path><path d="M86,227.19c.09.18,59.51,16.37,60.18,15.94.06,0,2.52-1.36,3-6,.14-1.26-1.55-6.69-1.59-10.71-.14-14.07.41-40.21-3.41-54.25-1-3.78-9.16-8.1-13.62-5.36C110.5,179.2,85.86,227,86,227.19Z" style="fill: rgb(235, 235, 235); transform-origin: 117.594px 204.542px;" id="elyeo4zg57z2j" class="animable"></path><path d="M133.57,165.75s-2.21,30-3,33.45c-.55,2.44-7.28,26.9-10.75,44.58-1.48,7.57-.79,19.49-.79,19.49s-20.69-6.72-27-11C88.33,249.74,80.15,239,80.15,239s13.1-29.1,20.52-40,21.65-29.8,28.29-32.56C132,165.15,133.57,165.75,133.57,165.75Z" style="fill: rgb(69, 90, 100); transform-origin: 106.86px 214.44px;" id="elhmuq5a5gkq8" class="animable"></path><g id="els9oyn3r92zb"><path d="M131.59,165.67v25.55h-.09c-.09.91-.17,1.76-.25,2.56V165.73Zm-9.94,6.6v62.84c.25-1.15.51-2.31.77-3.46,0-.12.06-.24.09-.35.41-1.77.83-3.55,1.25-5.3l1-4.29,1.14-4.57V168.31c-.73.58-1.52,1.26-2.33,2-.12.1-.25.22-.37.34C122.73,171.17,122.19,171.71,121.65,172.27ZM116,178.56v83.69l.35.12V178.15C116.23,178.29,116.12,178.43,116,178.56Zm-9.6,12.32v67.93c1.48.56,2.94,1.1,4.3,1.59V185.15c-.1.14-.21.29-.32.42l-.27.36C108.83,187.59,107.59,189.25,106.4,190.88Zm-5.64,8v57.74l.35.14V198.34C101,198.51,100.87,198.67,100.76,198.84Zm-6.93,11.92c-.89,1.68-1.78,3.42-2.67,5.16v35.67c.28.24.54.43.78.6l.07.05a32.33,32.33,0,0,0,3.46,2V207.72C94.92,208.7,94.38,209.73,93.83,210.76Zm-8.31,16.69v18.19l.35.42V226.72C85.75,227,85.63,227.21,85.52,227.45Zm-5.3,11.36a1,1,0,0,1-.07.16.3.3,0,0,1,.07.08Zm34.38,23,1.05.35H119c0-.11,0-.23,0-.35Zm-22.66-9.59.07.05a32.33,32.33,0,0,0,3.46,2c1.51.74,3.23,1.52,5.06,2.28h18.34c0-1.34,0-2.8.09-4.29Zm-5.66-5.65c.11.11.21.22.31.34h32.76c0-.11,0-.23,0-.34ZM80.15,239a.3.3,0,0,1,.07.08c.19.26.82,1.08,1.71,2.2h38.41c.28-1.41.58-2.85.9-4.31H81.08c-.44.94-.73,1.6-.86,1.87A1,1,0,0,1,80.15,239Zm3.38-7.32h38.89c0-.12.06-.24.09-.35H83.7ZM86.21,226h37.55l1-4.29H88.29C87.57,223.18,86.87,224.62,86.21,226Zm4.71-9.6h35.21l.09-.34H91.1Zm2.91-5.64h33.74l1.11-4.3H96.16l-.69,1.26C94.92,208.7,94.38,209.73,93.83,210.76Zm5.41-9.6h30.83c0-.12.06-.23.09-.34H99.47Zm3.82-5.64h28c.06-.54.12-1.12.19-1.74.08-.8.16-1.65.25-2.56H106.15C105.07,192.7,104,194.15,103.06,195.52Zm7-9.59H132l0-.36H110.38Zm4.47-5.65h17.86c.12-1.48.24-2.92.35-4.3H118.22c-.63.7-1.25,1.43-1.87,2.17-.12.14-.23.28-.35.41Zm9-9.94c-.12.1-.25.22-.37.34h8.35v-.34Z" style="fill: rgb(3, 4, 2); opacity: 0.1; transform-origin: 106.445px 214.02px;" class="animable"></path></g><path d="M139.92,181.13c-3.36-.8-6.18-9.61-6.35-14.35,0-.33,1.25-1.88,3.22-5,1.19-1.9,2.47-4,3.5-6.08l11.23,9.55a36.36,36.36,0,0,0-5.18,7.21,5.6,5.6,0,0,0-.33.88,1.31,1.31,0,0,0,0,.15C145.42,175.2,143.16,181.9,139.92,181.13Z" style="fill: rgb(247, 169, 160); transform-origin: 142.545px 168.446px;" id="eldaa9iceucha" class="animable"></path><path d="M144.52,175.33c.22.13.45.23.67.34.36-.92.63-1.73.77-2.19a1.31,1.31,0,0,1,0-.15,5.6,5.6,0,0,1,.33-.88,36.36,36.36,0,0,1,5.18-7.21l-11.23-9.55c-.22.43-.44.85-.68,1.29C138.31,161.67,136.82,171.25,144.52,175.33Z" style="fill: rgb(38, 50, 56); transform-origin: 145.009px 165.68px;" id="el25rc0r02blf" class="animable"></path><path d="M143.59,142.6c-3.27,4.18-6.05,18.83-3.85,23.19,3.18,6.3,11,9.81,17,5.39,5.84-4.29,9.12-23.45,6.42-27.68C159.23,137.28,148.43,136.42,143.59,142.6Z" style="fill: rgb(247, 169, 160); transform-origin: 151.536px 155.767px;" id="elothqudf4qof" class="animable"></path><path d="M153.74,156.52s-.09,0-.09.06c-.22,1-.64,2.07-1.6,2.17a0,0,0,0,0,0,.06C153.16,158.93,153.69,157.48,153.74,156.52Z" style="fill: rgb(38, 50, 56); transform-origin: 152.895px 157.669px;" id="elrsk4gu6bxn8" class="animable"></path><path d="M153.13,155.28c-1.53-.52-2.46,2.59-1,3.07S154.42,155.71,153.13,155.28Z" style="fill: rgb(38, 50, 56); transform-origin: 152.584px 156.811px;" id="elpee69pqf02" class="animable"></path><path d="M159.27,158.2s.07.07,0,.11c-.31.95-.51,2.1.26,2.68a0,0,0,0,1,0,0C158.54,160.58,158.82,159.06,159.27,158.2Z" style="fill: rgb(38, 50, 56); transform-origin: 159.195px 159.595px;" id="elk9z8wjeeffp" class="animable"></path><path d="M160.43,157.45c1.59.34.79,3.49-.68,3.17S159.11,157.17,160.43,157.45Z" style="fill: rgb(38, 50, 56); transform-origin: 160.136px 159.038px;" id="elpasda3ed62" class="animable"></path><path d="M152.07,154.3a12,12,0,0,0,1.19.6,2.12,2.12,0,0,0,1.33.37.7.7,0,0,0,.52-.66,1.72,1.72,0,0,0-1.07-1.35,2.51,2.51,0,0,0-1.78-.28A.73.73,0,0,0,152.07,154.3Z" style="fill: rgb(38, 50, 56); transform-origin: 153.42px 154.099px;" id="eloyrq7zxr76q" class="animable"></path><path d="M162.4,155.19c-.41-.2-.75-.45-1.14-.68s-.81-.44-1-.93a.69.69,0,0,1,.28-.79,1.71,1.71,0,0,1,1.71.18,2.47,2.47,0,0,1,1.19,1.35A.73.73,0,0,1,162.4,155.19Z" style="fill: rgb(38, 50, 56); transform-origin: 161.851px 153.959px;" id="el8hh9krplad" class="animable"></path><path d="M149.94,164.72c.16.29.3.67.64.8a2.77,2.77,0,0,0,1.11.07s.05,0,0,.06a1.37,1.37,0,0,1-1.38.16,1.08,1.08,0,0,1-.51-1.08C149.83,164.67,149.91,164.67,149.94,164.72Z" style="fill: rgb(38, 50, 56); transform-origin: 150.75px 165.305px;" id="elhhqi3vr6emc" class="animable"></path><path d="M151.81,162.13a3.39,3.39,0,0,0,1.75,2.11,4.26,4.26,0,0,0,1.17.4.86.86,0,0,0,.23.05l.22,0a.26.26,0,0,0,.26-.16h0a.36.36,0,0,0,0-.1h0l0-.08c.24-.74.51-1.89.51-1.89.23.22,1.42,1.25,1.52.86A51.82,51.82,0,0,0,159.18,153a.09.09,0,0,0-.18,0c-.86,3.1-1.16,6.34-2,9.48a6,6,0,0,0-1.41-.93c-.11,0-.47,2.23-.6,2.55,0,0,0,0,0,0a4.72,4.72,0,0,1-3.08-2.06C151.87,162,151.77,162,151.81,162.13Z" style="fill: rgb(38, 50, 56); transform-origin: 155.49px 158.801px;" id="el933i4bg219" class="animable"></path><path d="M139.34,154.05c3.48,1.5,6.83-2.11,7.2-5.82,0,0,9.05,4.58,12.17-2.88a9.16,9.16,0,0,0,5.34,5.87l-.29,2.9c1.07.06,3.08-2.35,1.46-5.35a9.66,9.66,0,0,0-.84-7.12,5.48,5.48,0,0,0-5.3-2.73,8.34,8.34,0,0,0-5.23-3.42,7.08,7.08,0,0,0-6.21,1.9s-5-.75-7,2.31a7.36,7.36,0,0,0-1,5.91s-1.64.89-2,3.95C137.32,151.54,138.29,153.59,139.34,154.05Z" style="fill: rgb(38, 50, 56); transform-origin: 151.703px 144.892px;" id="el6w40zbs61ms" class="animable"></path><path d="M158.74,144.6a9.79,9.79,0,0,1-.63,1.87,7.39,7.39,0,0,1-1,1.68,5.09,5.09,0,0,1-3.15,2,8.4,8.4,0,0,1-3.81-.35c-.61-.24-1.24-.43-1.84-.7s-1.18-.57-1.79-.84c.55.36,1.13.69,1.69,1.05s1.22.55,1.83.83a8.11,8.11,0,0,0,4,.46,5.29,5.29,0,0,0,3.36-2.21A8,8,0,0,0,158.74,144.6Z" style="fill: rgb(38, 50, 56); transform-origin: 152.63px 147.638px;" id="eldb8ueuxvmsk" class="animable"></path><path d="M162.09,150.72a10.32,10.32,0,0,1-2.34-2.56,6.13,6.13,0,0,1-.7-1.54,7.54,7.54,0,0,1-.29-1.73,4.25,4.25,0,0,0-.06,1.81,4.65,4.65,0,0,0,.66,1.71,5.61,5.61,0,0,0,1.19,1.38A5.51,5.51,0,0,0,162.09,150.72Z" style="fill: rgb(38, 50, 56); transform-origin: 160.36px 147.805px;" id="el4wzu9v0g2xy" class="animable"></path><path d="M142.24,155.35s-1.5-5.59-3.93-5.21-2.42,7.69-.37,9.44a2.57,2.57,0,0,0,3.71-.13Z" style="fill: rgb(247, 169, 160); transform-origin: 139.341px 155.215px;" id="el1gncsteavq8" class="animable"></path><path d="M138.36,152.23s-.06,0,0,.06a6.5,6.5,0,0,1,1.77,5,1.41,1.41,0,0,0-1.86-1.09.06.06,0,0,0,0,.11,1.58,1.58,0,0,1,1.45,1.11A7.76,7.76,0,0,1,140,159c0,.17.32.19.33,0v0C141.14,156.85,140.57,153.27,138.36,152.23Z" style="fill: rgb(38, 50, 56); transform-origin: 139.457px 155.683px;" id="elzl1m4qb7f6" class="animable"></path><path d="M122.48,179.32c-2.4,17.39-1,49.3,2.25,54.68,2.86,4.75,20.65,14.24,30.81,19.22,3.31,1.61,14.66-23.57,11-25.11-4.93-2.09-22.79-10.57-23.35-11.67s-5.41-24.56-9.83-37.77C129.39,166.69,123.38,172.74,122.48,179.32Z" style="fill: rgb(247, 169, 160); transform-origin: 144.266px 212.557px;" id="el3f0g6zej85z" class="animable"></path><path d="M169.69,228c7.7,1.62,9.43,3.22,16.66,1.14,4.74-1.37,7.65,1.07,3.94,4.62-6,5.81-16.43,5.81-20,4.77Z" style="fill: rgb(247, 169, 160); transform-origin: 180.833px 233.528px;" id="el7srp821a76f" class="animable"></path><path d="M246.75,267.24l-15.21-7.18L172,251a6.26,6.26,0,0,0-7.13,5.25l-13.5,89a6.28,6.28,0,0,0,5.26,7.14l73.66,11.17a6.27,6.27,0,0,0,7.14-5.26l12.81-84.45A6.28,6.28,0,0,0,246.75,267.24Z" style="fill: rgb(149, 214, 9); transform-origin: 200.806px 307.28px;" id="el1ke1nlerumq" class="animable"></path><g id="el6sytlpbbzs2"><path d="M246.75,267.24l-15.21-7.18L172,251a6.26,6.26,0,0,0-7.13,5.25l-13.5,89a6.28,6.28,0,0,0,5.26,7.14l73.66,11.17a6.27,6.27,0,0,0,7.14-5.26l12.81-84.45A6.28,6.28,0,0,0,246.75,267.24Z" style="fill: rgb(255, 255, 255); opacity: 0.6; transform-origin: 200.806px 307.28px;" class="animable"></path></g><path d="M231.54,260.06l-11.88-1.8-4.43-11.35a1.76,1.76,0,0,0-1.39-1.1l-29.7-4.51a1.78,1.78,0,0,0-2,2l1.12,9.48-18.64,5.57,3.56-23.45a4.79,4.79,0,0,1,5.46-4l46.7,7.08a4.79,4.79,0,0,1,3.75,3Z" style="fill: rgb(149, 214, 9); transform-origin: 198.08px 245.452px;" id="el9l5s553tb5d" class="animable"></path><g id="el97kqxsdq31"><path d="M231.54,260.06l-11.88-1.8-4.43-11.35a1.76,1.76,0,0,0-1.39-1.1l-29.7-4.51a1.78,1.78,0,0,0-2,2l1.12,9.48-18.64,5.57,3.56-23.45a4.79,4.79,0,0,1,5.46-4l46.7,7.08a4.79,4.79,0,0,1,3.75,3Z" style="fill: rgb(255, 255, 255); opacity: 0.6; transform-origin: 198.08px 245.452px;" class="animable"></path></g><g id="elksu96iysk39"><rect x="235.83" y="251.19" width="18.76" height="6.7" style="fill: rgb(149, 214, 9); transform-origin: 245.21px 254.54px; transform: rotate(25.26deg);" class="animable"></rect></g><g id="elsaifp98d0ms"><rect x="235.83" y="251.19" width="18.76" height="6.7" style="opacity: 0.3; transform-origin: 245.21px 254.54px; transform: rotate(25.26deg);" class="animable"></rect></g><g id="elua9nb3tqxlo"><rect x="234.87" y="257.18" width="14.52" height="7.49" style="fill: rgb(149, 214, 9); transform-origin: 242.13px 260.925px; transform: rotate(25.26deg);" class="animable"></rect></g><g id="elgeeqbnj4o5"><rect x="234.87" y="257.18" width="14.52" height="7.49" style="opacity: 0.3; transform-origin: 242.13px 260.925px; transform: rotate(25.26deg);" class="animable"></rect></g><g id="el5wegy9zz147"><polygon points="249.5 262.33 235.99 256.93 237.16 254.44 250.3 260.64 249.5 262.33" style="opacity: 0.1; transform-origin: 243.145px 258.385px;" class="animable"></polygon></g><g id="eltq2q8et6p2k"><g style="opacity: 0.4; transform-origin: 201.206px 307.324px;" class="animable"><path d="M170.11,328.29a1.48,1.48,0,0,0-.31,2.09,1.51,1.51,0,0,0,1,.6,1.56,1.56,0,0,0,1.11-.28l12.56-9.25,28.48,4.32,9.26,12.56a1.5,1.5,0,0,0,2.09.32,1.5,1.5,0,0,0,.32-2.1l-9.31-12.64,4.29-28.29,12.64-9.31a1.5,1.5,0,1,0-1.78-2.41l-12.67,9.34L189.48,289l-9.33-12.68a1.5,1.5,0,0,0-2.42,1.78l9.33,12.66L182.77,319Z" style="fill: rgb(149, 214, 9); transform-origin: 201.206px 307.324px;" id="elhqu4a99vq16" class="animable"></path></g></g><path d="M147.67,228s9.89-1.61,18.27-.7c5.79.64,18.24,3.42,25.4,19.27,1.7,3.76,1.45,10.32-3.55,5.19-3.56-3.65-4.71-7-7.16-8.78,0,0-1.31,8.31-5.14,9.86a74.29,74.29,0,0,1-10.3,3.35,15.06,15.06,0,0,1-.8-1.87s-3.72,1.11-9.06-1.4Z" style="fill: rgb(247, 169, 160); transform-origin: 169.979px 241.606px;" id="elm5a8mdwz94" class="animable"></path><path d="M171.37,228.83c2.07,2.25,6.38,7.08,8.52,12.26,2.39,5.76,5.43,17.48,1.17,19.2-3.13,1.26-4.69-3.12-4.69-3.12s.24,5.11-2.84,5.63c-2.8.48-3.8-3-3.8-3s-.39,3.12-3.17,3.06c-3.35-.08-2-6.61-5.31-9.63C160.5,252.58,171.37,228.83,171.37,228.83Z" style="fill: rgb(247, 169, 160); transform-origin: 172.203px 245.845px;" id="eljn5t56m0sad" class="animable"></path><path d="M173.39,242.6a24.76,24.76,0,0,1,3.06,14.47c0,.13-.12.18-.13.06a61.07,61.07,0,0,0-3-14.51S173.38,242.57,173.39,242.6Z" style="fill: rgb(38, 50, 56); transform-origin: 174.941px 249.894px;" id="el5ha6bka3dfg" class="animable"></path><path d="M167.66,245.17c1.16,2.24,3.15,9,2.19,14.63,0,.13-.13.18-.14.06a65.24,65.24,0,0,0-2.11-14.67S167.64,245.14,167.66,245.17Z" style="fill: rgb(38, 50, 56); transform-origin: 168.852px 252.544px;" id="el4gmsaqm7kr1" class="animable"></path><path d="M123.24,232.39c4.12,9,29.37,21.47,29.37,21.47l10.15-29s-18.73-8-19.22-9c-1-2.18-5.5-28.22-10.84-40.17-4.5-10-9.95-4.6-11.26,6.38C119.85,195.29,121.79,229.2,123.24,232.39Z" style="fill: rgb(69, 90, 100); transform-origin: 141.802px 212.139px;" id="el6wywj57uehf" class="animable"></path><g id="elupurtq85da"><path d="M162.07,224.58v2.24l-.35,1v-3.4Zm-9.94-4.37v33.4l.48.24.59-1.66,1.85-5.31.12-.34,1.26-3.58V222.13l-1-.42Zm-5.65-2.64v33l.35.19V217.74Zm-9.6-29.52v56.81c.88.58,1.77,1.14,2.64,1.68l.56.34,1.11.67V205.82c-.33-1.46-.67-3-1.05-4.66,0-.11,0-.22-.07-.34-.4-1.72-.81-3.49-1.25-5.3-.35-1.43-.71-2.87-1.08-4.3C137.46,190.15,137.18,189.09,136.88,188.05Zm-5.63-15v67.86c.11.09.22.18.34.26V173.55C131.48,173.36,131.37,173.19,131.25,173Zm-9.6,7.26v41.43h.19c.12,1.56.25,3,.38,4.29.23,2.32.47,4.16.71,5.3,0,.13,0,.24.08.35a5.38,5.38,0,0,0,.23.75,14.85,14.85,0,0,0,2.7,3.78V170.94c-1.24.84-2.34,2.6-3.18,5a26.74,26.74,0,0,0-1.07,4.3Zm27.75,71.91,2.73,1.42.48.24.59-1.66Zm-9.88-5.65.56.34h15l.12-.34Zm-12.84-9.6a46.27,46.27,0,0,0,4.57,3.94c.11.09.22.18.34.26l.13.11H157l1.5-4.31Zm-3.75-5.64c0,.13,0,.24.08.35h37.37l.12-.35Zm-1.09-9.59c.12,1.56.25,3,.38,4.29h40.14l.39-1.13-.68-.29-.35-.15-5.29-2.3-1-.42Zm-.38-5.65c0,.11,0,.23,0,.34h22.8c-.22-.13-.39-.25-.52-.34Zm-.44-9.6c0,1.45.1,2.89.16,4.3h21.09c-.28-1.27-.6-2.71-.94-4.3Zm-.14-5.64v.34h19.26c0-.11,0-.22-.07-.34Zm0-5.3h18c-.35-1.43-.71-2.87-1.08-4.3H120.89C120.85,192.6,120.84,194,120.84,195.52Zm.26-9.59h15.19c0-.11-.08-.24-.11-.36H121.11C121.11,185.69,121.1,185.81,121.1,185.93Zm.59-5.65h12.8c-.54-1.56-1.1-3-1.67-4.3H122.76A26.74,26.74,0,0,0,121.69,180.28Zm4.7-9.6h2.43A2.67,2.67,0,0,0,126.39,170.68Z" style="fill: rgb(3, 4, 2); opacity: 0.1; transform-origin: 141.795px 212.136px;" class="animable"></path></g><path d="M155.8,224.77c-1,1.87-3.87,9.91-4.58,11.95S148,247,147.42,249.05c0,.09.15.13.18,0,.79-2,8-22.21,8.3-24.29C155.91,224.76,155.82,224.72,155.8,224.77Z" style="fill: rgb(38, 50, 56); transform-origin: 151.66px 236.939px;" id="ell4fwj3cj4m" class="animable"></path><path d="M120.84,187.07c.89,14.2.66,29.15,1.91,43.3-1.36-7.11-1.44-14.39-1.8-21.61-.19-7.23-.31-14.46-.11-21.69Z" style="fill: rgb(38, 50, 56); transform-origin: 121.743px 208.72px;" id="elrnwc4z3j34o" class="animable"></path><path d="M119.69,189.22a34.9,34.9,0,0,1,1.15,4.93,7.83,7.83,0,0,1-1.15-4.93Z" style="fill: rgb(38, 50, 56); transform-origin: 120.245px 191.685px;" id="els78caqd98aa" class="animable"></path></g><defs>     <filter id="active" height="200%">         <feMorphology in="SourceAlpha" result="DILATED" operator="dilate" radius="2"></feMorphology>                <feFlood flood-color="#32DFEC" flood-opacity="1" result="PINK"></feFlood>        <feComposite in="PINK" in2="DILATED" operator="in" result="OUTLINE"></feComposite>        <feMerge>            <feMergeNode in="OUTLINE"></feMergeNode>            <feMergeNode in="SourceGraphic"></feMergeNode>        </feMerge>    </filter>    <filter id="hover" height="200%">        <feMorphology in="SourceAlpha" result="DILATED" operator="dilate" radius="2"></feMorphology>                <feFlood flood-color="#ff0000" flood-opacity="0.5" result="PINK"></feFlood>        <feComposite in="PINK" in2="DILATED" operator="in" result="OUTLINE"></feComposite>        <feMerge>            <feMergeNode in="OUTLINE"></feMergeNode>            <feMergeNode in="SourceGraphic"></feMergeNode>        </feMerge>            <feColorMatrix type="matrix" values="0   0   0   0   0                0   1   0   0   0                0   0   0   0   0                0   0   0   1   0 "></feColorMatrix>    </filter></defs></svg>