<svg class="animated" id="freepik_stories-oversight" xmlns="http://www.w3.org/2000/svg" viewBox="0 0 500 500" version="1.1" xmlns:xlink="http://www.w3.org/1999/xlink" xmlns:svgjs="http://svgjs.com/svgjs"><style>svg#freepik_stories-oversight:not(.animated) .animable {opacity: 0;}svg#freepik_stories-oversight.animated #freepik--background-complete--inject-2 {animation: 1s 1 forwards cubic-bezier(.36,-0.01,.5,1.38) slideDown;animation-delay: 0.8s;opacity: 0}svg#freepik_stories-oversight.animated #freepik--Floor--inject-2 {animation: 1.6s 1 forwards cubic-bezier(.36,-0.01,.5,1.38) fadeIn;animation-delay: 0.3s;opacity: 0}svg#freepik_stories-oversight.animated #freepik--speech-bubble--inject-2 {animation: 1s 1 forwards cubic-bezier(.36,-0.01,.5,1.38) slideDown,1.5s Infinite  linear floating;animation-delay: 0.7s,1.7s;opacity: 0}svg#freepik_stories-oversight.animated #freepik--character-2--inject-2 {animation: 1s 1 forwards cubic-bezier(.36,-0.01,.5,1.38) slideLeft;animation-delay: 0.2s;opacity: 0}svg#freepik_stories-oversight.animated #freepik--Table--inject-2 {animation: 1s 1 forwards cubic-bezier(.36,-0.01,.5,1.38) slideLeft;animation-delay: 0s;}svg#freepik_stories-oversight.animated #freepik--character-1--inject-2 {animation: 1s 1 forwards cubic-bezier(.36,-0.01,.5,1.38) slideLeft;animation-delay: 0.4s;opacity: 0}            @keyframes slideDown {                0% {                    opacity: 0;                    transform: translateY(-30px);                }                100% {                    opacity: 1;                    transform: translateY(0);                }            }                    @keyframes fadeIn {                0% {                    opacity: 0;                }                100% {                    opacity: 1;                }            }                    @keyframes floating {                0% {                    opacity: 1;                    transform: translateY(0px);                }                50% {                    transform: translateY(-10px);                }                100% {                    opacity: 1;                    transform: translateY(0px);                }            }                    @keyframes slideLeft {                0% {                    opacity: 0;                    transform: translateX(-30px);                }                100% {                    opacity: 1;                    transform: translateX(0);                }            }        .animator-hidden { display: none; }</style><g id="freepik--background-complete--inject-2" class="animable" style="transform-origin: 250px 256.52px;"><path d="M429.75,42.86a20.75,20.75,0,1,0,21.3,20.2A20.76,20.76,0,0,0,429.75,42.86Zm.91,34.22a13.48,13.48,0,1,1,13.11-13.83A13.48,13.48,0,0,1,430.66,77.08Z" style="fill: rgb(235, 235, 235); transform-origin: 430.307px 63.6027px;" id="elnn8sly87k7" class="animable"></path><polygon points="433.76 43.62 425.79 43.83 426.08 38.17 433.17 37.98 433.76 43.62" style="fill: rgb(235, 235, 235); transform-origin: 429.775px 40.905px;" id="eln7haitd8x7g" class="animable"></polygon><polygon points="418.65 46.7 413.16 52.49 409.36 48.29 414.25 43.14 418.65 46.7" style="fill: rgb(235, 235, 235); transform-origin: 414.005px 47.815px;" id="el8gtibh6bw33" class="animable"></polygon><polygon points="410.15 59.58 410.36 67.55 404.7 67.26 404.51 60.17 410.15 59.58" style="fill: rgb(235, 235, 235); transform-origin: 407.435px 63.565px;" id="elgu3423qgxap" class="animable"></polygon><polygon points="413.24 74.69 419.02 80.18 414.82 83.98 409.67 79.09 413.24 74.69" style="fill: rgb(235, 235, 235); transform-origin: 414.345px 79.335px;" id="el27nl2pr2j48" class="animable"></polygon><polygon points="426.11 83.19 434.08 82.98 433.79 88.64 426.7 88.83 426.11 83.19" style="fill: rgb(235, 235, 235); transform-origin: 430.095px 85.905px;" id="elm72m1q3y9us" class="animable"></polygon><polygon points="441.22 80.1 446.71 74.31 450.51 78.52 445.62 83.67 441.22 80.1" style="fill: rgb(235, 235, 235); transform-origin: 445.865px 78.99px;" id="elr95bj8qjh4" class="animable"></polygon><polygon points="449.72 67.23 449.51 59.26 455.17 59.55 455.36 66.64 449.72 67.23" style="fill: rgb(235, 235, 235); transform-origin: 452.435px 63.245px;" id="el4mjxuv2gj8u" class="animable"></polygon><polygon points="446.63 52.12 440.84 46.63 445.05 42.83 450.2 47.72 446.63 52.12" style="fill: rgb(235, 235, 235); transform-origin: 445.52px 47.475px;" id="el2gv2nkvwerm" class="animable"></polygon><path d="M211.14,304.84a20.76,20.76,0,1,0,21.29,20.21A20.76,20.76,0,0,0,211.14,304.84Zm.9,34.22a13.47,13.47,0,1,1,13.11-13.82A13.47,13.47,0,0,1,212,339.06Z" style="fill: rgb(235, 235, 235); transform-origin: 211.677px 325.593px;" id="elz5llkj0feh" class="animable"></path><polygon points="215.15 305.6 207.17 305.81 207.46 300.15 214.56 299.96 215.15 305.6" style="fill: rgb(235, 235, 235); transform-origin: 211.16px 302.885px;" id="elfayk8svza48" class="animable"></polygon><polygon points="200.03 308.69 194.54 314.48 190.75 310.27 195.63 305.12 200.03 308.69" style="fill: rgb(235, 235, 235); transform-origin: 195.39px 309.8px;" id="eltokifmlzvc" class="animable"></polygon><polygon points="191.53 321.56 191.74 329.54 186.08 329.25 185.9 322.15 191.53 321.56" style="fill: rgb(235, 235, 235); transform-origin: 188.82px 325.55px;" id="elbm045bb4weu" class="animable"></polygon><polygon points="194.62 336.67 200.41 342.17 196.2 345.96 191.05 341.08 194.62 336.67" style="fill: rgb(235, 235, 235); transform-origin: 195.73px 341.315px;" id="eldxx7f56hqd" class="animable"></polygon><polygon points="207.49 345.18 215.47 344.97 215.18 350.63 208.08 350.81 207.49 345.18" style="fill: rgb(235, 235, 235); transform-origin: 211.48px 347.89px;" id="eljiw94uw551i" class="animable"></polygon><polygon points="222.6 342.09 228.09 336.3 231.89 340.51 227 345.66 222.6 342.09" style="fill: rgb(235, 235, 235); transform-origin: 227.245px 340.98px;" id="elwi4augukcef" class="animable"></polygon><polygon points="231.11 329.22 230.9 321.24 236.55 321.53 236.74 328.63 231.11 329.22" style="fill: rgb(235, 235, 235); transform-origin: 233.82px 325.23px;" id="el9bvq0w7993t" class="animable"></polygon><polygon points="228.02 314.1 222.23 308.61 226.44 304.82 231.59 309.7 228.02 314.1" style="fill: rgb(235, 235, 235); transform-origin: 226.91px 309.46px;" id="elqfvlba8lewr" class="animable"></polygon><path d="M99.09,196A44.77,44.77,0,1,0,145,239.56,44.76,44.76,0,0,0,99.09,196Zm2,73.81A29.07,29.07,0,1,1,129.32,240,29.06,29.06,0,0,1,101,269.8Z" style="fill: rgb(235, 235, 235); transform-origin: 100.246px 240.755px;" id="elbcud9gj113g" class="animable"></path><polygon points="107.74 197.63 90.53 198.08 91.16 185.87 106.46 185.47 107.74 197.63" style="fill: rgb(235, 235, 235); transform-origin: 99.135px 191.775px;" id="el597f2w37krr" class="animable"></polygon><polygon points="75.14 204.29 63.29 216.78 55.11 207.7 65.64 196.59 75.14 204.29" style="fill: rgb(235, 235, 235); transform-origin: 65.125px 206.685px;" id="el0w5n2gxe40j" class="animable"></polygon><polygon points="56.8 232.05 57.25 249.26 45.05 248.63 44.64 233.32 56.8 232.05" style="fill: rgb(235, 235, 235); transform-origin: 50.945px 240.655px;" id="el0t5ge4g1vbv" class="animable"></polygon><polygon points="63.46 264.65 75.95 276.49 66.87 284.68 55.77 274.14 63.46 264.65" style="fill: rgb(235, 235, 235); transform-origin: 65.86px 274.665px;" id="el3dy0ue4dd1g" class="animable"></polygon><polygon points="91.22 282.99 108.43 282.53 107.8 294.74 92.49 295.14 91.22 282.99" style="fill: rgb(235, 235, 235); transform-origin: 99.825px 288.835px;" id="ely4ggamcw3rc" class="animable"></polygon><polygon points="123.82 276.32 135.67 263.84 143.85 272.91 133.31 284.02 123.82 276.32" style="fill: rgb(235, 235, 235); transform-origin: 133.835px 273.93px;" id="el6qpo18o9zc" class="animable"></polygon><polygon points="142.16 248.56 141.71 231.36 153.91 231.99 154.31 247.29 142.16 248.56" style="fill: rgb(235, 235, 235); transform-origin: 148.01px 239.96px;" id="elll51iqpcgbc" class="animable"></polygon><polygon points="135.5 215.97 123.01 204.12 132.09 195.93 143.19 206.47 135.5 215.97" style="fill: rgb(235, 235, 235); transform-origin: 133.1px 205.95px;" id="elnt5hob0cu4" class="animable"></polygon><path d="M339.39,359.59V475.06h69.8V359.59Zm63.46,72.86H345.73V402.39h57.12Zm0-37.22H345.73V365.17h57.12Z" style="fill: rgb(219, 219, 219); transform-origin: 374.29px 417.325px;" id="elfmoydo56xec" class="animable"></path><rect x="409.19" y="359.59" width="31.56" height="115.47" style="fill: rgb(235, 235, 235); transform-origin: 424.97px 417.325px;" id="el2hhj59irn6z" class="animable"></rect><rect x="345.73" y="365.17" width="13.58" height="30.06" style="fill: rgb(235, 235, 235); transform-origin: 352.52px 380.2px;" id="elqgv7jgvh58i" class="animable"></rect><path d="M403.11,468.06H345.83V438.9h57.28Zm-56.78-.5h56.28V439.4H346.33Z" style="fill: rgb(235, 235, 235); transform-origin: 374.47px 453.48px;" id="elnxkr45klvmi" class="animable"></path><rect x="368.83" y="447.22" width="11.28" height="4.12" style="fill: rgb(235, 235, 235); transform-origin: 374.47px 449.28px;" id="elldkwrmi62mp" class="animable"></rect><rect x="345.73" y="402.39" width="13.58" height="30.06" style="fill: rgb(235, 235, 235); transform-origin: 352.52px 417.42px;" id="elvrh1j5bxpp" class="animable"></rect><g id="elkbinbm0bzir"><rect x="376.41" y="413.81" width="27.71" height="9.55" style="fill: rgb(166, 166, 166); transform-origin: 390.265px 418.585px; transform: rotate(90deg);" class="animable" id="el4fcbnfj20d"></rect></g><g id="el9turw8wz5xk"><rect x="387.28" y="420.23" width="5.98" height="9.55" style="fill: rgb(219, 219, 219); transform-origin: 390.27px 425.005px; transform: rotate(90deg);" class="animable" id="el5sdac3gz0c"></rect></g><g id="elu440unfiz39"><rect x="388.49" y="410.66" width="3.55" height="9.55" style="fill: rgb(219, 219, 219); transform-origin: 390.265px 415.435px; transform: rotate(90deg);" class="animable" id="eltu8360uevii"></rect></g><rect x="362.38" y="372.03" width="24.14" height="23.19" style="fill: rgb(235, 235, 235); transform-origin: 374.45px 383.625px;" id="el68pgzeh2ydi" class="animable"></rect><rect x="386.52" y="372.03" width="9.17" height="23.19" style="fill: rgb(199, 199, 199); transform-origin: 391.105px 383.625px;" id="el91ta61ht049" class="animable"></rect><polygon points="362.38 383.63 386.52 383.63 367.67 384.23 362.38 383.63" style="fill: rgb(199, 199, 199); transform-origin: 374.45px 383.93px;" id="elhegabl3kk1j" class="animable"></polygon><polygon points="386.52 392.43 362.38 392.43 381.23 393.02 386.52 392.43" style="fill: rgb(199, 199, 199); transform-origin: 374.45px 392.725px;" id="elq3hb60md1ef" class="animable"></polygon><polygon points="362.38 377.15 377.67 377.15 364.08 377.64 362.38 377.15" style="fill: rgb(199, 199, 199); transform-origin: 370.025px 377.395px;" id="elj6osyfi5arj" class="animable"></polygon><polygon points="386.52 389.01 371.23 389.01 384.82 389.5 386.52 389.01" style="fill: rgb(199, 199, 199); transform-origin: 378.875px 389.255px;" id="elmljz8ddvev" class="animable"></polygon><polygon points="368.17 374.57 385.42 374.57 382.54 374.86 368.17 374.57" style="fill: rgb(199, 199, 199); transform-origin: 376.795px 374.715px;" id="eltceka7vq6ds" class="animable"></polygon><polygon points="364.73 386.12 381.97 386.12 379.1 386.41 364.73 386.12" style="fill: rgb(199, 199, 199); transform-origin: 373.35px 386.265px;" id="elskov8tat57o" class="animable"></polygon><polygon points="375.33 379.36 386.52 379.36 388.52 380.14 375.33 379.36" style="fill: rgb(235, 235, 235); transform-origin: 381.925px 379.75px;" id="el3a04z0zkj7e" class="animable"></polygon><polygon points="359.3 379.36 370.49 379.36 372.49 380.14 359.3 379.36" style="fill: rgb(235, 235, 235); transform-origin: 365.895px 379.75px;" id="elw177cx3f6e" class="animable"></polygon><polygon points="373.66 389.78 362.47 389.78 360.47 390.56 373.66 389.78" style="fill: rgb(235, 235, 235); transform-origin: 367.065px 390.17px;" id="el3t2q3td91mz" class="animable"></polygon><polygon points="386.52 387.13 395.5 387.13 397.5 387.91 386.52 387.13" style="fill: rgb(199, 199, 199); transform-origin: 392.01px 387.52px;" id="elyh6uj0txxe9" class="animable"></polygon><polygon points="389.66 383.63 396.62 383.63 395.69 382.99 389.66 383.63" style="fill: rgb(199, 199, 199); transform-origin: 393.14px 383.31px;" id="elrn6fnfm5ht" class="animable"></polygon><rect x="395.04" y="402.88" width="7.81" height="29.56" style="fill: rgb(235, 235, 235); transform-origin: 398.945px 417.66px;" id="el9k4ctqf9zb6" class="animable"></rect><path d="M399,408.71a1.63,1.63,0,1,1,1.63-1.62A1.63,1.63,0,0,1,399,408.71Z" style="fill: rgb(255, 255, 255); transform-origin: 399px 407.08px;" id="elopghiaplomb" class="animable"></path><path d="M399,408a.93.93,0,1,1,.93-.93A.93.93,0,0,1,399,408Z" style="fill: rgb(166, 166, 166); transform-origin: 399px 407.07px;" id="el04099kr3275e" class="animable"></path><g id="elcjz3nmtxsoa"><rect x="395.35" y="420.28" width="7.19" height="7.81" style="fill: rgb(255, 255, 255); transform-origin: 398.945px 424.185px; transform: rotate(90deg);" class="animable" id="elkk1iz17vxri"></rect></g><rect x="355.93" y="426.34" width="29.56" height="6.15" style="fill: rgb(199, 199, 199); transform-origin: 370.71px 429.415px;" id="elgmrl21qkgpu" class="animable"></rect><path d="M379.66,429.42a1.63,1.63,0,1,1,1.62,1.62A1.63,1.63,0,0,1,379.66,429.42Z" style="fill: rgb(255, 255, 255); transform-origin: 381.29px 429.41px;" id="eltrd93v43mm" class="animable"></path><path d="M380.35,429.42a.93.93,0,1,1,.93.93A.93.93,0,0,1,380.35,429.42Z" style="fill: rgb(166, 166, 166); transform-origin: 381.28px 429.42px;" id="elttar6f5nnur" class="animable"></path><g id="el0atltoa1944"><rect x="360.58" y="426.34" width="7.19" height="6.15" style="fill: rgb(255, 255, 255); transform-origin: 364.175px 429.415px; transform: rotate(180deg);" class="animable" id="ellt0fp1iwz8p"></rect></g><g id="elrjms6u468lq"><rect x="215.34" y="87.61" width="229.84" height="173.04" style="fill: rgb(235, 235, 235); transform-origin: 330.26px 174.13px; transform: rotate(-81.3844deg);" class="animable" id="eltfeaakuo42"></rect></g><g id="el3a3v9v2bxim"><g style="opacity: 0.1; transform-origin: 330.26px 174.13px;" class="animable" id="elhpxgf84e36"><g id="elrcm7pezj52"><rect x="215.34" y="87.61" width="229.84" height="173.04" style="fill: rgb(2, 1, 0); transform-origin: 330.26px 174.13px; transform: rotate(-81.3844deg);" class="animable" id="elx5ax16rimq"></rect></g></g></g><g id="ellqxwu30lrjo"><rect x="210.69" y="86.9" width="229.84" height="173.04" style="fill: rgb(235, 235, 235); transform-origin: 325.61px 173.42px; transform: rotate(-81.29deg);" class="animable" id="elc9mzxq8w5e9"></rect></g><g id="el8heavgua585"><rect x="223.88" y="96.06" width="207.08" height="152.76" style="fill: rgb(235, 235, 235); transform-origin: 327.42px 172.44px; transform: rotate(-82.02deg);" class="animable" id="elm8eoeux96q"></rect></g><g id="eljjbuhukvyxh"><rect x="221.55" y="95.7" width="207.08" height="152.76" style="fill: rgb(219, 219, 219); transform-origin: 325.09px 172.08px; transform: rotate(-80.05deg);" class="animable" id="el8oa0mbpo93r"></rect></g><g id="eli5nm0hy8gvb"><rect x="221.55" y="95.7" width="207.08" height="152.76" style="fill: rgb(255, 255, 255); transform-origin: 325.09px 172.08px; transform: rotate(-81.29deg);" class="animable" id="elnht4xo5pqx"></rect></g><path d="M290.06,127.19c-4-.48-11.65-1.45-15.65-2,.6-4.58,1.61-11,2.27-15.62l.07-.49.5.08c4.64.76,11,1.7,15.58,2.51-.68,4-2,11.57-2.77,15.52Zm0,0c.45-3.81,1.43-11.47,1.95-15.27l.32.44c-4.41-.6-10.76-1.56-15.23-2.22l.57-.41c-.72,4.48-1.7,10.78-2.45,15.19l-.32-.44c3.78.65,11.38,2,15.16,2.71Z" style="fill: rgb(199, 199, 199); transform-origin: 283.62px 118.135px;" id="ell48246254xs" class="animable"></path><path d="M300.07,115.82A283.21,283.21,0,0,1,333.61,121a279.15,279.15,0,0,1-33.54-5.14Z" style="fill: rgb(199, 199, 199); transform-origin: 316.84px 118.41px;" id="el8ei4p8y4nxt" class="animable"></path><path d="M299.51,119.49c28.7,3.72,60.5,8.61,89,13.63-28.73-3.74-60.53-8.59-89-13.63Z" style="fill: rgb(199, 199, 199); transform-origin: 344.01px 126.305px;" id="el7e6ijrqnj" class="animable"></path><path d="M277.25,116.64c.49.55.95,1.12,1.4,1.7s.89,1.16,1.33,1.74c.87,1.17,1.7,2.36,2.51,3.56l-1.76-.15a69.79,69.79,0,0,1,6-7.59q1.62-1.79,3.41-3.45a36.35,36.35,0,0,1,3.8-3.13,36.53,36.53,0,0,1-2.4,4.3c-.87,1.37-1.8,2.69-2.78,4a71,71,0,0,1-6.39,7.27L281.23,126l-.61-1.29c-.62-1.31-1.23-2.63-1.8-4-.27-.68-.56-1.34-.82-2S277.48,117.34,277.25,116.64Z" style="fill: rgb(38, 50, 56); transform-origin: 285.595px 117.66px;" id="elvozwjpffdki" class="animable"></path><path d="M285.69,155.69c-4-.48-11.65-1.45-15.64-2,.59-4.58,1.61-11,2.26-15.62l.08-.49.49.08c4.64.76,11,1.7,15.58,2.51-.67,4-2,11.57-2.77,15.52Zm0,0c.45-3.81,1.44-11.47,1.95-15.27l.32.44c-4.41-.6-10.76-1.56-15.23-2.22l.57-.41c-.71,4.48-1.69,10.78-2.44,15.19l-.32-.44c3.77.65,11.38,2,15.15,2.71Z" style="fill: rgb(199, 199, 199); transform-origin: 279.255px 146.635px;" id="elk0jlevcqix" class="animable"></path><path d="M295.7,144.32a283.69,283.69,0,0,1,33.55,5.14,279.62,279.62,0,0,1-33.55-5.14Z" style="fill: rgb(199, 199, 199); transform-origin: 312.475px 146.89px;" id="elb46on0eo9c9" class="animable"></path><path d="M295.14,148c28.7,3.72,60.51,8.61,89,13.63-28.73-3.74-60.52-8.59-89-13.63Z" style="fill: rgb(199, 199, 199); transform-origin: 339.64px 154.815px;" id="el932dzcygcnl" class="animable"></path><path d="M272.88,145.14c.49.55.95,1.12,1.41,1.7s.88,1.16,1.33,1.74c.87,1.17,1.69,2.36,2.5,3.56l-1.76-.15a71,71,0,0,1,6-7.59c1.09-1.19,2.22-2.34,3.41-3.45a36.35,36.35,0,0,1,3.8-3.13,36.47,36.47,0,0,1-2.39,4.3c-.88,1.37-1.81,2.69-2.79,4a70.92,70.92,0,0,1-6.38,7.27l-1.15,1.13-.62-1.29c-.62-1.31-1.23-2.63-1.79-4-.28-.68-.57-1.34-.83-2S273.11,145.84,272.88,145.14Z" style="fill: rgb(38, 50, 56); transform-origin: 281.225px 146.17px;" id="elxg0k52w7o7r" class="animable"></path><path d="M291.34,172.82A283.52,283.52,0,0,1,324.88,178a279.15,279.15,0,0,1-33.54-5.14Z" style="fill: rgb(199, 199, 199); transform-origin: 308.11px 175.41px;" id="eltow0ldka1ts" class="animable"></path><path d="M290.77,176.49c28.71,3.72,60.51,8.61,89,13.63-28.72-3.74-60.52-8.59-89-13.63Z" style="fill: rgb(199, 199, 199); transform-origin: 335.27px 183.305px;" id="elyiypoub2pd" class="animable"></path><path d="M281.34,184.12c-4-.48-11.65-1.46-15.65-2,.6-4.57,1.61-11,2.27-15.61l.07-.5.5.08c4.64.77,11,1.7,15.58,2.51-.68,4-2,11.57-2.77,15.53Zm0,0c.45-3.82,1.43-11.47,2-15.28l.32.44c-4.41-.6-10.76-1.56-15.23-2.21l.57-.42c-.72,4.48-1.7,10.78-2.45,15.19l-.32-.43c3.78.64,11.38,2,15.16,2.71Z" style="fill: rgb(199, 199, 199); transform-origin: 274.9px 175.07px;" id="elv5i1kwqrpx" class="animable"></path><path d="M268.53,173.56c.49.56,1,1.13,1.4,1.7s.89,1.16,1.33,1.74c.87,1.17,1.7,2.36,2.51,3.57l-1.76-.16a68.73,68.73,0,0,1,6-7.58q1.62-1.8,3.41-3.46a35.05,35.05,0,0,1,3.8-3.12,38.2,38.2,0,0,1-2.4,4.3c-.87,1.37-1.81,2.69-2.78,4a70,70,0,0,1-6.39,7.27l-1.15,1.13-.61-1.29c-.62-1.31-1.23-2.63-1.8-4-.27-.67-.56-1.34-.82-2S268.76,174.26,268.53,173.56Z" style="fill: rgb(38, 50, 56); transform-origin: 276.875px 174.6px;" id="ele22afh68ujt" class="animable"></path><path d="M277,212.69c-4-.48-11.65-1.45-15.64-2,.59-4.58,1.6-11,2.26-15.62l.08-.49.49.08c4.64.76,11,1.7,15.58,2.51-.68,4-2,11.57-2.77,15.52Zm0,0c.45-3.81,1.43-11.47,2-15.27l.32.44c-4.41-.6-10.76-1.56-15.23-2.22l.57-.41c-.71,4.48-1.7,10.78-2.45,15.19l-.32-.44c3.78.65,11.39,2,15.16,2.71Z" style="fill: rgb(199, 199, 199); transform-origin: 270.565px 203.635px;" id="elniv8mctsji" class="animable"></path><path d="M287,201.32a283.69,283.69,0,0,1,33.55,5.14A279,279,0,0,1,287,201.32Z" style="fill: rgb(199, 199, 199); transform-origin: 303.775px 203.89px;" id="elnexk833l029" class="animable"></path><path d="M286.41,205c28.7,3.72,60.5,8.61,89,13.64-28.73-3.75-60.52-8.6-89-13.64Z" style="fill: rgb(199, 199, 199); transform-origin: 330.91px 211.82px;" id="ellv03wuqclh" class="animable"></path><path d="M272.59,241.19c-4-.48-11.65-1.45-15.64-2,.59-4.58,1.61-11,2.27-15.62l.07-.49.5.08c4.63.76,11,1.7,15.58,2.51-.68,4-2,11.57-2.78,15.52Zm0,0c.45-3.81,1.44-11.47,2-15.27l.32.44c-4.41-.6-10.76-1.56-15.23-2.22l.57-.41c-.71,4.48-1.69,10.78-2.44,15.19l-.32-.44c3.78.65,11.38,2,15.15,2.71Z" style="fill: rgb(199, 199, 199); transform-origin: 266.16px 232.135px;" id="elsuacvj7yus" class="animable"></path><path d="M282.6,229.82A283.37,283.37,0,0,1,316.15,235a279.62,279.62,0,0,1-33.55-5.14Z" style="fill: rgb(199, 199, 199); transform-origin: 299.375px 232.41px;" id="elpim6he4jx9i" class="animable"></path><path d="M282,233.49c28.7,3.72,60.51,8.61,89,13.64-28.72-3.75-60.52-8.6-89-13.64Z" style="fill: rgb(199, 199, 199); transform-origin: 326.5px 240.31px;" id="elfu0sq2bgobb" class="animable"></path><path d="M315.2,98.58a213.13,213.13,0,0,1,41.33,6.33,211.5,211.5,0,0,1-41.33-6.33Z" style="fill: rgb(199, 199, 199); transform-origin: 335.865px 101.745px;" id="el9senn74i8f4" class="animable"></path><path d="M295.65,89.44q41.42,4.28,82.26,12.61-41.42-4.26-82.26-12.61Z" style="fill: rgb(199, 199, 199); transform-origin: 336.78px 95.745px;" id="ellrliy6wv4qi" class="animable"></path><g id="ely8575hozyan"><rect x="328.84" y="29.22" width="22.88" height="75.03" style="fill: rgb(199, 199, 199); transform-origin: 340.28px 66.735px; transform: rotate(-81.29deg);" class="animable" id="elo2i8jjghrup"></rect></g><path d="M366.58,46.54l-46-7-3.93,12,50.79,7.78Zm-24,5.42a2.75,2.75,0,1,1,3.13-2.3A2.75,2.75,0,0,1,342.54,52Z" style="fill: rgb(199, 199, 199); transform-origin: 342.045px 49.43px;" id="elv1djsprlh7" class="animable"></path><polygon points="367.41 59.32 316.62 51.53 317.5 48.84 367.22 56.45 367.41 59.32" style="fill: rgb(166, 166, 166); transform-origin: 342.015px 54.08px;" id="el8ln5qah5coy" class="animable"></polygon></g><g id="freepik--Floor--inject-2" class="animable" style="transform-origin: 250px 475.06px;"><path d="M48.36,475.06c129.18-.61,274.1-.62,403.28,0-129.18.62-274.1.61-403.28,0Z" style="fill: rgb(38, 50, 56); transform-origin: 250px 475.06px;" id="elznvn5t5wkx" class="animable"></path></g><g id="freepik--speech-bubble--inject-2" class="animable" style="transform-origin: 324.32px 251.603px;"><path d="M345.64,251.6a20.08,20.08,0,0,1-32.05,16.12l-9.84,2.51,4.1-9.16a20.08,20.08,0,1,1,37.79-9.47Z" style="fill: rgb(255, 255, 255); transform-origin: 324.695px 251.602px;" id="elp4swzfjkbus" class="animable"></path><path d="M345.64,251.6c.07,16.45-19,26.15-32.26,16.41l.3.05-9.82,2.6-.88.23.37-.84,4.06-9.18,0,.43a20.45,20.45,0,0,1,5-25.34c13.19-10.88,33.25-1.46,33.25,15.64Zm0,0c.05-12.83-12.5-22.62-24.9-19.2-12.18,3-18.51,17.45-12.47,28.44l.12.21-.1.22-4.14,9.14-.51-.6,9.86-2.44.17,0,.14.1c13,9.88,31.75.48,31.83-15.83Z" style="fill: rgb(38, 50, 56); transform-origin: 324.32px 251.603px;" id="elijcxuy7pved" class="animable"></path><polygon points="328.24 239.49 323.54 239.49 323.86 256.8 327.92 256.8 328.24 239.49" style="fill: #454E5D; transform-origin: 325.89px 248.145px;" id="elcmf4byd0ew7" class="animable"></polygon><g id="elie72a0vhc6j"><rect x="323.86" y="258.97" width="4.06" height="4.06" style="fill: #454E5D; transform-origin: 325.89px 261px; transform: rotate(180deg);" class="animable" id="el42rxxvxc1ao"></rect></g></g><g id="freepik--character-2--inject-2" class="animable" style="transform-origin: 304.544px 369.012px;"><g id="elcpa06g30nvg"><rect x="283.34" y="390.84" width="5.55" height="3.94" style="fill: rgb(166, 166, 166); transform-origin: 286.115px 392.81px; transform: rotate(180deg);" class="animable" id="elfikuac62e1j"></rect></g><g id="elpl5sv6kpzhp"><rect x="281.1" y="394.78" width="10.03" height="35.35" style="fill: rgb(199, 199, 199); transform-origin: 286.115px 412.455px; transform: rotate(180deg);" class="animable" id="eloo5mtf25uc"></rect></g><g id="elbj9ovfqxtfn"><rect x="291.13" y="414.56" width="4.41" height="1.86" style="fill: rgb(166, 166, 166); transform-origin: 293.335px 415.49px; transform: rotate(180deg);" class="animable" id="elymtlau3gs"></rect></g><g id="el6iivjwvmu9"><rect x="295.54" y="413.58" width="8.97" height="3.83" style="fill: rgb(199, 199, 199); transform-origin: 300.025px 415.495px; transform: rotate(180deg);" class="animable" id="elrhdmioila9"></rect></g><g id="el4vu5kjtno1u"><rect x="279.8" y="430.14" width="12.93" height="11.67" style="fill: rgb(199, 199, 199); transform-origin: 286.265px 435.975px; transform: rotate(180deg);" class="animable" id="el8od33q6qq2j"></rect></g><polygon points="284.81 466.13 287.5 466.13 289.01 435.25 283.3 435.25 284.81 466.13" style="fill: rgb(166, 166, 166); transform-origin: 286.155px 450.69px;" id="elmyb7yhee9co" class="animable"></polygon><polygon points="321.51 462.89 323.91 461.06 292.74 433.51 292.74 441.8 321.51 462.89" style="fill: rgb(166, 166, 166); transform-origin: 308.325px 448.2px;" id="ellbyvsldkvo" class="animable"></polygon><polygon points="251.03 462.89 248.63 461.06 279.8 433.51 279.8 441.8 251.03 462.89" style="fill: rgb(166, 166, 166); transform-origin: 264.215px 448.2px;" id="eltkt6jwif1y" class="animable"></polygon><g id="elloak1umdrz"><rect x="281.1" y="427.08" width="10.03" height="3.06" style="fill: rgb(166, 166, 166); transform-origin: 286.115px 428.61px; transform: rotate(180deg);" class="animable" id="eld5og0qtb9p"></rect></g><path d="M315.06,468.3a6.56,6.56,0,1,0,6.56-6.55A6.56,6.56,0,0,0,315.06,468.3Z" style="fill: rgb(38, 50, 56); transform-origin: 321.62px 468.31px;" id="el52x3k0yogay" class="animable"></path><path d="M318.54,468.3a3.08,3.08,0,1,0,3.08-3.08A3.08,3.08,0,0,0,318.54,468.3Z" style="fill: rgb(255, 255, 255); transform-origin: 321.62px 468.3px;" id="elgock14btoot" class="animable"></path><path d="M244.34,468.3a6.56,6.56,0,1,0,6.55-6.55A6.55,6.55,0,0,0,244.34,468.3Z" style="fill: rgb(38, 50, 56); transform-origin: 250.9px 468.31px;" id="elomlpgb6j9m" class="animable"></path><path d="M247.81,468.3a3.08,3.08,0,1,0,3.08-3.08A3.08,3.08,0,0,0,247.81,468.3Z" style="fill: rgb(255, 255, 255); transform-origin: 250.89px 468.3px;" id="elncl13hf9t7c" class="animable"></path><g id="elbzq6uakexyg"><rect x="284.17" y="464.07" width="4.11" height="10.78" style="fill: rgb(38, 50, 56); transform-origin: 286.225px 469.46px; transform: rotate(180deg);" class="animable" id="elm228su9eu8"></rect></g><polygon points="240.79 390.84 344.29 390.84 344.29 382.97 305.55 382.97 292.53 304.17 244.74 304.17 240.79 390.84" style="fill: #454E5D; transform-origin: 292.54px 347.505px;" id="elxi4hoc3seu" class="animable"></polygon><g id="elvc1b97vtcck"><polygon points="240.79 390.84 344.29 390.84 344.29 382.97 305.55 382.97 292.53 304.17 244.74 304.17 240.79 390.84" style="opacity: 0.3; transform-origin: 292.54px 347.505px;" class="animable" id="el4fa3eeaw1pq"></polygon></g><g id="elviadu3k5sbr"><polygon points="305.55 382.97 247.85 382.97 251.29 304.17 292.52 304.17 305.55 382.97" style="opacity: 0.2; transform-origin: 276.7px 343.57px;" class="animable" id="elpg7ox0dls4"></polygon></g><g id="eluqfv3gh7gf"><rect x="284" y="382.97" width="60.29" height="7.87" style="fill: #454E5D; opacity: 0.5; transform-origin: 314.145px 386.905px;" class="animable" id="el5in058kr2q"></rect></g><path d="M366.32,474.24c-2,.17-50.81-12.68-52.48-14.44-.65-.65.78-8.35,2.78-17.6,0,0,6.58-26,6.58-26l31.33,7.64L349.27,451s15.44,13.26,17.08,15.38S368.29,474.09,366.32,474.24Z" style="fill: rgb(235, 148, 129); transform-origin: 340.686px 445.221px;" id="el9f88f2c44oa" class="animable"></path><path d="M366.32,474.24c-2,.17-50.81-12.69-52.48-14.44-.65-.65.78-8.35,2.78-17.59l.58-2.33,32.67,8-.6,3.08s15.45,13.26,17.08,15.38S368.29,474.09,366.32,474.24Z" style="fill: rgb(235, 235, 235); transform-origin: 340.684px 457.061px;" id="el78hmwxh2o7v" class="animable"></path><path d="M367.07,475.06c-1.91.13-52.15-12.88-53.75-14.59-.61-.64.95-8.44,3-17.37l34,8.51s15,13,16.56,15.1S369,474.93,367.07,475.06Z" style="fill: #454E5D; transform-origin: 340.742px 459.08px;" id="el0ov8nz9lmkx" class="animable"></path><g id="eleo1vjs6i1op"><path d="M367.07,475.06c-1.91.13-52.15-12.88-53.75-14.59-.61-.64.95-8.44,3-17.37l34,8.51s15,13,16.56,15.1S369,474.93,367.07,475.06Z" style="opacity: 0.5; transform-origin: 340.742px 459.08px;" class="animable" id="el6ah1e759iw7"></path></g><path d="M366.87,472.86c-8.37-2.38-42.34-11.23-50.8-12.95-.07,0-.08,0,0,0,8.24,2.55,42.29,11.12,50.77,13C367,473,367,472.91,366.87,472.86Z" style="fill: rgb(38, 50, 56); transform-origin: 341.489px 466.429px;" id="elzddxnwz6q6i" class="animable"></path><path d="M364.42,464.78a7,7,0,0,0-5.57.75,6.78,6.78,0,0,0-3.05,4s.08.07.11,0a8.06,8.06,0,0,1,8.48-4.68C364.46,464.89,364.49,464.8,364.42,464.78Z" style="fill: rgb(38, 50, 56); transform-origin: 360.13px 467.035px;" id="elgdaieq27ldk" class="animable"></path><path d="M353.37,453.54c-3.21-1.34-7.41-1.71-10.48.13-.12.07,0,.24.1.23a48.4,48.4,0,0,1,10.28.06A.22.22,0,0,0,353.37,453.54Z" style="fill: rgb(38, 50, 56); transform-origin: 348.169px 453.186px;" id="elenduh9ncvq6" class="animable"></path><path d="M355.48,455.52c-3.22-1.35-7.42-1.71-10.49.12-.12.07,0,.24.1.23a47.74,47.74,0,0,1,10.28.07A.22.22,0,0,0,355.48,455.52Z" style="fill: rgb(38, 50, 56); transform-origin: 350.275px 455.163px;" id="elhy50dc8a0cg" class="animable"></path><path d="M357.58,457.49c-3.21-1.34-7.42-1.71-10.49.13-.12.07,0,.24.1.23a48.39,48.39,0,0,1,10.28.06A.22.22,0,0,0,357.58,457.49Z" style="fill: rgb(38, 50, 56); transform-origin: 352.375px 457.136px;" id="ele0wf625p82" class="animable"></path><g id="elzqt66mwks5c"><path d="M328.31,465.26c-8.12-2.27-14.44-4.2-15-4.78s.39-5.48,1.78-11.92Z" style="opacity: 0.1; transform-origin: 320.728px 456.91px;" class="animable" id="el5a8j8zqsb4v"></path></g><path d="M349.61,451.05,316.3,443.1s9.77-56.77,8.36-58.72c-2.67-3.67-43.34-2.89-55.88-15.36-13.28-13.19-7.49-29.88-7.49-29.88h36.37s2.46,6.24,3.12,6.43c8.25,2.41,38.17,4.54,50,14,3,2.43,8.15,8.75,9.19,15.06C363.24,394.62,349.61,451.05,349.61,451.05Z" style="fill: rgb(38, 50, 56); transform-origin: 310.255px 395.095px;" id="elkd05ggj8vvf" class="animable"></path><path d="M318.53,437a16.94,16.94,0,0,1,3,.44l3.07.62,6.24,1.28c4.16.86,8.3,1.76,12.43,2.74,2.33.55,4.63,1.19,6.94,1.82a.08.08,0,0,1,0,.15c-8.39-1.36-16.67-3.24-24.95-5.15l-3.38-.79a20.44,20.44,0,0,1-3.36-.95A.09.09,0,0,1,318.53,437Z" style="fill: rgb(55, 71, 79); transform-origin: 334.369px 440.525px;" id="el06rgrvnb2kzt" class="animable"></path><path d="M315.6,382c-13.39-1.86-37.65-3.89-46.82-13-13.28-13.19-7.49-29.88-7.49-29.88h26Z" style="fill: rgb(55, 71, 79); transform-origin: 287.817px 360.56px;" id="el9jpt1z5xjso" class="animable"></path><path d="M322.6,433.91c-.08.48.19.76.35,0,3.91-17.88,6.76-40.19,7.05-43.1.14-1.45.27-2.91.34-4.37,0-.73.05-1.47,0-2.21a10.06,10.06,0,0,0-.23-2.23,2.26,2.26,0,0,0-.21-.58,1.32,1.32,0,0,0-.43-.5,4.17,4.17,0,0,0-1-.57,16.83,16.83,0,0,0-2.12-.68c-1.43-.37-2.86-.66-4.3-.93-2.87-.52-5.76-1-8.64-1.41-5.77-.86-11.53-1.7-17.26-2.77a98.15,98.15,0,0,1-16.85-4.37c-2.67-1.07-5.35-2.36-7.2-4.62a25.8,25.8,0,0,1-4.8-7.18,31.35,31.35,0,0,1-2.23-17.07,31.46,31.46,0,0,0,1.94,17.2,25.86,25.86,0,0,0,4.79,7.33,19.23,19.23,0,0,0,1.55,1.58,15.25,15.25,0,0,0,1.81,1.29,27.8,27.8,0,0,0,3.95,1.94,63.42,63.42,0,0,0,8.37,2.63c2.84.71,5.7,1.31,8.56,1.86,5.74,1.08,11.51,2,17.27,2.83,2.88.43,5.77.86,8.63,1.38,1.43.26,2.85.54,4.25.9a15.16,15.16,0,0,1,2,.65,3.75,3.75,0,0,1,.89.47,1,1,0,0,1,.28.32,2.52,2.52,0,0,1,.16.44,9.68,9.68,0,0,1,.22,2.11c0,.72,0,1.44,0,2.16-.06,1.45-.18,2.9-.32,4.35-.29,2.89-.66,5.78-1.05,8.67C327.59,405.2,323.62,428.17,322.6,433.91Z" style="fill: rgb(55, 71, 79); transform-origin: 297.499px 387.85px;" id="els9cy337czmg" class="animable"></path><path d="M326.51,474.15c-1.88.61-45-.09-47-1.41-.78-.49-1.13-8.31-1.29-17.78v-.29c0-1.95-.07-4-.07-6,0-.28,0-.56,0-.84-.07-13.65,1.43-27.5,1.43-27.5l34.59,0-1.08,27.56,0,1.09-.21,5.71,0,.59s9.9,9.45,12,11.14S328.4,473.55,326.51,474.15Z" style="fill: rgb(235, 148, 129); transform-origin: 302.771px 447.351px;" id="el9e75790ivdl" class="animable"></path><path d="M328.4,474.33c-1.82.6-47.3.18-49.27-1.08-.75-.48-1.13-8.43-1.33-17.58h35.75s11.1,9.6,13.11,11.22S330.22,473.74,328.4,474.33Z" style="fill: #454E5D; transform-origin: 303.504px 465.135px;" id="elprw12jy29ug" class="animable"></path><g id="el0t0osczvqs4"><path d="M328.4,474.33c-1.82.6-47.3.18-49.27-1.08-.75-.48-1.13-8.43-1.33-17.58h35.75s11.1,9.6,13.11,11.22S330.22,473.74,328.4,474.33Z" style="opacity: 0.5; transform-origin: 303.504px 465.135px;" class="animable" id="elm7py8awqii"></path></g><path d="M327.67,472.25c-8.69-.28-37.39-.6-46-.22-.07,0-.08.05,0,.06,8.62.47,37.31.5,46,.3C327.86,472.39,327.86,472.26,327.67,472.25Z" style="fill: rgb(38, 50, 56); transform-origin: 304.713px 472.181px;" id="elrfufuxb6x6n" class="animable"></path><path d="M325.82,466.71c-4.75-2.33-10.18-2.92-13.7-2.15s-6.77,2.39-7.95,5.34c0,.08.19.19.25.11,3.66-4.9,13.08-6.38,21.32-3.12C325.9,467,326,466.79,325.82,466.71Z" style="fill: rgb(38, 50, 56); transform-origin: 315.043px 467.139px;" id="el41d540aiicu" class="animable"></path><path d="M314.57,460.84a27.2,27.2,0,0,0-16.26.6c-.18.07,0,.3.22.28a70.31,70.31,0,0,1,16-.35C314.92,461.41,315,461,314.57,460.84Z" style="fill: rgb(38, 50, 56); transform-origin: 306.548px 460.799px;" id="elw7cabqk0ida" class="animable"></path><path d="M312.74,458.62a27.2,27.2,0,0,0-16.26.6c-.18.07,0,.3.22.28a71,71,0,0,1,16-.36C313.09,459.19,313.13,458.72,312.74,458.62Z" style="fill: rgb(38, 50, 56); transform-origin: 304.71px 458.579px;" id="elml8vbaobu4q" class="animable"></path><path d="M310.91,456.4a27.2,27.2,0,0,0-16.26.6c-.18.07,0,.3.22.28a71,71,0,0,1,16-.36C311.26,457,311.3,456.5,310.91,456.4Z" style="fill: rgb(38, 50, 56); transform-origin: 302.88px 456.359px;" id="el9s926uzo7pe" class="animable"></path><path d="M313.93,456.24,277.27,456s.26-60.29-1.55-65.06-8.45-8.3-16.53-17.66c-12.25-14.17-1.56-34.08-1.56-34.08l35.82,0s4.66,11.74,4.38,16.5c0,0-3.84.24-6.17.24,0,0,16.67,13.79,20.93,26.72C316.23,393.67,313.93,456.24,313.93,456.24Z" style="fill: rgb(38, 50, 56); transform-origin: 283.978px 397.72px;" id="elznghwdp76es" class="animable"></path><path d="M281.44,356.71a46.94,46.94,0,0,1,10.16-1.2,70,70,0,0,1,10.34.51.08.08,0,1,1,0,.15c-3.42.11-6.84.3-10.25.49s-6.8.46-10.2.46A.21.21,0,0,1,281.44,356.71Z" style="fill: rgb(55, 71, 79); transform-origin: 291.67px 356.304px;" id="elz0heu2noslp" class="animable"></path><path d="M263.94,352.05a27.22,27.22,0,0,0,4.73-1.07,6.84,6.84,0,0,0,3.38-1.8c1.8-1.94,2.56-4.59,4-6.79a.07.07,0,0,1,.13.06,32.33,32.33,0,0,1-1.32,4.51,9.37,9.37,0,0,1-2,3.41c-2.24,2.33-5.94,2-8.89,2C263.73,352.35,263.75,352.07,263.94,352.05Z" style="fill: rgb(55, 71, 79); transform-origin: 269.99px 347.368px;" id="el6oztsxprw7a" class="animable"></path><path d="M279.25,448.77a18,18,0,0,1,3.11-.24l3.21-.08,6.53-.14c4.36-.09,8.71-.14,13.06-.1,2.46,0,4.91.13,7.36.23a.08.08,0,0,1,0,.15c-8.7.54-17.4.56-26.13.54l-3.56,0a19.34,19.34,0,0,1-3.57-.18C279.16,448.92,279.17,448.79,279.25,448.77Z" style="fill: rgb(55, 71, 79); transform-origin: 295.88px 448.672px;" id="elt5agols7r" class="animable"></path><path d="M296.19,340.62c-.17,2.17-.29,4.34-.55,6.5-.13,1-.22,2.05-.42,3.05a2,2,0,0,1-.55,1.17,2.5,2.5,0,0,1-1.31.44,1.42,1.42,0,0,1-1.76-1.38c-.18-2,.4-8.83.41-9.4,0-.11-.36-.11-.37,0-.53,4.32-1.25,9.84-.34,10.78a2.9,2.9,0,0,0,3.77.26,2.72,2.72,0,0,0,.82-1.76c.14-.94.18-1.91.25-2.86.17-2.26.37-4.52.41-6.79C296.55,340.43,296.21,340.42,296.19,340.62Z" style="fill: rgb(55, 71, 79); transform-origin: 293.708px 346.545px;" id="el0f0c28nb9pmh" class="animable"></path><path d="M293,352.08a5.66,5.66,0,0,0-.16.82c-.06.27-.12.55-.19.82s-.12.55-.2.82-.11.55-.17.82a.1.1,0,0,0,.19.07,7.43,7.43,0,0,0,.33-.77c.1-.28.19-.55.26-.83s.13-.55.19-.82a4.31,4.31,0,0,0,.15-.86A.21.21,0,0,0,293,352.08Z" style="fill: rgb(55, 71, 79); transform-origin: 292.837px 353.726px;" id="elxiu2x2al1do" class="animable"></path><path d="M259,342.55a77.42,77.42,0,0,0-.86,13.95,23.7,23.7,0,0,0,1.19,6.91,13.14,13.14,0,0,0,1.72,3.09c.68,1,1.41,1.88,2.17,2.77,3,3.56,6.36,6.83,9.6,10.18,1.62,1.67,3.23,3.34,4.74,5.1a22.39,22.39,0,0,1,2.06,2.75,9.76,9.76,0,0,1,1,3.2,69,69,0,0,1,.85,6.91c.19,2.31.33,4.64.44,7,.23,4.65.34,8,.45,12.66s-.09,23.55-.11,28c0,.26.36.34.4,0,.13-4.66.15-9.32.21-14s0-9.32,0-14-.16-8-.36-12.68c-.1-2.33-.23-4.66-.41-7s-.41-4.66-.83-7a15.42,15.42,0,0,0-.4-1.73,6.33,6.33,0,0,0-.71-1.68,22.83,22.83,0,0,0-2.14-2.83c-1.53-1.77-3.16-3.44-4.79-5.11-3.26-3.33-6.59-6.59-9.66-10.08-.76-.87-1.5-1.77-2.18-2.7a13,13,0,0,1-1.71-3,24.26,24.26,0,0,1-1.25-6.79A77.27,77.27,0,0,1,259,342.55Z" style="fill: rgb(55, 71, 79); transform-origin: 270.497px 393.923px;" id="el5tcskhfw4c" class="animable"></path><path d="M285.06,301.74c5.33,15.3,14.85,33.3,18.37,36,4.45,3.42,30.14,6.22,31.48,6.24,2.21,0,5.48-20.81,3.43-21-6.16-.58-22.85-1.34-24.15-2.41s-10.66-10.55-20.36-21.3C287.13,291.84,281.76,292.24,285.06,301.74Z" style="fill: rgb(235, 148, 129); transform-origin: 311.524px 319.045px;" id="elzykk9ajxcwl" class="animable"></path><path d="M333.45,343.92c2.2.65,12.51,2.75,15.51,2.7s11.62-.85,11.81-3.15-2.35-2.28-2.35-2.28S362,340.28,362,338s-4-2.16-4-2.16,3.62-1.2,3.43-3.53-4.13-1.49-4.13-1.49,3.36-.94,2.4-2.79c-1.16-2.23-7.15.21-10.47,0-.75,0-15.21-1.94-15.21-1.94Z" style="fill: rgb(235, 148, 129); transform-origin: 347.725px 336.355px;" id="elx8j1dsbg87" class="animable"></path><path d="M357.65,330.71c-4.41,1.78-6.65,1.8-11.26,1-.09,0-.14.12-.05.14,4.45,1.23,7.26,1.61,11.41-.9C358,330.79,357.86,330.62,357.65,330.71Z" style="fill: rgb(38, 50, 56); transform-origin: 352.088px 331.747px;" id="elra915cjwnjh" class="animable"></path><path d="M358.36,335.64c-4.74,1.46-7.17,1.5-12.07,1-.07,0-.09.11,0,.12,4.76.91,7.58,1.23,12.13-.85C358.6,335.8,358.58,335.58,358.36,335.64Z" style="fill: rgb(38, 50, 56); transform-origin: 352.386px 336.548px;" id="elyq8v3abfrzp" class="animable"></path><path d="M358.17,341.16c-4.69,1.08-7.35,1.24-12,.13a.09.09,0,0,0-.05.17,16,16,0,0,0,12.11-.15C358.47,341.2,358.47,341.09,358.17,341.16Z" style="fill: rgb(38, 50, 56); transform-origin: 352.237px 341.857px;" id="elpml19nouxdk" class="animable"></path><path d="M331.42,323.33a57.47,57.47,0,0,1,8-3.14c2.61-.6,13.18.77,13,3.07-.22,3-6.48,3.38-9.57,3.18,0,0-.49,6.87-4.91,8.13S331.42,323.33,331.42,323.33Z" style="fill: rgb(235, 148, 129); transform-origin: 341.921px 327.354px;" id="eljspzqy7oyel" class="animable"></path><path d="M352.12,324.06c-2.15,2.56-6.19,2-9.2,2.07a.27.27,0,0,0-.27.36c-.4,2.87-1.8,6.79-4.52,8.18a.07.07,0,1,0,.05.12c3.12-1.08,4.81-4.83,5-8,3.09,0,7.17.36,8.92-2.72C352.15,324.06,352.13,324,352.12,324.06Z" style="fill: rgb(38, 50, 56); transform-origin: 345.097px 329.422px;" id="elomerxe89b7m" class="animable"></path><path d="M333.79,320.56l-3.2,25S307.53,342.94,303,339,288.5,313.3,285.1,302.6s2.16-11.05,8-4.7,20.34,21.69,21.09,22S333.79,320.56,333.79,320.56Z" style="fill: #454E5D; transform-origin: 308.926px 319.637px;" id="el7wzw4csy9zr" class="animable"></path><path d="M325.77,334.82c.36-2.82.74-5.64,1-8.47.14-1.61.29-3.22.42-4.83,0-.06-.1-.08-.11,0-.47,2.82-.93,5.64-1.27,8.48s-.7,5.64-1,8.47c-.17,1.61-.29,3.21-.37,4.83a0,0,0,0,0,.06,0C325,340.48,325.41,337.66,325.77,334.82Z" style="fill: rgb(38, 50, 56); transform-origin: 325.815px 332.384px;" id="elgbvlg84d2d" class="animable"></path><g id="el05adlmk7s5uu"><path d="M305.61,340.47A9.88,9.88,0,0,1,303,339c-4.54-3.93-14.49-25.71-17.9-36.42-2.43-7.68-.26-10,3.33-8.38C293.72,308.09,299.79,324.64,305.61,340.47Z" style="opacity: 0.1; transform-origin: 294.839px 317.091px;" class="animable" id="el3jb2ten9eo6"></path></g><path d="M251.25,352c.12.14,49.87-6.07,50.35-6.59.67-.73-6-41.2-14.12-52.52-2-2.83-9.16-3.2-12.55-.76C258.13,304.17,250.84,351.47,251.25,352Z" style="fill: #454E5D; transform-origin: 276.44px 321.257px;" id="el1c8lev6okmg" class="animable"></path><path d="M270.12,296.58c-13.71,13-29.1,39.23-26.19,45.07,3.24,6.5,22.34-11.71,22.31-12.81,0-.83,4.8-16.34,10.16-28.65S273.51,293.37,270.12,296.58Z" style="fill: rgb(247, 169, 160); transform-origin: 260.868px 317.796px;" id="elxsyyws2m1tp" class="animable"></path><path d="M266.36,328.87c.63-1.82,8-22.72,10.76-29.79,2.48-6.34,1.38-9-4.09-5.22-10.09,7-26.28,28.19-30.28,39.69-3.86,11.07,3.59,11.49,11.38,6.58C260.5,336.12,266.36,328.87,266.36,328.87Z" style="fill: #454E5D; transform-origin: 260.038px 317.623px;" id="el5bm8xzs044j" class="animable"></path><path d="M265.07,332q4.14-13,9.37-25.61-4.12,13-9.37,25.61Z" style="fill: rgb(38, 50, 56); transform-origin: 269.755px 319.195px;" id="el0svgn66sns4e" class="animable"></path><path d="M272.71,311.38a14.13,14.13,0,0,1,1.91-3,9.2,9.2,0,0,1-1.91,3Z" style="fill: rgb(38, 50, 56); transform-origin: 273.665px 309.88px;" id="el2dfwnmdtzmm" class="animable"></path><path d="M275,293.54c.43.55.87,1.09,1.31,1.62s.92,1,1.38,1.54c.94,1,1.9,2,2.91,2.93s2,1.83,3.09,2.68,2.17,1.65,3.3,2.41l-.38.09a1.37,1.37,0,0,0,.09-.2l.09-.24.15-.5c.1-.34.17-.69.25-1,.15-.7.28-1.41.4-2.13s.21-1.43.32-2.15l.3-2.15c0,.72,0,1.45-.08,2.18s-.1,1.45-.17,2.18-.17,1.45-.29,2.17c-.07.36-.14.72-.23,1.08l-.15.54-.09.27a.84.84,0,0,1-.06.14,1,1,0,0,1-.07.16l-.14.25-.23-.16a38.09,38.09,0,0,1-3.35-2.43c-.54-.42-1.06-.88-1.58-1.34-.26-.23-.51-.47-.76-.71s-.51-.47-.75-.72a39.17,39.17,0,0,1-2.81-3.08A32.81,32.81,0,0,1,275,293.54Z" style="fill: rgb(38, 50, 56); transform-origin: 281.605px 299.475px;" id="elfwbahm3wks9" class="animable"></path><path d="M284.34,300.65c-2.17-.11-6.3-4.57-7.74-8.14-.09-.25.55-2.63,1.19-5.56.38-1.78.76-3.77,1-5.61L290,285.51a29.67,29.67,0,0,0-1.95,6.94,4,4,0,0,0,0,.77v.13C288.09,294.81,287.74,300.81,284.34,300.65Z" style="fill: rgb(235, 148, 129); transform-origin: 283.296px 290.997px;" id="elxmizrzgqg3" class="animable"></path><path d="M277.07,290.09l1.7-8.75L290,285.51l-.56,1.37S285.6,292.49,277.07,290.09Z" style="fill: rgb(38, 50, 56); transform-origin: 283.535px 286.014px;" id="el11zwulu5wzf" class="animable"></path><path d="M298.11,275.28c-1.07,4.18-9.13,13.22-13,14-5.64,1.08-11.78-2.23-11.92-8.3-.13-5.88,10.58-17.49,14.63-17.85C293.79,262.57,299.69,269.1,298.11,275.28Z" style="fill: rgb(235, 148, 129); transform-origin: 285.779px 276.289px;" id="elt4xcxfrrsi" class="animable"></path><path d="M287.32,274.72c-.14-.34-.32-.64-.49-1a1.73,1.73,0,0,0-.68-.89.55.55,0,0,0-.66.17,1.36,1.36,0,0,0,0,1.4,2,2,0,0,0,1,1.05A.6.6,0,0,0,287.32,274.72Z" style="fill: rgb(38, 50, 56); transform-origin: 286.323px 274.146px;" id="elyy4021d77wj" class="animable"></path><path d="M281.13,269.49a8.84,8.84,0,0,0,1,.4,1.76,1.76,0,0,0,1.1.2.54.54,0,0,0,.37-.56,1.36,1.36,0,0,0-1-1,2,2,0,0,0-1.46-.1A.59.59,0,0,0,281.13,269.49Z" style="fill: rgb(38, 50, 56); transform-origin: 282.203px 269.223px;" id="elnsa7wttow3n" class="animable"></path><path d="M280.72,282.18a1.18,1.18,0,0,1-.83,0,2,2,0,0,1-.58-.69s-.05,0-.05,0a1.08,1.08,0,0,0,.56,1,.85.85,0,0,0,.94-.19S280.76,282.18,280.72,282.18Z" style="fill: rgb(38, 50, 56); transform-origin: 280.009px 282.024px;" id="elgmbojlnweht" class="animable"></path><path d="M284.25,275.56s0,.07,0,.1c-.52.62-1,1.42-.6,2.08,0,0,0,.05,0,0C283,277.12,283.66,276.07,284.25,275.56Z" style="fill: rgb(38, 50, 56); transform-origin: 283.816px 276.661px;" id="elpns5iuf4yy" class="animable"></path><path d="M285.35,275.34c1.08.73-.45,2.85-1.46,2.18S284.43,274.73,285.35,275.34Z" style="fill: rgb(38, 50, 56); transform-origin: 284.64px 276.44px;" id="el9qrxx07qkzh" class="animable"></path><path d="M280.61,272.54s-.07,0-.09,0c-.45.67-1.07,1.37-1.83,1.16,0,0,0,0,0,0C279.47,274.19,280.3,273.25,280.61,272.54Z" style="fill: rgb(38, 50, 56); transform-origin: 279.65px 273.188px;" id="elivajj8q7ab" class="animable"></path><path d="M280.52,271.43c-1-.83-2.61,1.24-1.68,2S281.36,272.13,280.52,271.43Z" style="fill: rgb(38, 50, 56); transform-origin: 279.659px 272.416px;" id="elf8ckpwaf2z9" class="animable"></path><path d="M280.76,280.63a6.73,6.73,0,0,0-2.4-1.76c-.07-.07-.2-.25-.16-.34h0l1.1-1.37c-.25-.05-1.51-.33-1.3-.59a42,42,0,0,1,6-6.11.08.08,0,0,1,.11.11c-1.63,2.07-3.61,3.84-5.28,5.9a4.63,4.63,0,0,1,1.3.48c.05.07-1.24,1.39-1.39,1.63a4,4,0,0,1,2.23,2C281.14,280.93,281.11,281,280.76,280.63Z" style="fill: rgb(38, 50, 56); transform-origin: 281.049px 275.663px;" id="elq18gy70c7kr" class="animable"></path><path d="M292.21,284.41c-1.71-.8-1.19-3.84-.81-5s3.73-4.89,4.16-6.73a3.76,3.76,0,0,0-1.9-4.28c-1.42-.63-4.15-.41-4.92-1.2s.56-2.74,0-3.24c-1.29-1.09-5.08,1.39-6.51,2.58,0,0,4.68-6.72,11.78-1.74,6.48,4.54,5.33,9.85,4.32,12.08A23.47,23.47,0,0,1,292.21,284.41Z" style="fill: rgb(38, 50, 56); transform-origin: 290.673px 273.686px;" id="el7h6xzr1m0q3" class="animable"></path><path d="M290.88,282.25s4.35-1.8,5.31-.05-3.75,5.37-5.9,4.91a2.08,2.08,0,0,1-1.75-2.45Z" style="fill: rgb(235, 148, 129); transform-origin: 292.41px 284.293px;" id="elqv1i79egz8f" class="animable"></path><path d="M294.81,283.2a0,0,0,0,1,0,.05,5.28,5.28,0,0,0-4.07,1.32,1.15,1.15,0,0,1,1.62.66,0,0,0,0,1-.07,0,1.27,1.27,0,0,0-1.44-.38,6.24,6.24,0,0,0-1.18.6c-.13.07-.29-.11-.17-.21l0,0C290.47,283.7,293.05,282.3,294.81,283.2Z" style="fill: rgb(38, 50, 56); transform-origin: 292.134px 284.191px;" id="elj850bh32cop" class="animable"></path><path d="M288.16,292.36l-2.89,6.46-8.4-8.36-2.48,2.6s8.13,13.21,8.19,12.62l2.95-5.56,4,4-.14-9.8Z" style="fill: rgb(235, 235, 235); transform-origin: 281.96px 298.08px;" id="elcmnm2jxaov9" class="animable"></path><path d="M289.77,299.23c-.08-1.62-.12-3.25-.28-4.86,0-.06-.1-.08-.11,0-.37,1.56,0,7.74-.06,9.22h0c-.17-.18-3.74-3.5-3.77-3.44-.64.88-2.8,4.93-2.95,5.3-1.28-2.1-6.75-10.38-8.28-12.36,0-.06-.14,0-.1.05,1.13,2.21,8.18,13.13,8.29,13.11a62.44,62.44,0,0,0,3.08-5.89,43.51,43.51,0,0,0,4.21,4.22A47.21,47.21,0,0,0,289.77,299.23Z" style="fill: rgb(38, 50, 56); transform-origin: 282.037px 299.657px;" id="elwz2e8mcqx3f" class="animable"></path><path d="M244.53,342.21c4.28,3,17.84.83,38.23-2.41,2.82-.45,4.37-21.68,1.33-21.36-3.83.41-23.6,3.41-24.66,3.72C250.51,324.8,241.64,340.19,244.53,342.21Z" style="fill: rgb(235, 148, 129); transform-origin: 264.861px 331.037px;" id="elkdhbcmb23z8" class="animable"></path><path d="M308.08,322.18c-.32,2.45-6.3,1.14-6.3,1.14a4.58,4.58,0,0,1,1.51,2.72c.2,1.86-2.63,3-2.63,3a5.64,5.64,0,0,1,1.12,3.12c0,1.81-2.68,3.37-2.68,3.37a5.1,5.1,0,0,1-.73,3.37c-2.94,4.37-16.48,2.57-20.23,1.24l-2.5-20s12.32-5.77,17.85-5.25C296.55,315.17,308.58,318.43,308.08,322.18Z" style="fill: rgb(235, 148, 129); transform-origin: 291.868px 328.26px;" id="elqsqxltiozxq" class="animable"></path><path d="M301.74,323.24a41.13,41.13,0,0,0-9.75-2.57.06.06,0,1,0,0,.11c3.23.76,6.48,2,9.72,2.62A.09.09,0,0,0,301.74,323.24Z" style="fill: rgb(38, 50, 56); transform-origin: 296.842px 322.032px;" id="elyii5qwcdqhb" class="animable"></path><path d="M300.62,328.94a8.55,8.55,0,0,0-2.25-.44c-.81-.1-1.62-.18-2.43-.26-1.62-.14-3.24-.25-4.87-.31-.07,0-.09.1,0,.11,1.62.15,3.23.32,4.84.54l2.41.34a11,11,0,0,0,2.28.24A.12.12,0,0,0,300.62,328.94Z" style="fill: rgb(38, 50, 56); transform-origin: 295.847px 328.545px;" id="elplajdm96e9l" class="animable"></path><path d="M299,335.53a6.16,6.16,0,0,0-2.05-.28l-2.22-.17c-1.48-.12-3-.24-4.43-.41-.08,0-.1.11,0,.12,1.5.18,3,.38,4.49.55l2.21.23a5.91,5.91,0,0,0,2,0A0,0,0,0,0,299,335.53Z" style="fill: rgb(38, 50, 56); transform-origin: 294.616px 335.163px;" id="elwzo7vyja1b" class="animable"></path><path d="M280.43,316.84l-9.87,28.62s-24.26.19-27.44-3.52c-2.28-2.66,6.32-17.45,16.21-20.35Z" style="fill: #454E5D; transform-origin: 261.59px 331.151px;" id="el0ntsrmgffzck" class="animable"></path><path d="M248.89,329.15a19.75,19.75,0,0,1,10.45-7.58c.05,0,.08.06,0,.08-4.11,1.72-9.29,5.93-10.41,7.55C248.93,329.24,248.87,329.19,248.89,329.15Z" style="fill: rgb(38, 50, 56); transform-origin: 254.138px 325.392px;" id="elw5i071qmnjb" class="animable"></path><path d="M266.62,341.16c.73-2.83,1.61-5.62,2.5-8.41s1.78-5.59,2.74-8.35c.55-1.57,1.08-3.14,1.68-4.68,0,0,.09,0,.07,0-.73,2.83-1.6,5.62-2.47,8.41s-1.78,5.59-2.71,8.37c-.52,1.57-1.07,3.13-1.67,4.68C266.73,341.27,266.6,341.24,266.62,341.16Z" style="fill: rgb(38, 50, 56); transform-origin: 270.115px 330.478px;" id="el61wa939a24n" class="animable"></path><path d="M280.35,316.59a25,25,0,0,0-3.34.68c-1.11.27-2.21.56-3.31.86-2.19.6-11.91,2.19-15.67,3.9,0,0,.27.13.31.11,1.75-.91,20.76-4.75,21.85-5.15,0,.09-.59,1.92-.59,2a.07.07,0,0,0,.13.05c.09-.15.7-2.05.78-2.21A.16.16,0,0,0,280.35,316.59Z" style="fill: rgb(38, 50, 56); transform-origin: 269.281px 319.365px;" id="elg6fydtufc6u" class="animable"></path><path d="M272.14,340.89c-.46,1.6-.94,3.18-1.44,4.77-2.56,0-16.12.41-23.77-1.72a7.17,7.17,0,0,1-1.17-.45c11.46,2.12,21.48,1.59,24.81,1.78l-.19.13c.57-1.51,1.15-3,1.76-4.51Z" style="fill: rgb(38, 50, 56); transform-origin: 258.95px 343.291px;" id="elx7vmoep4u9" class="animable"></path></g><g id="freepik--Table--inject-2" class="animable" style="transform-origin: 296.11px 383.61px;"><rect x="216.14" y="433.13" width="16.3" height="2.86" style="fill: rgb(69, 90, 100); transform-origin: 224.29px 434.56px;" id="elr5y2ncbo2yp" class="animable"></rect><polygon points="241.27 475.06 239.51 475.06 225.16 408.06 224.34 404.24 221.76 392.21 220.8 387.72 217.19 370.89 215.93 365 222.2 365 223.22 370.89 223.89 374.76 224.34 377.34 226.91 392.21 227.74 396.99 241.27 475.06" style="fill: rgb(69, 90, 100); transform-origin: 228.6px 420.03px;" id="elg049b26rru" class="animable"></polygon><polygon points="222.2 365 223.22 370.89 217.19 370.89 215.93 365 222.2 365" style="fill: rgb(38, 50, 56); transform-origin: 219.575px 367.945px;" id="elihmjtmzcfj" class="animable"></polygon><polygon points="227.74 396.99 225.16 408.06 224.34 404.24 221.76 392.21 220.8 387.72 223.89 374.76 224.34 377.34 226.91 392.21 227.74 396.99" style="fill: rgb(38, 50, 56); transform-origin: 224.27px 391.41px;" id="elxfvzdo0zh2" class="animable"></polygon><polygon points="232.74 365 231.48 370.89 226.91 392.21 224.34 404.24 209.16 475.06 207.41 475.06 221.76 392.21 224.34 377.34 225.45 370.89 226.47 365 232.74 365" style="fill: rgb(69, 90, 100); transform-origin: 220.075px 420.03px;" id="elyleby76dfbt" class="animable"></polygon><polygon points="232.74 365 231.48 370.89 225.45 370.89 226.47 365 232.74 365" style="fill: rgb(38, 50, 56); transform-origin: 229.095px 367.945px;" id="elq2vamowrupi" class="animable"></polygon><rect x="356.51" y="433.13" width="16.3" height="2.86" style="fill: rgb(69, 90, 100); transform-origin: 364.66px 434.56px;" id="elz6nykb63aa" class="animable"></rect><polygon points="381.65 475.06 379.89 475.06 365.53 408.06 364.71 404.24 362.14 392.21 361.18 387.72 357.56 370.89 356.3 365 362.57 365 363.6 370.89 364.26 374.76 364.71 377.34 367.29 392.21 368.12 396.99 381.65 475.06" style="fill: rgb(69, 90, 100); transform-origin: 368.975px 420.03px;" id="elhxult1ctmpt" class="animable"></polygon><polygon points="362.57 365 363.6 370.89 357.56 370.89 356.3 365 362.57 365" style="fill: rgb(38, 50, 56); transform-origin: 359.95px 367.945px;" id="elp5t9m2myb2" class="animable"></polygon><polygon points="368.12 396.99 365.53 408.06 364.71 404.24 362.14 392.21 361.18 387.72 364.26 374.76 364.71 377.34 367.29 392.21 368.12 396.99" style="fill: rgb(38, 50, 56); transform-origin: 364.65px 391.41px;" id="elmc45oifhqte" class="animable"></polygon><polygon points="373.12 365 371.86 370.89 367.29 392.21 364.71 404.24 349.54 475.06 347.78 475.06 362.14 392.21 364.71 377.34 365.83 370.89 366.85 365 373.12 365" style="fill: rgb(69, 90, 100); transform-origin: 360.45px 420.03px;" id="elhmiu6r83cg9" class="animable"></polygon><polygon points="373.12 365 371.86 370.89 365.83 370.89 366.85 365 373.12 365" style="fill: rgb(38, 50, 56); transform-origin: 369.475px 367.945px;" id="elwpwnd6bhjw" class="animable"></polygon><rect x="203.72" y="360.69" width="181.61" height="4.31" style="fill: rgb(69, 90, 100); transform-origin: 294.525px 362.845px;" id="elaw56ojdmtc" class="animable"></rect><rect x="197.85" y="352.46" width="193.35" height="8.23" style="fill: rgb(55, 71, 79); transform-origin: 294.525px 356.575px;" id="ellx81wz21mu" class="animable"></rect><polygon points="331.35 352.45 291.3 352.45 291.3 349.34 331.35 348.05 331.35 352.45" style="fill: rgb(69, 90, 100); transform-origin: 311.325px 350.25px;" id="el9jvfn7s5h8" class="animable"></polygon><path d="M362.82,352.4H336.4c-2.25,0,1-6.42,9.24-8.88S365.42,350,362.82,352.4Z" style="fill: rgb(55, 71, 79); transform-origin: 349.449px 347.748px;" id="elf6p1h1wtip" class="animable"></path><path d="M352.45,352.4c-.35-2.94,1.52-6.33,4.51-7a17.91,17.91,0,0,0-4.51,7Z" style="fill: rgb(38, 50, 56); transform-origin: 354.684px 348.9px;" id="elcto2ti3pph7" class="animable"></path><path d="M355.58,346.29c2.91.56,7.22,2.73,7.24,6.11-1.53-2.94-4.72-4.1-7.24-6.11Z" style="fill: rgb(38, 50, 56); transform-origin: 359.2px 349.345px;" id="el5xx9fry27tm" class="animable"></path><polygon points="381.78 339.97 317.56 339.97 327.77 292.16 391.99 292.16 381.78 339.97" style="fill: rgb(69, 90, 100); transform-origin: 354.775px 316.065px;" id="eljv0oi7471q8" class="animable"></polygon><polygon points="384.15 339.97 319.93 339.97 330.14 292.16 394.37 292.16 384.15 339.97" style="fill: rgb(55, 71, 79); transform-origin: 357.15px 316.065px;" id="el3e3rxbfkr62" class="animable"></polygon><polygon points="349.52 322.83 348.01 322.83 350.3 312.1 351.8 312.1 349.52 322.83" style="fill: rgb(38, 50, 56); transform-origin: 349.905px 317.465px;" id="el1m0g3iow413" class="animable"></polygon><polygon points="352.49 322.83 350.98 322.83 353.27 312.1 354.77 312.1 352.49 322.83" style="fill: rgb(38, 50, 56); transform-origin: 352.875px 317.465px;" id="el6nhgmde0dsi" class="animable"></polygon><polygon points="355.46 322.83 353.95 322.83 356.24 312.1 357.75 312.1 355.46 322.83" style="fill: rgb(38, 50, 56); transform-origin: 355.85px 317.465px;" id="elvoyrc3geoek" class="animable"></polygon><polygon points="358.43 322.83 356.93 322.83 359.21 312.1 360.72 312.1 358.43 322.83" style="fill: rgb(38, 50, 56); transform-origin: 358.825px 317.465px;" id="el7g9su9819g2" class="animable"></polygon><polygon points="361.4 322.83 359.9 322.83 362.18 312.1 363.69 312.1 361.4 322.83" style="fill: rgb(38, 50, 56); transform-origin: 361.795px 317.465px;" id="ell6gdr9xz2d" class="animable"></polygon><polygon points="364.38 322.83 362.87 322.83 365.15 312.1 366.66 312.1 364.38 322.83" style="fill: rgb(38, 50, 56); transform-origin: 364.765px 317.465px;" id="elp7w6220dgfm" class="animable"></polygon><polygon points="367.35 322.83 365.84 322.83 368.13 312.1 369.63 312.1 367.35 322.83" style="fill: rgb(38, 50, 56); transform-origin: 367.735px 317.465px;" id="el6ct52jxz48e" class="animable"></polygon><polygon points="365.99 352.46 334.4 352.46 334.4 350 365.99 348.98 365.99 352.46" style="fill: rgb(69, 90, 100); transform-origin: 350.195px 350.72px;" id="elgjcg4q5gg2m" class="animable"></polygon><polygon points="374.58 352.45 357.62 352.45 347.41 325.66 364.37 325.66 374.58 352.45" style="fill: rgb(69, 90, 100); transform-origin: 360.995px 339.055px;" id="el7sei22xerv9" class="animable"></polygon><polygon points="377.37 352.45 360.41 352.45 350.2 325.66 367.16 325.66 377.37 352.45" style="fill: rgb(38, 50, 56); transform-origin: 363.785px 339.055px;" id="elzfijec8qdbh" class="animable"></polygon></g><g id="freepik--character-1--inject-2" class="animable" style="transform-origin: 200.571px 257.742px;"><path d="M237.2,474.62c-3,.92-89.64-.95-92.8-3.06-1.22-.78,6.2-82.88,6.2-82.88l55,1.05-6.26,54.92s32,15.15,35.22,17.84S240.17,473.7,237.2,474.62Z" style="fill: rgb(173, 99, 89); transform-origin: 191.409px 431.77px;" id="elcuk90td5n07" class="animable"></path><path d="M237.2,474.62c-1.48.46-24,.22-46.55-.4s-44.68-1.61-46.25-2.66c-.52-.33.52-15.25,1.87-32.34,1.86-23.26,4.33-50.54,4.33-50.54l55,1.05-6.26,54.92s32,15.15,35.22,17.84S240.17,473.7,237.2,474.62Z" style="fill: rgb(173, 99, 89); transform-origin: 191.408px 431.77px;" id="eldhkndkpznw" class="animable"></path><path d="M237.2,474.62c-3,.92-89.64-.95-92.8-3.07-.39-.23-.5-8.57.88-19.43,15.72,2.64,71.82,11.25,76.18,8.68,3-1.79.36-4.59-2.14-6.47,7.16,3.57,13.84,7,15.22,8.16C237.76,465.17,240.17,473.7,237.2,474.62Z" style="fill: rgb(38, 50, 56); transform-origin: 191.346px 463.49px;" id="el80ps6m1k3tq" class="animable"></path><g id="elb5rgl6bng7t"><path d="M190.65,474.22c-22.36-.62-44.68-1.61-46.25-2.66-.52-.33.52-15.25,1.87-32.34Z" style="opacity: 0.1; transform-origin: 167.457px 456.72px;" class="animable" id="el0ir3bfw3n5y8"></path></g><path d="M200.87,431.48l-54-.76S157.6,301.47,157.15,299c-.56-3.18-38.85-153.31-38.85-153.31h51.5s40.62,139.93,42.07,153.41C214.24,320.85,200.87,431.48,200.87,431.48Z" style="fill: rgb(38, 50, 56); transform-origin: 165.226px 288.585px;" id="elgr5i6680jad" class="animable"></path><path d="M151.76,418.54c3.19-.23,6.41-.19,9.61-.24s6.4-.05,9.6,0c6.4.07,12.8.16,19.19.34,1.75.05,3.5.11,5.25.19s3.74.4,5.61.47a.12.12,0,0,1,0,.23c-1.57,0-3.14.25-4.72.29s-3.26.06-4.89.06q-4.8,0-9.6,0c-6.4-.06-12.8-.14-19.19-.41-3.61-.15-7.26-.19-10.86-.55A.17.17,0,0,1,151.76,418.54Z" style="fill: rgb(55, 71, 79); transform-origin: 176.338px 419.071px;" id="eldwbrw7p3j27" class="animable"></path><path d="M129.63,157.8c4.6,16.32,8.82,32.78,13,49.23s8.24,32.92,12.34,49.38q3.08,12.34,6.14,24.7c2,8,4.31,16.07,4.8,24.35s-.56,16.91-1.27,25.29-1.42,16.86-2.16,25.28c-1.48,16.86-2.89,33.73-4.73,50.55-.23,2.1-.45,4.21-.67,6.31,0,.18-.29.18-.28,0,1.12-16.87,2.28-33.73,3.63-50.58q1-12.63,2.06-25.28c.69-8.41,1.67-16.85,1.93-25.28s-1.28-16.67-3.34-24.89q-3-12.09-6.05-24.17Q148.8,238,142.65,213.31c-4.58-18.44-9.14-36.91-13.18-55.47A.08.08,0,0,1,129.63,157.8Z" style="fill: rgb(55, 71, 79); transform-origin: 147.752px 285.381px;" id="el8tdwo7hf0e3" class="animable"></path><path d="M118.3,145.68s16.42,64.4,27.92,109.74l21.91-109.74Z" style="fill: rgb(55, 71, 79); transform-origin: 143.215px 200.55px;" id="elnrre8bvo55j" class="animable"></path><path d="M173.66,474.82c-3,.93-89.65-.95-92.81-3.06-1.22-.78,5-82.93,5-82.93l52.6,1.05-2.62,55s32,15.15,35.22,17.84S176.63,473.9,173.66,474.82Z" style="fill: rgb(173, 99, 89); transform-origin: 127.856px 431.947px;" id="el5wz45uh9hw8" class="animable"></path><path d="M173.66,474.82c-3,.92-89.65-.95-92.81-3.06-.38-.24-.29-8.36,0-19.45,15.72,2.64,72.69,11.26,77.06,8.69,3-1.79.35-4.59-2.15-6.47,7.16,3.57,13.85,7,15.23,8.16C174.21,465.37,176.62,473.91,173.66,474.82Z" style="fill: rgb(38, 50, 56); transform-origin: 127.8px 463.685px;" id="elgsvq5wf6lf9" class="animable"></path><path d="M169.32,145.65s-2.91,36.42-8.92,45.56a91.76,91.76,0,0,0-14.94,7.45s-3.71,97.41-3.64,103.26c.24,21.89-5.35,128.48-5.35,128.48l-54.42-.52S96.14,244.66,99.42,202.25c0,0-2.48-13.54-1.94-20.38,1.3-16.59,8.55-36.2,8.55-36.2Z" style="fill: rgb(38, 50, 56); transform-origin: 125.685px 288.025px;" id="elul18pcclny" class="animable"></path><path d="M150.17,180.28c.2-1.36.41-2.72.62-4.09.38-2.49.89-5,1.32-7.46,1-5.64,2-11.3,3.29-16.9a.12.12,0,0,1,.24,0c-.22,2.26-.48,4.52-.8,6.76s-.54,4.51-.86,6.76c-.63,4.46-1.25,8.92-2,13.36-.29,1.71-1.36,4.78,1.1,5.31,2,.42,3.38-1.5,4-3.1a37.92,37.92,0,0,0,1.31-6.16c.41-2.25.76-4.51,1.08-6.77.69-4.93,1.46-9.84,2.26-14.75,0-.14.25-.1.24,0a146.78,146.78,0,0,1-1.09,15.11c-.31,2.39-.67,4.79-1.08,7.17a25.12,25.12,0,0,1-1.65,6.69,5.45,5.45,0,0,1-4.07,3.27h-.12a.16.16,0,0,1,.08.14c0,.8,0,1.61-.1,2.41s-.24,1.57-.39,2.35a15.91,15.91,0,0,1-.61,2.35,10.86,10.86,0,0,1-.43,1.07,11.17,11.17,0,0,1-.64,1c-.09.14-.25.06-.26-.08h0c0-.13,0-.26,0-.39a.16.16,0,0,0,0-.07h0a5.58,5.58,0,0,1,0-.7c.06-.38.14-.76.23-1.14.16-.76.37-1.52.58-2.27s.36-1.51.56-2.26.45-1.53.63-2.32a.18.18,0,0,1,.05-.07,3.55,3.55,0,0,1-3.43-2.15A6.15,6.15,0,0,1,150.17,180.28Z" style="fill: rgb(55, 71, 79); transform-origin: 155.987px 173.292px;" id="ellhve1px036r" class="animable"></path><path d="M141.06,199.85a42.74,42.74,0,0,1,5.12-3.38,49.63,49.63,0,0,1,5.84-3c3.93-1.71,8-2.88,12-4.22.12,0,.2.16.09.21-3.94,1.57-7.71,3.64-11.51,5.5-1.87.92-3.77,1.79-5.67,2.63s-3.81,1.83-5.77,2.55C141.06,200.17,140.94,199.94,141.06,199.85Z" style="fill: rgb(55, 71, 79); transform-origin: 152.586px 194.696px;" id="el61fyjtnnmkv" class="animable"></path><path d="M115.06,169.44c2.77,0,12.34-.7,15.18-3.87a19.51,19.51,0,0,0,3.54-6.39,59.88,59.88,0,0,0,2.15-7.76c0-.13.22-.09.22,0a30.09,30.09,0,0,1-1.11,8.81c-.67,2.43-1.57,5.15-3.53,6.85s-4.88,2.42-7.52,2.75a34.75,34.75,0,0,1-8.94-.12A.15.15,0,0,1,115.06,169.44Z" style="fill: rgb(55, 71, 79); transform-origin: 125.564px 160.699px;" id="elg50wh5d2m0b" class="animable"></path><path d="M175.82,170.19c-.85,0-3.36-1.76-3.66-2.22-2.09-3.15-2.6-13.17-2.78-15.8,0-.13-.07-.09-.07,0,0,3,.11,6,.35,8.81a30.9,30.9,0,0,0,1.09,6.85c.64,1.79,4.16,3,5.08,2.62C175.88,170.46,175.88,170.19,175.82,170.19Z" style="fill: rgb(55, 71, 79); transform-origin: 172.588px 161.303px;" id="el0joqfhk5py66" class="animable"></path><path d="M84.46,419.34c3.19-.23,6.41-.2,9.61-.24s6.4-.05,9.6,0c6.4.07,12.8.16,19.19.34,1.75.05,3.5.11,5.25.19s3.74.4,5.61.47a.12.12,0,0,1,0,.23c-1.57,0-3.14.25-4.72.29s-3.26.06-4.89.06q-4.8,0-9.6,0c-6.4-.05-12.8-.14-19.19-.4-3.61-.15-7.26-.19-10.86-.56A.16.16,0,0,1,84.46,419.34Z" style="fill: rgb(55, 71, 79); transform-origin: 109.038px 419.873px;" id="elweiz3z338i" class="animable"></path><path d="M91.1,412.25h0a.66.66,0,0,1-.63-.7l17-210.93c-.16-.92-3.62-12.7-3.93-18.72-.33-6.36,6.25-31.16,6.53-32.21a.67.67,0,0,1,.81-.47.65.65,0,0,1,.47.81c-.06.25-6.8,25.64-6.49,31.8s3.91,18.54,3.93,18.64-17,211.15-17,211.15A.67.67,0,0,1,91.1,412.25Z" style="fill: rgb(55, 71, 79); transform-origin: 100.922px 280.725px;" id="elpup0e9hvv8a" class="animable"></path><path d="M204.3,45.27s-4.54-5.62-10.06-4.76-6,4.45-9.35,5.23S174.32,46,171,49.58,169.36,60,167.85,62.12s-6.93,2.83-7.85,8c-1.06,6,2.86,9.33,2.89,12.4.05,5.12-3.22,9.49,0,15.27,3.45,6.21,9,5.69,12.85,7.53,3.65,1.76,4.82,8.5,12.76,8.41s9.68-5.23,14.19-7.35,11.38.53,16.11-3.16,2.84-8.39,4-11,5.18-3,6.43-7.54-3-8.29-3.39-10c-.73-3,1.21-4.71.2-8.91s-6.37-6.82-7.48-8c-2.66-2.95-.67-9.64-4.83-12.2A8.63,8.63,0,0,0,204.3,45.27Z" style="fill: rgb(38, 50, 56); transform-origin: 194.639px 77.0757px;" id="eln2pv0adqkvm" class="animable"></path><path d="M169.13,53.34c-.2,3.09,0,6.82-3,8.75-4.54,2.58-8.64,6.2-7.25,11.91.52,3.09,3.24,5.45,3.63,8.68a13.91,13.91,0,0,1-.64,3.18,21.58,21.58,0,0,0-.86,6.11,10.4,10.4,0,0,0,1.83,5.84A10.12,10.12,0,0,1,160.57,92a21.89,21.89,0,0,1,.59-6.31c2.14-4.24-2.37-7.12-3.21-11.47-1.13-4.38,1.37-8.93,5.16-11.07,1.72-1.11,3.77-1.82,4.71-3.76.81-1.6,1-4.28,1.31-6Z" style="fill: rgb(38, 50, 56); transform-origin: 163.403px 75.575px;" id="el3z5uuos4n85" class="animable"></path><path d="M214.69,105c5.49-1.4,8.36-3,8.48-9.13.14-1.18.06-2.69.87-3.69,1.32-1.5,3.14-2.54,4.26-4.11a8.06,8.06,0,0,0,.41-8.57c-.71-1.39-1.63-2.69-2.47-4a37.25,37.25,0,0,1,2.89,3.8,9,9,0,0,1,1.06,7.13c-.67,2.43-2.83,4.12-4.6,5.63-1.37.92-1.32,2.43-1.47,3.93-.31,6.28-3.53,8.35-9.43,9.05Z" style="fill: rgb(38, 50, 56); transform-origin: 222.596px 90.27px;" id="elhtl566247sg" class="animable"></path><path d="M181.23,147l-3.13,20.25L106,145.67s25.33-41.22,46.58-57.24c10.37-7.82,21.39-4.88,26,3.27,1.17,2.06,11.74,28.08,11.17,38.31C189.29,139,181.23,147,181.23,147Z" style="fill: rgb(235, 235, 235); transform-origin: 147.886px 125.552px;" id="ele1bpndzrbk6" class="animable"></path><path d="M163.28,138.72a42.68,42.68,0,0,1,8.07,3.05c1.29.68,2.55,1.44,3.79,2.24.63.39,1.26.76,1.89,1.12a6.41,6.41,0,0,0,2.07.86c.06,0,.05.15,0,.15a11,11,0,0,1-2.05-.33,11.21,11.21,0,0,1-1.9-.79c-1.32-.67-2.61-1.42-3.92-2.11-2.64-1.38-5.28-2.76-8-3.86C163.08,139,163.15,138.69,163.28,138.72Z" style="fill: rgb(38, 50, 56); transform-origin: 171.143px 142.429px;" id="eleieipcdd0k" class="animable"></path><path d="M155.92,141.35a44.25,44.25,0,0,1,7,.44,28.76,28.76,0,0,1,3.43.76q.81.22,1.62.48c.59.19,1.16.5,1.75.67.06,0,0,.16,0,.15a16.76,16.76,0,0,0-1.73-.25l-1.72-.3c-1.15-.19-2.31-.36-3.46-.57-2.3-.42-4.59-.8-6.91-1.1C155.75,141.61,155.8,141.36,155.92,141.35Z" style="fill: rgb(38, 50, 56); transform-origin: 162.777px 142.597px;" id="elxgd92b2z3s" class="animable"></path><path d="M165.08,83.38s-4.58,39.22-6.76,47S137.71,203,137.71,203L90.43,174.61c7-21.67,34.58-59.14,48.69-76S165.08,83.38,165.08,83.38Z" style="fill: #454E5D; transform-origin: 127.755px 143.169px;" id="elb9zg322pno6" class="animable"></path><path d="M176.8,88.88s5.85,34.93,4,41.9-3.75,77.59-3.75,77.59l12.74-14.07L181.23,147s7.48-6.83,8.6-15.21C191.17,121.76,180.91,91.81,176.8,88.88Z" style="fill: #454E5D; transform-origin: 183.375px 148.625px;" id="elr3alw4ev82" class="animable"></path><g id="eljn28ws4p6do"><path d="M176.81,88.9c.18,1,5.8,35,4,41.89-.85,3.28-1.28,16.88-2.1,30.07l7.17-36.17-4-10,4-2.19Z" style="opacity: 0.1; transform-origin: 181.345px 124.88px;" class="animable" id="elor7gnain4"></path></g><g id="elzvwo5pht55"><path d="M158.25,109.31l-5.66,8-1.47,38.43c2.93-10.46,6.19-21.81,7.2-25.4,2.14-7.67,6.61-45.8,6.76-47v0l-11.26,20.06Z" style="opacity: 0.1; transform-origin: 158.1px 119.54px;" class="animable" id="el1c8ug1dz0drh"></path></g><path d="M177.72,92.84c.46,1.75-3.1,21.22-4.69,21.22-3.38,0-7.34-22.12-6.26-27.53C167,85.42,177.72,92.84,177.72,92.84Z" style="fill: rgb(173, 99, 89); transform-origin: 172.175px 100.238px;" id="elmnz9pi1nq5e" class="animable"></path><path d="M166.91,85.19c-.62,1.23-1.27,12,3.63,15.75,1.6,1.21,8.57-7.23,8.57-7.23l.66-.5L189,86.13,184.2,71.06l-.76-2.1s-2.38,2.11-5.33,4.76l-.42.37c-.17.15-.33.28-.48.43-.45.38-.9.79-1.34,1.19s-.67.61-1,1-.68.66-1,1A74.1,74.1,0,0,0,166.91,85.19Z" style="fill: rgb(173, 99, 89); transform-origin: 177.743px 85.0093px;" id="el9crrzt7frbr" class="animable"></path><path d="M178.11,73.72a23.27,23.27,0,0,0,1.66,19.49L189,86.13,184.2,71.06l-.76-2.1S181.06,71.07,178.11,73.72Z" style="fill: rgb(38, 50, 56); transform-origin: 182.854px 81.085px;" id="el6xrqhfb1xaa" class="animable"></path><path d="M212.67,78.45C204,96.85,192,93.71,188,91.83c-3.6-1.71-15.64-8-8.88-27.19s18.07-21,26.51-17.49S221.38,60.05,212.67,78.45Z" style="fill: rgb(173, 99, 89); transform-origin: 196.847px 69.4961px;" id="elvc6wci38x9" class="animable"></path><path d="M210.79,74.07a13.19,13.19,0,0,1-1-1,2.31,2.31,0,0,1-.83-1.21.72.72,0,0,1,.48-.74,1.81,1.81,0,0,1,1.72.6,2.7,2.7,0,0,1,.89,1.68A.77.77,0,0,1,210.79,74.07Z" style="fill: rgb(38, 50, 56); transform-origin: 210.506px 72.6681px;" id="elt32a59akhcl" class="animable"></path><path d="M197.92,70.71c.43.2.87.32,1.32.48a2.28,2.28,0,0,0,1.44.24.74.74,0,0,0,.47-.75,1.81,1.81,0,0,0-1.28-1.3,2.65,2.65,0,0,0-1.9-.09A.78.78,0,0,0,197.92,70.71Z" style="fill: rgb(38, 50, 56); transform-origin: 199.32px 70.3075px;" id="elua64q64pmki" class="animable"></path><path d="M206.34,77.69s.06.11,0,.16c-.74,1.17-1.4,2.63-.56,3.67,0,0,0,.09,0,.06C204.56,80.61,205.45,78.68,206.34,77.69Z" style="fill: rgb(38, 50, 56); transform-origin: 205.775px 79.6381px;" id="elgh40tzsg7bd" class="animable"></path><path d="M208.15,77.07c2,1-.13,4.93-2,4S206.47,76.24,208.15,77.07Z" style="fill: rgb(38, 50, 56); transform-origin: 207.194px 79.0831px;" id="elsw85agjx4w" class="animable"></path><path d="M208.83,77.78c.19.37.3.92.65,1.15s1,0,1.46-.25c.06,0,.07,0,0,.07-.38.76-1.06,1.41-1.86,1.17s-.86-1.14-.64-2C208.53,77.78,208.75,77.63,208.83,77.78Z" style="fill: rgb(38, 50, 56); transform-origin: 209.659px 78.8441px;" id="el1c6pzrngl9f" class="animable"></path><path d="M199.18,73.85s-.13,0-.16.06c-.64,1.22-1.58,2.52-2.9,2.31,0,0-.07,0,0,.07C197.53,76.86,198.77,75.12,199.18,73.85Z" style="fill: rgb(38, 50, 56); transform-origin: 197.634px 75.1257px;" id="eldhy53p4xmvn" class="animable"></path><path d="M198.81,72c-1.86-1.24-4.21,2.57-2.49,3.72S200.37,73,198.81,72Z" style="fill: rgb(38, 50, 56); transform-origin: 197.523px 73.8431px;" id="el533shmc8f6o" class="animable"></path><path d="M197.86,71.74c-.42,0-1,.2-1.32,0s-.49-.83-.51-1.39c0,0-.05,0-.09,0-.46.71-.69,1.62-.08,2.19s1.41.19,2-.43C198,72,198,71.74,197.86,71.74Z" style="fill: rgb(38, 50, 56); transform-origin: 196.728px 71.5849px;" id="elo8vkgy3sv6f" class="animable"></path><path d="M193.37,83.46c.07.46.06,1,.44,1.35a3.71,3.71,0,0,0,1.4.63,0,0,0,0,1,0,.09,1.86,1.86,0,0,1-1.85-.47,1.45,1.45,0,0,1-.13-1.63C193.26,83.35,193.36,83.39,193.37,83.46Z" style="fill: rgb(38, 50, 56); transform-origin: 194.124px 84.4967px;" id="el0y8pbylvfyg" class="animable"></path><path d="M194.74,82.74A11.34,11.34,0,0,1,199,85.21c.15.06.51.13.61,0h0S201,82.64,201,82.64c.24.35,1.52,2.07,1.76,1.58,2-4.09,4.19-8.63,5.3-13.12,0-.14-.18-.23-.24-.09-2.06,3.85-3.43,8-5.44,11.94a8.34,8.34,0,0,0-1.58-1.65c-.15,0-1.29,2.81-1.56,3.2a6.64,6.64,0,0,0-4.5-2.06C194,82.37,193.88,82.48,194.74,82.74Z" style="fill: rgb(38, 50, 56); transform-origin: 201.1px 78.1117px;" id="el4hwe34qdkwg" class="animable"></path><path d="M178.56,65.6a8.38,8.38,0,0,0,7.72-3.07,22,22,0,0,0,11.45-1c-.35.27-2.86,2.25-4.17,3.21,12.1,5.2,20.95-.8,20.95-.8a22.39,22.39,0,0,1,.12,10s4.5-6.55,4.07-13.25a12.81,12.81,0,0,0-6.88-11,18.33,18.33,0,0,0-17.92-5.39C181.81,47.24,178.56,65.6,178.56,65.6Z" style="fill: rgb(38, 50, 56); transform-origin: 198.644px 58.8496px;" id="elwd2g940li2" class="animable"></path><path d="M202.93,68.44a23.89,23.89,0,0,1-6.88-1.67s0,0,0,0a20.25,20.25,0,0,0,11.1.52,19.54,19.54,0,0,0,4.5-1.69,13.33,13.33,0,0,0,4.18-3.14.1.1,0,0,1,.15.12,15.49,15.49,0,0,1-3.69,3.67,14.29,14.29,0,0,1-4.78,2,16.43,16.43,0,0,1-4.59.26" style="fill: rgb(38, 50, 56); transform-origin: 206.019px 65.5047px;" id="elrm4lqils7e" class="animable"></path><path d="M181.37,67.44s-.63-7.73-3.92-7.82-5,9.56-2.77,12.35a3.44,3.44,0,0,0,4.92.73Z" style="fill: rgb(173, 99, 89); transform-origin: 177.521px 66.5217px;" id="el7bzaassdz2y" class="animable"></path><path d="M177,62.4s-.09,0-.06.07c1.56,2,1.53,4.56,1.14,7a1.91,1.91,0,0,0-2.2-1.89c-.07,0-.07.13,0,.15a2.11,2.11,0,0,1,1.63,1.81,10,10,0,0,1,0,2.19c0,.24.37.34.43.08a.11.11,0,0,1,0,0C179.56,69.14,179.66,64.3,177,62.4Z" style="fill: rgb(38, 50, 56); transform-origin: 177.459px 67.1817px;" id="el2ts7ghwsuxc" class="animable"></path><path d="M148.5,98.49c-11.32,20.1-24.28,54.4-20.93,60.91,8.37,16.3,28.52,33.53,37.92,39.23,5.49,3.33,24.47-24.77,19.74-28-7.46-5-27-22.31-29.35-24.64-1.25-1.24,3-25.56,4.37-41.69C161.71,86.79,154,88.7,148.5,98.49Z" style="fill: rgb(173, 99, 89); transform-origin: 156.506px 145.004px;" id="elz1gqfacphv" class="animable"></path><path d="M196.15,184.49c3.14-1.61,10.7-.35,15.53-1.38s8.12-6.32,6.72-7.69-3.36-.2-10.72-1.27c-4.72-.7-13.28-6.25-22.07-6.52C181.19,167.49,193,186.11,196.15,184.49Z" style="fill: rgb(173, 99, 89); transform-origin: 201.678px 176.11px;" id="el9oydsw9y2ql" class="animable"></path><path d="M196.15,184.49c3.14-1.61,10.7-.35,15.53-1.38s8.12-6.32,6.72-7.69-3.36-.2-10.72-1.27c-4.72-.7-13.28-6.25-22.07-6.52C181.19,167.49,193,186.11,196.15,184.49Z" style="fill: rgb(173, 99, 89); transform-origin: 201.678px 176.11px;" id="el0vf2hpv2111" class="animable"></path><g id="elu688re282ni"><path d="M196.15,184.49c3.14-1.61,10.7-.35,15.53-1.38s8.12-6.32,6.72-7.69-3.36-.2-10.72-1.27c-4.72-.7-13.28-6.25-22.07-6.52C181.19,167.49,193,186.11,196.15,184.49Z" style="opacity: 0.1; transform-origin: 201.678px 176.11px;" class="animable" id="eltjpkdxfqta"></path></g><g id="el9tctavlnskg"><rect x="179.43" y="159.3" width="11.99" height="66.22" style="fill: rgb(219, 219, 219); transform-origin: 185.425px 192.41px; transform: rotate(-134.19deg);" class="animable" id="elh9ccz2jw2g"></rect></g><polygon points="126.84 236.71 139.48 249.71 139.48 249.71 175.94 214.27 163.31 201.27 163.31 201.27 126.84 236.71" style="fill: #454E5D; transform-origin: 151.39px 225.49px;" id="elcihsxmjwbm7" class="animable"></polygon><g id="el0svx0gs073s"><polygon points="126.84 236.71 139.48 249.71 139.48 249.71 175.94 214.27 163.31 201.27 163.31 201.27 126.84 236.71" style="opacity: 0.4; transform-origin: 151.39px 225.49px;" class="animable" id="el8y7b932kei"></polygon></g><path d="M211.45,199.39a4.41,4.41,0,0,1-5,.29,7.89,7.89,0,0,1-1.71,5.09c-2.15,2.45-6.93.17-6.93.17a9.66,9.66,0,0,1-2.66,5.08c-2.28,2.14-7.43.53-7.43.53a9.64,9.64,0,0,1-5.16,3c-6.5,1.2-23.46-18.66-25.94-21.38l20.28-28.69s27.29,10.39,30.63,15.75C210.38,183.74,215,197,211.45,199.39Z" style="fill: rgb(173, 99, 89); transform-origin: 184.678px 188.541px;" id="elv2a9lb47k7d" class="animable"></path><path d="M206.53,199.54c-1.85-5.53-5-10.6-8.12-15.46a.1.1,0,1,0-.16.11c3.14,4.8,5.08,10.55,8,15.47A.14.14,0,0,0,206.53,199.54Z" style="fill: rgb(38, 50, 56); transform-origin: 202.379px 191.883px;" id="elddu6f85hwno" class="animable"></path><path d="M198.11,204.57a15,15,0,0,0-2.07-3.39c-.82-1.15-1.65-2.28-2.51-3.4q-2.55-3.36-5.29-6.59c-.08-.09-.24,0-.16.11,1.69,2.24,3.36,4.5,5,6.8.8,1.16,1.6,2.32,2.38,3.48a18.16,18.16,0,0,0,2.37,3.2A.2.2,0,0,0,198.11,204.57Z" style="fill: rgb(38, 50, 56); transform-origin: 193.085px 197.975px;" id="elftyeqg66yps" class="animable"></path><path d="M187.68,210.45a10.72,10.72,0,0,0-2-2.95c-.8-1-1.6-2-2.38-3-1.58-2-3.16-4.05-4.66-6.13a.1.1,0,0,0-.17.11c1.52,2.12,3,4.26,4.55,6.37.75,1,1.51,2.07,2.28,3.09a9.83,9.83,0,0,0,2.31,2.62A.07.07,0,0,0,187.68,210.45Z" style="fill: rgb(38, 50, 56); transform-origin: 183.074px 204.443px;" id="el0byv4o6gtb84" class="animable"></path><path d="M158.22,200.05l25-33.57-25.71-20.91c1.84-13.18,5.5-39.55,5.4-48.86-.11-10.92-7.7-11.55-13.78-2.23-13.9,21.31-27.71,60.16-26.8,66.46C123.61,170,158.22,200.05,158.22,200.05Z" style="fill: #454E5D; transform-origin: 152.754px 144.009px;" id="el9jv8hyq8nu" class="animable"></path><path d="M155.84,191.83c1.15-2.35,7.46-11.16,9.06-13.33s8.29-10.69,9.93-12.92c.09-.12.29,0,.2.1-1.59,2.23-7.63,11.28-9.2,13.47s-8,10.9-9.88,12.76A.07.07,0,0,1,155.84,191.83Z" style="fill: rgb(38, 50, 56); transform-origin: 165.444px 178.728px;" id="el01l7gvgzw4jm" class="animable"></path><path d="M161.34,114.06c-.56,9.9-2.2,20.36-3.26,30.23-.05.43-.09.84-.11,1.24a.35.35,0,0,0,0-.13l0,0c5.79,5.35,12.9,10.69,19,15.8l6.27,5.14,0,0,0,0-.7.89.62-1v.07l-6.52-4.83c-6.38-5-13.54-10.09-19.46-15.59a.76.76,0,0,1-.2-.49c0-1.16.18-2.24.31-3.37,1.09-8.94,2.78-19.21,4-28.11Z" style="fill: rgb(38, 50, 56); transform-origin: 170.11px 140.57px;" id="elkjmy6kkld68" class="animable"></path><path d="M162.14,115.89a11.66,11.66,0,0,1-1.49,4.35c.54-1.41.89-2.95,1.49-4.35Z" style="fill: rgb(38, 50, 56); transform-origin: 161.395px 118.065px;" id="elxq1dx1rjqak" class="animable"></path><path d="M161.34,195.86l-3,4.25-.06.09-.08-.07q-11-9.49-21.33-19.78c-3.4-3.46-6.74-7-9.82-10.77-1.88-2.39-3.89-4.84-5-7.76-.62-1.83.13-3.82.42-5.63a189.92,189.92,0,0,1,8.83-27.74,156.62,156.62,0,0,1,13-26A180,180,0,0,0,132,128.72a204.45,204.45,0,0,0-8.56,27.68c-.25,1.17-.47,2.36-.6,3.52a5.26,5.26,0,0,0,.84,3.18c3.6,6.24,8.84,11.43,13.77,16.66,6.71,7,13.74,13.65,20.86,20.22h-.15l3.2-4.13Z" style="fill: rgb(38, 50, 56); transform-origin: 141.586px 151.325px;" id="elq1ew80tbz2" class="animable"></path><path d="M142.14,103.62c-.42,1.57-.86,3.1-1.18,4.69a10.22,10.22,0,0,1,1.18-4.69Z" style="fill: rgb(38, 50, 56); transform-origin: 141.55px 105.965px;" id="el0p8scjguohre" class="animable"></path><path d="M221.84,175.67a33.48,33.48,0,0,1-4.82-3.58c-.36-.31-.7-.65-1-1s-.61-.62-.9-.93-.43-.43-.62-.64l-8.82-9.92a32.42,32.42,0,0,0,2.55,2.56,29.63,29.63,0,0,0,2.39,1.93c.76.58,1.58,1.13,2.43,1.66,21,12.95,54.51,2.43,74.75-23.48,15.61-20,18.82-43.24,9.83-58.8a31.35,31.35,0,0,0-3.9-5.43L302.52,88s0,0,.07.08c.38.42.75.86,1.1,1.31s.61.77.89,1.17c.13.18.27.36.39.55s.42.62.62.93.23.36.33.55c5.81,9.4,7,21.82,3.5,34.64-.17.66-.36,1.31-.56,2a71.79,71.79,0,0,1-12.27,23C276.35,178.12,242.88,188.63,221.84,175.67Z" style="fill: rgb(55, 71, 79); transform-origin: 258.531px 129.631px;" id="el3s0mvtrz8dk" class="animable"></path><path d="M205,91.35c-20.57,26.34-22.76,57.58-6.94,75.35l8.83,9.89c-15.83-17.74-13.63-49,6.93-75.34,23.75-30.36,63-42.71,87.72-27.53a39.17,39.17,0,0,1,5.64,4.2,42.17,42.17,0,0,1,3,3L301.31,71a38.71,38.71,0,0,0-3-3,38.19,38.19,0,0,0-5.62-4.19C268,48.63,228.71,61,205,91.35Z" style="fill: rgb(55, 71, 79); transform-origin: 248.924px 116.955px;" id="el36fpog7mgjg" class="animable"></path><path d="M310.13,80.92a1.73,1.73,0,0,0-.17-.21l-.22-.24-.32-.32c-.18-.2-.37-.4-.56-.59a3,3,0,0,0-.31-.31c-.2-.21-.42-.41-.62-.61s-.51-.48-.78-.73l-1.32-1.12-1.36-1.07c-.29-.2-.56-.41-.85-.6s-.63-.45-1-.66-.76-.5-1.15-.74a44.62,44.62,0,0,0-19.86-6.3c-.89-.07-1.76-.13-2.65-.16s-1.78,0-2.68,0c-.75,0-1.5,0-2.26.07A69.68,69.68,0,0,0,252.85,72c-.46.17-.93.35-1.38.54-.69.27-1.37.55-2.06.86L248,74a85.27,85.27,0,0,0-11.44,6.32c-.88.57-1.75,1.15-2.62,1.77-1,.74-2.09,1.51-3.13,2.3,0,0,0,0,0,0a93,93,0,0,0-11.59,10.52q-2.81,3-5.39,6.31c-.59.74-1.16,1.51-1.71,2.26s-1.1,1.53-1.63,2.29c-.27.39-.53.76-.78,1.15a81.68,81.68,0,0,0-10.11,20.89c-.2.62-.38,1.23-.55,1.84a1.15,1.15,0,0,0-.08.29c-.07.2-.12.4-.17.6-.29,1-.54,2.05-.77,3.09q0,.14-.06.3c-.09.37-.17.74-.24,1.12,0,.14-.05.28-.08.41-.08.37-.14.75-.2,1.12-.1.53-.2,1.06-.26,1.59s-.14.92-.21,1.38c-.17,1.33-.3,2.67-.36,4a2.73,2.73,0,0,0,0,.41c0,.49-.05,1-.06,1.49,0,.23,0,.45,0,.68,0,.41,0,.8,0,1.2,0,.64,0,1.26,0,1.88s.06,1.25.11,1.85.08.95.13,1.42h0c0,.16,0,.33.06.49.06.53.12,1.05.2,1.56,0,.31.08.63.15.94h0c.06.37.12.74.19,1.09.11.55.21,1.11.34,1.64s.26,1.16.41,1.73.32,1.13.49,1.69.33,1,.5,1.55a.34.34,0,0,1,0,.12c.17.46.34.93.53,1.38.07.21.15.41.23.6.18.45.37.9.57,1.34s.39.84.6,1.26c.28.58.58,1.14.89,1.7l.35.64c.13.2.25.41.37.6.37.62.76,1.24,1.18,1.84.08.13.18.26.27.4s.39.58.61.84a1.39,1.39,0,0,0,.15.19c.28.4.59.79.9,1.16l.41.51a.18.18,0,0,0,.05.07l.06.06a1.9,1.9,0,0,0,.19.21l.4.46c-.06-.06-.11-.13-.16-.19a33.12,33.12,0,0,0,2.87,2.94l.28.27a39.57,39.57,0,0,0,5.63,4.19c24.69,15.19,64,2.86,87.71-27.56C323.76,129.92,326,98.67,310.13,80.92ZM296.59,152.2c-20.24,25.92-53.71,36.44-74.75,23.47a32.84,32.84,0,0,1-4.81-3.58,14,14,0,0,1-1-1c-.33-.29-.62-.61-.91-.92a31.86,31.86,0,0,1-4.5-6.06,35.5,35.5,0,0,1-3.27-7.67c-.14-.43-.26-.86-.36-1.28,0,0,0,0,0-.06-.1-.38-.2-.77-.27-1.15s-.23-1-.32-1.53a46.92,46.92,0,0,1-.07-16.05c.08-.58.18-1.16.3-1.75,0-.12.05-.23.06-.35.24-1.17.5-2.32.81-3.49a.89.89,0,0,1,0-.14c.15-.54.3-1.09.47-1.64.22-.76.46-1.52.71-2.27.2-.58.4-1.16.61-1.73s.37-1,.57-1.48l.3-.74c.45-1.1.94-2.2,1.46-3.31.27-.57.55-1.15.84-1.71a76.94,76.94,0,0,1,8-12.45,80.9,80.9,0,0,1,6.93-7.78c.17-.18.34-.35.52-.52.57-.56,1.16-1.11,1.74-1.63.26-.24.51-.48.78-.7s.68-.61,1-.9c.82-.72,1.65-1.41,2.5-2.07.41-.34.81-.65,1.23-1s.83-.63,1.26-.93l.05,0c.82-.6,1.65-1.18,2.49-1.73.42-.29.85-.57,1.29-.85s.86-.55,1.29-.82l1.31-.79,1.32-.75A67.85,67.85,0,0,1,261.32,78c.33-.09.65-.17,1-.24,1-.23,2-.43,2.95-.59.65-.12,1.3-.22,1.95-.31s1.3-.16,1.94-.23,1.3-.13,1.94-.16,1.23-.07,1.83-.09,1.41,0,2.09,0,1.15,0,1.72.05c.33,0,.67,0,1,.06l.92.08q1.39.13,2.76.36c.6.09,1.2.19,1.8.32l.5.11c.24,0,.49.09.73.15l.55.14c1,.25,2,.54,2.93.88.33.1.66.21,1,.33l.08,0c.32.11.65.24,1,.38l1,.4a35.67,35.67,0,0,1,4.24,2.23c.85.51,1.67,1.06,2.44,1.63s1.62,1.24,2.38,1.93,1.32,1.23,1.94,1.89l.6.67a.2.2,0,0,1,.06.09c.39.42.76.86,1.11,1.31s.61.76.89,1.16c.13.19.27.37.39.55s.43.62.62.93l.33.54c5.81,9.4,7,21.82,3.51,34.65-.18.67-.37,1.31-.57,2A71.9,71.9,0,0,1,296.59,152.2Z" style="fill: rgb(69, 90, 100); transform-origin: 258.553px 128.754px;" id="el6olsg1daftx" class="animable"></path><g id="elzsvqyrqbosr"><path d="M213,165.77c-.85-.53-1.67-1.08-2.43-1.66-9-15.55-5.79-38.82,9.81-58.79,20.24-25.91,53.72-36.41,74.78-23.48a28.53,28.53,0,0,1,2.42,1.65c9,15.56,5.78,38.83-9.83,58.8C267.52,168.2,234.05,178.72,213,165.77Z" style="fill: rgb(255, 255, 255); opacity: 0.4; transform-origin: 254.073px 123.809px;" class="animable" id="elef6wac2pmdj"></path></g><g id="elmrtdl86ovio"><g style="opacity: 0.3; transform-origin: 254.415px 122.828px;" class="animable" id="elhdv9mefg8xt"><path d="M301.91,111.1l-68-19.38a77.2,77.2,0,0,1,10.24-6.9l58.38,16.64A48.88,48.88,0,0,1,301.91,111.1Z" style="fill: rgb(235, 235, 235); transform-origin: 268.235px 97.96px;" id="eloz1urea759" class="animable"></path><path d="M300.14,89,261.32,78c12.24-3,24.32-2,33.85,3.89a28.53,28.53,0,0,1,2.42,1.65A32.21,32.21,0,0,1,300.14,89Z" style="fill: rgb(235, 235, 235); transform-origin: 280.73px 82.6784px;" id="el4fjx1akkbh4" class="animable"></path><path d="M300.31,118.33l-73-20.8c1.33-1.3,2.69-2.56,4.07-3.74l70.07,20C301.13,115.27,300.76,116.79,300.31,118.33Z" style="fill: rgb(235, 235, 235); transform-origin: 264.38px 106.06px;" id="eleix96da6848" class="animable"></path><path d="M256.11,166.61a62.37,62.37,0,0,1-7.82,2.69l-40.56-11.56a36,36,0,0,1-1.39-5.31Z" style="fill: rgb(235, 235, 235); transform-origin: 231.225px 160.865px;" id="elkt66ngbcz1" class="animable"></path><path d="M274.39,155.79l-68.12-19.41a62.34,62.34,0,0,1,6.17-18.61l77.21,22c-.61.84-1.24,1.69-1.89,2.53A80.25,80.25,0,0,1,274.39,155.79Z" style="fill: rgb(235, 235, 235); transform-origin: 247.96px 136.78px;" id="ele0bj0uu6yol" class="animable"></path></g></g></g><g id="freepik--Plant--inject-2" class="animable animator-hidden" style="transform-origin: 425.18px 404.345px;"><path d="M427,364.83s14.75-2.07,11.3-19.87C438.27,345,421.79,348.66,427,364.83Z" style="fill: #454E5D; transform-origin: 432.402px 354.895px;" id="elxrrv98zn9w" class="animable"></path><g id="elt7hsyznx74b"><path d="M427,364.83s14.75-2.07,11.3-19.87C438.27,345,421.79,348.66,427,364.83Z" style="opacity: 0.1; transform-origin: 432.402px 354.895px;" class="animable" id="el5uavsnhiv9u"></path></g><path d="M427.71,361.11a28.3,28.3,0,0,1,1-2.65c0-.11,0-.23,0-.34l.06-.73c0-.53.07-1.07.1-1.6.07-1.06.13-2.13.15-3.19a0,0,0,0,1,.09,0c0,1.07,0,2.13,0,3.2,0,.53-.05,1.06-.08,1.59l0,.36a32.34,32.34,0,0,1,3-5.06c.51-.71,1-1.39,1.61-2.05s1.21-1.31,1.81-2c0,0,.1,0,.06.07a25.57,25.57,0,0,0-2.84,3.78c-.45.68-.87,1.37-1.28,2.08l.14,0c.17-.07.35-.15.53-.21l1.2-.46,2.37-.88c.05,0,.08.06,0,.08-.78.31-1.56.64-2.33,1l-1.14.49-.58.24a1.79,1.79,0,0,1-.39.13c-.3.54-.59,1.07-.86,1.62a38.73,38.73,0,0,0-1.81,4.25l-.1.31a8.44,8.44,0,0,1,1.21-.59l1.52-.69c1-.48,2.07-1,3.06-1.52.05,0,.09,0,0,.08-1,.55-2,1.14-3,1.69-.51.28-1,.55-1.54.8a4.75,4.75,0,0,1-1.39.55,17.7,17.7,0,0,0-1,4.19c-.17,2-.15,4-.19,6.06a0,0,0,0,1-.06,0c-.15-1.83-.23-3.68-.24-5.52A16.31,16.31,0,0,1,427.71,361.11Z" style="fill: rgb(38, 50, 56); transform-origin: 431.235px 360.175px;" id="elyfquge4khve" class="animable"></path><path d="M430,350.64a17.39,17.39,0,0,1,.15,3.14,0,0,0,1,1,0,0c-.06-1-.07-2.08-.19-3.12C429.89,350.61,430,350.58,430,350.64Z" style="fill: rgb(38, 50, 56); transform-origin: 430.051px 352.193px;" id="elmjqqkqwpvx" class="animable"></path><path d="M434.2,351.53a10.45,10.45,0,0,0,1.9-.93s.09,0,0,.08a7.14,7.14,0,0,1-1.91.91A0,0,0,0,1,434.2,351.53Z" style="fill: rgb(38, 50, 56); transform-origin: 435.165px 351.095px;" id="eldhbag5eb1go" class="animable"></path><path d="M426.5,393.1c0-1.63,0-3.26.06-4.89,0-5.41.07-10.83.17-16.24q.12-6.45.3-12.89s0,0,0-.06c0-1.17,0-2.34,0-3.52,0,0,0,0,.07,0s.07,0,.07.05c0,1.17,0,2.35,0,3.52,0,0,0,0,0,.05.22,7.65.41,15.3.46,22.95,0,1.56,0,3.11,0,4.67q.09,7.47.06,15c0,.79,0,1.59,0,2.38,0,4.57-.05,9.13-.05,13.69,0,.25-.27.37-.56.38s-.69-.12-.69-.4c0-5,0-10.06,0-15.09C426.49,399.44,426.47,396.27,426.5,393.1Z" style="fill: rgb(38, 50, 56); transform-origin: 427.044px 386.845px;" id="elk1fpxknb9o" class="animable"></path><path d="M432.66,388.15s7.09-5.26,13.83-1.71,7.79,17.25,7.79,17.25-9.89,1.41-16.12-4.52C432.16,393.46,432.66,388.15,432.66,388.15Z" style="fill: #454E5D; transform-origin: 443.465px 394.523px;" id="elgih7ib2niwv" class="animable"></path><path d="M430.72,388.47a8.46,8.46,0,0,1,4.11-.53,5.24,5.24,0,0,1,.87-.09l1-.07,2.07-.15c1.4-.11,2.81-.19,4.2-.33,0,0,.06.08,0,.09-1.38.17-2.76.37-4.14.51-.72.07-1.43.15-2.15.2l-.51,0,.63.15a17.17,17.17,0,0,1,3.21,1.31c.56.1,1.11.26,1.66.39.88.2,1.76.43,2.63.66,1.72.45,3.43,1,5.13,1.46.06,0,0,.1,0,.08-1.71-.42-3.43-.8-5.14-1.21-.83-.2-1.66-.39-2.49-.6l-.66-.15a21,21,0,0,1,5.05,4.39,27.4,27.4,0,0,1,3.5,5.52c0,.06,0,.1-.07.05a26.54,26.54,0,0,0-4.25-5.56c0,.09.07.19.1.28l.39,1.25c.26.84.53,1.67.78,2.51,0,.06-.07.08-.09,0-.3-.81-.58-1.62-.87-2.43l-.42-1.2-.21-.63c0-.06-.05-.12-.07-.19a25.35,25.35,0,0,0-2.51-2.14,19.57,19.57,0,0,0-3.77-2.16c0,.12.05.25.07.36l.21,1c.14.68.27,1.35.4,2,.27,1.38.43,2.77.69,4.14a0,0,0,1,1-.09,0c-.32-1.38-.73-2.74-1-4.12-.16-.69-.31-1.39-.46-2.08-.06-.32-.13-.65-.19-1a5.3,5.3,0,0,1-.1-.55l-.39-.16a11.18,11.18,0,0,0-5.9-.8,5.76,5.76,0,0,0-4.27,3.42.15.15,0,0,1-.27-.1A5.46,5.46,0,0,1,430.72,388.47Z" style="fill: rgb(38, 50, 56); transform-origin: 438.545px 393.736px;" id="el975gru10p7s" class="animable"></path><path d="M441.58,394.32c.21.9.4,1.8.6,2.7a19.23,19.23,0,0,1,.5,2.62s-.05,0-.06,0A19.92,19.92,0,0,1,442,397c-.18-.88-.35-1.77-.52-2.66C441.49,394.28,441.57,394.26,441.58,394.32Z" style="fill: rgb(38, 50, 56); transform-origin: 442.08px 396.962px;" id="eldm45aqj81n" class="animable"></path><path d="M448.45,396.6c.9.46,1.78,1,2.72,1.36.06,0,0,.11,0,.08a26.51,26.51,0,0,1-2.7-1.4S448.42,396.59,448.45,396.6Z" style="fill: rgb(38, 50, 56); transform-origin: 449.819px 397.322px;" id="elytmi1cnj7lk" class="animable"></path><path d="M431.06,378.49s8.67.56,12.71-5.16,3.13-13.88,3.13-13.88-9.11,1.1-12.73,5.21S431.06,378.49,431.06,378.49Z" style="fill: #454E5D; transform-origin: 439.012px 368.977px;" id="el8518lxpk7xx" class="animable"></path><path d="M427,387.05c.3-.93.67-1.84,1-2.76s.69-1.74,1.07-2.59a53.29,53.29,0,0,1,2.6-5.11c.61-1.06,1.27-2.08,1.95-3.09,0-.15,0-.3.06-.46l.12-.8c.09-.55.19-1.1.28-1.65.2-1.2.44-2.38.64-3.58a0,0,0,0,1,.09,0c-.18,1.18-.3,2.37-.46,3.56-.09.58-.16,1.16-.25,1.74,0,.21-.07.42-.1.63a62.32,62.32,0,0,1,4.29-5.56l.63-.71a1.67,1.67,0,0,0,.08-.2c.07-.17.13-.33.19-.5.13-.34.25-.69.38-1,.24-.68.46-1.37.64-2.06a0,0,0,0,1,.09,0c-.17.71-.36,1.43-.57,2.13-.1.34-.21.67-.33,1l-.06.16c1.11-1.2,2.26-2.37,3.43-3.52,0,0,.1,0,.06.07a62.37,62.37,0,0,0-6.14,7.52,5,5,0,0,1,.64-.16c.67-.13,1.34-.23,2-.31,1.41-.18,2.82-.36,4.22-.58.06,0,.08.08,0,.09-1.35.26-2.68.56-4,.87-.63.15-1.26.27-1.9.39a12.66,12.66,0,0,0-1.52.44c-.14.2-.29.4-.42.6-.64.92-1.25,1.87-1.85,2.82l.89-.17c.66-.13,1.34-.25,2-.36,1.32-.22,2.65-.45,3.95-.75.06,0,.08.08,0,.09-1.33.31-2.64.67-4,1-.64.17-1.28.33-1.92.47l-1,.21a2,2,0,0,1-.39.06q-1.9,3.09-3.56,6.31c-.48.94-.95,1.89-1.4,2.85s-.86,2-1.29,3C427.24,387.35,426.92,387.27,427,387.05Z" style="fill: rgb(38, 50, 56); transform-origin: 435.295px 374.971px;" id="elfjrm2gb4o0i" class="animable"></path><path d="M435.87,367.12c.16-.83.34-1.65.52-2.47,0-.06.1,0,.09,0-.17.81-.32,1.63-.47,2.44s-.26,1.64-.49,2.43c0,0,0,0,0,0A16.68,16.68,0,0,1,435.87,367.12Z" style="fill: rgb(38, 50, 56); transform-origin: 436px 367.072px;" id="el4udvbsimrzs" class="animable"></path><path d="M440.93,366.88c.4-.2.82-.36,1.24-.53l.66-.25.33-.14a1.22,1.22,0,0,0,.37-.16c.07-.05.11.07,0,.08a1.69,1.69,0,0,0-.37.15l-.33.15-.63.28A11.76,11.76,0,0,1,441,367S440.88,366.9,440.93,366.88Z" style="fill: rgb(38, 50, 56); transform-origin: 442.258px 366.394px;" id="elwouoaq6sh3" class="animable"></path><path d="M422.19,371.68s-5.25-9.81-13.24-11.33-12.87,6.7-12.87,6.7,5.83,7.44,13.15,8.74S422.19,371.68,422.19,371.68Z" style="fill: #454E5D; transform-origin: 409.135px 368.077px;" id="ele7gon9s5m1" class="animable"></path><path d="M403.6,364.75a21.53,21.53,0,0,1,6.26.07l-.35-.19-1.77-.91c-1.23-.64-2.47-1.32-3.75-1.83a0,0,0,1,1,0-.08c1.24.58,2.54,1.07,3.79,1.64.63.29,1.24.59,1.85.91.4.21.83.41,1.22.66a22,22,0,0,1,5.08,1.69l-1-1.09c-.75-.82-1.48-1.67-2.3-2.41,0,0,0-.1.07-.07.84.76,1.72,1.47,2.53,2.25.39.39.77.78,1.13,1.19q.28.32.54.63a21.46,21.46,0,0,1,8.38,8.18,21.71,21.71,0,0,1,2.33,6.28c0,.05-.07.08-.09,0a24.07,24.07,0,0,0-5.87-9.94,23,23,0,0,0-18.08-6.85A.08.08,0,0,1,403.6,364.75Z" style="fill: rgb(38, 50, 56); transform-origin: 415.579px 371.765px;" id="eld0rlzgkx5mi" class="animable"></path><g id="eltxiaea2k4pf"><path d="M396.08,367.05s5.83,7.44,13.16,8.74c5.58,1,10.18-1.93,12.05-3.36l.4-.66a29.49,29.49,0,0,0-10.93-5C403.61,364.9,396.08,367.05,396.08,367.05Z" style="opacity: 0.1; transform-origin: 408.885px 371px;" class="animable" id="elsa9ud6spkkr"></path></g><path d="M408.24,361.25a19.35,19.35,0,0,1,1.77,1.17,10.88,10.88,0,0,1,1.54,1.41c0,.05,0,.11-.06.07-.54-.46-1.07-.92-1.62-1.36a16.63,16.63,0,0,0-1.68-1.21C408.14,361.3,408.19,361.22,408.24,361.25Z" style="fill: rgb(38, 50, 56); transform-origin: 409.86px 362.578px;" id="eljqtt883wrsd" class="animable"></path><path d="M403.86,362.91c.29.13.6.23.89.36l.89.36c.06,0,0,.13,0,.11l-.89-.36-.89-.38C403.78,363,403.81,362.89,403.86,362.91Z" style="fill: rgb(38, 50, 56); transform-origin: 404.739px 363.325px;" id="elh1h3ycgqvec" class="animable"></path><path d="M423.23,384s-1.4,9.73-8.71,13.13-16.23,0-16.23,0S401.8,376.1,423.23,384Z" style="fill: #454E5D; transform-origin: 410.76px 390.433px;" id="elgye9bvhx1m" class="animable"></path><path d="M403.33,390.81c.67-.07,1.35-.19,2-.31l1-.19.51-.1.59-.55a30.1,30.1,0,0,1,4.47-3.24,27.11,27.11,0,0,1,2.68-1.38h-.13l-2.41.1c-1.61.08-3.21.11-4.81.22a0,0,0,1,1,0-.09c1.61-.11,3.21-.29,4.82-.43l2.34-.2,1.2-.11.31,0c.42-.16.84-.31,1.26-.44a11.44,11.44,0,0,1,6.19-.34,5.44,5.44,0,0,1,4.16,3.62c0,.06-.09.11-.12,0-.69-1.62-2.49-2.43-4.11-2.77a9.94,9.94,0,0,0-3.31-.07,7.72,7.72,0,0,1-.37,1.47c-.2.69-.4,1.37-.61,2.06-.41,1.36-.87,2.72-1.27,4.08a0,0,0,0,1-.09,0c.34-1.37.63-2.74.95-4.11.17-.67.34-1.34.5-2a13.06,13.06,0,0,1,.37-1.39c-.64.12-1.28.27-1.9.45a26.86,26.86,0,0,0-3.31,1.22c-.11.69-.26,1.38-.42,2.06-.2.86-.43,1.71-.7,2.55,0,0-.09,0-.08,0l0-.16h0c.16-.79.33-1.59.5-2.38.14-.64.26-1.28.4-1.92a26.55,26.55,0,0,0-2.66,1.35c0,.19-.07.4-.1.58s-.11.66-.17,1c-.14.75-.29,1.49-.47,2.24a34.65,34.65,0,0,1-1.26,4.22s0,0,0,.06l0,.05s-.08,0-.07-.05c.33-1.44.72-2.87,1-4.31.15-.73.31-1.45.46-2.17l.21-1.09c0-.1,0-.21.05-.33a32.81,32.81,0,0,0-2.85,1.9,31.64,31.64,0,0,0-4.36,4c-.05.06-.15,0-.11-.09.56-.73,1.12-1.44,1.75-2.12.36-.4.75-.78,1.14-1.15l-.13,0-1,.16c-.67.09-1.35.15-2,.23C403.3,390.91,403.27,390.82,403.33,390.81Z" style="fill: rgb(38, 50, 56); transform-origin: 415.404px 389.718px;" id="elaj6w7qz06n9" class="animable"></path><path d="M408.47,394.11h0a2.17,2.17,0,0,1,0-.25c0-.11.07-.21.09-.32h0c.15-.65.28-1.31.4-2,0,0,.08,0,.08,0a7.93,7.93,0,0,1-.56,2.54s-.06,0,0,0Z" style="fill: rgb(38, 50, 56); transform-origin: 408.747px 392.825px;" id="el06pjuejwx7nd" class="animable"></path><path d="M414.59,394a0,0,0,0,1,0,0c.21-.86.41-1.72.58-2.59.1-.45.19-.91.28-1.37.05-.24.09-.49.14-.73a2,2,0,0,1,.15-.64s.08,0,.08,0a3.86,3.86,0,0,1-.18,1.3c-.09.48-.18,1-.28,1.42-.22,1-.46,1.92-.73,2.86,0,.05-.1,0-.1,0S414.58,394,414.59,394Z" style="fill: rgb(38, 50, 56); transform-origin: 415.176px 391.471px;" id="el4ulxch2ntji" class="animable"></path><path d="M404,388c1.33-.18,2.67-.37,4-.54.05,0,.07.08,0,.09-1.34.2-2.67.36-4,.54C404,388.11,403.94,388,404,388Z" style="fill: rgb(38, 50, 56); transform-origin: 406.009px 387.776px;" id="elvomyyb1r6y8" class="animable"></path><path d="M427,361.21s4.47-19.63-16.62-27.58C410.36,333.63,404.52,359.47,427,361.21Z" style="fill: #454E5D; transform-origin: 418.54px 347.42px;" id="el6wd55mwxqwk" class="animable"></path><path d="M422.43,350.07l-.23-.13-1.19-.67-2.45-1.37c-1.61-.9-3.2-1.84-4.82-2.72-.05,0,0-.1.05-.07,1.62.88,3.28,1.71,4.91,2.57l2.42,1.28c.33.17.66.34,1,.52a44.61,44.61,0,0,0-2.28-3.9c-1.1-1.68-2.31-3.29-3.56-4.85-.06-.08,0-.17.1-.1a33.47,33.47,0,0,1,4.88,6,1.48,1.48,0,0,1,0-.21c0-.49,0-1,0-1.46,0-1,0-1.92,0-2.88,0-.06.09-.05.09,0,0,.95.15,1.89.21,2.83l.06,1.41c0,.26,0,.55,0,.82.43.7.85,1.4,1.25,2.11a35.79,35.79,0,0,1,1.88,3.95c0-.49.05-1,.08-1.47.06-1.07.19-2.14.24-3.22,0-.05.09-.05.09,0,0,1.07,0,2.15,0,3.22,0,.54,0,1.08-.07,1.61l0,.6a35.84,35.84,0,0,1,1.59,5.4,58.65,58.65,0,0,1,.79,5.93s0,0,0,0a30.82,30.82,0,0,0-1.12-5.28c-.26-.93-.53-1.85-.83-2.76-.88-.42-1.72-.93-2.56-1.4l-2.65-1.45c-1.76-1-3.52-1.95-5.33-2.8-.06,0,0-.1,0-.08,1.84.84,3.7,1.63,5.5,2.53.9.46,1.79.94,2.66,1.43s1.49.83,2.19,1.3c-.21-.61-.42-1.22-.66-1.82Q423.63,352.44,422.43,350.07Z" style="fill: rgb(38, 50, 56); transform-origin: 420.595px 352.937px;" id="eldwg3xlhu3z" class="animable"></path><path d="M424.2,345.59c0-.06.1-.06.09,0-.07,1.12-.11,2.24-.23,3.35a.05.05,0,1,1-.1,0C424,347.82,424.12,346.7,424.2,345.59Z" style="fill: rgb(38, 50, 56); transform-origin: 424.125px 347.267px;" id="el5f31kfgxafm" class="animable"></path><path d="M414.09,349.33c1.32.54,2.65,1,4,1.59,0,0,0,.08,0,.06-1.33-.5-2.65-1-4-1.56C414,349.4,414,349.31,414.09,349.33Z" style="fill: rgb(38, 50, 56); transform-origin: 416.056px 350.155px;" id="el10nq157nlxa" class="animable"></path><path d="M412.09,340.28a35.53,35.53,0,0,1,3.75,2c.06,0,0,.13-.06.1-1.22-.72-2.47-1.4-3.74-2C412,340.33,412,340.26,412.09,340.28Z" style="fill: rgb(38, 50, 56); transform-origin: 413.94px 341.33px;" id="elggo3t15mw75" class="animable"></path><g id="el88sezloeh09"><rect x="412.41" y="403.66" width="30.42" height="32.06" style="fill: rgb(69, 90, 100); transform-origin: 427.62px 419.69px; transform: rotate(180deg);" class="animable" id="el5q0rnk10vei"></rect></g><rect x="443.36" y="415" width="1.56" height="60.06" style="fill: rgb(38, 50, 56); transform-origin: 444.14px 445.03px;" id="el8wjts143qfi" class="animable"></rect><rect x="410.48" y="415" width="1.56" height="60.06" style="fill: rgb(38, 50, 56); transform-origin: 411.26px 445.03px;" id="elbnt5abrfsal" class="animable"></rect><rect x="426.09" y="415" width="1.56" height="60.06" style="fill: rgb(38, 50, 56); transform-origin: 426.87px 445.03px;" id="ellokq5as9ln" class="animable"></rect><g id="eledmj95ses3r"><rect x="411.26" y="433.66" width="32.88" height="4.44" style="fill: rgb(38, 50, 56); transform-origin: 427.7px 435.88px; transform: rotate(180deg);" class="animable" id="elpfnqwmxket"></rect></g></g><defs>     <filter id="active" height="200%">         <feMorphology in="SourceAlpha" result="DILATED" operator="dilate" radius="2"></feMorphology>                <feFlood flood-color="#32DFEC" flood-opacity="1" result="PINK"></feFlood>        <feComposite in="PINK" in2="DILATED" operator="in" result="OUTLINE"></feComposite>        <feMerge>            <feMergeNode in="OUTLINE"></feMergeNode>            <feMergeNode in="SourceGraphic"></feMergeNode>        </feMerge>    </filter>    <filter id="hover" height="200%">        <feMorphology in="SourceAlpha" result="DILATED" operator="dilate" radius="2"></feMorphology>                <feFlood flood-color="#ff0000" flood-opacity="0.5" result="PINK"></feFlood>        <feComposite in="PINK" in2="DILATED" operator="in" result="OUTLINE"></feComposite>        <feMerge>            <feMergeNode in="OUTLINE"></feMergeNode>            <feMergeNode in="SourceGraphic"></feMergeNode>        </feMerge>            <feColorMatrix type="matrix" values="0   0   0   0   0                0   1   0   0   0                0   0   0   0   0                0   0   0   1   0 "></feColorMatrix>    </filter></defs></svg>