<svg class="animated" id="freepik_stories-scrum-method" xmlns="http://www.w3.org/2000/svg" viewBox="0 0 750 500" version="1.1" xmlns:xlink="http://www.w3.org/1999/xlink" xmlns:svgjs="http://svgjs.com/svgjs"><style>svg#freepik_stories-scrum-method:not(.animated) .animable {opacity: 0;}svg#freepik_stories-scrum-method.animated #freepik--background-complete--inject-12 {animation: 1s 1 forwards cubic-bezier(.36,-0.01,.5,1.38) slideUp;animation-delay: 0s;}svg#freepik_stories-scrum-method.animated #freepik--Floor--inject-12 {animation: 1.8s 1 forwards cubic-bezier(.36,-0.01,.5,1.38) fadeIn;animation-delay: 0.4s;opacity: 0}svg#freepik_stories-scrum-method.animated #freepik--Hourglass--inject-12 {animation: 1s 1 forwards cubic-bezier(.36,-0.01,.5,1.38) slideUp;animation-delay: 0s;}svg#freepik_stories-scrum-method.animated #freepik--Arrows--inject-12 {animation: 1s 1 forwards cubic-bezier(.36,-0.01,.5,1.38) slideRight;animation-delay: 0.1s;opacity: 0}svg#freepik_stories-scrum-method.animated #freepik--character-3--inject-12 {animation: 1s 1 forwards cubic-bezier(.36,-0.01,.5,1.38) slideRight;animation-delay: 0.5s;opacity: 0}svg#freepik_stories-scrum-method.animated #freepik--character-2--inject-12 {animation: 1s 1 forwards cubic-bezier(.36,-0.01,.5,1.38) slideRight;animation-delay: 0.3s;opacity: 0}svg#freepik_stories-scrum-method.animated #freepik--character-1--inject-12 {animation: 1s 1 forwards cubic-bezier(.36,-0.01,.5,1.38) slideRight;animation-delay: 0s;}svg#freepik_stories-scrum-method.animated #freepik--speech-bubble--inject-12 {animation: 1s 1 forwards cubic-bezier(.36,-0.01,.5,1.38) slideDown,1.5s Infinite  linear floating;animation-delay: 0.9s,1.9s;opacity: 0}            @keyframes slideUp {                0% {                    opacity: 0;                    transform: translateY(30px);                }                100% {                    opacity: 1;                    transform: inherit;                }            }                    @keyframes fadeIn {                0% {                    opacity: 0;                }                100% {                    opacity: 1;                }            }                    @keyframes slideRight {                0% {                    opacity: 0;                    transform: translateX(30px);                }                100% {                    opacity: 1;                    transform: translateX(0);                }            }                    @keyframes slideDown {                0% {                    opacity: 0;                    transform: translateY(-30px);                }                100% {                    opacity: 1;                    transform: translateY(0);                }            }                    @keyframes floating {                0% {                    opacity: 1;                    transform: translateY(0px);                }                50% {                    transform: translateY(-10px);                }                100% {                    opacity: 1;                    transform: translateY(0px);                }            }        </style><g id="freepik--background-complete--inject-12" class="animable" style="transform-origin: 368.581px 217.842px;"><g id="elz2q4w8i5ncn"><path d="M591.85,313.33a4.8,4.8,0,0,1-4.82-1.49c-.33-.36-.67-.72-1-1.07s-.72-.7-1.09-1a4.79,4.79,0,0,1-1.49-4.8l1.61-6-19.51-5.23-1.61,6a4.79,4.79,0,0,1-3.68,3.43,29.75,29.75,0,0,0-2.91.78,4.79,4.79,0,0,1-4.89-1.14l-4.38-4.38-14.29,14.29,4.38,4.38a4.8,4.8,0,0,1,1.14,4.89,29.75,29.75,0,0,0-.78,2.91,4.77,4.77,0,0,1-3.43,3.68l-6,1.61,5.24,19.51,6-1.61a4.77,4.77,0,0,1,4.79,1.49l1,1.08q.52.53,1.08,1a4.81,4.81,0,0,1,1.49,4.81l-1.62,6,19.51,5.23,1.6-6a4.79,4.79,0,0,1,3.68-3.44,29.2,29.2,0,0,0,2.92-.78,4.77,4.77,0,0,1,4.9,1.14l4.37,4.37,14.29-14.29L594,344.34a4.8,4.8,0,0,1-1.14-4.9,29.94,29.94,0,0,0,.78-2.92,4.79,4.79,0,0,1,3.44-3.68l6-1.6-5.23-19.51ZM577.79,342.4a16.55,16.55,0,1,1,0-23.41A16.56,16.56,0,0,1,577.79,342.4Z" style="fill: rgb(235, 235, 235); opacity: 0.5; transform-origin: 566.09px 330.72px;" class="animable"></path></g><g id="el5r8f2487on"><path d="M272.64,67.25a4.81,4.81,0,0,1-4.81-1.49c-.33-.37-.68-.73-1-1.08s-.71-.7-1.08-1a4.8,4.8,0,0,1-1.49-4.8l1.61-6-19.51-5.24-1.61,6A4.8,4.8,0,0,1,241,57.05a26.34,26.34,0,0,0-2.9.77,4.81,4.81,0,0,1-4.9-1.14l-4.37-4.37L214.57,66.6,218.94,71a4.78,4.78,0,0,1,1.15,4.89,29.75,29.75,0,0,0-.78,2.91,4.8,4.8,0,0,1-3.43,3.69l-6,1.61,5.23,19.51,6-1.61a4.79,4.79,0,0,1,4.79,1.48c.33.37.67.73,1,1.08s.71.69,1.07,1a4.78,4.78,0,0,1,1.49,4.82l-1.61,6,19.51,5.24,1.6-6a4.8,4.8,0,0,1,3.68-3.44,29.94,29.94,0,0,0,2.92-.78,4.82,4.82,0,0,1,4.9,1.14l4.37,4.37,14.29-14.29-4.38-4.37a4.81,4.81,0,0,1-1.14-4.9,26.77,26.77,0,0,0,.79-2.92,4.79,4.79,0,0,1,3.43-3.68l6-1.6-5.24-19.51ZM258.59,96.31a16.55,16.55,0,1,1,0-23.4A16.57,16.57,0,0,1,258.59,96.31Z" style="fill: rgb(235, 235, 235); opacity: 0.5; transform-origin: 246.85px 84.63px;" class="animable"></path></g><g id="elwbztk9fthz"><path d="M97.15,260.13a2.17,2.17,0,0,1-1.07-2c0-.22,0-.45,0-.67s0-.46,0-.68a2.18,2.18,0,0,1,1.06-2l2.44-1.41L95,245.4l-2.44,1.4a2.18,2.18,0,0,1-2.28-.08A11.61,11.61,0,0,0,89.1,246a2.19,2.19,0,0,1-1.21-1.94v-2.81H78.72v2.81a2.19,2.19,0,0,1-1.2,1.94,10.62,10.62,0,0,0-1.18.68,2.2,2.2,0,0,1-2.29.08l-2.43-1.4L67,253.33l2.44,1.42a2.14,2.14,0,0,1,1.06,2c0,.23,0,.45,0,.68s0,.45,0,.67a2.16,2.16,0,0,1-1.06,2L67,261.54l4.58,7.94,2.43-1.41a2.18,2.18,0,0,1,2.28.08,12.71,12.71,0,0,0,1.19.69,2.17,2.17,0,0,1,1.2,1.93v2.81h9.17v-2.81a2.16,2.16,0,0,1,1.21-1.93,12.55,12.55,0,0,0,1.18-.69,2.2,2.2,0,0,1,2.29-.08L95,269.48l4.58-7.94ZM83.31,265a7.51,7.51,0,1,1,7.51-7.51A7.52,7.52,0,0,1,83.31,265Z" style="fill: rgb(235, 235, 235); opacity: 0.5; transform-origin: 83.29px 257.415px;" class="animable"></path></g><g id="el3vprhyu3ukm"><path d="M531,157.82a2.18,2.18,0,0,1-1.07-2c0-.22,0-.45,0-.67s0-.46,0-.68a2.17,2.17,0,0,1,1.07-2l2.43-1.41-4.58-7.94-2.43,1.41a2.2,2.2,0,0,1-2.29-.08,12.55,12.55,0,0,0-1.18-.69,2.17,2.17,0,0,1-1.2-1.93V139h-9.17v2.81a2.16,2.16,0,0,1-1.21,1.93c-.4.21-.8.44-1.18.69a2.18,2.18,0,0,1-2.28.08l-2.44-1.41L500.88,151l2.45,1.42a2.17,2.17,0,0,1,1.06,2c0,.22,0,.45,0,.68s0,.45,0,.67a2.18,2.18,0,0,1-1.07,2l-2.44,1.41,4.58,7.94,2.43-1.41a2.2,2.2,0,0,1,2.29.08,12.55,12.55,0,0,0,1.18.69,2.16,2.16,0,0,1,1.21,1.93v2.81h9.17v-2.81a2.17,2.17,0,0,1,1.2-1.93,12.71,12.71,0,0,0,1.19-.69,2.18,2.18,0,0,1,2.28-.08l2.43,1.41,4.58-7.94Zm-13.83,4.82a7.51,7.51,0,1,1,7.5-7.51A7.52,7.52,0,0,1,517.16,162.64Z" style="fill: rgb(235, 235, 235); opacity: 0.5; transform-origin: 517.155px 155.11px;" class="animable"></path></g><path d="M680.53,391.51a2.18,2.18,0,0,1-1.07-2c0-.23,0-.45,0-.68s0-.45,0-.68a2.16,2.16,0,0,1,1.07-2l2.43-1.41-4.58-7.94L676,378.18a2.2,2.2,0,0,1-2.29-.08,12.55,12.55,0,0,0-1.18-.69,2.17,2.17,0,0,1-1.2-1.93v-2.81h-9.17v2.81a2.16,2.16,0,0,1-1.21,1.93c-.4.21-.8.44-1.18.69a2.18,2.18,0,0,1-2.28.08L655,376.77l-4.58,7.94,2.45,1.41a2.2,2.2,0,0,1,1.06,2c0,.22,0,.45,0,.67s0,.45,0,.68a2.18,2.18,0,0,1-1.07,2l-2.44,1.4,4.58,7.94,2.43-1.4a2.2,2.2,0,0,1,2.29.08,12.47,12.47,0,0,0,1.18.68,2.19,2.19,0,0,1,1.21,1.94V405h9.17v-2.81a2.19,2.19,0,0,1,1.2-1.94,12.63,12.63,0,0,0,1.19-.68,2.18,2.18,0,0,1,2.28-.08l2.43,1.4,4.58-7.94Zm-13.83,4.81a7.51,7.51,0,1,1,7.5-7.51A7.52,7.52,0,0,1,666.7,396.32Z" style="fill: rgb(235, 235, 235); transform-origin: 666.69px 388.835px;" id="el2z54a5dvg03" class="animable"></path><g id="el0hph36q6tjxg"><ellipse cx="117.98" cy="99.6" rx="53.52" ry="54.35" style="fill: rgb(235, 235, 235); transform-origin: 117.98px 99.6px; transform: rotate(-19.18deg);" class="animable"></ellipse></g><g id="el58mzozff8xy"><ellipse cx="117.98" cy="99.6" rx="41.75" ry="42.4" style="fill: rgb(255, 255, 255); transform-origin: 117.98px 99.6px; transform: rotate(-19.18deg);" class="animable"></ellipse></g><path d="M87.84,99.1a30.69,30.69,0,0,0,30,31,30,30,0,0,0,30.34-30,30.71,30.71,0,0,0-29.95-31A30,30,0,0,0,87.84,99.1Z" style="fill: rgb(235, 235, 235); transform-origin: 118.01px 99.5997px;" id="elo4x87yufgh" class="animable"></path><path d="M99.63,99.3a18.68,18.68,0,0,0,18.23,18.87A18.25,18.25,0,0,0,136.34,99.9,18.69,18.69,0,0,0,118.11,81,18.26,18.26,0,0,0,99.63,99.3Z" style="fill: rgb(255, 255, 255); transform-origin: 117.985px 99.5851px;" id="eljrirnh7sph" class="animable"></path><path d="M109.81,99.46a8.33,8.33,0,0,0,8.12,8.41,8.13,8.13,0,0,0,8.23-8.14,8.32,8.32,0,0,0-8.12-8.4A8.13,8.13,0,0,0,109.81,99.46Z" style="fill: rgb(235, 235, 235); transform-origin: 117.985px 99.6px;" id="elbre7fdlw0xr" class="animable"></path><polygon points="118.41 99.78 174.54 70.26 174.11 69.44 117.98 98.96 118.41 99.78" style="fill: rgb(235, 235, 235); transform-origin: 146.26px 84.61px;" id="eld60so8i1nkt" class="animable"></polygon><polygon points="177.85 71.7 177.65 71.62 174.05 70.51 181.15 66.8 184.99 67.97 177.85 71.7" style="fill: rgb(235, 235, 235); transform-origin: 179.52px 69.25px;" id="ell7zg13y814" class="animable"></polygon><path d="M182,62.25,180.72,66l-7.09,3.71A17.62,17.62,0,0,0,174.89,66Z" style="fill: rgb(235, 235, 235); transform-origin: 177.815px 65.98px;" id="el1azy1bbx0hm" class="animable"></path><polygon points="116.27 98.69 117.75 101.34 121.69 101.01 119.1 98.89 118.84 95.56 116.27 98.69" style="fill: rgb(235, 235, 235); transform-origin: 118.98px 98.45px;" id="elnlj6bswf2xn" class="animable"></polygon><path d="M419.67,238.44a31.36,31.36,0,0,1-9.24,3.74,31.9,31.9,0,1,1,9.24-3.74Z" style="fill: rgb(235, 235, 235); transform-origin: 403.228px 211.104px;" id="ele28k0zsjklp" class="animable"></path><path d="M413,207.58a9.71,9.71,0,1,1-9.59-9.82A9.71,9.71,0,0,1,413,207.58Z" style="fill: rgb(255, 255, 255); transform-origin: 403.291px 207.469px;" id="elkgnsrx309v" class="animable"></path><path d="M419.72,234.44l-.05,4a31.36,31.36,0,0,1-9.24,3.74A31.74,31.74,0,0,1,386.12,238l.05-4a16.78,16.78,0,1,1,33.55.4Z" style="fill: rgb(255, 255, 255); transform-origin: 402.925px 230.035px;" id="elaf8obu6uxlp" class="animable"></path><path d="M145.45,381.12A20.89,20.89,0,1,1,155,358.5,20.72,20.72,0,0,1,145.45,381.12Z" style="fill: rgb(235, 235, 235); transform-origin: 134.666px 363.236px;" id="elre6e4q2y85" class="animable"></path><path d="M141.07,360.9a6.36,6.36,0,1,1-6.29-6.43A6.37,6.37,0,0,1,141.07,360.9Z" style="fill: rgb(255, 255, 255); transform-origin: 134.71px 360.83px;" id="elf39nboowcll" class="animable"></path><path d="M145.49,378.49l0,2.63a20.88,20.88,0,0,1-22-.27l0-2.62a11,11,0,0,1,22,.26Z" style="fill: rgb(255, 255, 255); transform-origin: 134.49px 375.739px;" id="elviyyrhx855n" class="animable"></path><path d="M677.46,157.62a20.29,20.29,0,0,1-6.05,2.45,20.9,20.9,0,1,1,6.05-2.45Z" style="fill: rgb(235, 235, 235); transform-origin: 666.687px 139.711px;" id="eld5ye5u6to5n" class="animable"></path><path d="M673.07,137.41a6.36,6.36,0,1,1-6.28-6.44A6.36,6.36,0,0,1,673.07,137.41Z" style="fill: rgb(255, 255, 255); transform-origin: 666.711px 137.329px;" id="elbrioutbug7k" class="animable"></path><path d="M677.49,155l0,2.62a20.29,20.29,0,0,1-6.05,2.45,20.75,20.75,0,0,1-15.92-2.72l0-2.61a11,11,0,1,1,22,.26Z" style="fill: rgb(255, 255, 255); transform-origin: 666.521px 152.237px;" id="elgd3l058ytnv" class="animable"></path></g><g id="freepik--Floor--inject-12" class="animable" style="transform-origin: 375px 469.002px;"><path d="M57.11,469c203.66-.61,432.12-.61,635.78,0-203.66.62-432.12.61-635.78,0Z" style="fill: rgb(38, 50, 56); transform-origin: 375px 469.002px;" id="elbkr9ivx5cgi" class="animable"></path></g><g id="freepik--Hourglass--inject-12" class="animable" style="transform-origin: 288.225px 269.29px;"><g id="elaq7t13akjme"><g style="opacity: 0.4; transform-origin: 288.141px 269.25px;" class="animable"><path d="M337.73,317.34c4.21,15.14,3.3,39.7,3.3,39.7H235.42s-.93-24.56,3.28-39.7,42.14-35,45-42.36a16.16,16.16,0,0,0,0-11.38c-2.82-7.33-40.76-27.21-45-42.36s-3.29-39.7-3.29-39.7H341s.93,24.56-3.28,39.7-42.14,35-45,42.36a16.21,16.21,0,0,0,0,11.38C295.6,282.31,333.54,302.2,337.73,317.34Z" style="fill: rgb(235, 235, 235); transform-origin: 288.216px 269.29px;" id="elawu72zfqg07" class="animable"></path><path d="M337.73,317.34c3.3,12.93,3.53,26.43,3.33,39.7-.08.08-105.62.08-105.74.1-.21-13.49-.08-27.34,3.45-40.45,3.79-10.43,20-21.27,28.83-28,3.63-2.68,7.29-5.32,10.76-8.19,2-1.82,4.51-3.56,5.38-6.25a15.22,15.22,0,0,0-.66-11.37,25.22,25.22,0,0,0-4.72-4.74c-10.94-9.25-34.9-23.2-39.67-36.19a80,80,0,0,1-2.5-13.34,200.24,200.24,0,0,1-1-27.05v-.2c.31.12,105.85-.15,105.94.2.21,12.84-.05,25.87-3,38.44-2.48,12.22-25.18,26.33-35.09,34.07-1.47,1.11-2.93,2.22-4.36,3.38-2.07,1.76-4.36,3.47-5.75,5.86a16,16,0,0,0-.48,10.77c.76,2.7,3.18,4.46,5.18,6.26,2.82,2.36,5.78,4.54,8.74,6.73,9.33,7.16,27.84,19.16,31.31,30.29Zm0,0c-3.47-11.11-22-23.12-31.35-30.24-4.37-3.33-9.07-6.39-12.71-10.56-2.15-2.94-2.28-7.2-1.61-10.66a8.74,8.74,0,0,1,2.49-4.85A73.54,73.54,0,0,1,303,254c5.88-4.41,11.89-8.66,17.63-13.26,2.87-2.3,5.68-4.67,8.32-7.23,3.25-3.2,6.46-6.65,8.23-10.9,2-6.11,2.63-12.6,3.21-19,.7-7.48.45-15.26.62-21.92.11,0-106.49.31-105.41-.12a199.58,199.58,0,0,0,1,27,79.77,79.77,0,0,0,2.49,13.23,20.86,20.86,0,0,0,3.25,5.82c7,8.84,16.5,15.3,25.45,22,3.63,2.68,7.3,5.32,10.78,8.2,1.9,1.67,4,3.28,5.2,5.61a16.31,16.31,0,0,1,0,11.71c-1.16,2.32-3.3,3.92-5.2,5.59-10.51,8.5-22.15,15.64-31.81,25.16-3.12,3.17-6.25,6.62-7.75,10.87a79.31,79.31,0,0,0-2.5,13.26,201.31,201.31,0,0,0-1,27c-.73-.11,105.83-.09,105.48,0,.22-13.26,0-26.77-3.27-39.7Z" style="fill: rgb(38, 50, 56); transform-origin: 288.141px 269.25px;" id="eluba5luf3sxm" class="animable"></path></g></g><g id="el0z8zqg8xo3l"><g style="opacity: 0.4; transform-origin: 288.224px 269.266px;" class="animable"><path d="M243,316.76c-3.84,13.84-3,36.28-3,36.28h96.41s.84-22.44-3-36.28-39.79-32-42.37-38.71a23.88,23.88,0,0,1,0-17.52c2.58-6.7,38.54-24.87,42.37-38.71s3-36.28,3-36.28H240s-.85,22.44,3,36.28,39.8,32,42.38,38.71a22.74,22.74,0,0,1,0,17.52C282.83,284.75,246.87,302.92,243,316.76Z" style="fill: rgb(219, 219, 219); transform-origin: 288.204px 269.29px;" id="elxd9ed4ajygd" class="animable"></path><path d="M243,316.76c-3,11.82-3.19,24.16-3,36.28-.14,0,96.69-.13,96.32,0,.19-11.81,0-23.83-2.8-35.36a13,13,0,0,0-1.06-3c-1.95-3.85-5.07-7-8.21-9.87-9.57-8.75-21-15.13-30.84-23.56a14.74,14.74,0,0,1-2.16-2.44,15.2,15.2,0,0,1-1.13-3.06,24.19,24.19,0,0,1,.47-14.41,8.92,8.92,0,0,1,2.8-3.95c1.59-1.47,3.3-2.8,5-4.1,9.63-7.52,31.36-20.24,34.84-31.59,3-11.76,3.19-24,3-36.12.93.18-96.87.19-96.18,0-.24,10.63,0,21.37,2,31.85.61,3.51,1.58,6.95,3.84,9.79,4.34,5.64,10.05,10.05,15.68,14.33,7,5.4,14.7,10,21.38,15.92a9,9,0,0,1,2.92,4.39A22.54,22.54,0,0,1,287,272.35a26.76,26.76,0,0,1-1.55,5.79,6.5,6.5,0,0,1-1.13,1.66c-3,3.26-6.79,5.74-10.35,8.37-5.78,4.13-11.65,8.16-17.19,12.62a80.94,80.94,0,0,0-7.91,7.13c-2.41,2.58-4.75,5.42-5.79,8.84Zm0,0c1-3.43,3.38-6.27,5.78-8.84a81.15,81.15,0,0,1,7.91-7.15c5.54-4.46,11.4-8.5,17.18-12.64,2.87-2.08,5.77-4.15,8.44-6.5a12.15,12.15,0,0,0,3-3.51,23,23,0,0,0,.49-16.27,7.57,7.57,0,0,0-1.11-2.39,33,33,0,0,0-5.9-5.35c-10-7.84-31.15-20.12-35.6-31.5-3.35-12-3.43-24.69-3.29-37.07,0-.24,96.42,0,96.63-.13v.13c.2,12.1,0,24.42-3,36.22-3.51,11.43-25.31,24.17-35,31.71a63.11,63.11,0,0,0-5,4.07,8.61,8.61,0,0,0-2.74,3.85,23.81,23.81,0,0,0-.47,14.27,14.55,14.55,0,0,0,1.09,3,14.12,14.12,0,0,0,2.12,2.39c9.82,8.44,21.25,14.82,30.81,23.6,3.16,2.91,6.28,6,8.24,9.92a13.43,13.43,0,0,1,1.08,3.06c2.77,11.58,3,23.63,2.76,35.48,0,.05-96.47-.06-96.49-.07-.19-12.12,0-24.46,3-36.28Z" style="fill: rgb(38, 50, 56); transform-origin: 288.224px 269.266px;" id="elcmdlb9hdqv" class="animable"></path></g></g><path d="M245.92,181.54h12.81s-.78,22,0,32.27c.67,8.65,8.56,25.46,22.29,36.09,0,0-22.48-13.21-29.38-24.45S245.92,181.54,245.92,181.54Z" style="fill: rgb(255, 255, 255); transform-origin: 263.432px 215.72px;" id="eljkeoa2o1xra" class="animable"></path><path d="M336.42,353.05H240s21.62-30,36.66-42.8a17.51,17.51,0,0,1,23.08,0C314.8,323,336.42,353.05,336.42,353.05Z" style="fill: rgb(220, 38, 38); transform-origin: 288.21px 329.48px;" id="el01zewt5x8hqe" class="animable"></path><path d="M301.15,251.15s-9.07,6.51-10.26,8.51-2.13,8.51-2.13,8.51h-1.07s-.95-6.5-2.14-8.51-10.25-8.51-10.25-8.51Z" style="fill: rgb(220, 38, 38); transform-origin: 288.225px 259.66px;" id="elb3gw5bf2kze" class="animable"></path><path d="M288.22,298c-4.45,0-5.82-3.88-5.36-7.59.62-5,5.36-11.74,5.36-11.74s4.76,6.77,5.36,11.74C294.05,294.14,292.67,298,288.22,298Z" style="fill: rgb(220, 38, 38); transform-origin: 288.221px 288.335px;" id="elgxswt86b8lb" class="animable"></path><g id="el2oeb4wjxeit"><g style="opacity: 0.6; transform-origin: 288.21px 302.1px;" class="animable"><path d="M336.42,353.05H240s21.62-30,36.66-42.8a17.51,17.51,0,0,1,23.08,0C314.8,323,336.42,353.05,336.42,353.05Z" style="fill: rgb(255, 255, 255); transform-origin: 288.21px 329.48px;" id="elggs7if29bqh" class="animable"></path><path d="M301.15,251.15s-9.07,6.51-10.26,8.51-2.13,8.51-2.13,8.51h-1.07s-.95-6.5-2.14-8.51-10.25-8.51-10.25-8.51Z" style="fill: rgb(255, 255, 255); transform-origin: 288.225px 259.66px;" id="el9a5vmpsgvps" class="animable"></path><path d="M288.22,298c-4.45,0-5.82-3.88-5.36-7.59.62-5,5.36-11.74,5.36-11.74s4.76,6.77,5.36,11.74C294.05,294.14,292.67,298,288.22,298Z" style="fill: rgb(255, 255, 255); transform-origin: 288.221px 288.335px;" id="ely2c8k0q8qcp" class="animable"></path></g></g><path d="M250.06,311.33s2.66-5.42,14.59-14.1c7.32-5.33,17.17-11.63,18.73-15,0,0-3.25,9-15.38,17C260.75,304,252.82,307.68,250.06,311.33Z" style="fill: rgb(255, 255, 255); transform-origin: 266.72px 296.78px;" id="elq8jyw0tw87g" class="animable"></path><rect x="227.23" y="171.22" width="121.99" height="10.32" style="fill: rgb(220, 38, 38); transform-origin: 288.225px 176.38px;" id="elh0c1fe65xut" class="animable"></rect><g id="el2gm2oa07bd8"><rect x="227.23" y="171.22" width="121.99" height="10.32" style="opacity: 0.5; transform-origin: 288.225px 176.38px;" class="animable"></rect></g><rect x="227.23" y="357.04" width="121.99" height="10.32" style="fill: rgb(220, 38, 38); transform-origin: 288.225px 362.2px;" id="el8kxd7pxbbc6" class="animable"></rect><g id="el713cyjkzwag"><rect x="227.23" y="357.04" width="121.99" height="10.32" style="opacity: 0.5; transform-origin: 288.225px 362.2px;" class="animable"></rect></g></g><g id="freepik--Arrows--inject-12" class="animable" style="transform-origin: 379.406px 227.391px;"><polygon points="614.22 393.25 582.01 419.15 203.92 419.15 203.92 367.37 582.01 367.37 614.22 393.25" style="fill: rgb(220, 38, 38); transform-origin: 409.07px 393.26px;" id="el72y9q4gpou2" class="animable"></polygon><path d="M475.9,186.17l0,0c-.51-1.33-1.06-2.67-1.61-4Z" style="fill: rgb(220, 38, 38); transform-origin: 475.095px 184.17px;" id="elzgnnxg8046o" class="animable"></path><path d="M439.52,367.36H341.78l20.45-8.55c60.42-25.27,89.25-94.66,64.82-155.23l-.58-1.41a119.57,119.57,0,0,0-100.2-73.12,120.07,120.07,0,0,0-101,41.24,119.73,119.73,0,0,0-19.65,124.28l.41,1-15.73,29.95-32-10-.41-1a171.52,171.52,0,0,1,27.38-177.12v0l.75-.87a169.66,169.66,0,0,1,63.9-46.4l4-1.67,0,.05a171.39,171.39,0,0,1,220,92.66l.42,1c.55,1.33,1.1,2.67,1.61,4C500.75,250.11,484.53,320.53,439.52,367.36Z" style="fill: rgb(220, 38, 38); transform-origin: 316.075px 222.081px;" id="elax5ozrz9che" class="animable"></path><path d="M474.24,182.19l-.42-1h0Z" style="fill: rgb(220, 38, 38); transform-origin: 474.03px 181.69px;" id="eltf5rpdh4kl" class="animable"></path><g id="elu71p0pr0jmf"><path d="M439.52,367.36H411.78s113.5-81.91,40.63-223a172.62,172.62,0,0,1,21.41,36.85l.42,1c.55,1.33,1.1,2.67,1.61,4C500.75,250.11,484.53,320.53,439.52,367.36Z" style="opacity: 0.1; transform-origin: 449.653px 255.86px;" class="animable"></path></g><g id="eli6of1vk0w"><path d="M152.69,264c-2.88-17.81-1.15-36.1,2.85-53.63a166.92,166.92,0,0,1,46.59-81.88,172.41,172.41,0,0,1,56.51-36.18c-21,14.5-40.38,30.27-56.63,49.67-28.78,34.11-45.71,77.55-49.32,122Z" style="fill: rgb(255, 255, 255); opacity: 0.3; transform-origin: 204.95px 178.155px;" class="animable"></path></g><path d="M614.22,149.12l-.15.14a108.19,108.19,0,0,1-59.21,91.24l-5.42,2.75-31.38-13.43,7.57-33.5,5.45-2.76a55.63,55.63,0,0,0,30.51-49.69v-.19a55.81,55.81,0,0,0-23.12-44.91l-.17-.11a55.87,55.87,0,0,0-14.51-7.44c-.67-.23-1.36-.45-2-.65A55.67,55.67,0,0,0,451,152.63l-53.44-12.46.7-6.95C401.5,101,418.4,73.51,444.8,54.58c5.49-3.94,20.06-10.9,24.07-12.36,1.5-.56,3-1.07,4.53-1.55l1.53-.47c1.52-.46,3.05-.89,4.59-1.27q3.08-.78,6.17-1.37c1.05-.2,2.08-.38,3.11-.55s2.08-.33,3.12-.46,2.08-.25,3.12-.36a107.84,107.84,0,0,1,51.48,7.35c1.74.7,3.47,1.46,5.17,2.25,1,.49,2.09,1,3.13,1.53,1.67.84,3.34,1.74,5,2.68q2.78,1.59,5.47,3.35c1.19.78,2.37,1.59,3.55,2.43l.43.31,4.6,3.23,0,.29A94.15,94.15,0,0,1,602.51,95a107.1,107.1,0,0,1,11.7,48.46v5.65Z" style="fill: rgb(220, 38, 38); transform-origin: 505.89px 139.441px;" id="elyk9cpm1p5aa" class="animable"></path><g id="el1seh8wiw3iv"><path d="M614.22,149.12l-.15.14a108.19,108.19,0,0,1-59.21,91.24l-5.42,2.75-17.37-7.44c117.15-45.4,59.71-158.23,59.29-158.95A87,87,0,0,1,602.51,95a107.1,107.1,0,0,1,11.7,48.46v5.65Z" style="opacity: 0.1; transform-origin: 573.145px 160.055px;" class="animable"></path></g><g id="ellt1p88mlut9"><path d="M413.1,105.18c7.8-31.76,42.36-57.87,73.71-63.45,2.21-.41,4.44-.75,6.67-1-3.75,2.62-7.62,4.7-11.36,7-26,15.43-49.87,33.75-69,57.48Z" style="fill: rgb(255, 255, 255); opacity: 0.3; transform-origin: 453.29px 72.97px;" class="animable"></path></g></g><g id="freepik--character-3--inject-12" class="animable" style="transform-origin: 610.573px 282.037px;"><path d="M643,137.51c17.29,9.78,48.74,39.53,46.43,47.8-4.66,16.67-31.21,38-36.77,42.49-3.23,2.63-16.49-26.88-13.44-30.13,3.55-3.8,18.68-14.13,18.73-16.16,0-1.55-12.55-18.08-21.83-32.16C625.35,133,634.76,132.85,643,137.51Z" style="fill: rgb(173, 99, 89); transform-origin: 660.415px 181.419px;" id="el92ycyctvlzs" class="animable"></path><path d="M657,223c-2.39,2.88-14.5,15.14-18.64,17.79s-16.58,9.44-18.94,6.48,1.13-5.24,1.13-5.24-5.71,2-7.81-1.16,3.44-6.56,3.44-6.56-6,1.66-7.88-1.68,4.27-5.78,4.27-5.78-5.43,1.77-5.81-1.63c-.46-4.08,9.92-6.22,14.26-9.49,1-.75,18.92-16.5,18.92-16.5Z" style="fill: rgb(173, 99, 89); transform-origin: 631.873px 223.616px;" id="el0gom0hvnkvf7" class="animable"></path><path d="M612,227c7.63-1.59,10.69-3.61,16.21-8.94.1-.11.28,0,.18.15-4.93,5.71-8.4,8.8-16.34,9.16C611.69,227.41,611.65,227.09,612,227Z" style="fill: rgb(38, 50, 56); transform-origin: 620.089px 222.694px;" id="elbly00b7e6m5" class="animable"></path><path d="M615.54,234.38c7.78-2.35,11.13-4.5,17.32-9.66.08-.08.22.06.13.14-5.64,5.58-9.19,8.57-17.27,9.89C615.36,234.81,615.19,234.48,615.54,234.38Z" style="fill: rgb(38, 50, 56); transform-origin: 624.184px 229.727px;" id="elppdfjirq5gp" class="animable"></path><path d="M620.83,241.71c7.37-2.81,11.13-5,16.5-10.8a.15.15,0,0,1,.22.19c-4.89,6.42-9.57,9.21-16.61,10.83C620.46,242,620.36,241.89,620.83,241.71Z" style="fill: rgb(38, 50, 56); transform-origin: 629.045px 236.417px;" id="elz7ou3z7gyw" class="animable"></path><path d="M643.38,195.71s-9.77.19-14,1.22-18.78,10.72-16.86,14c2.47,4.2,11.95.26,16.34-2.28,0,0,5.71,9.71,13.13,8.35S643.38,195.71,643.38,195.71Z" style="fill: rgb(173, 99, 89); transform-origin: 629.019px 206.42px;" id="elxqaa7z9tc8" class="animable"></path><path d="M613.54,211.84c5,2.2,10.56-1.51,15-3.65a.44.44,0,0,1,.66.33c2.67,3.91,7.57,8.66,12.57,8.71a.11.11,0,1,1,0,.22c-5.37.68-10.57-3.59-13.21-8.06-4.52,2.27-10.25,5.74-15.07,2.49C613.49,211.86,613.5,211.82,613.54,211.84Z" style="fill: rgb(38, 50, 56); transform-origin: 627.685px 212.826px;" id="elw4cjwm5devm" class="animable"></path><path d="M640,193.83l20.25,30.24s32.19-29.8,30.4-40.83-30.21-37.05-45.73-45.66-16.85.21-9.94,11.84,22,32.14,21.75,32.71S640,193.83,640,193.83Z" style="fill: rgb(69, 90, 100); transform-origin: 660.859px 179.098px;" id="el6i9mrz6ftz5" class="animable"></path><path d="M655.06,210.19c-1.85-1.73-3.66-3.5-5.46-5.28-.87-.85-1.74-1.69-2.58-2.57s-1.91-1.85-2.74-2.85a.07.07,0,0,1,.1-.11c1,.77,2,1.72,3,2.56s1.83,1.61,2.73,2.42c1.88,1.7,3.75,3.39,5.59,5.13,3.69,3.48,7.26,7.06,10.79,10.68a.09.09,0,1,1-.12.14C662.53,217,658.75,213.65,655.06,210.19Z" style="fill: rgb(38, 50, 56); transform-origin: 655.389px 209.847px;" id="elgrd3e002qa6" class="animable"></path><path d="M635,149.42c6.92,11.63,22,32.14,21.75,32.71S640,193.83,640,193.83l20.26,30.25s25.29-23.43,29.79-36.43l-56-53.43C629.41,135,630.33,141.59,635,149.42Z" style="fill: rgb(55, 71, 79); transform-origin: 660.524px 179.15px;" id="elvlu33mghyjr" class="animable"></path><path d="M684.68,395.3s1.07,47.9,1.07,47.93c-.26,8.85-.65,16.6-1.23,20.59a.13.13,0,0,1,0,.06,6.26,6.26,0,0,1-.73,2.72s0,0-.06,0c-2.68,1.71-73.44,1.66-75.91.83s-.29-7.93,2.46-10.12,29.86-14.29,29.86-14.29l.5-47.86Z" style="fill: rgb(173, 99, 89); transform-origin: 646.246px 431.575px;" id="elz8gj1269wd" class="animable"></path><path d="M685.54,433.74s.21,9.46.21,9.49c-.26,8.85-.65,16.6-1.23,20.59a.13.13,0,0,1,0,.06,12.09,12.09,0,0,1-.73,2.72s0,0-.06,0c-2.68,1.71-73.44,1.66-75.91.83s-.29-7.93,2.46-10.12,29.86-14.29,29.86-14.29l.2-9.64Z" style="fill: rgb(255, 255, 255); transform-origin: 646.246px 450.685px;" id="eljiu6ug8aie" class="animable"></path><path d="M635.8,443c4.73-.65,10.42.35,13.85,3.86.13.13-.07.32-.22.27a66.1,66.1,0,0,0-13.64-3.54A.3.3,0,0,1,635.8,443Z" style="fill: rgb(38, 50, 56); transform-origin: 642.621px 444.976px;" id="elf2b6k1v3fp" class="animable"></path><path d="M632.31,444.86c4.73-.65,10.43.34,13.85,3.85.14.14-.06.33-.21.27a66,66,0,0,0-13.65-3.53A.3.3,0,0,1,632.31,444.86Z" style="fill: rgb(38, 50, 56); transform-origin: 639.133px 446.832px;" id="eln4qv3o4uolc" class="animable"></path><path d="M628.83,446.74c4.73-.65,10.43.34,13.85,3.85.14.14-.06.32-.21.27a66,66,0,0,0-13.65-3.53A.3.3,0,0,1,628.83,446.74Z" style="fill: rgb(38, 50, 56); transform-origin: 635.653px 448.711px;" id="elmpzi55eec" class="animable"></path><path d="M607.81,467.48c2.47.83,73.22.88,75.92-.83,1-.63,1.64-10.94,2-23.42v-.39l-45.64-.54,0,.77s-27.09,12.1-29.86,14.29S605.34,466.65,607.81,467.48Z" style="fill: rgb(55, 71, 79); transform-origin: 646.224px 455.17px;" id="elrr4d6u2dtu" class="animable"></path><path d="M685.76,442.83v.41c-.39,12.47-1,22.78-2,23.41-1.22.78-16.57,1.19-33.15,1.34-19.83.17-41.42-.05-42.77-.51-2.47-.83-.28-7.93,2.46-10.12s29.86-14.29,29.86-14.29l0-.76,15.22.17Z" style="fill: rgb(220, 38, 38); transform-origin: 646.262px 455.179px;" id="eljko455hzmy" class="animable"></path><path d="M608.61,464.74c11.93-.29,60.06-.31,71.87.31.1,0,.1.07,0,.08-11.81.54-59.94.17-71.87-.2C608.36,464.92,608.36,464.74,608.61,464.74Z" style="fill: rgb(38, 50, 56); transform-origin: 644.489px 464.973px;" id="elahq20rfdz6l" class="animable"></path><g id="el4zehpbnre2u"><path d="M655.33,442.48C654,450.09,652,461.31,650.58,468c-19.83.17-41.42-.05-42.77-.51-2.47-.83-.28-7.93,2.46-10.12s29.86-14.29,29.86-14.29l0-.76Z" style="opacity: 0.1; transform-origin: 631.032px 455.189px;" class="animable"></path></g><path d="M689.16,442.66l-51.18.48s-1.29-89.26-1.51-117.06c-.26-31.74,1.54-127,1.54-127h38.27s10.27,21,4.4,44.6l-1.62,85Z" style="fill: rgb(38, 50, 56); transform-origin: 662.802px 321.11px;" id="elix4pw06gob" class="animable"></path><path d="M685.37,433.69a39.58,39.58,0,0,0-4.08-.32c-1.51-.11-3-.22-4.53-.28-2.92-.13-5.83-.18-8.74-.19-5.88,0-11.76,0-17.63.21-3.34.1-6.68.23-10,.43-.13,0-.13.2,0,.21,5.83.21,11.66.3,17.49.41s11.65.23,17.47.12c1.67,0,3.34,0,5-.15s3.38,0,5-.24C685.45,433.88,685.49,433.72,685.37,433.69Z" style="fill: rgb(55, 71, 79); transform-origin: 662.868px 433.612px;" id="elbe3a93pd6b" class="animable"></path><path d="M642.67,386.69c-.6-13.78-.43-32.5-.81-46.28q-1.12-41.37-.59-82.75c.19-15.48.6-31,1.07-46.42,0-.18-.27-.17-.28,0-1.46,27.7-2,55.45-2,83.18s-.07,60.11,1.29,87.67c.77,15.46.71,31.94,2.16,47.35,0,.14.22.13.21,0C643.05,415.52,643.27,400.61,642.67,386.69Z" style="fill: rgb(55, 71, 79); transform-origin: 641.89px 320.325px;" id="ele3xiksj0o4" class="animable"></path><path d="M630.69,396.16s-.39,46.28-.39,46.31c0,8.85-.21,16.61-.68,20.61a.08.08,0,0,1,0,.07,6.09,6.09,0,0,1-.67,2.73l-.05.06c-2.64,1.77-73.37,3.61-75.86,2.84s-.5-7.92,2.19-10.18,29.46-15.08,29.46-15.08l.83-46.25Z" style="fill: rgb(173, 99, 89); transform-origin: 591.296px 432.56px;" id="elwuwli5ecll" class="animable"></path><path d="M630.38,433s-.08,9.47-.08,9.5c0,8.85-.21,16.61-.68,20.61a.08.08,0,0,1,0,.07,11.89,11.89,0,0,1-.67,2.73l-.05.06c-2.64,1.77-73.37,3.61-75.86,2.84s-.5-7.92,2.19-10.18,29.46-15.08,29.46-15.08l-.05-9.64Z" style="fill: rgb(255, 255, 255); transform-origin: 591.141px 450.995px;" id="ele1hfi8sz76" class="animable"></path><path d="M580.36,443.55c4.71-.78,10.43.07,13.95,3.49.14.13,0,.32-.21.27a65.79,65.79,0,0,0-13.73-3.17A.3.3,0,0,1,580.36,443.55Z" style="fill: rgb(38, 50, 56); transform-origin: 587.243px 445.3px;" id="elsdv1o836o2k" class="animable"></path><path d="M576.93,445.52c4.71-.78,10.43.07,14,3.49.14.13-.06.32-.21.27a65.79,65.79,0,0,0-13.73-3.17A.3.3,0,0,1,576.93,445.52Z" style="fill: rgb(38, 50, 56); transform-origin: 583.841px 447.27px;" id="el7iie1qa86v3" class="animable"></path><path d="M573.5,447.49c4.71-.78,10.43.07,14,3.48.13.14-.06.33-.21.28a65.94,65.94,0,0,0-13.73-3.17A.3.3,0,0,1,573.5,447.49Z" style="fill: rgb(38, 50, 56); transform-origin: 580.409px 449.24px;" id="elvcpp787d0in" class="animable"></path><path d="M553,468.78c2.49.77,73.22-1.06,75.86-2.85,1-.66,1.36-11,1.4-23.46v-.39l-45.65.67,0,.78s-26.76,12.81-29.46,15.08S550.55,468,553,468.78Z" style="fill: rgb(220, 38, 38); transform-origin: 591.064px 455.52px;" id="elursr9i7i0u" class="animable"></path><path d="M553.77,466c11.91-.6,60-1.91,71.85-1.6.1,0,.1.07,0,.08-11.79.85-59.92,1.77-71.85,1.72C553.52,466.21,553.52,466,553.77,466Z" style="fill: rgb(38, 50, 56); transform-origin: 589.639px 465.278px;" id="elycfj4swim5d" class="animable"></path><path d="M654.08,248.1s-21,66.19-21.38,78.35c-.32,10.37,1,116.78,1,116.78l-53.16.32S585,335,585.87,324.22c1.55-20.2,19.25-75.68,31.92-125.1h57.3s-.5,25.88-12.27,44.6C662.82,243.72,657.49,246.19,654.08,248.1Z" style="fill: rgb(38, 50, 56); transform-origin: 627.815px 321.335px;" id="elw09r555hu4" class="animable"></path><path d="M630.88,433.43c-6.14-.17-12.51-.35-18.65-.2s-12.2.24-18.28.61c-3.45.2-6.89.32-10.34.66a.09.09,0,0,0,0,.18c6.13.36,12.29.29,18.44.23s12.19-.12,18.29-.4c3.45-.16,6.89-.33,10.33-.57C631.06,433.91,631.25,433.45,630.88,433.43Z" style="fill: rgb(55, 71, 79); transform-origin: 607.299px 434.066px;" id="elh4y7q45s8h" class="animable"></path><path d="M619.26,230.3c-1.9,6.32-3.49,12.74-5.19,19.12s-3.41,12.86-5.11,19.3c-3.27,12.45-6.51,24.92-9,37.56a227.53,227.53,0,0,0-4.25,38.5c-.28,13.18,0,26.37.08,39.55s.2,26.5.43,39.75c0,1.64.07,3.29.13,4.94a.12.12,0,0,0,.24,0c.36-13.18.17-26.38.13-39.56s-.22-26.37-.11-39.55a237.67,237.67,0,0,1,3.38-39c2.22-12.68,5.35-25.18,8.59-37.64q2.77-10.66,5.56-21.31c1.85-7.16,3.84-14.3,5.47-21.51A.2.2,0,0,0,619.26,230.3Z" style="fill: rgb(55, 71, 79); transform-origin: 607.6px 329.686px;" id="elq4pdmd32z2" class="animable"></path><path d="M640.93,249.38a48.64,48.64,0,0,0,7.9-.71c2.63-.5,5.09-1.37,7.65-2.12a58.77,58.77,0,0,1,7.49-1.23,26.42,26.42,0,0,0,7.35-2.19c.11,0,.2.11.1.17a46.31,46.31,0,0,1-7,3c-2.52.79-5.15.9-7.71,1.53a64.51,64.51,0,0,1-7.87,1.81,28.49,28.49,0,0,1-7.88-.13C640.8,249.54,640.84,249.38,640.93,249.38Z" style="fill: rgb(55, 71, 79); transform-origin: 656.157px 246.491px;" id="elpsu30fny5h" class="animable"></path><path d="M637.58,302c.5-2,1-3.93,1.51-5.88,1.08-3.95,2.17-7.9,3.36-11.82,2.37-7.79,4.61-15.62,7.13-23.36,1.42-4.39,2.69-8.84,4.36-13.14a.09.09,0,0,1,.17,0c-.83,4-2,7.94-3.09,11.9s-2.2,7.89-3.34,11.83c-2.27,7.81-4.49,15.65-7,23.4-.7,2.18-1.41,4.35-2.16,6.5s-1.37,4.48-2.29,6.62a.1.1,0,0,1-.19-.05C636.43,306,637.07,304,637.58,302Z" style="fill: rgb(55, 71, 79); transform-origin: 645.075px 277.923px;" id="eliam1medfnv" class="animable"></path><path d="M623.67,150.78c3.82-.68,8.05-9.3,8.55-14.61,0-.36-1.75-3.27-3.76-6.9-1.21-2.21-2.5-4.7-3.52-7.05l-13.23,10a41,41,0,0,1,5.33,8.43,6.17,6.17,0,0,1,.32,1,1.36,1.36,0,0,0,0,.17C617.9,143.76,620,151.43,623.67,150.78Z" style="fill: rgb(173, 99, 89); transform-origin: 621.965px 136.519px;" id="el6x5yj1bs1zr" class="animable"></path><path d="M617.35,141.62a1.43,1.43,0,0,1,0,.18,10.78,10.78,0,0,0,1.56-.58c8.55-4.1,6.63-14.82,5.6-18.71l-12.85,9.67a41.31,41.31,0,0,1,5.33,8.43A5.28,5.28,0,0,1,617.35,141.62Z" style="fill: rgb(38, 50, 56); transform-origin: 618.554px 132.155px;" id="elwc2p474ars" class="animable"></path><path d="M601.9,104.22a8.44,8.44,0,0,0-5.44,7.85c0,6,2.88,10.9,3.44,11.1S601.9,104.22,601.9,104.22Z" style="fill: rgb(38, 50, 56); transform-origin: 599.18px 113.696px;" id="elvsx5lpn1w7e" class="animable"></path><path d="M622.54,106.08c3.16,5,4.55,21.75,1.59,26.36-4.29,6.68-13.46,9.68-19.68,4-6-5.47-7.44-27.27-3.93-31.68C605.68,98.3,617.86,98.61,622.54,106.08Z" style="fill: rgb(173, 99, 89); transform-origin: 612.199px 119.806px;" id="elc8tw8rwv04w" class="animable"></path><path d="M609,120c0-.05.1,0,.1.09.08,1.12.36,2.4,1.41,2.67,0,0,0,.07,0,.06C609.25,122.82,608.9,121.12,609,120Z" style="fill: rgb(38, 50, 56); transform-origin: 609.747px 121.401px;" id="ele8r2ewts0q6" class="animable"></path><path d="M609.89,118.76c1.79-.32,2.3,3.29.64,3.59S608.39,119,609.89,118.76Z" style="fill: rgb(38, 50, 56); transform-origin: 610.264px 120.554px;" id="elbq1jqhkdm7l" class="animable"></path><path d="M602.72,120.9s-.08.07-.07.12c.19,1.11.23,2.42-.73,2.93,0,0,0,.07,0,.06C603.15,123.66,603.08,121.93,602.72,120.9Z" style="fill: rgb(38, 50, 56); transform-origin: 602.435px 122.455px;" id="elhbf863q2axa" class="animable"></path><path d="M601.56,119.88c-1.82.12-1.45,3.74.23,3.63S603.08,119.78,601.56,119.88Z" style="fill: rgb(38, 50, 56); transform-origin: 601.62px 121.695px;" id="elpmbn1kthws" class="animable"></path><path d="M611.08,116.91a14.69,14.69,0,0,1-1.47-.29,2.44,2.44,0,0,1-1.44-.59.77.77,0,0,1,0-.94,1.88,1.88,0,0,1,1.88-.46,2.8,2.8,0,0,1,1.77,1A.82.82,0,0,1,611.08,116.91Z" style="fill: rgb(38, 50, 56); transform-origin: 609.986px 115.729px;" id="eljbb8yvjpzcd" class="animable"></path><path d="M599.91,118.26a13.88,13.88,0,0,0,1.38-.58,2.4,2.4,0,0,0,1.3-.85.77.77,0,0,0-.18-.92,1.9,1.9,0,0,0-1.93-.1,2.86,2.86,0,0,0-1.55,1.31A.82.82,0,0,0,599.91,118.26Z" style="fill: rgb(38, 50, 56); transform-origin: 600.759px 116.945px;" id="elh8v8yztndgh" class="animable"></path><path d="M611.62,130c-.23.3-.45.7-.85.79a3.07,3.07,0,0,1-1.24-.12s-.07,0,0,.07a1.52,1.52,0,0,0,1.5.41,1.21,1.21,0,0,0,.74-1.12C611.74,130,611.65,130,611.62,130Z" style="fill: rgb(38, 50, 56); transform-origin: 610.634px 130.603px;" id="elzeil6x3mqyd" class="animable"></path><path d="M610,126.85a3.85,3.85,0,0,1-2.3,2.05,4.81,4.81,0,0,1-1.36.25,1.22,1.22,0,0,1-.27,0h-.25a.29.29,0,0,1-.26-.22h0a.48.48,0,0,1,0-.12h0l0-.1c-.14-.86-.24-2.18-.24-2.18-.29.2-1.8,1.15-1.83.7a57.46,57.46,0,0,1-.15-11.73.11.11,0,0,1,.21,0c.43,3.6.23,7.24.61,10.86a7,7,0,0,1,1.72-.8c.12,0,.15,2.56.24,2.94a.1.1,0,0,0,0,0,5.31,5.31,0,0,0,3.77-1.78C609.93,126.69,610,126.75,610,126.85Z" style="fill: rgb(38, 50, 56); transform-origin: 606.555px 122.29px;" id="el2ntg50lfbcn" class="animable"></path><path d="M606.76,128.65a4.48,4.48,0,0,0,2,1.14,2.07,2.07,0,0,0,1.25-.09c.86-.37.76-1.19.5-1.87a4.82,4.82,0,0,0-.55-1A5.94,5.94,0,0,1,606.76,128.65Z" style="fill: rgb(38, 50, 56); transform-origin: 608.727px 128.339px;" id="elywns9t934bc" class="animable"></path><path d="M608.76,129.79a2.07,2.07,0,0,0,1.25-.09c.86-.37.76-1.19.5-1.87A2.13,2.13,0,0,0,608.76,129.79Z" style="fill: rgb(255, 151, 184); transform-origin: 609.727px 128.839px;" id="el85pj1lloidt" class="animable"></path><path d="M623.2,120.38c-2.86.56-5-2-6.46-6.39-.86-2.55-.72-7.85-.72-7.85s-7,4.24-11.22,4.32-8.18-3.13-8.34-6.43c-.14-2.83,4.21-7,10.42-7.93,4.33-.66,12.06,2.05,15.81,6.38,0,0,5.76,2,5.39,6.25S626.44,119.74,623.2,120.38Z" style="fill: rgb(38, 50, 56); transform-origin: 612.277px 108.229px;" id="eldhdangcj0ne" class="animable"></path><path d="M623,119.62c-4.1,1.27-6.82-3.93-7.19-6.76s.64-6.09,1-9c0,0,0,0,0,0-1.09,3.67-2.2,8.28-.48,11.78,1.07,2.2,3.38,5.77,6.8,4.22A.1.1,0,0,0,623,119.62Z" style="fill: rgb(38, 50, 56); transform-origin: 619.32px 112.049px;" id="elg8g4sl232" class="animable"></path><path d="M628.77,107.39c-.8-2.49-4-4.69-6.48-5,0,0,0,0,0,0,3,.75,6.77,3.75,6.21,7.12-.44,2.69-1.33,6.26-2.88,8.52a.05.05,0,1,0,.09.06c1.25-1.54,1.66-3.44,2.2-5.32C628.37,111.14,629.34,109.11,628.77,107.39Z" style="fill: rgb(38, 50, 56); transform-origin: 625.617px 110.252px;" id="elpufnqfsyy99" class="animable"></path><path d="M623.29,102.8c-4-4.56-12-9.36-18.16-7.17,0,0,0,0,0,0,6.61-1.75,13.3,3.32,17.94,7.37C623.22,103.15,623.4,102.93,623.29,102.8Z" style="fill: rgb(38, 50, 56); transform-origin: 614.227px 99.067px;" id="elc66bogmjt2c" class="animable"></path><path d="M622.16,120.18s2.33-6.07,5-5.36,1.81,8.88-.69,10.59a2.89,2.89,0,0,1-4.13-.57Z" style="fill: rgb(173, 99, 89); transform-origin: 625.478px 120.397px;" id="el7m1830qescc" class="animable"></path><path d="M626.85,117.16s.07,0,0,.07c-1.74,1.26-2.32,3.3-2.57,5.34a1.59,1.59,0,0,1,2.21-1c.06,0,0,.11,0,.12a1.76,1.76,0,0,0-1.75,1.07,8.31,8.31,0,0,0-.53,1.76c-.05.2-.38.18-.36,0v0C623.21,122,624.27,118.06,626.85,117.16Z" style="fill: rgb(38, 50, 56); transform-origin: 625.275px 120.911px;" id="el1vae4hpv2vy" class="animable"></path><path d="M684.32,218.57c-.13.23-73.8,13.71-74.61,13.1-1.14-.86-3.71-73.17,7.66-89.58,2.8-4,13.65-9.74,17.65-7.86,10.36,4.87,17.86,17.7,22.58,25.12,3.49,5.49,8.27,15.09,12.81,25C677.9,200.66,684.78,217.77,684.32,218.57Z" style="fill: rgb(69, 90, 100); transform-origin: 646.488px 182.776px;" id="el9ntxiut72yt" class="animable"></path><path d="M626.79,155.74c-4.26,18.91-12.63,48.22-24,54.43-5.59,3.05-36.88-1.77-46.35-3.41-4-.69,6.43-28.55,10.78-28.86s23.16,3.95,25.23,2.42c2.62-1.93,11.07-17.72,20.82-31.59C624.68,132.42,630.26,140.37,626.79,155.74Z" style="fill: rgb(173, 99, 89); transform-origin: 591.678px 175.439px;" id="elsgxrqwv2zrn" class="animable"></path><path d="M532.66,172.13c-.94,2,2.09,3.91,2.09,3.91a6.66,6.66,0,0,0-3.37,3.05c-1.18,2.48,2.21,5.42,2.21,5.42a8.24,8.24,0,0,0-3,3.78c-.89,2.5,2.11,6,2.11,6a7.18,7.18,0,0,0-.58,5c1.28,4.46,8.1,6.4,12.42,7.68s17.78.86,20.35,1l8.45-27.66s-17.75-11.25-23-12C545.8,167.62,534.65,167.81,532.66,172.13Z" style="fill: rgb(173, 99, 89); transform-origin: 551.882px 187.989px;" id="elosm16ci02tk" class="animable"></path><path d="M534.85,176c4.9-.44,9.91.3,14.73,1.07a.08.08,0,1,1,0,.16c-4.78-.81-9.9-.37-14.71-1A.12.12,0,0,1,534.85,176Z" style="fill: rgb(38, 50, 56); transform-origin: 542.216px 176.549px;" id="elruqay0ict6" class="animable"></path><path d="M533.79,184.18a12.56,12.56,0,0,1,3.33.46c1.16.25,2.32.51,3.48.8q3.48.84,6.9,1.87c.1,0,.08.19,0,.17-2.3-.56-4.62-1.09-7-1.56l-3.51-.66a15.23,15.23,0,0,1-3.27-.76A.17.17,0,0,1,533.79,184.18Z" style="fill: rgb(38, 50, 56); transform-origin: 540.599px 185.831px;" id="elejihrf9sqw" class="animable"></path><path d="M532.76,194.26a8.8,8.8,0,0,1,3,.58l3.15.82c2.11.54,4.21,1.08,6.34,1.54.1,0,.07.19,0,.17-2.16-.46-4.33-.89-6.48-1.37l-3.17-.73a8.33,8.33,0,0,1-2.82-.91S532.71,194.27,532.76,194.26Z" style="fill: rgb(38, 50, 56); transform-origin: 539.028px 195.816px;" id="elqrp1ochscml" class="animable"></path><path d="M574.11,177.41l-8,35.42s35.83,2.44,42-3.94c10.44-10.84,18.21-40.6,20.09-56.1s-5.76-18.34-14.79-5.25-20.43,31.38-21.17,32S574.11,177.41,574.11,177.41Z" style="fill: rgb(69, 90, 100); transform-origin: 597.298px 176.259px;" id="elsuf5zx4yxp" class="animable"></path><path d="M577.37,195.63c.55-2.47,1.15-4.92,1.76-7.38.29-1.18.57-2.36.89-3.53s.62-2.58,1.06-3.81a.07.07,0,1,1,.14,0c-.12,1.3-.45,2.6-.67,3.89s-.45,2.39-.69,3.58c-.5,2.48-1,5-1.56,7.42-1.12,4.95-2.37,9.84-3.69,14.74a.09.09,0,0,1-.18,0C575.32,205.54,576.27,200.58,577.37,195.63Z" style="fill: rgb(38, 50, 56); transform-origin: 577.825px 195.734px;" id="elcxre93e6zhi" class="animable"></path><path d="M608.55,208.07c2.22-3.14,11.93-22.58,15.76-38.88,1-4.39,2-8.78,3.07-13.17,0,0,.08,0,.07,0-.28,2.7-.69,5.37-1.18,8,.06-.17.12-.35.19-.53.43-1.07.89-2.14,1.34-3.2,0-.06.14,0,.12,0-.37,1.12-.72,2.25-1.13,3.36-.26.7-.56,1.38-.85,2.07-.23,1.16-.45,2.32-.75,3.46-8,31-16.22,38.3-16.46,38.85C608.69,208.24,608.48,208.17,608.55,208.07Z" style="fill: rgb(38, 50, 56); transform-origin: 618.229px 182.093px;" id="el8sst0hjjih7" class="animable"></path></g><g id="freepik--character-2--inject-12" class="animable" style="transform-origin: 363.889px 342.342px;"><path d="M403.63,246.45c1,3.37,1.95,6.75,2.79,10.16.51,2.09.89,4.17,1.21,6.27a14.33,14.33,0,0,1-1.89,2.53q-.12-.81-.24-1.59c-.37-2.52-.95-5-1.55-7.44,0-.08-.13,0-.11.05.54,2.55.9,5.17,1.24,7.77.07.56.13,1.13.18,1.7a19.27,19.27,0,0,1-2.21,1.85c-.07-.62-.14-1.24-.22-1.85q-.24-2.14-.6-4.29a81.2,81.2,0,0,0-1.84-8.32c0-.11-.17,0-.14.06.61,2.86,1.13,5.75,1.56,8.64.2,1.37.39,2.75.54,4.13.08.66.13,1.32.19,2A29.43,29.43,0,0,1,398,270.6c-4.49,2-9.62,2.34-14.47,2a25.38,25.38,0,0,1-12.05-4,28.16,28.16,0,0,0,1.69-7.34c0-.09-.09-.11-.11,0q-.57,2.44-1.32,4.82c-.24.75-.51,1.48-.78,2.2l-.16-.11c-.36-.25-.74-.52-1.12-.81a42.91,42.91,0,0,0,1.24-4.61,41.79,41.79,0,0,0,1-6.71c0-.15-.17-.19-.2,0-.47,2.15-.88,4.31-1.38,6.45-.35,1.51-.79,3-1.17,4.49a5.8,5.8,0,0,1-2.24-3.76,11.34,11.34,0,0,1,.57-3.85,83.06,83.06,0,0,0,2.64-27.07,9.37,9.37,0,0,1,5.85-9.77c0-.07,7.53-10.21,18.47-5.65,12.43,5.18,15.82,34.29,15.59,38.43a21.08,21.08,0,0,1-2,6.72c-.28-1.78-.68-3.54-1.1-5.24-.87-3.53-2-6.93-3.23-10.34C403.74,246.28,403.6,246.34,403.63,246.45Z" style="fill: rgb(38, 50, 56); transform-origin: 388.494px 244.208px;" id="elk4azi3gmzk" class="animable"></path><path d="M397.07,271.7c-5.83,9.5-28.76,38.64-35.73,39.42-7.25.81-33.79-2.27-38.47-8.13-2.29-2.87,2.26-26.74,5.91-25.29S355,285.33,358,285s27.22-22.47,36.06-27.14C409.27,249.81,400.21,266.58,397.07,271.7Z" style="fill: rgb(247, 169, 160); transform-origin: 362.436px 283.478px;" id="el81jy7vnjpep" class="animable"></path><path d="M334.61,278.64,328.1,308.2s26.49,6.26,34.42,4.19,30.83-32.63,37.6-44.79,1.28-15.57-10.44-8.22-30.69,24-32.48,24.06S334.61,278.64,334.61,278.64Z" style="fill: rgb(219, 219, 219); transform-origin: 365.583px 284.17px;" id="elsqokv0a4ku" class="animable"></path><path d="M338.94,295c.52-2.34,2.55-11.71,2.88-14.07a0,0,0,0,0-.07,0c-.75,2.19-3,11.38-3.55,13.72a128.28,128.28,0,0,0-2.75,14.11c0,.09.12.14.15,0C337,304.26,337.91,299.6,338.94,295Z" style="fill: rgb(38, 50, 56); transform-origin: 338.635px 294.889px;" id="elkheeoiemyb" class="animable"></path><g id="elh6q4oblaakj"><path d="M400.13,267.6c-6.78,12.16-29.67,42.73-37.61,44.79-6,1.56-22.64-1.65-30.37-3.3l68-53.52C403.81,256,404.29,260.12,400.13,267.6Z" style="opacity: 0.1; transform-origin: 367.613px 284.188px;" class="animable"></path></g><path d="M323,466.87c2.3-.58,56.47-35.21,57.71-37.84.47-1-4.12-9.18-9.94-18.91-1.25-2.1-2.56-4.26-3.91-6.45-8.7-14.22-18.26-29.11-18.26-29.11l-36.31,23.06,19.27,28.47,4.22,6.26s-14.81,22.54-15.85,25.56S320.66,467.44,323,466.87Z" style="fill: rgb(247, 169, 160); transform-origin: 346.517px 420.733px;" id="elmvw3ju63hpg" class="animable"></path><path d="M323,466.87c2.3-.58,56.47-35.21,57.7-37.84.42-.87-3.09-7.34-7.92-15.53h0c-2,3.38-33.16,32.37-43.72,35.41-4.31,1.25,2.06-9.34,2.33-9.79l0,0c-4.45,6.9-10.77,16.84-11.43,18.78C318.86,460.93,320.66,467.44,323,466.87Z" style="fill: rgb(38, 50, 56); transform-origin: 350.181px 440.203px;" id="elc5eos5xizgk" class="animable"></path><path d="M330.74,440s4.68-4.45,14.11-1" style="fill: rgb(38, 50, 56); transform-origin: 337.795px 438.844px;" id="elo47ww86gumk" class="animable"></path><path d="M286.06,352.58c4.12,17.17,42.35,73.57,42.35,73.57l38.72-25.39L339,360.27s54.5,4.52,74.86-4.93c21.74-10.09,17.56-36.42,17.56-36.42l-54-4.42s-1.23,5.11-7.29,4.86c-20.88-.86-49.24,1-60.13,2.56C296,324,282.29,336.84,286.06,352.58Z" style="fill: rgb(55, 71, 79); transform-origin: 358.585px 370.325px;" id="elqrrhn4mfp0a" class="animable"></path><path d="M326.19,346.23a42.4,42.4,0,0,1,3.66,3.8c1.25,1.33,2.53,2.65,3.78,4l0,0c-.24-.4-.48-.81-.73-1.21-.84-1.37-1.55-2.8-2.52-4.09a.08.08,0,0,1,.12-.09c1,1.28,2.11,2.47,3,3.84.41.64.81,1.29,1.18,2,.21.36.41.73.6,1.1a4.49,4.49,0,0,1,.26.54c.57.62,1.13,1.24,1.67,1.88,1.21,1.41,2.31,2.92,3.53,4.33.07.07-.05.16-.12.09-1.22-1.31-2.57-2.51-3.81-3.8s-2.48-2.69-3.68-4.07-2.32-2.7-3.49-4a42.71,42.71,0,0,1-3.55-4.17C326.08,346.26,326.14,346.19,326.19,346.23Z" style="fill: rgb(38, 50, 56); transform-origin: 333.425px 354.332px;" id="elu796844l35s" class="animable"></path><path d="M325.53,417c1-.82,2.08-1.58,3.13-2.35s2.08-1.52,3.13-2.27c2.13-1.54,4.31-3,6.47-4.54,4.35-3,8.74-6,13.12-9,2.46-1.66,4.95-3.27,7.42-4.92.05,0,.12.05.07.08-4.19,3.11-8.4,6.2-12.66,9.23s-8.67,6.09-13.08,9c-1.22.82-2.46,1.62-3.7,2.41s-2.51,1.65-3.82,2.38C325.55,417.08,325.47,417,325.53,417Z" style="fill: rgb(38, 50, 56); transform-origin: 342.198px 405.481px;" id="el3pfyuya8gyr" class="animable"></path><path d="M424.1,320.85a27.66,27.66,0,0,1-5.36,19.73,27,27,0,0,1-7.81,6.8,33.07,33.07,0,0,1-9.75,3.56,132.67,132.67,0,0,1-20.77,2.61c-7,.38-14,.41-21,.14a165.26,165.26,0,0,1-20.85-2c-1.72-.29-3.44-.63-5.13-1-.84-.21-1.69-.43-2.52-.68a13.74,13.74,0,0,0-2.6-.66,3.43,3.43,0,0,0-1.44.13,1.59,1.59,0,0,0-1.06,1.14,2.76,2.76,0,0,0,0,.75,2,2,0,0,0,.2.73,10.37,10.37,0,0,0,.61,1.2c.87,1.54,1.82,3,2.77,4.49,7.72,11.7,15.94,23,24.18,34.37q-6-8.6-12-17.26c-4-5.76-7.94-11.54-11.71-17.43-.94-1.47-1.87-3-2.71-4.47a12.11,12.11,0,0,1-.57-1.14,1.57,1.57,0,0,1-.16-.53,2,2,0,0,1,.05-.55c.13-.71,1-.87,1.81-.78a13,13,0,0,1,2.47.64c.85.26,1.7.48,2.56.69,1.71.42,3.43.76,5.16,1.07a165.45,165.45,0,0,0,20.94,2q10.53.38,21-.21a125.31,125.31,0,0,0,20.86-2.74,33.24,33.24,0,0,0,9.86-3.71,27.24,27.24,0,0,0,7.86-7,26.27,26.27,0,0,0,4.44-9.5A28.48,28.48,0,0,0,424.1,320.85Z" style="fill: rgb(38, 50, 56); transform-origin: 375.044px 356.505px;" id="elaq68oporb1" class="animable"></path><path d="M374.43,468.86c2.12-1,47.9-46.19,48.56-49,.26-1.07-5.93-8.12-13.65-16.43-1.67-1.79-3.4-3.63-5.17-5.49-11.47-12.1-23.93-24.67-23.93-24.67l-30.71,30.12,24.78,23.83,5.43,5.24s-9.8,25.13-10.18,28.3S372.3,469.91,374.43,468.86Z" style="fill: rgb(247, 169, 160); transform-origin: 386.264px 421.126px;" id="elnzozlb61i" class="animable"></path><path d="M374.43,468.86c2.12-1,47.9-46.19,48.56-49,.22-1-4.56-6.54-11-13.55h0c-1.29,3.72-25.7,38.56-35.39,43.73-4,2.12.06-9.56.23-10.06v0c-2.91,7.68-7,18.72-7.27,20.75C369.18,463.91,372.29,469.91,374.43,468.86Z" style="fill: rgb(38, 50, 56); transform-origin: 396.263px 437.646px;" id="elugg9tm8berb" class="animable"></path><path d="M376.44,441s3.65-5.32,13.58-3.95" style="fill: rgb(38, 50, 56); transform-origin: 383.23px 438.912px;" id="elpwepmbz85kq" class="animable"></path><path d="M310.35,355.73c4.11,17.17,52.26,62.92,57.81,68.16l1.27,1.19,32.62-31-.46-.49L375,366.41s39.86,11.88,55.84-13.07c6.35-9.93.6-34.42.6-34.42l-43.36-3.37s-.47,7.41-6.52,7.17c-20.88-.86-37.31-1.8-48.2-.21C319.31,324.56,306.57,340,310.35,355.73Z" style="fill: rgb(55, 71, 79); transform-origin: 371.752px 370.315px;" id="elc2ql5x1cgj9" class="animable"></path><path d="M380.37,322.67c-13.44-.79-26.91-1.41-40.39-.89-1.68.07-3.37.18-5.05.34a32.18,32.18,0,0,0-5,.83,16.05,16.05,0,0,0-2.4.91c-.78.35-1.54.73-2.29,1.14a35,35,0,0,0-4.28,2.75,30.88,30.88,0,0,0-7.06,7.32,26,26,0,0,0-4,9.34,27.23,27.23,0,0,0-.54,5.09c0,.42,0,.85,0,1.28s0,.85.07,1.28a19.15,19.15,0,0,0,.48,2.53,39.68,39.68,0,0,0,4.12,9.29,125.22,125.22,0,0,0,11.81,16.43c4.3,5.19,8.82,10.19,13.46,15.07s9.45,9.6,14.29,14.28c-4.76-4.76-9.45-9.59-14-14.53s-9.05-10-13.29-15.19a131.31,131.31,0,0,1-11.65-16.4,38.86,38.86,0,0,1-4-9.13,18.39,18.39,0,0,1-.45-2.42,22.75,22.75,0,0,1-.08-2.48,25.59,25.59,0,0,1,.54-4.94,25.32,25.32,0,0,1,3.87-9.1,30.22,30.22,0,0,1,6.88-7.17,33.73,33.73,0,0,1,4.19-2.72c.73-.4,1.48-.77,2.24-1.12a15.38,15.38,0,0,1,2.3-.89,34.85,34.85,0,0,1,4.92-.83c1.67-.17,3.34-.3,5-.39,6.71-.36,13.45-.34,20.17-.25S373.64,322.37,380.37,322.67Z" style="fill: rgb(38, 50, 56); transform-origin: 344.865px 365.624px;" id="el7dra78nhcmg" class="animable"></path><path d="M360.48,350.26a40.84,40.84,0,0,1,3.65,3.79c1.26,1.34,2.53,2.65,3.79,4l0,0c-.24-.41-.47-.82-.72-1.21-.85-1.37-1.56-2.8-2.53-4.1-.06-.07.06-.17.12-.09,1,1.28,2.11,2.48,3,3.84.41.65.8,1.3,1.18,2,.2.37.41.73.6,1.1.08.17.19.35.26.54.56.62,1.12,1.25,1.67,1.88,1.21,1.42,2.31,2.93,3.53,4.33.06.08-.06.16-.12.09-1.23-1.31-2.58-2.5-3.82-3.8s-2.48-2.68-3.68-4.06-2.32-2.71-3.49-4.05a43.82,43.82,0,0,1-3.54-4.17A.06.06,0,0,1,360.48,350.26Z" style="fill: rgb(38, 50, 56); transform-origin: 367.705px 358.347px;" id="elogfp4de2o6s" class="animable"></path><path d="M364.84,417.4c.85-1,1.79-1.91,2.69-2.84s1.8-1.85,2.7-2.76c1.85-1.88,3.74-3.72,5.62-5.57,3.78-3.7,7.61-7.36,11.43-11,2.14-2.06,4.33-4.07,6.49-6.1,0,0,.11,0,.08.06-3.62,3.77-7.25,7.53-10.94,11.23s-7.51,7.46-11.36,11.1c-1.07,1-2.16,2-3.25,3s-2.2,2.05-3.36,3C364.89,417.53,364.79,417.46,364.84,417.4Z" style="fill: rgb(38, 50, 56); transform-origin: 379.341px 403.325px;" id="elv8hce6awzw" class="animable"></path><path d="M425.66,321.51A43.88,43.88,0,0,1,426.91,333a30.64,30.64,0,0,1-2.27,11.21,20.3,20.3,0,0,1-7.08,8.78,24.88,24.88,0,0,1-10.63,3.94,58.62,58.62,0,0,1-11.47.53A110.24,110.24,0,0,1,384,356.29a166.51,166.51,0,0,1-22.53-5l-.28-.08-.11.24a8.17,8.17,0,0,0-.71,3,9.61,9.61,0,0,0,.29,3,11.56,11.56,0,0,0,1.15,2.8,22.62,22.62,0,0,0,1.8,2.39c2.57,3,5.32,5.81,8.06,8.62s5.55,5.57,8.38,8.3,5.66,5.45,8.52,8.14q-4.2-4.12-8.34-8.32c-2.76-2.8-5.51-5.6-8.24-8.43s-5.42-5.69-7.93-8.69a19.87,19.87,0,0,1-1.71-2.33,11.42,11.42,0,0,1-1.07-2.64,8.61,8.61,0,0,1,.39-5.54l-.4.16A163.94,163.94,0,0,0,383.88,357a109,109,0,0,0,11.55,1.11,60.15,60.15,0,0,0,11.61-.58,24.72,24.72,0,0,0,10.84-4.12,20.91,20.91,0,0,0,7.16-9.08,30,30,0,0,0,2.1-11.38A43.9,43.9,0,0,0,425.66,321.51Z" style="fill: rgb(38, 50, 56); transform-origin: 393.747px 354.605px;" id="eljwvmyj9athr" class="animable"></path><path d="M407.13,321.65c.47,2,1.06,4,1.7,6a14.6,14.6,0,0,0,2.42,5,11.48,11.48,0,0,0,4.3,2.93,26,26,0,0,0,2.88,1,19.9,19.9,0,0,1,2.95.95.2.2,0,0,1-.06.38,13.28,13.28,0,0,1-3.26-.34,20,20,0,0,1-3.06-.82,11.41,11.41,0,0,1-4.69-3.23,13.41,13.41,0,0,1-2.41-5.42,33.07,33.07,0,0,1-1-6.42A.14.14,0,0,1,407.13,321.65Z" style="fill: rgb(38, 50, 56); transform-origin: 414.198px 329.758px;" id="elt8kh7056f0l" class="animable"></path><path d="M433.12,323.68l-58.9-6.84,4.41-21.74s-4.51-4.19-3.16-9.87c1.52-6.43,17.11-26.77,18.34-27.71,4.91-3.72,10.74-4.57,16,2C423.18,276.06,433.12,323.68,433.12,323.68Z" style="fill: rgb(219, 219, 219); transform-origin: 403.67px 289.165px;" id="ela9b1g12odw" class="animable"></path><path d="M396.06,294.34a49.25,49.25,0,0,0-7.58-.39c-1.26,0-2.5.15-3.75.28-.63.06-1.25.11-1.88.15a8,8,0,0,1-2-.06,0,0,0,0,0,0,.09,14.09,14.09,0,0,0,1.83.36,12,12,0,0,0,1.8.05c1.27,0,2.55-.13,3.82-.17,2.58-.1,5.15-.19,7.73-.1C396.17,294.55,396.18,294.35,396.06,294.34Z" style="fill: rgb(38, 50, 56); transform-origin: 388.497px 294.384px;" id="elrxgqz77a5wo" class="animable"></path><path d="M401.68,297.85a55.1,55.1,0,0,0-6.05-1.63c-1-.21-2.05-.36-3.09-.48l-1.49-.15c-.55,0-1.1,0-1.65-.08-.06,0-.08.08,0,.09.52.06,1,.22,1.53.32l1.53.29,3.07.59q3.09.56,6.13,1.21C401.75,298,401.78,297.88,401.68,297.85Z" style="fill: rgb(38, 50, 56); transform-origin: 395.545px 296.76px;" id="el8o46kuiyxvy" class="animable"></path><path d="M414.91,264.13c15.95,20.86,33,55.21,24,61.49-8.27,5.73-30.79-2-48-10.39-3.27-1.61,7.71-31.1,11-29a98.65,98.65,0,0,0,10.82,6c.95.35-3.85-6.62-8.49-22.8C399.53,253,405.79,252.21,414.91,264.13Z" style="fill: rgb(247, 169, 160); transform-origin: 415.857px 291.811px;" id="elfwauygsj2cl" class="animable"></path><path d="M360.15,280.55c-.29,3.36,8.07,3.39,8.07,3.39a6.23,6.23,0,0,0-2.81,3.18c-.84,2.42,2.61,4.8,2.61,4.8a7.65,7.65,0,0,0-2.43,3.82c-.57,2.4,2.56,5.29,2.56,5.29a6.78,6.78,0,0,0,0,4.7c1.66,4,8.29,4.64,12.31,5.84a91,91,0,0,1,13,4.88l10.2-29.09s-16.9-12-21.89-12.21C377.58,275,360.61,275.4,360.15,280.55Z" style="fill: rgb(247, 169, 160); transform-origin: 381.901px 295.788px;" id="elg6knwxhn2af" class="animable"></path><path d="M368.29,283.85c4.51-.91,9.22-.74,13.77-.53.1,0,.09.16,0,.16-4.52-.27-9.22.67-13.74.59A.11.11,0,0,1,368.29,283.85Z" style="fill: rgb(38, 50, 56); transform-origin: 375.163px 283.614px;" id="elt03ru6lvm5a" class="animable"></path><path d="M368.16,291.59a11.8,11.8,0,0,1,3.14.08c1.1.11,2.21.24,3.31.38,2.2.29,4.4.62,6.59,1,.09,0,.09.17,0,.16-2.2-.28-4.4-.53-6.61-.72l-3.32-.26a14.06,14.06,0,0,1-3.11-.36A.16.16,0,0,1,368.16,291.59Z" style="fill: rgb(38, 50, 56); transform-origin: 374.672px 292.366px;" id="elwc2g8eibafd" class="animable"></path><path d="M368.25,301a8.12,8.12,0,0,1,2.81.23l3,.44c2,.28,4,.56,6,.77a.08.08,0,1,1,0,.15c-2-.2-4.1-.38-6.15-.6l-3-.34a7.74,7.74,0,0,1-2.7-.55A.06.06,0,0,1,368.25,301Z" style="fill: rgb(38, 50, 56); transform-origin: 374.181px 301.78px;" id="el27zn2vdmfpw" class="animable"></path><path d="M404.71,287.12l-9.57,33s41.15,14.48,46.4,4.2S425.35,272.5,412,260s-9.46,5.74-9.14,7.2c1.4,6.47,9,23.68,9,23.68Z" style="fill: rgb(219, 219, 219); transform-origin: 418.746px 291.826px;" id="elt1k0e1rkes8" class="animable"></path><path d="M405.44,287.21c4.68,2.1,16.82,9.47,19.38,12.3a.09.09,0,0,1-.11.13c-2.57-2.15-17.58-11.12-19.95-12.26a3.88,3.88,0,0,1-.2.37c-.09.11-.15,0-.14-.08a8.35,8.35,0,0,1,.25-.8Z" style="fill: rgb(38, 50, 56); transform-origin: 414.626px 293.258px;" id="elx1kxfo43w7" class="animable"></path><path d="M407.47,306.31c.65-2.31,3.19-11.55,3.64-13.9,0,0-.05-.06-.07,0-.87,2.15-3.64,11.2-4.3,13.51a129.2,129.2,0,0,0-3.51,13.94c0,.08.11.14.14.05C405,315.46,406.18,310.86,407.47,306.31Z" style="fill: rgb(38, 50, 56); transform-origin: 407.17px 306.169px;" id="el2vcmv4r2u5d" class="animable"></path><path d="M412.21,291.15c-1.08-3-2.46-5.83-3.67-8.75s-2.49-5.8-3.6-8.75c0,0-.08,0-.06,0,.66,2,1.31,4,2,6-.24-.32-.47-.65-.68-1-.4-.61-.76-1.24-1.11-1.88a0,0,0,0,0-.07,0,9.88,9.88,0,0,0,1,2,14.64,14.64,0,0,0,1,1.33c.3.8.6,1.6.93,2.4,1.2,3,2.08,5.85,3.71,8.58C411.78,291.2,412.25,291.24,412.21,291.15Z" style="fill: rgb(38, 50, 56); transform-origin: 408.545px 282.425px;" id="elbv2xh3z2cio" class="animable"></path><polygon points="370.56 311.07 335.34 313.98 324.57 264.69 359.78 261.78 370.56 311.07" style="fill: rgb(38, 50, 56); transform-origin: 347.565px 287.88px;" id="el6faatet5hqr" class="animable"></polygon><polygon points="368.83 311.21 333.61 314.13 322.84 264.83 358.05 261.93 368.83 311.21" style="fill: rgb(55, 71, 79); transform-origin: 345.835px 288.03px;" id="ele7dr6wgqwx5" class="animable"></polygon><path d="M341,286.23a3.82,3.82,0,0,0,4,3.11,3.09,3.09,0,0,0,2.84-3.68,3.83,3.83,0,0,0-4-3.12A3.11,3.11,0,0,0,341,286.23Z" style="fill: rgb(255, 255, 255); transform-origin: 344.421px 285.94px;" id="el5qv4xqa7tdu" class="animable"></path><path d="M322.67,274.87c-1.66,4-6.11,9.13-6.33,12.35a3.7,3.7,0,0,0,2.25,3.81s-3.12,1.75-2.84,4.71c.14,1.53,2.7,2.63,2.7,2.63a4.42,4.42,0,0,0-2,4.14c.32,2.08,2.84,2.88,2.84,2.88s-1.66,2.54-.65,4.56c2.06,4.09,20.15,3.18,22.61-3.62,1.14-3.17-3.26-2.71-3.26-2.71s6.17-2.19,6.08-5.93-5.78-2.79-5.78-2.79,6-2.17,5.49-6c-.51-4-6-2.1-6-2.1s3.89-2.93,2.84-5.8c-1.73-4.74-9.05,1.7-13.07,1L325,275.47Z" style="fill: rgb(247, 169, 160); transform-origin: 329.902px 293.636px;" id="elri0wqw1tjsf" class="animable"></path><path d="M319.33,280.75c1.25-3.94-3.78-8.47-3.13-12.41.88-5.33,7.07-.46,8.77,7.13l.29,6.12Z" style="fill: rgb(247, 169, 160); transform-origin: 320.701px 273.842px;" id="el13c3etgvo1gf" class="animable"></path><path d="M319.65,305.57c-.06,0-.08.09,0,.1a31.39,31.39,0,0,0,18.58-2.05c.19-.08.13-.42-.09-.36A64.38,64.38,0,0,1,319.65,305.57Z" style="fill: rgb(38, 50, 56); transform-origin: 328.971px 304.751px;" id="elm1pzoatxrg8" class="animable"></path><path d="M318.37,298.42c-.07,0-.08.11,0,.12a29.38,29.38,0,0,0,20.12-3.48c.21-.13.27-.46,0-.33C334.27,296.93,324.22,298.62,318.37,298.42Z" style="fill: rgb(38, 50, 56); transform-origin: 328.492px 296.867px;" id="el465b7ebe06k" class="animable"></path><path d="M338.08,286.35c-6,3.39-12.44,4.53-19.24,4.74-.09,0-.07.13,0,.14,3.36.81,7.68.22,11-.52a18.1,18.1,0,0,0,8.36-4.15C338.29,286.47,338.21,286.28,338.08,286.35Z" style="fill: rgb(38, 50, 56); transform-origin: 328.509px 288.977px;" id="elhm9x9lwwhw" class="animable"></path><path d="M403.51,254.78c.11,1.1-2.45,9.38-7.17,10.78-1.54.45-4.38-7.84-4.38-7.84l-.35-.56-4.89-7.9,7.82-9.94L395.7,238s1.19,2.25,2.65,5.06l.21.4c.08.16.17.31.24.46.23.42.45.84.67,1.27s.33.65.49,1,.33.68.5,1A60.65,60.65,0,0,1,403.51,254.78Z" style="fill: rgb(247, 169, 160); transform-origin: 395.117px 251.789px;" id="elld3qzbdl1a8" class="animable"></path><path d="M402.27,251.35c-4.9,4-9.52,4.06-12,3.69l-3.58-5.77,7.82-10L395.7,238s1.19,2.25,2.65,5.07l.21.4c.08.15.17.3.24.45.23.42.45.85.67,1.28s.33.64.49,1,.33.69.5,1C401.13,248.62,401.76,250.09,402.27,251.35Z" style="fill: rgb(38, 50, 56); transform-origin: 394.48px 246.592px;" id="elgwrnj2vnzl7" class="animable"></path><path d="M403.55,227.58c9.26,13.4,2.28,20.47-.61,22.46-2.63,1.81-11.8,7.64-22.4-4.73s-7.3-20.92-1.51-25.38S394.28,214.17,403.55,227.58Z" style="fill: rgb(247, 169, 160); transform-origin: 390.905px 234.917px;" id="elh41urpgauhi" class="animable"></path><path d="M401.15,227.42a8.39,8.39,0,0,1-1.08.33,1.87,1.87,0,0,1-1.16.13.58.58,0,0,1-.34-.62,1.42,1.42,0,0,1,1.08-1,2.15,2.15,0,0,1,1.52,0A.62.62,0,0,1,401.15,227.42Z" style="fill: rgb(38, 50, 56); transform-origin: 400.062px 227.02px;" id="elul1w9bceejm" class="animable"></path><path d="M391.34,232.79a8.61,8.61,0,0,0,.86-.74,1.79,1.79,0,0,0,.72-.91.58.58,0,0,0-.34-.62,1.42,1.42,0,0,0-1.4.39,2.09,2.09,0,0,0-.8,1.29A.61.61,0,0,0,391.34,232.79Z" style="fill: rgb(38, 50, 56); transform-origin: 391.65px 231.688px;" id="elbm2za5rwf8" class="animable"></path><path d="M395.54,235s-.05.09,0,.13c.59.94,1.11,2.12.42,2.94,0,0,0,.08,0,0C396.94,237.4,396.24,235.84,395.54,235Z" style="fill: rgb(38, 50, 56); transform-origin: 395.981px 236.553px;" id="el8etxsvbj3ev" class="animable"></path><path d="M394.1,234.54c-1.61.78.07,4,1.56,3.22S395.45,233.89,394.1,234.54Z" style="fill: rgb(38, 50, 56); transform-origin: 394.842px 236.166px;" id="el6f594i6trh2" class="animable"></path><path d="M393.56,235c-.18.32-.28.78-.6,1s-.83.07-1.25-.11c0,0,0,0,0,.06.31.61.87,1.11,1.57.85a1.33,1.33,0,0,0,.61-1.68C393.82,235,393.64,234.91,393.56,235Z" style="fill: rgb(38, 50, 56); transform-origin: 392.85px 235.917px;" id="elzsitgl01yh" class="animable"></path><path d="M400.87,231.94s.1,0,.12.05c.49,1,1.21,2.07,2.27,1.93,0,0,.05.05,0,.06C402.11,234.39,401.17,233,400.87,231.94Z" style="fill: rgb(38, 50, 56); transform-origin: 402.076px 232.997px;" id="el98eismqyol9" class="animable"></path><path d="M401.22,230.46c1.52-1,3.29,2.16,1.89,3S399.94,231.25,401.22,230.46Z" style="fill: rgb(38, 50, 56); transform-origin: 402.199px 231.936px;" id="elx9w1cu1hng" class="animable"></path><path d="M402,230.29c.34,0,.76.19,1.06,0s.41-.65.45-1.1c0,0,0,0,.06,0,.36.58.52,1.31,0,1.75s-1.13.11-1.61-.4C401.86,230.5,401.84,230.28,402,230.29Z" style="fill: rgb(38, 50, 56); transform-origin: 402.893px 230.168px;" id="el048kk5uvg62z" class="animable"></path><path d="M399.7,243.15a1.69,1.69,0,0,0,1.12.19,3,3,0,0,0,1-.77s.07,0,.06,0a1.48,1.48,0,0,1-1,1.15,1.18,1.18,0,0,1-1.21-.51C399.58,243.19,399.64,243.13,399.7,243.15Z" style="fill: rgb(38, 50, 56); transform-origin: 400.753px 243.156px;" id="el4o9z5y9h83y" class="animable"></path><path d="M401.84,237.4s1,1.35,1.37,2c0,.07-.11.19-.34.33a0,0,0,0,1,0,0,3.71,3.71,0,0,1-3.83.51.08.08,0,0,1,.05-.15,5.59,5.59,0,0,0,3.44-.78c-.06-.21-1.78-2.24-1.68-2.31a7.07,7.07,0,0,1,1.75-.5c-2-2.86-4.42-5.38-6.37-8.25-.06-.11.07-.23.16-.15a56.47,56.47,0,0,1,7.24,8.61C403.88,237.11,402.18,237.37,401.84,237.4Z" style="fill: rgb(38, 50, 56); transform-origin: 399.935px 234.315px;" id="el90plka73vuo" class="animable"></path><path d="M381.47,244.77c2.89-.92.71-7.49.71-7.49s10.72-7.34,7.34-17.26a17.63,17.63,0,0,0,12.13,5s-5.2-10.19-14.36-8.41c0,0-11.93,1-13.93,11.75S379.53,245.38,381.47,244.77Z" style="fill: rgb(38, 50, 56); transform-origin: 387.349px 230.606px;" id="elm760nz9lez" class="animable"></path><path d="M389.23,219.3a11.2,11.2,0,0,1,1.48,4.56,11.84,11.84,0,0,1-.43,4.84,9.2,9.2,0,0,1-.43,1.14l-.22.57c-.09.18-.19.36-.29.54-.21.35-.39.71-.61,1.06s-.48.65-.73,1l-.37.48-.42.43-.85.86c-.61.52-1.25,1-1.88,1.48.53-.6,1.11-1.13,1.63-1.72l.75-.92.37-.45.32-.49c.21-.33.42-.66.64-1s.36-.69.54-1l.26-.52.21-.54a10.82,10.82,0,0,0,.38-1.09,13.66,13.66,0,0,0,.58-4.59,14,14,0,0,0-.29-2.32A12.87,12.87,0,0,0,389.23,219.3Z" style="fill: rgb(38, 50, 56); transform-origin: 387.636px 227.78px;" id="elh4xg05g2n2o" class="animable"></path><path d="M384.16,249.47a3.8,3.8,0,0,0,.76-.21,2.36,2.36,0,0,0,.67-.36,2.29,2.29,0,0,0,.67-.73,2.62,2.62,0,0,0,.3-.72,3.19,3.19,0,0,0,.08-1.1L383.7,243s-5.61-2.66-7-.41S381.31,249.94,384.16,249.47Z" style="fill: rgb(247, 169, 160); transform-origin: 381.575px 245.593px;" id="elrru9pca1sbd" class="animable"></path><path d="M378.46,244a0,0,0,0,0,0,.07c2-.27,3.77.76,5.28,2a1.52,1.52,0,0,0-2.18.77s.05.1.09.06a1.71,1.71,0,0,1,1.92-.41,8.19,8.19,0,0,1,1.52.87c.16.1.38-.13.23-.27l0,0C384.16,245,380.84,242.94,378.46,244Z" style="fill: rgb(38, 50, 56); transform-origin: 381.915px 245.548px;" id="elw6i9553061" class="animable"></path><path d="M384,248.76a.75.75,0,0,0,1.14-1,.75.75,0,0,0-1.14,1Z" style="fill: rgb(255, 255, 255); transform-origin: 384.57px 248.26px;" id="eln6sqwh913tf" class="animable"></path><path d="M382.11,248.54a.54.54,0,0,0,.75.05.53.53,0,1,0-.7-.8A.54.54,0,0,0,382.11,248.54Z" style="fill: rgb(255, 255, 255); transform-origin: 382.512px 248.188px;" id="el95yc04n9oal" class="animable"></path></g><g id="freepik--character-1--inject-12" class="animable" style="transform-origin: 121.039px 278.739px;"><path d="M57.23,468.61c2.37.74,71.35-.75,73.87-2.43,1-.63-4.94-66-4.94-66l-43.75.84,5,43.71s-25.45,12.05-28,14.2S54.87,467.88,57.23,468.61Z" style="fill: rgb(211, 118, 106); transform-origin: 93.6948px 434.492px;" id="elsdrgenmfm7" class="animable"></path><path d="M57.23,468.61c2.36.73,71.35-.76,73.87-2.44.3-.19.39-6.82-.7-15.46-12.51,2.1-57.16,9-60.64,6.9-2.42-1.42-.28-3.65,1.71-5.15-5.7,2.85-11,5.58-12.12,6.5C56.79,461.09,54.87,467.88,57.23,468.61Z" style="fill: rgb(38, 50, 56); transform-origin: 93.7289px 459.755px;" id="elztueate5v2f" class="animable"></path><path d="M86.15,434.28l42.95-.61s-8.51-102.86-8.16-104.84c.46-2.54,30.93-122,30.93-122h-41S78.55,318.18,77.39,328.91C75.52,346.23,86.15,434.28,86.15,434.28Z" style="fill: rgb(55, 71, 79); transform-origin: 114.52px 320.555px;" id="elw60f5sf5gr" class="animable"></path><path d="M125.24,424c-2.54-.19-5.11-.16-7.65-.19s-5.09,0-7.64,0c-5.09.05-10.19.12-15.28.27-1.39,0-2.78.08-4.18.14s-3,.33-4.46.38a.09.09,0,0,0,0,.18c1.25,0,2.5.2,3.75.24s2.6,0,3.9,0l7.64,0c5.09,0,10.19-.11,15.27-.32,2.88-.12,5.78-.15,8.64-.44A.13.13,0,0,0,125.24,424Z" style="fill: rgb(38, 50, 56); transform-origin: 105.654px 424.417px;" id="elmh0yf30md3k" class="animable"></path><path d="M142.85,216.46c-3.66,13-7,26.09-10.31,39.18s-6.55,26.2-9.81,39.3q-2.46,9.84-4.89,19.66C116.25,321,114.41,327.39,114,334s.46,13.46,1,20.13,1.13,13.42,1.72,20.12c1.17,13.41,2.3,26.84,3.76,40.23.18,1.67.36,3.35.53,5a.12.12,0,0,0,.23,0c-.89-13.42-1.82-26.84-2.89-40.25q-.81-10.07-1.64-20.12c-.55-6.69-1.33-13.41-1.54-20.12s1-13.27,2.66-19.81,3.21-12.83,4.82-19.24q4.92-19.65,9.81-39.3c3.64-14.67,7.27-29.38,10.49-44.15C143,216.41,142.87,216.38,142.85,216.46Z" style="fill: rgb(38, 50, 56); transform-origin: 128.427px 317.989px;" id="elbtacduxf9yq" class="animable"></path><path d="M151.87,206.81s-13.07,51.26-22.22,87.35l-17.44-87.35Z" style="fill: rgb(38, 50, 56); transform-origin: 132.04px 250.485px;" id="elktf9tvg6xp" class="animable"></path><path d="M108.75,468.77c2.36.74,71.34-.75,73.86-2.43,1-.63-2.63-66-2.63-66l-43.17.84,2.09,43.75s-25.46,12.05-28,14.2S106.39,468,108.75,468.77Z" style="fill: rgb(211, 118, 106); transform-origin: 145.238px 434.652px;" id="el6bm6hf8t5rx" class="animable"></path><path d="M108.75,468.77c2.36.73,71.35-.76,73.86-2.44.31-.19.23-6.65,0-15.47-12.51,2.1-57.85,9-61.32,6.91-2.43-1.42-.28-3.65,1.7-5.15-5.7,2.85-11,5.58-12.11,6.5C108.31,461.25,106.39,468,108.75,468.77Z" style="fill: rgb(38, 50, 56); transform-origin: 145.247px 459.91px;" id="elxjks7txldip" class="animable"></path><path d="M112.2,206.8s1.2,19.6,5.88,35.07c.38,1.28.78,2.54,1.22,3.75a72.6,72.6,0,0,1,11.89,5.92s2.95,75,2.9,79.62c-.19,17.42,4.26,102.26,4.26,102.26l43.3-.42s-4.49-95.93-4.5-102.31c0-6.17-3-45.1-5.56-78.85,0,0,3.85-10.78,3.42-16.22-1-13.2-6.95-28.81-6.95-28.81Z" style="fill: rgb(55, 71, 79); transform-origin: 146.925px 320.11px;" id="elp3p6cj5xh5n" class="animable"></path><path d="M121.66,233.12c-.16-1.08-.32-2.17-.49-3.25-.3-2-.71-4-1.06-5.94-.79-4.49-1.61-9-2.61-13.45,0-.11-.2-.08-.19,0,.18,1.8.38,3.59.64,5.38s.43,3.59.68,5.38c.5,3.55,1,7.1,1.6,10.63.23,1.36,1.08,3.8-.88,4.22-1.55.34-2.69-1.19-3.14-2.46a30.32,30.32,0,0,1-1-4.9q-.48-2.69-.85-5.39c-.55-3.93-1.16-7.83-1.8-11.74,0-.12-.2-.08-.2,0,.13,4,.34,8,.87,12,.26,1.91.54,3.82.86,5.72a20.24,20.24,0,0,0,1.32,5.32,4.32,4.32,0,0,0,3.24,2.6h.09a.17.17,0,0,0-.06.12c0,.63,0,1.28.08,1.91s.19,1.25.31,1.87a13.15,13.15,0,0,0,.48,1.87,9.11,9.11,0,0,0,.35.86c.14.29.34.51.5.79a.11.11,0,0,0,.21-.07h0c0-.1,0-.21,0-.31v-.06h0a5.09,5.09,0,0,0,0-.55,9.15,9.15,0,0,0-.18-.91c-.13-.61-.3-1.21-.46-1.81s-.29-1.2-.44-1.8-.36-1.22-.51-1.84c0,0,0,0,0-.06a2.83,2.83,0,0,0,2.73-1.71A4.78,4.78,0,0,0,121.66,233.12Z" style="fill: rgb(38, 50, 56); transform-origin: 117.112px 227.572px;" id="elhq7m24drjjf" class="animable"></path><path d="M134.69,253a33.23,33.23,0,0,0-4.07-2.68,39.38,39.38,0,0,0-4.65-2.41c-3.13-1.36-6.36-2.29-9.59-3.36-.1,0-.16.13-.07.17,3.13,1.24,6.13,2.9,9.16,4.38,1.49.73,3,1.42,4.51,2.09s3,1.45,4.59,2A.12.12,0,0,0,134.69,253Z" style="fill: rgb(38, 50, 56); transform-origin: 125.49px 248.871px;" id="eltjst6jxvei" class="animable"></path><path d="M159.14,225.73a26.68,26.68,0,0,1-6.53-.88c-1-.25-2-.57-2.92-.89a7.49,7.49,0,0,1-2.63-1.32c-1.49-1.28-2.18-3.29-2.82-5.08a47.12,47.12,0,0,1-1.71-6.18c0-.1-.18-.07-.18,0a24,24,0,0,0,.89,7c.53,1.94,1.25,4.1,2.81,5.45a11,11,0,0,0,6,2.19,27.82,27.82,0,0,0,7.12-.1A.12.12,0,0,0,159.14,225.73Z" style="fill: rgb(38, 50, 56); transform-origin: 150.774px 218.759px;" id="elmvnidclql4" class="animable"></path><path d="M179.74,424.61c-2.54-.18-5.1-.15-7.65-.18s-5.09,0-7.64,0c-5.09,0-10.18.13-15.28.27-1.39,0-2.78.08-4.17.15s-3,.32-4.46.38a.09.09,0,0,0,0,.18c1.25,0,2.5.19,3.76.23s2.59.05,3.89.05c2.55,0,5.09,0,7.64,0,5.09,0,10.19-.11,15.28-.32,2.87-.12,5.77-.16,8.64-.45A.13.13,0,0,0,179.74,424.61Z" style="fill: rgb(38, 50, 56); transform-origin: 160.175px 425.053px;" id="el3j1efv15boz" class="animable"></path><path d="M174.46,419h0a.52.52,0,0,0,.5-.55l-9.77-167.88c.12-.73,2.88-10.11,3.12-14.9.26-5.06-5-24.8-5.2-25.63a.53.53,0,0,0-.64-.38.54.54,0,0,0-.38.65c.06.2,5.42,20.41,5.17,25.31s-3.11,14.75-3.12,14.83,9.77,168.05,9.77,168.05A.53.53,0,0,0,174.46,419Z" style="fill: rgb(38, 50, 56); transform-origin: 168.518px 314.322px;" id="elw9v6ip5yyr" class="animable"></path><path d="M102.91,189.44c-.45,3.65,3,8.29,8.09,10.57l23.38-20c-4.21-.85-8.6-1.89-11-2.27C112.7,176,103.19,187.11,102.91,189.44Z" style="fill: rgb(38, 50, 56); transform-origin: 118.625px 188.783px;" id="elvob92h46hoo" class="animable"></path><g id="elgpwjca9jn7q"><path d="M102.91,189.44c-.45,3.65,3,8.29,8.09,10.57l23.38-20c-4.21-.85-8.6-1.89-11-2.27C112.7,176,103.19,187.11,102.91,189.44Z" style="opacity: 0.1; transform-origin: 118.625px 188.783px;" class="animable"></path></g><path d="M109.78,208.76l8.56-22.9s-5.07-7.6-.36-15.33c2.38-3.92,18-22.63,25.65-26.95,7.15-4.05,12.41.58,15,5.11,7.49,13,7.57,27.23,12.74,63.67Z" style="fill: rgb(235, 235, 235); transform-origin: 140.575px 177.192px;" id="elr4nhsghj7hs" class="animable"></path><path d="M153.84,143.23s-14.3,43.37-16.4,66.39-.71,78.48,3.14,83.83,41.82,16.38,43.27,15.08-8.17-84.66-10.6-95.21c-2.49-10.81-5.79-50.1-13.26-64A17.75,17.75,0,0,0,153.84,143.23Z" style="fill: rgb(38, 50, 56); transform-origin: 160.23px 225.933px;" id="elp9qx49espl8" class="animable"></path><path d="M158.9,109.05c1.1,3.11,13,13.07,23.1,3.34,10-9.57-.74-28.12-14.3-23C158.59,92.89,156.57,102.44,158.9,109.05Z" style="fill: rgb(38, 50, 56); transform-origin: 171.964px 102.533px;" id="elf0lk4l6t92o" class="animable"></path><path d="M153.17,144.52c-.47,1.07-12.86,10.23-16.76,7.68-.86-.56,4.36-7.77,4.36-7.77l-.43-10.52,14.15-5.75S153.36,144.06,153.17,144.52Z" style="fill: rgb(211, 118, 106); transform-origin: 145.402px 140.403px;" id="el2ny7rwhklrr" class="animable"></path><path d="M154,134.87a20.08,20.08,0,0,1-13.27,9l-.4-9.93,14.15-5.75S154.27,131.19,154,134.87Z" style="fill: rgb(38, 50, 56); transform-origin: 147.405px 136.03px;" id="el5lce7knec3a" class="animable"></path><path d="M130.46,115.68c-5.73,16.27,3.36,21.54,6.87,22.77,3.19,1.12,14.18,4.53,21.56-11.06s1.63-23.4-5.52-26.34S136.19,99.42,130.46,115.68Z" style="fill: rgb(211, 118, 106); transform-origin: 145.469px 119.682px;" id="eljqq205gj9v" class="animable"></path><path d="M136.34,113.1c.4.1.78.12,1.18.18a2,2,0,0,0,1.24-.06.62.62,0,0,0,.26-.7,1.53,1.53,0,0,0-1.29-.85,2.2,2.2,0,0,0-1.59.25A.66.66,0,0,0,136.34,113.1Z" style="fill: rgb(38, 50, 56); transform-origin: 137.45px 112.484px;" id="el3g4v48ks83q" class="animable"></path><path d="M147.26,117.31c-.36-.19-.67-.42-1-.64s-.71-.4-.9-.84a.62.62,0,0,1,.26-.71,1.54,1.54,0,0,1,1.53.19,2.25,2.25,0,0,1,1,1.23A.66.66,0,0,1,147.26,117.31Z" style="fill: rgb(38, 50, 56); transform-origin: 146.75px 116.178px;" id="elxb3gtsjm95" class="animable"></path><path d="M143.43,120.54s.07.08,0,.13c-.47,1.08-.82,2.39,0,3.14,0,0,0,.08,0,.06C142.33,123.22,142.82,121.49,143.43,120.54Z" style="fill: rgb(38, 50, 56); transform-origin: 143.119px 122.207px;" id="el8mt38iiz2ad" class="animable"></path><path d="M144.86,119.78c1.81.57.55,4.15-1.12,3.62S143.35,119.31,144.86,119.78Z" style="fill: rgb(38, 50, 56); transform-origin: 144.349px 121.595px;" id="el5977e0zont" class="animable"></path><path d="M145.5,120.22c.24.31.42.78.78,1s.88-.06,1.3-.32c0,0,.06,0,0,.06-.23.69-.74,1.3-1.51,1.14s-1-.92-.9-1.67C145.22,120.24,145.4,120.1,145.5,120.22Z" style="fill: rgb(38, 50, 56); transform-origin: 146.377px 121.151px;" id="eltt1iwm42a9c" class="animable"></path><path d="M137,117.93c0-.05-.1,0-.12.06-.34,1.13-.93,2.35-2.06,2.38,0,0-.05.06,0,.06C136.08,120.68,136.84,119,137,117.93Z" style="fill: rgb(38, 50, 56); transform-origin: 135.899px 119.182px;" id="ele1pxgr5w89f" class="animable"></path><path d="M136.39,116.42c-1.74-.75-3.11,2.79-1.5,3.48S137.85,117.05,136.39,116.42Z" style="fill: rgb(38, 50, 56); transform-origin: 135.594px 118.153px;" id="elr12h4hfexnl" class="animable"></path><path d="M135.56,116.37c-.35.08-.76.31-1.1.21s-.53-.62-.64-1.08c0,0,0,0-.07,0-.28.67-.33,1.46.27,1.84s1.21-.06,1.63-.67C135.73,116.57,135.7,116.34,135.56,116.37Z" style="fill: rgb(38, 50, 56); transform-origin: 134.622px 116.491px;" id="elmi8psthv66" class="animable"></path><path d="M140.34,129.56a1.77,1.77,0,0,1-1.1.49,3.23,3.23,0,0,1-1.18-.53s-.08,0-.06,0a1.58,1.58,0,0,0,1.34.91,1.25,1.25,0,0,0,1.11-.85C140.48,129.57,140.39,129.53,140.34,129.56Z" style="fill: rgb(38, 50, 56); transform-origin: 139.226px 129.975px;" id="elvaffxmpj5q" class="animable"></path><path d="M136.67,124s-.66,1.64-.87,2.44c0,.08.17.16.43.25h0a3.92,3.92,0,0,0,4.06-.48c.08-.07,0-.17-.09-.14a6,6,0,0,1-3.73.11c0-.24,1.23-2.77,1.11-2.82a7.18,7.18,0,0,0-1.93-.05c1.3-3.46,3.14-6.68,4.37-10.14.05-.12-.13-.21-.19-.1a59.4,59.4,0,0,0-5.17,10.72C134.51,124.24,136.32,124.06,136.67,124Z" style="fill: rgb(38, 50, 56); transform-origin: 137.487px 120.034px;" id="el2cjtkp61rpv" class="animable"></path><path d="M136.55,126.34a4.69,4.69,0,0,0,1.27,2,2,2,0,0,0,1.16.49c1,.08,1.25-.7,1.33-1.43a4.87,4.87,0,0,0,0-1.17A6,6,0,0,1,136.55,126.34Z" style="fill: rgb(38, 50, 56); transform-origin: 138.448px 127.533px;" id="elpaugb5kqqb" class="animable"></path><path d="M137.82,128.31a2,2,0,0,0,1.16.49c1,.08,1.25-.7,1.33-1.43A2.15,2.15,0,0,0,137.82,128.31Z" style="fill: rgb(255, 154, 187); transform-origin: 139.065px 128.038px;" id="elwp5upnupci" class="animable"></path><path d="M156.52,129.1c-3.34-1.5-.16-9.25-.16-9.25s-1.64-1.61-2.31-6.48c0,0,.12,4,1.75,6.35.27.4-10.76-5.76-8-15.07a19.44,19.44,0,0,1-15.09,5.58c-.29,0,4.21-7.61,6.71-8.74a18.29,18.29,0,0,1,4.53-1.41,18,18,0,0,1,13.46,2.11c6.63,4.1,8,13.55,7.26,16.84C163.11,125.49,158.11,129.81,156.52,129.1Z" style="fill: rgb(38, 50, 56); transform-origin: 148.773px 114.386px;" id="el9lib7akmdgl" class="animable"></path><path d="M155.35,119.76c-6.17-3-9.44-9.19-7.18-15.84a.15.15,0,0,0-.27-.12c-3.68,6.15,1.3,14,7.46,16.09C155.51,119.94,155.49,119.83,155.35,119.76Z" style="fill: rgb(38, 50, 56); transform-origin: 151.054px 111.818px;" id="elaho7mxc80sk" class="animable"></path><path d="M148,104.42s0-.07-.05,0c-3.05,2.61-7.22,7.76-11.81,5.48-.12-.06-.23.11-.11.18C140.24,112.62,145.94,108,148,104.42Z" style="fill: rgb(38, 50, 56); transform-origin: 141.989px 107.6px;" id="el2z4gspwk3vq" class="animable"></path><path d="M155.38,127.38s5.2-4,7.13-2-3.11,8.61-6.17,8.76a2.92,2.92,0,0,1-3.26-2.66Z" style="fill: rgb(211, 118, 106); transform-origin: 158.009px 129.491px;" id="elf7m1l4ek3fj" class="animable"></path><path d="M161,127.24s0,.07,0,.08c-2.16.17-3.73,1.63-5,3.26a1.61,1.61,0,0,1,2.43.3c0,.05,0,.11-.08.09a1.79,1.79,0,0,0-2.07,0,9.07,9.07,0,0,0-1.39,1.24c-.14.14-.42,0-.29-.22l0,0C155.34,129.49,158.31,126.66,161,127.24Z" style="fill: rgb(38, 50, 56); transform-origin: 157.783px 129.715px;" id="eloh5ricmjg3" class="animable"></path><path d="M122.38,178.55s9.49.77,14.34,2.71A33.65,33.65,0,0,1,149.55,191c3.72,4.56,9.55,18.13,5.94,20.49-3.28,2.14-8.54-12-8.54-12s7.75,13.57,3.33,15.42-9.58-14.95-9.58-14.95,7.65,14.12,2.79,15.31c-3.67.89-9.21-14.06-9.21-14.06s6.49,12.18,2.76,13.27c-4.13,1.19-10.11-12.29-10.11-12.29-10,1.16-15.18-2.57-18.59-5.52C107.51,195.9,122.38,178.55,122.38,178.55Z" style="fill: rgb(211, 118, 106); transform-origin: 132.466px 196.929px;" id="elcju1wjka8y9" class="animable"></path><path d="M144.57,194.57c1,1.56,2,3.13,2.78,4.77s1.6,3.32,2.27,5a31.58,31.58,0,0,1,2,6.91,67.8,67.8,0,0,0-4.69-11.72c-.83-1.64-1.57-3.32-2.39-5A0,0,0,1,1,144.57,194.57Z" style="fill: rgb(38, 50, 56); transform-origin: 148.08px 202.89px;" id="elc4hbcdrtgln" class="animable"></path><path d="M138.59,197.44c1.15,2.05,2.36,4,3.42,6.14s1.88,4.16,2.78,6.31c.07.17,0,.15-.12,0-1-2.12-2.07-4-3.09-6.1s-2-4.25-3-6.31A0,0,0,1,1,138.59,197.44Z" style="fill: rgb(38, 50, 56); transform-origin: 141.699px 203.725px;" id="eld9ngvdocb1i" class="animable"></path><path d="M133,199a52.26,52.26,0,0,1,4.52,9.78c.06.17-.08.13-.15,0-1.45-3.28-2.55-5.86-4.48-9.68C132.87,199,133,198.92,133,199Z" style="fill: rgb(38, 50, 56); transform-origin: 135.211px 203.93px;" id="el6sb8c495etp" class="animable"></path><path d="M116,177c-.59.88-11.07,11-11.74,15.47s12.79-3,12.79-3Z" style="fill: rgb(38, 50, 56); transform-origin: 110.643px 185.448px;" id="el84gpzk7stsk" class="animable"></path><path d="M148.92,152c-16.8,10-44.3,34.92-45.08,41.78-.57,5-.59,9.86,1.36,12.43,4,5.24,12.49,4.73,15.5,2.89,13.15-8,27.47-25.89,36.78-44.55C165.65,148.2,154.39,148.76,148.92,152Z" style="fill: rgb(38, 50, 56); transform-origin: 131.931px 180.283px;" id="eldhpjk9ek47" class="animable"></path><path d="M111.49,182.89a128,128,0,0,1,26.38-23.37l-3.35,2.87c-7.4,6.42-15.92,13.78-23,20.5Z" style="fill: rgb(69, 90, 100); transform-origin: 124.68px 171.205px;" id="elucvc8ntp86j" class="animable"></path><path d="M154.75,169.76a122.07,122.07,0,0,1-19.28,27.12c-1.87,2.06-3.84,4-5.88,5.93-4.07,3.72-8.71,8-14.62,7.76a14.8,14.8,0,0,1-8-2.61,18,18,0,0,0,8,1.75c5.64,0,10.07-3.92,14-7.54q3-2.8,5.91-5.82a132.21,132.21,0,0,0,19.84-26.59Z" style="fill: rgb(69, 90, 100); transform-origin: 130.86px 190.17px;" id="elctlkx18wuib" class="animable"></path><path d="M151.61,175.31a25,25,0,0,1,3.49-3.7,8.65,8.65,0,0,1-3.49,3.7Z" style="fill: rgb(69, 90, 100); transform-origin: 153.355px 173.46px;" id="el6mjm9cindy3" class="animable"></path><g id="el4je13g51zvv"><path d="M142.28,156.36c3.8-3.35,14.74-11.16,17.86-3.63.69,2.28.17,4.72-.5,6.91a35.41,35.41,0,0,1-3.84,8.19c1.65-4,5.94-12.89,2.33-16.42-4.15-2.94-12.13,2.65-15.85,5Z" style="opacity: 0.1; transform-origin: 151.373px 158.695px;" class="animable"></path></g></g><g id="freepik--speech-bubble--inject-12" class="animable" style="transform-origin: 662.859px 87.9153px;"><path d="M691,90.56a25.64,25.64,0,0,1-42.83,16.22l-12.82,1.88,6.42-11.09a25.31,25.31,0,0,1-1.76-12.34,25.63,25.63,0,0,1,51,5.33Z" style="fill: rgb(255, 255, 255); transform-origin: 663.249px 87.8942px;" id="elkk74p09gtj8" class="animable"></path><path d="M691,90.56a25.76,25.76,0,0,1-5.17,13,23.66,23.66,0,0,1-5,5,25,25,0,0,1-6.18,3.44,25.26,25.26,0,0,1-6.91,1.65,26.42,26.42,0,0,1-3.56.07,23.35,23.35,0,0,1-3.54-.37A26,26,0,0,1,648,107.05l.31.09-12.81,2-.93.14.47-.82,6.38-11.11,0,.44a25.93,25.93,0,0,1,1.57-22.85,26.37,26.37,0,0,1,8-8.55,26.1,26.1,0,0,1,22.53-3,26.23,26.23,0,0,1,9.89,6.06A25.79,25.79,0,0,1,691,90.56Zm0,0A25.37,25.37,0,0,0,662,62.82,25.17,25.17,0,0,0,651.39,67a26.35,26.35,0,0,0-7.67,8.37,25.21,25.21,0,0,0-1.45,22l.09.23-.12.21-6.46,11.07-.46-.68,12.84-1.8.18,0,.12.11a25.3,25.3,0,0,0,12.28,6.33,22.5,22.5,0,0,0,3.48.42,24.06,24.06,0,0,0,3.5,0,25.14,25.14,0,0,0,6.85-1.5,23.71,23.71,0,0,0,6.18-3.34,23.12,23.12,0,0,0,5-4.9A25.83,25.83,0,0,0,691,90.56Z" style="fill: rgb(38, 50, 56); transform-origin: 662.856px 87.9153px;" id="el9j3s55wudl" class="animable"></path><polygon points="662.3 102.51 651.35 91.43 655.03 87.8 661.42 94.27 674.71 73.44 679.07 76.22 662.3 102.51" style="fill: rgb(220, 38, 38); transform-origin: 665.21px 87.975px;" id="elj8nueyp3d3r" class="animable"></polygon></g><defs>     <filter id="active" height="200%">         <feMorphology in="SourceAlpha" result="DILATED" operator="dilate" radius="2"></feMorphology>                <feFlood flood-color="#32DFEC" flood-opacity="1" result="PINK"></feFlood>        <feComposite in="PINK" in2="DILATED" operator="in" result="OUTLINE"></feComposite>        <feMerge>            <feMergeNode in="OUTLINE"></feMergeNode>            <feMergeNode in="SourceGraphic"></feMergeNode>        </feMerge>    </filter>    <filter id="hover" height="200%">        <feMorphology in="SourceAlpha" result="DILATED" operator="dilate" radius="2"></feMorphology>                <feFlood flood-color="#ff0000" flood-opacity="0.5" result="PINK"></feFlood>        <feComposite in="PINK" in2="DILATED" operator="in" result="OUTLINE"></feComposite>        <feMerge>            <feMergeNode in="OUTLINE"></feMergeNode>            <feMergeNode in="SourceGraphic"></feMergeNode>        </feMerge>            <feColorMatrix type="matrix" values="0   0   0   0   0                0   1   0   0   0                0   0   0   0   0                0   0   0   1   0 "></feColorMatrix>    </filter></defs></svg>