<?xml version="1.0" encoding="UTF-8"?>
<svg id="a" xmlns="http://www.w3.org/2000/svg" version="1.1" viewBox="0 0 1193.5 546.7">
  <!-- Generator: Adobe Illustrator 30.3.0, SVG Export Plug-In . SVG Version: 2.1.3 Build 182)  -->
  <defs>
    <style>
      .st0 {
        fill: #6cf4ba;
      }

      .st1 {
        fill: #f2f2f2;
      }
    </style>
  </defs>
  <path class="st1" d="M6.3,196.4h46.5c-1.8,23.7,17.9,40.7,47.5,40.7s42.2-12.6,43.4-28.4c4-46.5-135.6-7.4-127.9-94.6,3.7-43.1,42.8-72.7,95.8-72.7s89.1,32,85.4,76.1h-45c2.2-21.6-16-37-42.5-37s-41.6,11.4-42.8,26.8c-4,44.7,135.9,6.2,128.2,94-3.7,43.8-43.8,74.9-99.5,74.9S2.2,242.6,6.3,196.4Z"/>
  <path class="st1" d="M241.7,145.9h-22.2l3.1-35.1h24.3l8.6-39.8h38.8l-3.4,39.8h35.8l-3.1,35.1h-35.8l-5.9,66.9c-1.2,13.2,6.2,22.2,19.1,22.2s11.1-.9,16.3-2.2l-3.4,37c-9.5,3.1-22.2,4.9-32,4.9-31.4,0-49.6-23.7-46.5-57.3l6.2-71.5h0Z"/>
  <path class="st1" d="M483.3,110.7h46.2l-13.9,157.8h-46.2l1.9-21.9c-13.9,17.6-33.6,28-56.1,28-44.4,0-72.4-35.1-68.1-85.1,4.6-49.9,38.8-85.1,83.2-85.1s40.4,10.5,51.1,28l1.9-21.9h0ZM475.9,189.6c2.5-25.6-13.2-44.4-37.3-44.4s-42.8,18.8-45.3,44.4c-2.2,25.6,13.6,44.4,37.6,44.4s42.8-18.8,45-44.4h0Z"/>
  <path class="st1" d="M675,108.9l-3.4,41c-8.6-3.7-18.8-5.9-25.6-5.9-20,0-34.5,16.9-36.7,40.7l-7.4,83.8h-46.2l13.9-157.8h44.4l-1.8,20c10.8-15.7,26.8-25.9,44.4-25.9s12.6,1.5,18.5,4h0s0,0,0,0Z"/>
  <path class="st1" d="M710.7,145.9h-22.2l3.1-35.1h24.3l8.6-39.8h38.8l-3.4,39.8h35.8l-3.1,35.1h-35.8l-5.8,66.9c-1.2,13.2,6.2,22.2,19.1,22.2s11.1-.9,16.3-2.2l-3.4,37c-9.5,3.1-22.2,4.9-32,4.9-31.4,0-49.6-23.7-46.5-57.3l6.2-71.5Z"/>
  <path class="st1" d="M818.5,209.4l13.6-151.6h46.2l-13,143.6c-1.5,19.1,8.3,32.7,26.5,32.7s34.2-14.5,36-34.5l7.7-88.8h46.2l-13.9,157.8h-45l1.8-21.3c-12.6,16.9-32,27.4-52.7,27.4-35.4,0-57-27.4-53.6-65.3h0Z"/>
  <path class="st1" d="M1048.1,339.4h-46.2l20-228.6h45.6l-1.8,19.1c13.9-15.7,33.3-25.3,55.2-25.3,43.8,0,71.8,35.1,67.2,85.1-4.3,49.9-38.2,85.1-82.3,85.1s-38.8-9.2-49.9-25.3l-7.7,90h0ZM1104.5,146.2c-24,0-43.1,18.5-45.3,43.4s13.6,43.4,37.6,43.4,42.8-18.5,45-43.4c2.5-25.3-13.6-43.4-37.3-43.4h0Z"/>
  <path class="st0" d="M348.3,454.6c-11.4,48.4-60.1,83.2-116.2,83.2s-112.8-49.3-106.9-117.4c5.8-68.1,59.5-117.4,127.3-117.4s98,35.8,101.4,85.4l-48.7,5.5c-4-27.1-26.8-46.5-55.2-46.5s-69.3,30.2-73,73,21.3,73,60.1,73,54.5-19.1,63.5-45l47.8,6.2h0Z"/>
  <path class="st0" d="M512.5,372.3h46.2l-13.9,157.8h-46.2l1.9-21.9c-13.9,17.6-33.6,28-56.1,28-44.4,0-72.4-35.1-68.1-85,4.6-49.9,38.8-85,83.2-85s40.4,10.5,51.1,28l1.9-21.9h0ZM505.2,451.2c2.5-25.6-13.2-44.4-37.3-44.4s-42.8,18.8-45.3,44.4c-2.2,25.6,13.6,44.4,37.6,44.4s42.8-18.8,45-44.4h0Z"/>
  <path class="st0" d="M704.2,370.5l-3.4,41c-8.6-3.7-18.8-5.9-25.6-5.9-20,0-34.5,17-36.7,40.7l-7.4,83.8h-46.2l13.9-157.8h44.4l-1.8,20c10.8-15.7,26.8-25.9,44.4-25.9s12.6,1.5,18.5,4h0s0,0,0,0Z"/>
  <path class="st0" d="M857.1,301.5h46.2l-20,228.6h-45.6l1.5-19.1c-13.6,15.7-32.7,25.3-54.8,25.3-43.8,0-71.8-35.1-67.5-85,4.6-49.9,38.8-85,82.6-85s38.8,9.2,49.6,25.3l8-90h0,0ZM800.7,494.7c24,0,42.8-18.5,45-43.5,2.2-25-13.2-43.5-37.3-43.5s-43.1,18.5-45.3,43.5c-2.2,25.3,13.9,43.5,37.6,43.5h0Z"/>
  <path class="st0" d="M921.8,477.4h39.1c-1.2,15.7,12.3,26.8,32.4,26.8s30.2-8,31.1-18.8c2.5-31.7-101.7-.3-95.8-66.9,2.8-30.8,33.9-53,72.4-53s70.6,22.8,68.1,54.5h-40.7c.9-12.9-12-21.9-30.5-21.9s-26.5,7.4-27.4,17.6c-2.8,30.2,103.5,5.2,98.6,64.7-2.8,32.7-35.4,56.4-79.2,56.4s-71.2-25-68.1-59.5h0Z"/>
  <polygon class="st1" points="863.1 6.2 812.8 51.8 901.4 51.8 863.1 6.2"/>
</svg>