<?xml version="1.0" encoding="UTF-8"?><svg xmlns="http://www.w3.org/2000/svg" viewBox="0 0 1193.52 546.68"><defs><style>.d{fill:none;}.e{fill:#059669;}</style></defs><g id="b" shape-rendering="geometricPrecision"><rect class="d" x="98.7" y="49.46" width="0" height="7.27"/><path d="M6.26,196.41h46.53c-1.85,23.73,17.87,40.68,47.46,40.68,25.58,0,42.22-12.63,43.45-28.35,4.01-46.53-135.59-7.4-127.88-94.6,3.7-43.14,42.83-72.72,95.83-72.72s89.06,32.05,85.36,76.11h-44.99c2.16-21.57-16.02-36.98-42.52-36.98-24.34,0-41.6,11.4-42.83,26.81-4.01,44.68,135.9,6.16,128.19,93.99-3.7,43.76-43.76,74.88-99.53,74.88S2.25,242.63,6.26,196.41Z"/><path d="M241.69,145.87h-22.19l3.08-35.13h24.34l8.63-39.75h38.83l-3.39,39.75h35.75l-3.08,35.13h-35.75l-5.85,66.87c-1.23,13.25,6.16,22.19,19.11,22.19,4.31,0,11.09-.92,16.33-2.16l-3.39,36.98c-9.55,3.08-22.19,4.93-32.05,4.93-31.43,0-49.61-23.73-46.53-57.32l6.16-71.49Z"/><path d="M483.28,110.74h46.22l-13.87,157.77h-46.22l1.85-21.88c-13.87,17.56-33.59,28.04-56.08,28.04-44.37,0-72.42-35.13-68.1-85.05,4.62-49.92,38.83-85.05,83.2-85.05,22.5,0,40.37,10.48,51.15,28.04l1.85-21.88ZM475.88,189.63c2.46-25.58-13.25-44.37-37.29-44.37s-42.83,18.8-45.3,44.37c-2.16,25.58,13.56,44.37,37.59,44.37s42.83-18.8,44.99-44.37Z"/><path d="M674.95,108.89l-3.39,40.98c-8.63-3.7-18.8-5.85-25.58-5.85-20.03,0-34.51,16.95-36.67,40.68l-7.4,83.82h-46.22l13.87-157.77h44.37l-1.85,20.03c10.79-15.72,26.81-25.88,44.37-25.88,6.16,0,12.63,1.54,18.49,4.01Z"/><path d="M710.7,145.87h-22.19l3.08-35.13h24.34l8.63-39.75h38.83l-3.39,39.75h35.75l-3.08,35.13h-35.75l-5.85,66.87c-1.23,13.25,6.16,22.19,19.11,22.19,4.31,0,11.09-.92,16.33-2.16l-3.39,36.98c-9.55,3.08-22.19,4.93-32.05,4.93-31.43,0-49.61-23.73-46.53-57.32l6.16-71.49Z"/><path d="M818.55,209.35l13.63-151.64h46.22l-13.01,143.63c-1.54,19.11,8.32,32.66,26.5,32.66s34.2-14.48,36.05-34.51l7.7-88.75h46.22l-13.87,157.77h-44.99l1.85-21.26c-12.63,16.95-32.05,27.43-52.69,27.43-35.44,0-57.01-27.43-53.62-65.33Z"/><path d="M1048.13,339.39h-46.22l20.03-228.65h45.61l-1.85,19.11c13.87-15.72,33.28-25.27,55.16-25.27,43.76,0,71.8,35.13,67.18,85.05-4.31,49.92-38.21,85.05-82.28,85.05-21.57,0-38.83-9.24-49.92-25.27l-7.7,89.98ZM1104.52,146.18c-24.04,0-43.14,18.49-45.3,43.45s13.56,43.45,37.59,43.45,42.83-18.49,44.99-43.45c2.46-25.27-13.56-43.45-37.29-43.45Z"/><path class="e" d="M348.31,454.6c-11.4,48.38-60.09,83.2-116.17,83.2-67.79,0-112.78-49.3-106.93-117.41,5.85-68.1,59.47-117.41,127.27-117.41,55.47,0,97.99,35.75,101.38,85.36l-48.69,5.55c-4.01-27.12-26.81-46.53-55.16-46.53-39.14,0-69.33,30.2-73.03,73.03s21.26,73.03,60.09,73.03c27.73,0,54.54-19.11,63.48-44.99l47.76,6.16Z"/><path class="e" d="M512.55,372.33h46.22l-13.87,157.77h-46.22l1.85-21.88c-13.87,17.56-33.59,28.04-56.08,28.04-44.37,0-72.42-35.13-68.1-85.05,4.62-49.92,38.83-85.05,83.2-85.05,22.5,0,40.37,10.48,51.15,28.04l1.85-21.88ZM505.16,451.21c2.46-25.58-13.25-44.37-37.29-44.37s-42.83,18.8-45.3,44.37c-2.16,25.58,13.56,44.37,37.59,44.37s42.83-18.8,44.99-44.37Z"/><path class="e" d="M704.23,370.48l-3.39,40.98c-8.63-3.7-18.8-5.85-25.58-5.85-20.03,0-34.51,16.95-36.67,40.68l-7.4,83.82h-46.22l13.87-157.77h44.37l-1.85,20.03c10.79-15.72,26.81-25.88,44.37-25.88,6.16,0,12.63,1.54,18.49,4.01Z"/><path class="e" d="M857.07,301.45h46.22l-20.03,228.65h-45.61l1.54-19.11c-13.56,15.72-32.66,25.27-54.85,25.27-43.76,0-71.8-35.13-67.49-85.05,4.62-49.92,38.83-85.05,82.58-85.05,21.57,0,38.83,9.24,49.61,25.27l8.01-89.98ZM800.68,494.66c24.04,0,42.83-18.49,44.99-43.45,2.16-24.96-13.25-43.45-37.29-43.45s-43.14,18.49-45.3,43.45c-2.16,25.27,13.87,43.45,37.59,43.45Z"/><path class="e" d="M921.78,477.41h39.13c-1.23,15.72,12.33,26.81,32.36,26.81,16.95,0,30.2-8.01,31.12-18.8,2.46-31.74-101.69-.31-95.83-66.87,2.77-30.82,33.9-53,72.42-53,42.22,0,70.57,22.8,68.1,54.54h-40.68c.92-12.94-12.02-21.88-30.51-21.88-14.48,0-26.5,7.4-27.43,17.56-2.77,30.2,103.54,5.24,98.61,64.71-2.77,32.66-35.44,56.39-79.19,56.39s-71.18-24.96-68.1-59.47Z"/><polygon points="863.1 6.22 812.84 51.79 901.36 51.79 863.1 6.22"/></g></svg>