<svg class="animated" id="freepik_stories-track-cycling" xmlns="http://www.w3.org/2000/svg" viewBox="0 0 663.1 407.78" version="1.1" xmlns:xlink="http://www.w3.org/1999/xlink" xmlns:svgjs="http://svgjs.com/svgjs"><style>svg#freepik_stories-track-cycling:not(.animated) .animable {opacity: 0;}svg#freepik_stories-track-cycling.animated #freepik--background-complete--inject-2 {animation: 1s 1 forwards cubic-bezier(.36,-0.01,.5,1.38) slideRight;animation-delay: 0s;}svg#freepik_stories-track-cycling.animated #freepik--character-2--inject-2 {animation: 1s 1 forwards cubic-bezier(.36,-0.01,.5,1.38) lightSpeedLeft;animation-delay: 0s;}svg#freepik_stories-track-cycling.animated #freepik--character-1--inject-2 {animation: 1s 1 forwards cubic-bezier(.36,-0.01,.5,1.38) lightSpeedLeft;animation-delay: 0.2s;opacity: 0}svg#freepik_stories-track-cycling.animated #freepik--Floor--inject-2 {animation: 1.7s 1 forwards cubic-bezier(.36,-0.01,.5,1.38) fadeIn;animation-delay: 0.2s;opacity: 0}svg#freepik_stories-track-cycling.animated #freepik--Lines--inject-2 {animation: 1s 1 forwards cubic-bezier(.36,-0.01,.5,1.38) slideRight;animation-delay: 0.2s;opacity: 0}            @keyframes slideRight {                0% {                    opacity: 0;                    transform: translateX(30px);                }                100% {                    opacity: 1;                    transform: translateX(0);                }            }                    @keyframes lightSpeedLeft {              from {                transform: translate3d(-50%, 0, 0) skewX(20deg);                opacity: 0;              }              60% {                transform: skewX(-10deg);                opacity: 1;              }              80% {                transform: skewX(2deg);              }              to {                opacity: 1;                transform: translate3d(0, 0, 0);              }            }                    @keyframes fadeIn {                0% {                    opacity: 0;                }                100% {                    opacity: 1;                }            }        </style><g id="freepik--background-complete--inject-2" class="animable" style="transform-origin: 349.365px 233.14px;"><rect x="1.73" y="397.14" width="645.25" height="10.64" style="fill: rgb(235, 235, 235); transform-origin: 324.355px 402.46px;" id="eljrb63ihz7ta" class="animable"></rect><rect x="2.95" y="58.5" width="644.03" height="5.32" style="fill: rgb(235, 235, 235); transform-origin: 324.965px 61.16px;" id="el9tf770yfa5" class="animable"></rect><g id="elwwv18ilhgy"><path d="M53,214.77c206.3-.62,437.72-.62,644,0-206.3.61-437.72.61-644,0Z" style="fill: rgb(219, 219, 219); transform-origin: 375px 214.766px;" class="animable"></path></g><rect x="217.63" y="86.99" width="214.68" height="76.98" style="fill: rgb(219, 219, 219); transform-origin: 324.97px 125.48px;" id="elqoepw0kfi2b" class="animable"></rect><rect x="2.95" y="86.99" width="214.68" height="76.98" style="fill: rgb(235, 235, 235); transform-origin: 110.29px 125.48px;" id="elyakghbh24w" class="animable"></rect><g id="elodsmfgjyqjo"><ellipse cx="160.32" cy="176.01" rx="81.93" ry="22.24" style="fill: rgb(219, 219, 219); transform-origin: 160.32px 176.01px; transform: rotate(-8.03deg);" class="animable"></ellipse></g><rect x="432.3" y="86.99" width="214.68" height="76.98" style="fill: rgb(235, 235, 235); transform-origin: 539.64px 125.48px;" id="el586te0byyfh" class="animable"></rect><g id="eltjlb605bdfe"><ellipse cx="589.68" cy="176.01" rx="81.93" ry="22.24" style="fill: rgb(219, 219, 219); transform-origin: 589.68px 176.01px; transform: rotate(-8.03deg);" class="animable"></ellipse></g><g id="elj96opigezm"><rect x="657.45" y="123.28" width="23.17" height="5.32" style="fill: rgb(235, 235, 235); transform-origin: 669.035px 125.94px; transform: rotate(90deg);" class="animable"></rect></g><g id="ell73t9z9dos8"><rect x="583.94" y="123.28" width="23.17" height="5.32" style="fill: rgb(235, 235, 235); transform-origin: 595.525px 125.94px; transform: rotate(90deg);" class="animable"></rect></g><g id="elzccrtm5umxf"><rect x="510.43" y="123.28" width="23.17" height="5.32" style="fill: rgb(235, 235, 235); transform-origin: 522.015px 125.94px; transform: rotate(90deg);" class="animable"></rect></g><g id="elo01nxyi7zas"><rect x="436.92" y="123.28" width="23.17" height="5.32" style="fill: rgb(235, 235, 235); transform-origin: 448.505px 125.94px; transform: rotate(90deg);" class="animable"></rect></g><g id="el4wt469l0irw"><rect x="363.42" y="123.28" width="23.17" height="5.32" style="fill: rgb(235, 235, 235); transform-origin: 375.005px 125.94px; transform: rotate(90deg);" class="animable"></rect></g><g id="eln00ie1l4pa"><rect x="289.91" y="123.28" width="23.17" height="5.32" style="fill: rgb(235, 235, 235); transform-origin: 301.495px 125.94px; transform: rotate(90deg);" class="animable"></rect></g><g id="el1hkd14cz2rb"><rect x="216.4" y="123.28" width="23.17" height="5.32" style="fill: rgb(235, 235, 235); transform-origin: 227.985px 125.94px; transform: rotate(90deg);" class="animable"></rect></g><g id="el38g15d0ummt"><rect x="142.89" y="123.28" width="23.17" height="5.32" style="fill: rgb(235, 235, 235); transform-origin: 154.475px 125.94px; transform: rotate(90deg);" class="animable"></rect></g><g id="elizri6j7cxye"><rect x="69.39" y="123.28" width="23.17" height="5.32" style="fill: rgb(235, 235, 235); transform-origin: 80.975px 125.94px; transform: rotate(90deg);" class="animable"></rect></g></g><g id="freepik--character-2--inject-2" class="animable" style="transform-origin: 495.215px 240.185px;"><g id="el4sftb2ycguh"><path d="M517.92,288.6l-39.6-23.43S507.09,211,506.55,206c-.56-5.24-54-25.07-62-47.42-9.42-26.54,22.34-40.17,22.34-40.17l45.56,26.69s-5.52,5.47-5.31,6.92c.24,1.71,51.85,22.22,52.68,43.65C561,226,517.92,288.6,517.92,288.6Z" style="fill: rgb(247, 169, 160); transform-origin: 501.324px 203.505px;" class="animable"></path></g><g id="eljosz9q7o5cj"><path d="M540,171l-39.13,30.34c-14-8.42-50-24.79-56.33-42.78-9.42-26.54,22.34-40.17,22.34-40.17l45.56,26.69s-5.51,5.47-5.31,6.92C507.31,153,524.83,160.51,540,171Z" style="fill: rgb(69, 90, 100); transform-origin: 491.397px 159.865px;" class="animable"></path></g><g id="eldmcs687d3c"><path d="M520.3,333.42c-2.67-.61-54.13-34.94-55.6-37.94-.58-1.14.84-8.88,7.33-20.24l.21-.36c1.33-2.34,17.41-31.13,17.41-31.13L532,266.1l-18.71,33.28-.44.68s17.59,25.63,18.86,29.1S523,334,520.3,333.42Z" style="fill: rgb(235, 235, 235); transform-origin: 498.291px 288.649px;" class="animable"></path></g><g id="elk3gkjxyyhsf"><path d="M472.24,274.88s-6.94,7.5-8.48,12.16-1.09,11.95.1,12.73L475,307c1.06.69,3.87.45,5.19,1.31s2.3,3.58,4.95,5.31,23.44,16.49,31.3,19.34c7.15,2.6,18.3.36,19.82-3.28s-12.58-16.48-16.65-22.27c-6.11-8.72-5.73-9.79-5.73-9.79s-24.72-7.09-31.66-11.24c-1.54-.92-1.65-5.78-2.85-7.11C477.8,277.54,472.24,274.88,472.24,274.88Z" style="fill: rgb(156, 163, 175); transform-origin: 499.575px 304.483px;" class="animable"></path></g><g id="elodpuvu8patp"><path d="M515.38,299c1,1.06,2.92,3.8,2.29,4.15-.83.47-10,3-10.44,2.53-1-1.15-3.57-3.93-3.09-4.66S514.77,298.36,515.38,299Z" style="fill: rgb(38, 50, 56); transform-origin: 510.938px 302.305px;" class="animable"></path></g><g id="elmexj7r242ij"><path d="M521.19,306.3c1,1.06,2.93,3.8,2.3,4.15s-9.4,3.69-10.44,2.54-3.27-3.74-2.79-4.47S520.59,305.65,521.19,306.3Z" style="fill: rgb(38, 50, 56); transform-origin: 516.904px 309.704px;" class="animable"></path></g><g id="elz1tjmrgw68h"><path d="M527,313.6c1,1.06,2.92,3.8,2.3,4.15s-8.9,3.58-9.95,2.43-3.16-3.25-2.69-4S526.41,313,527,313.6Z" style="fill: rgb(38, 50, 56); transform-origin: 523.007px 316.966px;" class="animable"></path></g><g id="elc2bugmhf6wt"><path d="M536.26,329.71c-1.53,3.64-12.68,5.88-19.83,3.28-7.86-2.85-28.66-17.61-31.3-19.34s-3.63-4.45-4.95-5.31-4.13-.62-5.18-1.31l-11.14-7.27c-1.19-.77-1.63-8.05-.1-12.72s8.48-12.15,8.48-12.15l14.84-26.53a.12.12,0,0,1,.05-.07c8.4-16.36,19.76-39.15,19.43-42.3-.11-1-2.23-2.59-5.64-4.64h0c-1.75-1.06-3.85-2.22-6.18-3.52-.3-.15-.6-.31-.89-.49l-4.75-2.59-1-.55c-3.35-1.84-7-3.84-10.59-6l-.53-.32-1.36-.81c-.83-.49-1.66-1-2.48-1.5-.53-.31-1.06-.65-1.59-1-2.25-1.41-4.48-2.87-6.64-4.37-.87-.6-1.71-1.2-2.55-1.83-.42-.3-.84-.6-1.25-.92-.82-.61-1.62-1.23-2.41-1.87l-1.06-.85-.11-.1c-.76-.64-1.51-1.28-2.23-1.92l-1.07-1-1-.89c-.36-.36-.72-.72-1.06-1.08s-.64-.65-.95-1l-.91-1c-.27-.32-.55-.64-.81-1l0-.05c-.28-.34-.55-.67-.81-1s-.51-.67-.76-1-.47-.68-.7-1-.44-.69-.65-1-.41-.68-.59-1-.37-.7-.53-1-.23-.49-.33-.73a4.77,4.77,0,0,1-.22-.52q-.18-.42-.33-.84c-9.42-26.54,22.34-40.18,22.34-40.18l33.66,19.72,11,54.95,14,69.61,2.15,10.72.07.29L514,298.21a7.17,7.17,0,0,0,.27.68c.6,0,1,0,1.12.12,1,1.06,2.92,3.79,2.29,4.15-.12.06-.38.16-.77.3.54.83,1.18,1.79,1.94,2.88a4.63,4.63,0,0,1,2.35,0c1,1.05,2.92,3.79,2.31,4.14-.12.06-.52.23-1.09.46.76.88,1.6,1.81,2.48,2.77,1.13-.2,2-.26,2.12-.08,1,1,2.92,3.8,2.3,4.14a4.54,4.54,0,0,1-.53.24C533.16,322.88,537.1,327.7,536.26,329.71Z" style="fill: rgb(2, 1, 0); opacity: 0.1; transform-origin: 489.604px 226.268px;" class="animable"></path></g><g id="el5owt31en9e"><path d="M379.27,263.14A85.86,85.86,0,1,0,465.15,349,86,86,0,0,0,379.27,263.14Zm0,148.5A62.64,62.64,0,1,1,441.92,349,62.71,62.71,0,0,1,379.31,411.64Z" style="fill: rgb(55, 71, 79); transform-origin: 379.29px 349px;" class="animable"></path></g><g id="elia7gno7368"><path d="M611.13,263.14A85.86,85.86,0,1,0,697,349,86,86,0,0,0,611.13,263.14Zm0,148.49A62.63,62.63,0,1,1,673.79,349,62.7,62.7,0,0,1,611.18,411.63Z" style="fill: rgb(55, 71, 79); transform-origin: 611.14px 349px;" class="animable"></path></g><g id="el4acqh4hiuif"><path d="M429.63,374.58A54,54,0,0,1,386.24,405a59.73,59.73,0,0,0,43.39-30.46Z" style="fill: rgb(166, 166, 166); transform-origin: 407.935px 389.77px;" class="animable"></path></g><g id="elqvtit4ozw8"><path d="M404.88,298.66A55.21,55.21,0,0,1,435.94,348l-.18,4.38-.51,4.34.33-4.35V348a58.29,58.29,0,0,0-30.69-49.32Z" style="fill: rgb(166, 166, 166); transform-origin: 420.41px 327.69px;" class="animable"></path></g><g id="elwsmesjikv3"><path d="M327.54,371.57c-15.54-34.14,7-74.15,44.21-78.68a57.9,57.9,0,0,1,14.88.11c-21-2.54-42.89,7.44-54.26,25.33-10.39,15.5-12.11,36.07-4.83,53.24Z" style="fill: rgb(166, 166, 166); transform-origin: 354.597px 332.017px;" class="animable"></path></g><g id="elz7sru9es9wn"><path d="M353.71,399.33a42,42,0,0,1-17.27-13.55,87.06,87.06,0,0,0,17.27,13.55Z" style="fill: rgb(166, 166, 166); transform-origin: 345.075px 392.555px;" class="animable"></path></g><g id="el3w9g7qtd44p"><path d="M410.79,314.35c31.85,29,11.38,81.73-31.66,81.73a46.61,46.61,0,0,1-46.3-41.34,46.7,46.7,0,0,0,67.81,35.45c28.63-14.31,33.85-54.37,10.15-75.84Z" style="fill: rgb(166, 166, 166); transform-origin: 379.567px 355.215px;" class="animable"></path></g><g id="eltgb0ox2gum"><path d="M619.42,212.05H555.9v-7h63.52a7.53,7.53,0,0,0,4-1.13l15.35-9.53,3.71,6-15.35,9.53A14.57,14.57,0,0,1,619.42,212.05Z" style="fill: rgb(38, 50, 56); transform-origin: 599.19px 203.22px;" class="animable"></path></g><g id="elvdiegx8d5b8"><rect x="429.01" y="190.35" width="8.03" height="58.86" style="fill: rgb(38, 50, 56); transform-origin: 433.025px 219.78px; transform: rotate(-20.91deg);" class="animable"></rect></g><polygon points="331.93 298.86 326.59 295.82 391.27 195.57 395.78 199.81 331.93 298.86" style="fill: rgb(69, 90, 100); transform-origin: 361.185px 247.215px;" id="el1mordw4igw7" class="animable"></polygon><polygon points="443.18 321.43 326.84 304.34 328.05 294.37 439.11 310.82 516.53 196.53 524.1 203.12 443.18 321.43" style="fill: rgb(69, 90, 100); transform-origin: 425.47px 258.98px;" id="el7nzemgk0smq" class="animable"></polygon><g id="elo593ihzr1u"><rect x="459.17" y="234.98" width="10.04" height="136.52" style="fill: rgb(69, 90, 100); transform-origin: 464.19px 303.24px; transform: rotate(-20.42deg);" class="animable"></rect></g><g id="elrdw5klysx5"><rect x="561.14" y="217.46" width="10.04" height="42.99" style="fill: rgb(69, 90, 100); transform-origin: 566.16px 238.955px; transform: rotate(-20.18deg);" class="animable"></rect></g><g id="elu7bdwsihc4r"><rect x="588.24" y="246.31" width="5.02" height="106.68" style="fill: rgb(69, 90, 100); transform-origin: 590.75px 299.65px; transform: rotate(-22.49deg);" class="animable"></rect></g><rect x="391.06" y="193.21" width="125.82" height="9.93" style="fill: rgb(69, 90, 100); transform-origin: 453.97px 198.175px;" id="elybkpjtcx8xc" class="animable"></rect><polygon points="521.05 193.48 521.05 164.56 502.22 164.56 494.22 170.95 494.22 193.48 521.05 193.48" style="fill: rgb(69, 90, 100); transform-origin: 507.635px 179.02px;" id="elssldgfcebo" class="animable"></polygon><polygon points="524.1 148 537.73 148 537.73 167.73 549.59 183.9 573.95 183.9 585.74 177.3 589.29 181.36 575.09 190.05 546.61 190.05 525.93 172.99 524.1 148" style="fill: rgb(69, 90, 100); transform-origin: 556.695px 169.025px;" id="elj72baa0iifl" class="animable"></polygon><rect x="512.48" y="164.56" width="19.34" height="10.46" style="fill: rgb(69, 90, 100); transform-origin: 522.15px 169.79px;" id="el8so6sbtq48m" class="animable"></rect><g id="el79e36t2e1be"><circle cx="379.29" cy="349" r="12.35" style="fill: rgb(38, 50, 56); transform-origin: 379.29px 349px; transform: rotate(-60.44deg);" class="animable"></circle></g><g id="elsf5m5kzdouj"><circle cx="611.15" cy="348.93" r="12.35" style="fill: rgb(38, 50, 56); transform-origin: 611.15px 348.93px; transform: rotate(-61.89deg);" class="animable"></circle></g><polyline points="355.01 142.51 378.05 156.21 391.06 139.74" style="fill: none; stroke: rgb(38, 50, 56); stroke-miterlimit: 10; transform-origin: 373.035px 147.975px;" id="el1zu45dnlplx" class="animable"></polyline><g id="el33nj2kbhqxo"><path d="M394,191.29c6.44,3.27,20.81,4.75,34,2.07,12-2.44,28.88-.24,28.88-4.6,0-1.69-9.43-4-26-3.95-16.27,0-34.67-4.16-41.9-1.19C386,184.9,390.85,189.67,394,191.29Z" style="fill: rgb(38, 50, 56); transform-origin: 422.464px 188.649px;" class="animable"></path></g><g id="elxfrhlsbqi6a"><path d="M642.74,395.74c-23.08,16.19-55.94,11.91-74.31-9.41-18.62-21-18.66-54.19.5-74.89-18.52,20.78-18.55,53.71.06,74.4,18.18,21.33,50.55,25.44,73.75,9.9Z" style="fill: rgb(166, 166, 166); transform-origin: 598.626px 358.504px;" class="animable"></path></g><g id="el8n4cubil9hn"><path d="M577.39,303.67c30.53-23.32,75.15-9.44,87.4,26.85a56.33,56.33,0,0,1,.38,34.9A54.89,54.89,0,0,0,667.39,348a57.57,57.57,0,0,0-4.73-21.37,56.72,56.72,0,0,0-85.27-22.93Z" style="fill: rgb(166, 166, 166); transform-origin: 622.572px 328.811px;" class="animable"></path></g><g id="eluf5lbaltz7c"><path d="M658,348.93c.32,33.32-33.51,56.21-64.36,43.75a46.87,46.87,0,0,1-27.15-29.83,47.36,47.36,0,0,0,27.39,29.23c30.56,12.13,63.7-10.37,64.12-43.15Z" style="fill: rgb(166, 166, 166); transform-origin: 612.246px 372.527px;" class="animable"></path></g><g id="el1xqc0xtssv8"><path d="M564.35,348.93a54.43,54.43,0,0,1,.6-8.05l.18-1.33c.25-1.21.82-3.38,1.11-4.6.52-1.45,1-3,1.59-4.45l1.15-2.45a47.75,47.75,0,0,1,5.79-9.11l1.82-2a46.35,46.35,0,0,1,46.94-13.16c-16.46-4.28-35,1.05-46.43,13.63l-1.8,2c-.91,1.28-2.36,3-3.14,4.31a49,49,0,0,0-5.27,10.78c-.37.88-.83,2.93-1.1,3.86a16.64,16.64,0,0,0-.57,2.61,55.13,55.13,0,0,0-.87,8Z" style="fill: rgb(166, 166, 166); transform-origin: 593.94px 325.47px;" class="animable"></path></g><polygon points="407.08 354.14 400.88 352.08 416.96 311.97 423.15 314.03 407.08 354.14" style="fill: rgb(166, 166, 166); transform-origin: 412.015px 333.055px;" id="el7bfxhj2qxlq" class="animable"></polygon><g id="el0xr4bso4pnti"><rect x="442.23" y="397.6" width="28.87" height="8.38" style="fill: rgb(38, 50, 56); transform-origin: 456.665px 401.79px; transform: rotate(-165.3deg);" class="animable"></rect></g><g id="ell834ui7gij"><path d="M502.34,363.67a1.14,1.14,0,0,1,0-2,1.14,1.14,0,0,0-.14-2.06,1.14,1.14,0,0,1-.25-2,1.14,1.14,0,0,0-.39-2,1.14,1.14,0,0,1-.87-1.11,1.11,1.11,0,0,1,.38-.84,1.07,1.07,0,0,0,.36-.82,1.13,1.13,0,0,0-1-1.14,1.15,1.15,0,0,1-.75-1.87,1.14,1.14,0,0,0-.87-1.88h0a1.13,1.13,0,0,1-1.16-1.13,1.16,1.16,0,0,1,.2-.62,1.14,1.14,0,0,0-.94-1.76h-.17a1.13,1.13,0,0,1-1.29-1.12,1.1,1.1,0,0,1,.11-.5,1.15,1.15,0,0,0-1-1.65,1.18,1.18,0,0,0-.31.05,1.14,1.14,0,0,1-1.43-1.1,1,1,0,0,1,.06-.37,1.14,1.14,0,0,0-1.06-1.5,1.44,1.44,0,0,0-.45.09,1.14,1.14,0,0,1-1.57-1,1.94,1.94,0,0,1,0-.24,1.14,1.14,0,0,0-1.12-1.37,1.06,1.06,0,0,0-.55.15,1.13,1.13,0,0,1-1.69-1v-.09a1.14,1.14,0,0,0-1.14-1.22,1.12,1.12,0,0,0-.68.23,1.11,1.11,0,0,1-.67.23,1.16,1.16,0,0,1-1.15-1.08,1.13,1.13,0,0,0-1.13-1.09,1.17,1.17,0,0,0-.79.32,1.11,1.11,0,0,1-.78.32,1.12,1.12,0,0,1-1.13-.94,1.14,1.14,0,0,0-2-.51,1.13,1.13,0,0,1-.89.42,1.11,1.11,0,0,1-1.08-.8,1.16,1.16,0,0,0-1.1-.8,1.11,1.11,0,0,0-1,.54,1.14,1.14,0,0,1-2-.13,1.1,1.1,0,0,0-1-.66,1.13,1.13,0,0,0-1,.66,1.13,1.13,0,0,1-2,.13,1.11,1.11,0,0,0-1-.54,1.14,1.14,0,0,0-1.09.8,1.14,1.14,0,0,1-1.1.8,1.11,1.11,0,0,1-.88-.42,1.14,1.14,0,0,0-2,.51,1.13,1.13,0,0,1-1.13.94,1.11,1.11,0,0,1-.78-.32,1.15,1.15,0,0,0-.78-.32,1.13,1.13,0,0,0-1.14,1.09,1.16,1.16,0,0,1-1.15,1.08,1.07,1.07,0,0,1-.67-.23,1.13,1.13,0,0,0-1.81.89v.1a1.15,1.15,0,0,1-1.15,1.23,1.21,1.21,0,0,1-.56-.15,1.14,1.14,0,0,0-1.69,1,1.94,1.94,0,0,0,0,.24,1.15,1.15,0,0,1-1.11,1.38,1.12,1.12,0,0,1-.43-.1,1.13,1.13,0,0,0-1.57,1,1,1,0,0,0,.06.37,1.14,1.14,0,0,1-1.07,1.51,1.76,1.76,0,0,1-.31,0,1.14,1.14,0,0,0-1.44,1.09,1.24,1.24,0,0,0,.13.51,1.15,1.15,0,0,1-1,1.63h-.16a1.14,1.14,0,0,0-1.29,1.14,1.08,1.08,0,0,0,.18.61,1.13,1.13,0,0,1-.95,1.75h0a1.14,1.14,0,0,0-1.16,1.15,1.12,1.12,0,0,0,.28.73,1.15,1.15,0,0,1-.75,1.87,1.13,1.13,0,0,0-1,1.14,1.07,1.07,0,0,0,.36.82,1.13,1.13,0,0,1-.49,1.95,1.14,1.14,0,0,0-.39,2,1.12,1.12,0,0,1,.48.92,1.14,1.14,0,0,1-.73,1.07,1.13,1.13,0,0,0-.13,2.06,1.14,1.14,0,0,1,0,2,1.13,1.13,0,0,0,.13,2.06,1.13,1.13,0,0,1,.73,1.08,1.12,1.12,0,0,1-.48.92,1.11,1.11,0,0,0-.48.92,1.13,1.13,0,0,0,.87,1.11,1.13,1.13,0,0,1,.49,1.95,1.09,1.09,0,0,0-.36.83,1.12,1.12,0,0,0,1,1.13,1.14,1.14,0,0,1,1,1.15,1.12,1.12,0,0,1-.26.72,1.14,1.14,0,0,0,.87,1.88h0a1.12,1.12,0,0,1,1.15,1.14,1.21,1.21,0,0,1-.19.62,1.15,1.15,0,0,0,.95,1.76h.16a1.15,1.15,0,0,1,1.3,1.13,1.09,1.09,0,0,1-.11.49,1.14,1.14,0,0,0,1,1.64,1,1,0,0,0,.29-.05,1.15,1.15,0,0,1,1.44,1.1,1.24,1.24,0,0,1-.06.37,1.14,1.14,0,0,0,1.07,1.51,1.44,1.44,0,0,0,.44-.09,1.14,1.14,0,0,1,1.57,1,2,2,0,0,1,0,.24,1.14,1.14,0,0,0,1.11,1.36,1,1,0,0,0,.56-.15,1.15,1.15,0,0,1,1.71,1v.08a1.13,1.13,0,0,0,1.81,1,1.07,1.07,0,0,1,.67-.23,1.16,1.16,0,0,1,1.15,1.09,1.13,1.13,0,0,0,1.14,1.08,1.15,1.15,0,0,0,.78-.32,1.11,1.11,0,0,1,.78-.32,1.13,1.13,0,0,1,1.13.95,1.14,1.14,0,0,0,1.13.93,1.09,1.09,0,0,0,.87-.42,1.15,1.15,0,0,1,2,.37,1.12,1.12,0,0,0,1.09.8,1.11,1.11,0,0,0,1-.54,1.17,1.17,0,0,1,1-.54,1.12,1.12,0,0,1,1,.67,1.14,1.14,0,0,0,1,.67,1.11,1.11,0,0,0,1-.67,1.14,1.14,0,0,1,1-.67,1.17,1.17,0,0,1,1,.54,1.11,1.11,0,0,0,1,.54,1.14,1.14,0,0,0,1.1-.8,1.11,1.11,0,0,1,1.08-.79,1.16,1.16,0,0,1,.89.42,1.12,1.12,0,0,0,.88.42,1.14,1.14,0,0,0,1.12-.93,1.12,1.12,0,0,1,1.13-.95,1.11,1.11,0,0,1,.78.32,1.17,1.17,0,0,0,.79.32,1.13,1.13,0,0,0,1.13-1.08,1.16,1.16,0,0,1,1.15-1.09,1.11,1.11,0,0,1,.67.23,1.14,1.14,0,0,0,1.82-.91v-.08a1.14,1.14,0,0,1,1.13-1.23,1.12,1.12,0,0,1,.56.15,1.14,1.14,0,0,0,1.7-1,1,1,0,0,0,0-.24,1.13,1.13,0,0,1,1.55-1.28,1.14,1.14,0,0,0,1.57-1.06.94.94,0,0,0-.06-.36,1.15,1.15,0,0,1,1.08-1.51,1.55,1.55,0,0,1,.29,0,1.13,1.13,0,0,0,1.33-1.59,1.13,1.13,0,0,1,1-1.63h.16a1.15,1.15,0,0,0,1.29-1.15,1.07,1.07,0,0,0-.18-.6,1.13,1.13,0,0,1,1-1.76h0a1.14,1.14,0,0,0,1.16-1.15,1.17,1.17,0,0,0-.28-.73,1.12,1.12,0,0,1-.26-.72,1.14,1.14,0,0,1,1-1.15,1.14,1.14,0,0,0,.64-2,1.11,1.11,0,0,1-.38-.84,1.14,1.14,0,0,1,.87-1.11,1.13,1.13,0,0,0,.87-1.11,1.11,1.11,0,0,0-.48-.92,1.12,1.12,0,0,1-.48-.92,1.13,1.13,0,0,1,.73-1.08,1.14,1.14,0,0,0,.14-2.06Zm-32.45,24.24a25.25,25.25,0,1,1,25.24-25.25A25.25,25.25,0,0,1,469.89,387.91Zm-.6-54.48" style="fill: rgb(199, 199, 199); transform-origin: 469.941px 362.71px;" class="animable"></path></g><rect x="417.56" y="284.79" width="4.58" height="26.54" style="fill: rgb(199, 199, 199); transform-origin: 419.85px 298.06px;" id="elw0odz1rhzvq" class="animable"></rect><g id="elkqhy8hqq95q"><rect x="455.13" y="344.06" width="4.58" height="26.54" style="fill: rgb(199, 199, 199); transform-origin: 457.42px 357.33px; transform: rotate(-70deg);" class="animable"></rect></g><g id="el5vopq5re7ns"><rect x="448.09" y="369.75" width="26.54" height="4.58" style="fill: rgb(199, 199, 199); transform-origin: 461.36px 372.04px; transform: rotate(-50.01deg);" class="animable"></rect></g><g id="elhs126y72x5"><rect x="474.24" y="360.1" width="4.58" height="26.54" style="fill: rgb(199, 199, 199); transform-origin: 476.53px 373.37px; transform: rotate(-30deg);" class="animable"></rect></g><g id="elv991au4czw7"><rect x="469.69" y="357.28" width="26.54" height="4.58" style="fill: rgb(199, 199, 199); transform-origin: 482.96px 359.57px; transform: rotate(-10.01deg);" class="animable"></rect></g><g id="elg94cblutozq"><circle cx="469.89" cy="362.67" r="7.69" style="fill: rgb(199, 199, 199); transform-origin: 469.89px 362.67px; transform: rotate(-74.33deg);" class="animable"></circle></g><g id="elbcpkvdsd05v"><path d="M473.47,362.67a3.58,3.58,0,1,1-3.58-3.58A3.58,3.58,0,0,1,473.47,362.67Z" style="fill: rgb(166, 166, 166); transform-origin: 469.89px 362.67px;" class="animable"></path></g><polygon points="434.5 267.77 440.7 269.83 424.07 308.55 417.87 306.5 434.5 267.77" style="fill: rgb(199, 199, 199); transform-origin: 429.285px 288.16px;" id="eljlfavj73r5" class="animable"></polygon><g id="eltci91gcft5"><rect x="470.55" y="317.01" width="28.87" height="8.38" style="fill: rgb(38, 50, 56); transform-origin: 484.985px 321.2px; transform: rotate(14.4524deg);" class="animable"></rect></g><g id="elywj68sief3l"><path d="M512.48,145.1s-3.87,3.73-13,19.06c-.74,1.27-3.73,2.51-4.52,3.69,0,0,15.34,65.1,14.68,81.55-.76,19.21-26.43,124.11-26.43,124.11l-45.5-12.24s4.32-31.2,9.41-56.83c3.61-18.22,11.22-47.77,11.37-51.11.68-16.26-17.67-96.38-17.71-98.74-.42-25.27,26.16-36.18,26.16-36.18Z" style="fill: rgb(247, 169, 160); transform-origin: 475.095px 245.96px;" class="animable"></path></g><g id="elhzqnjebdw76"><path d="M499.48,408c-2.73.16-61.73-18.44-64-20.92-.87-.92-1.67-8.76,1.4-21.48l.09-.39c.63-2.63,6.56-41.94,6.56-41.94l49.57,10.55-9.83,43.44-.23.77s24.05,19.71,26.24,22.69S502.21,407.88,499.48,408Z" style="fill: rgb(235, 235, 235); transform-origin: 472.153px 365.635px;" class="animable"></path></g><g id="elzp5rnv4tlgq"><path d="M437,365.24s-4.57,9.13-4.74,14,2.28,11.77,3.65,12.19l12.71,3.87c1.21.37,3.84-.65,5.35-.19s3.2,2.79,6.23,3.71,27.11,9.29,35.46,9.84c7.59.5,17.67-4.77,18.12-8.68s-16.69-12.31-22.21-16.74c-8.31-6.67-8.23-7.8-8.23-7.8s-25.72.09-33.55-2c-1.73-.46-3.19-5.09-4.71-6C443.07,366.24,437,365.24,437,365.24Z" style="fill: rgb(156, 163, 175); transform-origin: 473.02px 386.967px;" class="animable"></path></g><g id="elf26sqsqw2fw"><path d="M485.15,376.36c1.24.74,3.87,2.83,3.37,3.34-.68.69-8.74,5.71-9.32,5.35-1.33-.81-4.53-2.78-4.28-3.61S484.39,375.91,485.15,376.36Z" style="fill: rgb(38, 50, 56); transform-origin: 481.744px 380.699px;" class="animable"></path></g><g id="elouyiyadhcpo"><path d="M492.77,381.74c1.24.74,3.87,2.83,3.37,3.34s-8,6.17-9.32,5.35-4.19-2.68-3.93-3.51S492,381.29,492.77,381.74Z" style="fill: rgb(38, 50, 56); transform-origin: 489.538px 386.111px;" class="animable"></path></g><g id="elgpqv93kbvqh"><path d="M500.4,387.12c1.24.75,3.86,2.84,3.36,3.34s-7.55,5.93-8.87,5.12-3.95-2.24-3.7-3.07S499.63,386.67,500.4,387.12Z" style="fill: rgb(38, 50, 56); transform-origin: 497.498px 391.377px;" class="animable"></path></g><g id="el1h3qk2f7rpx"><path d="M495,167.84s7.55,31.73,11.77,56.56l-50.31,9.52c-4.68-29.35-15.66-68.12-15.65-79.33,0-25.27,26.16-36.18,26.16-36.18l45.55,26.69s-3.87,3.73-13,19.06C498.72,165.43,495.74,166.67,495,167.84Z" style="fill: rgb(69, 90, 100); transform-origin: 476.665px 176.165px;" class="animable"></path></g><g id="ell855s1socbp"><path d="M476.33,155.49V173.7L446.5,186c-1.37-6.11-2.63-11.8-3.62-16.72Z" style="fill: rgb(156, 163, 175); transform-origin: 459.605px 170.745px;" class="animable"></path></g><g id="eluklkynuuyb"><path d="M476.33,183.43v18.21l-24.15,10c-1.19-5.62-2.44-11.26-3.67-16.7Z" style="fill: rgb(156, 163, 175); transform-origin: 462.42px 197.535px;" class="animable"></path></g><g id="elygfaq8qiijm"><path d="M526.75,147.65l-19.21,5.12-42.08-34.48S496,93.62,550,103.53c11.4,2.1,13.7,9.63,11.18,17.61-.64,2-12.5,23.36-19.35,27.26C534.76,152.4,526.75,147.65,526.75,147.65Z" style="fill: rgb(156, 163, 175); transform-origin: 513.781px 126.976px;" class="animable"></path></g><g id="elhs3we40oacf"><path d="M524.35,136.21a18.26,18.26,0,0,1,1.47,5.08,26.48,26.48,0,0,1,.16,2.85c0,.49,0,1,.07,1.44a3,3,0,0,0,.32,1.34s-.08.11-.1.08a4.49,4.49,0,0,1-.68-1,5.36,5.36,0,0,1-.3-1.24c-.12-.93-.18-1.89-.29-2.83a43.7,43.7,0,0,0-.9-5.53C524.08,136.29,524.32,136.13,524.35,136.21Z" style="fill: rgb(38, 50, 56); transform-origin: 525.234px 141.597px;" class="animable"></path></g><g id="elnzdh714gv5l"><path d="M519.38,134.74a17.74,17.74,0,0,1,2.76,3.12,12.44,12.44,0,0,1,1,1.84c.13.31.26.62.38,1s.17.76.31,1.1c0,0-.09.11-.1.08-.16-.32-.41-.56-.59-.85l-.56-.88c-.37-.58-.76-1.15-1.12-1.75-.72-1.18-1.46-2.34-2.27-3.46C519.14,134.82,519.32,134.69,519.38,134.74Z" style="fill: rgb(38, 50, 56); transform-origin: 521.506px 138.307px;" class="animable"></path></g><g id="elo6ak8c6u6wh"><path d="M556.12,110c-.81.88-3.93,9.72-.73,14,1,1.38,8.86-4,8.86-4l.66-.27,9.34-3.7-.36-13.67-.13-1.93s-2.48,1.18-5.57,2.68l-.44.22-.5.23-1.4.68-1.07.54-1.11.58A64.49,64.49,0,0,0,556.12,110Z" style="fill: rgb(247, 169, 160); transform-origin: 564.113px 112.328px;" class="animable"></path></g><g id="eltour1a7547p"><path d="M568.19,103.15a20.18,20.18,0,0,0-3.28,16.62l9.34-3.7-.36-13.67-.13-1.93S571.28,101.65,568.19,103.15Z" style="fill: rgb(38, 50, 56); transform-origin: 569.295px 110.12px;" class="animable"></path></g><g id="el8rtdmqqh1yl"><path d="M594.61,105.21c-2.13,17.5-12.86,18.2-16.63,17.74-3.42-.42-15-2.29-14.72-19.92s9.12-22.17,17-21.62S596.74,87.71,594.61,105.21Z" style="fill: rgb(247, 169, 160); transform-origin: 579.097px 102.203px;" class="animable"></path></g><g id="eljbd87qnrvm"><path d="M592.73,106.72c-.41,0-.79-.14-1.2-.22a1.94,1.94,0,0,1-1.18-.45.64.64,0,0,1,0-.77,1.54,1.54,0,0,1,1.52-.4,2.27,2.27,0,0,1,1.46.76A.67.67,0,0,1,592.73,106.72Z" style="fill: rgb(38, 50, 56); transform-origin: 591.847px 105.772px;" class="animable"></path></g><g id="elfv6agfxrhuu"><path d="M581.59,103.4a10,10,0,0,0,1.22,0,2,2,0,0,0,1.25-.2.62.62,0,0,0,.18-.74,1.54,1.54,0,0,0-1.4-.72,2.23,2.23,0,0,0-1.58.44A.66.66,0,0,0,581.59,103.4Z" style="fill: rgb(38, 50, 56); transform-origin: 582.622px 102.577px;" class="animable"></path></g><g id="elnzgv02unph"><path d="M583.31,106.55s-.1,0-.11.08c-.22,1.18-.68,2.5-1.82,2.65a0,0,0,0,0,0,.07C582.7,109.45,583.29,107.7,583.31,106.55Z" style="fill: rgb(38, 50, 56); transform-origin: 582.345px 107.952px;" class="animable"></path></g><g id="eltnxlwa4ijuo"><path d="M582.54,105.09c-1.85-.56-2.84,3.19-1.13,3.71S584.09,105.57,582.54,105.09Z" style="fill: rgb(38, 50, 56); transform-origin: 581.922px 106.941px;" class="animable"></path></g><g id="el79tjqav5hps"><path d="M581.75,105.1c-.38.12-.8.41-1.2.35s-.71-.56-.91-1c0-.05-.06,0-.08,0a1.41,1.41,0,0,0,.63,1.83c.67.29,1.34-.22,1.71-.89C582,105.27,581.91,105.05,581.75,105.1Z" style="fill: rgb(38, 50, 56); transform-origin: 580.688px 105.395px;" class="animable"></path></g><g id="elekbim15itfh"><path d="M589.78,107.85s.08.08.07.13c-.36,1.14-.57,2.52.38,3.19,0,0,0,.08,0,.06C589,110.7,589.27,108.88,589.78,107.85Z" style="fill: rgb(38, 50, 56); transform-origin: 589.79px 109.542px;" class="animable"></path></g><g id="el2xw8v75qbpu"><path d="M591.15,106.92c1.9.37,1,4.14-.73,3.8S589.55,106.61,591.15,106.92Z" style="fill: rgb(38, 50, 56); transform-origin: 590.84px 108.822px;" class="animable"></path></g><g id="el5xsy8fdc53"><path d="M591.88,107.35c.25.27.46.7.81.81s.81-.22,1.16-.55c0,0,.06,0,0,.06-.14.72-.56,1.42-1.28,1.4s-1-.75-1-1.51C591.63,107.42,591.78,107.24,591.88,107.35Z" style="fill: rgb(38, 50, 56); transform-origin: 592.723px 108.193px;" class="animable"></path></g><g id="elix8dv6b8nup"><path d="M579.73,115.34c.14.38.23.85.61,1.08a3.2,3.2,0,0,0,1.3.28s.05,0,0,.08a1.62,1.62,0,0,1-1.66-.07,1.27,1.27,0,0,1-.39-1.37C579.62,115.27,579.71,115.29,579.73,115.34Z" style="fill: rgb(38, 50, 56); transform-origin: 580.594px 116.135px;" class="animable"></path></g><g id="elclgq8nn3zbn"><path d="M586,113.22s-.45,1.76-.77,2.54c0,.07-.23,0-.5-.06h0a4,4,0,0,1-3-2.87c0-.1.11-.14.16-.06a6,6,0,0,0,3,2.36c.14-.19.67-3,.79-3a7.57,7.57,0,0,1,1.62,1.13c1-3.62,1.49-7.39,2.57-11,0-.13.24-.09.23,0a61.38,61.38,0,0,1-2.27,12C587.65,114.73,586.28,113.48,586,113.22Z" style="fill: rgb(38, 50, 56); transform-origin: 585.915px 108.983px;" class="animable"></path></g><g id="eltzy2dzvihna"><path d="M584.78,115.38a4.89,4.89,0,0,1-2.33.8,2.14,2.14,0,0,1-1.28-.35c-.83-.55-.57-1.39-.16-2a5.69,5.69,0,0,1,.78-1A6.34,6.34,0,0,0,584.78,115.38Z" style="fill: rgb(38, 50, 56); transform-origin: 582.702px 114.506px;" class="animable"></path></g><g id="elasodloedw3v"><path d="M582.45,116.18a2.14,2.14,0,0,1-1.28-.35c-.83-.55-.57-1.39-.16-2A2.26,2.26,0,0,1,582.45,116.18Z" style="fill: rgb(255, 154, 187); transform-origin: 581.543px 115.006px;" class="animable"></path></g><g id="elf72hvx2cvx"><path d="M563.07,104a7.29,7.29,0,0,0,5.51-4.63,19,19,0,0,0,9.13-4c-.21.32-1.74,2.63-2.55,3.78,11.37,1,17-6.39,17-6.39a19.31,19.31,0,0,1,2.82,8.16s1.91-6.61-.27-12a11.11,11.11,0,0,0-8.66-7.14,15.85,15.85,0,0,0-16.19.47C560.73,88,563.07,104,563.07,104Z" style="fill: rgb(38, 50, 56); transform-origin: 579.278px 91.8921px;" class="animable"></path></g><g id="elemtgir3x1to"><path d="M583.87,99.65a20.64,20.64,0,0,1-6.11.5s0,0,0,0A17.65,17.65,0,0,0,587,97.52a16.92,16.92,0,0,0,3.23-2.62,11.34,11.34,0,0,0,2.57-3.72.09.09,0,0,1,.17.06,13.38,13.38,0,0,1-2,4,12.17,12.17,0,0,1-3.39,2.92,14,14,0,0,1-3.7,1.47" style="fill: rgb(38, 50, 56); transform-origin: 585.368px 95.6584px;" class="animable"></path></g><g id="el3i7522nqrml"><path d="M565.88,104.71s-2.63-6.18-5.36-5.35-1.54,9.23,1.1,10.9a3,3,0,0,0,4.24-.74Z" style="fill: rgb(247, 169, 160); transform-origin: 562.424px 105.057px;" class="animable"></path></g><g id="elaihgpjylqkw"><path d="M560.92,101.76s-.07,0,0,.08c1.84,1.23,2.5,3.32,2.84,5.41a1.65,1.65,0,0,0-2.32-1,.06.06,0,0,0,0,.12,1.83,1.83,0,0,1,1.84,1,8,8,0,0,1,.61,1.79c.06.2.41.17.38-.05v0C564.85,106.61,563.62,102.6,560.92,101.76Z" style="fill: rgb(38, 50, 56); transform-origin: 562.65px 105.527px;" class="animable"></path></g><g id="el6hik4ssqs72"><path d="M567.53,106.72s-2.06,7.21.38,11.69c.59,1.09,2,1.63,3.14,2.32,0,0-2.83-3.27.34-13.41Z" style="fill: rgb(38, 50, 56); transform-origin: 569.054px 113.725px;" class="animable"></path></g><g id="elzgyss7si479"><path d="M579.26,109.64s13.69,3.07,14.3,3,6.28-4.31,5.52-11.34L575.4,93.94,572,100Z" style="fill: rgb(156, 163, 175); opacity: 0.8; transform-origin: 585.575px 103.291px;" class="animable"></path></g><g id="elyz02ovxy16g"><g style="opacity: 0.1; transform-origin: 561.9px 79.08px;" class="animable"><polygon points="539.88 47.95 529.01 58.82 526.41 55.36 535.27 46.51 539.88 47.95" style="fill: rgb(255, 255, 255); transform-origin: 533.145px 52.665px;" id="el7zxaiqlrr7" class="animable"></polygon><g id="elb6beaiokdf8"><path d="M597.7,108.27l-4.38,4.38c-.7-.1-2.72-.53-5-1l10.41-10.4.39.13A11.73,11.73,0,0,1,597.7,108.27Z" style="fill: rgb(255, 255, 255); transform-origin: 593.75px 106.95px;" class="animable"></path></g><polygon points="534.39 46.23 525.92 54.7 524.62 52.97 532.08 45.51 534.39 46.23" style="fill: rgb(255, 255, 255); transform-origin: 529.505px 50.105px;" id="elqkp6i35teo" class="animable"></polygon><g id="ellr9raf5vrsf"><path d="M596.42,100.52l-10.57,10.59a4,4,0,0,0-.47-.11L596,100.4Z" style="fill: rgb(255, 255, 255); transform-origin: 590.9px 105.755px;" class="animable"></path></g></g></g><g id="elwy2gp074x3"><path d="M599.08,101.35l-18-3.08c-1-.17-3.65,0-4,.41a10.4,10.4,0,0,0-.43,4.31c.21.94,3,3.74,2.57,6.65-.09.63-6.75.82-9,.17s-4.79-2-7.74-5.69-6.75-4.64-9.86-5.69-11.37-2.09-11.72-4S552.49,82.18,573.26,80,600.7,92.53,599.08,101.35Z" style="fill: rgb(55, 71, 79); transform-origin: 570.102px 94.9984px;" class="animable"></path></g><g id="elbnr75qwiiyh"><path d="M535.91,123.57c-3.72,17.54-6.45,52.21-3.8,65.77,2,10.25,44.29,20.41,54.8,21,4.21.23,13.3-31.29,8.84-31.9-10.37-1.43-38.07-9.08-38.43-9.49s-5.1-28.31-6.71-40.52C547.61,105.78,538.19,112.82,535.91,123.57Z" style="fill: rgb(247, 169, 160); transform-origin: 564.002px 161.902px;" class="animable"></path></g><g id="elew4lvgssw6k"><path d="M636.17,199.28c-1,3.86-4.95,2.78-4.95,2.78a7.47,7.47,0,0,1,.66,5c-.8,3-5.79,3-5.79,3a9.14,9.14,0,0,1-.14,5.4c-1.05,2.75-6.08,3.52-6.08,3.52a8,8,0,0,1-3.12,4.66c-4.3,2.85-11.5-.37-16.06-2.45-6.77-3.09-15.68-12.08-18-13.79l11.52-29.21s24.23,3.26,29.46,6.11S637.14,195.49,636.17,199.28Z" style="fill: rgb(247, 169, 160); transform-origin: 609.469px 201.477px;" class="animable"></path></g><g id="elxupvpnsaye"><path d="M631.22,201.49c-3.84-3.91-8.63-6.47-13.27-9.29-.1-.07-.2.1-.1.16,4.65,2.76,8.68,6.4,13.21,9.34C631.18,201.78,631.32,201.6,631.22,201.49Z" style="fill: rgb(38, 50, 56); transform-origin: 624.531px 196.952px;" class="animable"></path></g><g id="elqv22cseibcj"><path d="M626.17,209.64a14.81,14.81,0,0,0-3.16-2c-1.16-.63-2.34-1.24-3.52-1.84q-3.56-1.78-7.2-3.38c-.11,0-.21.1-.1.16,2.37,1.19,4.71,2.41,7,3.7,1.15.64,2.3,1.29,3.45,2A16.82,16.82,0,0,0,626,210,.19.19,0,0,0,626.17,209.64Z" style="fill: rgb(38, 50, 56); transform-origin: 619.213px 206.219px;" class="animable"></path></g><g id="elk7lowoj14l"><path d="M619.78,218.93a10.22,10.22,0,0,0-2.94-1.65c-1.09-.52-2.18-1-3.27-1.58-2.17-1.06-4.34-2.12-6.47-3.26-.11-.05-.2.11-.1.16,2.16,1.17,4.31,2.37,6.48,3.51,1.07.57,2.14,1.12,3.21,1.67a9.29,9.29,0,0,0,3,1.26S619.81,219,619.78,218.93Z" style="fill: rgb(38, 50, 56); transform-origin: 613.371px 215.735px;" class="animable"></path></g><g id="elng1y7l6k76f"><path d="M589.71,177.38,578.4,209.15s-42.1-7.43-46.53-18.27c-3.31-8.12-2.11-39.09,2.87-65,3.17-16.49,13.06-18.52,15.92-.68,2.91,18.2,7.13,42.38,7.53,43.14S589.71,177.38,589.71,177.38Z" style="fill: rgb(156, 163, 175); transform-origin: 559.86px 160.898px;" class="animable"></path></g><g id="el8yba9lgekmh"><path d="M531.34,149.45c.44-4.73,1.09-9.43,1.75-14.12l1-7a19,19,0,0,0,.13-7c1.64,4.59,0,9.48-.44,14.14-.72,4.69-1.48,9.37-2.47,14Z" style="fill: rgb(38, 50, 56); transform-origin: 533.122px 135.4px;" class="animable"></path></g><g id="elks343pk3jrs"><path d="M533.11,124.45a6.52,6.52,0,0,1,1.12,4.73c-.29-1.59-.93-3.11-1.12-4.73Z" style="fill: rgb(38, 50, 56); transform-origin: 533.706px 126.815px;" class="animable"></path></g><g id="ela1614b3l6k"><path d="M552.43,136.13a43.86,43.86,0,0,1-1.77-13.89,117.71,117.71,0,0,1,1.77,13.89Z" style="fill: rgb(38, 50, 56); transform-origin: 551.533px 129.185px;" class="animable"></path></g><g id="el3p5f5tr3fqt"><path d="M551.45,123a45.79,45.79,0,0,1,.21,4.83,6.81,6.81,0,0,1-.21-4.83Z" style="fill: rgb(38, 50, 56); transform-origin: 551.384px 125.415px;" class="animable"></path></g></g><g id="freepik--character-1--inject-2" class="animable" style="transform-origin: 253.55px 240.195px;"><g id="el3bzbj7fuy5y"><path d="M274.09,131.77a297.87,297.87,0,0,1-16.3,32.39c-.74,1.27-7.18,3.08-8,4.26,0,0,18.79,64.53,18.13,81-.77,19.21-26.44,124.11-26.44,124.11L196,361.27s4.32-31.2,9.41-56.83c3.61-18.22,11.22-47.77,11.36-51.11.69-16.26-17.67-96.38-17.7-98.74-.42-25.27,26.16-36.18,26.16-36.18Z" style="fill: rgb(211, 118, 106); transform-origin: 235.045px 245.97px;" class="animable"></path></g><g id="elsb4cj3y9e6"><path d="M257.81,408c-2.73.16-61.73-18.44-64-20.92-.87-.92-1.67-8.76,1.39-21.48,0-.13.07-.26.1-.39.63-2.63,6.56-41.94,6.56-41.94l49.57,10.55-9.83,43.44-.23.77s24,19.71,26.23,22.69S260.53,407.88,257.81,408Z" style="fill: rgb(235, 235, 235); transform-origin: 230.482px 365.635px;" class="animable"></path></g><g id="els7yu9fiykw"><path d="M195.32,365.24s-4.57,9.13-4.74,14,2.28,11.77,3.64,12.19l12.72,3.87c1.21.37,3.84-.65,5.35-.19s3.2,2.79,6.23,3.71,27.11,9.29,35.46,9.84c7.59.5,17.67-4.77,18.12-8.68s-16.69-12.31-22.21-16.74c-8.31-6.67-8.23-7.8-8.23-7.8s-25.72.09-33.55-2c-1.73-.46-3.19-5.09-4.71-6C201.4,366.24,195.32,365.24,195.32,365.24Z" style="fill: rgb(69, 90, 100); transform-origin: 231.34px 386.967px;" class="animable"></path></g><g id="elh4qx93ldtsf"><path d="M243.48,376.36c1.24.74,3.86,2.83,3.36,3.34-.67.69-8.73,5.71-9.31,5.35-1.33-.81-4.53-2.78-4.28-3.61S242.72,375.91,243.48,376.36Z" style="fill: rgb(38, 50, 56); transform-origin: 240.069px 380.699px;" class="animable"></path></g><g id="elta1l30u2339"><path d="M251.1,381.74c1.24.74,3.87,2.83,3.37,3.34s-8,6.17-9.32,5.35-4.19-2.68-3.93-3.51S250.34,381.29,251.1,381.74Z" style="fill: rgb(38, 50, 56); transform-origin: 247.868px 386.111px;" class="animable"></path></g><g id="elk9jwzl33e6r"><path d="M258.73,387.12c1.23.75,3.86,2.84,3.36,3.34s-7.55,5.93-8.87,5.12-3.95-2.24-3.7-3.07S258,386.67,258.73,387.12Z" style="fill: rgb(38, 50, 56); transform-origin: 255.828px 391.377px;" class="animable"></path></g><g id="el841z8gh8d8n"><path d="M249.82,168.41s9.07,31.14,14.38,55.68l-49.46,9.83c-4.68-29.35-15.63-77.51-15.65-79.33-.42-25.27,26.15-36.18,26.15-36.18l48.84,13.36a296.77,296.77,0,0,1-16.29,32.39C257.05,165.43,250.61,167.25,249.82,168.41Z" style="fill: rgb(38, 50, 56); transform-origin: 236.583px 176.165px;" class="animable"></path></g><g id="elts0b498y698"><path d="M249.82,168.41s18.78,64.53,18.13,81c-.19,5.07-2.14,16.12-4.89,29.65L203.14,138c7.34-13.56,22.1-19.62,22.1-19.62l48.84,13.36a296.77,296.77,0,0,1-16.29,32.39C257.05,165.43,250.61,167.25,249.82,168.41Z" style="fill: rgb(2, 1, 0); opacity: 0.1; transform-origin: 238.61px 198.72px;" class="animable"></path></g><g id="el2yg6196dpgy"><path d="M223.48,349a85.86,85.86,0,1,1-85.88-85.84A86,86,0,0,1,223.48,349Z" style="fill: rgb(199, 199, 199); transform-origin: 137.62px 349.02px;" class="animable"></path></g><g id="elw3r62rg8fc"><path d="M218.62,349a81,81,0,1,1-81-81A81.1,81.1,0,0,1,218.62,349Z" style="fill: rgb(38, 50, 56); transform-origin: 137.62px 349px;" class="animable"></path></g><g id="elq5yknmqur4"><path d="M455.34,349a85.86,85.86,0,1,1-85.88-85.84A86,86,0,0,1,455.34,349Z" style="fill: rgb(199, 199, 199); transform-origin: 369.48px 349.02px;" class="animable"></path></g><g id="el2l5xch1p6q9"><path d="M450.48,349a81,81,0,1,1-81-81A81.1,81.1,0,0,1,450.48,349Z" style="fill: rgb(38, 50, 56); transform-origin: 369.48px 349px;" class="animable"></path></g><g id="eljdsi4cfflbd"><path d="M97.69,309.08a54,54,0,0,1,50.68-15.52,59.73,59.73,0,0,0-50.68,15.52Z" style="fill: rgb(235, 235, 235); transform-origin: 123.03px 300.694px;" class="animable"></path></g><g id="elmedfusit8xk"><path d="M97.71,388.93a55.2,55.2,0,0,1-14.27-56.5L85,328.32l1.83-4-1.66,4-1.35,4.14a58.29,58.29,0,0,0,13.92,56.4Z" style="fill: rgb(235, 235, 235); transform-origin: 89.2856px 356.625px;" class="animable"></path></g><g id="eljz38rrrppyn"><path d="M193.83,343.57c4.24,37.21-29.73,68.37-66.41,61.11A57.48,57.48,0,0,1,113.3,400c19.16,8.91,43.09,6.21,59.44-7.27a57,57,0,0,0,21.09-49.13Z" style="fill: rgb(235, 235, 235); transform-origin: 153.745px 374.654px;" class="animable"></path></g><g id="eli56afej86eb"><path d="M177.54,309.06a42,42,0,0,1,12.23,18.24,87.51,87.51,0,0,0-12.23-18.24Z" style="fill: rgb(235, 235, 235); transform-origin: 183.655px 318.18px;" class="animable"></path></g><g id="elcxwaj4hf0qf"><path d="M97,372.18c-21.29-37.47,14.48-81.23,55.41-67.9a46.61,46.61,0,0,1,31.22,53.65,46.69,46.69,0,0,0-53.49-54.71c-31.66,4.74-49,41.21-33.14,69Z" style="fill: rgb(235, 235, 235); transform-origin: 137.614px 337.027px;" class="animable"></path></g><g id="el8kssreohr85"><path d="M377.75,212.05H314.23v-7h63.52a7.55,7.55,0,0,0,4-1.13l15.35-9.53,3.71,6-15.36,9.53A14.54,14.54,0,0,1,377.75,212.05Z" style="fill: rgb(38, 50, 56); transform-origin: 357.52px 203.22px;" class="animable"></path></g><g id="el1vykeme5b6c"><rect x="187.34" y="190.35" width="8.03" height="58.86" style="fill: rgb(38, 50, 56); transform-origin: 191.355px 219.78px; transform: rotate(-20.91deg);" class="animable"></rect></g><polygon points="90.25 298.86 84.92 295.82 149.6 195.57 154.11 199.81 90.25 298.86" style="fill: rgb(156, 163, 175); transform-origin: 119.515px 247.215px;" id="elpvrzlmdxle" class="animable"></polygon><polygon points="201.5 321.43 85.16 304.34 86.37 294.37 197.43 310.82 274.86 196.53 282.42 203.12 201.5 321.43" style="fill: rgb(156, 163, 175); transform-origin: 183.79px 258.98px;" id="elvkcviloasns" class="animable"></polygon><g id="elvm2zf8jvb7"><rect x="217.5" y="234.98" width="10.04" height="136.52" style="fill: rgb(156, 163, 175); transform-origin: 222.52px 303.24px; transform: rotate(-20.42deg);" class="animable"></rect></g><g id="el5llgsodesbs"><rect x="319.46" y="217.46" width="10.04" height="42.99" style="fill: rgb(156, 163, 175); transform-origin: 324.48px 238.955px; transform: rotate(-20.18deg);" class="animable"></rect></g><g id="eldxy8xk6xspo"><rect x="346.57" y="246.31" width="5.02" height="106.68" style="fill: rgb(156, 163, 175); transform-origin: 349.08px 299.65px; transform: rotate(-22.49deg);" class="animable"></rect></g><rect x="149.39" y="193.21" width="125.82" height="9.93" style="fill: rgb(156, 163, 175); transform-origin: 212.3px 198.175px;" id="elnqfllvmdjri" class="animable"></rect><polygon points="279.38 193.48 279.38 164.56 260.54 164.56 252.55 170.95 252.55 193.48 279.38 193.48" style="fill: rgb(156, 163, 175); transform-origin: 265.965px 179.02px;" id="el4zl8a8vct4n" class="animable"></polygon><polygon points="282.42 148 296.06 148 296.06 167.73 307.92 183.9 332.27 183.9 344.07 177.3 347.62 181.36 333.42 190.05 304.94 190.05 284.26 172.99 282.42 148" style="fill: rgb(156, 163, 175); transform-origin: 315.02px 169.025px;" id="elr21u8z58xmg" class="animable"></polygon><rect x="270.81" y="164.56" width="19.34" height="10.46" style="fill: rgb(156, 163, 175); transform-origin: 280.48px 169.79px;" id="elsu0ejwtbqv" class="animable"></rect><g id="elj0msuic475r"><circle cx="137.62" cy="349" r="12.35" style="fill: rgb(199, 199, 199); transform-origin: 137.62px 349px; transform: rotate(-62.51deg);" class="animable"></circle></g><g id="el2488zi40lsn"><circle cx="369.48" cy="348.93" r="12.35" style="fill: rgb(199, 199, 199); transform-origin: 369.48px 348.93px; transform: rotate(-61.89deg);" class="animable"></circle></g><polyline points="113.34 142.51 136.38 156.21 149.39 139.74" style="fill: none; stroke: rgb(38, 50, 56); stroke-miterlimit: 10; transform-origin: 131.365px 147.975px;" id="elka6rcrh0j9" class="animable"></polyline><g id="eljat8ug1axd"><path d="M152.37,191.29c6.44,3.27,20.81,4.75,34,2.07,12-2.44,28.88-.24,28.88-4.6,0-1.69-9.44-4-26-3.95-16.28,0-34.68-4.16-41.9-1.19C144.3,184.9,149.18,189.67,152.37,191.29Z" style="fill: rgb(69, 90, 100); transform-origin: 180.818px 188.649px;" class="animable"></path></g><g id="el2qks3vik6of"><path d="M416.28,317.33c16.21,23.07,11.93,55.93-9.38,74.31-21,18.63-54.19,18.68-74.89-.48,20.78,18.52,53.71,18.54,74.39-.08,21.33-18.18,25.43-50.56,9.88-73.75Z" style="fill: rgb(235, 235, 235); transform-origin: 379.067px 361.451px;" class="animable"></path></g><g id="el4y5phxy8n7u"><path d="M324.23,382.7c-23.33-30.52-9.46-75.15,26.83-87.4a56.33,56.33,0,0,1,34.9-.39,54.9,54.9,0,0,0-17.46-2.21,56.55,56.55,0,0,0-44.27,90Z" style="fill: rgb(235, 235, 235); transform-origin: 349.356px 337.515px;" class="animable"></path></g><g id="elejvrnkr5ppi"><path d="M369.47,302.12c33.32-.33,56.22,33.49,43.77,64.35a46.81,46.81,0,0,1-29.83,27.16,47.29,47.29,0,0,0,29.22-27.4c12.13-30.56-10.38-63.69-43.16-64.11Z" style="fill: rgb(235, 235, 235); transform-origin: 393.075px 347.874px;" class="animable"></path></g><g id="elcmfvhnzdvde"><path d="M369.5,395.74a57.28,57.28,0,0,1-8.05-.6l-1.34-.18c-1.21-.25-3.37-.83-4.59-1.11-1.45-.53-3-1.05-4.45-1.59l-2.45-1.15a47.82,47.82,0,0,1-9.12-5.79l-2-1.81a46.38,46.38,0,0,1-13.17-46.95C320,353,325.38,371.53,338,383l2,1.8c1.28.91,3,2.36,4.32,3.14A49.11,49.11,0,0,0,355,393.2c.88.37,2.94.82,3.86,1.1a17.71,17.71,0,0,0,2.62.57,56.4,56.4,0,0,0,8,.87Z" style="fill: rgb(235, 235, 235); transform-origin: 346.012px 366.15px;" class="animable"></path></g><polygon points="165.41 354.14 159.21 352.08 175.28 311.97 181.48 314.03 165.41 354.14" style="fill: rgb(166, 166, 166); transform-origin: 170.345px 333.055px;" id="el4553ksgp7j1" class="animable"></polygon><g id="eldiubrcysho9"><rect x="200.56" y="397.6" width="28.87" height="8.38" style="fill: rgb(38, 50, 56); transform-origin: 214.995px 401.79px; transform: rotate(-165.3deg);" class="animable"></rect></g><g id="elmgmx31h6wrd"><path d="M260.66,363.67a1.15,1.15,0,0,1,0-2,1.13,1.13,0,0,0-.13-2.06,1.14,1.14,0,0,1-.25-2,1.14,1.14,0,0,0-.39-2,1.14,1.14,0,0,1-.5-1.95,1,1,0,0,0,.37-.82,1.13,1.13,0,0,0-1-1.14,1.15,1.15,0,0,1-.74-1.87,1.14,1.14,0,0,0-.87-1.88h0a1.12,1.12,0,0,1-1.16-1.13,1.16,1.16,0,0,1,.2-.62,1.14,1.14,0,0,0-.94-1.76h-.17a1.14,1.14,0,0,1-1.3-1.12,1.11,1.11,0,0,1,.12-.5,1.15,1.15,0,0,0-1-1.65,1.12,1.12,0,0,0-.31.05,1.14,1.14,0,0,1-1.43-1.1,1,1,0,0,1,.06-.37,1.14,1.14,0,0,0-1.07-1.5,1.44,1.44,0,0,0-.44.09,1.14,1.14,0,0,1-1.57-1,1.94,1.94,0,0,1,0-.24,1.14,1.14,0,0,0-1.12-1.37,1.06,1.06,0,0,0-.55.15,1.13,1.13,0,0,1-1.69-1v-.09a1.15,1.15,0,0,0-1.15-1.22,1.11,1.11,0,0,0-.67.23,1.12,1.12,0,0,1-.68.23,1.15,1.15,0,0,1-1.14-1.08A1.13,1.13,0,0,0,240,331.8a1.17,1.17,0,0,0-.79.32,1.14,1.14,0,0,1-1.91-.62,1.14,1.14,0,0,0-2-.51,1.13,1.13,0,0,1-2-.38,1.17,1.17,0,0,0-1.1-.8,1.09,1.09,0,0,0-1,.54,1.14,1.14,0,0,1-2-.13,1.11,1.11,0,0,0-1-.66,1.13,1.13,0,0,0-1,.66,1.13,1.13,0,0,1-1,.67,1.11,1.11,0,0,1-1-.54,1.12,1.12,0,0,0-1-.54,1.14,1.14,0,0,0-1.09.8,1.14,1.14,0,0,1-1.1.8,1.11,1.11,0,0,1-.88-.42,1.14,1.14,0,0,0-2,.51,1.13,1.13,0,0,1-1.13.94,1.11,1.11,0,0,1-.78-.32,1.17,1.17,0,0,0-.78-.32,1.15,1.15,0,0,0-1.15,1.09,1.14,1.14,0,0,1-1.14,1.08,1.07,1.07,0,0,1-.67-.23,1.13,1.13,0,0,0-1.81.89v.1a1.15,1.15,0,0,1-1.15,1.23,1.21,1.21,0,0,1-.56-.15,1.13,1.13,0,0,0-1.69,1,1.94,1.94,0,0,0,0,.24,1.15,1.15,0,0,1-1.11,1.38,1.12,1.12,0,0,1-.43-.1,1.13,1.13,0,0,0-1.57,1,1,1,0,0,0,.06.37,1.14,1.14,0,0,1-1.07,1.51,1.76,1.76,0,0,1-.31,0,1.14,1.14,0,0,0-1.44,1.09,1.24,1.24,0,0,0,.13.51,1.15,1.15,0,0,1-1,1.63h-.16a1.14,1.14,0,0,0-1.3,1.14,1.09,1.09,0,0,0,.19.61,1.13,1.13,0,0,1-1,1.75h0a1.14,1.14,0,0,0-1.16,1.15,1.16,1.16,0,0,0,.27.73,1.1,1.1,0,0,1,.27.73,1.14,1.14,0,0,1-1,1.14,1.14,1.14,0,0,0-1,1.14,1.08,1.08,0,0,0,.37.82,1.13,1.13,0,0,1-.49,1.95,1.14,1.14,0,0,0-.39,2,1.12,1.12,0,0,1,.48.92,1.14,1.14,0,0,1-.73,1.07,1.13,1.13,0,0,0-.13,2.06,1.14,1.14,0,0,1,0,2,1.13,1.13,0,0,0,.13,2.06,1.13,1.13,0,0,1,.73,1.08,1.12,1.12,0,0,1-.48.92,1.11,1.11,0,0,0-.48.92,1.13,1.13,0,0,0,.87,1.11,1.13,1.13,0,0,1,.49,1.95,1.1,1.1,0,0,0-.37.83,1.13,1.13,0,0,0,1,1.13,1.14,1.14,0,0,1,1,1.15,1.08,1.08,0,0,1-.27.72,1.15,1.15,0,0,0,.87,1.88h0a1.12,1.12,0,0,1,1.15,1.14,1.21,1.21,0,0,1-.19.62,1.14,1.14,0,0,0,.95,1.76h.16a1.15,1.15,0,0,1,1.3,1.13,1.09,1.09,0,0,1-.11.49,1.14,1.14,0,0,0,1,1.64,1,1,0,0,0,.29-.05,1.14,1.14,0,0,1,1.43,1.1,1.22,1.22,0,0,1-.05.37,1.14,1.14,0,0,0,1.07,1.51,1.44,1.44,0,0,0,.44-.09,1.13,1.13,0,0,1,1.56,1,1.94,1.94,0,0,1,0,.24,1.14,1.14,0,0,0,1.11,1.36,1.07,1.07,0,0,0,.56-.15,1.15,1.15,0,0,1,1.71,1v.08a1.13,1.13,0,0,0,1.81,1,1.07,1.07,0,0,1,.67-.23,1.14,1.14,0,0,1,1.14,1.09,1.15,1.15,0,0,0,1.15,1.08,1.17,1.17,0,0,0,.78-.32,1.11,1.11,0,0,1,.78-.32,1.13,1.13,0,0,1,1.13.95,1.14,1.14,0,0,0,1.13.93,1.09,1.09,0,0,0,.87-.42,1.15,1.15,0,0,1,2,.37,1.13,1.13,0,0,0,2.05.26,1.16,1.16,0,0,1,1-.54,1.13,1.13,0,0,1,1,.67,1.14,1.14,0,0,0,1,.67,1.12,1.12,0,0,0,1-.67,1.14,1.14,0,0,1,1-.67,1.17,1.17,0,0,1,1,.54,1.09,1.09,0,0,0,1,.54,1.15,1.15,0,0,0,1.1-.8,1.11,1.11,0,0,1,1.08-.79,1.14,1.14,0,0,1,.88.42,1.12,1.12,0,0,0,.88.42,1.14,1.14,0,0,0,1.13-.93,1.14,1.14,0,0,1,1.91-.63,1.17,1.17,0,0,0,.79.32,1.13,1.13,0,0,0,1.13-1.08,1.15,1.15,0,0,1,1.14-1.09,1.12,1.12,0,0,1,.68.23,1.14,1.14,0,0,0,1.82-.91v-.08a1.14,1.14,0,0,1,1.13-1.23,1.12,1.12,0,0,1,.56.15,1.14,1.14,0,0,0,1.7-1,2,2,0,0,0,0-.24,1.13,1.13,0,0,1,1.55-1.28,1.14,1.14,0,0,0,1.57-1.06,1.18,1.18,0,0,0-.06-.36,1.15,1.15,0,0,1,1.07-1.51,1.54,1.54,0,0,1,.3,0,1.14,1.14,0,0,0,1.33-1.59,1.13,1.13,0,0,1,1-1.63h.16a1.14,1.14,0,0,0,1.11-1.75,1.13,1.13,0,0,1,.95-1.76h0a1.13,1.13,0,0,0,1.15-1.15,1.16,1.16,0,0,0-.27-.73,1.12,1.12,0,0,1-.26-.72,1.14,1.14,0,0,1,1-1.15,1.12,1.12,0,0,0,1-1.13,1.1,1.1,0,0,0-.37-.83,1.14,1.14,0,0,1,.5-1.95,1.13,1.13,0,0,0,.87-1.11,1.11,1.11,0,0,0-.48-.92,1.12,1.12,0,0,1-.48-.92,1.13,1.13,0,0,1,.73-1.08,1.13,1.13,0,0,0,.13-2.06Zm-32.44,24.24a25.25,25.25,0,1,1,25.24-25.25A25.24,25.24,0,0,1,228.22,387.91Zm-.6-54.48" style="fill: rgb(199, 199, 199); transform-origin: 228.205px 362.65px;" class="animable"></path></g><rect x="175.89" y="284.79" width="4.58" height="26.54" style="fill: rgb(199, 199, 199); transform-origin: 178.18px 298.06px;" id="el6ey5sr2w959" class="animable"></rect><g id="el8h7xjgaa7lu"><rect x="213.46" y="344.06" width="4.58" height="26.54" style="fill: rgb(199, 199, 199); transform-origin: 215.75px 357.33px; transform: rotate(-70deg);" class="animable"></rect></g><g id="ellmq7vvtckkm"><rect x="206.42" y="369.75" width="26.54" height="4.58" style="fill: rgb(199, 199, 199); transform-origin: 219.69px 372.04px; transform: rotate(-50.01deg);" class="animable"></rect></g><g id="el3q3krpawx05"><rect x="232.56" y="360.1" width="4.58" height="26.54" style="fill: rgb(199, 199, 199); transform-origin: 234.85px 373.37px; transform: rotate(-30deg);" class="animable"></rect></g><g id="elvdss4zij7r"><rect x="228.02" y="357.28" width="26.54" height="4.58" style="fill: rgb(199, 199, 199); transform-origin: 241.29px 359.57px; transform: rotate(-10.01deg);" class="animable"></rect></g><g id="eltv8v95fpho8"><circle cx="228.22" cy="362.67" r="7.69" style="fill: rgb(199, 199, 199); transform-origin: 228.22px 362.67px; transform: rotate(-76.67deg);" class="animable"></circle></g><g id="eleufjhfgot0c"><path d="M231.8,362.67a3.58,3.58,0,1,1-3.58-3.58A3.58,3.58,0,0,1,231.8,362.67Z" style="fill: rgb(166, 166, 166); transform-origin: 228.22px 362.67px;" class="animable"></path></g><polygon points="192.82 267.77 199.02 269.83 182.4 308.55 176.2 306.5 192.82 267.77" style="fill: rgb(199, 199, 199); transform-origin: 187.61px 288.16px;" id="elgpnh2tefp5" class="animable"></polygon><g id="eli5hmcf4toz"><rect x="228.87" y="317.01" width="28.87" height="8.38" style="fill: rgb(38, 50, 56); transform-origin: 243.305px 321.2px; transform: rotate(14.4524deg);" class="animable"></rect></g><g id="el1z485g0hhks"><path d="M271.74,296.08l-39.6-23.43S265.41,211,264.88,206c-.56-5.24-54-25.07-62-47.42-9.42-26.54,22.34-40.17,22.34-40.17l45.58,29.52s-6.44,2.47-6.23,3.93c.24,1.7,52.75,22.38,53.58,43.81C319.36,226,271.74,296.08,271.74,296.08Z" style="fill: rgb(211, 118, 106); transform-origin: 259.653px 207.245px;" class="animable"></path></g><g id="elc17132g2xml"><path d="M298.37,171l-39.13,30.34c-14-8.42-50-24.79-56.33-42.78-9.42-26.54,22.33-40.17,22.33-40.17l45.59,29.52s-6.44,2.47-6.23,3.93C264.74,152.86,283.16,160.51,298.37,171Z" style="fill: rgb(38, 50, 56); transform-origin: 249.767px 159.865px;" class="animable"></path></g><g id="elwf5qe8of9b"><path d="M232,122.76s-23.53,9.72-18.54,30,52.64,43.3,52.64,43.3l9.57-7.42s-33.75-22.57-39.06-34.32,9-22.83,9-22.83Z" style="fill: rgb(235, 235, 235); transform-origin: 244.218px 159.41px;" class="animable"></path></g><g id="elcd8bd5fi8gr"><path d="M274.12,340.9C271.45,340.29,220,306,218.52,303c-.58-1.13.85-8.88,7.34-20.24.07-.11.13-.23.2-.35,1.34-2.34,17.42-31.14,17.42-31.14l42.38,22.35-18.71,33.28-.44.69s17.6,25.63,18.87,29.1S276.78,341.51,274.12,340.9Z" style="fill: rgb(235, 235, 235); transform-origin: 252.131px 296.156px;" class="animable"></path></g><g id="el33gpu81cxzk"><path d="M226.06,282.36s-6.94,7.49-8.47,12.16-1.1,11.94.1,12.72l11.13,7.27c1.05.69,3.86.44,5.19,1.31s2.29,3.58,4.94,5.31,23.44,16.48,31.3,19.34c7.15,2.6,18.31.35,19.83-3.28s-12.59-16.48-16.65-22.28c-6.12-8.71-5.73-9.78-5.73-9.78S243,298,236,293.88c-1.54-.92-1.65-5.77-2.84-7.11C231.62,285,226.06,282.36,226.06,282.36Z" style="fill: rgb(69, 90, 100); transform-origin: 253.4px 311.977px;" class="animable"></path></g><g id="eloy3z25a5bs9"><path d="M269.2,306.49c1,1.05,2.92,3.79,2.3,4.14-.84.47-10,3.05-10.44,2.54-1.05-1.15-3.57-3.94-3.1-4.67S268.59,305.84,269.2,306.49Z" style="fill: rgb(38, 50, 56); transform-origin: 264.761px 309.797px;" class="animable"></path></g><g id="elhx733l0uryn"><path d="M275,313.78c1,1.06,2.92,3.8,2.3,4.15s-9.4,3.69-10.44,2.53-3.28-3.74-2.8-4.47S274.41,313.13,275,313.78Z" style="fill: rgb(38, 50, 56); transform-origin: 270.707px 317.181px;" class="animable"></path></g><g id="elu52k9sr63y"><path d="M280.84,321.08c1,1.05,2.92,3.79,2.3,4.14s-8.91,3.59-9.95,2.43-3.17-3.24-2.69-4S280.23,320.42,280.84,321.08Z" style="fill: rgb(38, 50, 56); transform-origin: 276.846px 324.434px;" class="animable"></path></g><g id="el1c2xskq6udki"><path d="M285.08,147.65l-19.22,5.12-42.07-34.48s30.5-24.67,84.48-14.76c11.41,2.1,13.71,9.63,11.19,17.61-.64,2-12.5,23.36-19.35,27.26C293.09,152.4,285.08,147.65,285.08,147.65Z" style="fill: rgb(69, 90, 100); transform-origin: 272.086px 126.976px;" class="animable"></path></g><g id="el221yobamn32"><path d="M282.68,136.21a18.61,18.61,0,0,1,1.47,5.08,26.48,26.48,0,0,1,.16,2.85c0,.49,0,1,.07,1.44a3,3,0,0,0,.32,1.34s-.08.11-.1.08a4.49,4.49,0,0,1-.68-1,4.89,4.89,0,0,1-.3-1.24c-.13-.93-.18-1.89-.29-2.83a43.69,43.69,0,0,0-.91-5.53C282.4,136.29,282.64,136.13,282.68,136.21Z" style="fill: rgb(38, 50, 56); transform-origin: 283.559px 141.597px;" class="animable"></path></g><g id="el5qkoxn0mpp"><path d="M277.71,134.74a17.28,17.28,0,0,1,2.75,3.12,10.82,10.82,0,0,1,1,1.84,9.9,9.9,0,0,1,.38,1c.14.35.18.76.32,1.1,0,0-.09.11-.11.08a8.47,8.47,0,0,0-.58-.85l-.56-.88c-.37-.58-.76-1.15-1.12-1.75-.72-1.18-1.47-2.34-2.27-3.46C277.46,134.82,277.65,134.69,277.71,134.74Z" style="fill: rgb(38, 50, 56); transform-origin: 279.834px 138.307px;" class="animable"></path></g><g id="ele6vfl70buwe"><path d="M314.45,110c-.81.88-3.93,9.72-.74,14,1.05,1.38,8.86-4,8.86-4l.67-.27,9.34-3.7-.36-13.67-.13-1.93s-2.49,1.18-5.57,2.68l-.44.22-.5.23-1.41.68-1.06.54-1.11.58A64.49,64.49,0,0,0,314.45,110Z" style="fill: rgb(211, 118, 106); transform-origin: 322.442px 112.328px;" class="animable"></path></g><g id="elfrw67jdc234"><path d="M326.52,103.15a20.18,20.18,0,0,0-3.28,16.62l9.34-3.7-.36-13.67-.13-1.93S329.6,101.65,326.52,103.15Z" style="fill: rgb(38, 50, 56); transform-origin: 327.625px 110.12px;" class="animable"></path></g><g id="elkfbvqxkyhuo"><path d="M352.94,105.21c-2.14,17.5-12.86,18.2-16.63,17.74-3.43-.42-15-2.29-14.72-19.92s9.12-22.17,17-21.62S355.07,87.71,352.94,105.21Z" style="fill: rgb(211, 118, 106); transform-origin: 337.427px 102.203px;" class="animable"></path></g><g id="elxyco0d7eyxa"><path d="M351.06,106.72a12.07,12.07,0,0,1-1.2-.22,1.94,1.94,0,0,1-1.18-.45.63.63,0,0,1,0-.77,1.53,1.53,0,0,1,1.52-.4,2.27,2.27,0,0,1,1.46.76A.67.67,0,0,1,351.06,106.72Z" style="fill: rgb(38, 50, 56); transform-origin: 350.176px 105.772px;" class="animable"></path></g><g id="el3kn7e0o5qj2"><path d="M339.92,103.4a9.88,9.88,0,0,0,1.22,0,2,2,0,0,0,1.25-.2.62.62,0,0,0,.18-.74,1.54,1.54,0,0,0-1.4-.72,2.26,2.26,0,0,0-1.59.44A.67.67,0,0,0,339.92,103.4Z" style="fill: rgb(38, 50, 56); transform-origin: 340.958px 102.577px;" class="animable"></path></g><g id="elc8ycrnwgfjk"><path d="M341.64,106.55s-.1,0-.11.08c-.22,1.18-.68,2.5-1.83,2.65,0,0,0,.06,0,.07C341,109.45,341.62,107.7,341.64,106.55Z" style="fill: rgb(38, 50, 56); transform-origin: 340.67px 107.952px;" class="animable"></path></g><g id="elitw45g4qcrm"><path d="M340.87,105.09c-1.85-.56-2.84,3.19-1.13,3.71S342.42,105.57,340.87,105.09Z" style="fill: rgb(38, 50, 56); transform-origin: 340.252px 106.941px;" class="animable"></path></g><g id="elrebdejplz8o"><path d="M340.08,105.1c-.38.12-.8.41-1.21.35s-.7-.56-.9-1c0-.05-.06,0-.08,0a1.41,1.41,0,0,0,.62,1.83c.68.29,1.35-.22,1.72-.89C340.3,105.27,340.24,105.05,340.08,105.1Z" style="fill: rgb(38, 50, 56); transform-origin: 339.011px 105.395px;" class="animable"></path></g><g id="elj2sm5vm3vbp"><path d="M348.11,107.85s.08.08.06.13c-.35,1.14-.56,2.52.38,3.19,0,0,0,.08,0,.06C347.3,110.7,347.59,108.88,348.11,107.85Z" style="fill: rgb(38, 50, 56); transform-origin: 348.108px 109.542px;" class="animable"></path></g><g id="elgvjbblht9ia"><path d="M349.48,106.92c1.9.37,1,4.14-.74,3.8S347.88,106.61,349.48,106.92Z" style="fill: rgb(38, 50, 56); transform-origin: 349.164px 108.822px;" class="animable"></path></g><g id="elgeriflr50nh"><path d="M350.21,107.35c.25.27.46.7.81.81s.81-.22,1.16-.55c0,0,.06,0,.05.06-.15.72-.56,1.42-1.28,1.4s-1-.75-1-1.51C350,107.42,350.11,107.24,350.21,107.35Z" style="fill: rgb(38, 50, 56); transform-origin: 351.091px 108.193px;" class="animable"></path></g><g id="el2bwbdzo25td"><path d="M338.06,115.34c.14.38.23.85.61,1.08a3.18,3.18,0,0,0,1.29.28c.05,0,.06,0,0,.08a1.62,1.62,0,0,1-1.66-.07,1.29,1.29,0,0,1-.4-1.37C338,115.27,338,115.29,338.06,115.34Z" style="fill: rgb(38, 50, 56); transform-origin: 338.921px 116.135px;" class="animable"></path></g><g id="elb6xnx0nanuo"><path d="M344.35,113.22s-.45,1.76-.77,2.54c0,.07-.23,0-.51-.06h0a4,4,0,0,1-3.05-2.87.09.09,0,0,1,.17-.06,6,6,0,0,0,3,2.36c.14-.19.66-3,.79-3a7.57,7.57,0,0,1,1.62,1.13c1-3.62,1.48-7.39,2.57-11,0-.13.24-.09.23,0a61.38,61.38,0,0,1-2.27,12C346,114.73,344.61,113.48,344.35,113.22Z" style="fill: rgb(38, 50, 56); transform-origin: 344.208px 108.983px;" class="animable"></path></g><g id="elgyu2fkhy04q"><path d="M343.11,115.38a4.89,4.89,0,0,1-2.33.8,2.14,2.14,0,0,1-1.28-.35c-.83-.55-.57-1.39-.16-2a5.19,5.19,0,0,1,.78-1A6.34,6.34,0,0,0,343.11,115.38Z" style="fill: rgb(38, 50, 56); transform-origin: 341.032px 114.506px;" class="animable"></path></g><g id="elsjzo47et7jj"><path d="M340.78,116.18a2.14,2.14,0,0,1-1.28-.35c-.83-.55-.57-1.39-.16-2A2.26,2.26,0,0,1,340.78,116.18Z" style="fill: rgb(255, 154, 187); transform-origin: 339.873px 115.006px;" class="animable"></path></g><g id="el4hmth30yvz"><path d="M321.39,104a7.29,7.29,0,0,0,5.52-4.63,19,19,0,0,0,9.13-4c-.22.32-1.74,2.63-2.55,3.78,11.37,1,17-6.39,17-6.39a19.31,19.31,0,0,1,2.82,8.16s1.91-6.61-.28-12a11.09,11.09,0,0,0-8.65-7.14,15.85,15.85,0,0,0-16.19.47C319.05,88,321.39,104,321.39,104Z" style="fill: rgb(38, 50, 56); transform-origin: 337.602px 91.8921px;" class="animable"></path></g><g id="elryijb8rrq6"><path d="M342.2,99.65a20.64,20.64,0,0,1-6.11.5s0,0,0,0a17.59,17.59,0,0,0,9.26-2.61,16.68,16.68,0,0,0,3.24-2.62,11.49,11.49,0,0,0,2.57-3.72.09.09,0,0,1,.17.06,13.38,13.38,0,0,1-2,4,12.31,12.31,0,0,1-3.39,2.92,14.09,14.09,0,0,1-3.7,1.47" style="fill: rgb(38, 50, 56); transform-origin: 343.713px 95.6685px;" class="animable"></path></g><g id="elnmlaj8t36s"><path d="M324.2,104.71s-2.63-6.18-5.35-5.35-1.54,9.23,1.1,10.9a3,3,0,0,0,4.24-.74Z" style="fill: rgb(211, 118, 106); transform-origin: 320.751px 105.057px;" class="animable"></path></g><g id="elyj58ord5t3"><path d="M319.25,101.76c-.05,0-.07,0,0,.08,1.84,1.23,2.5,3.32,2.84,5.41a1.65,1.65,0,0,0-2.32-1,.06.06,0,0,0,0,.12,1.83,1.83,0,0,1,1.84,1,8.59,8.59,0,0,1,.61,1.79c.06.2.4.17.38-.05v0C323.18,106.61,322,102.6,319.25,101.76Z" style="fill: rgb(38, 50, 56); transform-origin: 320.974px 105.527px;" class="animable"></path></g><g id="elzen9vf2uc6k"><path d="M325.85,106.72s-2.05,7.21.38,11.69c.6,1.09,2,1.63,3.15,2.32,0,0-2.83-3.27.34-13.41Z" style="fill: rgb(38, 50, 56); transform-origin: 327.381px 113.725px;" class="animable"></path></g><g id="eloq3bc8atp"><path d="M337.59,109.64s13.69,3.07,14.3,3,6.28-4.31,5.52-11.34l-23.68-7.41L330.36,100Z" style="fill: rgb(38, 50, 56); opacity: 0.8; transform-origin: 343.92px 103.266px;" class="animable"></path></g><g id="elemis9l3pg4v"><g style="opacity: 0.1; transform-origin: 320.211px 79.08px;" class="animable"><polygon points="298.21 47.95 287.34 58.82 284.74 55.36 293.6 46.51 298.21 47.95" style="fill: rgb(255, 255, 255); transform-origin: 291.475px 52.665px;" id="el7utmb66yxm3" class="animable"></polygon><g id="elbjyjx2tq9b"><path d="M356,108.27l-4.38,4.38c-.7-.1-2.73-.53-5-1l10.4-10.4.39.13A11.73,11.73,0,0,1,356,108.27Z" style="fill: rgb(255, 255, 255); transform-origin: 352.046px 106.95px;" class="animable"></path></g><polygon points="292.72 46.23 284.25 54.7 282.95 52.97 290.41 45.51 292.72 46.23" style="fill: rgb(255, 255, 255); transform-origin: 287.835px 50.105px;" id="elyq7uk1f081n" class="animable"></polygon><g id="elv30g26q093a"><path d="M354.75,100.52l-10.58,10.59a3.84,3.84,0,0,0-.46-.11l10.6-10.6Z" style="fill: rgb(255, 255, 255); transform-origin: 349.23px 105.755px;" class="animable"></path></g></g></g><g id="ell1rotc4vpud"><path d="M357.41,101.35l-18-3.08c-1-.17-3.65,0-4,.41A10.56,10.56,0,0,0,335,103c.22.94,3,3.74,2.58,6.65-.09.63-6.76.82-9,.17s-4.79-2-7.75-5.69-6.74-4.64-9.85-5.69-11.37-2.09-11.72-4S310.82,82.18,331.58,80,359,92.53,357.41,101.35Z" style="fill: rgb(156, 163, 175); transform-origin: 328.444px 95.0034px;" class="animable"></path></g><g id="elhyms279y1ok"><path d="M294.24,123.57c-3.73,17.54-6.45,52.21-3.8,65.77,2,10.25,44.29,20.41,54.8,21,4.2.23,13.3-31.29,8.84-31.9C343.7,177,316,169.36,315.65,169s-5.1-28.31-6.71-40.52C305.94,105.78,296.52,112.82,294.24,123.57Z" style="fill: rgb(211, 118, 106); transform-origin: 322.331px 161.905px;" class="animable"></path></g><g id="elkx07r8fl9pa"><path d="M394.5,199.28c-1,3.86-4.95,2.78-4.95,2.78a7.47,7.47,0,0,1,.66,5c-.8,3-5.79,3-5.79,3a9.19,9.19,0,0,1-.15,5.4c-1,2.75-6.07,3.52-6.07,3.52a8,8,0,0,1-3.12,4.66c-4.3,2.85-11.5-.37-16.06-2.45-6.78-3.09-15.68-12.08-18-13.79l11.52-29.21s24.23,3.26,29.46,6.11S395.47,195.49,394.5,199.28Z" style="fill: rgb(211, 118, 106); transform-origin: 367.799px 201.477px;" class="animable"></path></g><g id="elaz5rhm7j13"><path d="M389.55,201.49c-3.85-3.91-8.64-6.47-13.27-9.29-.11-.07-.2.1-.1.16,4.64,2.76,8.68,6.4,13.21,9.34C389.51,201.78,389.65,201.6,389.55,201.49Z" style="fill: rgb(38, 50, 56); transform-origin: 382.86px 196.952px;" class="animable"></path></g><g id="elohb48qx7r5"><path d="M384.5,209.64a14.81,14.81,0,0,0-3.16-2c-1.16-.63-2.34-1.24-3.52-1.84q-3.56-1.78-7.2-3.38c-.11,0-.21.1-.1.16,2.36,1.19,4.71,2.41,7,3.7,1.15.64,2.3,1.29,3.45,2a16.55,16.55,0,0,0,3.32,1.71A.19.19,0,0,0,384.5,209.64Z" style="fill: rgb(38, 50, 56); transform-origin: 377.535px 206.219px;" class="animable"></path></g><g id="elz01k7zn38t"><path d="M378.1,218.93a10.17,10.17,0,0,0-2.93-1.65c-1.09-.52-2.18-1-3.27-1.58-2.17-1.06-4.34-2.12-6.47-3.26-.11-.05-.21.11-.1.16,2.16,1.17,4.31,2.37,6.48,3.51,1.06.57,2.13,1.12,3.21,1.67a9.24,9.24,0,0,0,3,1.26A.06.06,0,0,0,378.1,218.93Z" style="fill: rgb(38, 50, 56); transform-origin: 371.705px 215.742px;" class="animable"></path></g><g id="elyf51ysdwid"><path d="M348,177.38l-11.31,31.77s-42.11-7.43-46.53-18.27c-3.31-8.12-2.11-39.09,2.86-65,3.18-16.49,13.06-18.52,15.92-.68,2.92,18.2,7.13,42.38,7.53,43.14S348,177.38,348,177.38Z" style="fill: rgb(69, 90, 100); transform-origin: 318.15px 160.898px;" class="animable"></path></g><g id="elthkqth0npf"><path d="M289.66,149.45c.44-4.73,1.1-9.43,1.75-14.12l1-7a18.78,18.78,0,0,0,.12-7c1.65,4.59,0,9.48-.43,14.14-.72,4.69-1.49,9.37-2.48,14Z" style="fill: rgb(38, 50, 56); transform-origin: 291.434px 135.4px;" class="animable"></path></g><g id="el4cy8o6aul5u"><path d="M291.43,124.45a6.48,6.48,0,0,1,1.13,4.73c-.29-1.59-.94-3.11-1.13-4.73Z" style="fill: rgb(38, 50, 56); transform-origin: 292.031px 126.815px;" class="animable"></path></g><g id="el0o8t8ur4mzri"><path d="M310.76,136.13A43.87,43.87,0,0,1,309,122.24a115.67,115.67,0,0,1,1.78,13.89Z" style="fill: rgb(38, 50, 56); transform-origin: 309.877px 129.185px;" class="animable"></path></g><g id="el1xplusekvy3"><path d="M309.78,123a43.25,43.25,0,0,1,.2,4.83,6.81,6.81,0,0,1-.2-4.83Z" style="fill: rgb(38, 50, 56); transform-origin: 309.708px 125.415px;" class="animable"></path></g></g><g id="freepik--Floor--inject-2" class="animable" style="transform-origin: 375px 434.354px;"><g id="ellc3c07o7x8c"><path d="M53,434.35c206.3-.61,437.72-.61,644,0-206.3.62-437.72.62-644,0Z" style="fill: rgb(38, 50, 56); transform-origin: 375px 434.354px;" class="animable"></path></g></g><g id="freepik--Lines--inject-2" class="animable" style="transform-origin: 340.5px 169.172px;"><g id="elsnx5qir367f"><path d="M168.88,166.09c16.7-.75,33.52-.84,50.23-.26-16.7.76-33.53.85-50.23.26Z" style="fill: rgb(255, 255, 255); transform-origin: 193.995px 165.964px;" class="animable"></path></g><g id="elkf9009bflmd"><path d="M276.38,89.05c16.7-.76,33.52-.85,50.24-.27-16.71.76-33.53.85-50.24.27Z" style="fill: rgb(255, 255, 255); transform-origin: 301.5px 88.915px;" class="animable"></path></g><g id="el3b584acrokx"><path d="M298.14,83.65a136.81,136.81,0,0,1,23.69-.12,135.82,135.82,0,0,1-23.69.12Z" style="fill: rgb(156, 163, 175); transform-origin: 309.985px 83.5919px;" class="animable"></path></g><g id="elg8nlsbt6lin"><path d="M157,254.88c15.72-.76,31.57-.84,47.3-.25-15.73.76-31.57.84-47.3.25Z" style="fill: rgb(156, 163, 175); transform-origin: 180.65px 254.755px;" class="animable"></path></g><g id="elzttp8lji0ns"><path d="M119.06,207.29c15.69-.75,31.51-.84,47.21-.25-15.69.76-31.51.84-47.21.25Z" style="fill: rgb(255, 255, 255); transform-origin: 142.665px 207.167px;" class="animable"></path></g><g id="elby3ij37zl"><path d="M216.35,108.92c15.7-.75,31.51-.83,47.22-.24-15.7.75-31.52.83-47.22.24Z" style="fill: rgb(255, 255, 255); transform-origin: 239.96px 108.8px;" class="animable"></path></g><g id="elquz8cbr2eh"><path d="M118.29,148.07c29-.81,61.19-1,90.18-.47-29,.8-61.2,1-90.18.47Z" style="fill: rgb(38, 50, 56); transform-origin: 163.38px 147.834px;" class="animable"></path></g><g id="el4vn5st2ra3t"><path d="M207.56,102.89c22.88-.79,45.92-.91,68.82-.35-22.9.79-45.93.91-68.82.35Z" style="fill: rgb(69, 90, 100); transform-origin: 241.97px 102.715px;" class="animable"></path></g><g id="elemgsqxul04"><path d="M419.5,149.58c16.7-.76,33.53-.85,50.24-.26-16.71.75-33.53.84-50.24.26Z" style="fill: rgb(255, 255, 255); transform-origin: 444.62px 149.446px;" class="animable"></path></g><g id="el4414y885vl8"><path d="M512.47,89.18c16.7-.76,33.53-.85,50.24-.27-16.7.76-33.53.85-50.24.27Z" style="fill: rgb(255, 255, 255); transform-origin: 537.59px 89.045px;" class="animable"></path></g><g id="elffp3zg5xumg"><path d="M526.19,95a187,187,0,0,1,27.7-.14,188.32,188.32,0,0,1-27.7.14Z" style="fill: rgb(55, 71, 79); transform-origin: 540.04px 94.9282px;" class="animable"></path></g><g id="ele3z5byymt9u"><path d="M518.17,156.63a135.71,135.71,0,0,1,23.68-.12,136.7,136.7,0,0,1-23.68.12Z" style="fill: rgb(255, 255, 255); transform-origin: 530.01px 156.568px;" class="animable"></path></g><g id="ell22f7puc4w"><path d="M397.32,254.88c15.72-.76,31.57-.84,47.3-.25-15.73.76-31.57.84-47.3.25Z" style="fill: rgb(69, 90, 100); transform-origin: 420.97px 254.755px;" class="animable"></path></g><g id="elgnplyxw9ij"><path d="M404.88,247.19c15.69-.76,31.5-.84,47.21-.25-15.7.75-31.51.84-47.21.25Z" style="fill: rgb(255, 255, 255); transform-origin: 428.485px 247.063px;" class="animable"></path></g><g id="el6tt2eykt0nh"><path d="M419,109c29.06-.81,61.39-1,90.48-.47-29.09.8-61.4,1-90.48.47Z" style="fill: rgb(156, 163, 175); transform-origin: 464.24px 108.764px;" class="animable"></path></g><g id="elygueto1mzlp"><path d="M378.13,158.8c27.16-.8,57.21-1,84.39-.44-27.17.8-57.22,1-84.39.44Z" style="fill: rgb(69, 90, 100); transform-origin: 420.325px 158.58px;" class="animable"></path></g><g id="el8m0poexrkh7"><path d="M433.45,209.22a186.54,186.54,0,0,1,27.67-.14,187.91,187.91,0,0,1-27.67.14Z" style="fill: rgb(69, 90, 100); transform-origin: 447.285px 209.148px;" class="animable"></path></g></g><defs>     <filter id="active" height="200%">         <feMorphology in="SourceAlpha" result="DILATED" operator="dilate" radius="2"></feMorphology>                <feFlood flood-color="#32DFEC" flood-opacity="1" result="PINK"></feFlood>        <feComposite in="PINK" in2="DILATED" operator="in" result="OUTLINE"></feComposite>        <feMerge>            <feMergeNode in="OUTLINE"></feMergeNode>            <feMergeNode in="SourceGraphic"></feMergeNode>        </feMerge>    </filter>    <filter id="hover" height="200%">        <feMorphology in="SourceAlpha" result="DILATED" operator="dilate" radius="2"></feMorphology>                <feFlood flood-color="#ff0000" flood-opacity="0.5" result="PINK"></feFlood>        <feComposite in="PINK" in2="DILATED" operator="in" result="OUTLINE"></feComposite>        <feMerge>            <feMergeNode in="OUTLINE"></feMergeNode>            <feMergeNode in="SourceGraphic"></feMergeNode>        </feMerge>            <feColorMatrix type="matrix" values="0   0   0   0   0                0   1   0   0   0                0   0   0   0   0                0   0   0   1   0 "></feColorMatrix>    </filter></defs></svg>