<?xml version="1.0" standalone="no"?>
<svg xmlns="http://www.w3.org/2000/svg" width="500" height="500"><defs><clipPath id="clip-path-dot-color"><circle cx="26" cy="170" r="8" transform="rotate(0,26,170)"/><circle cx="26" cy="202" r="8" transform="rotate(0,26,202)"/><path d="M 18 226v 16h 16v -8a 8 8, 0, 0, 0, -8 -8" transform="rotate(-90,26,234)"/><path d="M 18 242v 16h 16v -8a 8 8, 0, 0, 0, -8 -8" transform="rotate(180,26,250)"/><circle cx="26" cy="298" r="8" transform="rotate(0,26,298)"/><path d="M 18 322v 16h 16v -8a 8 8, 0, 0, 0, -8 -8" transform="rotate(-90,26,330)"/><path d="M 18 338v 16h 8a 8 8, 0, 0, 0, 0 -16" transform="rotate(90,26,346)"/><circle cx="42" cy="186" r="8" transform="rotate(0,42,186)"/><path d="M 34 210v 16h 8a 8 8, 0, 0, 0, 0 -16" transform="rotate(-90,42,218)"/><rect x="34" y="226" width="16" height="16" transform="rotate(0,42,234)"/><rect x="34" y="242" width="16" height="16" transform="rotate(0,42,250)"/><path d="M 34 306v 16h 16v -8a 8 8, 0, 0, 0, -8 -8" transform="rotate(-90,42,314)"/><path d="M 34 322v 16h 16v -8a 8 8, 0, 0, 0, -8 -8" transform="rotate(90,42,330)"/><circle cx="58" cy="154" r="8" transform="rotate(0,58,154)"/><path d="M 50 194v 16h 8a 8 8, 0, 0, 0, 0 -16" transform="rotate(180,58,202)"/><path d="M 50 242v 16h 8a 8 8, 0, 0, 0, 0 -16" transform="rotate(0,58,250)"/><path d="M 50 290v 16h 8a 8 8, 0, 0, 0, 0 -16" transform="rotate(-90,58,298)"/><rect x="50" y="306" width="16" height="16" transform="rotate(0,58,314)"/><path d="M 66 178v 16h 8a 8 8, 0, 0, 0, 0 -16" transform="rotate(-90,74,186)"/><rect x="66" y="194" width="16" height="16" transform="rotate(0,74,202)"/><rect x="66" y="210" width="16" height="16" transform="rotate(0,74,218)"/><path d="M 66 226v 16h 8a 8 8, 0, 0, 0, 0 -16" transform="rotate(90,74,234)"/><circle cx="74" cy="282" r="8" transform="rotate(0,74,282)"/><rect x="66" y="306" width="16" height="16" transform="rotate(0,74,314)"/><path d="M 82 146v 16h 8a 8 8, 0, 0, 0, 0 -16" transform="rotate(180,90,154)"/><path d="M 82 242v 16h 8a 8 8, 0, 0, 0, 0 -16" transform="rotate(-90,90,250)"/><path d="M 82 258v 16h 16v -8a 8 8, 0, 0, 0, -8 -8" transform="rotate(180,90,266)"/><path d="M 82 290v 16h 16v -8a 8 8, 0, 0, 0, -8 -8" transform="rotate(-90,90,298)"/><path d="M 82 306v 16h 16v -8a 8 8, 0, 0, 0, -8 -8" transform="rotate(90,90,314)"/><rect x="98" y="146" width="16" height="16" transform="rotate(0,106,154)"/><circle cx="106" cy="234" r="8" transform="rotate(0,106,234)"/><path d="M 98 258v 16h 8a 8 8, 0, 0, 0, 0 -16" transform="rotate(0,106,266)"/><path d="M 98 290v 16h 8a 8 8, 0, 0, 0, 0 -16" transform="rotate(0,106,298)"/><path d="M 98 322v 16h 8a 8 8, 0, 0, 0, 0 -16" transform="rotate(-90,106,330)"/><path d="M 98 338v 16h 16v -8a 8 8, 0, 0, 0, -8 -8" transform="rotate(180,106,346)"/><path d="M 114 146v 16h 8a 8 8, 0, 0, 0, 0 -16" transform="rotate(0,122,154)"/><path d="M 114 178v 16h 8a 8 8, 0, 0, 0, 0 -16" transform="rotate(180,122,186)"/><circle cx="122" cy="218" r="8" transform="rotate(0,122,218)"/><circle cx="122" cy="250" r="8" transform="rotate(0,122,250)"/><path d="M 114 274v 16h 8a 8 8, 0, 0, 0, 0 -16" transform="rotate(180,122,282)"/><circle cx="122" cy="314" r="8" transform="rotate(0,122,314)"/><rect x="114" y="338" width="16" height="16" transform="rotate(0,122,346)"/><path d="M 130 162v 16h 16v -8a 8 8, 0, 0, 0, -8 -8" transform="rotate(-90,138,170)"/><path d="M 130 178v 16h 16v -8a 8 8, 0, 0, 0, -8 -8" transform="rotate(90,138,186)"/><path d="M 130 258v 16h 8a 8 8, 0, 0, 0, 0 -16" transform="rotate(-90,138,266)"/><rect x="130" y="274" width="16" height="16" transform="rotate(0,138,282)"/><rect x="130" y="338" width="16" height="16" transform="rotate(0,138,346)"/><circle cx="154" cy="42" r="8" transform="rotate(0,154,42)"/><path d="M 146 82v 16h 8a 8 8, 0, 0, 0, 0 -16" transform="rotate(180,154,90)"/><circle cx="154" cy="122" r="8" transform="rotate(0,154,122)"/><path d="M 146 146v 16h 8a 8 8, 0, 0, 0, 0 -16" transform="rotate(-90,154,154)"/><rect x="146" y="162" width="16" height="16" transform="rotate(0,154,170)"/><circle cx="154" cy="234" r="8" transform="rotate(0,154,234)"/><rect x="146" y="274" width="16" height="16" transform="rotate(0,154,282)"/><path d="M 146 338v 16h 16v -8a 8 8, 0, 0, 0, -8 -8" transform="rotate(0,154,346)"/><path d="M 146 354v 16h 8a 8 8, 0, 0, 0, 0 -16" transform="rotate(90,154,362)"/><path d="M 146 386v 16h 8a 8 8, 0, 0, 0, 0 -16" transform="rotate(-90,154,394)"/><path d="M 146 402v 16h 16v -8a 8 8, 0, 0, 0, -8 -8" transform="rotate(180,154,410)"/><path d="M 146 434v 16h 8a 8 8, 0, 0, 0, 0 -16" transform="rotate(180,154,442)"/><circle cx="170" cy="58" r="8" transform="rotate(0,170,58)"/><path d="M 162 82v 16h 8a 8 8, 0, 0, 0, 0 -16" transform="rotate(0,170,90)"/><path d="M 162 130v 16h 8a 8 8, 0, 0, 0, 0 -16" transform="rotate(180,170,138)"/><rect x="162" y="162" width="16" height="16" transform="rotate(0,170,170)"/><path d="M 162 194v 16h 8a 8 8, 0, 0, 0, 0 -16" transform="rotate(-90,170,202)"/><path d="M 162 210v 16h 8a 8 8, 0, 0, 0, 0 -16" transform="rotate(90,170,218)"/><path d="M 162 258v 16h 8a 8 8, 0, 0, 0, 0 -16" transform="rotate(-90,170,266)"/><path d="M 162 274v 16h 16v -8a 8 8, 0, 0, 0, -8 -8" transform="rotate(90,170,282)"/><path d="M 162 306v 16h 16v -8a 8 8, 0, 0, 0, -8 -8" transform="rotate(-90,170,314)"/><path d="M 162 322v 16h 16v -8a 8 8, 0, 0, 0, -8 -8" transform="rotate(180,170,330)"/><circle cx="170" cy="378" r="8" transform="rotate(0,170,378)"/><rect x="162" y="402" width="16" height="16" transform="rotate(0,170,410)"/><rect x="162" y="434" width="16" height="16" transform="rotate(0,170,442)"/><rect x="162" y="450" width="16" height="16" transform="rotate(0,170,458)"/><path d="M 162 466v 16h 16v -8a 8 8, 0, 0, 0, -8 -8" transform="rotate(180,170,474)"/><path d="M 178 66v 16h 8a 8 8, 0, 0, 0, 0 -16" transform="rotate(180,186,74)"/><path d="M 178 114v 16h 8a 8 8, 0, 0, 0, 0 -16" transform="rotate(-90,186,122)"/><rect x="178" y="130" width="16" height="16" transform="rotate(0,186,138)"/><rect x="178" y="146" width="16" height="16" transform="rotate(0,186,154)"/><rect x="178" y="162" width="16" height="16" transform="rotate(0,186,170)"/><path d="M 178 178v 16h 8a 8 8, 0, 0, 0, 0 -16" transform="rotate(90,186,186)"/><path d="M 178 226v 16h 16v -8a 8 8, 0, 0, 0, -8 -8" transform="rotate(-90,186,234)"/><path d="M 178 242v 16h 8a 8 8, 0, 0, 0, 0 -16" transform="rotate(90,186,250)"/><rect x="178" y="306" width="16" height="16" transform="rotate(0,186,314)"/><rect x="178" y="322" width="16" height="16" transform="rotate(0,186,330)"/><path d="M 178 354v 16h 8a 8 8, 0, 0, 0, 0 -16" transform="rotate(180,186,362)"/><path d="M 178 402v 16h 16v -8a 8 8, 0, 0, 0, -8 -8" transform="rotate(0,186,410)"/><rect x="178" y="418" width="16" height="16" transform="rotate(0,186,426)"/><path d="M 178 434v 16h 16v -8a 8 8, 0, 0, 0, -8 -8" transform="rotate(90,186,442)"/><rect x="178" y="466" width="16" height="16" transform="rotate(0,186,474)"/><path d="M 194 34v 16h 16v -8a 8 8, 0, 0, 0, -8 -8" transform="rotate(-90,202,42)"/><rect x="194" y="50" width="16" height="16" transform="rotate(0,202,58)"/><rect x="194" y="66" width="16" height="16" transform="rotate(0,202,74)"/><path d="M 194 82v 16h 8a 8 8, 0, 0, 0, 0 -16" transform="rotate(90,202,90)"/><rect x="194" y="130" width="16" height="16" transform="rotate(0,202,138)"/><rect x="194" y="146" width="16" height="16" transform="rotate(0,202,154)"/><path d="M 194 210v 16h 16v -8a 8 8, 0, 0, 0, -8 -8" transform="rotate(-90,202,218)"/><rect x="194" y="226" width="16" height="16" transform="rotate(0,202,234)"/><path d="M 194 274v 16h 16v -8a 8 8, 0, 0, 0, -8 -8" transform="rotate(-90,202,282)"/><rect x="194" y="290" width="16" height="16" transform="rotate(0,202,298)"/><rect x="194" y="306" width="16" height="16" transform="rotate(0,202,314)"/><rect x="194" y="322" width="16" height="16" transform="rotate(0,202,330)"/><rect x="194" y="338" width="16" height="16" transform="rotate(0,202,346)"/><path d="M 194 354v 16h 16v -8a 8 8, 0, 0, 0, -8 -8" transform="rotate(90,202,362)"/><path d="M 194 450v 16h 8a 8 8, 0, 0, 0, 0 -16" transform="rotate(-90,202,458)"/><rect x="194" y="466" width="16" height="16" transform="rotate(0,202,474)"/><path d="M 210 18v 16h 8a 8 8, 0, 0, 0, 0 -16" transform="rotate(-90,218,26)"/><rect x="210" y="34" width="16" height="16" transform="rotate(0,218,42)"/><path d="M 210 98v 16h 16v -8a 8 8, 0, 0, 0, -8 -8" transform="rotate(-90,218,106)"/><rect x="210" y="114" width="16" height="16" transform="rotate(0,218,122)"/><rect x="210" y="130" width="16" height="16" transform="rotate(0,218,138)"/><path d="M 210 146v 16h 16v -8a 8 8, 0, 0, 0, -8 -8" transform="rotate(90,218,154)"/><path d="M 210 194v 16h 16v -8a 8 8, 0, 0, 0, -8 -8" transform="rotate(-90,218,202)"/><rect x="210" y="210" width="16" height="16" transform="rotate(0,218,218)"/><rect x="210" y="226" width="16" height="16" transform="rotate(0,218,234)"/><path d="M 210 258v 16h 16v -8a 8 8, 0, 0, 0, -8 -8" transform="rotate(-90,218,266)"/><rect x="210" y="274" width="16" height="16" transform="rotate(0,218,282)"/><path d="M 210 290v 16h 16v -8a 8 8, 0, 0, 0, -8 -8" transform="rotate(90,218,298)"/><path d="M 210 338v 16h 8a 8 8, 0, 0, 0, 0 -16" transform="rotate(0,218,346)"/><circle cx="218" cy="394" r="8" transform="rotate(0,218,394)"/><circle cx="218" cy="426" r="8" transform="rotate(0,218,426)"/><rect x="210" y="466" width="16" height="16" transform="rotate(0,218,474)"/><path d="M 226 34v 16h 16v -8a 8 8, 0, 0, 0, -8 -8" transform="rotate(0,234,42)"/><path d="M 226 50v 16h 16v -8a 8 8, 0, 0, 0, -8 -8" transform="rotate(180,234,58)"/><path d="M 226 82v 16h 8a 8 8, 0, 0, 0, 0 -16" transform="rotate(-90,234,90)"/><path d="M 226 98v 16h 16v -8a 8 8, 0, 0, 0, -8 -8" transform="rotate(90,234,106)"/><circle cx="234" cy="170" r="8" transform="rotate(0,234,170)"/><path d="M 226 194v 16h 16v -8a 8 8, 0, 0, 0, -8 -8" transform="rotate(0,234,202)"/><rect x="226" y="210" width="16" height="16" transform="rotate(0,234,218)"/><rect x="226" y="226" width="16" height="16" transform="rotate(0,234,234)"/><rect x="226" y="242" width="16" height="16" transform="rotate(0,234,250)"/><rect x="226" y="258" width="16" height="16" transform="rotate(0,234,266)"/><path d="M 226 274v 16h 16v -8a 8 8, 0, 0, 0, -8 -8" transform="rotate(90,234,282)"/><circle cx="234" cy="314" r="8" transform="rotate(0,234,314)"/><circle cx="234" cy="378" r="8" transform="rotate(0,234,378)"/><path d="M 226 402v 16h 8a 8 8, 0, 0, 0, 0 -16" transform="rotate(180,234,410)"/><circle cx="234" cy="442" r="8" transform="rotate(0,234,442)"/><rect x="226" y="466" width="16" height="16" transform="rotate(0,234,474)"/><path d="M 242 50v 16h 8a 8 8, 0, 0, 0, 0 -16" transform="rotate(0,250,58)"/><circle cx="250" cy="122" r="8" transform="rotate(0,250,122)"/><circle cx="250" cy="186" r="8" transform="rotate(0,250,186)"/><rect x="242" y="210" width="16" height="16" transform="rotate(0,250,218)"/><rect x="242" y="226" width="16" height="16" transform="rotate(0,250,234)"/><rect x="242" y="242" width="16" height="16" transform="rotate(0,250,250)"/><path d="M 242 290v 16h 8a 8 8, 0, 0, 0, 0 -16" transform="rotate(180,250,298)"/><path d="M 242 402v 16h 8a 8 8, 0, 0, 0, 0 -16" transform="rotate(0,250,410)"/><path d="M 242 466v 16h 8a 8 8, 0, 0, 0, 0 -16" transform="rotate(0,250,474)"/><path d="M 258 18v 16h 16v -8a 8 8, 0, 0, 0, -8 -8" transform="rotate(-90,266,26)"/><path d="M 258 34v 16h 16v -8a 8 8, 0, 0, 0, -8 -8" transform="rotate(180,266,42)"/><path d="M 258 66v 16h 16v -8a 8 8, 0, 0, 0, -8 -8" transform="rotate(-90,266,74)"/><rect x="258" y="82" width="16" height="16" transform="rotate(0,266,90)"/><path d="M 258 98v 16h 16v -8a 8 8, 0, 0, 0, -8 -8" transform="rotate(180,266,106)"/><path d="M 258 130v 16h 8a 8 8, 0, 0, 0, 0 -16" transform="rotate(-90,266,138)"/><path d="M 258 146v 16h 8a 8 8, 0, 0, 0, 0 -16" transform="rotate(90,266,154)"/><rect x="258" y="210" width="16" height="16" transform="rotate(0,266,218)"/><rect x="258" y="226" width="16" height="16" transform="rotate(0,266,234)"/><rect x="258" y="242" width="16" height="16" transform="rotate(0,266,250)"/><path d="M 258 290v 16h 16v -8a 8 8, 0, 0, 0, -8 -8" transform="rotate(0,266,298)"/><path d="M 258 306v 16h 16v -8a 8 8, 0, 0, 0, -8 -8" transform="rotate(180,266,314)"/><circle cx="266" cy="346" r="8" transform="rotate(0,266,346)"/><circle cx="266" cy="394" r="8" transform="rotate(0,266,394)"/><circle cx="266" cy="426" r="8" transform="rotate(0,266,426)"/><path d="M 258 450v 16h 8a 8 8, 0, 0, 0, 0 -16" transform="rotate(180,266,458)"/><rect x="274" y="18" width="16" height="16" transform="rotate(0,282,26)"/><path d="M 274 34v 16h 16v -8a 8 8, 0, 0, 0, -8 -8" transform="rotate(90,282,42)"/><path d="M 274 66v 16h 8a 8 8, 0, 0, 0, 0 -16" transform="rotate(0,282,74)"/><path d="M 274 98v 16h 16v -8a 8 8, 0, 0, 0, -8 -8" transform="rotate(0,282,106)"/><path d="M 274 114v 16h 8a 8 8, 0, 0, 0, 0 -16" transform="rotate(90,282,122)"/><path d="M 274 210v 16h 8a 8 8, 0, 0, 0, 0 -16" transform="rotate(0,282,218)"/><path d="M 274 242v 16h 8a 8 8, 0, 0, 0, 0 -16" transform="rotate(0,282,250)"/><path d="M 274 306v 16h 16v -8a 8 8, 0, 0, 0, -8 -8" transform="rotate(0,282,314)"/><path d="M 274 322v 16h 16v -8a 8 8, 0, 0, 0, -8 -8" transform="rotate(180,282,330)"/><path d="M 274 450v 16h 16v -8a 8 8, 0, 0, 0, -8 -8" transform="rotate(0,282,458)"/><path d="M 274 466v 16h 16v -8a 8 8, 0, 0, 0, -8 -8" transform="rotate(180,282,474)"/><path d="M 290 18v 16h 8a 8 8, 0, 0, 0, 0 -16" transform="rotate(0,298,26)"/><path d="M 290 50v 16h 8a 8 8, 0, 0, 0, 0 -16" transform="rotate(180,298,58)"/><circle cx="298" cy="90" r="8" transform="rotate(0,298,90)"/><path d="M 290 146v 16h 8a 8 8, 0, 0, 0, 0 -16" transform="rotate(180,298,154)"/><path d="M 290 194v 16h 8a 8 8, 0, 0, 0, 0 -16" transform="rotate(180,298,202)"/><path d="M 290 274v 16h 16v -8a 8 8, 0, 0, 0, -8 -8" transform="rotate(-90,298,282)"/><path d="M 290 290v 16h 16v -8a 8 8, 0, 0, 0, -8 -8" transform="rotate(180,298,298)"/><path d="M 290 322v 16h 16v -8a 8 8, 0, 0, 0, -8 -8" transform="rotate(0,298,330)"/><path d="M 290 338v 16h 16v -8a 8 8, 0, 0, 0, -8 -8" transform="rotate(180,298,346)"/><path d="M 290 386v 16h 16v -8a 8 8, 0, 0, 0, -8 -8" transform="rotate(-90,298,394)"/><path d="M 290 402v 16h 16v -8a 8 8, 0, 0, 0, -8 -8" transform="rotate(180,298,410)"/><rect x="290" y="466" width="16" height="16" transform="rotate(0,298,474)"/><rect x="306" y="50" width="16" height="16" transform="rotate(0,314,58)"/><path d="M 306 98v 16h 8a 8 8, 0, 0, 0, 0 -16" transform="rotate(-90,314,106)"/><path d="M 306 114v 16h 8a 8 8, 0, 0, 0, 0 -16" transform="rotate(90,314,122)"/><path d="M 306 146v 16h 8a 8 8, 0, 0, 0, 0 -16" transform="rotate(0,314,154)"/><path d="M 306 194v 16h 8a 8 8, 0, 0, 0, 0 -16" transform="rotate(0,314,202)"/><circle cx="314" cy="250" r="8" transform="rotate(0,314,250)"/><path d="M 306 274v 16h 16v -8a 8 8, 0, 0, 0, -8 -8" transform="rotate(0,314,282)"/><rect x="306" y="290" width="16" height="16" transform="rotate(0,314,298)"/><path d="M 306 338v 16h 8a 8 8, 0, 0, 0, 0 -16" transform="rotate(0,314,346)"/><rect x="306" y="386" width="16" height="16" transform="rotate(0,314,394)"/><path d="M 306 402v 16h 16v -8a 8 8, 0, 0, 0, -8 -8" transform="rotate(90,314,410)"/><circle cx="314" cy="442" r="8" transform="rotate(0,314,442)"/><path d="M 306 466v 16h 8a 8 8, 0, 0, 0, 0 -16" transform="rotate(0,314,474)"/><path d="M 322 50v 16h 16v -8a 8 8, 0, 0, 0, -8 -8" transform="rotate(0,330,58)"/><rect x="322" y="66" width="16" height="16" transform="rotate(0,330,74)"/><path d="M 322 82v 16h 16v -8a 8 8, 0, 0, 0, -8 -8" transform="rotate(180,330,90)"/><circle cx="330" cy="234" r="8" transform="rotate(0,330,234)"/><rect x="322" y="290" width="16" height="16" transform="rotate(0,330,298)"/><rect x="322" y="386" width="16" height="16" transform="rotate(0,330,394)"/><path d="M 322 418v 16h 8a 8 8, 0, 0, 0, 0 -16" transform="rotate(180,330,426)"/><path d="M 338 18v 16h 8a 8 8, 0, 0, 0, 0 -16" transform="rotate(-90,346,26)"/><path d="M 338 34v 16h 8a 8 8, 0, 0, 0, 0 -16" transform="rotate(90,346,42)"/><path d="M 338 66v 16h 16v -8a 8 8, 0, 0, 0, -8 -8" transform="rotate(0,346,74)"/><rect x="338" y="82" width="16" height="16" transform="rotate(0,346,90)"/><rect x="338" y="98" width="16" height="16" transform="rotate(0,346,106)"/><path d="M 338 114v 16h 8a 8 8, 0, 0, 0, 0 -16" transform="rotate(90,346,122)"/><path d="M 338 146v 16h 8a 8 8, 0, 0, 0, 0 -16" transform="rotate(180,346,154)"/><circle cx="346" cy="186" r="8" transform="rotate(0,346,186)"/><path d="M 338 210v 16h 8a 8 8, 0, 0, 0, 0 -16" transform="rotate(180,346,218)"/><path d="M 338 242v 16h 16v -8a 8 8, 0, 0, 0, -8 -8" transform="rotate(-90,346,250)"/><path d="M 338 258v 16h 16v -8a 8 8, 0, 0, 0, -8 -8" transform="rotate(180,346,266)"/><rect x="338" y="290" width="16" height="16" transform="rotate(0,346,298)"/><path d="M 338 322v 16h 16v -8a 8 8, 0, 0, 0, -8 -8" transform="rotate(-90,346,330)"/><rect x="338" y="338" width="16" height="16" transform="rotate(0,346,346)"/><rect x="338" y="354" width="16" height="16" transform="rotate(0,346,362)"/><rect x="338" y="370" width="16" height="16" transform="rotate(0,346,378)"/><rect x="338" y="386" width="16" height="16" transform="rotate(0,346,394)"/><rect x="338" y="402" width="16" height="16" transform="rotate(0,346,410)"/><path d="M 338 418v 16h 16v -8a 8 8, 0, 0, 0, -8 -8" transform="rotate(90,346,426)"/><circle cx="346" cy="458" r="8" transform="rotate(0,346,458)"/><path d="M 354 146v 16h 16v -8a 8 8, 0, 0, 0, -8 -8" transform="rotate(0,362,154)"/><path d="M 354 162v 16h 16v -8a 8 8, 0, 0, 0, -8 -8" transform="rotate(180,362,170)"/><path d="M 354 194v 16h 8a 8 8, 0, 0, 0, 0 -16" transform="rotate(-90,362,202)"/><rect x="354" y="210" width="16" height="16" transform="rotate(0,362,218)"/><rect x="354" y="226" width="16" height="16" transform="rotate(0,362,234)"/><rect x="354" y="242" width="16" height="16" transform="rotate(0,362,250)"/><rect x="354" y="258" width="16" height="16" transform="rotate(0,362,266)"/><rect x="354" y="274" width="16" height="16" transform="rotate(0,362,282)"/><path d="M 354 290v 16h 16v -8a 8 8, 0, 0, 0, -8 -8" transform="rotate(90,362,298)"/><rect x="354" y="322" width="16" height="16" transform="rotate(0,362,330)"/><rect x="354" y="338" width="16" height="16" transform="rotate(0,362,346)"/><rect x="354" y="402" width="16" height="16" transform="rotate(0,362,410)"/><circle cx="362" cy="442" r="8" transform="rotate(0,362,442)"/><path d="M 354 466v 16h 8a 8 8, 0, 0, 0, 0 -16" transform="rotate(180,362,474)"/><path d="M 370 162v 16h 8a 8 8, 0, 0, 0, 0 -16" transform="rotate(0,378,170)"/><path d="M 370 226v 16h 8a 8 8, 0, 0, 0, 0 -16" transform="rotate(0,378,234)"/><path d="M 370 258v 16h 16v -8a 8 8, 0, 0, 0, -8 -8" transform="rotate(0,378,266)"/><path d="M 370 274v 16h 16v -8a 8 8, 0, 0, 0, -8 -8" transform="rotate(90,378,282)"/><path d="M 370 306v 16h 8a 8 8, 0, 0, 0, 0 -16" transform="rotate(-90,378,314)"/><rect x="370" y="322" width="16" height="16" transform="rotate(0,378,330)"/><rect x="370" y="338" width="16" height="16" transform="rotate(0,378,346)"/><circle cx="378" cy="378" r="8" transform="rotate(0,378,378)"/><rect x="370" y="402" width="16" height="16" transform="rotate(0,378,410)"/><rect x="370" y="466" width="16" height="16" transform="rotate(0,378,474)"/><path d="M 386 178v 16h 8a 8 8, 0, 0, 0, 0 -16" transform="rotate(180,394,186)"/><circle cx="394" cy="218" r="8" transform="rotate(0,394,218)"/><circle cx="394" cy="250" r="8" transform="rotate(0,394,250)"/><rect x="386" y="322" width="16" height="16" transform="rotate(0,394,330)"/><rect x="386" y="338" width="16" height="16" transform="rotate(0,394,346)"/><rect x="386" y="402" width="16" height="16" transform="rotate(0,394,410)"/><path d="M 386 418v 16h 8a 8 8, 0, 0, 0, 0 -16" transform="rotate(90,394,426)"/><rect x="386" y="466" width="16" height="16" transform="rotate(0,394,474)"/><path d="M 402 146v 16h 8a 8 8, 0, 0, 0, 0 -16" transform="rotate(-90,410,154)"/><rect x="402" y="162" width="16" height="16" transform="rotate(0,410,170)"/><rect x="402" y="178" width="16" height="16" transform="rotate(0,410,186)"/><path d="M 402 194v 16h 8a 8 8, 0, 0, 0, 0 -16" transform="rotate(90,410,202)"/><path d="M 402 258v 16h 8a 8 8, 0, 0, 0, 0 -16" transform="rotate(-90,410,266)"/><path d="M 402 274v 16h 8a 8 8, 0, 0, 0, 0 -16" transform="rotate(90,410,282)"/><path d="M 402 322v 16h 16v -8a 8 8, 0, 0, 0, -8 -8" transform="rotate(0,410,330)"/><rect x="402" y="338" width="16" height="16" transform="rotate(0,410,346)"/><rect x="402" y="354" width="16" height="16" transform="rotate(0,410,362)"/><rect x="402" y="370" width="16" height="16" transform="rotate(0,410,378)"/><rect x="402" y="386" width="16" height="16" transform="rotate(0,410,394)"/><path d="M 402 402v 16h 16v -8a 8 8, 0, 0, 0, -8 -8" transform="rotate(90,410,410)"/><path d="M 402 466v 16h 8a 8 8, 0, 0, 0, 0 -16" transform="rotate(0,410,474)"/><path d="M 418 162v 16h 8a 8 8, 0, 0, 0, 0 -16" transform="rotate(0,426,170)"/><path d="M 418 210v 16h 8a 8 8, 0, 0, 0, 0 -16" transform="rotate(180,426,218)"/><circle cx="426" cy="250" r="8" transform="rotate(0,426,250)"/><path d="M 418 306v 16h 8a 8 8, 0, 0, 0, 0 -16" transform="rotate(180,426,314)"/><path d="M 418 386v 16h 8a 8 8, 0, 0, 0, 0 -16" transform="rotate(0,426,394)"/><path d="M 418 450v 16h 8a 8 8, 0, 0, 0, 0 -16" transform="rotate(180,426,458)"/><circle cx="442" cy="186" r="8" transform="rotate(0,442,186)"/><path d="M 434 210v 16h 16v -8a 8 8, 0, 0, 0, -8 -8" transform="rotate(0,442,218)"/><path d="M 434 226v 16h 16v -8a 8 8, 0, 0, 0, -8 -8" transform="rotate(180,442,234)"/><path d="M 434 258v 16h 8a 8 8, 0, 0, 0, 0 -16" transform="rotate(180,442,266)"/><path d="M 434 290v 16h 16v -8a 8 8, 0, 0, 0, -8 -8" transform="rotate(-90,442,298)"/><rect x="434" y="306" width="16" height="16" transform="rotate(0,442,314)"/><rect x="434" y="322" width="16" height="16" transform="rotate(0,442,330)"/><rect x="434" y="338" width="16" height="16" transform="rotate(0,442,346)"/><path d="M 434 354v 16h 8a 8 8, 0, 0, 0, 0 -16" transform="rotate(90,442,362)"/><path d="M 434 418v 16h 16v -8a 8 8, 0, 0, 0, -8 -8" transform="rotate(-90,442,426)"/><rect x="434" y="434" width="16" height="16" transform="rotate(0,442,442)"/><rect x="434" y="450" width="16" height="16" transform="rotate(0,442,458)"/><path d="M 434 466v 16h 16v -8a 8 8, 0, 0, 0, -8 -8" transform="rotate(180,442,474)"/><circle cx="458" cy="154" r="8" transform="rotate(0,458,154)"/><rect x="450" y="226" width="16" height="16" transform="rotate(0,458,234)"/><path d="M 450 258v 16h 16v -8a 8 8, 0, 0, 0, -8 -8" transform="rotate(0,458,266)"/><rect x="450" y="274" width="16" height="16" transform="rotate(0,458,282)"/><rect x="450" y="290" width="16" height="16" transform="rotate(0,458,298)"/><circle cx="458" cy="394" r="8" transform="rotate(0,458,394)"/><path d="M 450 418v 16h 8a 8 8, 0, 0, 0, 0 -16" transform="rotate(0,458,426)"/><rect x="450" y="450" width="16" height="16" transform="rotate(0,458,458)"/><path d="M 450 466v 16h 16v -8a 8 8, 0, 0, 0, -8 -8" transform="rotate(90,458,474)"/><path d="M 466 162v 16h 8a 8 8, 0, 0, 0, 0 -16" transform="rotate(-90,474,170)"/><rect x="466" y="178" width="16" height="16" transform="rotate(0,474,186)"/><path d="M 466 194v 16h 8a 8 8, 0, 0, 0, 0 -16" transform="rotate(90,474,202)"/><path d="M 466 226v 16h 8a 8 8, 0, 0, 0, 0 -16" transform="rotate(0,474,234)"/><path d="M 466 290v 16h 8a 8 8, 0, 0, 0, 0 -16" transform="rotate(0,474,298)"/><circle cx="474" cy="378" r="8" transform="rotate(0,474,378)"/><circle cx="474" cy="410" r="8" transform="rotate(0,474,410)"/><path d="M 466 450v 16h 8a 8 8, 0, 0, 0, 0 -16" transform="rotate(0,474,458)"/></clipPath><clipPath id="clip-path-corners-square-color-0-0"><path clip-rule="evenodd" d="M 18 18v 112h 112v -112zM 34 34h 80v 80h -80z" transform="rotate(0,74,74)"/></clipPath><clipPath id="clip-path-corners-dot-color-0-0"><rect x="50" y="50" width="48" height="48" transform="rotate(0,74,74)"/></clipPath><clipPath id="clip-path-corners-square-color-1-0"><path clip-rule="evenodd" d="M 370 18v 112h 112v -112zM 386 34h 80v 80h -80z" transform="rotate(90,426,74)"/></clipPath><clipPath id="clip-path-corners-dot-color-1-0"><rect x="402" y="50" width="48" height="48" transform="rotate(90,426,74)"/></clipPath><clipPath id="clip-path-corners-square-color-0-1"><path clip-rule="evenodd" d="M 18 370v 112h 112v -112zM 34 386h 80v 80h -80z" transform="rotate(-90,74,426)"/></clipPath><clipPath id="clip-path-corners-dot-color-0-1"><rect x="50" y="402" width="48" height="48" transform="rotate(-90,74,426)"/></clipPath></defs><rect x="0" y="0" height="500" width="500" clip-path="url('#clip-path-background-color')" fill="#fff"/><rect x="0" y="0" height="500" width="500" clip-path="url('#clip-path-dot-color')" fill="#18417E"/><rect x="18" y="18" height="112" width="112" clip-path="url('#clip-path-corners-square-color-0-0')" fill="#18417E"/><rect x="50" y="50" height="48" width="48" clip-path="url('#clip-path-corners-dot-color-0-0')" fill="#18417E"/><rect x="370" y="18" height="112" width="112" clip-path="url('#clip-path-corners-square-color-1-0')" fill="#18417E"/><rect x="402" y="50" height="48" width="48" clip-path="url('#clip-path-corners-dot-color-1-0')" fill="#18417E"/><rect x="18" y="370" height="112" width="112" clip-path="url('#clip-path-corners-square-color-0-1')" fill="#18417E"/><rect x="50" y="402" height="48" width="48" clip-path="url('#clip-path-corners-dot-color-0-1')" fill="#18417E"/></svg>